<svg viewBox="0 0 90 90" xmlns="http://www.w3.org/2000/svg"><g fill="none" fill-rule="evenodd"><rect fill="#0053AC" width="90" height="90" rx="45"/><path d="M39.462 30.41c5.25-6.148 20.923-3.637 25.538-1.775V13.284c-7.14-1.258-17.429-1.913-24.997-.44C29.93 14.812 20.85 20.99 17.008 31.906c-1.07 3.064-2.09 7.902-2.002 13.174-.094 5.272.907 10.029 2.002 13.086 4.05 11.45 11.101 17.126 22.983 19.063 7.593 1.31 17.844.806 24.996-.44v-15.35c-4.848 2.095-19.14 3.17-24.82-1.856-4.017-3.549-5.144-11.199-5.018-14.47-.126-3.335-.152-9.419 4.3-14.628" fill="#FFF"/></g></svg>