<svg viewBox="0 0 90 90" xmlns="http://www.w3.org/2000/svg"><path d="M79.574 63.768a3.121 3.121 0 0 1-2.09-.806c.188-1.628.313-3.273.334-4.947a3.144 3.144 0 0 1 1.756-.542 3.15 3.15 0 0 1 3.137 3.153 3.128 3.128 0 0 1-.915 2.221 3.14 3.14 0 0 1-2.222.92m-69.148 0a3.14 3.14 0 0 1-2.222-.92 3.128 3.128 0 0 1-.915-2.22c0-1.741 1.412-3.156 3.137-3.156a3.16 3.16 0 0 1 1.756.544c.021 1.674.146 3.319.335 4.947a3.13 3.13 0 0 1-2.091.806M79.369 49.95c-.882 0-1.729.12-2.542.32-3.124-12.403-13.274-22-25.953-24.268a28.618 28.618 0 0 0-1.652-.25c.094-3.108.24-6.7 4.794-9.93L53.295 14s-8.874 2.768-9.903 10.39c-.443-2.075-4.581-4.67-6.63-5.162l-1.019 1.65s2.716 1.364 3.377 5.125C26.445 28.276 16.297 37.87 13.173 50.27a10.706 10.706 0 0 0-2.545-.317C4.77 49.953 0 54.728 0 60.626c0 5.886 4.77 10.672 10.628 10.672a10.63 10.63 0 0 0 3.885-.747A32.773 32.773 0 0 0 17.968 77l8.824-5.97-.076-.1c-2.333-3.009-3.761-7.442-4-11.854-.265-4.863.918-9.697 4.015-12.538 6.382-5.451 13.33-2.968 17.684 2.26h1.17c4.354-5.228 11.302-7.711 17.686-2.26 3.095 2.84 4.278 7.675 4.015 12.54-.24 4.41-1.669 8.843-4.002 11.855l-.076.096L72.032 77a32.821 32.821 0 0 0 3.455-6.45 10.62 10.62 0 0 0 3.882.748C85.23 71.298 90 66.512 90 60.626c0-5.9-4.77-10.675-10.63-10.675" fill="#00BF6F" fill-rule="evenodd"/></svg>