<svg viewBox="0 0 90 90" xmlns="http://www.w3.org/2000/svg"><defs><linearGradient x1="50%" y1="0%" x2="50%" y2="100%" id="a"><stop stop-color="#224361" offset="0%"/><stop stop-color="#213B4F" offset="100%"/></linearGradient></defs><g fill="none" fill-rule="evenodd"><path fill="url(#a)" d="M0 0h90v90H0z"/><g fill-rule="nonzero"><path d="M59.071 58.68a18.81 18.81 0 0 1-13.387 5.55 18.813 18.813 0 0 1-13.38-5.544 18.848 18.848 0 0 1-5.546-13.402A18.848 18.848 0 0 1 32.3 31.888a18.81 18.81 0 0 1 13.381-5.55 18.827 18.827 0 0 1 13.39 5.55 18.854 18.854 0 0 1 5.54 13.396 18.843 18.843 0 0 1-5.54 13.396ZM45.684 17.572C30.422 17.574 18 30.006 18 45.284 18 60.564 30.422 72.998 45.684 73c15.263-.002 27.683-12.436 27.683-27.716 0-15.278-12.42-27.71-27.683-27.712Zm30.156-2.107H78v-2.157h-2.16v2.157Zm0-4.302H78V9h-2.16v2.163Zm-6.072 6.396h2.02v-2.11h-2.02v2.11Z" fill="#FFB700"/><path d="M65.771 21.61h2.03v-2.016h-2.03v2.016Zm6.014-2.016h2.26v-2.033h-2.258l-.002 2.033Zm-8.034 0h2.022V17.66h-2.022v1.934Zm6.017 2.016h2.02v-2.016h-2.02v2.016Zm3.94-8.304h2.134v-2.143h-2.135v2.143Zm-3.94 2.144h3.94v-2.144h-3.94v2.144Zm-1.962 4.144h1.96V15.45h-1.96v4.144Zm0 4.052H65.77V21.61h-3.374v1.467H60.59v1.809h2.019v2.012H60.59v-2.012h-2.146v3.156h-2.03v2.018h-1.346v2.024h-1.48c-1.663 2.476-5.83 10.189-7.092 13.334-4.539-6.325-8.064-8.834-10.839-9.742-1.502-.45-3.306 1.181-.816 3.752 5.712 6.287 7.513 11.497 9.25 15.653.92 2.189 5.036 2.53 5.866.3 1.756-4.716 4.306-10.015 7.325-14.364v-2.256h1.612v-2.03h1.696v-2.357h2.027v-2.27h-2.05v-2.067h2.05v2.065h2.001l-.008-2.045h1.611v-2.465h1.804v-1.7h1.74V21.61h-1.962v2.036" fill="#FFF"/></g></g></svg>