<svg viewBox="0 0 90 90" xmlns="http://www.w3.org/2000/svg"><g fill="none" fill-rule="evenodd"><path fill="#242D35" d="M0 0h90v90H0z"/><g fill-rule="nonzero"><path d="M29.438 42.3c-1.488.478-3.05.704-4.619.67h-8.316V27.8h8.262c3.464 0 6.046.648 7.684 1.934 1.639 1.287 2.434 3.168 2.434 5.65a7.114 7.114 0 0 1-.57 2.8 6.58 6.58 0 0 1-1.77 2.407 9.082 9.082 0 0 1-3.12 1.73m-12.92 3.259h9.76c1.482-.019 2.96.161 4.392.534a9.558 9.558 0 0 1 3.222 1.505 6.589 6.589 0 0 1 1.982 2.37c.474.984.711 2.06.694 3.145.127 2.255-.828 4.44-2.59 5.929-1.724 1.407-4.33 2.121-7.732 2.121h-9.728V45.581Zm14.714-1.633a12.436 12.436 0 0 0 2.278-1.03c.99-.569 1.876-1.29 2.621-2.138a9.016 9.016 0 0 0 1.646-2.693 8.409 8.409 0 0 0 .57-3.01 10.645 10.645 0 0 0-.78-4.243 8.156 8.156 0 0 0-2.513-3.198 11.74 11.74 0 0 0-4.251-1.971 24.228 24.228 0 0 0-5.992-.662H13v38.996h13.263a21.204 21.204 0 0 0 5.773-.752 12.5 12.5 0 0 0 4.33-2.13 9.276 9.276 0 0 0 2.699-3.423c.634-1.425.95-2.963.928-4.514.096-2.38-.853-4.688-2.613-6.358a12.52 12.52 0 0 0-6.132-2.89" fill="#21CAF1"/><path d="M73.574 25.286c-.214.16-.376.38-.465.632l-13.05 31.87c-.165.406-.315.843-.458 1.301l-.09.324c0-.113-.067-.218-.097-.324a40.59 40.59 0 0 0-.444-1.3L45.9 25.918c-.1-.251-.26-.473-.466-.648a1.209 1.209 0 0 0-.804-.27H42l16.001 38.82.075.18h2.848L77 25h-2.554a1.291 1.291 0 0 0-.834.286" fill="#FFF"/></g></g></svg>