<svg viewBox="0 0 90 90" xmlns="http://www.w3.org/2000/svg"><g fill="none" fill-rule="evenodd"><path fill="#E84352" d="M0 0h90v90H0z"/><path d="M68.336 15.62H21.665c-4.587 0-8.306 3.749-8.306 8.37v23.184c0 .43.033.853.096 1.266a17.903 17.903 0 0 0-.096 1.873c0 13.29 14.166 24.067 31.64 24.067 17.476 0 31.642-10.778 31.642-24.067 0-.631-.034-1.255-.096-1.873.062-.413.096-.836.096-1.266V23.99c0-4.623-3.723-8.37-8.305-8.37Zm-3.933 23.308-16.342 16.34a4.19 4.19 0 0 1-3.01 1.23 4.187 4.187 0 0 1-3.115-1.23l-16.338-16.34a4.202 4.202 0 0 1 0-5.94 4.197 4.197 0 0 1 5.94 0L45 46.45l13.462-13.463a4.203 4.203 0 0 1 5.941 0 4.198 4.198 0 0 1 0 5.941Z" fill="#FFF" fill-rule="nonzero"/></g></svg>