<svg viewBox="0 0 90 90" xmlns="http://www.w3.org/2000/svg"><g fill="#0CC466"><path d="M45 0c24.853 0 45 20.147 45 45S69.853 90 45 90 0 69.853 0 45 20.147 0 45 0Zm0 6C23.46 6 6 23.46 6 45s17.46 39 39 39 39-17.46 39-39S66.54 6 45 6Z"/><path d="m46.43 48.862.175.104 15 9.5a3 3 0 0 1-3.053 5.162l-.157-.094L48 56.951V89h-6V56.95l-10.395 6.584a3 3 0 0 1-4.037-.777l-.102-.152a3 3 0 0 1 .777-4.037l.152-.102 15-9.5a3 3 0 0 1 3.035-.104ZM8.395 20.402 36.15 36.427l-.505-12.295a3 3 0 0 1 2.692-3.107l.183-.013a3 3 0 0 1 3.107 2.692l.013.183.727 17.74a3 3 0 0 1-1.428 2.68l-.177.1-15.727 8.24a3 3 0 0 1-2.944-5.224l.16-.09 10.898-5.71L5.395 25.597l3-5.196Zm73.21 0 3 5.196L56.85 41.623l10.9 5.71a3 3 0 0 1 1.345 3.885l-.08.165a3 3 0 0 1-3.886 1.345l-.164-.08-15.727-8.24a3 3 0 0 1-1.607-2.577l.002-.204.727-17.74a3 3 0 0 1 5.997.063l-.002.182-.504 12.295 27.755-16.025Z"/></g></svg>