<svg viewBox="0 0 90 90" xmlns="http://www.w3.org/2000/svg"><g fill="none" fill-rule="evenodd"><path fill="#9AFFE2" d="M0 0h90v90H0z"/><path d="M76.56 26.41 54.99 14.23c-6.343-3.527-13.956.96-13.956 8.012v1.283c0 .961.635 2.243 1.586 2.564l4.123 2.564c.952.641 2.538 0 2.538-1.603v-3.205c0-1.603 1.586-2.564 3.172-1.603L70.85 32.82c1.269.641 1.269 2.564 0 3.205L52.454 46.923c-1.586.641-3.172-.32-3.172-1.923v-1.603c0-7.051-7.93-11.539-14.273-8.013l-21.251 12.18c-6.344 3.206-6.344 12.821 0 16.027l21.25 12.18c6.344 3.526 14.274-.962 14.274-8.013v-1.283a3.209 3.209 0 0 0-1.586-2.564l-4.123-2.564c-1.269-.641-2.538 0-2.538 1.603v3.205c0 1.603-1.903 2.564-3.172 1.603L19.467 57.18a1.929 1.929 0 0 1-.851-1.603c0-.644.32-1.246.851-1.602l18.08-11.219c1.268-.64 3.171.32 3.171 1.923v1.603c0 7.052 7.93 11.54 13.956 8.013l21.568-12.18c6.344-3.205 6.344-12.82 0-16.026l.317.32Z" fill="#000" fill-rule="nonzero"/></g></svg>