<svg viewBox="0 0 90 90" xmlns="http://www.w3.org/2000/svg" xmlns:xlink="http://www.w3.org/1999/xlink"><defs><circle id="a" cx="45" cy="45" r="45"/></defs><g fill="none" fill-rule="evenodd"><mask id="b" fill="#fff"><use xlink:href="#a"/></mask><use fill="#FFF" xlink:href="#a"/><path d="M-100.564 39.919c46.98-10.283 157.46-27.354 174.625-8.349l.028-.028c7.639 8.472-8.517 23.743-32.59 39.746l.004-.004-.002.004-.031.02c-.616.386-10.16 6.37-19.927 12.286l-.994.601c-6.12 3.699-12.21 7.296-16.133 9.4l.009.017a1.392 1.392 0 0 0-.217.112l-38.93 20.956-.462.245a.413.413 0 1 1-.476-.677l.548-.318c13.881-8.522 26.779-16.642 37.707-24.397H2.6l.093-.073c1.095-.863 9.031-7.137 16.823-13.7l.899-.758c6.126-5.186 11.997-10.43 14.185-13.22l.153-.2.262-.343c5.944-7.881 7.1-14.552 1.857-19.762-17.413-17.303-98.362-7.683-137.279-.736l-1.112.217a.408.408 0 0 1-.473-.334.409.409 0 0 1 .334-.474Z" fill="#CC2427" fill-rule="nonzero" mask="url(#b)"/></g></svg>