<svg viewBox="0 0 90 90" xmlns="http://www.w3.org/2000/svg"><g fill="none" fill-rule="evenodd"><path fill="#22366B" d="M0 0h90v90H0z"/><path d="M59.999 15H15v39.143a7.501 7.501 0 0 0 5.62 7.262l.013.003L75 75V29.998C75 21.715 68.283 15 59.999 15ZM67.5 54.15h-7.528V36.983a5.133 5.133 0 0 0-5.531-5.59 5.422 5.422 0 0 0-5.705 5.59V54.15h-7.529V36.983a5.085 5.085 0 0 0-5.476-5.59 5.39 5.39 0 0 0-5.703 5.59V54.15H22.5V24.037l13.23-.002a11.792 11.792 0 0 1 9.355 4.165 12.22 12.22 0 0 1 9.355-4.165c8.213 0 13.06 5.418 13.06 13.118V54.15Z" fill="#FFF" fill-rule="nonzero"/></g></svg>