<svg viewBox="0 0 90 90" xmlns="http://www.w3.org/2000/svg"><g fill="none" fill-rule="evenodd"><path fill="#FFF" d="M0 0h90v90H0z"/><g fill-rule="nonzero"><path d="M75.525 35.328a1.961 1.961 0 0 1-.254-.02l-25.288-3.685c-1.27-.194-2.303-1.49-2.303-2.888V18.602c0-1.093.62-1.827 1.54-1.827.209.002.415.038.612.105l25.392 8.157c1.084.355 2.001 1.749 2.001 3.044v5.226c0 1.151-.732 2.02-1.7 2.02M49.666 51.572c-1.166 0-1.986-.914-1.986-2.203V39.295c0-1.291.915-2.3 2.083-2.3.058 0 .118.002.18.009l25.268 2.134c1.11.099 2.012 1.233 2.012 2.528v5.222c0 1.297-.902 2.43-2.012 2.528l-25.366 2.147c-.06.005-.12.008-.179.008m-.443 20.207c-.925 0-1.543-.731-1.543-1.822V59.807c0-1.402 1.033-2.698 2.303-2.887l25.29-3.675c.083-.012.167-.018.25-.017.968 0 1.7.867 1.7 2.023v5.221c0 1.315-.897 2.681-1.999 3.047l-25.392 8.158a1.92 1.92 0 0 1-.609.101" fill="#F28700"/><path d="M9.73 38.697c-1.005 0-1.734-.852-1.734-2.027v-.85c0-1.403.976-3.055 2.134-3.606L42.037 16.96c.227-.115.477-.178.731-.185.74 0 1.22.645 1.22 1.637v10.181c0 1.405-1.004 2.774-2.24 3.047l-31.6 7.01a1.893 1.893 0 0 1-.418.047m32.307 12.887a1.94 1.94 0 0 1-.247-.017l-31.542-4.045c-1.241-.155-2.252-1.42-2.252-2.818v-.854c0-1.399 1.01-2.662 2.254-2.819l31.54-4.04c.083-.012.167-.018.251-.018 1.11 0 1.947.951 1.947 2.216v10.18c0 .617-.204 1.183-.572 1.591-.348.397-.85.624-1.377.624m.73 20.195a1.708 1.708 0 0 1-.734-.186L10.13 56.341c-1.158-.553-2.134-2.2-2.134-3.603v-.857c0-1.17.731-2.022 1.732-2.022.137 0 .28.015.42.047l31.599 7.008c1.234.277 2.241 1.643 2.241 3.05v10.181c0 .506-.124.926-.355 1.218a1.072 1.072 0 0 1-.865.416" fill="#26338C"/></g></g></svg>