<svg viewBox="0 0 90 90" xmlns="http://www.w3.org/2000/svg" xmlns:xlink="http://www.w3.org/1999/xlink"><defs><path id="a" d="M0 0h90v90H0z"/></defs><g fill="none" fill-rule="evenodd"><mask id="b" fill="#fff"><use xlink:href="#a"/></mask><path d="M34.538 34.278c2.396.932 4.792 1.931 7.122 3.062a151.233 151.233 0 0 0-21.566 10.717c-2.33-1.199-4.726-2.396-7.122-3.462 6.922-3.993 14.111-7.454 21.566-10.317Zm-8.92-3.128a129.119 129.119 0 0 0-22.299 9.518c2.263.866 4.526 1.731 6.723 2.663a122.992 122.992 0 0 1 21.633-10.117c-1.997-.733-3.993-1.465-6.057-2.064Z" fill="#0051C2" fill-rule="nonzero" mask="url(#b)"/><path d="M81.73 45.794c.133.399.467.532.799.532.199 0 .4 0 .533-.133a.51.51 0 0 0 .133-.333c0-.266-.199-.399-.467-.399l-.465-.133c-.133-.067-.334-.067-.467-.2a.754.754 0 0 1-.199-.532c0-.532.467-.731.932-.731.4 0 .799.199.932.665l-.332.066c0-.267-.334-.466-.666-.466-.199 0-.533.133-.533.399 0 .333.201.399.467.466l.398.066c.201.066.4.133.533.199.133.2.199.334.199.6 0 .199-.066.466-.266.599-.199.134-.467.2-.732.2-.533 0-.865-.267-1.064-.799l.265-.066Zm2.596.799h-.265v-2.662h.464l.868 2.129.73-2.129h.533v2.662h-.332v-2.33l-.867 2.33h-.266l-.865-2.33v2.33ZM50.713 33.946a138.835 138.835 0 0 0-18.904-7.389c-2.33.665-4.593 1.397-6.79 2.13a134.92 134.92 0 0 1 19.437 7.521c2.064-.799 4.126-1.53 6.257-2.262Zm9.918-2.929c-6.191-2.729-12.648-4.992-19.238-6.789-2.13.399-4.193.865-6.256 1.397 6.523 1.931 12.912 4.327 19.037 7.256 2.129-.666 4.326-1.331 6.457-1.864Zm15.974 5.325c-15.643 5.259-30.287 12.78-43.532 22.166 3.328 2.063 6.523 4.193 9.651 6.522A176.64 176.64 0 0 1 84.06 40.601a119.018 119.018 0 0 0-7.455-4.259Zm-10.783-5.059c-16.242 4.26-31.484 11.183-45.263 20.368 3.062 1.531 6.124 3.129 9.119 4.859 13.513-9.319 28.49-16.641 44.464-21.434-2.728-1.33-5.458-2.661-8.32-3.793Z" fill="#E21B34" fill-rule="nonzero" mask="url(#b)"/></g></svg>