<svg viewBox="0 0 90 90" xmlns="http://www.w3.org/2000/svg"><g fill="none" fill-rule="evenodd"><path fill="#FFF" d="M0 0h90v90H0z"/><path d="M45 80c19.33 0 35-15.67 35-35S64.33 10 45 10 10 25.67 10 45s15.67 35 35 35Zm-3.027-12.235-2.999-6.002-.96-.024c-.527 0-1.343-.048-1.799-.12-.456-.048-1.799-.192-2.998-.336-3.695-.432-6.501-1.296-7.293-2.256-1.47-1.758 2.211-13.309 7.041-23.36l.374-.77c1.127-2.3 2.31-4.505 3.5-6.476 2.063-3.433 3.814-5.689 5.493-7.033 1.824-1.465 2.543-1.633 4.079-.936 4.15 1.872 11.25 14.498 15.76 27.989 2.04 6.097 2.71 9.338 2.111 10.442-.552 1.008-4.39 2.112-8.876 2.544-.983.096-1.967.192-2.159.24-.192.024-.767.072-1.247.072l-.912.024-2.902 5.81c-.317.643-.626 1.265-.918 1.85l-.246.491c-1.048 2.086-1.83 3.588-1.883 3.66-.096.096-1.535-2.52-3.166-5.81Zm1.535-38.24c-3.047 1.56-3.143 5.593-.168 7.058 3.31 1.608 6.789-1.873 5.182-5.233-.792-1.705-3.43-2.665-5.014-1.825Z" fill="#007BFF" fill-rule="nonzero"/></g></svg>