<svg viewBox="0 0 90 90" xmlns="http://www.w3.org/2000/svg" xmlns:xlink="http://www.w3.org/1999/xlink"><defs><path d="M35.607.929a6.935 6.935 0 0 1 6.934 0l32.1 18.532a6.934 6.934 0 0 1 3.467 6.005v37.063a6.934 6.934 0 0 1-3.467 6.005l-32.1 18.532a6.934 6.934 0 0 1-6.934 0L3.508 68.534A6.933 6.933 0 0 1 .041 62.53V25.466a6.933 6.933 0 0 1 3.467-6.005L35.608.929Z" id="a"/><path d="M35.607.929a6.935 6.935 0 0 1 6.934 0l32.1 18.532a6.934 6.934 0 0 1 3.467 6.005v37.063a6.934 6.934 0 0 1-3.467 6.005l-32.1 18.532a6.934 6.934 0 0 1-6.934 0L3.508 68.534A6.933 6.933 0 0 1 .041 62.53V25.466a6.933 6.933 0 0 1 3.467-6.005L35.608.929Z" id="c"/><path d="M35.607.929a6.935 6.935 0 0 1 6.934 0l32.1 18.532a6.934 6.934 0 0 1 3.467 6.005v37.063a6.934 6.934 0 0 1-3.467 6.005l-32.1 18.532a6.934 6.934 0 0 1-6.934 0L3.508 68.534A6.933 6.933 0 0 1 .041 62.53V25.466a6.933 6.933 0 0 1 3.467-6.005L35.608.929Z" id="e"/><path d="M35.607.929a6.935 6.935 0 0 1 6.934 0l32.1 18.532a6.934 6.934 0 0 1 3.467 6.005v37.063a6.934 6.934 0 0 1-3.467 6.005l-32.1 18.532a6.934 6.934 0 0 1-6.934 0L3.508 68.534A6.933 6.933 0 0 1 .041 62.53V25.466a6.933 6.933 0 0 1 3.467-6.005L35.608.929Z" id="g"/><path d="M35.607.929a6.935 6.935 0 0 1 6.934 0l32.1 18.532a6.934 6.934 0 0 1 3.467 6.005v37.063a6.934 6.934 0 0 1-3.467 6.005l-32.1 18.532a6.934 6.934 0 0 1-6.934 0L3.508 68.534A6.933 6.933 0 0 1 .041 62.53V25.466a6.933 6.933 0 0 1 3.467-6.005L35.608.929Z" id="i"/><path d="M35.607.929a6.935 6.935 0 0 1 6.934 0l32.1 18.532a6.934 6.934 0 0 1 3.467 6.005v37.063a6.934 6.934 0 0 1-3.467 6.005l-32.1 18.532a6.934 6.934 0 0 1-6.934 0L3.508 68.534A6.933 6.933 0 0 1 .041 62.53V25.466a6.933 6.933 0 0 1 3.467-6.005L35.608.929Z" id="k"/><path d="M35.607.929a6.935 6.935 0 0 1 6.934 0l32.1 18.532a6.934 6.934 0 0 1 3.467 6.005v37.063a6.934 6.934 0 0 1-3.467 6.005l-32.1 18.532a6.934 6.934 0 0 1-6.934 0L3.508 68.534A6.933 6.933 0 0 1 .041 62.53V25.466a6.933 6.933 0 0 1 3.467-6.005L35.608.929Z" id="m"/></defs><g fill="none" fill-rule="evenodd"><g transform="translate(6 1)"><mask id="b" fill="#fff"><use xlink:href="#a"/></mask><path d="M35.607.929a6.935 6.935 0 0 1 6.934 0l32.1 18.532a6.934 6.934 0 0 1 3.467 6.005v37.063a6.934 6.934 0 0 1-3.467 6.005l-32.1 18.532a6.934 6.934 0 0 1-6.934 0L3.508 68.534A6.933 6.933 0 0 1 .041 62.53V25.466a6.933 6.933 0 0 1 3.467-6.005L35.608.929Z" fill="#0DA7FE" fill-rule="nonzero" mask="url(#b)"/></g><g transform="translate(6 1)"><mask id="d" fill="#fff"><use xlink:href="#c"/></mask><path fill="#1A67FD" fill-rule="nonzero" mask="url(#d)" d="m.041 66.537 20.274-22.54 18.76 45.07z"/></g><g transform="translate(6 1)"><mask id="f" fill="#fff"><use xlink:href="#e"/></mask><path fill="#0DA7FE" fill-rule="nonzero" mask="url(#f)" d="m20.315 43.997-20-22.693L.04 66.537z"/></g><g transform="translate(6 1)"><mask id="h" fill="#fff"><use xlink:href="#g"/></mask><path fill="#05BBFF" fill-rule="nonzero" mask="url(#h)" d="m20.315 43.997 18.76-45.07L.314 21.304z"/></g><g transform="translate(6 1)"><mask id="j" fill="#fff"><use xlink:href="#i"/></mask><path fill="#00C9FF" fill-rule="nonzero" mask="url(#j)" d="m39.074-1.073 39.034 67.605-57.793-22.535"/></g><g transform="translate(6 1)"><mask id="l" fill="#fff"><use xlink:href="#k"/></mask><path fill="#1A86FD" fill-rule="nonzero" mask="url(#l)" d="m39.074 89.144 39.034-22.607-57.793-22.54z"/></g><g transform="translate(6 1)"><mask id="n" fill="#fff"><use xlink:href="#m"/></mask><path fill="#05BBFF" fill-rule="nonzero" mask="url(#n)" d="M78.108 66.532v-45.07L39.074-1.073z"/></g><path fill-opacity=".5" fill="#1A67FD" fill-rule="nonzero" d="m53.325 41.194 4.955 4.955-2.46 2.46-2.495 2.495-13.95 13.949-4.954-4.955 13.95-13.949L34.42 32.2l4.955-4.955z"/><path fill="#D6FFFF" fill-rule="nonzero" d="m58.28 43.925-4.955-4.954-18.904 18.903 4.955 4.955z"/><path fill="#D6FFFF" fill-rule="nonzero" d="m39.376 25.022-4.955 4.954L53.325 48.88l4.955-4.955z"/></g></svg>