<svg viewBox="0 0 90 90" xmlns="http://www.w3.org/2000/svg"><g fill="#CF272D"><path d="M44.954 75.944c-17.064 0-30.898-13.834-30.898-30.898S27.89 14.15 44.954 14.15s30.897 13.833 30.897 30.897-13.833 30.898-30.897 30.898Zm0-72.852C21.784 3.092 3 21.876 3 45.046S21.784 87 44.954 87s41.954-18.783 41.954-41.954c0-23.17-18.784-41.954-41.954-41.954Z"/><path d="M46.679 34.597a8.723 8.723 0 1 1 17.447.001 8.723 8.723 0 0 1-17.447 0m0 20.896a8.724 8.724 0 1 1 17.447 0 8.724 8.724 0 0 1-17.447 0m-20.897 0a8.724 8.724 0 1 1 17.448.001 8.724 8.724 0 0 1-17.448 0m0-20.897a8.723 8.723 0 1 1 17.447 0 8.723 8.723 0 0 1-17.447 0"/></g></svg>