<svg viewBox="0 0 90 90" xmlns="http://www.w3.org/2000/svg"><g fill="none" fill-rule="evenodd"><path fill="#FFF" d="M0 0h90v90H0z"/><path d="M65.469 38.688c3.656.562 6.187 2.25 7.594 4.5 1.406 2.25 2.25 6.187 2.25 11.25 0 10.124-3.094 18.562-9.282 25.03-6.187 6.47-14.062 9.844-23.625 9.844-3.656 0-7.312-.562-10.968-1.968-3.657-1.406-6.47-3.375-9-5.625-2.813-2.531-5.063-5.625-6.47-8.438C14.845 70.187 14 67.094 14 64c0-3.375.844-6.188 2.25-8.156 1.406-1.969 3.938-3.094 7.031-3.938-.562-1.406-1.125-2.531-1.406-3.656-.281-.844-.563-1.688-.563-2.25 0-1.688.844-3.656 2.813-5.625 1.969-1.969 3.656-2.813 5.344-2.813.843 0 1.406 0 2.25.282.843.281 1.687.562 2.812 1.406C32 30.812 29.47 23.781 28.063 19c-1.407-4.781-1.97-7.875-1.97-9.844 0-2.531.563-4.5 1.97-5.906C29.188 1.844 31.155 1 33.406 1c3.657 0 8.438 8.438 14.344 25.594 1.125 2.812 1.688 5.062 2.25 6.75.563-1.125 1.125-3.094 1.969-5.344C57.875 11.125 62.937 2.687 66.875 2.687c1.969 0 3.656.563 5.063 1.97a9.059 9.059 0 0 1 1.968 5.624c0 1.688-.562 5.063-1.969 9.844-1.687 4.781-3.656 10.969-6.468 18.563Zm-43.313 24.75c.563.562 1.407 1.687 2.25 3.093 2.532 3.656 5.063 5.625 7.313 5.625.843 0 1.406-.281 1.968-.844.563-.562.844-1.124.844-1.406 0-.562-.281-1.687-1.125-3.094a38.258 38.258 0 0 0-3.375-4.78c-1.687-1.97-3.093-3.657-3.937-4.5-1.125-.844-1.969-1.407-2.532-1.407-1.406 0-2.812.844-3.937 2.25-1.125 1.406-1.688 3.375-1.688 5.344 0 1.687.282 3.375 1.125 5.625.844 1.969 1.97 4.219 3.657 6.187 2.531 2.813 5.343 5.344 9 7.031 3.656 1.688 7.312 2.532 11.812 2.532 7.875 0 14.344-2.813 19.688-8.719 5.343-5.906 7.875-13.219 7.875-22.219 0-2.812-.281-4.781-.563-6.468-.281-1.688-1.125-2.813-1.969-3.376-1.687-1.406-4.78-2.53-9.562-3.656-4.781-1.125-9.844-1.687-14.906-1.687-1.407 0-2.532.281-3.094.843-.563.563-.844 1.407-.844 2.532 0 2.812 1.407 4.781 4.5 5.906 3.094 1.125 8.157 1.969 14.907 1.969h2.53c.563 0 1.126.281 1.407.562.281.563.563 1.125.563 1.969-.563.563-1.97 1.406-4.22 2.25-2.25.844-3.656 1.688-4.78 2.531-2.532 1.688-4.5 3.938-5.907 6.469-1.406 2.531-2.25 4.781-2.25 7.031 0 1.406.282 2.813.844 4.781.563 1.97.844 3.094.844 3.376v1.124c-1.688 0-3.094-1.124-4.219-3.093-1.125-1.969-1.406-4.5-1.406-7.875v-.563c-.282.281-.563.563-.844.563s-.563.281-1.125.281h-1.125c-.281 0-.563-.281-1.125-.281 0 .562.281.844.281 1.406v1.125c0 1.406-.562 2.813-1.687 3.938-1.125 1.124-2.532 1.687-4.219 1.687-2.531 0-5.063-1.125-7.875-3.656-2.531-2.531-3.938-4.781-3.938-7.313 0-.562 0-.844.282-1.125 0-1.406.281-1.687.562-1.969Zm18.282 1.406c.562 0 1.406-.281 1.968-.844.563-.563.844-1.406.844-1.969 0-.843-.563-2.531-1.688-5.343-1.124-2.813-2.53-5.626-4.218-8.157-1.125-1.968-2.532-3.656-3.657-4.5-1.124-1.125-2.25-1.406-3.374-1.406-.844 0-1.688.563-2.813 1.688-1.125 1.124-1.406 1.968-1.406 3.093 0 .844.562 2.532 1.406 4.5 1.125 1.969 2.25 3.938 3.938 6.188 1.687 2.25 3.375 4.218 5.062 5.625 1.688.562 2.813 1.125 3.938 1.125Zm5.906-29.25-6.75-18.844c-1.688-4.781-2.813-8.156-3.938-9.563-.843-1.406-1.687-2.25-2.812-2.25-.844 0-1.407.282-1.969.844-.844.844-1.125 1.688-1.125 2.813 0 1.969.844 5.062 2.25 9.562 1.406 4.5 3.656 10.688 6.469 18 .281-.562.562-.843 1.125-.843.562-.282 1.125-.282 1.687-.282h1.407c.843.282 1.968.282 3.656.563Zm6.75 18.281c-1.688 0-3.375-.281-5.063-.563-1.687-.28-3.093-.562-4.5-1.124.563 1.406 1.125 2.53 1.688 3.937.562 1.406.843 2.531 1.125 3.938.843-1.126 1.968-2.25 3.093-3.376a141.105 141.105 0 0 1 3.657-2.812Zm8.156-16.313c2.813-7.312 4.781-13.5 6.469-18.28 1.406-4.782 2.25-7.595 2.25-8.72 0-1.124-.281-1.968-.844-2.812-.563-.563-1.125-.844-1.969-.844-1.125 0-2.25.844-3.375 2.813-1.125 1.969-2.531 4.781-3.937 9l-6.188 17.437 7.594 1.407Z" fill-rule="nonzero" fill="#000"/></g></svg>