<svg viewBox="0 0 90 90" xmlns="http://www.w3.org/2000/svg"><g fill="none" fill-rule="evenodd"><path fill="#FFF" d="M0 0h90v90H0z"/><path d="M29.714 22.505c.732 2.879 1.956 5.19 4 6.752.936.715 2.451 1.719 4.313 1.407 4.334-.726 6.387-3.988 7.406-8.002 1.609-6.343-1.363-13.003-5.594-14.755-.755-.312-1.609-.419-2.687-.406l-.875.125c-.688.202-1.343.44-1.906.782-2.781 1.688-4.143 4.742-4.875 8.502-.16.821-.235 2.02-.094 2.907.157.985.091 1.816.312 2.688Zm27.187 8.847c2.65.546 4.757-.871 6.124-1.97 2.308-1.852 3.864-4.977 4.532-8.44.883-4.58-2.37-8.967-4.844-10.565-.926-.598-1.931-1.21-3.469-1.188l-.812.094-1.53.594c-2.842 1.643-5.209 4.561-6.282 7.94-.245.773-.316 1.59-.468 2.5-.195 1.165-.07 2.814.124 3.814.817 4.185 2.487 6.368 6.625 7.22ZM21.277 47.106c4.158-.701 6.495-2.594 7.656-6.252.592-1.864.98-5.977.375-8.22-1.02-3.791-4.442-8.043-9.28-7.972l-1.032.125a6.028 6.028 0 0 0-1.75.656c-2.81 1.65-4.186 4.797-4.969 8.472-1.12 5.258 1.312 10.051 4.375 12.066 1.021.67 2.704 1.45 4.625 1.125Zm59.341-9.471c-1.31-4.344-3.876-7.422-9.624-7.346l-1.063.125-1.437.406c-2.163.872-3.515 2.733-4.25 5.033-.384 1.199-.43 2.51-.656 3.907v3.408c.209 1.326.124 2.459.468 3.563 1.06 3.4 2.978 4.63 6.781 5.314 1.198.216 2.85.198 3.969-.093 3.47-.903 5.037-3.216 5.843-6.784.229-1.008.067-2.027.25-3.157.225-1.38.048-3.288-.28-4.376Zm-11.374 20.35c-1.746-1.395-3.258-3.073-4.906-4.565-1.119-1.013-2.305-2.137-3.25-3.313-1.262-1.57-2.708-3.032-3.844-4.72-1.217-1.81-2.462-3.676-4.218-4.94-2.032-1.46-4.09-2.559-7.687-2.5-.718.283-1.588.197-2.281.407-2.006.607-3.549 1.63-5 2.782-1.517 1.202-2.38 3.018-3.5 4.626-.94 1.35-2.144 2.462-3.156 3.72-.469.49-.938.979-1.406 1.47-1.47 1.183-2.747 2.646-4.219 3.813-3.314 2.627-5.639 4.41-7.812 8.252-3.02 5.338-.279 13.311 3.219 16.13 1.199.965 2.658 1.788 4.375 2.219.84.21 1.796.125 2.75.28h1.5c.712.119 1.745.08 2.437-.03l1.5-.063c1.476-.247 2.942-.216 4.343-.5 1.607-.326 3.175-.595 4.844-.907l2.03-.125 1.97-.03c1.492.247 2.941.213 4.312.5l4.156 1.125 3.062.562c4.114.802 9.025.036 11.625-1.531a10.386 10.386 0 0 0 3.187-2.97c2.077-2.987 3.353-9.173 1.531-13.378-1.234-2.85-3.302-4.511-5.562-6.315Zm-25.499 17.66h-6.25c-1.457 0-3.938.232-5.156-.094-3.683-.985-5.707-3.404-6.5-7.314-.195-.963-.307-2.337-.124-3.439.127-.77.216-1.386.468-2 1.22-2.966 3.548-5.176 7.125-5.783l5.656-.031.094-.032.062-6.783.156-.093 4.482.062-.013 25.507Zm19.406 0h-6.282c-3.592 0-6.885.365-8.718-1.438-1.724-1.695-1.593-3.828-1.593-7.221.01-3.167 0-9.565 0-9.565H51.4v10.034s-.125 2.486.344 3.158c.675.966 2.328.781 3.969.781l2.656-.031V57.42h4.781v18.224Zm-32.343-11.41c-.999 3.215.341 6.25 2.875 7.034.654.202 1.609.125 2.438.125 1.846-.022 2.75 0 2.75 0V61.298l-4.594-.032c-.955.162-2.883 1.084-3.469 2.97Z" fill="#38F"/></g></svg>