<svg viewBox="0 0 90 90" xmlns="http://www.w3.org/2000/svg"><g fill="none" fill-rule="evenodd"><path fill="#FFF" d="M0 0h90v90H0z"/><g fill="#7B00FF" fill-rule="nonzero"><path d="M78.84 48.65H39.4v2.965h39.468a3.381 3.381 0 0 1 3.394 3.397 3.381 3.381 0 0 1-3.394 3.396H36.409V44.823h-2.963v16.55H78.84c3.502 0 6.358-2.857 6.358-6.361 0-3.504-2.856-6.362-6.358-6.362Z"/><path d="M7.152 45.254a3.381 3.381 0 0 1 3.395-3.396h39.036c3.503 0 6.358-2.858 6.358-6.362s-2.855-6.361-6.358-6.361h-16.11v6.792h2.963V32.1h13.147a3.381 3.381 0 0 1 3.395 3.396 3.381 3.381 0 0 1-3.395 3.397H10.547c-3.503 0-6.358 2.857-6.358 6.361 0 3.504 2.828 6.388 6.358 6.388h19.935v-2.965H10.547a3.422 3.422 0 0 1-3.395-3.423Z"/></g></g></svg>