<svg viewBox="0 0 90 90" xmlns="http://www.w3.org/2000/svg"><g fill="none" fill-rule="evenodd"><path fill="#23AF91" d="M0 0h90v90H0z"/><path d="m33.232 45.026 20.76 20.747 13.105-13.094a5.93 5.93 0 0 1 8.157.214 5.92 5.92 0 0 1 .214 8.15L58.175 78.327a5.973 5.973 0 0 1-8.371 0L24.854 53.39v14.821a5.925 5.925 0 0 1-5.927 5.923A5.925 5.925 0 0 1 13 68.211v-46.39a5.925 5.925 0 0 1 5.927-5.922 5.925 5.925 0 0 1 5.928 5.922v14.821L49.8 11.713a5.97 5.97 0 0 1 8.37 0l17.306 17.28a5.92 5.92 0 0 1-.213 8.15 5.93 5.93 0 0 1-8.158.213L54.002 24.263l-20.77 20.763Zm20.77-5.93a5.934 5.934 0 0 0-5.484 3.659 5.926 5.926 0 0 0 1.284 6.462 5.937 5.937 0 0 0 6.467 1.287 5.929 5.929 0 0 0-2.267-11.41v.003Z" fill="#FFF"/></g></svg>