<svg viewBox="0 0 90 90" xmlns="http://www.w3.org/2000/svg"><g fill="none" fill-rule="evenodd"><path d="M0 0h90v90H0z"/><path d="M52.042 68.038c0-3.019-1.825-6.829-9.508-6.829H30.686l-3.367 15.666h12.34c9.643.003 12.383-4.585 12.383-8.837Zm33.357-9.56c0-3.006-1.827-6.807-9.515-6.807H64.043l-3.367 15.658h12.34c9.641 0 12.383-4.599 12.383-8.85ZM90 33.942c0-3.007-1.832-6.817-9.515-6.817H68.643l-3.371 15.666h12.34C87.255 42.79 90 38.204 90 33.942Zm-33.374 9.557c0-3.005-1.832-6.817-9.515-6.817H35.269L31.898 52.35h12.345c9.644 0 12.383-4.599 12.383-8.851Zm-31.898 0c0-3.005-1.83-6.817-9.52-6.817H3.367L0 52.35h12.34c9.641 0 12.388-4.599 12.388-8.851Zm36.17-23.567c0-3.004-1.825-6.807-9.513-6.807H39.542L36.178 28.78h12.338c9.642.003 12.382-4.584 12.382-8.849Zm-31.898 0c0-3.004-1.83-6.807-9.52-6.807H7.637L4.271 28.783h12.346c9.638 0 12.383-4.586 12.383-8.85Z" fill="#0B0B0A"/></g></svg>