<svg viewBox="0 0 90 90" xmlns="http://www.w3.org/2000/svg"><path d="M51.513 48.378h5.355c2.398.16 4.316 2.079 4.396 4.477v13.67c-1.279 4.718-11.509 6.556-17.023 6.556-20.7 0-22.378-11.912-22.378-25.343 0-9.753.88-29.82 22.697-29.82 17.663 0 25.575 13.192 30.53 21.426h1.518V16H75.25c-1.279 1.679-3.277 4.397-7.673 4.397-5.114 0-13.746-4.397-23.656-4.397C24.901 16 5 26.473 5 47.019 5 60.29 17.388 75 41.923 75c13.986 0 24.935-5.516 31.648-5.516h3.277v-16.47c.32-2.557 2.638-4.556 5.435-4.556H85v-1.919H51.513v1.839Z"/></svg>