<svg viewBox="0 0 90 90" xmlns="http://www.w3.org/2000/svg"><path d="M60.237 54.16c-4.965 0-5.65-3.36-5.65-8.824 0-5.42.685-8.78 5.65-8.78 4.922 0 5.605 3.36 5.605 8.78 0 5.463-.683 8.824-5.605 8.824m0-26.16C72.811 28 75 36.107 75 45.022 75 53.892 72.767 62 60.237 62c-12.573 0-14.806-8.108-14.806-16.978v-.279C45.48 35.94 47.796 28 60.238 28ZM30.4 28c4.19 0 7.926 1.074 10.48 2.687l-4.83 7.393c-1.55-.853-3.42-1.524-6.06-1.524-3.554 0-5.923.94-5.923 8.735 0 7.48 1.414 9.362 5.56 9.362 4.182 0 4.325-1.433 4.327-4.66v-1.206h-5.82l.996-7.213H42.2v20.023h-8.297c-1.452.27-3.137.403-5.098.403C17.734 62 15 55.056 15 45.022 15 33.51 18.737 28 30.399 28Z" fill="#EB1478" fill-rule="evenodd"/></svg>