<svg viewBox="0 0 90 90" xmlns="http://www.w3.org/2000/svg"><defs><linearGradient x1="100%" y1="0%" x2="0%" y2="100%" id="a"><stop stop-color="#323232" offset="0%"/><stop stop-color="#151515" offset="100%"/></linearGradient></defs><g fill="none" fill-rule="evenodd"><path fill="url(#a)" d="M0 0h90v90H0z"/><g fill="#FFF" fill-rule="nonzero"><path d="M45.21 40.162H28v-19.9h17.714c8.425 0 13.06 3.716 13.06 9.414v.163c0 6.773-5.56 10.323-13.567 10.323h.004Zm20.302-11.23c0-3.88-1.346-6.936-3.79-9.412-3.367-3.223-8.678-5.12-15.416-5.12H21.2v37.4H28v-5.858h18.39c10.279 0 15.671 3.631 15.671 9.907 0 6.607-5.562 10.49-14.49 10.49H28V62h-6.8v10.2h26.2c12.89 0 21.4-5.862 21.4-15.77 0-8.091-5.644-12.056-12.638-14.12 4.634-1.982 9.35-5.864 9.35-13.378Z"/><path d="M14.4 59.28h20.4v-5.1H14.4z"/></g></g></svg>