<svg viewBox="0 0 90 90" xmlns="http://www.w3.org/2000/svg"><g fill="none" fill-rule="evenodd"><path fill="#202020" d="M0 0h90v90H0z"/><path d="M14 79.672V69.527h8.426V20.145H14V10h33.354c15.166 0 24.602 6.764 24.602 18.937 0 7.766-4.72 12.513-10.785 14.88C69.935 46.183 76 51.932 76 60.047 76.009 72.899 65.9 80 49.037 80H14v-.328Zm19.882-59.517v18.939h12.47c9.436 0 14.155-3.382 14.155-9.469 0-6.425-5.056-9.468-14.492-9.468l-12.133-.002Zm0 49.372h14.155c11.121 0 16.513-3.382 16.513-10.144 0-6.763-5.729-10.145-17.187-10.145h-13.48l-.001 20.29Z" fill="#FFF" fill-rule="nonzero"/></g></svg>