<svg viewBox="0 0 90 90" xmlns="http://www.w3.org/2000/svg"><g fill="none"><path d="M90 14H52.581c-11.639 0-14.437 1.865-19.06 6.833L0 56.837c26.739-1.253 34.987 25.137 62.154 17.907L90 14Z" fill="#EB143A"/><path d="M40.942 28.124s1.669-3.012 2.986-3.998a3.105 3.105 0 0 0 1.473-2.292 1.78 1.78 0 0 0-.662-1.529s-2.027-1.612-3.672 1.147c0 0-7.795 14.39-10.446 28.912 0 0-.203.466-.257-.849 0 0-1.138-12.182-1.185-12.625-.047-.444 0-1.529-1.053-1.62 0 0-1.216-.222-1.94 1.59l-3.446 8.314s-.57 1.04.35 1.43c0 0 1.022.573 1.692-.834l1.56-3.34c.311-.687.545-.588.545-.588.187.038.265.764.265.764s1.45 16.333 1.466 16.486c.015.152.14 1.444 1.262 1.444.78 0 1.068-.902 1.232-1.636.164-.733 1.676-8.529 4.202-16.92 1.653-5.51 3.78-11.006 5.628-13.856Zm-2.292 14.26a2.543 2.543 0 0 0-1.808 2.133l-.982 7.13c-.156 1.415 1.715.39 1.715.39.483-.309.818-.797.927-1.352l.297-1.789.904-4.822c.296-2.033-1.03-1.69-1.03-1.69h-.023Zm3.197.627s-.523 3.715-.608 4.533c0 0-.702 3.133 1.013 2.567a2.478 2.478 0 0 0 1.598-2.292l.28-2.668a3.649 3.649 0 0 1 1.724-2.873s1.715-.765 1.2-1.804c0 0-.327-.833-1.348-.382-.381.18-.785.308-1.201.382l-1.185.145s-1.27.084-1.45 2.423l-.023-.03Zm-1.326-4.249c1.053-.825.741-1.528.741-1.528-.39-1.109-1.824.068-1.824.068-1.208.841-.78 1.674-.78 1.674.546.91 1.887-.214 1.887-.214h-.024Zm17.572 5.182a2.177 2.177 0 0 0 1.606-1.811s.818-5.679.85-5.87c.03-.191.39-1.689-.687-1.46-.783.16-1.396.76-1.559 1.529l-.99 5.594-.218 1.116s-.265 1.223.998.902Zm3.274-11.892s1.146-.932.623-1.613c0 0-.49-.71-1.847.237 0 0-1.216.978-.468 1.659-.023.007.702.65 1.684-.283h.008Zm14.328 6.94c-.265-.467-.967-.765-2.206-.253-1.24.512-1.863.818-1.91.826-.047.007-1.614.817-1.45-1.277l.499-4.944s.195-1.797-1.24-1.797c0 0-.78-.076-1.987.971a3.438 3.438 0 0 1-1.06.673 1.748 1.748 0 0 1-1.014-.054 1.89 1.89 0 0 0-1.17 0 2.231 2.231 0 0 0-1.473 2.194l-.545 4.386a7.676 7.676 0 0 0-.149 2.033s.149.688 1.411.276c0 0 1.076-.321 1.201-2.117 0 0 .304-3.508.78-4.189a4.535 4.535 0 0 1 1.48-1.597s1.232-.58 1.217.405l-.445 4.028s-.436 1.972.476 2.293c0 0 .101 0-.133.16 0 0-5.9 2.461-13.51 6.619.523-4.227 1.412-10.112 1.412-10.112.132-.955-1.06-.955-1.06-.955-1.17 0-1.334 1.3-1.435 1.895-.101.597-.974 5.35-.974 5.35-.398 2.163-1.715 2.056-1.715 2.056-1.294.145-.515-3.279-.515-3.279.343-1.23.46-2.292 1.45-3.095.99-.802 1.06-1.842.328-1.872-1.217-.061-2.456 1.223-2.456 1.223-2.16 2.086-2.152 7.145-2.152 7.145a2.097 2.097 0 0 0 1.06 2.087c1.373.611 3.26-.466 3.26-.466.443-.298.381.122.381.122l-.093 1.284a119.866 119.866 0 0 0-17.15 11.548s-2.456 1.765-1.56 2.942c.897 1.177 2.339.107 2.877-.397 0 0 5.457-5.51 15.59-11.678l-.319 4.142c-.14 1.873-.78 7.643-.78 7.643-.28 2.293.094 2.72.219 2.881.51.636 1.427.794 2.128.367 1.255-.764.632-2.675.429-3.569-.137-.78-.197-1.57-.18-2.362.086-1.192.78-9.24.78-9.24 0-.313.055-.764.11-1.299a112.724 112.724 0 0 1 13.314-6.588s2.152-.833 3.984-1.398c0 0 .608-.237 1.38-.467 1.036-.29 2.338-.764 2.767-1.306.295-.348.35-.836.14-1.239h.008Z" fill="#FFF"/></g></svg>