<svg viewBox="0 0 90 90" xmlns="http://www.w3.org/2000/svg"><g fill="none"><path d="M10.685 11.125c-1.823.286-3.985 1.52-5.326 3.02-1.108 1.252-1.698 2.395-2.162 4.272C3.07 18.882 3 29.409 3 49.05v29.9l6.273-6.219c3.45-3.431 6.31-6.273 6.345-6.327.053-.053 14.316-.09 31.67-.107 29.22 0 31.67-.036 32.742-.322 2.967-.786 5.361-2.966 6.487-5.915l.394-1.073.035-20.017c.054-19.087.036-20.07-.286-21.107-1-3.324-3.485-5.737-6.755-6.577-.965-.25-4.7-.286-34.923-.268-18.623.018-34.047.071-34.297.107Z" fill="#00C65E"/><path d="M21.516 24.154c.214.16.554.483.733.75.303.447.321 1.27.357 14.173.018 12.511 0 13.762-.268 14.298-.43.822-1.144 1.287-2.073 1.34-.948.054-1.913-.518-2.252-1.358-.179-.446-.233-3.395-.233-14.19 0-12.993.018-13.655.34-14.19.68-1.163 2.288-1.538 3.396-.823Zm11.438.536c1.787.858 1.859 3.753.107 4.772-1.215.715-3.092.286-3.789-.858-.41-.661-.5-1.858-.214-2.627.214-.536.84-1.18 1.376-1.394.59-.25 1.877-.197 2.52.107Zm13.1 4.558c.322.303.376.554.376 1.948v1.608h2.234c2.448 0 3.02.161 3.556.983.751 1.126.108 2.967-1.143 3.289-.34.09-1.448.16-2.449.16-.983 0-1.877.036-1.984.108-.09.053-.16 2.591-.143 6.273.018 5.987.036 6.166.393 6.523.447.465 1.716.572 3.039.25 1.144-.267 1.68-.16 2.377.43.429.357.59.66.643 1.215.161 1.84-1.823 2.985-5.04 2.949-2.895-.036-4.897-1.108-5.79-3.092-.43-.93-.43-1.019-.483-7.739-.036-3.735-.09-6.81-.125-6.845-.036-.054-.661-.071-1.358-.09-1.144 0-1.359-.053-1.734-.428-.357-.358-.411-.554-.34-1.09.09-.537.59-1.109 3.11-3.593 1.644-1.626 3.181-3.038 3.414-3.163.5-.25.947-.161 1.447.304Zm22.162 3.449c1.716.411 3.45 1.412 4.718 2.717 2.52 2.609 3.772 8.167 2.145 9.561-.643.572-1.43.626-7.97.626l-6.578-.018.107.626c.286 1.537 1.716 3.11 3.414 3.753 1.948.732 5.094.536 7.4-.483 1.179-.518 1.554-.59 2.162-.375 1.322.447 1.93 2.09 1.18 3.199-.698 1.054-3.557 2.341-5.756 2.61-3.52.428-6.63-.09-8.936-1.466-2.18-1.323-3.86-3.825-4.45-6.702-.34-1.662-.268-5.148.143-6.702.697-2.628 2.52-5.13 4.593-6.256 1.734-.947 3.396-1.322 5.523-1.269 1.036.036 2.073.108 2.305.179Zm-35.351.34c1.25.84 1.233.607 1.233 10.616 0 10.294.018 10.116-1.358 10.777-.894.447-1.698.41-2.467-.09-1.072-.697-1.054-.554-1.054-10.651 0-8.812.018-9.276.34-9.848.678-1.162 2.215-1.537 3.306-.804Z" fill="#FFF"/><path d="M63.998 37.094c-1.59.518-2.645 1.537-3.181 3.056-.518 1.43-.894 1.34 4.933 1.322h5.2l-.089-.572c-.482-2.949-3.824-4.79-6.863-3.806Z" fill="#00C65E"/></g></svg>