<svg viewBox="0 0 90 90" xmlns="http://www.w3.org/2000/svg"><path d="M56.25 45.02a26.91 26.91 0 0 1-1.728 9.5 26.929 26.929 0 0 1-9.503 1.73h-.038a26.92 26.92 0 0 1-9.5-1.728 26.924 26.924 0 0 1-1.731-9.502v-.04a26.952 26.952 0 0 1 1.728-9.5 26.92 26.92 0 0 1 9.503-1.73h.038a26.93 26.93 0 0 1 9.503 1.73 26.907 26.907 0 0 1 1.728 9.5v.04Zm33.124-7.52H63.108L81.68 18.926a45.207 45.207 0 0 0-4.862-5.748h-.001a45.238 45.238 0 0 0-5.743-4.858L52.5 26.893V.626A45.277 45.277 0 0 0 45.024 0h-.048A45.281 45.281 0 0 0 37.5.626v26.268L18.926 8.32a45.212 45.212 0 0 0-5.745 4.86l-.007.006a45.227 45.227 0 0 0-4.854 5.74L26.894 37.5H.626S0 42.434 0 44.984v.032c0 2.55.217 5.05.626 7.484h26.267L8.32 71.074A45.256 45.256 0 0 0 18.926 81.68L37.5 63.107v26.267c2.43.408 4.923.624 7.468.626h.064a45.324 45.324 0 0 0 7.468-.626V63.106L71.074 81.68a45.233 45.233 0 0 0 5.744-4.858l.004-.004a45.266 45.266 0 0 0 4.858-5.744L63.106 52.5h26.268c.408-2.43.624-4.923.626-7.468v-.064a45.324 45.324 0 0 0-.626-7.468Z" fill="#FF3100"/></svg>