<svg viewBox="0 0 90 90" xmlns="http://www.w3.org/2000/svg"><g fill="none" fill-rule="evenodd"><path fill="#FF2278" fill-rule="nonzero" d="M0 0h89.886v89.886H0z"/><path fill="#FF86BD" d="M0 0h90v63L0 53z"/><g fill-rule="nonzero"><path d="M47.414 14.322c.59-1.61 1.414-2.866 2.474-3.81 2.747-2.433 6.868-2.786 10.36-2.354 2.278.274 4.711 1.02 6.595 2.394a4.158 4.158 0 0 1 1.884 4.004l-2.316 17.238c1.845-2.081 4.123-4.202 6.909-4.909 3.768-.98 10.128-.746 13.227 1.532 2.983 2.199 3.847 5.615 3.298 9.109-.431 2.904-2.473 6.752-5.849 6.44-1.216-.12-2.433-.08-3.65-.08-1.335 1.1-2.512 2.827-3.533 4.2l4.552 8.288c1.415-.278 3.67-.71 5.358.35 2.315 1.454 3.257 4.047 3.257 6.676 0 3.847-2.08 6.87-5.494 8.518-3.259 1.533-9.95 2.201-13.52 1.769-1.847-.198-3.534-.824-4.987-2.004a9.423 9.423 0 0 1-1.256-1.255c-1.255-1.492-2.002-3.18-2.865-4.908l-.47 3.612a4.129 4.129 0 0 1-2.749 3.691c-4.279 1.532-11.855 1.57-15.19-1.376a8.12 8.12 0 0 1-2.472-3.767C35.637 72.351 28.69 74 21.782 74c-8.479 0-17.075-3.1-20.294-11.582-2.237-5.89-1.805-13.937.315-19.867 2.434-6.83 7.183-11.7 14.013-14.409 5.063-2.003 11.068-2.356 16.407-1.61 4.514.627 9.185 2.513 12.326 5.929.589-4.358 1.727-13.703 2.865-18.139Z" fill="#FFF"/><path d="M45.218 47.061c0-2.527-.277-4.778-.906-6.87-.631-2.053-1.695-3.83-3.153-5.29-1.459-1.461-3.35-2.607-5.675-3.396-2.365-.83-5.202-1.225-8.59-1.225-3.586 0-6.817.554-9.655 1.698-2.836 1.106-5.24 2.685-7.21 4.66-1.97 2.013-3.467 4.422-4.492 7.304C4.512 46.823 4 49.983 4 53.418c0 5.923 1.615 10.187 4.808 12.753C12.04 68.737 16.294 70 21.693 70c7.526 0 13.319-2.053 17.416-6.12 4.098-4.103 6.11-9.711 6.11-16.819Zm-12.689.436c0 4.341-.867 7.657-2.561 9.987-1.734 2.33-3.9 3.515-6.502 3.515-2.325 0-3.94-.632-4.847-1.975-.906-1.302-1.34-3.356-1.34-6.16 0-1.933.197-3.751.592-5.407.434-1.66.985-3.08 1.733-4.305.75-1.225 1.695-2.171 2.759-2.842 1.103-.711 2.364-1.027 3.783-1.027 2.442 0 4.098.67 5.003 2.013.907 1.341 1.38 3.397 1.38 6.2ZM86 35.532c0-1.698-.59-2.96-1.734-3.79-1.141-.869-3.231-1.264-6.225-1.264-1.419 0-2.601.118-3.586.356-.985.236-2.05.908-3.23 2.013-1.183 1.105-2.602 2.724-4.257 4.935-1.655 2.172-3.862 5.214-6.698 9.082l4.413-32.969c-.828-.632-1.812-1.106-3.034-1.421A15.073 15.073 0 0 0 57.866 12c-2.364 0-4.098.474-5.2 1.461-1.105.947-1.814 2.922-2.209 5.843l-5.239 39.92c-.355 2.565-.553 4.342-.553 5.33 0 3.514 2.01 5.25 5.989 5.25.986 0 2.129-.039 3.429-.117 1.26-.12 2.325-.318 3.23-.633l2.327-17.61 6.264 12.832c.513 1.064.946 1.975 1.38 2.684.472.713.907 1.263 1.418 1.698a5.09 5.09 0 0 0 1.734.87c.67.197 1.457.276 2.363.276 3.942 0 6.936-.474 9.025-1.501 2.088-.985 3.151-2.565 3.151-4.777 0-.633-.078-1.224-.275-1.816-.197-.592-.552-1.066-1.024-1.343-.592.119-1.181.198-1.774.277-.631.038-1.181.078-1.616.078-.472 0-.866-.157-1.142-.434a7.202 7.202 0 0 1-.828-.986l-6.344-11.49c1.38-1.896 2.482-3.355 3.389-4.462.867-1.105 1.616-1.896 2.245-2.447.592-.514 1.145-.87 1.577-.987a5.273 5.273 0 0 1 1.378-.198h1.893c.67 0 1.379.04 2.048.118.513-.513.867-1.106 1.144-1.776.237-.71.354-1.54.354-2.528Z" fill="#154FA0"/></g></g></svg>