<svg viewBox="0 0 90 90" xmlns="http://www.w3.org/2000/svg"><defs><linearGradient x1=".797%" y1="49.981%" x2="99.209%" y2="49.981%" id="a"><stop stop-color="#FF1D25" offset="5%"/><stop stop-color="#A0328C" offset="35%"/><stop stop-color="#7040A4" offset="45%"/><stop stop-color="#4359C7" offset="55%"/><stop stop-color="#0082E6" offset="70%"/></linearGradient></defs><path d="M75.306 9.475v4.635h3.725v2.18a3.431 3.431 0 0 1-.996.378c-.378.086-.875.12-1.493.12-.773 0-1.46-.12-2.094-.378a4.411 4.411 0 0 1-1.631-1.064c-.464-.463-.807-1.013-1.065-1.648a5.572 5.572 0 0 1-.394-2.111v-.069c0-.738.12-1.425.36-2.06a4.862 4.862 0 0 1 1.013-1.613c.43-.464.961-.807 1.562-1.065a4.92 4.92 0 0 1 1.957-.394c.91 0 1.768.171 2.558.497.79.327 1.544.79 2.265 1.408l4.069-4.91a13.157 13.157 0 0 0-4.034-2.42c-1.51-.583-3.193-.875-5.081-.875-1.717 0-3.313.292-4.772.858-1.46.567-2.73 1.356-3.811 2.386a10.689 10.689 0 0 0-2.523 3.605c-.533 1.219-.824 2.54-.893 3.93L59.65.396h-7.21L46.227 15.26V.55h-7.604l-4.67 7.655L29.303.55h-7.587v4.875a10.32 10.32 0 0 0-1.27-1.802c-.962-1.081-2.164-1.94-3.623-2.575-1.46-.636-3.193-.962-5.168-.962-1.699 0-3.261.292-4.685.874-1.424.584-2.66 1.39-3.69 2.42A10.969 10.969 0 0 0 .875 6.987a11.504 11.504 0 0 0-.858 4.43v.085c0 1.682.31 3.227.91 4.618.618 1.39 1.459 2.574 2.558 3.553 1.098.978 2.386 1.734 3.896 2.283 1.51.55 3.159.824 4.978.824 2.3 0 4.275-.395 5.905-1.202a12.841 12.841 0 0 0 2.197-1.373l-3.656-4.429a6.82 6.82 0 0 1-1.356.773c-.807.343-1.7.515-2.66.515-1.27 0-2.352-.292-3.21-.876-.722-.498-1.254-1.201-1.597-2.128h13.715v8.256h7.09v-10.78l5.03 7.742h.12l5.03-7.742v10.798h12.067l1.115-2.919h7.622l1.15 2.919h7.896l-1.03-2.455a11.61 11.61 0 0 0 3.674 2.111c1.476.532 3.072.807 4.772.807 1.991 0 3.793-.292 5.407-.893 1.613-.6 3.021-1.39 4.206-2.351V9.475h-10.54ZM7.725 9.458c.24-1.115.669-2.025 1.321-2.695C9.733 6.06 10.608 5.7 11.69 5.7c1.098 0 2.008.36 2.73 1.064.669.67 1.098 1.58 1.252 2.695H7.725Zm46.261 4.79 1.991-5.288 1.991 5.288h-3.982Z" transform="translate(2 34)" fill="url(#a)"/></svg>