<svg viewBox="0 0 90 90" xmlns="http://www.w3.org/2000/svg"><g fill="none"><path d="M21.9 48.58c-.625 1.086-.115 1.975 1.134 1.975h7.142c1.248 0 1.759-.89 1.135-1.976L27.74 42.36c-.623-1.087-1.645-1.087-2.269 0l-3.57 6.22Z" fill="#FFC425"/><path d="M39.406 55.57h4.88L33.333 35.92c-.81-1.456-2.282-1.477-2.752-1.477H27.7L39.407 55.57ZM5.712 38.206h10.251L5.467 52.116c-.516.685-.612 1.566-.25 2.301.364.735 1.12 1.191 1.976 1.191H18.43l2.159-3.722H10.55l10.522-13.978c.516-.686.611-1.568.249-2.302-.363-.734-1.12-1.19-1.975-1.19H5.712v3.79Zm47.43 9.898h5.41c-.229 1.014-.663 1.84-1.3 2.467-1.615 1.591-4.116 1.555-4.127 1.558l-.06-.001c-3.881 0-7.039-3.175-7.039-7.077s3.158-7.076 7.038-7.076c2.167 0 4.175.988 5.506 2.672l2.973-2.2a10.66 10.66 0 0 0-8.479-4.183c-5.915 0-10.729 4.84-10.729 10.788 0 5.942 4.803 10.777 10.71 10.787l.079.001c.697 0 4.154-.13 6.676-2.583 1.748-1.7 2.634-4.058 2.634-7.009v-1.856h-9.292v3.712Zm22.025 0h5.41c-.229 1.014-.663 1.84-1.3 2.467-1.616 1.591-4.116 1.555-4.127 1.558l-.06-.001c-3.881 0-7.039-3.175-7.039-7.077s3.158-7.076 7.038-7.076c2.167 0 4.175.988 5.506 2.672l2.973-2.2a10.66 10.66 0 0 0-8.479-4.183c-5.916 0-10.729 4.84-10.729 10.788 0 5.942 4.803 10.777 10.71 10.787l.079.001c.697 0 4.154-.13 6.676-2.583 1.747-1.7 2.634-4.058 2.634-7.009v-1.856h-9.293v3.712Z" fill="#545258"/><g fill="#A7A9AC"><path d="M83.807 36.57a1.192 1.192 0 0 1-1.045-.595 1.205 1.205 0 0 1 0-1.208 1.192 1.192 0 0 1 2.224.604c0 .657-.526 1.192-1.179 1.2Zm.975-1.199a.978.978 0 0 0-.975-.98.978.978 0 0 0-.975.98c0 .541.437.98.975.98a.978.978 0 0 0 .975-.98Z"/><path d="m84.063 35.533.277.41h-.292l-.242-.368h-.198v.368h-.25V34.8h.504c.272 0 .445.14.445.377 0 .187-.1.303-.244.356Zm-.21-.51h-.245v.335h.251c.127 0 .195-.068.195-.166 0-.113-.077-.17-.201-.17Z"/></g></g></svg>