<svg viewBox="0 0 90 90" xmlns="http://www.w3.org/2000/svg"><g fill="none" fill-rule="evenodd"><path fill="#FFF" d="M0 0h90v90H0z"/><path d="M61.758 79.198a3.962 3.962 0 0 0-4.952-2.649c-2.095.644-3.274 2.874-2.635 4.982a3.962 3.962 0 0 0 4.951 2.651 3.972 3.972 0 0 0 2.345-1.942c.494-.935.599-2.03.291-3.042ZM51.112 28.156a3.35 3.35 0 0 0-1.677-2.051c-.855-.467-1.896-.587-3.123-.362-2.043.381-3.696 1.552-4.957 3.513-1.261 1.962-1.802 4.415-1.623 7.362 8.812-1.54 12.607-4.37 11.387-8.49l-.007.028Zm-.81 30.107c4.8-.893 8.976-2.744 12.527-5.555l-.731-8.923c-3.555 3.065-7.314 4.966-11.277 5.704-2.484.462-4.56.247-6.224-.646a6.796 6.796 0 0 1-3.36-4.238l-.097-.323a1.278 1.278 0 0 1-.042-.413c8.337-1.651 14.266-3.937 17.787-6.858 3.52-2.92 4.622-6.613 3.303-11.077a11.031 11.031 0 0 0-5.807-6.926c-2.95-1.505-6.665-1.845-11.143-1.02-6.571 1.222-11.321 4.511-14.25 9.868-2.928 5.357-3.412 11.36-1.45 18.007 1.416 4.78 3.951 8.283 7.607 10.506 3.655 2.224 8.037 2.861 13.146 1.913l.01-.02ZM72.066 25.95c6.89 22.648-15.53 49.32-15.53 49.32S22.53 63.823 16.226 43.133C11.688 28.22 20.112 10.976 35.532 6.227c15.42-4.748 31.998 4.8 36.545 19.716l-.01.007Z" fill="#73AA21" fill-rule="nonzero"/></g></svg>