<svg viewBox="0 0 90 90" xmlns="http://www.w3.org/2000/svg"><g fill="none"><path d="M84.857 44.867c0 22.018-17.817 39.867-39.796 39.867S5.265 66.884 5.265 44.867c0-22.017 17.818-39.866 39.796-39.866C67.04 5 84.857 22.85 84.857 44.867Z" fill="#FFF"/><path d="M44.729 19.174c1.4.804 2.887 1.84 4.018 2.938l-.444.445c-2.233-.237-4.584.059-6.7.091-.236-.237-.711-.594-.269-.892l3.395-2.582Zm39.47 27.636c.03 1.004.125 1.867-.268 2.895-4.078 1.156-6.757-3.147-10.714-2.499l.447 2.231c3.661.12 5.948 3.619 9.73 3.469-.538 1.069.24 3.887-2.14 2.76-2.472-.591-4.259-2.76-6.966-2.76-.327.597-.12 1.425-.177 2.132 2.856.447 4.91 2.853 7.766 3.297-.269.979-.535 2.074-1.34 2.67-2.322-.563-4.137-2.643-6.61-2.583l-.44 2.048c2.35.06 3.869 2.133 5.98 2.755.059.864-.716 1.636-1.163 2.407-1.875-.561-3.305-2.167-5.447-2.048-.03-.805.45-1.718.268-2.579-2.406.714-4.02-1.515-5.803-2.852-.051-4.374-4.672-7.244-4.916-11.342-.047-.818.078-1.69.451-2.627 1.52-3.5 1.042-8.043-.623-11.306-.507-.86-1.403-1.537-2.238-2.042 1.222 2.582 2.712 5.633 1.968 8.807-.086 2.45-1.537 4.805-1.553 7.168a4.913 4.913 0 0 0 .66 2.535c1.936 3.475 5.42 6.765 4.11 11.123-.36 1.339-1.432 2.374-1.7 3.736 2.264 1.87 4.406 3.977 7.411 4.095 1.07-.681.476-3.704 2.679-2.31l3.216 1.604c-.234.858-.955 1.627-1.608 2.218-1.22-.592-2.41-1.302-3.932-1.244-.448.475-.835 1.007-.8 1.688 1.07.176 2.053.626 2.947 1.25-.416.892-1.225 1.45-1.97 2.133l-2.494-.89c-.416.595-1.282 1.219-.978 1.871.563.24 1.187.565 1.602.981-1.101 1.187-2.497 1.95-3.84 2.755-1.157-3.769-4.97-6.41-4.642-10.77l-.177-.176c-.896 1.005-.597 2.61-.539 3.913 1.072 2.73 3.63 4.838 4.018 7.832-.448.77-1.457.924-2.232 1.25.09-5.397-8.125-9.49-2.857-14.95 1.757-2.673 4.7-5.225 3.658-8.905-1.071-3.554-4.859-5.756-4.825-9.74l.006-.31c.862-4.154 3.483-8.575 1.34-12.994-.598-1.778-1.933-3.798-3.749-4.54 2.707 3.087 3.78 8.125 2.232 12.28-.78 1.653-1.855 3.622-1.963 5.565h-.007c-.057 1.015.15 2.024.808 2.98 2.055 3.325 5.625 6.975 3.571 11.307-2.321 3.47-6.369 6.998-4.108 11.568 1.637 2.729 4.169 5.452 3.485 8.807l-2.678.89c1.786-6.258-6.966-9.935-3.302-16.195 2.262-3.352 6.307-6.497 4.017-10.946-1.37-2.756-4.198-4.388-4.109-7.832l.098-.58c.922-4.884 4.648-9.51 2.042-14.73-.685-1.542-2.053-3.113-3.571-4.004l-.092.091c3.038 2.937 3.961 7.77 2.324 11.654-.764 2.279-2.441 4.549-2.782 6.99-.162 1.152-.026 2.346.642 3.603 1.934 3.053 5.327 6.292 3.21 10.239-2.23 3.26-5.951 6.432-4.465 10.672 1.638 3.71 5.057 7.243 3.211 11.842l-2.764.623c2.201-4.483-1.1-8.93-3.034-12.818-2.353-5.577 5.055-8.248 5.174-13.347-.028-3.291-3.54-5.16-4.28-8.186-1.52-1.277-3.095.508-4.912.177-1.34.268-3.4-1.84-4.2.446-.954 3.35-5.297 5.813-3.389 9.787 1.817 3.532 6.188 6.114 4.728 10.684-1.308 4.269-5.626 8.333-2.948 13.257-1.1-.356-3.155.325-3.125-1.427-1.696-5.962 5.536-9.436 3.302-15.396-1.04-3.65-5.775-5.666-4.732-10.056.77-3.614 4.84-6.14 4.268-10.1a5.847 5.847 0 0 0-.245-1.023c-1.518-4.272-4.617-8.545-2.77-13.53.507-1.424 1.52-2.64 2.41-3.913-2.947 1.571-4.434 4.895-4.373 8.276-.128 3.677 2.597 6.826 2.985 10.19.152 1.359-.071 2.75-1.022 4.224-1.933 2.614-4.461 5.37-3.302 8.813 1.102 3.473 5.447 5.576 5.18 9.612-.03 4.774-5.596 7.747-4.019 13.086l-2.77-.896c-1.1-4.744 3.96-7.172 4.017-11.562.716-5.048-5.744-6.92-5.356-11.842-.028-3.74 3.274-6.107 4.732-9.252a6.01 6.01 0 0 0 .3-2.182c-.178-3.477-3.322-6.196-2.8-10.106.175-2.877 1.157-5.4 3.033-7.563-2.588 1.036-3.657 4.005-4.372 6.498-1.24 3.996 1.72 7.59 2.018 11.171.131 1.581-.256 3.153-1.749 4.76-2.144 2.519-4.319 5.697-2.77 9.081 1.639 3.735 6.79 6.642 4.555 11.3-1.218 2.937-4.137 5.16-4.017 8.63-.773-.326-1.575-.651-2.232-1.243 0-4.42 6.307-7.18 3.302-11.837-.266.919-.324 2.168-.532 3.206-1.043 2.7-3.274 4.862-4.11 7.655-1.396-.537-2.856-1.666-4.017-2.853l1.608-.98c-.178-.595-.654-1.099-1.07-1.603-1.044-.146-1.73.537-2.592.805-.744-.655-1.462-1.248-2.055-2.049.534-1.516 4.707-.262 2.593-2.755-1.428-.889-2.86.381-4.11.974l-1.694-2.132c1.458-.89 2.913-2.138 4.727-1.78.447.802.478 1.982 1.34 2.401 3.066-.06 5.238-2.37 7.589-4.181-1.638-2.43-2.972-5.784-1.517-8.722 1.166-2.944 4.205-5.424 4.342-8.679a5.765 5.765 0 0 0-.41-2.359c-1.606-4.124-2.173-9.698.893-13.348-1.667.447-2.65 2.518-3.216 4.09-1.844 4.027.488 7.758.568 11.617a8.294 8.294 0 0 1-.214 2.09c-1.578 3.174-4.135 5.96-4.55 9.611-1.816 1.155-3.307 3.174-5.895 2.493-.091.682.117 1.72.355 2.493-2.053-.086-3.452 1.421-5.18 2.133-.92-.294-1.16-1.48-1.516-2.31 2.022-.68 3.481-2.701 5.803-2.67.27-.745-.15-1.428-.269-2.14-2.889-1.277-7.467 6.318-7.852-.267 2.886-.178 4.73-2.848 7.59-3.114l.085-2.133c-3.244-.327-5.331 2.997-8.574 2.67l-.715-2.847c3.75.234 5.986-3.117 9.558-3.297.475-.622.532-1.541.623-2.4-3.899-.508-6.574 3.8-10.713 2.492 0 0-.143-1.793-.22-2.804h.005a28.725 28.725 0 0 0-.055-.67c3.69 1.427 6.933-1.215 10.09-2.579.804-.24 2.056.176 2.416-.713-.031-.683 1.217-1.48.178-1.957-4.616-.624-7.682 4.925-12.415 2.402l-.355-.714c.984-13.407 8.57-26.369 21.16-32.747 5.098-2.904 11.432-4.384 17.82-4.437 7.709-.064 15.499 1.952 21.294 6.04 5.627 3.44 11.01 9.11 13.93 14.865 2.795 5.043 4.08 10.702 4.464 16.725-4.882 3.677-8.157-3.463-13.13-1.865.268.772.417 1.572.985 2.225 4.407-.032 7.44 4.567 12.054 2.754l.004.671ZM28.116 30.3c-3.096-2.018-7.021-.118-9.907.981-.267-2.7-1.368-5.161-3.663-6.941-.222-.11-.53-.343-.807-.36-.166-.01-.324.056-.446.268 1.04 6.377-3.12 10.826-6.067 15.664.981.799 2.558.68 3.749.444 3.124-1.245 6.1-3.412 9.82-2.67 1.101-1.868 2.95-3.678 4.465-5.161.927-.8 2.199-1.306 2.856-2.225Zm9.466 4.004c-.06.384.03 1.07.624.804.924-1.275 2.56-.266 3.572-.176v-.359c-.555-.869-1.697-1.305-2.856-1.261-.268.01-.54.048-.801.109-.388.086-.658.44-.539.883Zm14.555-3.82c-.831-1.84-2.736-2.585-4.465-3.03a23.36 23.36 0 0 0-2.599-.183c-.163-.001-.327-.004-.49 0-2.44.05-4.77.673-6.195 2.675-.204.565-1.103 1.359-.268 1.865 1.875-.12 4.015-.353 5.265 1.25 0 1.426.924 3.322-.624 4.004-1.282-1.183-2.8.504-4.194-.445-.656-.387-1.071.064-1.34.628-.388 3.677 1.545 7.736 4.997 9.782 1.399.503 3.28.981 4.74.268 3.511-1.63 4.966-5.366 5.62-8.807-.088-.655-.057-1.931-.979-1.963-1.04.657-2.559.269-3.662 0-.653.21-.683 1.162-1.425 1.342l-.453-.36c-.387-1.629-.626-3.943.894-5.07 1.697-.683 3.692-.981 5.447-.446.328-.563-.178-1.007-.27-1.51Zm-1.792 2.924c-.118.003-.232.009-.35.013-.623.414-2.44.116-1.784 1.51 1.132-.891 2.71-.266 3.84.177.418-.206.328-.622.355-.98-.363-.673-1.23-.736-2.061-.72Zm12.959-12.543c-2.203-.116-4.048 1.13-6.073 1.694-.176-1.717 1.133-3.53 1.431-5.253-3.272.21-5.865 2.173-8.573 3.742-.629-1.513-1.254-3.026-1.877-4.54l3.572-3.383.091-.446-4.825-.268c-.83-1.451-1.158-3.2-2.14-4.534-.804 1.513-1.344 3.114-2.147 4.625l-4.819.269v.354l3.658 3.29c-.447 1.693-.863 3.53-1.963 4.81-2.143-1.28-4.256-2.672-6.605-3.56-.565-.182-1.371-.478-1.877-.092.743 1.633 1.784 3.388 1.609 5.17-.983-.18-1.756-.809-2.68-1.073-1.103-.3-2.413-.887-3.485-.53 1.787 2.49 3.244 5.097 3.749 8.094 5.925-2.85 12.836-4.419 20.01-3.2 3.362.533 6.454 1.898 9.46 3.022.118-3.142 2.111-5.667 3.484-8.19Zm10.176 17.09c3.033.8 6.076 4.094 9.289 1.957-2.798-4.627-6.962-8.9-5.804-14.95.121-.414-.147-.832-.532-.89-1.815.739-3.22 2.52-3.939 4.272-.295 1.036-.47 2.138-.886 3.114-2.174-1.128-4.494-2.22-7.143-1.956-.955.118-2.324.18-2.5 1.158 3.005 1.602 5.477 4.273 7.32 7.119 1.283-.208 2.856-.03 4.195.176Zm-31.788 4.181.086.537c1.163.772 1.52 2.08 3.131 1.962 1.428.084 2.499-1.25 3.21-2.316-1.932-.267-4.283.145-6.427-.183Zm1.608-2.4c.058.236-.147.592.177.713.953-.206 2.678.505 3.21-.623-.371-.414-.977-.603-1.614-.603-.636 0-1.296.185-1.773.512Z" fill="#106E33"/><path fill="#FFF" opacity=".99" d="M41.694 38.705h6.527v2.672h-6.527z"/><path d="M42.9 40.134c.843.199 1.052.496 1.718.58.709-.013.607-.156 1.842-.581.082-.029.193-.207.055-.344-.768-.76-1.298-.217-1.779-.202-.638.006-1.237-.545-1.86.172-.106.145-.162.288.024.375ZM73.732 83.98v-3.806h-1.364v-.775h3.653v.775h-1.36v3.806h-.929Zm2.879 0v-4.582H78l.834 3.125.824-3.125h1.392v4.582h-.862v-3.606l-.912 3.606h-.894l-.91-3.606v3.606h-.861Z" fill="#106E33"/></g></svg>