<svg viewBox="0 0 90 90" xmlns="http://www.w3.org/2000/svg"><g fill="none"><path fill="red" d="M0 0h90v90H0z"/><path d="M86.897 41.85c-.403 3.224-2.584 9.2-3.74 11.587-3.11 6.404-7.262 11.325-15.26 11.325-4.272 0-7.788-1.367-9.843-3.982-3.01 2.635-6.736 4.018-10.746 4.018-3.094 0-5.824-.892-7.905-2.543-2.3 1.62-5.4 2.522-8.84 2.522-2.87 0-5.453-.786-7.476-2.243-2.236 1.482-5.167 2.22-8.609 2.138-5.725-.135-9.678-3.766-9.792-9.037-.15-7.005 5.749-19.825 8.53-24.266 2.079-3.417 5.256-5.253 9.145-5.253 4.223 0 5.755 1.207 6.507 2.741 3.26-2.77 7.58-2.927 10.653-2.927 3.397 0 5.525.9 7.337 2.344 2.505-1.5 5.373-2.28 8.792-2.28 4.374 0 7.619 1.017 9.883 3.256 2.64-2.2 5.952-3.201 9.653-3.201 4.897 0 8.118 1.767 10.011 4.397 2.665 3.714 2.19 7.453 1.7 11.404Z" fill="#FF0"/><path d="M84.401 38.448c-.15 2.763-1.026 6.203-1.8 8.501-3.118 9.261-6.731 14.999-15.097 14.999-2.463 0-6.837-.652-8.443-5.034l-.384-1.042-.686.87c-2.616 3.316-6.505 5.229-10.667 5.248-3.193.015-5.76-1.055-7.419-3.092l-.456-.563-.484.534c-1.774 1.957-4.86 3.079-8.471 3.079-2.835 0-5.282-.96-6.893-2.708l-.438-.48-.458.465c-1.79 1.805-4.61 2.715-8.157 2.635-4.304-.103-6.924-2.507-7.008-6.43-.13-6.047 5.723-18.774 8.147-22.642 1.575-2.585 3.737-3.838 6.615-3.838 1.96 0 3.298.41 4.097 1.253.723.769.868 1.416.93 2.972l.086 2.011 1.061-1.71c2.57-4.142 6.827-4.711 11.047-4.711 2.934 0 5.493 1.077 6.521 2.749l.38.613.55-.467c2.174-1.849 5.243-2.867 8.637-2.867 3.706 0 6.4.92 8.007 2.741.364.413.606.702.941 1.406l.413.866.621-.732c2.35-2.783 5.563-4.194 9.55-4.194 3.157 0 5.55.838 7.118 2.492 1.97 2.076 2.25 4.995 2.14 7.076Z" fill="#FFF"/><path d="M86.856 25.953a2.149 2.149 0 0 0-2.15 2.156 2.145 2.145 0 0 0 2.15 2.15 2.147 2.147 0 0 0 2.156-2.15 2.152 2.152 0 0 0-2.156-2.156Zm0 .426c.957 0 1.736.773 1.736 1.73 0 .952-.779 1.73-1.736 1.73a1.727 1.727 0 0 1-1.723-1.73c0-.956.769-1.73 1.723-1.73Zm1.096 2.852-.258-.449c-.224-.394-.288-.453-.477-.523v-.01c.377-.044.602-.29.602-.625 0-.353-.225-.62-.704-.62h-1.11v2.227h.46v-.913h.082c.196 0 .276.021.366.111.088.09.225.279.305.439l.178.363h.556Zm-1.488-1.271v-.609h.412c.305 0 .465.106.465.302 0 .157-.1.307-.41.307h-.467ZM75.735 38.27c-.093 2.296-3.456 11.474-4.65 13.499-.518.879-1.1 1.604-2.153 1.601-.918 0-1.326-.65-1.351-1.392-.068-2.072 3.734-12.454 5.034-14.143.577-.89 1.222-1.034 1.96-1.024 1.078.013 1.186.792 1.16 1.46Zm6.128 3.748c-.764 3.804-2.481 8.303-4.349 11.657-3.043 5.472-6.738 6.238-9.964 6.2-3.224-.04-6.866-1.23-6.892-6.209-.02-3.574 1.522-8.619 2.833-11.925 2.28-5.996 4.61-10.883 11.981-10.795 8.594.1 7.062 7.745 6.39 11.072Zm-27.288-5.331c-1.245 0-2.058.787-2.664 1.638-1.33 1.87-4.219 9.366-4.667 12.446-.305 2.11.604 2.537 1.6 2.537 1.597 0 3.387-1.689 3.998-4.477 0 0-3.04-.075-2.202-2.77.812-2.618 2.36-3.183 4.92-3.288 5.048-.206 4.548 3.52 4.145 5.506-1.311 6.452-5.903 11.636-12.4 11.636-4.448 0-7.207-2.463-7.207-6.996 0-3.23 1.603-8.302 2.872-11.27 2.705-6.319 5.542-10.741 12.768-10.741 4.335 0 7.755 1.557 7.252 5.619-.366 2.981-1.857 4.732-4.567 4.944-.758.059-3.86-.02-2.832-2.956.358-1.023.508-1.828-1.016-1.828ZM31.967 47.86a46.406 46.406 0 0 0-1.315 4.278c1.473-.366 2.58-.626 4.475-.578 2.162.052 3.543.95 3.543 2.734 0 4.33-4.786 5.602-8.106 5.602-3.647 0-6.847-2.077-6.847-6.062 0-4.675 2.532-11.76 4.909-16.48 2.92-5.797 5.905-6.568 11.042-6.568 2.258 0 4.859.965 4.859 3.095 0 2.956-2.503 4.082-4.987 4.227-1.059.06-2.69.119-3.665.05 0 0-.826 1.26-1.706 3.501 4.598-.647 6.547.398 5.77 3.056-1.048 3.59-4.162 3.828-7.972 3.145Zm-14.641 4.154c4.496-.781 5.627.846 5.484 2.347-.421 4.508-4.557 5.513-8.147 5.43-2.603-.061-4.944-1.252-5.01-4.275-.113-5.287 5.28-17.519 7.82-21.573 1.17-1.926 2.6-2.875 4.878-2.875 2.157 0 2.694 1.106 2.661 2.434-.083 3.54-5.809 14.305-7.686 18.512Zm57.816-23.752c-4.642 0-7.85 1.84-10.022 4.41-.366-.769-.647-1.106-1.04-1.55-1.776-2.01-4.637-2.948-8.471-2.948-3.747 0-6.871 1.17-9.04 3.015-1.126-1.832-3.81-3.046-7.048-3.046-4.23 0-8.838.6-11.574 5.006-.063-1.587-.209-2.425-1.1-3.371-1.084-1.145-2.838-1.447-4.546-1.447-3.114 0-5.456 1.36-7.142 4.13-2.444 3.906-8.374 16.76-8.238 22.983.084 4.023 2.783 6.92 7.61 7.033 3.774.09 6.732-.918 8.614-2.816 1.688 1.83 4.266 2.909 7.348 2.909 3.432 0 6.89-1.029 8.93-3.283 1.72 2.11 4.425 3.337 7.902 3.321 4.55-.02 8.542-2.176 11.152-5.483 1.429 3.897 5.06 5.444 9.027 5.444 8.69 0 12.505-5.973 15.685-15.422.717-2.13 1.672-5.681 1.831-8.665.263-4.967-1.839-10.22-9.878-10.22Z" fill="#000"/></g></svg>