<svg viewBox="0 0 90 90" xmlns="http://www.w3.org/2000/svg"><defs><radialGradient cx="14.663%" cy="14.549%" fx="14.663%" fy="14.549%" r="99.827%" id="a"><stop stop-color="#FFF" stop-opacity=".1" offset="0%"/><stop stop-color="#FFF" stop-opacity="0" offset="100%"/></radialGradient></defs><g fill="none" fill-rule="evenodd"><path fill="#FFF" d="M0 0h90v90H0z"/><g transform="translate(10 10)" fill-rule="nonzero"><circle fill="#616161" cx="35" cy="35" r="35"/><path d="M35 57.272c-12.302 0-22.272-9.97-22.272-22.272 0-12.302 9.97-22.272 22.272-22.272a22.211 22.211 0 0 1 15.749 6.523l9-9C53.413 3.918 44.661 0 35 0 15.67 0 0 15.67 0 35s15.67 35 35 35c9.665 0 18.414-3.917 24.751-10.249l-9-9A22.224 22.224 0 0 1 35 57.272Z" fill="#9E9E9E"/><path d="M57.272 35H46.135c0-6.148-4.987-11.137-11.138-11.137-6.15 0-11.134 4.986-11.134 11.137a11.1 11.1 0 0 0 3.11 7.716l-.008.009 13.788 13.788.003.003C50.266 53.978 57.272 45.308 57.272 35Z" fill="#424242"/><path d="M69.997 35H57.27c0 10.308-7.008 18.978-16.513 21.516l9.829 9.829C62.092 60.61 69.997 48.729 69.997 35Z" fill="#616161"/><path d="M35 69.6C15.737 69.6.113 54.037.003 34.8c0 .067-.003.132-.003.2 0 19.33 15.67 35 35 35s35-15.67 35-35c0-.068-.003-.133-.003-.2C69.887 54.037 54.26 69.6 35 69.6Z" fill-opacity=".1" fill="#212121"/><path d="m40.76 56.516.31.31c9.346-2.64 16.202-11.23 16.202-21.428V35c0 10.308-7.009 18.978-16.513 21.516Z" fill-opacity=".05" fill="#FFF"/><path d="M63.636 31.817H35a3.181 3.181 0 1 0 0 6.363h28.634a3.181 3.181 0 0 0 .003-6.363Z" fill="#9E9E9E"/><path d="M63.636 31.817H35a3.181 3.181 0 1 0 0 6.363h28.634a3.181 3.181 0 0 0 .003-6.363Z" fill="#BDBDBD" opacity=".5"/><g transform="translate(3.977 3.977)" fill="#BDBDBD"><circle cx="2.386" cy="31.023" r="2.386"/><circle cx="31.023" cy="2.386" r="2.386"/><circle cx="31.023" cy="59.658" r="2.386"/><circle cx="10.74" cy="10.774" r="2.386"/><circle cx="10.74" cy="51.307" r="2.386"/></g><circle fill="#757575" cx="55.284" cy="55.284" r="2.386"/><path d="M35 32.216h28.635c1.689 0 3.07 1.32 3.17 2.984.002-.067.01-.132.01-.2a3.181 3.181 0 0 0-3.18-3.181H35A3.181 3.181 0 0 0 31.819 35c0 .068.003.133.011.2A3.174 3.174 0 0 1 35 32.216Z" fill-opacity=".2" fill="#FFF"/><path d="M66.805 35.197a3.184 3.184 0 0 1-3.17 2.984H35a3.176 3.176 0 0 1-3.17-2.984 1.574 1.574 0 0 0-.011.198A3.181 3.181 0 0 0 35 38.576h28.635a3.181 3.181 0 0 0 3.18-3.181c0-.065-.002-.13-.01-.198Z" fill-opacity=".2" fill="#212121"/><path d="M35 13.126a22.211 22.211 0 0 1 15.749 6.523l9.194-9.2c-.068-.067-.133-.135-.198-.2l-8.996 9A22.211 22.211 0 0 0 35 12.725c-12.302 0-22.272 9.97-22.272 22.272 0 .068.003.133.003.2C12.838 22.988 22.766 13.126 35 13.126Z" fill-opacity=".1" fill="#212121"/><circle fill="url(#a)" cx="35" cy="35" r="35"/></g></g></svg>