<svg viewBox="0 0 90 90" xmlns="http://www.w3.org/2000/svg"><g fill="none" fill-rule="evenodd"><path fill="#0067F5" d="M0 0h90v90H0z"/><path d="M22.5 38.5a6.5 6.5 0 1 1 0 13 6.5 6.5 0 0 1 0-13Zm0 2a4.5 4.5 0 1 0 0 9 4.5 4.5 0 0 0 0-9ZM48 44v2H35v-2h13Z" fill="#FFF"/><path d="M65.63 26.6a6.5 6.5 0 1 1-11.26-6.5 6.5 6.5 0 0 1 11.26 6.5Zm-1.733-1a4.5 4.5 0 1 0-7.794-4.5 4.5 4.5 0 0 0 7.794 4.5ZM48.116 45.932l-1.732-1 6.5-11.258 1.732 1-6.5 11.258Z" fill="#FFF"/><path d="M54.37 69.9a6.5 6.5 0 1 1 11.26-6.5 6.5 6.5 0 0 1-11.26 6.5Zm1.733-1a4.5 4.5 0 1 0 7.794-4.5 4.5 4.5 0 0 0-7.794 4.5Zm-9.719-23.833 1.732-1 6.5 11.258-1.732 1-6.5-11.258Z" fill="#FFF"/></g></svg>