<svg viewBox="0 0 90 90" xmlns="http://www.w3.org/2000/svg"><defs><linearGradient x1="50%" y1="0%" x2="50%" y2="100%" id="a"><stop stop-color="#67FF81" offset="0%"/><stop stop-color="#01B41F" offset="100%"/></linearGradient></defs><g fill="none" fill-rule="evenodd"><path fill="url(#a)" d="M0 0h90v90H0z"/><path d="M46 14.25c8.215 0 15.653 3.33 21.036 8.714C72.42 28.347 75.75 35.784 75.75 44c0 8.215-3.33 15.653-8.714 21.036C61.653 70.42 54.216 73.75 46 73.75c-2.282 0-4.503-.257-6.638-.744a29.58 29.58 0 0 1-8.486-3.382l-13.48 3.503 3.51-13.14A29.667 29.667 0 0 1 16.25 44c0-8.216 3.33-15.654 8.714-21.037C30.347 17.58 37.784 14.25 46 14.25Z" stroke="#FFF" stroke-width="5.5"/><path d="M32.406 42.116C30.664 38.958 30 36.412 30 34.693c0-1.72.422-2.213.851-2.612.429-.398 2.362-1.59 2.692-1.812.329-.222 1.586-.654 2.374.48.789 1.134 2.273 3.41 3.297 4.924 1.606 2.142.327 3.083-.087 3.646-.76 1.038-1.198 1.294-1.198 2.567 0 1.274 3.56 4.893 4.41 5.785.846.885 4.393 3.994 5.492 4.16 1.107.168 2.588-1.004 2.903-1.301 1.603-1.23 2.508-.298 3.246.108.738.405 4.074 2.484 5.107 3.184.973.7.912 1.783.912 1.783s-.692 2.02-2.25 3.567c-.382.38-1.033.828-2.675.828-1.641 0-3.395-.3-7.564-2.592-3.41-1.876-6.662-4.813-8.364-6.533-1.763-1.72-4.75-5.151-6.74-8.759Z" fill="#FFF"/></g></svg>