<svg viewBox="0 0 90 90" xmlns="http://www.w3.org/2000/svg"><g fill="none" fill-rule="evenodd"><rect fill="#000" width="90" height="90" rx="45"/><g fill-rule="nonzero"><path d="m60.403 14.046-.505 1.263-3.49 8.634c-.047-.023-.092-.069-.138-.115-1.263-.918-2.733-1.676-4.294-2.227l3.077-7.578h5.35v.023ZM38.267 68.927l-2.779 6.866h-5.35l.505-1.263 3.33-8.243a16.85 16.85 0 0 0 4.294 2.64Z" fill="#0CCD93"/><path d="M31.01 35.677c0-7.83 7.28-12.492 14.283-12.492 7.946 0 13.64 4.776 14.191 11.872.046.528.046 1.562.046 1.562h-6.636s0-.781-.115-1.424c0 0-.069-.345-.069-.368-.023-.091-.046-.206-.069-.298a1.691 1.691 0 0 0-.091-.322c-.023-.114-.07-.206-.092-.298a5.978 5.978 0 0 0-2.09-2.779 1.915 1.915 0 0 0-.275-.183c-.092-.046-.161-.115-.253-.161-.069-.046-.138-.092-.207-.115-.046-.023-.114-.069-.16-.092-.138-.069-.299-.138-.437-.206a2.737 2.737 0 0 0-.459-.184 8.672 8.672 0 0 0-2.273-.505c-.345-.046-.712-.046-1.103-.046-3.72 0-7.554 2.25-7.554 6.016 0 .919 0 3.536 4.202 5.075l-2.388 5.924c-5.603-2.09-8.45-5.763-8.45-10.976ZM60.77 56.39c-.826 6.911-6.75 11.573-14.719 11.573-3.995 0-7.761-1.309-10.609-3.697-2.732-2.273-4.5-5.465-4.753-8.588-.069-.781 0-1.608 0-1.608h6.498s.023.529.115 1.057c.092.436.23.964.322 1.194a.332.332 0 0 1 .046.16c.069.207.16.414.275.62.023.046.046.092.07.161.022.046.045.092.09.161.116.184.23.39.368.574.046.092.115.16.184.253a8.095 8.095 0 0 0 1.607 1.584c.046.046.092.069.161.115.046.046.092.069.16.115a9.51 9.51 0 0 0 2.802 1.286c.827.23 1.7.344 2.641.344 3.513 0 7.509-1.538 8.175-5.878.321-4.18-3.123-6.04-5.833-6.866l2.389-5.925c3.26 1.056 5.786 2.595 7.485 4.524 2.113 2.388 2.963 5.373 2.526 8.84Z" fill="#FFF"/><path d="m50.69 38.318-.551 1.332-4.363 10.792-2.986 7.394c-.137-.069-.252-.16-.367-.23 0 0-.069-.045-.092-.045l-.138-.115c-2.663-1.883-2.273-5.35-2.158-6.016 0-.07.023-.138.046-.207l.735-1.814 4.34-10.747 2.617-6.452.506.23c2.617 1.377 2.41 5.878 2.41 5.878Z" fill="#0CCD93"/></g></g></svg>