<svg viewBox="0 0 90 90" xmlns="http://www.w3.org/2000/svg"><g fill="none"><path d="M44.968 84.692c.71-.353 19.17-8.291 25.027-13.054 6.035-4.94 9.23-11.996 9.23-20.464V11.482l-.532-.176C63.96 3.367 45.677 3.896 44.79 3.896c-.71 0-18.992-.529-33.725 7.41l-.355.176v39.869c0 8.467 3.195 15.524 9.23 20.463 5.857 4.763 24.317 12.702 25.027 12.878" fill="#341B14"/><path d="M44.968 85.574s-19.526-8.467-25.56-13.23C13.017 67.05 10 59.818 10 51.527v-41.28c15.443-8.291 34.968-7.585 34.968-7.585s19.525-.706 34.967 7.585v41.104c0 8.291-3.017 15.524-9.407 20.816-6.035 4.94-25.56 13.407-25.56 13.407ZM12.84 51.527c0 7.762 2.84 14.113 8.342 18.523 4.97 4.058 19.703 10.585 23.786 12.349 4.082-1.764 18.992-8.468 23.784-12.349 5.503-4.41 8.343-10.937 8.343-18.523V10.953c-20.59-1.94-45.085-.882-64.255 16.759v23.815Z" fill="#FFB406"/><path d="M64.67 45.706c2.663 1.587 3.728 2.646 3.905 4.586 0 2.117-1.42 3.352-3.728 3.352-1.952 0-4.26-1.058-5.857-2.47v5.645c1.953 1.059 4.26 1.941 6.745 1.941 6.035 0 8.875-4.234 8.875-8.115.177-3.528-.888-6.35-6.035-9.35-2.308-1.41-4.082-2.293-4.082-4.41s1.952-2.999 3.55-2.999c2.13 0 4.26 1.235 5.502 2.47v-5.292c-1.065-.882-3.373-2.117-6.745-1.94-4.082.175-8.342 2.998-8.342 7.938.177 3.351 1.242 5.821 6.212 8.644ZM43.725 58.407c.532.177 1.42.353 2.84.353 6.922 0 10.828-6.174 10.828-14.995 0-8.997-4.083-14.466-11.36-14.466-3.373 0-6.035.706-8.343 2.117v39.87h6.035v-12.88Zm0-23.992c.532-.176 1.42-.529 2.13-.529 3.55 0 4.97 2.823 4.97 9.703 0 6.703-1.775 9.879-5.325 9.879-.888 0-1.597-.177-1.953-.353v-18.7h.178ZM25.087 58.76c3.728 0 6.923-.882 9.23-2.47V29.652h-6.212v23.11c-.71.53-1.598.706-2.84.706-2.84 0-3.195-2.646-3.195-4.234V29.652h-6.213v19.229c0 6.527 3.196 9.879 9.23 9.879Zm41.358 23.815v4.058h.71v-1.588h.178l1.065 1.588h.887s-1.065-1.588-1.243-1.764c.533-.177.888-.53.888-1.059 0-.529-.355-1.235-1.42-1.235h-1.065Zm1.065.53c.532 0 .71.352.71.529 0 .353-.178.705-.887.705h-.178v-1.234h.355Z" fill="#FFB406"/><path d="M70.35 84.516c0 1.411-1.242 2.646-2.662 2.646s-2.663-1.235-2.663-2.646c0-1.411 1.242-2.646 2.662-2.646 1.598 0 2.663 1.235 2.663 2.646m-2.662-3.352c-1.776 0-3.373 1.411-3.373 3.352a3.36 3.36 0 0 0 3.373 3.352c1.775 0 3.372-1.412 3.372-3.352 0-1.764-1.597-3.352-3.373-3.352" fill="#FFB406"/></g></svg>