<svg viewBox="0 0 90 90" xmlns="http://www.w3.org/2000/svg"><g fill="none" fill-rule="evenodd"><path fill="#FFF" d="M0 0h90v90H0z"/><path d="M58.863 34.05C54.958 25.384 48.66 17.549 39.97 10.545l-.546-.436a.5.5 0 0 0-.699.078.492.492 0 0 0-.057.526l.777 1.584.503 1.039.489 1.023.476 1.01.463.995.227.492.443.974.43.959.418.945.404.93.392.916.378.902.365.887.352.873.34.858.164.424.32.837.155.413.3.816.145.402.28.794.268.78.129.384.248.758.119.373.228.737.11.363.208.715c.068.235.133.469.196.7l.183.686c.03.113.058.226.086.338l.163.664.15.65c.12.536.226 1.057.319 1.563l.104.6.092.585c.099.675.171 1.32.217 1.936l.033.521c.083 1.626-.03 3.037-.339 4.23-.94 3.63-4.138 5.808-9.595 6.532l-.572.07c-.194.021-.39.041-.589.06l-.605.048-.308.02-.629.034c-1.062.047-2.19.051-3.386.012l-.726-.029-.742-.04-.758-.049-.774-.06-.79-.07a74.163 74.163 0 0 1-.4-.039l-.815-.086-.83-.096-.847-.106a92.05 92.05 0 0 1-.43-.057l-.87-.122-.441-.065-.895-.138c2.296 1.478 4.919 2.548 7.87 3.208-2.78.832-5.132 2.07-7.057 3.717l1.487-.185 1.433-.17 1.824-.203 1.305-.135 1.25-.12 1.195-.104 1.14-.09 1.085-.075 1.031-.06.657-.032.94-.035.596-.015.571-.009.547-.001.265.001.51.008.247.007.474.018.45.025.426.032.401.038.192.022.365.048.34.055c.328.058.62.126.876.204l.124.04a.987.987 0 0 1 .462 1.549l-.955 1.2-1.407 1.755-1.375 1.705-1.782 2.192-1.3 1.583-1.268 1.532-1.235 1.48L34.48 71.8l-1.17 1.377-.764.889-1.118 1.29-1.085 1.239-1.054 1.187-1.021 1.135-.99 1.083c5.796 0 11.958-3.15 18.603-9.102l.898-.809 1.102-.965 2.016-1.742.584-.51.584-.517.29-.26.577-.526.57-.533.56-.539c2.493-2.439 4.61-5.082 5.304-7.988l.652-.188.929-.278.587-.182.562-.18.537-.178.51-.175.486-.173.46-.171.434-.169.207-.083.396-.166.189-.081.357-.162c.173-.08.336-.16.489-.238l.294-.156.268-.154.242-.152c.077-.05.15-.1.218-.149l.191-.147c.417-.34.626-.662.626-.965 0-1.689-4.051-3.292-6.997-2.951l.173-.286.555-.87.14-.229.135-.237.132-.248.084-.171.081-.178.078-.183.073-.19.069-.198.064-.205.058-.214.052-.223.046-.232.02-.12.036-.246.015-.128.024-.263.009-.136.01-.28a9.79 9.79 0 0 0-.011-.756l-.023-.326-.032-.34a13.265 13.265 0 0 0-.02-.175l-.05-.361-.062-.377-.073-.393a19 19 0 0 0-.086-.41l-.1-.425-.112-.444-.127-.461a28.93 28.93 0 0 0-.218-.727l-.164-.508a35.232 35.232 0 0 0-.088-.262l-.188-.538-.204-.558-.22-.58-.239-.601a54.336 54.336 0 0 0-.126-.309l-.265-.634-.283-.657-.303-.681Z" fill="#243239" fill-rule="nonzero"/></g></svg>