<svg viewBox="0 0 90 90" xmlns="http://www.w3.org/2000/svg"><g fill="none" fill-rule="evenodd"><path fill="#FFF" d="M0 0h90v90H0z"/><path d="M58.958 10H48.162c-10.608 0-19.604 7.933-19.604 23.334 0 9.24 4.356 16.052 12.12 19.412L26.19 78.506c-.474.842 0 1.494.757 1.494h6.725c.567 0 .948-.186 1.137-.652l13.164-25.295h4.735v25.295c0 .278.283.652.662.652h5.872c.568 0 .758-.28.758-.745V10.933c0-.653-.38-.933-1.042-.933Zm-6.25 38.08H48.73c-6.25 0-12.31-4.48-12.31-15.679 0-11.668 5.681-16.428 11.457-16.428h4.83V48.08Z" fill="#FE0000" fill-rule="nonzero"/></g></svg>