<svg viewBox="0 0 90 90" xmlns="http://www.w3.org/2000/svg"><path d="m50.703 32.612 6.334 41.826c.876 3.859-1.914 7.562-5.7 7.562H38.665c-3.783 0-6.576-3.703-5.7-7.562l6.337-41.826c1.035-6.451 10.575-6.308 11.4 0ZM19.534 9c3.786 0 6.58 3.703 5.7 7.562L18.9 58.392c-1.037 6.45-10.578 6.301-11.4 0l-6.34-41.83C.29 12.703 3.083 9 6.863 9h12.671ZM83.14 9c3.783 0 6.573 3.703 5.7 7.562l-6.337 41.83c-1.038 6.45-10.575 6.301-11.4 0l-6.335-41.83C63.891 12.703 66.681 9 70.465 9h12.674Z" fill="#00FFB0"/></svg>