<svg viewBox="0 0 90 90" xmlns="http://www.w3.org/2000/svg"><g fill="none"><path fill="#FFF" d="M78.032 72.685 89.802 17H11.768L0 72.685z"/><path d="M58.024 28.68c9.062 2.123 9.297 4.365 9.297 4.365 5.885 0 7.415 0 8.474 1.062 3.414 3.185-2.353 10.972-2.353 10.972-.707.472-65.674 25.955-65.674 25.955h68.38l10.946-51.792H13.653s43.311 9.202 44.37 9.438" fill="#336"/><path d="M64.732 36.23c-.941.472-3.766.944-4.708 1.062-.941.118-1.412.118-1.412.354 0 .354 1.295.236 1.765.236 2.119 0 10.475-.59 12.476-.236 1.53.236-.235 3.303-.706 5.191-.118.708.353.354.588 0 .589-.944 2.237-4.011 2.354-5.19.236-2.36-1.412-2.714-4.237-2.714h-4.354c-.354 0-.471.118-.589.354-.353.353-.941.707-1.177.943" fill="#336"/><path d="M37.662 53.691 2.707 71.034l8.474-39.759h35.308c.589 0 18.95 0 19.302 3.658H34.014l4.943 15.1c5.65-2.713 19.537-8.376 27.894-8.73 3.53-.118 4.943.472 4.237.944-.471.236-3.884.708-6.591 1.416-4.708 1.18-4.943 1.18-9.887 2.831-5.531 1.888-10.121 4.012-16.948 7.197" fill="#336"/></g></svg>