<svg viewBox="0 0 90 90" xmlns="http://www.w3.org/2000/svg"><g fill="none" fill-rule="evenodd"><path fill="#FFF" d="M0 0h90v90H0z"/><g fill="#004500" fill-rule="nonzero"><path d="M7.06 22.515c.06 12.917.09 13.634.694 15.488 2.804 8.551 12.301 12.438 20.713 8.492 3.317-1.555 6.302-4.994 7.417-8.462 2.533-8.073-2.11-16.625-10.16-18.718-1.599-.418-6.03-.687-6.332-.358-.12.09-.211 5.89-.15 9.837l.03 1.704 1.054-.448c2.02-.838 3.77-.3 4.825 1.465 1.236 2.093.301 4.814-1.99 5.71-2.05.808-3.86.12-4.824-1.823-.634-1.286-.664-1.675-.664-13.874V9H7l.06 13.515Zm48.12 1.405c-.784.718-.934 1.106-.934 2.183.03 1.584.512 2.272 1.99 2.78 1.296.449 2.653.18 3.557-.717.694-.688.905-2.93.392-3.648-1.296-1.674-3.527-1.943-5.005-.598Zm7.417.538c-.09.21-.06 22.395.06 22.844.03.12 5.367.12 6.091 0 .09-.03.181-5.203.181-11.542V24.25h-3.105c-1.72 0-3.166.09-3.227.21Zm7.598.748c-.15 6.428.03 14.95.332 16.086.935 3.409 2.985 5.322 6.482 6.13 2.563.568 2.563.568 2.563-3.14v-3.26l-1.085-.208c-.875-.15-1.176-.42-1.508-1.196-.754-1.765-.603-2.183.784-2.153.694 0 1.327-.09 1.447-.21.12-.09.211-1.584.211-3.318v-3.11l-.904-.03c-.483-.03-1.146-.03-1.417 0-.483.06-.543-.269-.543-3.23V24.25h-6.332l-.03.957Z"/><path d="M37.12 30.976c-.392.628-.09 10.316.362 11.9.965 3.26 3.528 5.084 7.085 5.084 2.352 0 3.77-.568 5.337-2.123 1.236-1.226 1.84-2.273 2.11-3.678.151-.807.272-9.09.151-11.033-.03-.359-.572-.449-3.105-.419l-3.106.03-.18 5.352c-.091 2.93-.181 5.382-.212 5.412-.24.33-1.839 0-1.99-.388-.09-.27-.18-2.691-.18-5.382v-4.904h-.814c-.483-.03-1.84-.06-3.046-.09-1.236-.03-2.291.06-2.412.24Zm17.065 1.107c-.06.867-.06 4.694 0 8.461l.09 6.907 3.137-.03h3.165V30.528h-6.301l-.09 1.555Zm-1.447 19.853c-1.206.479-1.718 1.166-1.96 2.512-.482 2.69 3.136 4.395 5.277 2.452 2.532-2.243-.151-6.28-3.317-4.964Zm5.94 1.017c-.302.12-.362 2.003-.362 7.923.03 8.014.15 9.12 1.055 10.944 1.267 2.452 4.493 4.455 7.206 4.455h1.146v-3.26l.03-3.288-.904-.18c-1.206-.269-2.05-1.255-2.05-2.451 0-.957.03-.987 1.356-.987 1.538 0 1.357.478 1.447-4.096.03-1.376 0-2.482-.09-2.512-.09-.03-.663-.06-1.266-.09-.603 0-1.206-.12-1.297-.239-.12-.12-.21-1.555-.21-3.23 0-2.87-.031-2.99-.634-3.019-2.683-.12-5.126-.09-5.427.03Zm11.035-.06-.694.09v22.993l.845.03c2.17.06 5.276 0 5.397-.15.09-.09.18-2.392.21-5.113.03-4.036.121-4.993.483-5.232.603-.389.784-.359 1.266.09.302.328.392 1.614.392 5.382l-.03 4.993.995.03h4.885c.572-.03.572-.3.512-6.548-.06-5.472-.15-6.668-.603-7.565-1.327-2.78-4.221-3.797-6.935-2.482-.482.24-.934.419-.994.419-.06 0-.091-1.495-.06-3.29.03-1.823-.031-3.378-.121-3.467-.181-.21-4.463-.33-5.548-.18ZM16.92 61.385c.15 9.418.27 10.196 2.23 12.438 1.9 2.213 4.825 3.409 7.689 3.14 1.477-.12 4.07-1.256 5.397-2.363l.874-.747 1.568 1.196c4.764 3.588 11.156 2.003 13.87-3.409.723-1.465.723-1.674.813-10.106l.09-8.581h-9.074v6.997c0 6.308-.06 7.056-.543 7.654-.663.807-1.719.598-1.99-.389-.09-.359-.181-3.707-.181-7.475v-6.787h-9.045v6.787c0 3.768-.09 7.116-.181 7.475-.271.987-1.327 1.196-1.99.389-.482-.598-.543-1.346-.543-7.654v-6.997H16.8l.12 8.432Zm36.843-2.153-3.045.15-.03 8.282v8.312l1.538.03c2.05.06 4.492-.03 4.703-.18.211-.12.241-16.504.03-16.654-.09-.06-1.507-.03-3.196.06Z"/></g></g></svg>