<svg viewBox="0 0 90 90" xmlns="http://www.w3.org/2000/svg"><g fill="none" fill-rule="evenodd"><path fill="#FFAC00" d="M0 0h90v90H0z"/><g fill-rule="nonzero"><path fill="#FFF" d="M73.414 56.029H65.11l-1.438-9.037-5.334 8.944h-8.396l5.103 5.376-4.175 9.037 9.184-5.468 7.19 5.56-1.346-9.129"/><path d="M79.211 54.222h-12.57l-1.994-12.513-7.329 12.42h-1.391c-.835-1.437-1.16-3.522-1.16-4.82 0-2.131.14-4.217.14-6.951 0-3.615-1.067-5.515-3.897-6.21v-.093c5.984-.834 8.72-4.82 8.72-10.38 0-7.925-5.287-9.64-12.199-9.64h-18.6l-7.885 37.26h9.88l2.876-13.579h6.586c3.526 0 4.963 1.715 4.963 5.005 0 2.503-.278 4.496-.278 6.396 0 .695.14 2.363.65 3.012l7.143 7.554-6.17 13.208 13.173-7.832 9.834 7.554-1.81-12.467 11.318-7.924ZM43.357 32.765h-7.885l1.901-8.99h7.329c2.598 0 5.334.695 5.334 3.846 0 4.032-3.108 5.144-6.68 5.144ZM60.055 64.88l-9.184 5.468 4.221-8.99-5.102-5.376h8.395l5.288-8.944 1.438 9.036h8.349l-7.514 5.237 1.345 9.176-7.236-5.607Z" fill="#040301"/></g></g></svg>