<svg viewBox="0 0 90 90" xmlns="http://www.w3.org/2000/svg"><defs><linearGradient x1="50.048%" y1="100%" x2="50.048%" y2="0%" id="a"><stop stop-color="#0052CC" offset="0%"/><stop stop-color="#2684FF" offset="100%"/></linearGradient></defs><g fill="none" fill-rule="evenodd"><path d="M79.316 0H10.699C4.796 0 .009 4.784 0 10.69v68.561a10.71 10.71 0 0 0 3.118 7.598A10.695 10.695 0 0 0 10.698 90h68.618a10.695 10.695 0 0 0 7.57-3.156A10.71 10.71 0 0 0 90 79.251v-68.56C89.992 4.79 85.213.008 79.316 0Z" fill="url(#a)" fill-rule="nonzero"/><path d="M38.815 64.824a3.58 3.58 0 0 1-3.605 3.564H20.215a3.563 3.563 0 0 1-3.547-3.564V20.17a3.563 3.563 0 0 1 3.547-3.564H35.21a3.577 3.577 0 0 1 3.561 3.564l.044 44.654Zm34.604-20.502a3.565 3.565 0 0 1-3.605 3.564H54.819a3.578 3.578 0 0 1-3.561-3.564V20.17a3.577 3.577 0 0 1 3.56-3.564h14.996a3.563 3.563 0 0 1 3.547 3.564l.058 24.152Z" fill="#FFF"/></g></svg>