<svg viewBox="0 0 90 90" xmlns="http://www.w3.org/2000/svg"><g fill="none" fill-rule="evenodd"><path fill="#FFF" d="M0 0h90v90H0z"/><path d="M78.952 22H64.894l-1.006.172v1.342c0 .157.48.29.613.388.127.106.47.164.613.164l1.274.063c1.444.068 1.884.38 2.447.905.552.544.643 1.467.212 2.765l-12.425 32.22-.474-.14-7.893-17.636c.114-.265.183-.414.183-.414L54.9 28.636c.751-1.392 1.479-2.636 1.848-3.215.676-1.057 1.004-1.256 2.844-1.349.376 0 .52-.183.52-.554v-1.334l-.095-.143s-7.725-.027-11.242 0l.002.137v1.335c0 .163-.09.293.034.391.133.107.19.162.332.162l.527.066c1.437.068 2.08.478 2.275.735.344.462.505.954-.328 2.936l-4.975 10.823-4.495-10.04c-1.475-3.208-1.84-4.2.383-4.386l.597-.137c.427 0 .36-.169.36-.488v-1.403l-.044-.115s-8.235 0-11.993.002l-.05.138v1.407c0 .316.314.397.896.484 2.08.297 2.045.535 4.101 4.988.307.668 1.216 2.68 1.216 2.68l4.687 10.05s.532 1.291 1.364 3.295l-6.812 14.834-.389-.11S25.892 35.494 22.836 27.351c-.323-.838-.462-1.465-.462-1.852 0-.827.683-1.275 2.05-1.335l2.078-.074c.425 0 1.12-.178 1.12-.546v-1.335l-.626-.138s-12.95-.016-15.566 0l-.43.138v1.405c0 .253.34.41.928.476 1.608.097 2.689.375 3.195.843.505.472 1.052 1.663 1.763 3.519C20.728 38.527 28.9 56.508 32.878 66.75c1.142 2.795 2.586 3.23 4.33-.088 1.798-3.639 5.424-11.715 8.07-17.677 2.474 5.947 5.843 13.994 7.468 17.639 1.294 2.917 2.769 3.205 4.266.087 3.916-9.498 15.352-38.08 15.352-38.08.494-1.403 1.185-2.484 2.075-3.27.883-.775 2.198-1.213 4.041-1.298.373 0 .52-.187.52-.55v-1.341L78.952 22Z" fill="#000" fill-rule="nonzero"/></g></svg>