<svg viewBox="0 0 90 90" xmlns="http://www.w3.org/2000/svg"><g fill="none" fill-rule="evenodd"><path fill="#006890" d="M0 0h90v90H0z"/><g fill="#FFF"><path d="M47.076 36.282c-5.486-.26-34.088-.997-46.823 4.587a264.822 264.822 0 0 0 11.473 6.513c12.61-5.977 28.987-8.14 44.031-8.97v-.386c-2.917-.366-6.157-.997-8.68-1.744Zm12.86 2.344c-11.294 1.14-31.287 4.456-42.68 11.64a304.867 304.867 0 0 0 12.798 6.151C42.056 46.065 57.914 41.47 74.086 38.25v-.378c-4.108.491-10.32.79-14.15.755Zm-23.92 20.385c5.468 2.288 11.115 4.395 15.93 5.8 5.799-11.675 16.288-20.936 35.618-29.42v-.385C62.738 41.88 47.202 46.805 36.015 59.01Z"/><path fill-rule="nonzero" d="m39.075 32.638-.85-3.598-2.013 3.598h-2.417l-2.04-3.598-.85 3.598h-2.533l1.665-5.577h2.8l2.166 3.818 2.175-3.818h2.775l1.664 5.577m-21.523-5.577-3.741 5.577h2.524l.572-.963h3.911l.564.963h2.783l-3.74-5.577h-2.873Zm-.01 3.53 1.316-2.238 1.325 2.239h-2.64Zm48.776-3.53-3.742 5.577h2.524l.564-.963h3.92l.564.963h2.783l-3.741-5.577h-2.873Zm-.01 3.53 1.316-2.238 1.324 2.239h-2.64Zm14.364 2.047-3.016-2.635v2.635h-2.577v-5.577h2.577v2.443l3.016-2.443h3.123l-3.472 2.666 3.714 2.911m-26.132 0h2.917l-1.933-2.133c1.065-.268 1.513-.91 1.513-1.639 0-.857-.6-1.318-1.45-1.552-.886-.245-2.059-.253-3.168-.253h-3.947v5.577h2.55v-1.676h2.202l1.316 1.676Zm-3.517-4.47h1.61c1.316 0 1.853.256 1.853.823 0 .453-.358.729-.805.83-.332.076-.627.091-1.137.091H56.93v-1.744Zm-8.225.17v4.3H46.12v-4.3h-3.34l.286-1.277h9.02l-.285 1.277m36.559-1.092c.331 0 .617.121.85.36.233.233.35.52.35.856 0 .336-.117.623-.35.861a1.15 1.15 0 0 1-.85.359c-.34 0-.618-.121-.86-.359a1.186 1.186 0 0 1-.348-.86c0-.337.116-.624.358-.858a1.15 1.15 0 0 1 .85-.359Zm1.387 1.212c0-.388-.134-.72-.403-.993a1.344 1.344 0 0 0-.993-.411c-.376 0-.707.136-.975.411a1.348 1.348 0 0 0-.412.993c0 .393.134.725.403 1.001.277.276.6.415.984.415.394 0 .716-.14.993-.415a1.38 1.38 0 0 0 .403-1Zm-1.03-.302c0 .117-.053.197-.16.238a.731.731 0 0 1-.26.034h-.241v-.551h.232a.73.73 0 0 1 .331.057c.063.037.099.113.099.222Zm-.92-.472v1.545h.259v-.608h.214c.144 0 .242.019.296.049.098.06.143.177.143.355v.12l.009.05v.019c0 .003.009.007.009.015h.26l-.018-.02c0-.01-.01-.04-.01-.082-.008-.038-.008-.076-.008-.114V28.9a.44.44 0 0 0-.08-.238.362.362 0 0 0-.26-.15.576.576 0 0 0 .223-.076c.099-.064.152-.166.152-.306 0-.193-.08-.325-.241-.389-.09-.038-.224-.057-.42-.057h-.529Z"/></g></g></svg>