<svg viewBox="0 0 90 90" xmlns="http://www.w3.org/2000/svg"><g fill="none"><path fill="#FFF" d="M0 0h90v90H0z"/><path d="M53.38 8.48c9.858 0 21.69 1.835 26.62 5.731V0H10v14.213c4.928-3.897 15.527-5.501 26.865-5.501v38.972c0 5.73-.492 7.335-2.957 10.316h22.43c-2.464-2.979-2.959-4.584-2.959-10.316V8.48Z" fill="#E40514"/><path d="M37.57 73h39.162c.357 0 .357.358 0 .536-4.428 1.953-10.81 8.532-10.81 8.532C61.673 86.333 58.126 89 50.684 89h-37.39c-.354 0-.354-.178-.177-.355 4.253-2.312 10.277-8.888 10.277-8.888C25.875 76.913 31.191 73 37.571 73Z" fill="#004996"/></g></svg>