<svg viewBox="0 0 90 90" xmlns="http://www.w3.org/2000/svg"><g fill="none" fill-rule="evenodd"><path fill="#4F04F1" d="M0 0h90v90H0z"/><path d="M31.907 30.209c1 .14 2.605.557 3.558.928 2.07.79 5 2.856 4.721 3.297-.093.162-.86 1.276-1.674 2.437l-1.465 2.136L36 38.055c-.558-.51-1.628-1.207-2.349-1.555-1.14-.51-1.651-.604-3.651-.604-2.256-.023-2.419 0-4.116.86-2.117 1.02-3.396 2.367-4.465 4.572-.652 1.37-.721 1.718-.721 3.714 0 1.997.07 2.345.72 3.714 1.07 2.206 2.35 3.552 4.466 4.573 1.697.836 1.86.883 4.116.883 2.21 0 2.419-.047 4.093-.86 3.14-1.531 5.233-3.969 9.442-10.98 1.372-2.274 3.116-4.897 3.837-5.826 4.581-5.687 11.07-7.776 17.558-5.64.814.255 1.512.556 1.582.65.046.115-.582 1.206-1.442 2.437l-1.535 2.275-.837-.21c-.465-.092-1.768-.185-2.93-.185-1.791 0-2.303.093-3.442.627-2.768 1.3-3.768 2.46-7.256 8.426-1.117 1.904-2.582 4.248-3.233 5.2-2.744 4.016-6.814 7.451-10.442 8.844C25.581 62.777 15 55.558 15 45.042c0-4.062 1.512-7.683 4.395-10.515 2.465-2.461 5.21-3.83 8.512-4.318 1.977-.279 1.977-.279 4 0ZM75 44.392c0 2.879-.488 4.991-1.651 7.382-.768 1.579-1.372 2.345-2.86 3.83-3.024 2.995-6.35 4.364-10.489 4.364-1.186 0-2.744-.162-3.605-.394-1.837-.464-4.581-1.788-5.697-2.786l-.838-.72 1.512-2.181c.837-1.184 1.558-2.206 1.628-2.275.07-.07.535.209 1.047.603.488.395 1.534 1.022 2.279 1.37 1.186.557 1.627.627 3.674.627 2.047 0 2.488-.07 3.674-.627 1.907-.906 3.024-1.834 4.117-3.505 1.511-2.322 1.65-2.229-3.582-2.299l-4.535-.07 1.86-2.738 1.861-2.716H75v2.135Z" fill="#FFF" fill-rule="nonzero"/></g></svg>