<svg viewBox="0 0 90 90" xmlns="http://www.w3.org/2000/svg"><g fill="none" fill-rule="evenodd"><path d="M79.609 9.648c.387.06.758.119 1.114.178.388.03.774.059 1.16.09.178.03.357.044.535.044h1.115c.179 0 .357-.016.535-.045.328-.03.67-.074 1.026-.133a86.96 86.96 0 0 1 1.026-.178c.327-.09.654-.193.981-.311h.09c.327-.119.624-.238.891-.356l.981-.534a8.29 8.29 0 0 0 .892-.622H90a20.712 20.712 0 0 1-1.204 1.512h-.045c-.446.444-.907.86-1.382 1.245a41.06 41.06 0 0 1-1.517.933c-.564.267-1.13.49-1.694.667a5.3 5.3 0 0 0-.625.223l-.267.089c-.297.06-.61.118-.937.178a8.74 8.74 0 0 1-.937.222c-.297.03-.609.074-.936.133-.208 0-.43.03-.67.09a4.35 4.35 0 0 0-.623.044c-.239 0-.462.015-.67.044-.238.03-.475.045-.713.045h-.669c-.238 0-.461.015-.669.044l-10.837-.222h-.714a5.69 5.69 0 0 1-.714.044h-.758c-.238.03-.46.059-.669.09a6.2 6.2 0 0 0-.758.044c-.208.029-.43.06-.669.089-.357.029-.698.073-1.026.133-.356.03-.713.074-1.07.133-.327.09-.669.178-1.026.267l-.981.267c-.297.089-.61.193-.937.311-.326.119-.653.252-.98.4-.298.119-.61.253-.937.4-.297.179-.595.356-.892.534a18.23 18.23 0 0 0-.892.534l-.803.622c-.565.445-1.086.95-1.561 1.512-.268.267-.52.549-.758.845-.268.327-.506.652-.714.978a9.306 9.306 0 0 0-.669 1.068 36.59 36.59 0 0 0-.624 1.111c-.208.416-.401.83-.58 1.245-.178.445-.341.89-.49 1.334l-.045.045a98.89 98.89 0 0 1-1.695-1.468 34.24 34.24 0 0 1-1.472-1.378 13.303 13.303 0 0 1-1.248-1.423 13.49 13.49 0 0 1-1.026-1.334 14.3 14.3 0 0 1-.847-1.378 9.615 9.615 0 0 1-.58-1.29 6.064 6.064 0 0 1-.446-1.29 6.14 6.14 0 0 1-.223-1.245 7.936 7.936 0 0 1 0-2.356c.06-.385.149-.741.267-1.068.119-.355.253-.711.402-1.067.178-.355.357-.696.535-1.022.208-.297.43-.609.669-.934a12.726 12.726 0 0 1 1.695-1.646c.297-.237.624-.474.98-.711.328-.237.685-.46 1.071-.667.357-.207.743-.4 1.16-.578.387-.178.787-.34 1.204-.49l1.338-.355c.416-.118.847-.237 1.293-.356a19.59 19.59 0 0 1 1.383-.222l1.382-.089h2.007a2.8 2.8 0 0 1 .535.044c.417.03.848.074 1.294.134.416.03.847.089 1.293.178.387.06.803.133 1.249.222.446.089.877.178 1.293.267.297.059.58.133.848.222.297.09.58.178.847.267.297.06.58.133.847.222.297.09.58.164.848.223.297.118.595.222.892.311.297.089.564.178.803.267l7.537 2.668c.297.089.58.178.847.267l.803.266c.267.09.535.164.803.223.267.118.535.207.802.267.268.088.536.162.803.222.268.059.52.133.758.222l1.16.267c.386.089.773.163 1.16.222Z" fill="#007D44"/><path d="m70.154 71.324-.892-.089a7.124 7.124 0 0 1-.848-.133 9.517 9.517 0 0 1-1.471-.445 3.923 3.923 0 0 1-.313-.089h-.044c-.328-.178-.64-.356-.937-.534h-.044a13.19 13.19 0 0 1-1.026-.756 10.803 10.803 0 0 1-.803-.89 6.323 6.323 0 0 1-.669-.978 34.249 34.249 0 0 1-.49-1.112 1.867 1.867 0 0 1-.179-.534c-.059-.177-.119-.37-.178-.577a3.42 3.42 0 0 1-.134-.535c-.03-.207-.06-.4-.09-.577a4.19 4.19 0 0 1-.044-.578 3.256 3.256 0 0 1-.045-.534 4.19 4.19 0 0 1-.044-.578v-.577c0-.148.015-.312.044-.49a3.19 3.19 0 0 0 .045-.534c.03-.266.06-.547.09-.844.059-.297.118-.578.178-.845.059-.326.118-.622.178-.89.09-.296.164-.592.223-.889l.178-.622c.09-.178.164-.355.223-.534.06-.207.134-.415.223-.623.09-.207.164-.399.223-.577.06-.207.15-.415.268-.622a3.3 3.3 0 0 0 .223-.578l.268-.622c.089-.207.193-.4.312-.578.089-.207.178-.4.267-.578l4.728-9.16c.089-.208.193-.415.312-.623.09-.178.178-.37.268-.578.089-.207.178-.43.267-.667.09-.178.179-.37.268-.578l.267-.623c.09-.208.179-.4.268-.578l.178-.622c.09-.207.164-.416.223-.623.09-.178.164-.37.223-.578l.179-.622c.06-.208.104-.4.134-.578.058-.238.118-.46.178-.667l.178-.89c.06-.296.105-.593.134-.89l.09-.889v-2.001c0-.385-.03-.74-.09-1.067 0-.355-.03-.711-.09-1.067l-.177-.978c-.06-.356-.134-.697-.223-1.023a4.856 4.856 0 0 0-.268-.934 3.418 3.418 0 0 0-.312-.934c-.09-.296-.193-.593-.312-.889a13.556 13.556 0 0 0-.803-1.6 17.474 17.474 0 0 0-1.026-1.424 7.117 7.117 0 0 0-1.16-1.156 5.557 5.557 0 0 0-1.337-.978 5.113 5.113 0 0 0-1.472-.667 9.095 9.095 0 0 0-1.606-.4 8.934 8.934 0 0 0-1.249-.09l-.535.044c-.327 0-.64.03-.936.09-.328.029-.67.088-1.026.177a7.375 7.375 0 0 0-1.383.4 6.458 6.458 0 0 0-1.204.578 6.376 6.376 0 0 0-1.07.623c-.328.267-.625.534-.892.8a3.46 3.46 0 0 0-.758.845 8.57 8.57 0 0 0-.58.845 21.17 21.17 0 0 0-.401.934 3.853 3.853 0 0 0-.223.934 5.27 5.27 0 0 0-.09.934c.03.296.09.593.179.889a2.9 2.9 0 0 0 .312.845c.119.267.282.518.49.756.506.593.908 1.14 1.205 1.645.327.563.55 1.081.669 1.556.118.474.163.919.133 1.334-.029.415-.133.8-.312 1.156a2.292 2.292 0 0 1-.669.845 4.4 4.4 0 0 1-.98.667.564.564 0 0 0-.268.134c-.12 0-.223.015-.313.044a.997.997 0 0 1-.312.045c-.09.029-.193.044-.312.044h-.357a.5.5 0 0 1-.223-.044h-.312a4.852 4.852 0 0 1-.312-.09 2.351 2.351 0 0 1-.312-.133c-.09-.03-.194-.06-.313-.089l-.267-.177a2.8 2.8 0 0 1-.312-.178.68.68 0 0 1-.268-.223 1.048 1.048 0 0 1-.268-.178 2.938 2.938 0 0 1-.312-.266 7.104 7.104 0 0 0-.223-.312 1.733 1.733 0 0 1-.223-.266 6.422 6.422 0 0 1-.223-.312 2.29 2.29 0 0 1-.223-.355l-.178-.356a3.04 3.04 0 0 1-.134-.4l-.178-.445a2.48 2.48 0 0 0-.134-.445v-.089a1.286 1.286 0 0 0-.09-.4c-.029-.356-.058-.711-.089-1.067a6.543 6.543 0 0 1 0-1.067c0-.385.03-.741.09-1.067 0-.356.044-.697.133-1.023.06-.296.15-.608.268-.934.059-.326.149-.638.268-.934.118-.326.252-.622.401-.89.178-.295.342-.577.49-.844.328-.563.7-1.097 1.116-1.6.446-.504.921-.98 1.427-1.424.506-.444 1.04-.845 1.605-1.2.268-.208.55-.386.848-.534.297-.178.595-.34.892-.49l.98-.444.982-.356a5.97 5.97 0 0 1 1.026-.355c.327-.09.669-.178 1.026-.267.356-.089.728-.164 1.115-.222.356-.06.713-.104 1.07-.134.357-.06.728-.089 1.115-.089.357-.03.728-.044 1.115-.044.564 0 1.13.015 1.695.044.535.059 1.085.134 1.65.223l1.605.355a30.3 30.3 0 0 1 1.517.49c.504.177.996.4 1.471.666.476.208.937.445 1.383.712.446.267.892.563 1.338.89.387.295.787.622 1.204.978.386.355.743.725 1.07 1.111.357.385.699.786 1.026 1.2.297.416.58.86.848 1.335.267.445.505.92.713 1.423.238.504.43 1.023.58 1.556.178.534.327 1.082.446 1.645s.208 1.141.267 1.735c.06.593.09 1.2.09 1.823 0 .444-.015.904-.045 1.378 0 .445-.03.874-.09 1.29-.088.415-.162.83-.222 1.245l-.268 1.245-.356 1.156c-.12.385-.253.756-.402 1.112-.149.385-.312.756-.49 1.111-.15.356-.313.697-.491 1.023l-.535 1.067a26.1 26.1 0 0 0-.625.934c-.207.327-.416.638-.624.934a18.12 18.12 0 0 0-.669.98c-.149.176-.312.37-.49.576-.12.208-.268.4-.447.578a9.06 9.06 0 0 1-.49.623c-.15.177-.312.37-.49.577l-.447.535c-.178.207-.341.399-.49.577l-4.371 4.802a7.865 7.865 0 0 0-.49.534 6.281 6.281 0 0 1-.402.534 7.764 7.764 0 0 1-.446.49 22.942 22.942 0 0 0-1.115 1.645 10.49 10.49 0 0 0-.981 1.646 4.576 4.576 0 0 0-.446.844c-.119.297-.223.593-.312.89a4.057 4.057 0 0 0-.268.844c-.089.327-.163.638-.223.934-.03.12-.059.253-.089.4 0 .149-.015.281-.045.4 0 .12-.015.252-.044.4v1.335c0 .147.015.296.044.444.03.178.045.34.045.49.06.148.104.296.134.444.03.149.059.311.089.49.06.118.119.266.178.444.03.148.09.297.179.445l.178.444c.09.149.164.297.223.445.179.297.387.593.625.89.207.296.46.577.758.844.267.238.58.49.936.756.357.237.729.475 1.115.712.417.208.848.414 1.294.622ZM45.268 28.191a27.848 27.848 0 0 0-2.587-.311 23.15 23.15 0 0 0-1.427-.045c-.328-.03-.67-.044-1.026-.044h-.09c-.773 0-1.5.03-2.185.089-.713.06-1.412.133-2.096.222-.654.118-1.293.252-1.917.4-.625.149-1.234.327-1.829.534-.565.178-1.115.386-1.65.622-.535.238-1.041.505-1.517.8-.475.268-.936.55-1.382.846-.446.326-.863.667-1.249 1.022a20.32 20.32 0 0 0-1.07 1.157c-.357.386-.699.785-1.026 1.2-.297.386-.58.816-.847 1.29-.238.444-.49.904-.759 1.378-.207.474-.4.963-.58 1.468a13.857 13.857 0 0 0-.534 1.556 31.804 31.804 0 0 0-.402 1.6 26.51 26.51 0 0 0-.312 1.646 16.813 16.813 0 0 0-.268 1.689c-.03.593-.059 1.171-.089 1.734-.03.623-.03 1.216 0 1.779v1.823l.179 1.868c.06.593.133 1.201.223 1.824.06.622.149 1.245.267 1.867.119.623.238 1.231.357 1.824.149.652.297 1.275.446 1.868.149.622.297 1.23.446 1.823.178.623.372 1.23.58 1.823.178.623.372 1.216.58 1.779.207.593.43 1.186.668 1.779.239.563.476 1.126.714 1.69.208.563.446 1.126.714 1.689.238.534.505 1.066.802 1.6l.803 1.513c.268.503.55.992.848 1.466.267.474.55.934.847 1.379.297.475.595.92.892 1.334.297.415.595.815.892 1.201.327.386.638.77.936 1.156.297.326.61.652.937.979.297.326.595.637.892.934.327.267.654.519.981.756.297.238.61.46.937.667.297.178.609.356.936.534.297.148.595.268.892.356a8.8 8.8 0 0 0 .937.222c.297.059.58.089.847.089h1.16c.178-.03.357-.059.535-.09.178 0 .357-.014.535-.044.15-.029.327-.044.535-.044l.446-.09c.15-.03.312-.059.49-.089a2.64 2.64 0 0 1 .447-.133 1.6 1.6 0 0 0 .401-.133 24.7 24.7 0 0 0 .67-.178c.207-.09.4-.163.579-.222.178-.09.372-.178.58-.267.178-.09.341-.163.49-.222.179-.12.342-.222.491-.312.178-.09.342-.178.49-.267.15-.12.283-.222.402-.311a4.11 4.11 0 0 0 .446-.312 2.06 2.06 0 0 0 .401-.312c.119-.119.238-.222.357-.312a3.38 3.38 0 0 1 .357-.311 3.38 3.38 0 0 0 .357-.311l1.427-1.424.267-.267.223-.222c.119-.059.208-.12.268-.178l.268-.178a1.43 1.43 0 0 0 .223-.177l.267-.133.179-.09c.089 0 .193-.014.312-.045h.446a.39.39 0 0 0 .178.046c.059.029.119.058.179.089l.178.088a.67.67 0 0 0 .178.134c.06.059.119.12.179.178a.66.66 0 0 1 .134.178c.06.058.118.118.178.177.03.09.074.163.134.222.089.09.149.178.178.268l1.338 2.267c.09.09.163.193.223.312.059.09.134.178.223.267.059.119.134.222.223.312.09.118.163.222.223.31l.268.268c.06.09.133.193.223.312.118.089.223.164.312.222.089.119.178.207.267.267.09.089.208.178.357.267v.044c.09.03.179.09.268.178.118.059.252.12.401.178.119.059.238.12.357.178.119.059.252.118.401.178.119.03.253.074.402.132.089.03.208.059.357.09l.356.089c.119 0 .253.015.402.045.118.029.252.044.401.044l.446.09h.981l.446-.09c.179 0 .342-.015.49-.044.18-.03.358-.074.536-.133.327-.09.684-.222 1.07-.4a7.42 7.42 0 0 0 1.026-.578.7.7 0 0 0 .179-.133c.21-.164.41-.326.602-.49l.156-.132a.669.669 0 0 0-.134.178.318.318 0 0 1-.045.065l-.022.023a.274.274 0 0 1-.067.044c-.09.149-.193.297-.312.445a1.54 1.54 0 0 1-.357.4c-.094.117-.19.236-.29.356l-.067.089-.401.4a4.761 4.761 0 0 0-.357.4c-.297.237-.61.46-.936.667a5.429 5.429 0 0 1-.982.622 9.25 9.25 0 0 1-1.16.444 6.338 6.338 0 0 1-1.292.312 8.246 8.246 0 0 1-1.517.133c-.118 0-.252-.015-.401-.044-.119 0-.238-.016-.357-.045-.119 0-.238-.015-.357-.044l-.357-.09a1.76 1.76 0 0 1-.356-.133 1.003 1.003 0 0 1-.313-.133 1.76 1.76 0 0 1-.356-.133 1.024 1.024 0 0 1-.313-.133 2.948 2.948 0 0 1-.312-.178 6.266 6.266 0 0 1-.312-.222 3.112 3.112 0 0 0-.312-.178l-.268-.177a5.876 5.876 0 0 0-.312-.222 1.147 1.147 0 0 1-.268-.268l-1.694-1.289a1.687 1.687 0 0 0-.268-.222c-.089-.06-.178-.12-.267-.178l-.268-.178a2.757 2.757 0 0 1-.268-.222 36.438 36.438 0 0 1-.267-.134l-.268-.132a2.476 2.476 0 0 0-.312-.133 1.134 1.134 0 0 1-.268-.133 4.073 4.073 0 0 0-.312-.09.852.852 0 0 0-.267-.044 1.236 1.236 0 0 0-.268-.045 1.327 1.327 0 0 0-.312-.044c-.119 0-.223.015-.312.044a1.3 1.3 0 0 0-.313.045c-.089 0-.192.015-.312.044l-.267.09c-.09.03-.194.059-.313.089a1.146 1.146 0 0 1-.267.133 2.43 2.43 0 0 0-.312.133c-.09.059-.179.104-.268.133a2.8 2.8 0 0 0-.312.178l-.268.177-2.586 1.602a2.233 2.233 0 0 0-.357.222 5.233 5.233 0 0 1-.402.177c-.118.09-.238.164-.356.222-.119.06-.253.12-.402.178a5.22 5.22 0 0 1-.401.178c-.15.03-.297.09-.446.178a1.597 1.597 0 0 1-.446.133 1.6 1.6 0 0 0-.401.133 4.356 4.356 0 0 1-.491.133c-.178.03-.342.059-.49.09a3.088 3.088 0 0 1-.491.044 1.73 1.73 0 0 1-.535.09 4.17 4.17 0 0 0-.58.044h-.535a32.56 32.56 0 0 1-2.944-.133 43.185 43.185 0 0 1-2.81-.355 71.9 71.9 0 0 1-2.72-.667 25.695 25.695 0 0 1-2.676-.845 36.195 36.195 0 0 1-2.453-1.067 23.526 23.526 0 0 1-2.408-1.29 33.448 33.448 0 0 1-2.275-1.466 28.13 28.13 0 0 1-2.185-1.647 29.213 29.213 0 0 1-2.052-1.778 40.294 40.294 0 0 1-1.917-1.957 29.745 29.745 0 0 1-1.829-2.09 38.649 38.649 0 0 1-1.695-2.179 96.698 96.698 0 0 1-1.56-2.312c-.506-.8-.982-1.6-1.428-2.401a33.52 33.52 0 0 1-1.338-2.49 65.688 65.688 0 0 1-1.204-2.536 51.977 51.977 0 0 1-1.026-2.578 46.552 46.552 0 0 1-.892-2.668 38.685 38.685 0 0 1-.802-2.623c-.239-.92-.462-1.809-.67-2.669a84.738 84.738 0 0 1-.891-5.336 40 40 0 0 1-.179-2.623C.03 43.076 0 42.216 0 41.356c0-.829.015-1.66.045-2.49.029-.833.104-1.648.223-2.449.058-.8.163-1.585.312-2.356.149-.771.327-1.527.535-2.268.178-.741.387-1.452.624-2.135.239-.711.506-1.393.803-2.045.297-.652.625-1.29.981-1.912.357-.593.729-1.156 1.115-1.69.386-.563.818-1.096 1.294-1.6.446-.475.921-.934 1.427-1.38a22.81 22.81 0 0 1 1.605-1.2 10.12 10.12 0 0 1 1.784-.934c.595-.326 1.22-.593 1.873-.8a24.324 24.324 0 0 1 2.097-.534 12.332 12.332 0 0 1 1.828-.222 18.61 18.61 0 0 1 1.829-.089h1.07c.832.06 1.695.149 2.587.267.921.148 1.858.326 2.81.534a45.27 45.27 0 0 1 2.943.844c1.01.356 2.051.756 3.122 1.201 1.07.415 2.17.905 3.3 1.467a36.983 36.983 0 0 1 3.523 1.868c.863.474 1.755.993 2.676 1.556.06.03.134.074.223.134.238.148.49.311.759.489.624.356 1.233.74 1.828 1.156l.268.178c.089.059.193.118.312.178l.669.467c.27.183.537.383.803.6ZM63.91 72.035a4.07 4.07 0 0 1 1.026.312c.327.119.64.28.936.489.297.207.58.43.848.667.238.267.46.549.669.845.207.296.371.608.49.934.149.326.253.667.312 1.022.09.355.134.726.134 1.112a6 6 0 0 1-.178 1.466 6.77 6.77 0 0 1-.58 1.335c-.238.385-.52.756-.847 1.111a7.314 7.314 0 0 1-1.115.845c-.417.238-.863.43-1.338.578a6.073 6.073 0 0 1-1.472.178c-.506 0-.996-.06-1.472-.178a6.816 6.816 0 0 1-1.338-.578 7.372 7.372 0 0 1-1.115-.845 7.267 7.267 0 0 1-.847-1.111 6.678 6.678 0 0 1-.58-1.335 6.02 6.02 0 0 1-.178-1.466c0-.503.06-.993.178-1.467.149-.474.342-.92.58-1.334a7.31 7.31 0 0 1 .847-1.112 7.372 7.372 0 0 1 1.115-.845 6.71 6.71 0 0 1 1.338-.577c.476-.12.966-.178 1.472-.178.386 0 .758.044 1.115.132Z" fill="#C01D20"/><path d="m32.379 2.178.089.133.089.267.134.267a.96.96 0 0 1 .178.311l.179.267c.089.118.163.252.223.4.058.118.149.238.267.356.09.118.179.252.268.4.089.118.192.238.312.356.09.118.193.237.312.356.208.237.446.46.714.667.267.207.535.37.802.489a7.818 7.818 0 0 0-.446.978c-.118.356-.222.74-.312 1.156-.06.445-.089.905-.089 1.379a9.778 9.778 0 0 0 .045 1.6c.03.534.118 1.097.267 1.69.06.296.134.593.223.89.06.326.15.637.268.933.09.296.208.608.357.934.118.296.252.608.401.934.149.326.312.637.49.934.179.326.373.652.58.978.208.326.417.638.625.934l.713.978.848.934c.267.296.55.593.847.89.327.295.654.608.981.933l1.07.89c.388.296.788.577 1.205.844.387.296.803.578 1.249.845a36.068 36.068 0 0 1-2.587-1.423 18.908 18.908 0 0 1-2.275-1.512 31.053 31.053 0 0 1-2.096-1.734 19.586 19.586 0 0 1-1.74-1.779 26.56 26.56 0 0 1-1.515-1.912 24.441 24.441 0 0 1-1.205-2.045 13.89 13.89 0 0 1-.98-2.135 11.56 11.56 0 0 1-.67-2.178 19.039 19.039 0 0 1-.401-2.268 20.098 20.098 0 0 1-.134-2.313c0-.8.06-1.6.178-2.4A26.51 26.51 0 0 1 32.334 2l.045.178Z" fill="#141754"/><path d="M45.847 50.291c.06 0 .119.015.179.045h.267c.119.029.223.058.313.089a2.593 2.593 0 0 1 .624.222.3.3 0 0 1 .223.09c.09.029.163.058.223.089.06.058.134.119.223.177.06.03.119.074.178.134a.68.68 0 0 0 .134.177l.178.178.134.133a.71.71 0 0 0 .134.178c0 .059.03.118.09.177.029.03.058.075.088.133l.09.134.044.09.045.133.044.089v.044l-.223.134-.624.132a.39.39 0 0 1-.178.046.503.503 0 0 0-.223.044h-.714a.748.748 0 0 0-.223-.044.83.83 0 0 1-.267-.046 1.628 1.628 0 0 1-.223-.089.982.982 0 0 1-.313-.133 1.134 1.134 0 0 0-.267-.133 1.048 1.048 0 0 1-.268-.177c-.089-.06-.178-.12-.267-.178a.558.558 0 0 0-.223-.133l-.179-.178a.683.683 0 0 1-.134-.178.704.704 0 0 0-.133-.177.4.4 0 0 0-.045-.178.394.394 0 0 1-.045-.177.544.544 0 0 1 0-.312.671.671 0 0 1 .223-.267c.03-.059.074-.09.134-.09l.179-.089a.748.748 0 0 1 .223-.044.503.503 0 0 1 .223-.045h.356Zm1.07 4.047a.75.75 0 0 0 .18-.045.398.398 0 0 1 .178-.044c.06 0 .133-.015.223-.046.06 0 .133-.015.223-.044h.401a.4.4 0 0 1 .178.044c.03 0 .074.015.134.046h.134c.06.029.119.058.178.089.03 0 .074.015.134.044l.134.09c.03.03.074.044.134.044l.178.178a.71.71 0 0 1 .178.133c.03 0 .06.015.09.044l.044.046-.044.044-.09.089c-.029.03-.089.075-.178.133l-.09.088-.088.045a.524.524 0 0 0-.134.09.509.509 0 0 1-.134.089c-.03.029-.06.058-.09.09a.4.4 0 0 0-.178.044c-.029.03-.074.044-.133.044a.404.404 0 0 0-.179.045.4.4 0 0 1-.178.044h-.58a.5.5 0 0 1-.223-.044.4.4 0 0 0-.178-.045.404.404 0 0 1-.179-.044.4.4 0 0 0-.178-.045.508.508 0 0 1-.134-.09.509.509 0 0 0-.134-.088.575.575 0 0 0-.133-.09c0-.03-.016-.059-.045-.089-.03-.03-.045-.074-.045-.133v-.178c0-.06.016-.09.045-.09a.341.341 0 0 0 .045-.133l.089-.09a.488.488 0 0 0 .134-.088l.178-.09a.533.533 0 0 1 .134-.087Zm1.116 4.357c.03-.06.06-.104.089-.133v-.133c.06-.06.09-.104.09-.133.058-.059.088-.12.088-.178a.29.29 0 0 0 .134-.133l.134-.133a.29.29 0 0 1 .134-.133.488.488 0 0 0 .133-.089l.09-.09a.531.531 0 0 1 .133-.089c.06 0 .105-.015.134-.044.03-.03.074-.045.134-.045.03 0 .074-.015.134-.045l.223-.045h.134l.089-.044h.312v.445l-.134.355c0 .03-.015.06-.044.09a.34.34 0 0 0-.045.133.515.515 0 0 1-.09.132c0 .03-.029.075-.088.134 0 .029-.03.058-.09.089 0 .058-.029.09-.089.09a.68.68 0 0 0-.134.176c-.029.03-.089.075-.178.134-.03 0-.074.03-.134.089-.03 0-.074.03-.134.09a.404.404 0 0 0-.178.044c-.03.03-.06.044-.09.044-.088 0-.148.016-.178.045a.341.341 0 0 0-.133.045h-.045c-.03 0-.06-.015-.09-.045H48.3l-.089-.045c-.06 0-.09-.015-.09-.044-.059-.059-.088-.12-.088-.178v-.356Zm6.02-9.649.268.178c.059.089.104.178.134.267v.4c-.03.059-.06.133-.09.222a.43.43 0 0 1-.088.223c-.03.058-.06.133-.09.222a1.483 1.483 0 0 0-.178.222.547.547 0 0 1-.134.223.791.791 0 0 1-.223.222 1.565 1.565 0 0 1-.446.445 1.4 1.4 0 0 0-.223.177c-.06.03-.134.074-.223.133l-.178.09c-.09.03-.163.058-.223.089-.09.03-.179.058-.268.09a.4.4 0 0 0-.178.044.503.503 0 0 0-.223.044h-.223l-.179.045h-.713v-.267l.089-.445.09-.177a.49.49 0 0 1 .044-.223.493.493 0 0 0 .044-.222.669.669 0 0 0 .134-.178c.03-.089.06-.163.09-.222a.68.68 0 0 0 .133-.177.541.541 0 0 1 .134-.223l.178-.177c.06-.06.119-.12.179-.178.089-.059.178-.12.267-.178l.223-.223a.995.995 0 0 0 .313-.132l.267-.133c.059-.03.134-.06.223-.09.09-.03.179-.059.268-.09h.223a.503.503 0 0 1 .223-.044h.178a.42.42 0 0 0 .179.043Zm-2.72 4.98c.059-.06.104-.104.134-.133a.531.531 0 0 1 .134-.089.508.508 0 0 1 .133-.09.549.549 0 0 1 .134-.089.556.556 0 0 1 .134-.09.398.398 0 0 1 .178-.044c.119-.03.223-.059.313-.089.118 0 .223-.015.312-.044h.446c.03 0 .074.015.134.044.148 0 .282.03.4.089a.4.4 0 0 1 .224.267v.222c0 .06-.015.104-.045.134-.03.029-.044.073-.044.133-.03 0-.06.03-.09.089a.502.502 0 0 0-.133.089l-.134.133a.531.531 0 0 1-.134.09.685.685 0 0 1-.178.133l-.179.088c-.089.03-.163.06-.223.09a.49.49 0 0 1-.223.046c-.03.029-.074.044-.133.044a.5.5 0 0 1-.223.045h-.446a.398.398 0 0 0-.179-.045l-.267-.044-.134-.09h-.09c-.058-.059-.118-.09-.178-.09l-.134-.044-.044-.044.089-.178a.53.53 0 0 0 .09-.133l.088-.09.09-.133c.029-.029.06-.058.089-.089.03-.03.06-.057.089-.088Zm-.401 3.069h.133l.179-.09h.223l.134-.044h.401c.03 0 .059.015.09.045h.178a.35.35 0 0 1 .133.044c.06.03.105.045.134.045.09.06.179.104.268.133.089.03.163.074.223.133.089.06.163.119.223.177.06.06.104.12.134.178a.66.66 0 0 1 .178.312.55.55 0 0 1 0 .312.294.294 0 0 1-.134.133c0 .03-.03.045-.09.045-.028.029-.059.044-.088.044a.351.351 0 0 1-.134.044h-.446a16.64 16.64 0 0 1-.178-.088h-.179a8.37 8.37 0 0 1-.178-.09c-.06 0-.119-.03-.179-.09a.351.351 0 0 1-.133-.044 8.608 8.608 0 0 1-.09-.09.502.502 0 0 1-.133-.088.502.502 0 0 1-.134-.09l-.09-.09a.341.341 0 0 1-.044-.132l-.178-.178-.045-.131-.045-.045c-.029-.058-.058-.119-.089-.178l-.044-.088v-.09Z" fill="#7F8080"/><path d="m67.478 83.419-.156.133c-.19.163-.391.325-.602.49a.7.7 0 0 1-.179.132 7.33 7.33 0 0 1-1.026.578 6.934 6.934 0 0 1-1.07.4 3.562 3.562 0 0 1-.535.133c-.15.03-.312.044-.49.044l-.447.09h-.98l-.447-.09a1.68 1.68 0 0 1-.401-.044 2.101 2.101 0 0 0-.402-.045c-.118-.029-.238-.058-.356-.089a3.052 3.052 0 0 1-.357-.09 3.232 3.232 0 0 0-.402-.132 5.771 5.771 0 0 1-.401-.178c-.12-.058-.238-.119-.357-.178a5.379 5.379 0 0 1-.401-.177.71.71 0 0 0-.268-.178v-.045a1.843 1.843 0 0 1-.357-.267 1.128 1.128 0 0 1-.267-.266 6.44 6.44 0 0 1-.312-.223 7.073 7.073 0 0 1-.223-.312l-.268-.267a7.104 7.104 0 0 0-.223-.311 1.183 1.183 0 0 1-.223-.312 1.692 1.692 0 0 1-.223-.267 1.199 1.199 0 0 0-.223-.311l-1.338-2.268a.71.71 0 0 0-.178-.268.541.541 0 0 1-.134-.222l-.178-.177a.669.669 0 0 0-.134-.178c-.06-.059-.119-.12-.179-.178a.7.7 0 0 1-.178-.133 16.64 16.64 0 0 1-.178-.09 5.931 5.931 0 0 1-.179-.088.39.39 0 0 1-.178-.045h-.446a1.3 1.3 0 0 1-.312.045l-.179.089-.267.133a1.43 1.43 0 0 1-.223.177l-.268.178c-.06.059-.149.12-.268.178l-.223.222-.267.267-1.427 1.424a3.38 3.38 0 0 1-.357.311 3.38 3.38 0 0 0-.357.312c-.119.09-.238.192-.357.312a2.093 2.093 0 0 1-.401.31 4.11 4.11 0 0 1-.446.313c-.119.089-.252.192-.401.311a7.386 7.386 0 0 1-.491.267c-.149.09-.312.193-.49.312a5.954 5.954 0 0 0-.491.223c-.208.089-.402.177-.58.266a6.927 6.927 0 0 0-.58.223c-.208.058-.43.118-.669.178a1.599 1.599 0 0 1-.401.132c-.15.03-.297.075-.446.134a22.083 22.083 0 0 0-.937.179 2.8 2.8 0 0 0-.535.044c-.178.03-.357.044-.535.044-.178.03-.357.059-.535.09h-1.16c-.267 0-.55-.03-.847-.09a8.532 8.532 0 0 1-.937-.222 5.53 5.53 0 0 1-.892-.356c-.327-.177-.64-.355-.936-.533-.328-.208-.64-.43-.937-.667-.327-.238-.654-.49-.981-.756a27.462 27.462 0 0 1-.892-.935 27.948 27.948 0 0 1-.937-.978c-.297-.386-.609-.77-.936-1.156a42.664 42.664 0 0 1-.892-1.202 25.53 25.53 0 0 1-.892-1.334c-.297-.445-.58-.904-.847-1.378-.297-.474-.58-.964-.848-1.467l-.803-1.512a20.476 20.476 0 0 1-.802-1.6 20.507 20.507 0 0 1-.714-1.69l-.714-1.69a41.949 41.949 0 0 1-.669-1.779 25.114 25.114 0 0 1-.58-1.778c-.207-.593-.4-1.201-.58-1.824-.148-.592-.296-1.2-.445-1.823a88.756 88.756 0 0 1-.446-1.867c-.119-.594-.238-1.202-.357-1.824a20.284 20.284 0 0 1-.267-1.868c-.09-.623-.164-1.23-.223-1.823l-.179-1.869V48.82c-.03-.563-.03-1.156 0-1.779l.09-1.734c.06-.563.148-1.127.267-1.689a28.394 28.394 0 0 1 .714-3.245 13.6 13.6 0 0 1 .535-1.557c.178-.503.372-.993.58-1.467.267-.474.52-.934.758-1.379.267-.474.55-.904.847-1.29.327-.415.669-.815 1.026-1.2.357-.414.713-.8 1.07-1.156.387-.356.803-.697 1.249-1.023.446-.296.907-.578 1.382-.845.476-.296.982-.563 1.517-.8a15.615 15.615 0 0 1 1.65-.623 18.736 18.736 0 0 1 1.829-.533 35.926 35.926 0 0 1 1.917-.4 45.871 45.871 0 0 1 2.096-.223c.685-.06 1.412-.089 2.186-.089h.089c.357 0 .698.015 1.026.045.476 0 .951.015 1.427.044.833.06 1.695.163 2.587.311l3.3 2.224v.089c.06.148.104.296.134.444l.178.445c.03.118.074.252.134.4l.178.356c.06.118.134.237.223.356.06.089.134.192.223.31.06.09.134.179.223.268.09.118.163.222.223.311.09.089.193.178.312.267.06.06.15.118.268.178a.673.673 0 0 0 .268.222c.089.059.193.118.312.178l.267.178c.119.03.223.058.313.089.118.058.223.104.312.133.089.03.193.059.312.089h.312a.5.5 0 0 0 .223.044h.357c.119 0 .223-.015.312-.044.119 0 .223-.015.312-.044a.989.989 0 0 1 .313-.045.564.564 0 0 1 .267-.133 4.4 4.4 0 0 0 .981-.667c.297-.238.52-.519.67-.845a3.03 3.03 0 0 0 .311-1.156c.03-.416-.015-.86-.133-1.334-.119-.475-.342-.994-.67-1.557A11.862 11.862 0 0 0 54.5 27.3a2.997 2.997 0 0 1-.491-.756 2.9 2.9 0 0 1-.312-.845 4.691 4.691 0 0 1-.179-.89c0-.295.03-.607.09-.933.029-.296.104-.607.223-.934.118-.296.252-.608.4-.934a8.57 8.57 0 0 1 .58-.844 3.43 3.43 0 0 1 .759-.845c.267-.267.564-.534.892-.8a6.316 6.316 0 0 1 1.07-.623c.387-.238.788-.43 1.204-.578a7.394 7.394 0 0 1 1.383-.4 6.735 6.735 0 0 1 1.026-.178c.297-.06.609-.09.936-.09l.535-.044c.417 0 .833.03 1.25.09a9.015 9.015 0 0 1 1.605.4c.535.148 1.026.37 1.472.666a5.6 5.6 0 0 1 1.337.979 7.08 7.08 0 0 1 1.16 1.156c.357.444.698.918 1.026 1.423.297.504.564 1.038.803 1.6.118.297.223.594.312.89.149.296.253.608.312.934.119.296.208.607.268.933.089.327.163.668.223 1.023.058.327.118.652.178.979.06.355.09.711.09 1.067.059.326.088.682.088 1.067v2.001l-.089.89a9.18 9.18 0 0 1-.134.889l-.178.889c-.059.207-.119.43-.178.667a5.22 5.22 0 0 1-.134.578l-.179.623c-.06.207-.133.4-.223.578-.06.207-.133.415-.223.622l-.178.623c-.09.178-.178.37-.268.578l-.267.622c-.09.208-.179.4-.268.578-.089.238-.178.46-.267.667-.09.208-.179.4-.268.578a6.148 6.148 0 0 0-.312.623l-4.728 9.16c-.089.178-.178.371-.267.578a3.587 3.587 0 0 0-.312.578l-.268.622a3.3 3.3 0 0 1-.223.578 2.838 2.838 0 0 0-.268.623c-.06.177-.133.37-.223.577a5.336 5.336 0 0 0-.223.622c-.06.178-.133.356-.223.535l-.178.621a9.462 9.462 0 0 1-.223.89 23.68 23.68 0 0 0-.178.89c-.06.267-.119.548-.179.844-.03.297-.059.578-.089.845 0 .178-.015.356-.045.533a3.077 3.077 0 0 0-.044.49v.578c0 .178.015.37.044.578 0 .178.016.355.045.533 0 .178.015.371.045.578.03.178.059.37.089.578.03.177.074.355.134.534.059.207.118.4.178.577.03.178.09.356.178.535.15.355.313.725.491 1.111.178.326.401.652.669.979.238.297.506.593.803.89.327.266.669.518 1.026.756h.044c.297.177.61.355.937.534h.044c.09.029.194.058.313.088.446.178.936.327 1.471.445.268.06.55.104.848.134l.892.088c1.03 3.725.138 7.756-2.676 12.099ZM50.932 57.095v.09l.044.088.09.178.044.045.045.133.178.178c0 .03.015.074.045.132l.089.09c.03.03.074.059.134.09a.535.535 0 0 0 .133.088l.09.09c.06.03.104.044.133.044.06.06.119.09.179.09l.178.09h.179l.178.088h.446c.03 0 .074-.015.134-.044.03 0 .06-.015.089-.045.059 0 .09-.015.09-.044a.298.298 0 0 0 .133-.134.557.557 0 0 0 0-.311.66.66 0 0 0-.178-.312.698.698 0 0 0-.134-.178 1.474 1.474 0 0 0-.223-.177.555.555 0 0 0-.223-.133 1.105 1.105 0 0 1-.268-.134.347.347 0 0 1-.134-.044.347.347 0 0 0-.133-.045h-.179c-.03-.029-.06-.044-.089-.044h-.401l-.134.044h-.223l-.179.09h-.133v-.003Zm.401-3.069-.09.09-.088.088-.09.134-.089.089a.53.53 0 0 1-.089.133l-.09.178.045.044.134.045c.06 0 .119.03.179.09h.089l.134.088.267.044c.06 0 .119.015.179.045h.446a.5.5 0 0 0 .223-.045c.06 0 .104-.015.133-.044a.5.5 0 0 0 .223-.045c.06-.03.134-.059.223-.09.06-.029.119-.058.179-.089a.706.706 0 0 0 .178-.133.502.502 0 0 0 .134-.089l.134-.133a.531.531 0 0 1 .134-.09c.029-.058.06-.088.089-.088 0-.06.015-.104.044-.134.03-.029.045-.073.045-.133v-.223a.4.4 0 0 0-.223-.266.882.882 0 0 0-.401-.09.347.347 0 0 0-.134-.044h-.446a.986.986 0 0 1-.312.045c-.09.03-.194.059-.313.089a.508.508 0 0 0-.312.134.488.488 0 0 0-.134.09.482.482 0 0 0-.133.089.502.502 0 0 0-.134.089l-.134.132Zm2.72-4.98a.404.404 0 0 1-.178-.044h-.178a.503.503 0 0 0-.223.044h-.223c-.09.03-.179.059-.268.09-.089.03-.164.059-.223.089l-.267.133a1.02 1.02 0 0 1-.313.133l-.223.222c-.089.059-.178.12-.267.178-.06.059-.119.12-.179.178l-.178.178a.541.541 0 0 0-.134.222.7.7 0 0 1-.134.177 2.12 2.12 0 0 0-.089.222.689.689 0 0 1-.134.178c0 .09-.015.164-.044.223a.496.496 0 0 0-.045.222l-.089.178-.09.444v.267h.714l.179-.043h.223a.503.503 0 0 1 .223-.045.4.4 0 0 1 .178-.044l.268-.09c.06-.03.134-.059.223-.09.06-.028.118-.058.178-.089.09-.059.163-.103.223-.132.059-.06.134-.12.223-.178.09-.059.163-.12.223-.178.09-.09.163-.178.223-.267a.791.791 0 0 0 .223-.222.557.557 0 0 0 .134-.223 1.38 1.38 0 0 1 .178-.222c.03-.089.06-.164.09-.222a.43.43 0 0 0 .089-.223c.03-.089.06-.163.089-.222v-.4a1.1 1.1 0 0 0-.134-.267c-.09-.058-.178-.118-.267-.177Zm-6.02 9.65v.354c0 .059.03.12.089.178 0 .03.03.045.09.045l.088.044h.045c.03.03.06.045.09.045h.044a.341.341 0 0 1 .133-.045c.03-.03.09-.044.179-.044.03 0 .06-.016.09-.045a.398.398 0 0 1 .177-.044c.06-.06.105-.09.134-.09.06-.059.105-.09.134-.09.09-.058.149-.102.178-.133a.7.7 0 0 1 .134-.177c.06 0 .09-.03.09-.09.06-.029.089-.058.089-.088.06-.059.089-.104.089-.134a.477.477 0 0 0 .089-.132.34.34 0 0 1 .045-.134c.03-.029.044-.058.044-.089l.134-.354v-.445h-.312l-.09.044h-.133l-.223.045a.341.341 0 0 1-.134.045c-.06 0-.104.015-.134.045-.03.03-.074.044-.134.044a.502.502 0 0 0-.133.09l-.09.089a.531.531 0 0 1-.133.089.294.294 0 0 0-.134.133l-.134.133a.286.286 0 0 1-.134.133c0 .059-.03.12-.089.178 0 .03-.03.074-.09.133v.133a.507.507 0 0 0-.088.133Zm-1.115-4.358a.502.502 0 0 0-.134.089l-.178.09a.531.531 0 0 1-.134.088l-.09.09c0 .03-.015.074-.044.133-.03 0-.045.029-.045.09v.178c0 .059.016.103.045.133.03.03.045.058.045.089.06.03.104.06.133.09.06.029.105.058.134.088.03.03.074.06.134.09a.4.4 0 0 1 .178.045c.06.03.119.044.179.044a.4.4 0 0 1 .178.045.5.5 0 0 0 .223.044h.58a.4.4 0 0 0 .178-.044.398.398 0 0 1 .179-.045c.06 0 .104-.015.133-.044a.4.4 0 0 1 .179-.045l.09-.09a.502.502 0 0 0 .133-.089.531.531 0 0 1 .134-.09l.089-.046.09-.089a1.283 1.283 0 0 0 .267-.222l.044-.044-.044-.045c-.03-.03-.06-.044-.09-.044a.686.686 0 0 0-.178-.133l-.178-.178c-.06 0-.105-.015-.134-.044l-.134-.09a.351.351 0 0 0-.134-.044l-.178-.09h-.134a.341.341 0 0 0-.134-.045.4.4 0 0 0-.178-.044h-.401a.743.743 0 0 1-.223.044.721.721 0 0 1-.223.046.404.404 0 0 0-.179.044.75.75 0 0 1-.178.045Zm-1.07-4.047h-.357a.503.503 0 0 0-.223.045.748.748 0 0 0-.223.044l-.179.09c-.06 0-.104.03-.134.089a.665.665 0 0 0-.223.267.544.544 0 0 0 0 .312c0 .058.016.118.045.177a.4.4 0 0 1 .045.178c.06.058.104.119.133.177.03.06.074.12.134.178l.179.178c.089.03.164.074.223.133.089.058.178.119.267.178.06.058.15.119.268.177.089.03.178.074.267.133.09.06.193.104.313.133.06.03.133.06.223.09a.83.83 0 0 0 .267.045c.059 0 .134.015.223.044h.714a.503.503 0 0 1 .223-.044.39.39 0 0 0 .178-.046l.624-.132.223-.134v-.044l-.044-.089-.045-.133-.044-.09-.09-.133a.515.515 0 0 0-.089-.133c-.06-.059-.089-.118-.089-.177a.698.698 0 0 1-.134-.178l-.134-.133a9.958 9.958 0 0 0-.178-.178.68.68 0 0 1-.134-.177.685.685 0 0 0-.178-.134 1.476 1.476 0 0 1-.223-.177 1.894 1.894 0 0 0-.223-.09.307.307 0 0 0-.223-.09 2.456 2.456 0 0 0-.312-.132 5.448 5.448 0 0 0-.312-.09 4.692 4.692 0 0 0-.313-.089h-.267a.39.39 0 0 0-.179-.045ZM63.91 72.035a4.552 4.552 0 0 0-1.115-.133 6.03 6.03 0 0 0-1.472.178 6.78 6.78 0 0 0-1.338.577c-.386.238-.758.52-1.115.845a7.31 7.31 0 0 0-.847 1.112c-.238.415-.431.86-.58 1.334a6.027 6.027 0 0 0-.178 1.467c0 .503.06.993.178 1.467.149.475.342.92.58 1.334.238.386.52.756.847 1.111a7.26 7.26 0 0 0 1.115.845c.417.238.863.43 1.338.578.476.119.966.178 1.472.178.505 0 .996-.06 1.472-.178a6.816 6.816 0 0 0 1.338-.578 7.372 7.372 0 0 0 1.115-.845c.327-.355.609-.725.847-1.111.238-.415.43-.86.58-1.334a6.02 6.02 0 0 0 .178-1.467c0-.386-.045-.757-.134-1.112a4.078 4.078 0 0 0-.312-1.022 3.988 3.988 0 0 0-.49-.934 9.382 9.382 0 0 0-.67-.845 9.245 9.245 0 0 0-.847-.667 4.058 4.058 0 0 0-.936-.49 4.143 4.143 0 0 0-1.026-.31Z" fill="#FFF"/></g></svg>