<svg viewBox="0 0 90 90" xmlns="http://www.w3.org/2000/svg"><g fill="none" fill-rule="evenodd"><path fill="#0054AA" d="M0 0h90v90H0z"/><path d="M36.82 14c-1.19 0-2.155.98-2.156 2.19v15.344H74.54l-18.16-17.53L36.82 14M76 36.176a2.21 2.21 0 0 0-.63-1.548 2.13 2.13 0 0 0-1.525-.638H58.754v40.539l17.239-18.467L76 36.176M54.181 76c1.188-.003 2.149-.983 2.149-2.19V58.466H16.457l18.156 17.529L54.18 76M15 53.827c0 .58.227 1.138.63 1.549.404.41.952.641 1.524.641h15.092V15.476L15.002 33.937 15 53.827" fill="#FFF" fill-rule="nonzero"/></g></svg>