<svg viewBox="0 0 90 90" xmlns="http://www.w3.org/2000/svg" xmlns:xlink="http://www.w3.org/1999/xlink"><defs><linearGradient x1="50%" y1="104.869%" x2="50%" y2="-4.868%" id="a"><stop offset="0%"/><stop stop-opacity="0" offset="100%"/></linearGradient><linearGradient x1="89.013%" y1="112.166%" x2="0%" y2="-11.705%" id="h"><stop offset="0%"/><stop stop-opacity="0" offset="100%"/></linearGradient><linearGradient x1="69.708%" y1="30.355%" x2="0%" y2="99.679%" id="i"><stop stop-color="#FFF" offset="0%"/><stop stop-color="#FFF" stop-opacity="0" offset="100%"/></linearGradient><linearGradient x1="60.612%" y1="3.513%" x2="67.247%" y2="96.487%" id="j"><stop stop-color="#FFF" offset="0%"/><stop stop-color="#FFF" stop-opacity="0" offset="100%"/></linearGradient><linearGradient x1="41.796%" y1="50%" x2="99.95%" y2="11.847%" id="k"><stop stop-color="#FFF" offset="0%"/><stop stop-color="#FFF" stop-opacity="0" offset="100%"/></linearGradient><linearGradient x1="58.048%" y1="33.134%" x2="31.689%" y2="93.145%" id="l"><stop stop-color="#FFF" offset="0%"/><stop stop-color="#FFF" stop-opacity="0" offset="100%"/></linearGradient><linearGradient x1="85.877%" y1="0%" x2="1.712%" y2="100%" id="m"><stop stop-color="#FFF" offset="0%"/><stop stop-color="#FFF" stop-opacity="0" offset="100%"/></linearGradient><linearGradient x1="98.046%" y1="0%" x2="26.852%" y2="100%" id="n"><stop stop-color="#FFF" offset="0%"/><stop stop-color="#FFF" stop-opacity="0" offset="100%"/></linearGradient><linearGradient x1="87.25%" y1="1.874%" x2="24.383%" y2="88.424%" id="o"><stop stop-color="#FFF" offset="0%"/><stop stop-color="#FFF" stop-opacity="0" offset="100%"/></linearGradient><linearGradient x1="66.197%" y1="0%" x2="26.255%" y2="100%" id="p"><stop stop-color="#FFF" offset="0%"/><stop stop-color="#FFF" stop-opacity="0" offset="100%"/></linearGradient><linearGradient x1="120.922%" y1="116.017%" x2="0%" y2="15.467%" id="q"><stop offset="0%"/><stop stop-opacity="0" offset="100%"/></linearGradient><linearGradient x1="59.728%" y1="-55.657%" x2="36.838%" y2="75.34%" id="r"><stop offset="0%"/><stop stop-opacity="0" offset="100%"/></linearGradient><linearGradient x1="21.333%" y1="-51.3%" x2="78.667%" y2="78.166%" id="s"><stop offset="0%"/><stop stop-opacity="0" offset="100%"/></linearGradient><linearGradient x1="-9.417%" y1="-43.687%" x2="85.164%" y2="50%" id="t"><stop offset="0%"/><stop stop-opacity="0" offset="100%"/></linearGradient><linearGradient x1="-116.218%" y1="25.333%" x2="98.649%" y2="49.993%" id="u"><stop offset="0%"/><stop stop-opacity="0" offset="100%"/></linearGradient><linearGradient x1="-55.219%" y1="-86.244%" x2="85.457%" y2="50.001%" id="v"><stop offset="0%"/><stop stop-opacity="0" offset="100%"/></linearGradient><linearGradient x1="-14.171%" y1="0%" x2="63.804%" y2="100%" id="w"><stop offset="0%"/><stop stop-opacity="0" offset="100%"/></linearGradient><linearGradient x1="-39.724%" y1="-64.941%" x2="99.386%" y2="74.656%" id="x"><stop offset="0%"/><stop stop-opacity="0" offset="100%"/></linearGradient><linearGradient x1="88.288%" y1="114.572%" x2=".929%" y2="-14.092%" id="G"><stop offset="0%"/><stop stop-opacity="0" offset="100%"/></linearGradient><linearGradient x1="68.741%" y1="30.228%" x2="2.453%" y2="100%" id="H"><stop stop-color="#FFF" offset="0%"/><stop stop-color="#FFF" stop-opacity="0" offset="100%"/></linearGradient><linearGradient x1="60.612%" y1=".799%" x2="67.247%" y2="99.201%" id="I"><stop stop-color="#FFF" offset="0%"/><stop stop-color="#FFF" stop-opacity="0" offset="100%"/></linearGradient><linearGradient x1="42.249%" y1="50%" x2="97.195%" y2="11.847%" id="J"><stop stop-color="#FFF" offset="0%"/><stop stop-color="#FFF" stop-opacity="0" offset="100%"/></linearGradient><linearGradient x1="58.048%" y1="32.149%" x2="31.689%" y2="95.663%" id="K"><stop stop-color="#FFF" offset="0%"/><stop stop-color="#FFF" stop-opacity="0" offset="100%"/></linearGradient><linearGradient x1="83.898%" y1="0%" x2="4.375%" y2="100%" id="L"><stop stop-color="#FFF" offset="0%"/><stop stop-color="#FFF" stop-opacity="0" offset="100%"/></linearGradient><linearGradient x1="95.397%" y1="0%" x2="28.129%" y2="100%" id="M"><stop stop-color="#FFF" offset="0%"/><stop stop-color="#FFF" stop-opacity="0" offset="100%"/></linearGradient><linearGradient x1="86.566%" y1="0%" x2="24.853%" y2="89.921%" id="N"><stop stop-color="#FFF" offset="0%"/><stop stop-color="#FFF" stop-opacity="0" offset="100%"/></linearGradient><linearGradient x1="65.304%" y1="0%" x2="27.565%" y2="100%" id="O"><stop stop-color="#FFF" offset="0%"/><stop stop-color="#FFF" stop-opacity="0" offset="100%"/></linearGradient><linearGradient x1="120.922%" y1="119.871%" x2="0%" y2="13.451%" id="P"><stop offset="0%"/><stop stop-opacity="0" offset="100%"/></linearGradient><linearGradient x1="59.192%" y1="-55.657%" x2="37.564%" y2="75.34%" id="Q"><stop offset="0%"/><stop stop-opacity="0" offset="100%"/></linearGradient><linearGradient x1="21.333%" y1="-57.213%" x2="78.667%" y2="79.81%" id="R"><stop offset="0%"/><stop stop-opacity="0" offset="100%"/></linearGradient><linearGradient x1="-6.14%" y1="-43.687%" x2="83.224%" y2="50%" id="S"><stop offset="0%"/><stop stop-opacity="0" offset="100%"/></linearGradient><linearGradient x1="-107.051%" y1="25.333%" x2="95.966%" y2="49.993%" id="T"><stop offset="0%"/><stop stop-opacity="0" offset="100%"/></linearGradient><linearGradient x1="-49.416%" y1="-86.244%" x2="83.502%" y2="50.001%" id="U"><stop offset="0%"/><stop stop-opacity="0" offset="100%"/></linearGradient><linearGradient x1="-10.632%" y1="0%" x2="63.043%" y2="100%" id="V"><stop offset="0%"/><stop stop-opacity="0" offset="100%"/></linearGradient><linearGradient x1="-34.776%" y1="-64.941%" x2="96.662%" y2="74.656%" id="W"><stop offset="0%"/><stop stop-opacity="0" offset="100%"/></linearGradient><linearGradient x1="-128.032%" y1="151.746%" x2="-51.278%" y2="229.708%" id="X"><stop stop-color="#F9E295" offset="0%"/><stop stop-color="#F7DD84" offset="12.5%"/><stop stop-color="#FFF" offset="20.581%"/><stop stop-color="#F4CE51" offset="30.113%"/><stop stop-color="#F9E7AA" offset="34.12%"/><stop stop-color="#EFBB0E" offset="100%"/></linearGradient><linearGradient x1="47.937%" y1="52.072%" x2="30.308%" y2="86.293%" id="Z"><stop stop-color="#2D3335" offset="0%"/><stop stop-color="#4C464A" offset="50%"/><stop stop-color="#384042" offset="100%"/></linearGradient><linearGradient x1="63.633%" y1="63.66%" x2="36.331%" y2="36.357%" id="aa"><stop stop-color="#2D3335" offset="0%"/><stop stop-color="#4C464A" offset="50%"/><stop stop-color="#384042" offset="100%"/></linearGradient><linearGradient x1="40.376%" y1="40.38%" x2="59.624%" y2="59.627%" id="ab"><stop stop-color="#F9E295" offset="0%"/><stop stop-color="#F7DD84" offset="12.5%"/><stop stop-color="#FFF" offset="20.581%"/><stop stop-color="#F4CE51" offset="30.113%"/><stop stop-color="#F9E7AA" offset="34.12%"/><stop stop-color="#EFBB0E" offset="100%"/></linearGradient><linearGradient x1="73.488%" y1="50.02%" x2="49.995%" y2="26.526%" id="ac"><stop stop-color="#2D3335" offset="0%"/><stop stop-color="#4C464A" offset="50%"/><stop stop-color="#384042" offset="100%"/></linearGradient><linearGradient x1="72.655%" y1="121.332%" x2="49.995%" y2="26.526%" id="ad"><stop offset="0%"/><stop stop-opacity="0" offset="100%"/></linearGradient><linearGradient x1="12.081%" y1="4.919%" x2="69.033%" y2="113.83%" id="ae"><stop stop-color="#FFF" offset="0%"/><stop stop-color="#FFF" stop-opacity="0" offset="100%"/></linearGradient><linearGradient x1="66.875%" y1="69.952%" x2="56.821%" y2="14.111%" id="af"><stop stop-color="#FFF" offset="0%"/><stop stop-color="#FFF" stop-opacity="0" offset="100%"/></linearGradient><path d="M0 .55s1.834 3.18 2.874 6.787c1.039 3.607 1.528 6.236 1.528 6.236s-1.345 3.119-2.017 6.053a160.292 160.292 0 0 1-1.407 5.625s1.407 3.913 2.262 7.337c.856 3.424.918 5.931.918 5.931s-.979 2.507-1.835 5.93c-.856 3.425-1.222 7.521-1.222 7.521s2.262-.489 6.97.306c4.708.795 7.887 1.467 7.887 1.467s3.118-.672 5.87-1.528c2.75-.856 3.974-1.59 3.974-1.59s1.345.122 5.502 1.529c4.158 1.406 7.154 2.078 7.154 2.078s3.18-.672 6.359-1.406c3.179-.734 6.48-1.956 6.48-1.956s-.183-1.223 1.04-5.992c1.223-4.77 2.14-6.848 2.14-6.848s-.122-1.1-.917-4.83-2.446-7.276-2.446-7.276.428-2.568 1.65-5.809c1.224-3.24 2.508-6.542 2.508-6.542s-1.162-3.73-1.834-7.275C52.764 2.75 51.42 0 51.42 0s-5.93 2.201-7.765 2.568c-1.834.367-5.136 1.284-5.136 1.284s-2.384-1.04-5.38-2.079C30.143.733 25.863.428 25.863.428s-.795.856-5.38 1.957c-4.586 1.1-6.726 1.406-6.726 1.406S9.232 1.59 6.053.978C2.873.367.183.49 0 .55Z" id="b"/><path d="M0 .55s1.834 3.18 2.874 6.787c1.039 3.607 1.528 6.236 1.528 6.236s-1.345 3.119-2.017 6.053a160.292 160.292 0 0 1-1.407 5.625s1.407 3.913 2.262 7.337c.856 3.424.918 5.931.918 5.931s-.979 2.507-1.835 5.93c-.856 3.425-1.222 7.521-1.222 7.521s2.262-.489 6.97.306c4.708.795 7.887 1.467 7.887 1.467s3.118-.672 5.87-1.528c2.75-.856 3.974-1.59 3.974-1.59s1.345.122 5.502 1.529c4.158 1.406 7.154 2.078 7.154 2.078s3.18-.672 6.359-1.406c3.179-.734 6.48-1.956 6.48-1.956s-.183-1.223 1.04-5.992c1.223-4.77 2.14-6.848 2.14-6.848s-.122-1.1-.917-4.83-2.446-7.276-2.446-7.276.428-2.568 1.65-5.809c1.224-3.24 2.508-6.542 2.508-6.542s-1.162-3.73-1.834-7.275C52.764 2.75 51.42 0 51.42 0s-5.93 2.201-7.765 2.568c-1.834.367-5.136 1.284-5.136 1.284s-2.384-1.04-5.38-2.079C30.143.733 25.863.428 25.863.428s-.795.856-5.38 1.957c-4.586 1.1-6.726 1.406-6.726 1.406S9.232 1.59 6.053.978C2.873.367.183.49 0 .55Z" id="d"/><path d="M0 .55s1.834 3.18 2.874 6.787c1.039 3.607 1.528 6.236 1.528 6.236s-1.345 3.119-2.017 6.053a160.292 160.292 0 0 1-1.407 5.625s1.407 3.913 2.262 7.337c.856 3.424.918 5.931.918 5.931s-.979 2.507-1.835 5.93c-.856 3.425-1.222 7.521-1.222 7.521s2.262-.489 6.97.306c4.708.795 7.887 1.467 7.887 1.467s3.118-.672 5.87-1.528c2.75-.856 3.974-1.59 3.974-1.59s1.345.122 5.502 1.529c4.158 1.406 7.154 2.078 7.154 2.078s3.18-.672 6.359-1.406c3.179-.734 6.48-1.956 6.48-1.956s-.183-1.223 1.04-5.992c1.223-4.77 2.14-6.848 2.14-6.848s-.122-1.1-.917-4.83-2.446-7.276-2.446-7.276.428-2.568 1.65-5.809c1.224-3.24 2.508-6.542 2.508-6.542s-1.162-3.73-1.834-7.275C52.764 2.75 51.42 0 51.42 0s-5.93 2.201-7.765 2.568c-1.834.367-5.136 1.284-5.136 1.284s-2.384-1.04-5.38-2.079C30.143.733 25.863.428 25.863.428s-.795.856-5.38 1.957c-4.586 1.1-6.726 1.406-6.726 1.406S9.232 1.59 6.053.978C2.873.367.183.49 0 .55Z" id="f"/><path d="M4.065 22.76c5.094 4.95 13.355 4.717 18.45-.522 5.094-5.239 5.094-13.5 0-18.45-5.095-4.95-13.356-4.717-18.45.521-5.095 5.24-5.095 13.5 0 18.45Z" id="y"/><path d="M0 .709s2.297 4.097 3.6 8.745c1.3 4.648 1.913 8.036 1.913 8.036s-1.685 4.018-2.527 7.8a211.431 211.431 0 0 1-1.762 7.247s1.762 5.042 2.834 9.454c1.072 4.412 1.148 7.642 1.148 7.642s-1.225 3.23-2.297 7.642c-1.072 4.412-1.532 9.69-1.532 9.69s2.834-.63 8.73.394c5.897 1.024 9.88 1.891 9.88 1.891s3.905-.867 7.35-1.97c3.447-1.102 4.979-2.048 4.979-2.048s1.684.158 6.892 1.97c5.207 1.812 8.96 2.678 8.96 2.678s3.982-.866 7.964-1.812c3.982-.945 8.117-2.52 8.117-2.52s-.23-1.576 1.302-7.721c1.532-6.146 2.68-8.824 2.68-8.824s-.153-1.418-1.148-6.224c-.996-4.806-3.064-9.375-3.064-9.375s.537-3.309 2.068-7.484c1.532-4.176 3.14-8.43 3.14-8.43s-1.455-4.806-2.298-9.375C66.088 3.545 64.403 0 64.403 0s-7.428 2.836-9.725 3.309c-2.298.473-6.433 1.654-6.433 1.654s-2.987-1.339-6.739-2.678C37.754.945 32.393.55 32.393.55s-.995 1.103-6.739 2.522C19.911 4.49 17.23 4.885 17.23 4.885S11.564 2.048 7.581 1.26C3.6.473.23.63 0 .709Z" id="A"/><path d="M0 .709s2.297 4.097 3.6 8.745c1.3 4.648 1.913 8.036 1.913 8.036s-1.685 4.018-2.527 7.8a211.431 211.431 0 0 1-1.762 7.247s1.762 5.042 2.834 9.454c1.072 4.412 1.148 7.642 1.148 7.642s-1.225 3.23-2.297 7.642c-1.072 4.412-1.532 9.69-1.532 9.69s2.834-.63 8.73.394c5.897 1.024 9.88 1.891 9.88 1.891s3.905-.867 7.35-1.97c3.447-1.102 4.979-2.048 4.979-2.048s1.684.158 6.892 1.97c5.207 1.812 8.96 2.678 8.96 2.678s3.982-.866 7.964-1.812c3.982-.945 8.117-2.52 8.117-2.52s-.23-1.576 1.302-7.721c1.532-6.146 2.68-8.824 2.68-8.824s-.153-1.418-1.148-6.224c-.996-4.806-3.064-9.375-3.064-9.375s.537-3.309 2.068-7.484c1.532-4.176 3.14-8.43 3.14-8.43s-1.455-4.806-2.298-9.375C66.088 3.545 64.403 0 64.403 0s-7.428 2.836-9.725 3.309c-2.298.473-6.433 1.654-6.433 1.654s-2.987-1.339-6.739-2.678C37.754.945 32.393.55 32.393.55s-.995 1.103-6.739 2.522C19.911 4.49 17.23 4.885 17.23 4.885S11.564 2.048 7.581 1.26C3.6.473.23.63 0 .709Z" id="C"/><path d="M0 .709s2.297 4.097 3.6 8.745c1.3 4.648 1.913 8.036 1.913 8.036s-1.685 4.018-2.527 7.8a211.431 211.431 0 0 1-1.762 7.247s1.762 5.042 2.834 9.454c1.072 4.412 1.148 7.642 1.148 7.642s-1.225 3.23-2.297 7.642c-1.072 4.412-1.532 9.69-1.532 9.69s2.834-.63 8.73.394c5.897 1.024 9.88 1.891 9.88 1.891s3.905-.867 7.35-1.97c3.447-1.102 4.979-2.048 4.979-2.048s1.684.158 6.892 1.97c5.207 1.812 8.96 2.678 8.96 2.678s3.982-.866 7.964-1.812c3.982-.945 8.117-2.52 8.117-2.52s-.23-1.576 1.302-7.721c1.532-6.146 2.68-8.824 2.68-8.824s-.153-1.418-1.148-6.224c-.996-4.806-3.064-9.375-3.064-9.375s.537-3.309 2.068-7.484c1.532-4.176 3.14-8.43 3.14-8.43s-1.455-4.806-2.298-9.375C66.088 3.545 64.403 0 64.403 0s-7.428 2.836-9.725 3.309c-2.298.473-6.433 1.654-6.433 1.654s-2.987-1.339-6.739-2.678C37.754.945 32.393.55 32.393.55s-.995 1.103-6.739 2.522C19.911 4.49 17.23 4.885 17.23 4.885S11.564 2.048 7.581 1.26C3.6.473.23.63 0 .709Z" id="E"/><radialGradient cx="49.997%" cy="49.999%" fx="49.997%" fy="49.999%" r="49.999%" gradientTransform="rotate(45.001 .5 .5)" id="Y"><stop stop-color="#D0E9F2" stop-opacity="0" offset="0%"/><stop stop-color="#D0E9F2" stop-opacity="0" offset="83.933%"/><stop stop-color="#D0E9F2" stop-opacity=".282" offset="94.309%"/><stop stop-color="#D0E9F2" offset="100%"/></radialGradient></defs><g fill="none" fill-rule="evenodd"><path d="M0 .554s1.834 2.277 2.874 5.33c1.039 3.055 1.528 5.28 1.528 5.28s-1.345 2.64-2.017 5.125C1.712 18.773.978 21.465.978 21.465s1.407 3.312 2.262 6.211c.856 2.899.918 4.607.918 4.607s-.979 2.122-1.835 5.02c-.856 2.899-1.222 6.367-1.222 6.367s2.262-.414 6.97.259 7.887 1.242 7.887 1.242 3.118-.57 5.87-1.294c2.75-.725 3.974-1.346 3.974-1.346s1.345.104 5.502 1.294c4.158 1.19 7.154 1.76 7.154 1.76s3.18-.57 6.359-1.19c3.179-.622 6.48-1.657 6.48-1.657s-.183-1.035 1.04-5.072c1.223-4.038 2.14-5.797 2.14-5.797s-.122-.518-.917-3.675c-.795-3.158-2.446-6.16-2.446-6.16s.428-2.588 1.65-5.331c1.224-2.744 2.508-5.539 2.508-5.539s-1.162-3.157-1.834-6.16c-.674-3-2.018-4.915-2.018-4.915s-5.93 1.863-7.765 2.174c-1.834.31-5.136 1.087-5.136 1.087s-2.384-.88-5.38-1.76S25.863.45 25.863.45s-.795.725-5.38 1.656c-4.586.932-6.726 1.19-6.726 1.19S9.232 1.434 6.053.917C2.873.398.183.502 0 .554Z" transform="translate(15.897 26.283)" fill="url(#a)" fill-rule="nonzero" opacity=".5"/><path d="M15.897 17.05s1.834 3.18 2.873 6.787c1.04 3.607 1.529 6.236 1.529 6.236s-1.345 3.119-2.018 6.053c-.672 2.935-1.406 5.625-1.406 5.625s1.406 3.913 2.262 7.337c.856 3.424.917 5.931.917 5.931s-.978 2.507-1.834 5.93c-.856 3.425-1.223 7.521-1.223 7.521s2.263-.489 6.97.306c4.708.795 7.888 1.467 7.888 1.467s3.118-.672 5.87-1.528c2.75-.856 3.973-1.59 3.973-1.59s1.345.122 5.503 1.529c4.158 1.406 7.154 2.078 7.154 2.078s3.179-.672 6.358-1.406c3.18-.734 6.481-1.956 6.481-1.956s-.183-1.223 1.04-5.992c1.223-4.77 2.14-6.848 2.14-6.848s-.123-1.1-.917-4.83c-.795-3.73-2.446-7.276-2.446-7.276s.428-2.568 1.65-5.809c1.224-3.24 2.507-6.542 2.507-6.542s-1.161-3.73-1.834-7.275c-.672-3.547-2.017-6.298-2.017-6.298s-5.931 2.201-7.765 2.568c-1.835.367-5.136 1.284-5.136 1.284s-2.385-1.04-5.38-2.079c-2.997-1.04-7.276-1.345-7.276-1.345s-.795.856-5.38 1.957c-4.587 1.1-6.726 1.406-6.726 1.406s-4.525-2.201-7.704-2.813c-3.18-.611-5.87-.489-6.053-.428Z" fill="#CEEEAB" fill-rule="nonzero"/><g transform="translate(15.897 18.946)"><mask id="c" fill="#fff"><use xlink:href="#b"/></mask><g mask="url(#c)" fill="#A6DD8B" fill-rule="nonzero"><path d="m24.885-3.546-1.04 1.712c-.183 2.2-.55 3.363-2.079 4.035-1.528.673-2.996.856-2.69 1.834.306.979 3.18 2.263 3.485 3.18.306.917 2.018.428 2.69 1.712.673 1.284.49 3.73-.917 4.218-1.406.49-4.28.123-4.952 2.324-.673 2.2-1.162 2.568-2.201 3.118-1.04.55-1.773 2.568-.856 4.035.917 1.468 2.996-.305 3.668-1.59.673-1.283 1.773-2.14 1.773-2.14h5.809l14.43-.427.794-.917s.795.978.672 2.14c-.122 1.161-.917 3.607.062 4.218.978.612 4.769-.489 5.87-1.712 1.1-1.223-1.163-6.909-2.569-7.214-1.406-.306-4.524-.428-4.157-1.712.366-1.284 2.873 1.1 4.218.795 1.345-.306 4.097-5.136 2.935-6.176-1.162-1.04-5.93-1.284-6.297-1.956-.367-.673 5.135-1.957 5.441-2.69.306-.734-.611-1.774-1.528-2.08-.917-.305-3.424 3.975-5.136 3.853-1.712-.123-4.892 1.406-4.219 2.812s-1.467 2.69-3.546 1.59c-2.079-1.1-6.053-3.18-5.32-5.87.734-2.69 5.259-4.585 5.259-4.585l-9.6-2.507Zm-3.317 26.222c-.39.037-1.093 1.147-1.208 1.72-.122.61-.795 1.65-.856 2.995-.061 1.345 1.162 1.651 2.14 1.59.978-.061.673-1.65.49-3.668-.062 0-.123-2.507-.49-2.63-.023-.007-.05-.01-.076-.007ZM44.244 35.31c-1.55.071-1.621 1.825-1.812 2.17-.306.55.55 3.362.49 4.402-.062 1.04-1.162 1.284-2.324 2.384-1.162 1.1.122 3.913 2.751 7.582l10.944.306-.244-8.56s1.162-1.04-5.075-5.931c-2.338-1.834-3.8-2.397-4.73-2.353ZM7.567 39.353c-.986-.027-2.026 1.396-2.37 1.856-.366.49-1.528 1.223-4.157 2.324l-3.546 8.376 12.962 1.04s.428-2.69-1.04-3.853c-1.467-1.161-4.218-1.406-4.463-3.24-.245-1.834 2.262-2.446 3.363-3.485 1.1-1.04.489-2.751-.55-2.996a.912.912 0 0 0-.2-.022Z"/></g></g><path d="M52.467 34.926c-1.165-.003-2.209.237-2.82.772-1.957 1.712-8.56.184-11.862 1.712-3.301 1.529-3.24 9.294-3.607 10.883-.367 1.59-4.28 5.075-4.891 5.748-.612.672-3.24 1.773-4.77 2.079-1.528.305-3.118 1.773-3.79 2.69-.494.675-1.811 1.577-2.476 2.01-.012.044-.02.086-.03.13-.034.13-.061.264-.093.398 1.218-.393 2.735-2 4.066-3.333 1.529-1.529 4.892-1.895 6.787-2.813 1.895-.917 3.485-4.83 6.481-5.808 2.996-.978 5.197 2.874 5.93 4.524.734 1.651.429 3.119.918 4.158.489 1.04 2.69 2.874 2.812 3.302.123.428-1.223 1.59-1.528 2.079-.306.489-2.568 1.711-2.874 2.14-.237.33-.47 1.655-.565 2.254.1-.041.184-.075.274-.115.12-.618.372-1.731.72-2.078.488-.49 2.75-1.1 3.056-2.08.306-.977 1.712-1.589 1.712-1.589s.673.978 3.913 3.424c2.16 1.631 3.12 3.798 3.524 5.067.164.042.375.1.497.13-.299-1.056-1.184-3.972-2.187-5.075-1.222-1.345-4.524-2.629-5.563-5.38-1.04-2.751-5.992-8.376-4.28-9.844 1.712-1.467 4.035-.978 6.97 1.834 2.935 2.813 11.31 1.407 14.123.917 2.434-.423 5.095 3.64 5.848 6.367.144-.512.274-.979.403-1.407a7.544 7.544 0 0 1-1.298-2.025c-.917-2.079-2.935-3.24-2.935-3.24s2.14-1.223 3.607-1.896c.397-.18.737-.41 1.025-.65-.039-.188-.063-.306-.107-.511l-.022-.108c-1.167 1.36-4.706 2.353-5.298 2.676-.672.367-4.463.733-8.743 1.1-4.28.367-6.542-1.834-8.376-3.607-1.835-1.773-3.18-8.804-.734-9.294 2.446-.489 4.891 3.363 7.337 4.158 2.446.795 5.258-3.852 4.83-6.603-.293-1.892-3.424-3.088-5.984-3.096ZM39.42 38.175c.311 0 1.434.39 1.605.58.55.612.489 1.774 0 1.957-.49.183-3.118 1.956-2.568 3.485.55 1.529.428 4.402-.856 4.402s-1.957 0-2.446-.611c-.489-.612-.489-2.935 0-4.83.49-1.896.856-3.669 1.957-4.464.756-.546 1.621-.52 2.308-.52Zm3.324 17.876c.049.003.467.859 1.154 1.72.734.916.795 2.017.795 2.017s-1.04-1.162-1.467-1.956c-.428-.795-.49-1.774-.49-1.774 0-.007.006-.007.008-.007Z" fill="#AAC3E7" fill-rule="nonzero"/><path d="M43.716 31.724c1.529.122 2.996-.55 2.63-1.59-.368-1.039-3.058-1.773-3.241-.733-.184 1.04.489 2.568.611 2.323Zm-3.424-3.791c-2.079-1.345-2.079-1.773-1.712-1.956.367-.184 2.507 1.223 3.118 1.956.612.734-.55.49-1.406 0Z" stroke="#6D7F42" stroke-width=".75" opacity=".387" stroke-linecap="round" stroke-linejoin="round"/><g transform="translate(15.897 18.946)"><mask id="e" fill="#fff"><use xlink:href="#d"/></mask><g mask="url(#e)" opacity=".387" stroke="#6D7F42" stroke-width=".75"><path d="M1.65 32.1c8.071-.612 9.355-.857 8.866-2.508-.489-1.65-2.14-5.747-5.625-5.502-3.485.244-5.564-1.651-5.564-1.651" stroke-linecap="round" stroke-linejoin="round"/><path d="M2.079 38.458c4.463-2.446 7.031-2.079 8.56-2.813 1.528-.733 3.24-1.406 3.851-2.323.612-.917 1.407-2.812 1.407-4.402 0-1.59-.856-8.805.795-10.639 1.65-1.834 4.218-6.358 6.358-5.686 2.14.673 2.996 2.385 5.38 2.323 2.385-.06 5.32-.978 5.931-2.995.612-2.018-3.851-3.913-3.913-5.625-.06-1.712 1.345-3.485 4.953-4.158 3.607-.673 5.747-2.813 5.747-2.813"/><path d="M1.345 34.484c3.73-.367 5.442.856 7.704.428 2.262-.428 3.24-.734 4.34-1.407 1.101-.672 1.468-.917 1.53-1.59.06-.672.244-3.056-.734-5.38-.978-2.323-3.057-7.703-2.018-9.477 1.04-1.773 1.284-5.258 3.852-5.991 2.568-.734 5.136-1.529 6.787-.306 1.65 1.223 3.118 3.485 4.891 3.546 1.773.061 2.874-.367 3.546-1.1.673-.734 1.1-2.507.428-3.363-.672-.856-3.79-1.345-4.219-2.324-.428-.978-2.629-4.157-.06-6.542 2.567-2.384 8.865-2.017 8.865-2.017" stroke-linecap="round" stroke-linejoin="round"/><path d="M2.996 33.995c3.363.244 5.258 1.039 8.193-.123 2.935-1.161 3.301-1.284 3.363-2.14.06-.856-.062-3.852-.734-4.891-.673-1.04-3.18-3.363-3.852-5.93-.673-2.569.061-10.028 2.079-11.8 2.017-1.774 7.826-1.774 9.171-2.569 1.345-.795 1.284-4.096 3.18-5.992 1.895-1.895 6.603-2.996 6.603-2.996M44.266-.367C47.14.856 53.804 2.018 55.822 9.477M.183 47.446c4.647-3.057 8.805-.306 11.984-.979 3.18-.672 9.355-9.11 11.25-9.049 1.895.062 1.345-2.873 2.079-3.24.734-.367 1.345 1.467 2.874 1.957 1.528.489 5.991-.673 5.747-1.407-.245-.733-1.712-1.895-1.345-2.079.367-.183 2.079 1.223 3.118.856 1.04-.366 10.7-.244 11.861-3.301 1.162-3.057 5.259-3.302 5.259-3.302M16.753 52.215c3.301-2.813 5.686-6.114 6.97-6.604 1.284-.489 3.118-.917 3.852-1.956.733-1.04.611-2.63 1.284-2.935.672-.306.917 1.406 2.14 1.468 1.222.06 8.987-1.223 10.455-2.874 1.467-1.651 7.887-3.057 7.948-3.546.061-.49-.244-1.162.061-1.345.306-.184 6.053-1.468 6.053-1.468M39.07 52.826c2.2-3.363 5.013-10.027 7.214-10.272 2.201-.244 2.507-.611 3.057-1.04.55-.427 4.158.551 4.158.551" stroke-linecap="round" stroke-linejoin="round"/></g></g><g transform="translate(15.897 18.946)"><mask id="g" fill="#fff"><use xlink:href="#f"/></mask><g stroke-linecap="round" mask="url(#g)" stroke="#D38484" stroke-width=".75"><path d="m11.923 0-2.08 6.909 4.403 1.529 1.895 8.865-5.136 5.442 2.202 2.567-2.935 2.813.122 1.1 4.952 5.992 3.424-1.65 5.014 4.524L21.216 45l2.507 2.079-.673 3.18"/><path d="m23.662 47.018 3.057-6.787 2.69-1.712 6.726 3.852 5.013-.917-.061-3.852-2.507-1.467 3.118-6.42 1.407-.917 9.477-2.446"/></g></g><g fill-rule="nonzero"><g opacity=".504"><path d="M67.92 16.207s-5.93 2.2-7.765 2.567c-1.834.367-5.136 1.284-5.136 1.284s-2.384-1.039-5.38-2.078c-2.996-1.04-7.276-1.345-7.276-1.345s-.795.855-5.38 1.956c-4.586 1.1-6.726 1.406-6.726 1.406s-4.525-2.2-7.704-2.812c-3.18-.612-5.87-.49-6.053-.428 0 0 1.834 3.18 2.874 6.786 1.039 3.608 1.528 6.237 1.528 6.237l12.588 1.253 11.976-.978 12.779 2.942c2.538-1.08 12.744-1.198 13.527-3.217 0 0-1.162-3.73-1.835-7.276-.672-3.546-2.017-6.297-2.017-6.297Z" fill="#B1E479"/><path d="M20.902 29.78s-1.345 3.118-2.017 6.053a160.303 160.303 0 0 1-1.407 5.625l12.466 4.003 13.138-3.849 12.778 4.287c4.001-1.042 7.922-2.23 11.754-3.769 0 0 .428-2.567 1.65-5.808a801.44 801.44 0 0 1 2.508-6.542c-.783 2.019-10.989 2.137-13.527 3.217l-12.779-2.942-11.732.978-12.832-1.253Z" fill="#87D531"/><path d="M70.977 54.236c-4.378 1.876-8.79 3.644-13.282 5.237L44.916 54.94l-12.282 2.2-11.976-2.415s-.979 2.506-1.835 5.93-1.222 7.52-1.222 7.52 2.262-.488 6.97.306c4.708.795 7.887 1.468 7.887 1.468s3.118-.673 5.87-1.529c2.75-.856 3.974-1.59 3.974-1.59s1.345.123 5.502 1.53c4.158 1.405 7.154 2.078 7.154 2.078s3.18-.673 6.359-1.406c3.179-.734 6.48-1.957 6.48-1.957s-.183-1.223 1.04-5.992 2.14-6.848 2.14-6.848Z" fill="#CEEEAB"/><path d="M17.478 41.458s1.407 3.913 2.262 7.337c.856 3.424.918 5.93.918 5.93l11.976 2.417 12.282-2.201 12.779 4.532c4.492-1.593 8.904-3.36 13.282-5.237 0 0-.122-1.1-.917-4.83s-2.446-7.276-2.446-7.276c-3.832 1.539-7.753 2.727-11.754 3.77l-12.778-4.288-13.138 3.85-12.466-4.004Z" fill="#B9E787"/></g><g opacity=".522"><path d="M17.654 16.703c-.667-.001-1.085.03-1.154.054 0 0 1.834 3.18 2.874 6.786 1.039 3.608 1.528 6.237 1.528 6.237s-1.345 3.118-2.017 6.053c-.673 2.935-1.407 5.625-1.407 5.625s1.407 3.913 2.262 7.337c.856 3.424.918 5.93.918 5.93s-.979 2.507-1.835 5.931-1.222 7.52-1.222 7.52 2.262-.488 6.97.306c4.708.795 7.887 1.468 7.887 1.468l.367-13.023-2.996-11.373 3.913-14.612c-.543-3.786-2.218-7.349-3.485-10.945 0 0-4.525-2.2-7.704-2.812a27.22 27.22 0 0 0-4.899-.482Z" fill="#83D32B"/><path d="M42.363 16.635s-.795.855-5.38 1.956c-4.586 1.1-6.726 1.406-6.726 1.406 1.267 3.596 2.942 7.159 3.485 10.945l-3.913 14.612 2.996 11.373-.367 13.023s3.118-.673 5.87-1.529c2.75-.856 3.974-1.59 3.974-1.59l2.751-11.86-2.018-13.269 2.874-11.005c-.841-2.379-1.971-13.923-3.546-14.062Z" fill="#B1E479"/><path d="M67.92 16.207s-5.93 2.2-7.765 2.567c-1.834.367-5.136 1.284-5.136 1.284 1.203-.332 2.798 11.102 3.485 12.779L55.753 45.86l2.323 13.451-3.118 11.128s3.18-.673 6.359-1.406c3.179-.734 6.48-1.957 6.48-1.957s-.183-1.223 1.04-5.992 2.14-6.848 2.14-6.848-.122-1.1-.917-4.83-2.446-7.276-2.446-7.276.428-2.567 1.65-5.808a801.44 801.44 0 0 1 2.508-6.542s-1.162-3.73-1.835-7.276c-.672-3.546-2.017-6.297-2.017-6.297Z" fill="#A4DF62"/><path d="M42.363 16.635c1.575.139 2.705 11.683 3.546 14.062l-2.874 11.005 2.018 13.024-2.751 12.106s1.345.122 5.502 1.528c4.158 1.406 7.154 2.079 7.154 2.079l3.118-11.128-2.323-13.45 2.751-13.024c-.687-1.677-2.282-13.11-3.485-12.779 0 0-2.384-1.039-5.38-2.078-2.996-1.04-7.276-1.345-7.276-1.345Z" fill="#CEEEAB"/></g><path d="M0 2.05s1.834 3.18 2.874 6.787c1.039 3.607 1.528 6.236 1.528 6.236s-1.345 3.119-2.017 6.053a160.292 160.292 0 0 1-1.407 5.625s1.407 3.913 2.262 7.337c.856 3.424.918 5.931.918 5.931s-.979 2.507-1.835 5.93c-.856 3.425-1.222 7.521-1.222 7.521s2.262-.489 6.97.306c4.708.795 7.887 1.467 7.887 1.467s3.118-.672 5.87-1.528c2.75-.856 3.974-1.59 3.974-1.59s1.345.122 5.502 1.529c4.158 1.406 7.154 2.078 7.154 2.078s3.18-.672 6.359-1.406c3.179-.734 6.48-1.956 6.48-1.956s-.183-1.223 1.04-5.992c1.223-4.77 2.14-6.848 2.14-6.848s-.122-1.1-.917-4.83-2.446-7.276-2.446-7.276.428-2.568 1.65-5.809c1.224-3.24 2.508-6.542 2.508-6.542s-1.162-3.73-1.834-7.275C52.764 4.25 51.42 1.5 51.42 1.5s-5.93 2.201-7.765 2.568c-1.834.367-5.136 1.284-5.136 1.284s-2.384-1.04-5.38-2.079c-2.996-1.04-7.276-1.345-7.276-1.345s-.795.856-5.38 1.957c-4.586 1.1-6.726 1.406-6.726 1.406S9.232 3.09 6.053 2.478C2.873 1.867.183 1.99 0 2.05Z" fill="url(#h)" opacity=".039" transform="translate(16.5 15)"/></g><g fill-rule="nonzero"><g opacity=".27"><path d="M50.442 0s-5.931 2.201-7.765 2.568c-1.835.367-5.136 1.284-5.136 1.284 1.203-.333 2.798 11.1 3.485 12.778l-.015.069c2.888-.995 12.524-1.167 13.282-3.126 0 0-1.161-3.73-1.834-7.275C51.787 2.75 50.442 0 50.442 0Z" fill="url(#i)" transform="translate(16.875 16.5)"/><path d="M3.424 13.573s-1.345 3.119-2.018 6.053C.734 22.561 0 25.251 0 25.251l12.381 3.982 3.86-14.407-12.817-1.253Z" fill="url(#j)" transform="translate(16.875 16.5)"/><path d="M3.18 38.519s-.979 2.507-1.835 5.93C.49 47.875.122 51.97.122 51.97s.036-.01.107-.023c.498-.083 2.744-.367 6.863.329 4.708.795 7.888 1.467 7.888 1.467l.359-12.84-.184.031L3.18 38.52Z" fill="url(#k)" transform="translate(16.875 16.5)"/><path d="M24.885.428s-.795.856-5.38 1.957c-4.587 1.1-6.726 1.406-6.726 1.406 1.267 3.595 2.942 7.158 3.485 10.944l-.023.076 11.747-.964.274.064C27.44 10.65 26.357.558 24.885.428Z" fill="url(#l)" transform="translate(16.875 16.5)"/><path fill="url(#m)" d="m25.58 25.412-13.115 3.844-.084-.023-.03.115 2.995 11.372-.007.184 12.099-2.171.13.046.007-.015-2.018-13.268z" transform="translate(16.875 16.5)"/><path d="M28.262 13.91c.059.226.115.426.169.58l-2.852 10.922.025-.008 12.67 4.25 2.737-12.955a3.04 3.04 0 0 0-.244.093L28.262 13.91Z" fill="url(#n)" transform="translate(16.875 16.5)"/><path d="m27.52 38.764-2.697 11.861s1.345.122 5.503 1.529a87.28 87.28 0 0 0 1.497.496c.482.153.944.29 1.377.42 2.597.783 4.28 1.162 4.28 1.162l3.11-11.104c-.124.044-.249.093-.374.137l-12.695-4.501Z" fill="url(#o)" transform="translate(16.875 16.5)"/><path d="M50.136 25.924c-3.832 1.538-7.753 2.727-11.754 3.768l-.108-.038 2.324 13.45-.008.024c4.364-1.556 8.653-3.274 12.909-5.098 0 0-.123-1.1-.917-4.83-.795-3.73-2.446-7.276-2.446-7.276Z" fill="url(#p)" transform="translate(16.875 16.5)"/></g><g opacity=".043"><path d="M1.154.252a15.75 15.75 0 0 0-.948.032C.2.284.19.28.183.284A1.17 1.17 0 0 0 0 .306s1.834 3.18 2.874 6.786C3.913 10.7 4.402 13.33 4.402 13.33l12.588 1.25.229-.015.023-.076c-.543-3.785-2.218-7.349-3.485-10.944 0 0-4.525-2.2-7.704-2.812-.249-.05-.492-.09-.734-.13C5.174.58 5.034.555 4.891.536 4.833.526 4.781.52 4.723.51 4.403.467 4.09.428 3.791.4 3.61.379 3.45.367 3.279.352l-.49-.039c-.242-.017-.462-.03-.68-.037a20.061 20.061 0 0 0-.955-.024Z" fill="url(#q)" transform="translate(15.897 16.745)"/><path d="M.978 25.007s1.407 3.913 2.262 7.337c.856 3.424.918 5.93.918 5.93l11.976 2.416.183-.031.008-.183-2.996-11.373.03-.114L.98 25.007Z" fill="url(#r)" transform="translate(15.897 16.745)"/><path d="m28.966 13.603-11.732.978h-.015l-3.86 14.408.085.023 13.113-3.845 2.852-10.921a7.972 7.972 0 0 1-.169-.58l-.274-.063Z" fill="url(#s)" transform="translate(15.897 16.745)"/><path d="M28.416 38.488 16.317 40.66l-.36 12.84s3.12-.673 5.87-1.529c2.752-.856 3.975-1.59 3.975-1.59l2.744-11.846-.13-.046Z" fill="url(#t)" transform="translate(15.897 16.745)"/><path d="M25.863.183c1.472.13 2.555 10.223 3.377 13.483l12.505 2.881a3.04 3.04 0 0 1 .244-.093l.015-.068c-.687-1.678-2.282-13.111-3.485-12.779 0 0-.15-.06-.42-.176a87.104 87.104 0 0 0-4.96-1.902C30.143.489 25.863.183 25.863.183Z" fill="url(#u)" transform="translate(15.897 16.745)"/><path d="m26.582 25.16-.025.007-.022.084 2.018 13.023-.054.245 12.696 4.501c.124-.044.249-.092.374-.137l.007-.023-2.323-13.451-12.671-4.25Z" fill="url(#v)" transform="translate(15.897 16.745)"/><path d="M54.477 37.785c-4.256 1.824-8.545 3.543-12.908 5.098l-3.111 11.105s3.18-.673 6.359-1.406c3.179-.734 6.48-1.957 6.48-1.957s-.183-1.223 1.04-5.992 2.14-6.848 2.14-6.848Z" fill="url(#w)" transform="translate(15.897 16.745)"/><path d="M55.272 13.329c-.758 1.959-10.394 2.13-13.283 3.125L39.253 29.41l.107.038c4.001-1.04 7.922-2.23 11.754-3.768 0 0 .428-2.568 1.65-5.808a801.44 801.44 0 0 1 2.508-6.542Z" fill="url(#x)" transform="translate(15.897 16.745)"/></g></g><g transform="translate(39.864 28.24)"><mask id="z" fill="#fff"><use xlink:href="#y"/></mask><g mask="url(#z)"><path d="M-30.213-19.712s2.298 4.096 3.6 8.745C-25.312-6.32-24.7-2.932-24.7-2.932s-1.685 4.018-2.527 7.8c-.843 3.782-1.761 7.248-1.761 7.248s1.76 5.042 2.833 9.454c1.072 4.412 1.149 7.642 1.149 7.642s-1.226 3.23-2.298 7.642c-1.072 4.412-1.531 9.69-1.531 9.69s2.833-.63 8.73.394c5.896 1.024 9.879 1.89 9.879 1.89s3.905-.866 7.351-1.969c3.446-1.103 4.978-2.048 4.978-2.048s1.685.157 6.892 1.97c5.207 1.811 8.96 2.678 8.96 2.678s3.982-.867 7.964-1.812c3.982-.945 8.117-2.521 8.117-2.521s-.23-1.576 1.302-7.72c1.532-6.146 2.68-8.824 2.68-8.824s-.153-1.419-1.148-6.224c-.996-4.806-3.063-9.375-3.063-9.375s.536-3.31 2.067-7.485c1.532-4.175 3.14-8.43 3.14-8.43s-1.455-4.805-2.297-9.375c-.843-4.57-2.527-8.114-2.527-8.114s-7.429 2.836-9.726 3.309c-2.297.472-6.433 1.654-6.433 1.654s-2.986-1.34-6.739-2.679C7.541-19.476 2.18-19.87 2.18-19.87s-.995 1.103-6.739 2.521c-5.743 1.418-8.423 1.812-8.423 1.812s-5.667-2.836-9.65-3.624c-3.981-.788-7.351-.63-7.58-.551Z" fill="#CEEEAB" fill-rule="nonzero"/><g transform="translate(-30.213 -20.421)"><mask id="B" fill="#fff"><use xlink:href="#A"/></mask><g mask="url(#B)" fill="#A6DD8B" fill-rule="nonzero"><path d="M31.168-1.418 29.866.788c-.23 2.836-.69 4.333-2.604 5.2-1.914.866-3.752 1.102-3.37 2.363.384 1.26 3.983 2.915 4.366 4.097.383 1.181 2.527.551 3.37 2.206.842 1.654.612 4.805-1.15 5.436-1.76.63-5.36.157-6.202 2.993-.843 2.837-1.455 3.31-2.757 4.018-1.302.71-2.221 3.31-1.072 5.2 1.148 1.89 3.752-.394 4.594-2.048.843-1.655 2.221-2.758 2.221-2.758h7.275l18.073-.551.996-1.182s.995 1.26.842 2.757c-.153 1.497-1.149 4.649.077 5.436 1.225.788 5.973-.63 7.351-2.206 1.379-1.575-1.455-8.902-3.216-9.296-1.761-.394-5.667-.551-5.208-2.206.46-1.654 3.6 1.418 5.284 1.024 1.685-.394 5.131-6.617 3.676-7.957-1.455-1.339-7.428-1.654-7.887-2.52-.46-.867 6.432-2.522 6.815-3.467.383-.946-.766-2.285-1.914-2.679-1.149-.394-4.289 5.121-6.433 4.963-2.144-.157-6.126 1.813-5.284 3.625.842 1.812-1.838 3.466-4.442 2.048-2.603-1.418-7.581-4.097-6.662-7.563.919-3.467 6.586-5.909 6.586-5.909l-12.023-3.23ZM27.014 32.37c-.489.048-1.37 1.478-1.513 2.216-.153.787-.996 2.127-1.072 3.86-.077 1.733 1.455 2.127 2.68 2.048 1.225-.078.843-2.127.613-4.727-.077 0-.153-3.23-.613-3.387a.24.24 0 0 0-.095-.01Zm28.402 16.28c-1.942.091-2.03 2.35-2.27 2.795-.383.71.69 4.333.613 5.673-.077 1.339-1.455 1.654-2.91 3.072-1.455 1.418.153 5.042 3.446 9.77l13.708.393-.307-11.03s1.455-1.339-6.356-7.642c-2.928-2.363-4.76-3.088-5.924-3.031ZM9.477 53.859c-1.234-.035-2.536 1.8-2.967 2.392-.46.63-1.915 1.576-5.208 2.994l-4.441 10.793 16.235 1.34s.536-3.467-1.302-4.964c-1.838-1.497-5.284-1.812-5.59-4.176-.307-2.363 2.833-3.15 4.211-4.49 1.379-1.34.613-3.545-.689-3.86a1.111 1.111 0 0 0-.249-.029Z"/></g></g><path d="M15.591 3.322c-1.458-.005-2.766.305-3.532.994-2.45 2.206-10.721.237-14.856 2.206-4.136 1.97-4.059 11.975-4.518 14.024-.46 2.048-5.361 6.539-6.127 7.405-.766.867-4.059 2.285-5.973 2.679-1.915.394-3.906 2.285-4.748 3.466-.619.87-2.269 2.033-3.101 2.59-.015.057-.025.111-.039.168-.04.167-.075.34-.115.513 1.526-.507 3.425-2.577 5.093-4.295 1.914-1.97 6.126-2.442 8.5-3.624 2.374-1.182 4.365-6.224 8.118-7.484 3.752-1.26 6.509 3.703 7.428 5.83.919 2.127.536 4.018 1.149 5.357.612 1.34 3.37 3.703 3.522 4.254.153.552-1.531 2.049-1.914 2.679-.383.63-3.217 2.206-3.6 2.757-.297.426-.588 2.134-.707 2.906.126-.054.23-.098.343-.148.15-.798.466-2.231.9-2.679.613-.63 3.447-1.418 3.83-2.679.382-1.26 2.144-2.048 2.144-2.048s.842 1.26 4.9 4.412c2.706 2.102 3.91 4.894 4.415 6.53.205.053.469.129.622.166-.374-1.36-1.483-5.117-2.739-6.539-1.531-1.733-5.667-3.387-6.968-6.932C6.316 32.284.113 25.036 2.257 23.146c2.144-1.891 5.054-1.261 8.73 2.363 3.676 3.624 14.167 1.812 17.69 1.182 3.048-.545 6.38 4.689 7.324 8.203.18-.659.343-1.26.505-1.812a9.755 9.755 0 0 1-1.626-2.61c-1.149-2.678-3.676-4.175-3.676-4.175s2.68-1.576 4.518-2.442c.496-.234.922-.53 1.284-.839l-.135-.658-.028-.139c-1.46 1.752-5.893 3.032-6.635 3.448-.842.472-5.59.945-10.95 1.418-5.36.472-8.194-2.364-10.492-4.648-2.297-2.285-3.982-11.345-.919-11.975 3.063-.63 6.127 4.333 9.19 5.357 3.063 1.024 6.586-4.964 6.05-8.509-.368-2.437-4.289-3.978-7.496-3.988ZM-.748 7.507c.389 0 1.795.503 2.01.749.689.787.612 2.284 0 2.52-.613.237-3.906 2.522-3.217 4.491.69 1.97.536 5.673-1.072 5.673s-2.45 0-3.063-.788-.613-3.782 0-6.224c.612-2.442 1.072-4.727 2.45-5.751.948-.704 2.031-.67 2.892-.67Zm4.163 23.035c.061.003.585 1.106 1.446 2.215.919 1.182.995 2.6.995 2.6s-1.302-1.497-1.838-2.521c-.536-1.024-.612-2.285-.612-2.285 0-.01.006-.01.009-.01Z" fill="#AAC3E7" fill-rule="nonzero"/><path d="M4.63-.804c1.915.157 3.753-.71 3.294-2.049-.46-1.339-3.83-2.284-4.059-.945-.23 1.34.613 3.309.766 2.994ZM.342-5.689C-2.26-7.422-2.26-7.974-1.802-8.21c.46-.236 3.14 1.576 3.906 2.521.766.945-.69.63-1.762 0Z" stroke="#6D7F42" stroke-width=".75" opacity=".387" stroke-linecap="round" stroke-linejoin="round"/><g transform="translate(-30.213 -20.421)"><mask id="D" fill="#fff"><use xlink:href="#C"/></mask><g mask="url(#D)" opacity=".387" stroke="#6D7F42" stroke-width=".75"><path d="M2.068 44.512c10.108-.788 11.716-1.103 11.104-3.23-.613-2.127-2.68-7.405-7.046-7.09-4.365.315-6.968-2.127-6.968-2.127" stroke-linecap="round" stroke-linejoin="round"/><path d="M2.604 52.706c5.59-3.152 8.806-2.679 10.72-3.624 1.915-.946 4.06-1.812 4.825-2.994.766-1.182 1.762-3.624 1.762-5.672 0-2.049-1.072-11.345.995-13.709 2.068-2.363 5.284-8.193 7.964-7.326 2.68.866 3.753 3.072 6.74 2.993 2.986-.078 6.662-1.26 7.428-3.86.765-2.6-4.825-5.042-4.901-7.248-.077-2.206 1.684-4.49 6.203-5.357 4.518-.867 7.198-3.624 7.198-3.624"/><path d="M1.685 47.585c4.671-.473 6.815 1.103 9.649.551 2.833-.551 4.058-.945 5.437-1.812 1.378-.866 1.838-1.181 1.914-2.048.077-.867.307-3.94-.919-6.933-1.225-2.994-3.829-9.927-2.527-12.211 1.302-2.285 1.608-6.776 4.825-7.721 3.216-.945 6.433-1.97 8.5-.394 2.068 1.576 3.906 4.49 6.127 4.57 2.22.078 3.599-.473 4.441-1.419.842-.945 1.379-3.23.536-4.333-.842-1.103-4.748-1.733-5.284-2.993-.536-1.26-3.293-5.358-.076-8.43 3.216-3.073 11.104-2.6 11.104-2.6" stroke-linecap="round" stroke-linejoin="round"/><path d="M3.752 46.955c4.212.315 6.586 1.339 10.262-.158 3.676-1.497 4.135-1.654 4.212-2.757.076-1.103-.077-4.964-.919-6.303-.842-1.34-3.982-4.333-4.825-7.642-.842-3.309.077-12.92 2.604-15.205s9.802-2.285 11.487-3.309c1.685-1.024 1.608-5.278 3.982-7.72C32.93 1.417 38.825 0 38.825 0m16.619 2.679C59.043 4.254 67.39 5.75 69.917 15.363M.23 64.287c5.82-3.94 11.027-.394 15.01-1.26 3.981-.867 11.716-11.74 14.09-11.66 2.374.078 1.685-3.703 2.604-4.176.919-.473 1.684 1.89 3.599 2.52 1.914.631 7.505-.866 7.198-1.811-.306-.945-2.144-2.442-1.684-2.679.46-.236 2.603 1.576 3.905 1.103 1.302-.472 13.402-.315 14.857-4.254 1.455-3.94 6.585-4.254 6.585-4.254M20.983 70.432c4.135-3.624 7.122-7.878 8.73-8.509 1.608-.63 3.905-1.181 4.824-2.52.92-1.34.766-3.388 1.609-3.782.842-.394 1.148 1.812 2.68 1.89 1.531.08 11.257-1.575 13.095-3.702 1.838-2.128 9.879-3.94 9.955-4.57.077-.63-.306-1.497.077-1.733s7.581-1.89 7.581-1.89m-20.6 25.604c2.757-4.333 6.28-12.92 9.037-13.236 2.757-.315 3.14-.788 3.829-1.34.689-.55 5.207.71 5.207.71" stroke-linecap="round" stroke-linejoin="round"/></g></g><g transform="translate(-30.213 -20.421)"><mask id="F" fill="#fff"><use xlink:href="#E"/></mask><g stroke-linecap="round" mask="url(#F)" stroke="#D38484" stroke-width=".75"><path d="m14.933 3.151-2.604 8.903 5.514 1.97 2.374 11.423-6.433 7.011 2.757 3.31-3.676 3.623.154 1.418 6.202 7.721 4.289-2.127 6.28 5.83-3.217 8.902 3.14 2.679-.843 4.097"/><path d="m29.636 63.735 3.83-8.745 3.369-2.206 8.423 4.964 6.28-1.182-.077-4.963-3.14-1.891 3.906-8.272 1.762-1.182 11.87-3.151"/></g></g><path d="M0 .709s2.297 4.097 3.6 8.745c1.3 4.648 1.913 8.036 1.913 8.036s-1.685 4.018-2.527 7.8a211.431 211.431 0 0 1-1.762 7.247s1.762 5.042 2.834 9.454c1.072 4.412 1.148 7.642 1.148 7.642s-1.225 3.23-2.297 7.642c-1.072 4.412-1.532 9.69-1.532 9.69s2.834-.63 8.73.394c5.897 1.024 9.88 1.891 9.88 1.891s3.905-.867 7.35-1.97c3.447-1.102 4.979-2.048 4.979-2.048s1.684.158 6.892 1.97c5.207 1.812 8.96 2.678 8.96 2.678s3.982-.866 7.964-1.812c3.982-.945 8.117-2.52 8.117-2.52s-.23-1.576 1.302-7.721c1.532-6.146 2.68-8.824 2.68-8.824s-.153-1.418-1.148-6.224c-.996-4.806-3.064-9.375-3.064-9.375s.537-3.309 2.068-7.484c1.532-4.176 3.14-8.43 3.14-8.43s-1.455-4.806-2.298-9.375C66.088 3.545 64.403 0 64.403 0s-7.428 2.836-9.725 3.309c-2.298.473-6.433 1.654-6.433 1.654s-2.987-1.339-6.739-2.678C37.754.945 32.393.55 32.393.55s-.995 1.103-6.739 2.522C19.911 4.49 17.23 4.885 17.23 4.885S11.564 2.048 7.581 1.26C3.6.473.23.63 0 .709Z" fill="url(#G)" fill-rule="nonzero" opacity=".039" transform="translate(-30.213 -20.421)"/><g opacity=".27" fill-rule="nonzero"><path d="M63.178 0s-7.428 2.836-9.726 3.309c-2.297.473-6.432 1.654-6.432 1.654 1.507-.428 3.504 14.304 4.365 16.466l-.019.088c3.618-1.282 15.687-1.503 16.637-4.027 0 0-1.455-4.806-2.298-9.375C64.863 3.545 63.178 0 63.178 0Z" fill="url(#H)" transform="translate(-28.987 -20.421)"/><path d="M4.288 17.49s-1.684 4.018-2.527 7.8A211.431 211.431 0 0 1 0 32.536l15.507 5.13 4.834-18.564L4.288 17.49Z" fill="url(#I)" transform="translate(-28.987 -20.421)"/><path d="M3.982 49.633s-1.225 3.23-2.297 7.642C.613 61.687.153 66.965.153 66.965s.045-.014.134-.03c.623-.106 3.437-.472 8.596.424 5.897 1.024 9.879 1.891 9.879 1.891l.45-16.544-.23.04-15-3.113Z" fill="url(#J)" transform="translate(-28.987 -20.421)"/><path d="M31.168.551s-.996 1.103-6.74 2.522c-5.743 1.418-8.423 1.812-8.423 1.812 1.587 4.632 3.685 9.223 4.365 14.102l-.029.097 14.714-1.241.343.082C34.368 13.724 33.012.718 31.168.55Z" fill="url(#K)" transform="translate(-28.987 -20.421)"/><path fill="url(#L)" d="m32.038 32.744-16.425 4.954-.106-.03-.038.148 3.752 14.653-.009.237 15.154-2.797.162.059.01-.02-2.528-17.096z" transform="translate(-28.987 -20.421)"/><path d="M35.398 17.925c.074.29.144.548.211.747l-3.571 14.072.03-.01 15.87 5.476 3.428-16.693c-.11.038-.214.079-.306.12l-15.662-3.712Z" fill="url(#M)" transform="translate(-28.987 -20.421)"/><path d="m34.47 49.948-3.379 15.284s1.685.158 6.892 1.97c.65.226 1.275.443 1.875.64.604.197 1.182.373 1.725.541 3.253 1.009 5.36 1.497 5.36 1.497l3.897-14.309c-.157.058-.313.12-.47.178l-15.9-5.8Z" fill="url(#N)" transform="translate(-28.987 -20.421)"/><path d="M62.795 33.404c-4.8 1.981-9.71 3.514-14.721 4.855l-.135-.05 2.91 17.333-.01.03c5.465-2.005 10.838-4.22 16.168-6.57 0 0-.153-1.417-1.149-6.223-.995-4.806-3.063-9.375-3.063-9.375Z" fill="url(#O)" transform="translate(-28.987 -20.421)"/></g><g opacity=".043" fill-rule="nonzero"><path d="M1.446.325c-.34 0-.605.009-.833.018a7.074 7.074 0 0 0-.355.023C.25.366.238.362.23.366A1.335 1.335 0 0 0 0 .394s2.297 4.097 3.6 8.745c1.301 4.648 1.914 8.036 1.914 8.036l15.766 1.613.287-.019.028-.097c-.68-4.879-2.777-9.47-4.365-14.103 0 0-5.666-2.836-9.649-3.624a26.756 26.756 0 0 0-.919-.167C6.48.747 6.305.715 6.126.69c-.072-.012-.138-.019-.21-.03-.4-.058-.793-.11-1.168-.146-.225-.026-.428-.041-.642-.06-.21-.02-.414-.035-.612-.05a22.303 22.303 0 0 0-.852-.048A24.426 24.426 0 0 0 1.446.325Z" fill="url(#P)" transform="translate(-30.213 -20.106)"/><path d="M1.225 32.222s1.762 5.042 2.834 9.454c1.072 4.412 1.148 7.642 1.148 7.642l15 3.112.23-.04.01-.236-3.753-14.653.039-.148-15.508-5.13Z" fill="url(#Q)" transform="translate(-30.213 -20.106)"/><path d="m36.28 17.528-14.694 1.26h-.02l-4.833 18.565.105.03 16.425-4.954 3.572-14.073a10.5 10.5 0 0 1-.212-.746l-.343-.082Z" fill="url(#R)" transform="translate(-30.213 -20.106)"/><path d="M35.591 49.594 20.437 52.39l-.45 16.544s3.906-.867 7.352-1.97 4.978-2.048 4.978-2.048l3.436-15.264-.162-.06Z" fill="url(#S)" transform="translate(-30.213 -20.106)"/><path d="M32.393.236c1.844.167 3.201 13.173 4.23 17.374l15.662 3.712c.092-.041.196-.082.307-.12l.018-.088c-.86-2.162-2.858-16.894-4.365-16.466 0 0-.187-.079-.527-.227a107.254 107.254 0 0 0-6.212-2.451C37.754.63 32.393.236 32.393.236Z" fill="url(#T)" transform="translate(-30.213 -20.106)"/><path d="m33.294 32.42-.03.009-.029.108 2.528 16.781-.068.315 15.901 5.8c.156-.057.313-.12.469-.177l.009-.03-2.91-17.331-15.87-5.476Z" fill="url(#U)" transform="translate(-30.213 -20.106)"/><path d="M68.232 48.688c-5.33 2.35-10.702 4.564-16.167 6.568l-3.897 14.31s3.983-.867 7.965-1.813c3.982-.945 8.117-2.52 8.117-2.52s-.23-1.577 1.302-7.722c1.532-6.145 2.68-8.823 2.68-8.823Z" fill="url(#V)" transform="translate(-30.213 -20.106)"/><path d="M69.228 17.175c-.95 2.524-13.019 2.744-16.636 4.027l-3.428 16.693.135.049c5.011-1.342 9.921-2.874 14.721-4.855 0 0 .537-3.31 2.068-7.485 1.532-4.175 3.14-8.43 3.14-8.43Z" fill="url(#W)" transform="translate(-30.213 -20.106)"/></g></g></g><g fill-rule="nonzero"><path d="m5.937 51.96-1.175 1.113c-1.225-1.299-2.505-2.617-3.688-3.945l1.098-.995c1.67 1.597 2.17 2.086 3.765 3.827Z" fill="url(#X)" transform="translate(19.5 19.5)"/><path d="M44.281 48.772c-6.646-6.647-6.646-17.426 0-24.073 6.647-6.647 17.425-6.647 24.073 0 6.647 6.647 6.647 17.426 0 24.073-6.648 6.647-17.426 6.647-24.073 0Zm.724-.724c6.38 6.383 16.486 6.623 22.867.242 6.383-6.383 6.14-16.487-.24-22.869-6.38-6.381-16.486-6.622-22.87-.24-6.38 6.381-6.14 16.486.243 22.867Z" fill="#2D3335"/><path d="M44.281 48.772c-6.646-6.647-6.646-17.426 0-24.073l.122-.12c-6.527 6.656-6.487 17.345.12 23.95 6.606 6.609 17.296 6.648 23.95.12-.039.042-.078.081-.12.123-6.647 6.647-17.425 6.647-24.072 0Zm.602-23.712.122-.12c6.38-6.382 16.486-6.14 22.867.24 6.383 6.382 6.623 16.487.242 22.868l-.122.122c6.258-6.388 5.982-16.408-.36-22.749-6.342-6.34-16.361-6.619-22.75-.36Z" fill="#9EAAAC"/><path d="M44.763 48.29c6.383 6.38 16.728 6.38 23.109 0 6.383-6.383 6.383-16.728 0-23.11-6.381-6.38-16.726-6.38-23.11 0-6.38 6.382-6.38 16.727 0 23.11Z" fill-opacity=".476" fill="#D0E9F2"/><path d="M25.263 28.79c6.383 6.38 16.728 6.38 23.109 0 6.383-6.383 6.383-16.728 0-23.11-6.381-6.38-16.726-6.38-23.11 0-6.38 6.382-6.38 16.727 0 23.11Z" fill="url(#Y)" transform="translate(19.5 19.5)"/><path d="m22.577 24.525-1.406 1a17.693 17.693 0 0 0 3.13 4.226 17.693 17.693 0 0 0 4.227 3.13l1-1.405a16.03 16.03 0 0 1-4.023-2.928 16.03 16.03 0 0 1-2.928-4.023Z" fill="url(#Z)" transform="translate(19.5 19.5)"/><path d="M24.722 29.33c.423.424.754.898 1.008 1.4l-6.41 6.41a5.454 5.454 0 0 1-1.399-1.008 5.446 5.446 0 0 1-1.007-1.399l6.41-6.41c.5.254.975.585 1.398 1.008Z" fill="url(#aa)" transform="translate(19.5 19.5)"/><path d="M22.631 35.274 6.473 51.432c-.975-.536-1.427-.734-2.272-1.58-.846-.846-1.044-1.296-1.58-2.272l16.158-16.158c1.238.917 2.964 2.543 3.852 3.852Z" fill="url(#ab)" transform="translate(19.5 19.5)"/><path d="M20.066 34.024c.846.846 1.817 1.629 2.083 2.695L6.473 52.396c-1.594-1.262-3.56-3.128-4.815-4.816l15.677-15.676c.853.056 1.872 1.261 2.719 2.108l.012.012Z" fill="url(#ac)" transform="translate(19.5 19.5)"/><path d="M20.005 34.083c.846.846 1.878 1.57 2.144 2.636L6.473 52.396c-1.927-1.69-2.886-2.6-4.815-4.816l15.677-15.676c.853.056 1.814 1.332 2.66 2.179h.01Z" fill="url(#ad)" opacity=".596" transform="translate(19.5 19.5)"/><path d="M26.275 5.393C36.22-2.476 45.383 2.28 45.298 6.69c-.086 4.41-13.836 17.206-18.678 16.17-4.842-1.037-6.224-13.058-.345-17.467Z" fill="url(#ae)" opacity=".604" transform="translate(19.5 19.5)"/><path d="M47.868 27.902c-6.552 5.376-10.225 5.139-9.31 3.214.912-1.925 10.35-10.189 12.582-10.7 2.23-.512.555 4.412-3.272 7.486Z" fill="url(#af)" opacity=".765" transform="translate(19.5 19.5)"/></g></g></svg>