<svg viewBox="0 0 90 90" xmlns="http://www.w3.org/2000/svg"><defs><linearGradient x1="0%" y1="0%" x2="100%" y2="100%" id="a"><stop stop-color="#1CA7F8" offset="0%"/><stop stop-color="#1D63F0" offset="100%"/></linearGradient></defs><g fill="none" fill-rule="evenodd"><path fill="url(#a)" d="M0 0h90v90H0z"/><path d="m8.067 38.876-1.722-4.304-1.712 4.304h3.434Zm37.925-1.713c-.346.215-.754.222-1.244.222h-3.056v-2.398h3.097c.439 0 .896.02 1.193.195.326.157.528.492.528.954 0 .472-.192.852-.518 1.027 0 0 .326-.175 0 0Zm21.798 1.713-1.74-4.304-1.732 4.304h3.472Zm-40.633 4.66H24.58l-.01-8.457-3.647 8.456h-2.208l-3.657-8.463v8.463H9.94l-.966-2.408H3.738l-.977 2.408H.03L4.534 32.74H8.27l4.277 10.222V32.739h4.106l3.291 7.324 3.024-7.324h4.188v10.796Zm10.277 0h-8.402V32.738h8.402v2.248h-5.887v1.946h5.746v2.213h-5.746v2.156h5.887v2.233Zm11.847-7.89c0 1.722-1.12 2.611-1.772 2.878.55.215 1.02.595 1.244.91.355.536.416 1.016.416 1.98v2.121h-2.537l-.009-1.361c0-.65.06-1.584-.397-2.104-.368-.38-.928-.462-1.833-.462h-2.7v3.927h-2.515V32.74h5.785c1.285 0 2.232.035 3.045.517.796.482 1.273 1.186 1.273 2.39 0 0 0-1.204 0 0Zm4.025 7.89H50.74V32.738h2.566v10.796Zm29.774 0h-3.564l-4.767-8.104v8.103h-5.123l-.979-2.408h-5.225l-.95 2.408H59.53c-1.222 0-2.77-.277-3.647-1.194-.884-.917-1.344-2.158-1.344-4.122 0-1.6.275-3.065 1.356-4.221.814-.862 2.087-1.26 3.82-1.26h2.435v2.314h-2.384c-.918 0-1.436.14-1.935.64-.429.454-.723 1.314-.723 2.445 0 1.157.224 1.99.691 2.536.388.427 1.091.557 1.753.557h1.13l3.545-8.491h3.769l4.258 10.212V32.739h3.83l4.421 7.52v-7.52h2.576v10.796ZM0 45.655h4.298l.969-2.398h2.17l.966 2.398h8.455v-1.834l.755 1.842h4.39l.754-1.869v1.86h21.015l-.01-3.936h.406c.285.01.368.037.368.52v3.417h10.869v-.917c.876.482 2.24.917 4.034.917h4.572l.979-2.398h2.17l.956 2.398h8.811v-2.278l1.335 2.278h7.06V30.598h-6.987v1.778l-.979-1.778h-7.17v1.778l-.899-1.778h-9.685c-1.621 0-3.046.232-4.197.88v-.88H48.72v.88c-.733-.668-1.73-.88-2.84-.88H21.461l-1.638 3.89-1.683-3.89h-7.69v1.778l-.846-1.778H3.046L0 37.758v7.898Zm89.466 7.95h-4.584c-.457 0-.761.018-1.018.195-.265.175-.367.435-.367.777 0 .408.224.685.55.804.265.095.55.123.97.123l1.362.037c1.376.035 2.294.278 2.854.87.102.082.163.174.233.267v-3.073Zm0 7.12c-.61.916-1.801 1.381-3.413 1.381h-4.857V59.79h4.837c.48 0 .816-.064 1.018-.267a.96.96 0 0 0 .298-.704c0-.315-.122-.565-.307-.714-.183-.165-.449-.24-.887-.24-2.361-.083-5.308.075-5.308-3.343 0-1.566.97-3.215 3.609-3.215h5.01V49.16h-4.655c-1.405 0-2.425.345-3.148.882v-.882h-6.885c-1.101 0-2.393.28-3.005.882v-.882H59.478v.882c-.978-.725-2.63-.882-3.392-.882h-8.11v.882c-.774-.77-2.495-.882-3.545-.882h-9.076l-2.077 2.306-1.945-2.306H17.774v15.068h13.303l2.14-2.343 2.017 2.343 8.2.008V60.69h.806c1.088.017 2.371-.028 3.503-.53v4.067h6.764V60.3h.326c.417 0 .458.018.458.445v3.482h20.547c1.304 0 2.668-.342 3.423-.964v.964h6.517c1.356 0 2.68-.195 3.688-.694v-2.807Zm-10.033-4.314c.49.52.752 1.176.752 2.288 0 2.323-1.414 3.407-3.95 3.407h-4.9V59.79h4.88c.477 0 .815-.064 1.027-.267a.97.97 0 0 0 .297-.704.937.937 0 0 0-.307-.714c-.192-.165-.458-.24-.896-.24-2.352-.083-5.297.075-5.297-3.343 0-1.566.959-3.215 3.596-3.215h5.042v2.299h-4.614c-.457 0-.755.017-1.008.195-.275.175-.377.434-.377.777 0 .407.234.684.55.804.265.095.55.123.979.123l1.354.037c1.365.034 2.303.276 2.872.869 0 0-.57-.593 0 0Zm-22.696-.667c-.336.204-.752.222-1.242.222H52.44v-2.425h3.097c.448 0 .896.01 1.2.195.326.175.52.509.52.971 0 .462-.194.834-.52 1.037 0 0 .326-.203 0 0Zm1.52 1.344c.559.212 1.017.592 1.231.906.355.527.407 1.02.417 1.971v2.141H57.38v-1.351c0-.65.06-1.612-.407-2.114-.367-.387-.928-.48-1.845-.48H52.44v3.945h-2.528V51.308h5.807c1.274 0 2.201.058 3.027.51.794.492 1.293 1.166 1.293 2.398 0 1.723-1.12 2.603-1.783 2.873 0 0 .662-.27 0 0Zm3.177-5.781h8.394v2.233h-5.89v1.964h5.747v2.203h-5.747v2.149l5.89.01v2.24h-8.394V51.308Zm-16.97 4.984h-3.251v-2.75h3.28c.908 0 1.538.38 1.538 1.324 0 .934-.601 1.426-1.568 1.426Zm-5.756 4.833-3.862-4.399 3.862-4.259v8.658Zm-9.973-1.268h-6.184v-2.15h5.522v-2.202H22.55V53.54h6.306l2.751 3.147-2.873 3.169Zm19.996-4.991c0 3-2.181 3.619-4.38 3.619h-3.138v3.622h-4.889l-3.097-3.575-3.219 3.575h-9.963V51.308h10.117l3.094 3.54 3.2-3.54h8.037c1.996 0 4.238.567 4.238 3.558 0 0 0-2.991 0 0Z" fill="#FFF" fill-rule="nonzero"/></g></svg>