<svg viewBox="0 0 90 90" xmlns="http://www.w3.org/2000/svg"><defs><linearGradient x1="50%" y1="0%" x2="50%" y2="100%" id="a"><stop stop-color="#F94877" offset="0%"/><stop stop-color="#D92756" offset="100%"/></linearGradient></defs><g fill="none" fill-rule="evenodd"><path fill="url(#a)" d="M0 0h90v90H0z"/><path d="m59.827 23.664-1.438 6.94c-.164.739-.863 1.396-1.726 1.396h-12.49a2.56 2.56 0 0 0-2.547 2.546v1.519a2.56 2.56 0 0 0 2.547 2.546h10.56c.985 0 1.807.944 1.602 1.97a965.94 965.94 0 0 1-1.438 7.063c-.082.616-.74 1.397-1.726 1.397h-8.628c-1.808.04-2.178.082-3.246 1.396-1.068 1.314-10.518 13.14-10.518 13.14-.082.123-.164.082-.164-.041v-40.2c0-.945.78-1.725 1.725-1.725h25.926c.904 0 1.808.903 1.561 2.053M61.717 15H29.711C25.315 15 24 18.326 24 20.42v50.835c0 2.505 1.274 3.244 1.972 3.531.699.288 2.547.493 3.862-.82L45.283 55.98c.246-.288.37-.288.534-.288h9.614c4.108 0 4.889-2.833 5.34-4.557.37-1.438 4.603-21.969 5.917-28.456.986-5.01-.287-7.679-4.971-7.679" fill="#FFF" fill-rule="nonzero"/></g></svg>