<svg viewBox="0 0 90 90" xmlns="http://www.w3.org/2000/svg"><g fill="none" fill-rule="evenodd"><path fill="#FFF" d="M0 0h90v90H0z"/><path d="M44.808 3C21.666 3 3 21.432 3 45.535c0 12.498 6.737 24.573 16.211 31.827 1.825 1.397 3.998 1.27 5.243.071 1.05-1.01.963-3.44-.989-5.142-7.574-6.609-12.81-16.614-12.81-26.607 0-17.949 16.061-33.05 34.154-33.05 22.022 0 33.799 17.745 33.799 32.786 0 9.19-4.53 20.287-12.706 27.365.013-.032 1.699-3.321 1.699-9.728 0-10.906-6.965-16.814-15.046-16.814-5.85 0-9.352 2.075-11.735 4.01 0-4.442.15-12.739.15-12.739 0-5.475-1.934-9.858-8.672-9.954-3.9-.055-6.794 1.72-8.599 5.732-.65 1.505-.41 3.14.875 3.881 1.064.613 2.814.158 3.68-.988.577-.716.901-.87 1.404-.815.828.089.86 1.412.892 2.258.025.65.662 10.09.313 34.346 0 6.691 5.289 14.376 17.952 14.376 5.451 0 9.637-1.512 15.719-4.94C73.79 76.19 87 64.613 87 45.033 87 20.566 67.032 3 44.808 3Zm3.972 73.973c-4.714.082-8.152-1.421-8.363-5.51-.078-1.533-.053-3.167.022-4.152.456-5.974 4.666-10.272 8.822-11.097 5.169-1.026 8.612 1.32 8.612 8.034 0 4.537-1.27 12.59-9.093 12.725Z" fill="#EE6123"/></g></svg>