<svg viewBox="0 0 90 90" xmlns="http://www.w3.org/2000/svg"><g fill="none" fill-rule="evenodd"><path fill="#515064" d="M0 0h90v90H0z"/><path d="M62 50.918v16.204l-.005.05c-.036.313-.308 1.828-2.179 1.828H30.184c-1.87 0-2.143-1.515-2.179-1.828l-.005-.05V50.918s11.513 8.182 13.24 9.375c1.727 1.192 3.759 1.407 3.759 1.407s2.206-.215 3.933-1.407C50.658 59.1 62 50.918 62 50.918ZM28 36.247C30.819 21.167 43.891 20.99 44.933 21h.132c1.04-.01 14.114.166 16.933 15.247v10.718c-.011.159-.19 1.299-3.185 3.45-1.32.948-3.492 2.596-5.753 4.217l-.618.441c-3.095 2.195-6.224 4.216-7.443 4.216-2.195 0-10.402-6.546-13.64-8.872C28.121 48.09 28 46.946 28 46.946Zm16.999-7.91s-7.618.136-9.596 7.937v6h19.192v-6c-1.979-7.801-9.596-7.937-9.596-7.937Z" fill="#FFF" fill-rule="nonzero"/></g></svg>