<svg viewBox="0 0 90 90" xmlns="http://www.w3.org/2000/svg"><g fill="none" fill-rule="evenodd"><path d="M40.874 3.002 48.497 3C58.646 3 64.74 4.532 70.118 7.408c5.378 2.876 9.598 7.096 12.474 12.474C85.468 25.26 87 31.354 87 41.503v6.994c0 10.149-1.532 16.243-4.408 21.621-2.876 5.378-7.096 9.598-12.474 12.474C64.74 85.468 58.646 87 48.497 87h-6.994c-10.149 0-16.243-1.532-21.621-4.408-5.378-2.876-9.598-7.096-12.474-12.474-2.816-5.266-4.344-11.219-4.406-20.992L3 41.503C3 31.354 4.532 25.26 7.408 19.882c2.876-5.378 7.096-9.598 12.474-12.474 5.266-2.816 11.219-4.344 20.992-4.406Z" fill="#008BFF"/><path d="M45.012 20c8.393 0 16.355 2.1 16.355 11.628v3.488h-12.29c.391-4.65-.964-6.976-4.065-6.976-3.101 0-4.477 1.55-4.127 4.65 0 6.396 20.482 8.722 21.068 20.35C62.625 66.502 56.1 70 45.567 70 33.863 70 27.71 66.523 28.01 53.14h12.875c-.78 5.426.78 8.14 4.682 8.14 3.901 0 5.267-2.133 4.096-6.396-2.926-6.396-21.653-8.14-21.653-22.093C28.01 23.488 35.68 20 45.012 20Z" fill="#FFF"/></g></svg>