<svg viewBox="0 0 90 90" xmlns="http://www.w3.org/2000/svg"><g fill="none" fill-rule="evenodd"><path fill="#821E67" d="M0 0h90v90H0z"/><path d="M60.154 4.483c.071.501.869 5.613.95 6.143l-2.434.317-.057.008C47.67 12.3 32.846 20.486 26.173 35.252c-2.743 6.065-4.04 12.265-4.04 18.137 0 12.69 6.078 23.844 16.922 28.72 11.528 5.188 24.863 1.76 34.885-8.933l.738.924c-11.199 11.854-26.143 15.614-39.09 9.788-17.827-8.012-24.265-30.972-14.653-52.241 7.3-16.145 23.925-25.178 37.161-26.96 0 0 1.44-.14 2.058-.204ZM61.6 14.18c.108.665.258 1.585.41 2.53l.103.632c.22 1.366.432 2.679.522 3.248l-.18.027-.88.133-.342.052-1.207.184c-9.2 1.47-20.855 8.2-26.154 19.928-2.226 4.906-3.343 10.05-3.343 15 0 3.619.604 7.153 1.833 10.377 2.176 5.748 6.238 10.193 11.425 12.525 9.349 4.198 20.158 1.144 28.3-7.959.233.282.58.72.775.968-9.317 10.243-21.74 13.608-32.512 8.772-9.937-4.48-15.501-14.731-15.501-26.436 0-5.486 1.215-11.275 3.79-16.944 6.46-14.285 20.523-21.128 30.619-22.655 0 0 1.879-.303 2.342-.382Zm1.575 9.873c.078.537.927 5.79 1.007 6.314l-.175.025-1.063.152-.36.052-.178.026-.342.05c-.22.03-.416.06-.567.081l-.19.028-.116.016c-6.495 1.068-15.404 6.447-19.624 15.77-1.82 4.029-2.694 8.144-2.694 11.966 0 7.62 3.43 14.19 9.637 16.972 7.163 3.224 15.437.524 21.685-7.02.252.319.635.8.83 1.025-7.432 8.655-17.347 11.638-25.931 7.779-7.638-3.428-11.878-11.415-11.878-20.613 0-4.48 1.006-9.23 3.11-13.89 5.164-11.423 16.217-16.97 24.112-18.258l.116-.02.186-.031c.629-.108 2.057-.352 2.435-.424Z" fill="#FFF" fill-rule="nonzero"/></g></svg>