<svg viewBox="0 0 90 90" xmlns="http://www.w3.org/2000/svg"><g fill="none" fill-rule="evenodd"><path fill="#1B2434" d="M0 0h90v90H0z"/><path d="M70.953 15.047v7.5H41c-6 0-11.672 2.344-15.89 6.562C20.89 33.33 18.546 39 18.546 45s2.344 11.672 6.562 15.89a22.347 22.347 0 0 0 15.844 6.563h30v7.5h-29.39c-.188 0-.376.047-.563.047-8.016 0-15.563-3.14-21.188-8.766-5.671-5.671-8.765-13.171-8.765-21.187 0-8.016 3.094-15.563 8.719-21.234 5.672-5.625 13.218-8.766 21.187-8.766h30ZM50.516 28.172l7.453 7.5H41.516c-.188 0-.375.047-.563.047a9.322 9.322 0 0 0-9.328 9.328c0 5.11 4.219 9.328 9.375 9.328h16.875l-7.547 7.5H41c-9.281 0-16.875-7.547-16.875-16.828 0-9.094 7.219-16.5 16.266-16.828.187-.047.375-.047.609-.047h9.516Zm20.437 26.203v7.5H57.781l7.547-7.5h5.625Zm-7.36-13.125L67.298 45 63.5 48.75H41A3.761 3.761 0 0 1 37.25 45 3.73 3.73 0 0 1 41 41.25h22.594Zm7.36-13.078v7.5h-5.531l-7.453-7.5h12.984Z" fill="#00BCCA" fill-rule="nonzero"/></g></svg>