<svg viewBox="0 0 90 90" xmlns="http://www.w3.org/2000/svg"><g fill="none" fill-rule="evenodd"><path d="M78.05 44.568c.039-.46.062-.927.062-1.402 0-9.42-7.87-17.06-17.572-17.06-9.703 0-17.572 7.64-17.572 17.06v.23l-6.35.089c.054-.423.077-.853.077-1.29 0-5.964-4.981-10.8-11.124-10.8-6.143 0-11.124 4.836-11.124 10.8 0 1.52.329 2.966.91 4.28C7.02 46.844.381 53.52.381 61.708c0 8.419 7.029 15.25 15.708 15.25h56.383c9.467 0 17.145-7.454 17.145-16.644.015-7.306-4.829-13.507-11.567-15.747Z" fill="#FFF" fill-rule="nonzero"/><path d="M42.586 43.03c.075-9.562 8.087-17.294 17.954-17.294 9.914 0 17.954 7.805 17.954 17.43 0 .388-.015.77-.04 1.146C85.195 46.68 90.015 52.947 90 60.316c0 9.394-7.85 17.014-17.526 17.014H16.09C7.2 77.33 0 70.333 0 61.71c0-8.213 6.519-14.94 14.805-15.574a10.89 10.89 0 0 1-.74-3.941c0-6.169 5.153-11.17 11.506-11.17 6.354 0 11.506 5.001 11.506 11.17 0 .306-.01.611-.035.913l5.544-.077ZM60.54 26.478c-9.492 0-17.19 7.474-17.19 16.69v.595l-7.164.1.054-.422c.051-.405.073-.82.073-1.245 0-5.76-4.81-10.43-10.742-10.43-5.931 0-10.742 4.67-10.742 10.43 0 1.468.318 2.864.879 4.133l.217.492-.551.025C7.242 47.207.764 53.72.764 61.709c0 8.214 6.858 14.88 15.326 14.88h56.384c9.255 0 16.762-7.289 16.762-16.274.015-7.143-4.72-13.206-11.309-15.396l-.28-.093.023-.288c.038-.451.06-.909.06-1.372 0-9.215-7.698-16.689-17.19-16.689Z" fill="#D8D9D9"/><path fill="#EEE" fill-rule="nonzero" d="m64.505 43.285.978 10.696 2.544-.965-2.36-9.91zm-38.972.037-.986 13.032-2.826-.845 2.643-12.402z"/><path fill="#F69073" fill-rule="nonzero" d="M23.44 61.116h43.15l-2.062-40.44 1.543-7.669L56.59 13v7.677h-7.266V13h-8.618v7.677h-7.273V13l-9.474.007 1.543 7.67z"/><path d="M31.034 32.315v.282c0 7.498 6.257 13.573 13.981 13.573s13.981-6.075 13.981-13.573v-.282H31.034Z" fill="#FFF" fill-rule="nonzero"/><path d="M45.015 44.167c3.123 0 5.654-2.457 5.654-5.488 0-3.032-2.531-5.49-5.654-5.49-3.122 0-5.653 2.458-5.653 5.49 0 3.031 2.53 5.488 5.653 5.488Z" fill="#383938" fill-rule="nonzero"/><path d="M47.238 72.323c4.73 0 8.565-3.722 8.565-8.315 0-4.592-3.835-8.314-8.565-8.314-4.73 0-8.564 3.722-8.564 8.314 0 4.593 3.834 8.315 8.564 8.315Z" fill="#FFF" fill-rule="nonzero"/><path d="M60.081 74.052c4.853 0 8.786-3.82 8.786-8.53 0-4.711-3.933-8.53-8.786-8.53-4.852 0-8.786 3.819-8.786 8.53 0 4.71 3.934 8.53 8.786 8.53Z" fill="#FFF" fill-rule="nonzero"/><path d="M71.602 67.71c5.114 0 9.26-4.025 9.26-8.99s-4.146-8.99-9.26-8.99-9.26 4.025-9.26 8.99 4.146 8.99 9.26 8.99Zm-36.985 3.886c4.527 0 8.198-3.563 8.198-7.958 0-4.396-3.67-7.96-8.198-7.96-4.528 0-8.198 3.564-8.198 7.96 0 4.395 3.67 7.958 8.198 7.958Z" fill="#FFF" fill-rule="nonzero"/><path d="M25.923 70.09c4.877 0 8.831-3.838 8.831-8.574 0-4.735-3.954-8.574-8.831-8.574-4.878 0-8.832 3.839-8.832 8.574 0 4.736 3.954 8.575 8.832 8.575Z" fill="#FFF" fill-rule="nonzero"/></g></svg>