<svg viewBox="0 0 90 90" xmlns="http://www.w3.org/2000/svg"><g fill="none" fill-rule="evenodd"><path fill="#FFF" d="M0 0h90v90H0z"/><g fill="#2D2D2D" fill-rule="nonzero"><path d="M45 84C23.46 84 6 66.54 6 45S23.46 6 45 6s39 17.46 39 39-17.46 39-39 39Zm0-6c18.225 0 33-14.775 33-33S63.225 12 45 12 12 26.775 12 45s14.775 33 33 33Z"/><path d="M59 31.43c-.025-.262-.09-.433-.193-.514-.13-.146-.335-.134-.511-.138-1.74.009-3.48-.004-5.219.006-.26-.015-.47.226-.479.476-.027.472.01.945-.01 1.418a.277.277 0 0 1-.136.278c-.178-.076-.333-.195-.49-.305-2.1-1.485-4.571-2.493-7.146-2.651h-1.374c-1.397.08-2.79.32-4.113.781-2.302.799-4.376 2.203-6.065 3.96-1.986 2.01-3.397 4.601-3.945 7.386-.174.832-.259 1.676-.319 2.522v1.724c.104 1.903.497 3.802 1.278 5.545 1.235 2.76 3.317 5.107 5.822 6.763 2.394 1.582 5.274 2.35 8.128 2.318 2.854.026 5.65-1.06 7.884-2.82.123-.084.35-.32.46-.096.056.55-.01 1.104.027 1.656.008.245.216.526.47.517 1.807.005 3.614.006 5.42 0 .184.006.355-.186.511-.576V31.43Zm-7.815 19.924a7.373 7.373 0 0 1-3.682 3.274c-1.987.808-4.283.92-6.297.144-1.761-.659-3.254-1.974-4.187-3.61-1.152-1.989-1.519-4.358-1.35-6.633.193-2.301 1.065-4.594 2.67-6.276a7.73 7.73 0 0 1 4.35-2.302c1.84-.284 3.781-.047 5.462.773 1.462.718 2.635 1.974 3.313 3.456.73 1.577.986 3.332 1.014 5.06.027 2.094-.264 4.262-1.293 6.114Z"/></g></g></svg>