<svg viewBox="0 0 90 90" xmlns="http://www.w3.org/2000/svg"><g fill="none" fill-rule="evenodd"><path fill="#1C449B" d="M0 0h90v90H0z"/><path d="m78.53 44.188 7.472-12.425h-7.627l-3.975 6.3-4.276-6.3h-8.356l8.812 12.411-8.812 14h8.356l4.767-7.959 5.65 7.959H88l-9.47-13.986ZM50.895 31.763l-5.672 14.133-5.376-14.133h-6.78l-4.5 26.446h6.85l2.214-15.239h.07l6.071 15.239h2.741l6.358-15.239h.084l1.928 15.239h6.884l-4.01-26.446h-6.862ZM15.986 43.46v5.376h5.607c-.294 3.017-2.58 4.564-5.538 4.564-4.5 0-6.933-4.137-6.933-8.225s2.335-8.295 6.828-8.295c2.762 0 4.739 1.666 5.685 4.165l6.492-2.716C25.862 33.429 21.67 31 16.259 31 7.783 31 2 36.6 2 45.133 2 53.4 7.748 59 16.02 59c4.396 0 8.272-1.568 10.838-5.152 2.306-3.248 2.622-6.552 2.692-10.388H15.985Z" fill="#FFF" fill-rule="nonzero"/></g></svg>