<svg viewBox="0 0 90 90" xmlns="http://www.w3.org/2000/svg"><defs><linearGradient x1="100%" y1="0%" x2="0%" y2="100%" id="a"><stop stop-color="#4967A3" offset="0%"/><stop stop-color="#695E90" offset="100%"/></linearGradient></defs><g fill="none" fill-rule="evenodd"><path fill="url(#a)" d="M0 0h90v90H0z"/><path d="M68.093 22.786a1.354 1.354 0 0 0-1.281-.077l-14.06 6.737L22.9 15.133a1.324 1.324 0 0 0-1.282.077A1.302 1.302 0 0 0 21 16.325v35.839c0 .53.32 1.016.817 1.226l15.517 6.494v13.65c0 .453.232.884.619 1.127a1.342 1.342 0 0 0 1.281.066L67.96 60.944c.464-.22.751-.685.751-1.193v-35.85c0-.452-.232-.872-.618-1.115ZM23.65 51.28V18.435l26.042 12.49-6.527 3.137-13.397-6.096a1.33 1.33 0 0 0-1.756.663 1.33 1.33 0 0 0 .663 1.756l11.386 5.18-1.966.95c-.463.22-.75.684-.75 1.192v1.58l-7.621-3.071a1.322 1.322 0 0 0-1.723.74 1.322 1.322 0 0 0 .74 1.723l8.603 3.468v5.411l-7.62-3.07a1.322 1.322 0 0 0-1.723.74 1.322 1.322 0 0 0 .74 1.723l8.603 3.468v6.604L23.651 51.28Zm42.41 7.632L39.985 71.425V38.524l26.076-12.513v32.9ZM44.359 44.908a1.318 1.318 0 0 1 .618-1.767l14.943-7.223a1.318 1.318 0 0 1 1.767.618c.32.663.044 1.447-.618 1.767l-14.943 7.223a1.36 1.36 0 0 1-.575.133 1.31 1.31 0 0 1-1.192-.751Zm0 8.272a1.318 1.318 0 0 1 .618-1.767L59.92 44.19a1.318 1.318 0 0 1 1.767.618c.32.663.044 1.447-.618 1.767l-14.943 7.223a1.36 1.36 0 0 1-.575.133 1.31 1.31 0 0 1-1.192-.751Zm0 8.272a1.318 1.318 0 0 1 .618-1.767l14.943-7.223a1.318 1.318 0 0 1 1.767.619c.32.662.044 1.446-.618 1.767L46.126 62.07a1.36 1.36 0 0 1-.575.132 1.31 1.31 0 0 1-1.192-.75Z" fill="#FFF" fill-rule="nonzero"/></g></svg>