<svg viewBox="0 0 90 90" xmlns="http://www.w3.org/2000/svg"><defs><linearGradient x1="0%" y1="0%" x2="100%" y2="0%" id="a"><stop stop-color="#CB84DE" offset="0%"/><stop stop-color="#B6DBFF" offset="100%"/></linearGradient></defs><path d="M38.163 1.621c3.542-1.912 6.88.266 10.205 5.213l.384.583.383.607.384.63c.128.215.255.433.383.655l.384.676.384.7c2.908 5.377 5.764 12.7 7.81 19.839l.164.58.18-.17c4.296-4.028 10.101-6.52 14.695-5.253l.254.075c8.606 2.665 9.75 15.473 2.624 38.1l-.488 1.524c-.25.769-.509 1.548-.777 2.339l-.549 1.596c-.28.805-.57 1.62-.87 2.448a2.588 2.588 0 1 1-4.867-1.761l.511-1.429.492-1.403c.08-.232.16-.462.238-.692l.462-1.366.441-1.34.423-1.315c.137-.434.271-.864.402-1.29l.383-1.264c.062-.209.124-.416.184-.623l.354-1.226.335-1.202.315-1.176.296-1.151.141-.567.268-1.113.249-1.088.117-.535.22-1.05c.036-.173.07-.345.104-.516l.193-1.013c.335-1.833.578-3.54.728-5.12l.073-.85c.096-1.256.132-2.426.107-3.513-.118-5.235-1.526-7.805-3.64-8.46-3.243-1.003-8.626 2.071-11.775 6.088l-.245.321.267 1.086.324 1.353.308 1.33.293 1.308.277 1.283c.045.212.09.423.133.633l.254 1.248.239 1.224.113.603.215 1.188.2 1.164c.287 1.727.521 3.373.702 4.935l.112 1.028c.018.17.034.338.05.505l.09.992.038.486.064.953.027.468.04.915c.332 9.177-1.828 14.396-6.657 15.064l-.26.031c-2.964.305-4.765-1.842-5.67-5.205-.63-2.341-.905-5.52-.865-9.309.072-6.845 1.191-15.258 2.744-20.859.293-1.034.717-2.06 1.25-3.06l.143-.266-.145-.559-.384-1.452-.199-.736c-1.966-7.262-4.889-14.915-7.808-20.313-1.507-2.785-2.957-4.868-4.206-6.053l-.273-.25a9.355 9.355 0 0 0-.122-.108l-.218-.18-.184-.14a3.507 3.507 0 0 0-.08-.055l-.136-.087-.107-.057a.674.674 0 0 0-.08-.033l-.055-.012h-.017l-.024.016c-1.308.897-2.518 4.08-2.65 9.3l-.009.406c-.057 4.003.5 8.803 1.731 14.395l.275 1.21c.095.408.193.82.295 1.235l.316 1.26.166.638.348 1.295a152.494 152.494 0 0 0 2.537 8.278l.5 1.464.258.741.533 1.5c.09.252.182.505.275.76 1.134 3.115-3.407 4.978-4.786 1.962l-1.36-2.95-.997-2.136-.977-2.067-.641-1.341-.632-1.311-.93-1.91-.91-1.842-.596-1.19-.586-1.16-.577-1.13-.848-1.637-.553-1.054-.544-1.022-.798-1.477-.776-1.407-.754-1.338-.49-.854-.481-.822-.47-.791-.462-.76-.45-.73-.44-.698a77.533 77.533 0 0 0-.217-.337l-.425-.651-.451-.674-.471-.681c-.077-.11-.153-.217-.229-.322l-.441-.605a35.495 35.495 0 0 0-.214-.283l-.41-.529a21.461 21.461 0 0 0-.754-.9l-.252-.276-.005.029c-.403 2.122-.38 5.33.334 9.416l.082.457c.765 4.147 2.164 8.86 4.264 14.148l.497 1.23a136.174 136.174 0 0 0 3.514 7.81l.676 1.374a184.206 184.206 0 0 0 3.371 6.434c1.594 2.907-2.61 5.437-4.432 2.667l-4.087-6.19-3.489-5.227-2.261-3.342-1.985-2.887-1.182-1.69-.73-1.028-.852-1.182-.787-1.071-.728-.967-.672-.87-.5-.63-.336-.41-.407-.486c-.065-.077-.13-.152-.193-.224l-.362-.41-.303-.328-.013.205c-.013.228-.02.473-.022.734v.266c.024 1.922.376 4.323 1.091 7.072 1.81 6.954 5.685 15.31 11.842 24.672 1.814 2.758-2.14 5.617-4.19 3.03l-.814-1.018-.402-.496-.791-.965-.777-.93-.383-.452-.753-.877-.371-.425-.73-.823c-.12-.135-.24-.267-.359-.399l-.705-.77a79.42 79.42 0 0 0-1.027-1.086l-.664-.68a56.81 56.81 0 0 0-1.582-1.54l-.601-.552a30.618 30.618 0 0 0-2.475-2.03 13.72 13.72 0 0 0-1.692-1.072l-.06-.03.047.348c.182 1.2.6 2.733 1.226 4.433 1.434 3.898 3.746 8.17 6.584 11.939 7.189 9.548 16.302 14.427 26.452 12.48a2.588 2.588 0 1 1 .976 5.084c-12.377 2.374-23.299-3.473-31.563-14.45a52.025 52.025 0 0 1-1.314-1.828l-.504-.747c-.332-.5-.655-1.006-.97-1.515l-.463-.765a56.05 56.05 0 0 1-.668-1.153l-.427-.772a55.13 55.13 0 0 1-.207-.386l-.403-.77c-.132-.258-.26-.514-.387-.77l-.369-.767c-.06-.127-.12-.255-.178-.382l-.343-.76C.313 58.002-.673 53.06.582 50.736c1.722-3.112 5.101-2.607 8.962.052l.376.265-.345-.816-.412-1.007c-3.814-9.505-4.709-17.05-2.768-20.795l.096-.179c1.078-1.919 3.066-2.698 5.168-1.683 1.125.543 2.301 1.607 3.799 3.36l.484.577.25.306.472.588.498.635.524.685.581.772-.117-.4a67.74 67.74 0 0 1-1.464-5.991l-.098-.516c-1.231-6.674-.893-11.8.54-14.799 1.243-2.597 3.929-2.797 6.23-1.112 1.49 1.09 3.201 3.123 5.225 6.147.193.288.389.585.588.892l.604.947.622 1.001c.42.686.852 1.41 1.295 2.168l.673 1.166.69 1.22.388.696-.05-.337a66.179 66.179 0 0 1-.58-5.67l-.044-.954-.027-.93c-.15-7.804 1.663-13 5.11-15.214l.218-.135.093-.053Zm18.861 44.884-.06.344c-.74 4.359-1.227 9.324-1.272 13.598-.012 1.118.007 2.17.055 3.141l.048.813c.11 1.585.307 2.924.584 3.954.147.545.307.964.455 1.244l.03.055.05-.023c.951-.527 1.768-2.668 1.89-6.966l.008-.354c.055-2.938-.239-6.532-.89-10.743l-.206-1.282c-.144-.866-.303-1.757-.477-2.673l-.215-1.108Z" transform="translate(5)" fill="url(#a)"/></svg>