<svg viewBox="0 0 90 90" xmlns="http://www.w3.org/2000/svg"><g fill="none" fill-rule="evenodd"><path fill="#F0F1EC" d="M0 0h90v90H0z"/><g fill-rule="nonzero"><path d="M72.093 17.86a12.393 12.393 0 0 0-8.79-3.64 12.393 12.393 0 0 0-8.791 3.64l-9.53 9.53-9.528-9.53a12.395 12.395 0 0 0-8.79-3.64 12.393 12.393 0 0 0-8.791 3.64c-4.855 4.856-4.855 12.727 0 17.581l9.529 9.53 4.431-4.431-9.529-9.53a6.124 6.124 0 0 1-1.806-4.358c0-1.647.642-3.195 1.805-4.36a6.127 6.127 0 0 1 4.36-1.805c1.647 0 3.195.641 4.36 1.806l13.96 13.96 13.96-13.96a6.124 6.124 0 0 1 4.36-1.806 6.12 6.12 0 0 1 4.358 1.806 6.124 6.124 0 0 1 1.806 4.359 6.124 6.124 0 0 1-1.806 4.358L44.983 53.69l4.43 4.43 22.68-22.679c4.855-4.854 4.855-12.725 0-17.58Z" fill="#E63F0C"/><path fill="#E63F0C" d="m44.983 53.69-8.718-8.719-4.432 4.43 8.718 8.719z"/><path d="M17.873 72.08a12.394 12.394 0 0 0 8.79 3.642c3.181 0 6.363-1.214 8.79-3.641l9.53-9.53 9.529 9.53a12.395 12.395 0 0 0 8.79 3.641c3.182 0 6.364-1.214 8.791-3.641 4.855-4.855 4.855-12.727 0-17.58l-9.53-9.53-4.431 4.43 9.53 9.53a6.122 6.122 0 0 1 1.805 4.36 6.121 6.121 0 0 1-1.806 4.358 6.125 6.125 0 0 1-4.359 1.807 6.127 6.127 0 0 1-4.359-1.806l-13.96-13.96-13.96 13.96a6.127 6.127 0 0 1-4.36 1.806 6.128 6.128 0 0 1-4.36-1.807 6.123 6.123 0 0 1-1.805-4.358c0-1.648.642-3.195 1.806-4.36l22.679-22.679-4.432-4.43L17.873 54.5c-4.855 4.854-4.855 12.726 0 17.58Z" fill="#F48026"/><path fill="#F48026" d="m44.983 36.252 8.718 8.72 4.43-4.432-8.717-8.719z"/></g></g></svg>