<svg viewBox="0 0 90 90" xmlns="http://www.w3.org/2000/svg"><g fill="none"><path d="M65.94 70.034a.65.65 0 0 1-.238.887l-1.304.753a.638.638 0 0 1-.871-.233l-2.532-4.387a.631.631 0 0 0-.82-.254 24.17 24.17 0 0 1-8.435 2.278.636.636 0 0 0-.584.633v5.044a.64.64 0 0 1-.64.64h-1.502a.651.651 0 0 1-.651-.652V69.71a.63.63 0 0 0-.583-.629 24.194 24.194 0 0 1-8.446-2.25.642.642 0 0 0-.831.26l-2.505 4.338a.65.65 0 0 1-.887.238l-1.303-.753a.639.639 0 0 1-.234-.872l2.51-4.348a.642.642 0 0 0-.191-.849 24.49 24.49 0 0 1-6.192-6.184.634.634 0 0 0-.838-.188l-4.338 2.506a.645.645 0 0 1-.882-.237l-.744-1.29a.659.659 0 0 1 .24-.9l4.325-2.497a.633.633 0 0 0 .254-.82 24.216 24.216 0 0 1-2.269-8.46.636.636 0 0 0-.634-.587h-4.994a.651.651 0 0 1-.651-.651v-1.506c0-.352.285-.638.637-.638h4.999c.337 0 .617-.26.644-.595a24.215 24.215 0 0 1 2.266-8.448.638.638 0 0 0-.257-.827l-4.325-2.499a.652.652 0 0 1-.239-.89l.747-1.294a.648.648 0 0 1 .885-.237l4.337 2.505a.632.632 0 0 0 .835-.187 24.492 24.492 0 0 1 6.198-6.189.636.636 0 0 0 .189-.84l-2.511-4.352a.64.64 0 0 1 .234-.874l1.303-.753a.648.648 0 0 1 .886.237l2.508 4.346a.634.634 0 0 0 .822.257 24.19 24.19 0 0 1 8.447-2.253.636.636 0 0 0 .588-.634v-5.02c0-.364.294-.659.657-.659h1.494c.354 0 .642.288.642.643v5.04c0 .332.254.606.584.634a24.17 24.17 0 0 1 8.428 2.274.641.641 0 0 0 .831-.258l2.526-4.376a.64.64 0 0 1 .875-.235l1.3.75c.311.18.418.58.238.891l-2.525 4.374a.642.642 0 0 0 .19.849 24.62 24.62 0 0 1 3.479 2.925 2.134 2.134 0 0 0 2.891.15l8.617-7.212c.897-.75.96-2.131.183-3.011-8.34-8.834-19.64-13.242-31.39-12.55-19.305 1.095-35.625 16.263-37.27 36.66-1.59 23.683 16.749 42.604 39.613 42.799 11.545-.132 21.74-4.925 28.76-12.335a2.416 2.416 0 0 0-.207-3.515l-8.497-7.11a1.857 1.857 0 0 0-2.526.13 24.61 24.61 0 0 1-3.66 3.109.633.633 0 0 0-.187.836l2.53 4.384Z" fill="#248BD2"/><path d="M49.953 48.528a3.858 3.858 0 0 1-4.052-4.054 3.872 3.872 0 0 1 3.65-3.653 3.858 3.858 0 0 1 4.053 4.055 3.872 3.872 0 0 1-3.651 3.652m2.886-15.26c-6.404-1.626-12.262 1.99-14.201 7.463a.66.66 0 0 0 .296.79l4.498 2.598a.641.641 0 0 1 0 1.11l-4.503 2.602a.653.653 0 0 0-.293.78c1.62 4.58 5.983 7.862 11.116 7.862 7.545 0 13.435-7.087 11.381-14.97-.937-3.597-4.692-7.321-8.294-8.235" fill="#423B3D"/></g></svg>