<svg viewBox="0 0 90 90" xmlns="http://www.w3.org/2000/svg"><g fill="none" fill-rule="evenodd"><path fill="#FFF" d="M0 0h90v90H0z"/><path d="M45 5C22.91 5 5 22.91 5 45s17.91 40 40 40 40-17.91 40-40S67.09 5 45 5Zm26.427 16.553.14 2.92-3.054.524c-2.35.646-4.4 1.55-6.143 2.71-1.743 1.16-3.22 2.433-4.433 3.826a20.49 20.49 0 0 0-2.96 4.464l-.054.12a48.623 48.623 0 0 0-2.166 5.33 16.64 16.64 0 0 1 4.366-2.707l.11-.04c1.737-.743 3.804-1.117 6.214-1.117 2.796 0 5.143.987 7.036 2.947 1.894 1.96 2.844 4.517 2.844 7.66 0 4.697-1.804 8.76-5.414 12.197-3.61 3.436-8.046 5.156-13.306 5.156-4.184 0-7.52-1.246-10.01-3.74-2.49-2.493-3.734-5.81-3.734-9.936 0-7.877 2.8-14.624 8.4-20.244 5.6-5.62 12.984-8.973 22.167-10.076l-.003.006Zm-40.01 13.79c1.45 0 2.793.09 4.036.27a12.86 12.86 0 0 1 3.55 1.024l-.08-.034a6.102 6.102 0 0 1 2.35 1.867l.01.013c.564.774.84 1.71.84 2.814 0 1.103-.393 2.046-1.186 2.84-.79.793-1.83 1.186-3.11 1.186-1.107 0-2.024-.303-2.76-.906a7.365 7.365 0 0 1-1.79-2.14 13.769 13.769 0 0 1-1.09-2.614 154.79 154.79 0 0 1-.657-2.246c-1.337.08-2.55.593-3.647 1.53-1.096.936-1.65 2.096-1.65 3.486 0 .844.13 1.507.387 1.987.257.48.613.883 1.037 1.193l.01.007a8.93 8.93 0 0 0 1.813.987l.06.02c.503.23 1.437.59 2.38.93l.44.136c2.593.96 4.55 2.117 5.867 3.46 1.07 1.094 1.696 2.474 1.896 4.137-.026-.39.39 3.697.06.61.007.187.02.377.02.57a9.432 9.432 0 0 1-.963 4.15 8.869 8.869 0 0 1-2.727 3.307 14.2 14.2 0 0 1-4.453 2.153l-.1.023c-1.72.49-3.907.737-6.557.737-2.406 0-4.393-.203-5.963-.613-1.57-.41-2.817-.94-3.733-1.58-.937-.644-1.577-1.327-1.917-2.057-.34-.73-.517-1.417-.517-2.057 0-1.163.417-2.183 1.244-3.053.826-.87 1.933-1.303 3.303-1.303 1.147 0 2.103.306 2.877.926a7.751 7.751 0 0 1 1.913 2.304l.02.04c.453.813.863 1.76 1.173 2.746l.03.107c.117.3.354 1.073.574 1.853l.113.464c2.157 0 3.79-.48 4.897-1.454 1.106-.973 1.66-2.303 1.66-3.986 0-.74-.167-1.36-.5-1.86-.334-.5-.78-.944-1.33-1.327-.554-.36-1.257-.71-2.117-1.05a89.9 89.9 0 0 0-2.55-.963c-2.31-.82-4.133-1.957-5.48-3.41-1.347-1.454-2.017-3.26-2.017-5.427v-.043c0-1.304.31-2.534.864-3.624l-.02.047c.566-1.133 1.446-2.18 2.646-3.147 1.184-.92 2.68-1.653 4.494-2.203 1.813-.55 3.93-.83 6.353-.83l-.003.003ZM58.14 41.59a7.44 7.44 0 0 0-3.11.663c-.977.444-2.017 1.324-3.113 2.64-.134.61-.364 1.78-.7 3.517-.337 1.737-.507 3.873-.507 6.41 0 2.593.41 4.613 1.217 6.067.806 1.453 1.886 2.183 3.226 2.183 2.087 0 3.894-1.44 5.427-4.317h.007c1.533-2.88 2.3-6.373 2.3-10.48 0-2.06-.447-3.693-1.34-4.893-.894-1.2-2.027-1.793-3.407-1.793v.003Z" fill="#000" fill-rule="nonzero"/></g></svg>