<svg viewBox="0 0 90 90" xmlns="http://www.w3.org/2000/svg"><path d="M50.465 14.781c9.033-9.041 23.73-9.041 32.76 0 9.033 9.043 9.033 23.756 0 32.798L51.558 79.283a9.259 9.259 0 0 1-13.104 0l38.22-38.264a13.832 13.832 0 0 0 4.072-9.839c0-3.717-1.446-7.211-4.071-9.84-5.42-5.424-14.237-5.424-19.656 0L31.9 46.487 19.89 34.46a4.642 4.642 0 0 1 0-6.56 4.63 4.63 0 0 1 6.552 0l5.46 5.466 18.564-18.585Zm-43.68 0c8.665-8.674 22.542-9.025 31.631-1.055l-6.576 6.583c-5.452-4.367-13.453-4.024-18.503 1.032-5.42 5.425-5.42 14.253 0 19.679L31.9 59.605 63.57 27.9a4.63 4.63 0 0 1 6.552 0 4.642 4.642 0 0 1 0 6.56l-38.22 38.263L6.784 47.58A23.054 23.054 0 0 1 0 31.18c0-6.194 2.41-12.018 6.785-16.399Z" fill="#00A88F" fill-rule="evenodd"/></svg>