<svg viewBox="0 0 90 90" xmlns="http://www.w3.org/2000/svg"><g fill="none" fill-rule="evenodd"><path fill="#FFF" d="M0 0h90v90H0z"/><g fill-rule="nonzero"><path d="M28.22 20.379h40.138A4.638 4.638 0 0 1 73 25.013a4.638 4.638 0 0 1-4.642 4.635H28.22v-9.27Zm9.865 19.986h30.273A4.638 4.638 0 0 1 73 45a4.638 4.638 0 0 1-4.642 4.634H38.085v-9.269ZM28.22 60.351h40.138A4.638 4.638 0 0 1 73 64.986a4.638 4.638 0 0 1-4.642 4.634H28.22v-9.269Z" fill="#B2CADB"/><path d="M25.028 33.027c4.433 0 8.027-3.587 8.027-8.013S29.461 17 25.028 17C20.594 17 17 20.588 17 25.014c0 4.426 3.594 8.013 8.028 8.013Zm14.701 19.986c4.433 0 8.027-3.588 8.027-8.013 0-4.426-3.594-8.014-8.027-8.014-4.434 0-8.028 3.588-8.028 8.014 0 4.425 3.594 8.013 8.028 8.013ZM25.028 73c4.433 0 8.027-3.588 8.027-8.014 0-4.426-3.594-8.013-8.027-8.013-4.434 0-8.028 3.587-8.028 8.013S20.594 73 25.028 73Z" fill="#47525B"/></g></g></svg>