<svg viewBox="0 0 90 90" xmlns="http://www.w3.org/2000/svg"><g fill="none" fill-rule="evenodd"><path fill="#2D53A3" d="M0 0h90v90H0z"/><g fill="#FFFFFE" fill-rule="nonzero"><path d="M72.941 90a61.718 61.718 0 0 0 1.918-6.204 57.116 57.116 0 0 0 1.585-13.397 57.6 57.6 0 0 0-.535-7.82c-.259 3.744-.912 7.026-.912 7.026.154.494.426 1.306.552 1.808v.002a66.737 66.737 0 0 1-2.157 11.232 44.282 44.282 0 0 0-1.195-3.673l-.002-.006C70.87 82.498 68.89 86.656 67.091 90h5.85"/><path d="M60.676 90h3.382c9.627-14.22 10.11-26.823 10.11-29.239 0-4.56-.766-8.752-2.046-12.07 0 0-1.998-5.158-5.108-9.748.339 1.026.99 3.105 1.352 4.962.024.124.043.234.06.335.613 1.021 3.377 5.894 3.746 11.253l.002.016s-1.953-2.735-3.402-4.463c-.051 2.945-.434 5.892-1.05 8.74 0 0 2.893 3.35 4.187 5.511 0 0-.88 4.714-2.767 9.23-1.92-2.792-4.373-5.505-4.373-5.505-1.436 3.548-3.253 7.117-5.27 10.418 0 0 3.666 4.29 4.47 5.513A75.77 75.77 0 0 1 60.676 90"/><path d="M48.626 90c6.39-7.145 11.833-15.55 15.104-24.55 2.837-7.808 4.382-17.344 1.869-25.826a22.656 22.656 0 0 0-.578-1.691c-.803-2.075-1.844-3.884-2.977-5.305a56.945 56.945 0 0 0-10.307-9.048 20.859 20.859 0 0 1 1.507 2.208s4.616 3.425 7.296 6.904c-3.437-2.45-5.384-3.44-5.636-3.566l-.03-.015c1.306 3.22 1.7 5.885 1.7 5.89 0 0 4.079 2.128 7.751 5.308.509 2.351.719 4.76.684 7.173-3.7-3.257-7.984-5.8-7.984-5.8-.079 2.758-.46 5.55-1.066 8.265 0 0 4.045 2.561 7.986 6.151 0 0-1.131 5.089-2.958 9.09a98.27 98.27 0 0 0-7.76-6.474s-1.877 4.895-4.918 9.809a233.146 233.146 0 0 1 7.345 6.708 80.283 80.283 0 0 1-7.287 9.64l-.002.002-6.772-6.744a89.82 89.82 0 0 1-8.973 9.567L34.696 90h13.93"/><path d="M50.364 24.333c-.438-.6-.934-1.21-1.502-1.753a16.945 16.945 0 0 0-1.497-1.291c-5.635-4.249-16.007-6.374-16.007-6.374a25.57 25.57 0 0 1 1.819 1.073c.05.012 4.231 1.06 7.94 2.874 0 0-3.374-.766-5.538-1.064a20.12 20.12 0 0 1 2.49 2.635s6.881 1.255 9.902 2.911c0 0 1.447 1.489 2.629 4.1-4.717-1.916-10.058-2.914-10.058-2.914a21.586 21.586 0 0 1 1.528 5.06s5.872 1.438 10.285 3.556c.381 2.096.521 4.262.44 6.453-5.211-2.613-10.385-4.254-10.385-4.254-.104 2.259-.467 4.6-1.077 6.992 0 0 7.115 3.177 10.313 5.106-.706 2.825-1.697 5.591-2.889 8.256-4.87-3.165-10.025-5.978-10.025-5.978-1.294 3.109-4.48 8.201-4.48 8.201l.001.001.003.002c.08.055 5.381 3.694 9.447 6.923a78.254 78.254 0 0 1-6.776 8.797c-.856-.818-8.67-7.755-8.67-7.755a83.857 83.857 0 0 1-7.858 7.95l7.533 8.525.002.002h-.001a104.83 104.83 0 0 1-9.757 7.072l-6.286-8.923S7.467 83.881.002 87.413V90h24.514C51.88 69.297 61.59 39.693 50.364 24.333"/><path d="M36.485 21.226c-6.796-9.147-17.434-7.84-20.606-7.396-3.485.488-6.12 1.25-6.12 1.25.78.074 1.839.213 2.604.365.564-.133 5.455-1.248 9.01-.782h.01c-2.613.284-6.177 1.361-6.549 1.475-.004.001-.005.004-.009.005l.012.005c.128.037 1.155.349 2.473 1.122.385-.103 5.224-1.387 9.84-1.478v.001s1.705.757 3.348 1.885c-5.963-.023-10.9 1.122-11.034 1.154a12.792 12.792 0 0 1 2.018 2.26c6.536-.98 12.177-.555 12.177-.555s.767.936 1.112 1.439c.436.633.88 1.42 1.226 2.111-6.672-.78-13.054-.222-13.058-.222.44 1.136.738 2.351.902 3.629.737-.006 6.388.005 13.585 1.3.23 1.65.253 3.418.071 5.283-1.223-.318-7.132-1.794-13.58-2.434a27.361 27.361 0 0 1-.907 5.01c.722.17 8.687 2.068 13.15 3.876-.087.28-.178.561-.272.844a45.885 45.885 0 0 1-2.382 5.757c-3.592-1.77-12.403-5.213-12.403-5.213a47.348 47.348 0 0 1-3.216 5.956s7.553 4.31 11.191 6.697a68.417 68.417 0 0 1-5.668 7.033c-2.638-2.367-9.238-7.48-9.736-7.866-2.129 2.534-4.81 5.2-5.612 5.987l7.92 9.081c-.073.066-.15.133-.227.2-1.714 1.42-3.56 2.758-5.12 3.83-1.355.92-2.473 1.633-2.86 1.882-.09-.14-5.276-8.42-6.055-9.737a63.72 63.72 0 0 1-1.718 1.223v17.02c.932-.45 1.865-.915 2.796-1.41 4.466-2.198 8.798-4.988 12.831-8.211a81.113 81.113 0 0 0 7.971-7.24c3.18-3.26 5.942-6.677 8.246-10.139 8.735-12.892 11.074-26.335 4.639-34.997"/><path d="M18.855 20.537c-3.237-3.714-8.624-4.987-14.883-4.092-.17.025-.348.05-.507.076-.477.08-.96.179-1.448.286-.967.224-1.63.445-2.015.596v1.873a30.135 30.135 0 0 1 1.893-1.383 25.196 25.196 0 0 1 3.627-.514 46.714 46.714 0 0 0-5.52 3.724v1.441l.056.033s4.587-3.63 8.232-5.195c.879.063 1.72.186 2.522.37-5.447 2.31-9.468 5.176-9.746 5.377.56.331 1.069.746 1.136.8.07-.044 5.35-3.346 11.161-5.325.788.36 1.55.809 2.21 1.317-6.328 1.778-12.41 4.953-12.41 4.953.342.399.644.83.906 1.291.04-.016.079-.03.108-.043 6.476-2.772 13.357-4.192 13.357-4.192.538.737.982 1.56 1.32 2.468 0 0-6.175.706-14.12 3.253.35 1.098.447 1.924.448 1.93 0 0 7.49-1.675 14.397-1.86.096 1.11.062 2.355-.098 3.633-4.09-.216-13.834.303-14.217.332 0 0-.035 1.404-.4 2.725 0 0 7.12.228 13.596 1.436-.5 1.55-1.14 3.08-1.899 4.573-4.315-1.297-10.866-2.87-12.589-3.266a21.147 21.147 0 0 1-1.7 3.298s8.004 3.493 11.075 5.201h.006v.003c-1.333 1.996-3.976 4.79-3.976 4.79-.767-.573-1.491-1.11-2.175-1.61-2.122-1.485-5.27-3.69-7.184-5.022l-.016-.01v6.617l4.15 4.848a49.887 49.887 0 0 1-4.15 3.008v3.948l.152-.1a59.94 59.94 0 0 0 5.594-4.316c14.32-12.46 20.188-29.148 13.107-37.272"/></g></g></svg>