<svg viewBox="0 0 90 90" xmlns="http://www.w3.org/2000/svg" xmlns:xlink="http://www.w3.org/1999/xlink"><defs><linearGradient x1="50%" y1="0%" x2="50%" y2="100%" id="a"><stop stop-color="#EEE" offset="0%"/><stop stop-color="#FFF" offset="100%"/></linearGradient><linearGradient x1="50%" y1="0%" x2="50%" y2="100%" id="b"><stop stop-color="#D9D9D9" offset="0%"/><stop stop-color="#EEE" offset="100%"/></linearGradient><linearGradient x1="50%" y1="0%" x2="50%" y2="100%" id="e"><stop stop-color="#111415" offset="0%"/><stop stop-color="#181B1D" offset="100%"/></linearGradient><filter x="-6%" y="-6%" width="112%" height="112%" filterUnits="objectBoundingBox" id="d"><feGaussianBlur stdDeviation=".5" in="SourceAlpha" result="shadowBlurInner1"/><feOffset dy="1" in="shadowBlurInner1" result="shadowOffsetInner1"/><feComposite in="shadowOffsetInner1" in2="SourceAlpha" operator="arithmetic" k2="-1" k3="1" result="shadowInnerInner1"/><feColorMatrix values="0 0 0 0 0.788235294 0 0 0 0 0.788235294 0 0 0 0 0.788235294 0 0 0 1 0" in="shadowInnerInner1"/></filter><circle id="c" cx="45" cy="45" r="12.522"/></defs><g fill="none"><path d="M45 0c24.853 0 45 20.147 45 45S69.853 90 45 90 0 69.853 0 45 20.147 0 45 0Z" fill="#505050"/><path d="M45 1C20.7 1 1 20.7 1 45s19.7 44 44 44 44-19.7 44-44S69.3 1 45 1Z" fill="#FFF"/><path d="M45 8.5C24.842 8.5 8.5 24.842 8.5 45S24.842 81.5 45 81.5 81.5 65.158 81.5 45 65.158 8.5 45 8.5Z" fill="#505050"/><path d="M45 9.5c19.606 0 35.5 15.894 35.5 35.5S64.606 80.5 45 80.5 9.5 64.606 9.5 45 25.394 9.5 45 9.5Z" fill="#0091FF"/><circle fill="url(#a)" cx="45" cy="45" r="27.783"/><use fill="url(#b)" xlink:href="#c"/><use fill="#000" filter="url(#d)" xlink:href="#c"/><circle stroke-opacity=".398" stroke="#FFF" stroke-width=".5" cx="45" cy="45" r="12.772"/><path d="M49.696 24.652c.864 0 1.565.7 1.565 1.565V47.11l-2.228 2.228a.783.783 0 0 0-.075 1.019l.075.088 2.227 2.227v11.11c0 .865-.7 1.566-1.564 1.566h-9.392c-.864 0-1.565-.7-1.565-1.565V42.889l2.228-2.227a.783.783 0 0 0 .075-1.019l-.075-.088-2.228-2.228v-11.11c0-.864.7-1.565 1.565-1.565h9.392Z" fill="url(#e)"/><path d="M49.696 25.152h-9.392c-.549 0-1 .416-1.059.95l-.006.115V37.12l2.106 2.109.099.116c.35.472.332 1.119-.033 1.57l-.09.1-2.082 2.08v20.688c0 .549.416 1 .95 1.059l.115.006h9.392c.549 0 1-.416 1.059-.95l.006-.115-.001-10.904-2.105-2.108-.099-.116a1.283 1.283 0 0 1 .033-1.57l.09-.1 2.081-2.083V26.217c0-.549-.415-1-.948-1.059l-.116-.006Z" fill="#373D42"/></g></svg>