<svg viewBox="0 0 90 90" xmlns="http://www.w3.org/2000/svg"><g fill="none" fill-rule="evenodd"><path fill="#540CBD" d="M0 0h90v90H0z"/><g fill-rule="nonzero"><path d="M31.922 18.709H21.328l14.101 18.803 4.477-6.267a5.058 5.058 0 0 0 0-6.268l-2.985-4.043a6.582 6.582 0 0 0-4.812-2.225m16.303 37.867 5.894 8.122a5.233 5.233 0 0 0 4.44 2.225h10.483L53.262 44.67l-4.477 4.896a5.612 5.612 0 0 0-.373 7.01" fill="#FFF"/><path d="M74 15.002 18.337 74.698c-.714.75-1.84 0-1.089-1.125L57.56 17.251a4.693 4.693 0 0 1 4.129-2.25H74Z" fill="#00A7F6"/></g></g></svg>