<svg viewBox="0 0 90 90" xmlns="http://www.w3.org/2000/svg"><g fill="none" fill-rule="evenodd"><path fill="#FFF" d="M0 0h90v90H0z"/><path d="m15.841 18.021.096.003a3.052 3.052 0 0 1 2.726 1.967s3.08 7.847 6.651 16.898l.295.747.893 2.263.3.76.15.38a6039.69 6039.69 0 0 0 3.374 8.52 5965.19 5965.19 0 0 0 3.523-8.9l.3-.76c4.046-10.246 7.84-19.908 7.84-19.908a3.052 3.052 0 0 1 2.726-1.967 3.124 3.124 0 0 1 2.63 1.28 3.06 3.06 0 0 1 .334 2.884s-2.915 7.426-6.361 16.166l-.293.741a8962.32 8962.32 0 0 1-1.64 4.154l-.948 2.4c-1.79 4.526-3.551 8.964-4.98 12.54a878.284 878.284 0 0 1-2.117 5.26c-1.571 3.855-3.95 6.918-8.604 8.132-3.11.499-3.784.416-6.26.432a3.107 3.107 0 0 1-2.227-.74 3.054 3.054 0 0 1-1.041-2.087 3.051 3.051 0 0 1 .766-2.203 3.1 3.1 0 0 1 2.115-1.014s2.651-.167 5.117-.361c1.445-.085 2.99-1.287 3.738-2.738.299-.621.407-.942.732-1.689.37-.907.846-2.092 1.363-3.38-1.658-4.15-3.727-9.373-5.773-14.552l-.301-.761-.15-.38-.3-.759c-3.934-9.967-7.543-19.161-7.543-19.161a3.06 3.06 0 0 1 .334-2.883 3.132 3.132 0 0 1 2.44-1.284c.063-.001.127 0 .19.003ZM49.985 53.72c.498-.818 2.531.125 3.399.433 4.934 1.69 9.62 4.02 14.245 6.391 1.617.819 2.206 3.034 1.225 4.48-.834 1.533-3.085 2.046-4.568 1.008-4.27-2.957-8.53-5.985-12.333-9.53-.678-.619-2.466-1.964-1.968-2.782Zm23.382-11.653c1.811-.129 3.47 1.465 3.385 3.206.085 1.74-1.574 3.334-3.385 3.205-5.196-.342-10.421-.75-15.526-1.833-.903-.182-3.135-.417-3.135-1.372 0-.956 2.232-1.19 3.135-1.373 5.105-1.083 10.33-1.491 15.526-1.833Zm-4.513-16.545c.981 1.446.392 3.66-1.225 4.48-4.625 2.37-9.311 4.701-14.245 6.39-.868.308-2.9 1.251-3.4.433-.497-.818 1.29-2.163 1.969-2.782 3.803-3.544 8.064-6.573 12.333-9.53 1.483-1.038 3.734-.525 4.568 1.009Z" fill="#0073C6" fill-rule="nonzero"/></g></svg>