<svg viewBox="0 0 90 90" xmlns="http://www.w3.org/2000/svg"><defs><linearGradient x1="-10.874%" y1="18.795%" x2="87.054%" y2="68.419%" id="a"><stop stop-color="#185ABD" offset="0%"/><stop stop-color="#3272D1" offset="100%"/></linearGradient><linearGradient x1="122.159%" y1="-16.258%" x2=".887%" y2="99.927%" id="b"><stop stop-color="#57BFF5" offset="0%"/><stop stop-color="#2988E6" offset="100%"/></linearGradient></defs><g fill="none" fill-rule="evenodd"><path fill="#FFF" d="M0 0h90v90H0z"/><g fill-rule="nonzero"><path d="m31.502 53.076 9.906-9.925a2.883 2.883 0 0 0 0-4.071L15.205 12.827a2.867 2.867 0 0 0-4.063 0l-9.906 9.925a2.883 2.883 0 0 0 0 4.07L27.44 53.077a2.867 2.867 0 0 0 4.063 0Z" fill="url(#a)" transform="translate(10 18)"/><path d="M27.523 53.147 17.467 43.071a2.775 2.775 0 0 1 0-3.92l37.635-37.71a2.762 2.762 0 0 1 3.912 0L69.07 11.519a2.775 2.775 0 0 1 0 3.92L31.436 53.147a2.765 2.765 0 0 1-3.913 0Z" fill="url(#b)" transform="translate(10 18)"/></g></g></svg>