<svg viewBox="0 0 90 90" xmlns="http://www.w3.org/2000/svg"><g fill="none" fill-rule="evenodd"><path d="m58.52 3.632 15.46 8.946A27.119 27.119 0 0 1 87.5 36.053v17.894a27.119 27.119 0 0 1-13.52 23.475l-15.46 8.946a26.985 26.985 0 0 1-27.04 0l-15.46-8.946A27.119 27.119 0 0 1 2.5 53.947V36.053a27.119 27.119 0 0 1 13.52-23.475l15.46-8.946a26.985 26.985 0 0 1 27.04 0Z" fill="#098DE3"/><path d="m45.33 37.296-24.784-.02-1.54-2.649L20.545 32H45.33l-1.54 2.648 1.54 2.648Zm-4.753 18.778L54.684 32h3.102l1.541 2.648L45.22 58.722l-1.541-2.648h-3.102Zm22.67 0L77.356 32h3.103L82 34.648 67.892 58.722l-1.542-2.648h-3.103ZM66.55 41.66l-8.43 14.414h-3.104l-1.541-2.648 8.43-14.415 1.54 2.648h3.105v.001ZM34.324 56.074H9.542L8 53.446l1.541-2.648h24.783l-1.541 2.648 1.54 2.626v.002ZM15.066 41.4h16.86l1.54 2.648-1.54 2.649h-16.86l1.54-2.648-1.54-2.648V41.4Z" fill="#FFF" fill-rule="nonzero"/></g></svg>