<svg viewBox="0 0 90 90" xmlns="http://www.w3.org/2000/svg"><defs><linearGradient x1="50%" y1="0%" x2="50%" y2="100%" id="a"><stop stop-color="#EC400F" offset="0%"/><stop stop-color="#E60072" offset="100%"/></linearGradient></defs><g fill="none" fill-rule="evenodd"><rect fill="url(#a)" width="90" height="90" rx="45"/><path d="m33.508 63.965-.104-5.157-4.327 2.561c-2.389 1.385-4.43 2.527-4.57 2.562-.172 0-.276-8.1-.276-18s.104-18 .277-18c.138.034 2.18 1.177 4.569 2.561l4.327 2.562.173-5.158.173-5.123 2.423 1.42c5.4 3.115 29.7 17.169 33.508 19.35l4.119 2.319-3.427 1.973c-1.87 1.107-4.085 2.423-4.95 2.942-1.28.761-7.58 4.43-14.885 8.585-1.003.553-10.315 5.953-15.473 8.93l-1.453.866-.104-5.193Zm32.261-18.034c0-.104-.9-.693-1.973-1.316a547.41 547.41 0 0 1-11.63-6.715c-.9-.52-1.697-.97-1.766-.97-.07 0-1.558-.865-3.288-1.903-1.766-1.039-3.22-1.904-3.289-1.904-.07 0-1.42-.761-3.011-1.73-1.593-.935-3.012-1.731-3.15-1.731-.174 0-.277 1.28-.277 2.873l.034 2.838 8.966 5.158c4.95 2.873 9 5.296 9 5.4 0 .173-10.835 6.577-16.512 9.727l-1.488.83v5.989l14.192-8.17c7.788-4.534 14.192-8.272 14.192-8.376Zm-34.754 9.761 2.458-1.419.035-8.308v-8.342l-1.939-1.177c-1.107-.623-2.319-1.35-2.734-1.558l-.797-.38.035 11.423c0 6.3.104 11.388.242 11.319.139-.07 1.35-.796 2.7-1.558Zm10.8-6.196c2.216-1.246 4.5-2.596 5.02-2.977l.969-.657-4.777-2.77c-2.63-1.523-4.985-2.873-5.192-2.942-.347-.138-.45 1.142-.45 5.746 0 3.254.069 5.92.173 5.92.104 0 2.007-1.04 4.257-2.32Z" fill="#FFF" fill-rule="nonzero"/></g></svg>