<svg viewBox="0 0 90 90" xmlns="http://www.w3.org/2000/svg"><defs><linearGradient x1="0%" y1="49.908%" x2="99.897%" y2="49.908%" id="a"><stop stop-color="#20479D" offset="0%"/><stop stop-color="#0044BC" offset="3%"/><stop stop-color="#00AAD1" offset="100%"/></linearGradient></defs><g fill="none"><path d="m86.685 64.095-56.34 24.69a4.05 4.05 0 0 1-5.34-2.07L.345 30.345a4.05 4.05 0 0 1 2.07-5.34L58.755.345a4.05 4.05 0 0 1 5.34 2.07l24.69 56.34a4.08 4.08 0 0 1-2.1 5.34Z" fill="#FFF"/><path d="M44.535 57.225c-6.627 0-12-5.373-12-12v-3.96c0-6.627 5.373-12 12-12h17.64a3.69 3.69 0 0 0 3.69-3.675V22.5a3.69 3.69 0 0 0-3.69-3.675h-19.5c-11.192.033-20.26 9.088-20.31 20.28V47.4c.008 11.238 9.117 20.347 20.355 20.355h19.5a3.69 3.69 0 0 0 3.69-3.675v-3.195a3.69 3.69 0 0 0-3.69-3.675l-17.685.015Z" fill="url(#a)"/></g></svg>