<svg viewBox="0 0 90 90" xmlns="http://www.w3.org/2000/svg"><g fill="none" fill-rule="evenodd"><path fill="#152535" d="M0 0h90v90H0z"/><g fill-rule="nonzero"><path d="M31 58.36V21h5.836v13.897c2.387-3.11 5.511-4.651 9.431-4.651 2.565 0 4.834.64 6.78 1.89 1.945 1.279 3.418 2.994 4.45 5.146C58.499 39.433 59 41.875 59 44.579c0 2.733-.501 5.175-1.533 7.356-1.031 2.18-2.505 3.896-4.45 5.175-1.945 1.28-4.215 1.89-6.75 1.89-3.89 0-7.014-1.57-9.431-4.68v4.04H31Zm5.836-13.723c0 2.675.707 4.885 2.122 6.6 1.415 1.716 3.419 2.588 5.983 2.588 2.535 0 4.48-.843 5.836-2.559 1.356-1.715 2.034-3.925 2.034-6.6 0-2.674-.678-4.884-2.034-6.6-1.356-1.715-3.301-2.587-5.836-2.587-2.564 0-4.539.872-5.983 2.617-1.415 1.715-2.122 3.925-2.122 6.541Z" fill="#FFF"/><path fill="#53B6E4" d="M31 64h28v6H31z"/></g></g></svg>