<svg viewBox="0 0 90 90" xmlns="http://www.w3.org/2000/svg"><g fill="none"><path d="M81.895 44.908c0 20.383-16.524 36.908-36.908 36.908-20.385 0-36.909-16.525-36.909-36.908C8.078 24.524 24.603 8 44.987 8s36.908 16.524 36.908 36.908Z" fill="#DD4814"/><path d="M19.89 39.98a4.928 4.928 0 1 0-.002 9.855 4.928 4.928 0 0 0 .002-9.855Zm35.183 22.396a4.925 4.925 0 0 0-1.803 6.729 4.924 4.924 0 0 0 6.729 1.804 4.925 4.925 0 0 0 1.803-6.73 4.927 4.927 0 0 0-6.729-1.803Zm-24.48-17.468c0-4.87 2.42-9.172 6.12-11.777l-3.602-6.034a21.454 21.454 0 0 0-8.852 12.444 6.91 6.91 0 0 1 2.55 5.367 6.91 6.91 0 0 1-2.55 5.367A21.439 21.439 0 0 0 33.11 62.72l3.602-6.036c-3.7-2.604-6.12-6.906-6.12-11.776Zm14.394-14.394c7.52 0 13.688 5.765 14.336 13.118l7.021-.104c-.345-5.428-2.717-10.3-6.36-13.884a6.91 6.91 0 0 1-5.908-.479 6.9 6.9 0 0 1-3.37-4.886 21.466 21.466 0 0 0-5.72-.777 21.33 21.33 0 0 0-9.486 2.215l3.424 6.136a14.336 14.336 0 0 1 6.063-1.34Zm0 28.788a14.338 14.338 0 0 1-6.063-1.34L35.5 64.099a21.403 21.403 0 0 0 15.206 1.438 6.904 6.904 0 0 1 3.37-4.886 6.904 6.904 0 0 1 5.908-.479c3.644-3.583 6.015-8.456 6.36-13.884l-7.023-.103C58.675 53.538 52.506 59.3 44.987 59.3Zm10.085-31.864a4.924 4.924 0 0 0 6.729-1.802 4.926 4.926 0 1 0-8.533-4.926 4.926 4.926 0 0 0 1.804 6.728Z" fill="#FFF"/></g></svg>