<svg viewBox="0 0 90 90" xmlns="http://www.w3.org/2000/svg"><g fill="none" fill-rule="evenodd"><path fill="#000" d="M0 0h90v90H0z"/><path d="M24.91 29h.124c.945 1.084 2.013 2.044 3.02 3.082l6.844 6.844v.124c-3.313 3.298-6.612 6.628-9.926 9.926-3.329-3.314-6.643-6.643-9.972-9.957.17-.325.496-.542.743-.805 3.05-3.082 6.148-6.117 9.168-9.214Zm19.976 0h.124c.094.14.186.263.31.387 3.205 3.175 6.365 6.396 9.6 9.555-.077.185-.247.31-.386.449-3.205 3.19-6.396 6.395-9.601 9.585-3.345-3.298-6.628-6.659-9.988-9.942 3.252-3.39 6.674-6.658 9.941-10.034Zm19.976 0h.124c.62.743 1.347 1.378 2.013 2.075l7.51 7.51c.125.14.326.264.372.465-3.36 3.267-6.612 6.659-9.988 9.926l-9.523-9.523c-.155-.17-.356-.295-.434-.511 1.688-1.642 3.33-3.33 5.002-4.987 1.641-1.657 3.314-3.267 4.924-4.955ZM35.084 58.809c3.268-3.267 6.55-6.535 9.818-9.818l.139.062c3.283 3.299 6.566 6.597 9.88 9.864-.109.248-.34.388-.511.589-2.385 2.37-4.77 4.77-7.155 7.139-.774.743-1.517 1.579-2.307 2.276-1.13-1.022-2.168-2.168-3.267-3.221-2.23-2.23-4.444-4.46-6.69-6.674.031-.062.062-.155.093-.217Z" fill="#FFF" fill-rule="nonzero"/></g></svg>