<svg viewBox="0 0 90 90" xmlns="http://www.w3.org/2000/svg"><g fill="none" fill-rule="evenodd"><path fill="#FFF" d="M0 0h90v90H0z"/><path d="M44.964 59.25c2.524 0 4.569 1.343 4.569 3 0 1.248 2.284 19.664 2.284 21.75 0 2.486-3.068 4.5-6.853 4.5-3.784 0-6.852-2.014-6.852-4.5 0-2.086 2.284-20.502 2.284-21.75 0-1.657 2.045-3 4.568-3Zm12.341-7.125c1.262-2.186 3.448-3.285 4.882-2.457 1.081.625 18.172 7.855 19.979 8.898 2.153 1.243 2.363 4.906.47 8.184-1.892 3.278-5.17 4.927-7.323 3.684-.89-.514-4.936-3.49-8.942-6.453l-.706-.522c-3.872-2.865-7.53-5.58-8.046-5.878-1.435-.828-1.576-3.27-.314-5.456Zm-29.563-2.457c1.434-.828 3.62.271 4.882 2.457 1.262 2.186 1.12 4.628-.314 5.456-.564.326-4.864 3.526-9.105 6.662l-.706.521c-3.636 2.686-7.072 5.202-7.883 5.67-2.154 1.243-5.431-.406-7.324-3.684-1.892-3.278-1.682-6.941.471-8.184.812-.469 4.709-2.186 8.853-3.992l.804-.35c.134-.06.269-.118.403-.176l.805-.35c4.418-1.921 8.597-3.731 9.114-4.03Zm47.571-30.102c2.153-1.243 5.431.406 7.324 3.684 1.892 3.278 1.682 6.941-.471 8.184-1.807 1.043-18.898 8.273-19.98 8.898-1.433.828-3.619-.271-4.88-2.457-1.263-2.186-1.122-4.628.313-5.456.517-.298 4.174-3.013 8.046-5.878l.706-.522c4.006-2.963 8.052-5.94 8.942-6.453ZM7.293 23.25c1.892-3.278 5.17-4.927 7.323-3.684.811.468 4.247 2.984 7.883 5.67l.706.521c4.24 3.136 8.541 6.336 9.105 6.662 1.434.828 1.576 3.27.314 5.456-1.262 2.186-3.448 3.285-4.882 2.457-.517-.299-4.696-2.109-9.114-4.03l-.805-.35-.403-.175-.804-.35c-4.144-1.807-8.041-3.524-8.853-3.993-2.153-1.243-2.363-4.906-.47-8.184ZM44.963 1.5c3.785 0 6.853 2.014 6.853 4.5 0 2.086-2.284 20.502-2.284 21.75 0 1.657-2.045 3-4.569 3-2.523 0-4.568-1.343-4.568-3 0-1.248-2.284-19.664-2.284-21.75 0-2.486 3.068-4.5 6.852-4.5Z" fill="#FDB931" fill-rule="nonzero"/></g></svg>