<svg viewBox="0 0 90 90" xmlns="http://www.w3.org/2000/svg"><path d="M1.954 35.424c-.506 0-.991.198-1.355.551A1.983 1.983 0 0 0 0 37.321v4.387c.037.498.258.963.62 1.303a1.949 1.949 0 0 0 2.666 0 1.98 1.98 0 0 0 .62-1.303V37.32a1.982 1.982 0 0 0-.598-1.346 1.945 1.945 0 0 0-1.354-.55Zm10.761-5.447c-.505 0-.99.198-1.355.551a1.986 1.986 0 0 0-.599 1.346v9.834c.037.498.259.964.621 1.303a1.949 1.949 0 0 0 2.666 0c.362-.34.584-.805.62-1.303v-9.834a1.985 1.985 0 0 0-.598-1.346 1.944 1.944 0 0 0-1.355-.55ZM23.476 22.5c-.505 0-.99.198-1.354.551a1.983 1.983 0 0 0-.599 1.347v21.27c.037.498.258.964.62 1.303a1.947 1.947 0 0 0 2.666 0 1.99 1.99 0 0 0 .621-1.303v-21.27a1.984 1.984 0 0 0-.598-1.347 1.946 1.946 0 0 0-1.356-.551Zm10.762 7.477c-.505 0-.99.198-1.355.551a1.984 1.984 0 0 0-.598 1.346v9.834c.037.498.258.964.62 1.303a1.948 1.948 0 0 0 2.666 0c.362-.34.584-.805.62-1.303v-9.834a1.986 1.986 0 0 0-.598-1.346 1.946 1.946 0 0 0-1.355-.55ZM45 35.424c-.505 0-.99.198-1.355.551a1.984 1.984 0 0 0-.599 1.346v4.387c.037.498.26.963.621 1.303a1.949 1.949 0 0 0 2.666 0c.362-.34.584-.805.62-1.303V37.32a1.984 1.984 0 0 0-.598-1.346 1.944 1.944 0 0 0-1.355-.55Zm10.762-5.447a1.95 1.95 0 0 0-1.356.551 1.986 1.986 0 0 0-.598 1.346v9.834c.037.498.258.964.62 1.303a1.949 1.949 0 0 0 2.666 0c.363-.34.584-.805.621-1.303v-9.834a1.985 1.985 0 0 0-.598-1.346 1.945 1.945 0 0 0-1.355-.55ZM66.523 22.5c-.505 0-.99.198-1.355.551a1.985 1.985 0 0 0-.598 1.347v21.27c.036.498.258.964.62 1.303a1.947 1.947 0 0 0 2.666 0c.362-.34.584-.805.62-1.303v-21.27a1.985 1.985 0 0 0-.598-1.347 1.945 1.945 0 0 0-1.355-.551Zm10.762 7.477c-.506 0-.991.198-1.355.551a1.985 1.985 0 0 0-.599 1.346v9.834c.037.498.259.964.621 1.303a1.948 1.948 0 0 0 2.666 0c.362-.34.584-.805.62-1.303v-9.834a1.984 1.984 0 0 0-.598-1.346 1.945 1.945 0 0 0-1.355-.55ZM89.4 35.976a1.945 1.945 0 0 0-2.71 0 1.983 1.983 0 0 0-.598 1.345v4.387c.037.498.258.964.62 1.303a1.948 1.948 0 0 0 2.666 0c.363-.34.584-.805.621-1.303V37.32a1.984 1.984 0 0 0-.599-1.345ZM43.996 61.769a4.643 4.643 0 0 0-1.642-.96l-2.707-1.007a1.452 1.452 0 0 1-.74-.706.928.928 0 0 1 .031-.824c.048-.09.11-.172.18-.244a1.458 1.458 0 0 1 .4-.29c.303-.15.63-.245.965-.281a5.609 5.609 0 0 1 1.727.018 14.76 14.76 0 0 1 2.002.36l.14.03v-3.321l-.259-.056a17.57 17.57 0 0 0-2.036-.363 10.433 10.433 0 0 0-2.678-.012 5.779 5.779 0 0 0-3.082 1.243 4.102 4.102 0 0 0-1.317 1.821 5.015 5.015 0 0 0-.003 3.384 3.8 3.8 0 0 0 .947 1.433c.365.353.777.653 1.225.89.59.318 1.215.565 1.863.734.214.064.426.132.638.204l.32.118.093.037c.316.114.605.292.847.525.17.158.299.354.38.57.05.199.05.406.002.605a1.28 1.28 0 0 1-.62.745 3.068 3.068 0 0 1-1.032.324 7.471 7.471 0 0 1-1.6.08 17.928 17.928 0 0 1-2.09-.279 19.85 19.85 0 0 1-1.075-.252l-.134-.034-.015 3.6.262.046c.824.154 1.656.261 2.492.321.732.068 1.468.083 2.202.043a9.208 9.208 0 0 0 2.066-.39 5.712 5.712 0 0 0 2.144-1.147c.563-.482.992-1.1 1.249-1.795a4.955 4.955 0 0 0-.025-3.615 4.048 4.048 0 0 0-1.12-1.555Zm-27.958-7.71a8.75 8.75 0 0 0-3.388.778 7.742 7.742 0 0 0-2.773 2.15 8.39 8.39 0 0 0-.152 10.18 7.954 7.954 0 0 0 4.41 2.844 10.31 10.31 0 0 0 5.58-.196l.307-.084v-4.18l-.082.035a7.69 7.69 0 0 1-3.004.765 4.41 4.41 0 0 1-3.025-.894 3.88 3.88 0 0 1-1.316-1.875 4.523 4.523 0 0 1-.09-2.508 3.845 3.845 0 0 1 1.342-2.145 4.011 4.011 0 0 1 2.106-.911 6.927 6.927 0 0 1 3.98.749l.089.046V54.61l-.19-.051a10.626 10.626 0 0 0-3.794-.498Zm9.417 15.948h3.942v-15.68h-3.942v15.68ZM57.228 54.06a8.753 8.753 0 0 0-3.388.777 7.746 7.746 0 0 0-2.773 2.15 8.389 8.389 0 0 0-.152 10.18 7.952 7.952 0 0 0 4.41 2.844 10.31 10.31 0 0 0 5.58-.196l.306-.084v-4.18l-.082.035a7.69 7.69 0 0 1-3.004.765 4.408 4.408 0 0 1-3.024-.894 3.88 3.88 0 0 1-1.317-1.876 4.523 4.523 0 0 1-.089-2.507 3.845 3.845 0 0 1 1.341-2.145 4.011 4.011 0 0 1 2.107-.911 6.928 6.928 0 0 1 3.979.749l.09.046V54.61l-.191-.051a10.63 10.63 0 0 0-3.793-.498Zm20.77 1.224a8.257 8.257 0 0 0-8.311-.234 8.306 8.306 0 0 0-4.322 7.123 8.259 8.259 0 0 0 3.125 6.346 8.207 8.207 0 0 0 6.878 1.582 8.036 8.036 0 0 0 6.415-6.498 8.056 8.056 0 0 0-3.785-8.32Zm-.26 7.354a4.128 4.128 0 0 1-1.52 2.763 4.102 4.102 0 0 1-5.778-.65 4.13 4.13 0 0 1 .648-5.794 4.104 4.104 0 0 1 5.777.65c.68.854.995 1.944.873 3.031Z" fill="#07BEEB" fill-rule="evenodd"/></svg>