<svg viewBox="0 0 90 90" xmlns="http://www.w3.org/2000/svg"><g fill="none" fill-rule="evenodd"><path fill="#2E9FFF" d="M0 0h90v90H0z"/><path d="M46.277 80.898c-8.319 0-15.925-3.08-21.805-8.176L10 74.725l5.591-13.984a34.92 34.92 0 0 1-3.04-14.292C12.55 27.425 27.65 12 46.276 12S80 27.425 80 46.45c0 19.027-15.098 34.448-33.723 34.448Zm18.415-34.547v-.096c0-9.941-6.918-17.03-18.845-17.03H32.965v34.45h12.691c12.02 0 19.036-7.384 19.036-17.324Zm-18.703 8.86h-3.768V37.692h3.768c5.534 0 9.207 3.197 9.207 8.712v.096c0 5.56-3.673 8.71-9.207 8.71Z" fill="#FFF" fill-rule="nonzero"/></g></svg>