<svg viewBox="0 0 90 90" xmlns="http://www.w3.org/2000/svg"><defs><linearGradient x1="-48.67%" y1="-95.687%" x2="154.297%" y2="148.248%" id="a"><stop stop-color="#EA3671" offset="0%"/><stop stop-color="#E03A75" offset="4%"/><stop stop-color="#82619B" offset="39%"/><stop stop-color="#3C7EB8" offset="69%"/><stop stop-color="#1190C9" offset="89%"/><stop stop-color="#0197D0" offset="100%"/></linearGradient><linearGradient x1="-87.801%" y1="14.598%" x2="146.189%" y2="100.327%" id="b"><stop stop-color="#EA3671" offset="0%"/><stop stop-color="#E03A75" offset="4%"/><stop stop-color="#82619B" offset="39%"/><stop stop-color="#3C7EB8" offset="69%"/><stop stop-color="#1190C9" offset="89%"/><stop stop-color="#0197D0" offset="100%"/></linearGradient><linearGradient x1="-95.211%" y1="-107.692%" x2="106.732%" y2="84.628%" id="c"><stop stop-color="#EA3671" offset="0%"/><stop stop-color="#E03A75" offset="4%"/><stop stop-color="#82619B" offset="39%"/><stop stop-color="#3C7EB8" offset="69%"/><stop stop-color="#1190C9" offset="89%"/><stop stop-color="#0197D0" offset="100%"/></linearGradient><linearGradient x1="-93.453%" y1="-27.925%" x2="65.885%" y2="58.936%" id="d"><stop stop-color="#EA3671" offset="0%"/><stop stop-color="#E03A75" offset="4%"/><stop stop-color="#82619B" offset="39%"/><stop stop-color="#3C7EB8" offset="69%"/><stop stop-color="#1190C9" offset="89%"/><stop stop-color="#0197D0" offset="100%"/></linearGradient><linearGradient x1="75.472%" y1="69.527%" x2="280.821%" y2="316%" id="e"><stop stop-color="#EA3671" offset="0%"/><stop stop-color="#E03A75" offset="4%"/><stop stop-color="#82619B" offset="39%"/><stop stop-color="#3C7EB8" offset="69%"/><stop stop-color="#1190C9" offset="89%"/><stop stop-color="#0197D0" offset="100%"/></linearGradient><linearGradient x1="22.058%" y1="51.45%" x2="256.351%" y2="138.156%" id="f"><stop stop-color="#EA3671" offset="0%"/><stop stop-color="#E03A75" offset="4%"/><stop stop-color="#82619B" offset="39%"/><stop stop-color="#3C7EB8" offset="69%"/><stop stop-color="#1190C9" offset="89%"/><stop stop-color="#0197D0" offset="100%"/></linearGradient><linearGradient x1="-9.04%" y1="-5.121%" x2="194.145%" y2="187.002%" id="g"><stop stop-color="#EA3671" offset="0%"/><stop stop-color="#E03A75" offset="4%"/><stop stop-color="#82619B" offset="39%"/><stop stop-color="#3C7EB8" offset="69%"/><stop stop-color="#1190C9" offset="89%"/><stop stop-color="#0197D0" offset="100%"/></linearGradient><linearGradient x1="-32.089%" y1="-3.431%" x2="128.71%" y2="83.335%" id="h"><stop stop-color="#EA3671" offset="0%"/><stop stop-color="#E03A75" offset="4%"/><stop stop-color="#82619B" offset="39%"/><stop stop-color="#3C7EB8" offset="69%"/><stop stop-color="#1190C9" offset="89%"/><stop stop-color="#0197D0" offset="100%"/></linearGradient><linearGradient x1="-238.232%" y1="-108.46%" x2="106.586%" y2="91.362%" id="i"><stop stop-color="#EA3671" offset="0%"/><stop stop-color="#E03A75" offset="4%"/><stop stop-color="#82619B" offset="39%"/><stop stop-color="#3C7EB8" offset="69%"/><stop stop-color="#1190C9" offset="89%"/><stop stop-color="#0197D0" offset="100%"/></linearGradient><linearGradient x1="33.82%" y1="7.744%" x2="74.284%" y2="110.077%" id="j"><stop stop-color="#EA3671" offset="0%"/><stop stop-color="#E03A75" offset="4%"/><stop stop-color="#82619B" offset="39%"/><stop stop-color="#3C7EB8" offset="69%"/><stop stop-color="#1190C9" offset="89%"/><stop stop-color="#0197D0" offset="100%"/></linearGradient></defs><g fill="none"><path d="M83.25 22.26A11.58 11.58 0 1 0 69 4.68a41.31 41.31 0 0 1 14.4 17.58h-.15Z" fill="url(#a)" transform="translate(0 6)"/><path d="M57.24 23.64a26.07 26.07 0 0 1 9.57-16.62A39.51 39.51 0 0 1 80.4 23.64H57.24Z" fill="url(#b)" transform="translate(0 6)"/><path d="M57 26.76h24.45a38.04 38.04 0 0 1 1.65 17.49h-.21a17.13 17.13 0 0 1-12-5.01 28.77 28.77 0 0 1-1.5 2.82 20.19 20.19 0 0 0 13.29 5.25A38.25 38.25 0 0 1 81 52.89c-13.44-.91-23.905-12.03-24-25.5v-.63Z" fill="url(#c)" transform="translate(0 6)"/><path d="M45.96 56.1a29.07 29.07 0 0 0 17.64-7.17 29.1 29.1 0 0 0 16.14 7.26 39.36 39.36 0 0 1-23.76 20.34A25.92 25.92 0 0 1 45.96 56.1Z" fill="url(#d)" transform="translate(0 6)"/><path d="M6 22.26A11.58 11.58 0 1 1 20.49 4.68 41.28 41.28 0 0 0 6 22.26Z" fill="url(#e)" transform="translate(0 6)"/><path d="M32.13 23.64a26.07 26.07 0 0 0-9.6-16.62A39.51 39.51 0 0 0 9 23.64h23.13Z" fill="url(#f)" transform="translate(0 6)"/><path d="M32.28 26.76H7.83a38.04 38.04 0 0 0-1.68 17.49h.21a17.13 17.13 0 0 0 12-5.01 28.74 28.74 0 0 0 1.5 2.82 20.19 20.19 0 0 1-13.29 5.25 38.25 38.25 0 0 0 1.68 5.61c13.44-.91 23.905-12.03 24-25.5.06-.24.03-.42.03-.66Z" fill="url(#g)" transform="translate(0 6)"/><path d="M43.38 56.1a29.07 29.07 0 0 1-17.64-7.17A29.1 29.1 0 0 1 9.6 56.16 39.36 39.36 0 0 0 33.36 76.5a25.92 25.92 0 0 0 10.02-20.43v.03Z" fill="url(#h)" transform="translate(0 6)"/><path d="M37.02 77.25a36.84 36.84 0 0 0 15.42 0 29.31 29.31 0 0 1-7.71-12 29.31 29.31 0 0 1-7.71 12Z" fill="url(#i)" transform="translate(0 6)"/><path d="M64.26 5.22A38.7 38.7 0 0 0 46.41 0v15h-3V0a38.7 38.7 0 0 0-18 5.22 29.01 29.01 0 0 1 2.7 41.37c9.617 8.391 23.953 8.391 33.57 0a29.01 29.01 0 0 1 2.7-41.37h-.12Z" fill="url(#j)" transform="translate(0 6)"/></g></svg>