<svg viewBox="0 0 90 90" xmlns="http://www.w3.org/2000/svg"><g fill="none" fill-rule="evenodd"><path fill="#000" d="M0 0h90v90H0z"/><path fill="#000" fill-rule="nonzero" d="M0 0h90v90H0z"/><path d="m22.05 56.059.18.517a8.832 8.832 0 0 1-.18-.517Zm7.301-11.801c.326-2.802 1.429-4.366 3.499-5.974 2.97-2.172 6.671-.945 6.671-.945v-7.301c.9-.023 1.8.033 2.689.168V39.6s-3.701-1.226-6.671.945c-2.07 1.609-3.173 3.172-3.499 5.974-.011 1.519.259 3.51 1.519 5.22-.315-.169-.63-.36-.956-.574-2.757-1.935-3.263-4.849-3.252-6.907Zm28.17-27.72c-2.036-2.33-2.812-4.692-3.093-6.345h2.565s-.507 4.342 3.217 8.606l.056.056a14.275 14.275 0 0 1-2.745-2.317Zm12.364 6.614v9.203s-3.274-.135-5.704-.776c-3.386-.9-5.557-2.284-5.557-2.284s-1.508-.99-1.62-1.058V47.25c0 1.057-.282 3.701-1.125 5.906-1.103 2.88-2.813 4.782-3.128 5.164 0 0-2.081 2.565-5.737 4.286-3.297 1.553-6.199 1.519-7.065 1.553 0 0-5.006.202-9.518-2.847a18.894 18.894 0 0 1-2.722-2.283l.022.022c4.511 3.06 9.518 2.846 9.518 2.846.866-.033 3.768 0 7.065-1.552 3.656-1.721 5.737-4.286 5.737-4.286.315-.383 2.025-2.284 3.128-5.164.843-2.205 1.125-4.849 1.125-5.906V25.988c.123.067 1.62 1.057 1.62 1.057s2.171 1.384 5.557 2.284c2.43.641 5.704.776 5.704.776v-7.211c1.125.259 2.081.326 2.7.259Z" fill="#EE1D52" fill-rule="nonzero"/><path d="M67.185 22.883v7.21s-3.274-.134-5.704-.776c-3.386-.9-5.557-2.283-5.557-2.283s-1.508-.99-1.62-1.058V44.99c0 1.057-.282 3.701-1.125 5.906-1.103 2.88-2.813 4.781-3.128 5.164 0 0-2.081 2.565-5.737 4.286-3.297 1.553-6.199 1.519-7.065 1.553 0 0-5.007.202-9.518-2.847l-.022-.022c-.473-.484-.923-.99-1.339-1.519-1.44-1.834-2.318-3.994-2.543-4.612v-.012c-.36-1.069-1.102-3.656-1-6.142.18-4.399 1.664-7.11 2.058-7.785a18.369 18.369 0 0 1 3.994-4.883 16.76 16.76 0 0 1 4.747-2.812 15.85 15.85 0 0 1 5.895-1.238v7.302s-3.701-1.227-6.671.944c-2.07 1.61-3.173 3.173-3.499 5.974-.011 2.059.495 4.973 3.263 6.919.326.214.641.405.956.574a7.578 7.578 0 0 0 1.744 1.699c2.711 1.788 4.972 1.912 7.875.753 1.935-.776 3.386-2.52 4.061-4.466.428-1.215.416-2.43.416-3.69V10.193h6.75c.282 1.653 1.047 4.016 3.094 6.345a14.99 14.99 0 0 0 2.745 2.317c.292.326 1.811 1.901 3.769 2.88a14.39 14.39 0 0 0 3.161 1.148Z" fill="#FFF" fill-rule="nonzero"/><g fill="#69C9D0" fill-rule="nonzero"><path d="m21.139 50.67.169.484a5.836 5.836 0 0 1-.17-.484Z"/><path d="M33.626 31.275a16.606 16.606 0 0 0-4.747 2.813 18.205 18.205 0 0 0-3.994 4.893c-.394.675-1.879 3.375-2.059 7.785-.101 2.498.653 5.074 1.002 6.143v.011c.225.608 1.102 2.779 2.542 4.612.416.53.866 1.036 1.339 1.52a18.95 18.95 0 0 1-4.039-3.78c-1.429-1.812-2.306-3.96-2.531-4.59v-.023c-.36-1.069-1.114-3.656-1.001-6.154.18-4.399 1.665-7.11 2.058-7.785a18.205 18.205 0 0 1 3.994-4.894 16.76 16.76 0 0 1 4.747-2.812 16.57 16.57 0 0 1 3.353-.99 16.723 16.723 0 0 1 5.242-.079v2.093c-2.036.033-4.038.45-5.906 1.237Z"/><path d="M54.428 10.192h-6.75v35.843c0 1.26 0 2.475-.417 3.69-.686 1.935-2.137 3.69-4.061 4.466-2.903 1.17-5.175 1.035-7.875-.754a7.309 7.309 0 0 1-1.744-1.687c2.306 1.226 4.365 1.204 6.919.18 1.935-.776 3.386-2.531 4.061-4.466.428-1.215.417-2.43.417-3.69V7.93h9.326c-.011 0-.113.889.123 2.261Zm12.757 10.7v1.99a14.365 14.365 0 0 1-3.161-1.147c-1.947-.968-3.465-2.554-3.769-2.88.349.225.697.427 1.069.619 2.385 1.181 4.713 1.541 5.861 1.417Z"/></g><path d="M54.776 78.919a2.449 2.449 0 0 1-.112-.754v-.023c0 .27.033.53.112.777Zm5.569-.776v.022a2.449 2.449 0 0 1 0-.023Z"/><path d="M54.653 78.165c0 .259.033.506.112.754 0 .022.011.034.011.056a2.85 2.85 0 0 0 2.723 2.003v2.88c-1.407 0-2.408.044-3.938-.856-1.732-1.034-2.711-2.913-2.711-4.87 0-2.014 1.091-4.04 2.959-5.018 1.35-.709 2.373-.709 3.701-.709v2.88a2.842 2.842 0 0 0-2.846 2.846l-.011.034Z" fill="#69C9D0" fill-rule="nonzero"/><path d="M60.367 78.165c0 .259-.033.506-.112.754 0 .022-.011.034-.011.056a2.85 2.85 0 0 1-2.723 2.003v2.88c1.395 0 2.408.044 3.926-.856 1.744-1.034 2.723-2.913 2.723-4.87 0-2.014-1.091-4.04-2.959-5.018-1.35-.709-2.373-.709-3.701-.709v2.88a2.842 2.842 0 0 1 2.846 2.846v.034h.011Z" fill="#EE1D52" fill-rule="nonzero"/><path d="M13.444 69.795h10.541l-.979 2.903H20.25V83.8h-3.386V72.698h-3.42v-2.903Zm27.945 0v2.903h3.42V83.8h3.397V72.698h2.756l.98-2.903H41.388ZM26.28 73.091c.911 0 1.642-.731 1.642-1.642 0-.912-.73-1.643-1.642-1.643-.911 0-1.643.731-1.643 1.643 0 .911.732 1.642 1.643 1.642ZM24.637 83.79h3.33v-9.54h-3.33v9.54Zm15.3-10.778h-3.892l-3.352 3.353v-6.57h-3.308l-.011 13.984h3.341v-3.645l1.035-.945 3.24 4.59h3.566l-4.691-6.705 4.072-4.061Zm31.928 4.073 4.073-4.072h-3.893l-3.353 3.352v-6.57h-3.307l-.023 13.995h3.342v-3.645l1.046-.945 3.24 4.59h3.566l-4.691-6.705Zm-8.561 1.035c0 3.161-2.599 5.726-5.805 5.726-3.207 0-5.805-2.565-5.805-5.726s2.598-5.726 5.805-5.726c3.206 0 5.805 2.565 5.805 5.726Zm-2.959 0a2.842 2.842 0 0 0-2.846-2.846 2.842 2.842 0 0 0-2.846 2.846 2.842 2.842 0 0 0 2.846 2.846 2.842 2.842 0 0 0 2.846-2.846Z" fill="#FFF" fill-rule="nonzero"/></g></svg>