<svg viewBox="0 0 90 90" xmlns="http://www.w3.org/2000/svg"><g fill="none" fill-rule="evenodd"><path fill="#FFED3C" d="M0 0h90v90H0z"/><g fill-rule="nonzero"><path fill="#00C80F" d="M0 0h90v90H0z"/><g fill="#FFF"><path d="M72.688 67.266c4.57-3.247 7.468-8.084 7.468-13.485 0-9.778-9.5-17.706-21.22-17.706-11.72 0-21.222 7.927-21.222 17.706 0 9.778 9.502 17.705 21.221 17.705 2.539 0 4.973-.372 7.23-1.053.397-.12.827-.073 1.187.134l4.602 2.666c1.022.59 1.612.14 1.313-1.001l-1-3.81a1.084 1.084 0 0 1 .42-1.156Zm-20.826-16.28a2.88 2.88 0 1 1 0-5.762 2.88 2.88 0 0 1 0 5.762Zm14.062 0a2.88 2.88 0 1 1 0-5.76 2.88 2.88 0 0 1 0 5.76Z"/><path d="M59.19 34.381c.451 0 .898.011 1.343.032-1.913-10.145-12.462-17.906-25.19-17.906-14.083 0-25.5 9.5-25.5 21.221 0 6.443 3.45 12.215 8.897 16.107a1.51 1.51 0 0 1 .585 1.618l-1.2 4.472c-.361 1.35.33 1.878 1.537 1.174l5.46-3.188a2.053 2.053 0 0 1 1.627-.197c2.685.8 5.579 1.236 8.594 1.236.46 0 .917-.011 1.37-.03a16.231 16.231 0 0 1-.862-5.223c0-10.668 10.45-19.316 23.339-19.316ZM43.814 27.52a3.388 3.388 0 1 1-.001 6.776 3.388 3.388 0 0 1 0-6.776Zm-17.028 6.777a3.388 3.388 0 1 1 0-6.777 3.388 3.388 0 0 1 0 6.777Z"/></g></g></g></svg>