<svg viewBox="0 0 90 90" xmlns="http://www.w3.org/2000/svg"><g fill="none" fill-rule="evenodd"><path fill="#FFF" d="M0 0h90v90H0z"/><g fill="#2E2D2D"><path d="M63.68 57.507v3.09c0 4.162 1.554 6.242 4.789 6.242 2.923 0 4.914-2.017 4.914-5.044 0-2.648-1.742-5.233-5.039-7.756-5.038-3.783-9.703-6.999-13.31-10.467-3.422-3.341-5.163-7.818-5.163-12.989C49.87 20.243 56.837 14 69.029 14c12.067 0 18.162 5.297 18.162 15.827v5.485H73.258V30.71c0-3.972-1.368-5.8-4.665-5.8-2.612 0-4.292 1.891-4.292 4.602 0 3.594 3.67 6.369 10.077 11.413 5.474 4.35 9.517 7.44 11.32 10.656C87.192 54.166 88 57.318 88 60.975 88 71.568 80.847 78 68.096 78 55.593 78 49 71.884 49 60.282v-2.775h14.68Z"/><path d="m27.917 54.896-2.321-19.584A571.764 571.764 0 0 1 24.5 24.368c-.322 3.456-.774 7.104-1.225 11.008l-2.579 19.52h7.22ZM14.378 14h20.373L47 78H30.818l-1.483-11.52H18.827L17.344 78H2l12.378-64Z" fill-rule="nonzero"/></g></g></svg>