<svg viewBox="0 0 90 90" xmlns="http://www.w3.org/2000/svg"><g fill="none" fill-rule="evenodd"><path fill="#FFF" d="M0 0h90v90H0z"/><g fill-rule="nonzero"><path d="M18.784 27.773c.035-.512.443-.92.954-.955h3.514c.519.02.935.436.954.955v9.803c.911-.396 2.906-.869 4.902-.869 5.941 0 9.716 4.598 9.716 10.454 0 5.725-3.954 10.496-9.413 10.496-4.377.007-6.673-2.993-6.673-2.993l-.477 1.562c-.218.563-.527.954-.998.954h-1.52a.994.994 0 0 1-.959-.954V27.773Zm9.847 24.94c3.122 0 4.727-2.733 4.727-5.552 0-2.819-1.692-5.509-4.988-5.509-2.516 0-4.164 1.128-4.164 1.128v7.157c.438 1.127 1.827 2.775 4.429 2.775h-.004ZM59.993 57.4c0 6.458-4.512 9.716-9.977 9.716-3.295 0-6.246-1.518-7.2-2.255-.303-.263-.434-.781-.216-1.128l1.3-2.819c.174-.395.739-.52 1.172-.264.737.434 2.689 1.519 4.771 1.519 3.079 0 4.728-1.041 4.728-4.771v-.564c-.911.346-2.82.83-4.815.83-5.986 0-9.932-4.598-9.932-10.454 0-6.072 4.12-10.496 9.586-10.496 4.25 0 6.548 2.993 6.548 2.993l.52-1.612c.174-.563.477-.954.954-.954h1.605c.525.005.949.43.954.954l.002 19.305ZM54.57 44.432c-.434-1.127-1.822-2.776-4.425-2.776-3.122 0-4.727 2.732-4.727 5.551 0 2.82 1.69 5.51 4.987 5.51 2.516 0 4.165-1.129 4.165-1.129v-7.156Zm8.848-16.659c.038-.51.444-.915.954-.95h3.513c.511.036.919.443.954.955v28.448a.994.994 0 0 1-.954.954h-3.513a.994.994 0 0 1-.954-.954V27.773Zm17.456 19.252c2.768 0 5.104 2.34 5.104 5.105 0 2.71-2.34 5.05-5.104 5.05-2.763 0-5.051-2.34-5.051-5.051 0-2.768 2.286-5.104 5.051-5.104Z" fill="#0B3B5C"/><path d="M82.283 43.637a1.25 1.25 0 0 1-1.248-1.173C79.885 24.629 65.93 10.28 48.134 8.636a1.253 1.253 0 0 1 .226-2.495c19.027 1.757 33.947 17.098 35.174 36.166.043.69-.48 1.284-1.17 1.329h-.08Z" fill="#18A3A3"/><path d="M7.401 42.529c-.04.002-.078.002-.117 0a1.25 1.25 0 0 1-1.131-1.367C7.878 22.539 22.654 7.804 41.282 6.132a1.257 1.257 0 1 1 .224 2.504C24.086 10.2 10.264 23.977 8.646 41.392A1.25 1.25 0 0 1 7.4 42.53Z" fill="#0B3B5C"/><path d="M41.428 83.458h-.112C22.602 81.81 7.768 66.969 6.132 48.254a1.257 1.257 0 1 1 2.504-.22c1.532 17.501 15.401 31.38 32.901 32.925a1.253 1.253 0 0 1-.109 2.504v-.005Z" fill="#0089BF"/><path d="M48.175 83.458a1.253 1.253 0 0 1-.11-2.504c12.501-1.111 23.733-8.814 29.31-20.098a1.252 1.252 0 0 1 2.24 1.108c-5.962 12.064-17.968 20.297-31.334 21.483a.456.456 0 0 1-.106.01Z" fill="#74A541"/></g></g></svg>