<svg viewBox="0 0 90 90" xmlns="http://www.w3.org/2000/svg"><g fill="none" fill-rule="evenodd"><circle fill="#FFDE91" cx="45" cy="45" r="45"/><path d="M54.004 57.798c-2.462 0-3.472-.76-4.382-1.92-.588-.759-.886-1.874-.886-3.322v-6.764H57V33.666h-8.26V22H38.178v4.363c0 4.834-3.663 8.749-8.182 8.749-.339 0-.67-.024-.995-.065v10.748h5.545v10.801c0 4.253.763 7.529 2.287 9.758C39.187 69.767 41.802 72 48.177 72c3.697 0 6.796-.854 8.823-1.992V57.296c-.763.3-1.795.502-2.995.502h-.001Z" fill="#2C1338" fill-rule="nonzero"/></g></svg>