<svg viewBox="0 0 90 90" xmlns="http://www.w3.org/2000/svg"><g fill="none" fill-rule="evenodd"><path fill="#FFF" d="M0 0h90v90H0z"/><path d="M29.294 24c7.174 0 13.581 3.398 17.425 8.451l-7.858 7.058c-2.221-2.962-5.553-5.054-9.567-5.054-6.406 0-11.19 5.14-11.19 11.588 0 6.623 4.698 11.502 11.446 11.502 4.527 0 8.115-2.788 9.909-5.577L48 58.503C43.131 65.124 36.981 68 29.209 68 16.396 68 7 58.242 7 46.043 7 33.758 16.652 24 29.294 24Zm38.02 0c5.521 0 11.568 2.09 14.371 4.269l-5.345 8.19c-2.19-1.568-5.082-2.875-8.15-2.875-3.155 0-5.783 1.22-5.783 3.398C62.407 42.472 83 40.293 83 54.93 83 63.034 75.026 68 66.087 68c-5.87 0-12.093-2.003-17.087-5.663l5.52-8.103c2.892 2.613 7.361 4.181 11.655 4.181 3.067 0 5.433-1.48 5.433-3.571 0-6.36-20.593-4.095-20.593-17.688 0-8.103 7.887-13.156 16.3-13.156Z" fill="#00A7FF" fill-rule="nonzero"/></g></svg>