<svg viewBox="0 0 90 90" xmlns="http://www.w3.org/2000/svg"><path d="M54.894 53.4c0 .161 0 .161-.16.322 0 .162-.16.162-.321.162H35.499v-3.386c0-4.676 5.61-6.933 9.938-6.933 4.167 0 9.457 2.257 9.457 6.933V53.4Zm-9.457-20.314c-9.777.16-20.516 5.804-20.516 17.25V67.75c0 11.608 10.739 17.09 20.516 17.251 7.052 0 14.906-2.902 18.753-9.19.16-.161 0-.483-.16-.645-3.366-1.934-5.29-3.063-8.655-4.836-.16 0-.16 0-.321.16-1.763 3.064-6.411 4.676-9.617 4.676-4.328 0-9.938-2.74-9.938-7.416v-5.16h27.088c1.443 0 2.565-1.128 2.565-2.579v-9.512c0-11.608-10.098-17.251-19.715-17.412m-18.555 2.257c.642-.645 1.122-1.129.481-1.129-1.122 0-8.334 1.129-9.777-4.353-1.443-5.481 6.411-21.765 6.732-22.41.16-.645-.32-1.451-1.282-1.451-.802 0-1.443.967-1.603.967C13.419 17.124 2.038 29.7.596 35.182-3.091 48.886 11.175 54.529 20.15 55.496c.16 0 .16-.161.16-.161v-4.837c.16-6.61 2.564-11.608 6.571-15.155m62.511-.161C87.951 29.7 76.731 17.124 68.556 6.967c-.16-.16-.64-.967-1.603-.967-.8 0-1.442.806-1.121 1.451.32.645 8.174 17.09 6.731 22.41-1.442 5.482-8.655 4.353-9.777 4.353-.641 0-.16.484.481 1.129 4.007 3.547 6.572 8.545 6.572 14.994v4.836c0 .162 0 .162.16.162 9.136-.806 23.08-6.45 19.394-20.153" fill="#6AAC0E"/></svg>