<svg viewBox="0 0 90 90" xmlns="http://www.w3.org/2000/svg"><g fill="none" fill-rule="evenodd"><path fill="#000" d="M0 0h90v90H0z"/><path d="M56.567 36.94c4.451-4.44 11.652-4.44 16.103 0 4.44 4.454 4.44 11.666 0 16.12L55.746 70l-3.062-3.058 16.903-16.94A6.97 6.97 0 0 0 71.675 45a7.07 7.07 0 0 0-4.359-6.528 7.058 7.058 0 0 0-7.694 1.527L40.005 59.635l-3.055-3.058Zm6.57 6.486 3.054 3.044-19.617 19.643c-4.451 4.44-11.652 4.44-16.103 0l-1.524-1.532 3.055-3.058 1.524 1.532a7.072 7.072 0 0 0 9.993 0l19.617-19.63ZM34.353 20l3.055 3.058-16.924 16.94a7.075 7.075 0 0 0-.004 10 7.059 7.059 0 0 0 9.99.003l19.617-19.636 3.055 3.058-19.617 19.636a11.377 11.377 0 0 1-11.048 3.052 11.39 11.39 0 0 1-8.102-8.113A11.403 11.403 0 0 1 17.43 36.94L34.354 20Zm9.144 3.9c4.45-4.444 11.654-4.444 16.103 0l1.524 1.533-3.055 3.058-1.524-1.525a7.065 7.065 0 0 0-9.972 0l-19.61 19.608-3.062-3.058Z" fill="#FFF" fill-rule="nonzero"/></g></svg>