<svg viewBox="0 0 90 90" xmlns="http://www.w3.org/2000/svg"><g fill="none" fill-rule="evenodd"><path fill="#0095FF" d="M0 0h90v90H0z"/><path d="M40.408 54.916c-.434 0-.793 0-1.227.075l29.33-23.446c.509-.357.72-1.221.143-1.653l-4.482-5.318c-.793-.722-1.376-.648-2.17 0-1.518 1.221-2.962 2.443-6.068 2.443-5.058 0-10.55-3.017-17.628-3.017-5.058 0-7.73 1.728-9.682 3.739-1.878 2.011-3.038 5.25-3.038 8.341 0 3.166 1.879 5.177 4.984 5.177 2.671 0 4.482-1.58 4.482-3.813 0-1.296.216-2.443.793-3.307.508-.864 1.66-1.512 3.464-1.512 2.821 0 7.947 1.795 11.269 1.795h.434L21.464 57.36c-.576.506-.576 1.437-.217 1.943l4.699 6.115c.434.573 1.37.506 2.17-.142 1.735-1.37 3.322-2.443 6.502-2.443 5.634 0 10.475 3.165 17.628 3.165 5.492.074 8.889-1.944 10.835-4.744 1.518-2.16 2.237-5.103 2.237-7.404 0-3.233-1.878-5.392-5.133-5.392-2.888 0-4.481 1.579-4.624 3.88-.074.938-.074 2.734-.65 3.597-.577.939-1.587 1.155-2.889 1.155-3.376-.014-7.058-2.174-11.614-2.174Z" fill="#FFF" fill-rule="nonzero"/></g></svg>