<svg viewBox="0 0 90 90" xmlns="http://www.w3.org/2000/svg"><g fill="none"><path d="M47.794 12.536A4.34 4.34 0 0 1 49.3 10.36a1.77 1.77 0 0 0 1.281-.707c.125-.513-.334-.652-2.173-.652h-5.571c-1.686 0-2.466 0-2.354.735a1.1 1.1 0 0 0 .905.569c1.602.443 2.674 1.262 2.173 2.926-.501 1.664-7.466 22.064-7.466 22.064-.264.735-.947.943-1.156-.153l-3.607-17.168a83.142 83.142 0 0 1-.766-4.008 1.531 1.531 0 0 0-1.546-1.137 1.63 1.63 0 0 0-1.519.929c-.46.957-1.393 2.773-2.033 4.09l-9.18 17.558c-.375.651-.849.457-.918-.32l-1.143-17.792c0-1.387-.139-4.16-.125-4.604a2.457 2.457 0 0 1 1.88-2.372c.4-.03.756-.26.948-.61.111-.707-.71-.693-2.396-.693H7.569c-1.115.028-1.644.152-1.56.735a1.1 1.1 0 0 0 .905.568 2.434 2.434 0 0 1 1.602 1.387c.106.245.199.495.278.75v.233a1.201 1.201 0 0 0 0 .139 39.58 39.58 0 0 1 .683 4.784l1.518 21.745a16.71 16.71 0 0 0 .487 4.424c.432.901 2.466.846 3.274-.36.223-.348 11.686-21.773 11.686-21.773.668-1.276 1.393-1.165 1.74.25l3.594 17.653c.222 1.314.533 2.612.934 3.883.487 1.276 2.939 1.054 3.593-.194a33.887 33.887 0 0 0 1.741-3.925s9.36-25.655 9.75-26.779Zm30.211 8.321c-4.47 0-8.552 4.063-11.24 7.142.143-.886.362-1.758.655-2.607l4.178-13.868a1.838 1.838 0 0 0-.233-1.762 1.856 1.856 0 0 0-1.62-.748h-3.523c-1.686 0-2.466 0-2.368.735a1.1 1.1 0 0 0 .905.568c1.672.472 2.229 2.33 1.783 4.355 0-.166-4.178 16.475-4.178 16.475a10.974 10.974 0 0 1-2.633 4.368s-5.056 6.144-10.154 6.144a3.715 3.715 0 0 1-2.927-1.004 3.68 3.68 0 0 1-1.14-2.865 15.647 15.647 0 0 1 .39-3.703c5.32-.5 14.848-2.94 14.848-9.707 0-2.774-2.633-3.523-4.875-3.523-7.215 0-14.333 8.765-14.333 16.642 0 3.314 1.546 6.684 6.129 6.684 8.608 0 13.288-8.32 13.552-8.64a22.898 22.898 0 0 0-.417 3.342c0 3.62 2.646 5.298 5.92 5.298a14.53 14.53 0 0 0 7.284-2.274 21.4 21.4 0 0 0 5.014-4.16 16.815 16.815 0 0 0 4.666-10.61c-.014-3.689-1.657-6.226-5.64-6.226l-.043-.056ZM54.76 22.535a1.94 1.94 0 0 1 1.523.593c.395.412.587.977.524 1.543 0 5.408-6.017 7.78-10.6 8.085.739-3.287 4.68-10.22 8.553-10.22Zm22.675 11.76a23.492 23.492 0 0 1-4.178 5.936 8.496 8.496 0 0 1-5.655 2.773c-2.285 0-3.037-2.177-3.037-4.16 0-5.547 6.073-15.865 12.243-15.865 2.285 0 2.981 1.58 2.981 3.467a18.925 18.925 0 0 1-2.396 7.821l.042.028Z" fill="#0080C5"/><path d="M77.83 49.8C73.4 46.318 65 46.498 65 46.498H50.57c-1.685 0-2.27.11-2.159.832a1.1 1.1 0 0 0 .906.569 2.112 2.112 0 0 1 1.852 1.886c0 1.192.181 4.937.181 6.24V78.52a2.627 2.627 0 0 0 2.619 2.62h8.608a30.103 30.103 0 0 0 10.697-2.065c6.51-2.702 10.709-9.08 10.6-16.101a16.611 16.611 0 0 0-6.045-13.175ZM63.26 78.103h-.334c-2.006 0-4.081 0-5.167-1.068a3.374 3.374 0 0 1-.822-2.51V58.592c0-3.287-.084-4.826 0-8.515a41.798 41.798 0 0 1 5.99-.402c3.802 0 7.771.513 11.142 4.16a13.955 13.955 0 0 1 3.37 9.708c-.013 8.917-5.57 14.56-14.179 14.56Zm-14.903 1.733a3.068 3.068 0 0 1-1.853-2.205c0-.624-.654-28.415-.654-28.415 0-1.387 0-2.482-.349-2.621a16.507 16.507 0 0 0-2.966-.139 5.007 5.007 0 0 0-2.424.236 12.83 12.83 0 0 0-1.212 2.621l-2.549 5.644-2.493 4.743-3.872 7.475a1.266 1.266 0 0 1-1.233.968c-.586 0-1.096-.4-1.232-.968l-4.012-7.364-2.507-4.59-2.786-5.963a15.126 15.126 0 0 0-1.184-2.608 6.994 6.994 0 0 0-2.674-.208h-3.426c-1.686 0-2.452 0-2.34.722.18.334.524.55.905.568a2.343 2.343 0 0 1 1.393 2.191c0 .624 0 25.947-.14 27.057 0 .18 0 .374-.097.568a2.61 2.61 0 0 1-1.866 2.288 1.087 1.087 0 0 0-.906.569c-.111.707.669.735 2.354.735h5.572c1.685 0 2.465 0 2.368-.735a1.087 1.087 0 0 0-.906-.569 2.652 2.652 0 0 1-1.852-2.205 16.283 16.283 0 0 1-.265-1.913c0-1.387-.084-3.8-.07-5.229v-.485c0-1.387 0-3.8.084-5.228l.14-5.672c0-1.387.626-1.581 1.309-.32l3.76 6.935c.683 1.262 4.29 8.057 4.931 9.333a1.997 1.997 0 0 0 2.368 1.567c1.894 0 1.894-.5 2.674-2.163.571-1.22 8.636-17.016 8.636-17.016.654-1.276 1.226-1.151 1.267.277 0 0 .098 19.249 0 20.122v.292a2.488 2.488 0 0 1-1.713 1.705 1.1 1.1 0 0 0-.905.569c-.112.707.668.735 2.354.735h6.964c1.7 0 2.465 0 2.368-.735a1.143 1.143 0 0 0-.961-.569Z" fill="#231F20"/></g></svg>