<svg viewBox="0 0 90 90" xmlns="http://www.w3.org/2000/svg"><g fill="none"><path fill="#FFF" d="M0 0h89.886v89.886H0z"/><path d="M19.931 33.331c-4.608 5.411-9.026 12.122-9.07 17.138-.017 1.887.585 3.534 2.03 4.782 2.08 1.797 4.372 2.431 6.652 2.435 3.332.004 6.641-1.34 9.232-2.377 4.364-1.745 52.597-22.69 52.597-22.69.465-.233.378-.524-.205-.379-.235.059-52.509 14.225-52.509 14.225-.99.28-2.013.427-3.042.436-4.017.024-7.592-2.206-7.563-6.906.01-1.838.574-4.056 1.878-6.664Z" fill="#000"/></g></svg>