<svg viewBox="0 0 90 90" xmlns="http://www.w3.org/2000/svg"><defs><linearGradient x1="19.341%" y1="30.719%" x2="153.769%" y2="68.988%" id="a"><stop stop-color="#00FFC8" offset="0%"/><stop stop-color="#00758C" offset="100%"/></linearGradient><linearGradient x1="0%" y1="0%" x2="100%" y2="0%" id="b"><stop stop-color="#00FFC8" offset="0%"/><stop stop-color="#00959A" offset="100%"/></linearGradient><linearGradient x1="0%" y1="30.719%" x2="100%" y2="30.719%" id="c"><stop stop-color="#00FFC8" offset="0%"/><stop stop-color="#00BBAB" offset="100%"/></linearGradient></defs><g fill="none"><path d="M56.355 32.2c0 6.406-5.22 11.616-11.635 11.616-6.416 0-11.636-5.21-11.636-11.616V20.043h23.271V32.2ZM67.106 9.494V0H56.355v20.043h-23.27V0H22.332v32.2c0 12.323 10.043 22.349 22.387 22.349 12.344 0 22.386-10.026 22.386-22.349V9.493Z" fill="url(#a)" transform="translate(0 18)"/><path d="M78.327 0c0 5.273-4.266 9.494-9.503 9.494h-48.53c-5.244 0-9.51-4.26-9.51-9.494H0c0 11.517 8.898 20.043 20.428 20.043h48.53c11.537 0 20.212-8.49 20.212-20.043H78.327Z" fill="url(#b)" transform="translate(0 18)"/><path d="M56.355 32.2c0 6.406-5.22 11.616-11.635 11.616-6.416 0-11.636-5.21-11.636-11.616V20.043h23.271V32.2Zm0-12.157h-23.27V0H22.332v32.2c0 12.323 10.043 22.349 22.387 22.349 12.344 0 22.386-10.026 22.386-22.349V20.043h-10.75Z" fill="url(#c)" transform="translate(0 18)"/></g></svg>