<svg viewBox="0 0 90 90" xmlns="http://www.w3.org/2000/svg"><path d="M45 0c24.853 0 45 20.147 45 45S69.853 90 45 90H9a9 9 0 0 1-9-9V45C0 20.147 20.147 0 45 0Zm24.966 49.584a2.7 2.7 0 0 0-3.282 1.95 22.376 22.376 0 0 1-16.16 16.16c-11.976 3.05-24.157-4.185-27.208-16.16a2.7 2.7 0 1 0-5.232 1.332c3.786 14.866 18.907 23.847 33.772 20.06a27.776 27.776 0 0 0 20.06-20.06 2.7 2.7 0 0 0-1.95-3.282ZM45 16.2c-8.45 0-15.3 6.85-15.3 15.3v12.6c0 8.45 6.85 15.3 15.3 15.3 8.45 0 15.3-6.85 15.3-15.3V31.5c0-8.45-6.85-15.3-15.3-15.3Zm0 5.4c5.468 0 9.9 4.432 9.9 9.9v12.6l-.008.398C54.683 49.781 50.334 54 45 54c-5.468 0-9.9-4.432-9.9-9.9V31.5l.008-.398C35.317 25.819 39.666 21.6 45 21.6Zm0 9a2.7 2.7 0 0 0-2.7 2.7v10.8a2.7 2.7 0 0 0 5.4 0V33.3a2.7 2.7 0 0 0-2.7-2.7Z" fill="#00C366" fill-rule="evenodd"/></svg>