<svg viewBox="0 0 90 90" xmlns="http://www.w3.org/2000/svg"><g fill="none" fill-rule="evenodd"><path fill="#FFF" d="M0 0h90v90H0z"/><path d="M42.653 26.504c0-6.726-4.024-12.443-10.06-15.133-6.036-2.69-13.078-1.345-17.773 3.363s-6.036 11.77-3.689 17.823c2.348 6.054 8.384 10.089 15.09 10.089h16.432V26.504Zm4.694 0c0-6.726 4.024-12.443 10.06-15.133 6.036-2.69 13.078-1.345 17.773 3.363s6.036 11.77 3.689 17.823c-2.348 6.054-8.384 10.089-15.09 10.089H47.347V26.504Zm0 36.992c0 6.726 4.024 12.443 10.06 15.133 6.036 2.69 13.078 1.345 17.773-3.363s6.036-11.77 3.689-17.823c-2.348-6.054-8.384-10.089-15.09-10.089H47.347v16.142Zm-21.126 11.77c6.372 0 11.737-5.044 11.737-11.77v-11.77H26.221c-6.371 0-11.736 5.044-11.736 11.77s5.365 11.77 11.736 11.77Zm16.432-11.77c0 6.726-4.024 12.443-10.06 15.133-6.036 2.69-13.078 1.345-17.773-3.363s-6.036-11.77-3.689-17.823c2.348-6.054 8.384-10.089 15.09-10.089h16.432v16.142Z" fill="#280" fill-rule="nonzero"/></g></svg>