<svg viewBox="0 0 90 90" xmlns="http://www.w3.org/2000/svg"><defs><radialGradient cx="0%" cy="100%" fx="0%" fy="100%" r="106.833%" id="a"><stop stop-color="#FF7854" offset="0%"/><stop stop-color="#FF4458" offset="100%"/></radialGradient></defs><g fill="none"><path fill="url(#a)" d="M0 0h90v90H0z"/><path d="M34.339 39.49a.173.173 0 0 1-.194-.058c-2.158-2.904-2.7-7.9-2.832-9.818a.505.505 0 0 0-.762-.392c-6.664 3.807-12.846 12.812-12.846 21.508 0 14.936 10.2 27.467 27.757 27.467 16.45 0 27.757-12.916 27.757-27.467 0-19.041-13.376-31.69-25.289-37.409a.428.428 0 0 0-.61.453c1.535 10.26-.583 21.419-12.981 25.717Z" fill="#FFF"/></g></svg>