<svg viewBox="0 0 90 90" xmlns="http://www.w3.org/2000/svg"><defs><radialGradient cx="2.648%" cy="17.788%" fx="2.648%" fy="17.788%" r="109.573%" gradientTransform="matrix(1 0 0 .9315 0 .012)" id="a"><stop stop-color="#20C4F4" offset="0%"/><stop stop-color="#09B4F0" offset="30.4%"/><stop stop-color="#00AEEF" offset="50%"/><stop stop-color="#0092C8" offset="80%"/><stop stop-color="#006E98" offset="100%"/></radialGradient></defs><path d="M65.078 15.835c-.73-1.522-1.827-3.41-3.594-4.749a9.478 9.478 0 0 0-3.228-1.643c-.914-.305-1.888-.426-2.863-.426h-.122c-1.279 0-3.593.304-5.177 2.13a3.361 3.361 0 0 0-.67 3.105c.243.913.853 1.583 1.705 1.887 0 0 .244.122.67.183-.121.244-.426.67-.426.67-.548.791-1.766 1.887-5.117 1.887h-.182c-1.767-.122-3.229-.548-4.934-2.8-1.036-1.4-1.584-3.653-1.706-7.489-.06-1.887-.304-3.53-.792-4.87-.304-.913-1.035-1.826-1.705-2.252-.61-.366-1.097-.67-2.132-1.035-1.157-.366-2.62-.426-3.655-.426-1.4-.061-2.193.304-2.68.913-.06.122-.122.122-.183.122h-.974c-.792 0-1.523.121-2.193.243-1.462.304-2.315.913-3.107 1.522-.365.304-1.035 1.096-1.218 2.009-.122.73 0 1.157.183 1.522 0 .06.122.183.122.243.426-.426 1.157-.79 2.497-.79 1.523 0 3.594.669 4.325 1.825 1.035 1.644.853 3.044.609 4.627-.548 4.079-2.071 6.21-5.482 6.697-.61.06-1.158.122-1.706.122-2.375 0-4.08-.731-4.995-2.192-.243-.365-.243-.487-.243-.487s.243-.061.487-.183c.914-.426 1.584-1.035 1.827-2.009.244-1.096 0-2.252-.73-3.044-1.28-1.46-3.046-2.13-5.239-2.13-1.218 0-2.315.243-2.985.426-2.802.791-4.994 2.861-6.76 6.453C1.424 18.392.571 21.74.206 25.21c-.366 3.47-.183 6.332.06 8.95.366 4.383 1.097 7 2.193 9.8a49.871 49.871 0 0 0 3.899 8.098c.487.791.853 1.34 1.035 1.643l.122-.121.853-.853c.548-.608 2.193-2.74 2.68-3.409.487-.67 1.34-2.009 1.767-2.983l.243-.548.487.366c.488.365.792 1.034.792 1.826 0 .67-.182 1.4-.548 2.8-.426 1.522-1.218 3.349-2.07 4.992-.123.183-.245.366-.305.548-.61 1.035-.853 1.522-.61 1.766l.061.06h.122c.366 0 1.036-.365 1.767-.913.67-.487 2.497-2.07 4.69-5.113a47.174 47.174 0 0 0 4.264-7.245l.182-.426.427.183c.243.121.426.304.548.487.244.426.305 1.035.244 1.704-.183 1.644-1.158 4.14-1.95 5.905-1.279 3.044-3.715 6.454-5.482 8.767-.06.122-.487.609-.548.67.122.121.487.426.975.791l.67.548c2.436 2.009 4.69 3.53 7.553 5.175 2.193 1.217 6.761 3.53 9.746 4.322 2.985-.791 7.492-3.105 9.746-4.322 2.863-1.583 5.177-3.166 7.553-5.175l.67-.548c.426-.365.792-.67.975-.791-.061-.122-.244-.305-.305-.427-.06-.121-.183-.182-.244-.304-1.766-2.313-4.142-5.723-5.482-8.766-.792-1.766-1.705-4.262-1.949-5.906-.06-.67 0-1.278.244-1.704.122-.183.243-.305.426-.426.244-.183.548-.244.548-.244l.183.426c1.28 2.74 2.62 4.931 4.264 7.245 2.193 3.044 4.02 4.566 4.69 5.114.731.608 1.401.913 1.767.913.06 0 .06 0 .122-.061.304-.183.06-.73-.549-1.826-.122-.183-.182-.366-.304-.61a24.168 24.168 0 0 1-2.071-4.991c-.427-1.4-.549-2.131-.549-2.8 0-.731.244-1.4.731-1.827l.488-.365.243.548c.488 1.034 1.401 2.374 1.767 2.983.487.67 2.07 2.8 2.68 3.409l.853.852.122.122c.182-.244.548-.792.974-1.522l.061-.122c1.462-2.313 2.741-5.114 3.838-8.036 1.035-2.8 1.766-5.418 2.192-9.801.244-2.618.366-5.48.061-8.95-.548-3.348-1.462-6.818-2.74-9.253Z" transform="translate(11 9)" fill="url(#a)"/></svg>