<svg viewBox="0 0 90 90" xmlns="http://www.w3.org/2000/svg"><defs><linearGradient x1="50%" y1="0%" x2="50%" y2="100%" id="a"><stop stop-color="#19C8FA" offset="0%"/><stop stop-color="#1D72F0" offset="100%"/></linearGradient></defs><g fill="none" fill-rule="evenodd"><path fill="url(#a)" d="M0 0h90v90H0z"/><path d="M70.828 11H19.169C14.664 11 11 14.667 11 19.172v51.654C11 75.334 14.664 79 19.17 79h51.658C75.332 79 79 75.334 79 70.826V19.172C79 14.667 75.332 11 70.828 11Zm4.442 59.826a4.45 4.45 0 0 1-4.442 4.446H19.169a4.447 4.447 0 0 1-4.44-4.446V19.172c0-2.45 1.99-4.442 4.44-4.442h51.659a4.448 4.448 0 0 1 4.442 4.442v51.654ZM44.986 21.494c12.973 0 23.53 10.558 23.53 23.532 0 12.977-10.557 23.533-23.53 23.533-12.972 0-23.528-10.556-23.528-23.533 0-12.974 10.556-23.532 23.528-23.532Zm0 3.297c-11.156 0-20.23 9.078-20.23 20.235 0 11.158 9.074 20.235 20.23 20.235 11.155 0 20.229-9.077 20.23-20.235 0-11.157-9.074-20.235-20.23-20.235Zm0 4.056a1.47 1.47 0 0 1 1.471 1.47v3.834c0 .036-.01.07-.01.105a10.797 10.797 0 0 1 5.116 2.126c.027-.028.048-.058.074-.085l2.709-2.711a1.47 1.47 0 1 1 2.079 2.077l-2.712 2.712c-.026.028-.056.047-.085.072a10.809 10.809 0 0 1 2.125 5.12c.035-.004.07-.012.107-.012h3.833a1.47 1.47 0 0 1 1.468 1.471c0 .813-.654 1.47-1.468 1.47H55.86c-.037 0-.073-.008-.108-.012a10.807 10.807 0 0 1-2.125 5.12c.031.025.06.044.086.071l2.711 2.711a1.472 1.472 0 0 1 0 2.08 1.468 1.468 0 0 1-2.079 0l-2.709-2.711c-.026-.027-.046-.058-.074-.086a10.783 10.783 0 0 1-5.117 2.125c0 .036.011.07.011.104v3.837a1.469 1.469 0 1 1-2.94 0v-3.837c0-.033.01-.068.014-.104a10.791 10.791 0 0 1-5.12-2.125c-.025.027-.045.058-.071.084l-2.713 2.713a1.47 1.47 0 1 1-2.079-2.08l2.713-2.711c.029-.028.058-.047.086-.071a10.794 10.794 0 0 1-2.125-5.12c-.038.003-.072.01-.106.01l-3.833.001a1.47 1.47 0 0 1 0-2.94h3.835c.034 0 .07.008.105.011a10.797 10.797 0 0 1 2.125-5.12c-.028-.024-.057-.043-.086-.07l-2.713-2.713a1.471 1.471 0 0 1 2.08-2.078l2.711 2.712c.026.027.047.057.071.085a10.805 10.805 0 0 1 5.12-2.126c-.003-.035-.012-.07-.012-.105v-3.834c0-.813.658-1.47 1.468-1.47Zm0 8.599c-4.177 0-7.577 3.4-7.577 7.58s3.4 7.58 7.577 7.58c4.18 0 7.58-3.4 7.58-7.58s-3.4-7.58-7.58-7.58Z" fill="#FFF" fill-rule="nonzero"/></g></svg>