<svg viewBox="0 0 90 90" xmlns="http://www.w3.org/2000/svg"><defs><linearGradient x1="50%" y1="0%" x2="50%" y2="100%" id="a"><stop stop-color="#8661FF" offset="0%"/><stop stop-color="#533EA6" offset="100%"/></linearGradient></defs><g fill="none" fill-rule="evenodd"><path fill="url(#a)" d="M0 0h90v90H0z"/><path d="M68.147 19.227c-1.574-1.44-7.915-6.047-22.038-6.113 0 0-16.664-1.005-24.787 6.445-4.521 4.522-6.113 11.138-6.275 19.346-.17 8.209-.388 23.574 14.436 27.744h.01l-.01 6.36s-.094 2.579 1.602 3.1c2.048.635 3.251-1.318 5.214-3.431 1.07-1.157 2.559-2.863 3.677-4.161 10.133.853 17.934-1.1 18.815-1.384 2.048-.664 13.63-2.152 15.508-17.517 1.943-15.839-.948-25.867-6.152-30.389Zm1.716 29.252C68.27 61.313 58.877 62.128 57.152 62.678c-.74.237-7.583 1.943-16.19 1.374 0 0-6.417 7.735-8.417 9.754-.313.312-.682.445-.929.379-.341-.085-.436-.493-.436-1.09.01-.853.057-10.569.057-10.569-.01 0-.01 0 0 0-12.53-3.479-11.801-16.569-11.659-23.422.142-6.853 1.431-12.464 5.251-16.237 6.872-6.218 21.024-5.289 21.024-5.289 11.953.057 17.678 3.65 19.005 4.853 4.398 3.782 6.644 12.815 5.005 26.048Z" fill="#FFF" fill-rule="nonzero"/><path d="M51.92 38.555c-.152-3.138-1.745-4.778-4.778-4.939" stroke="#FFF" stroke-width="1.598" stroke-linecap="round" stroke-linejoin="round"/><path d="M56.014 39.929c.067-2.92-.796-5.356-2.597-7.318-1.8-1.962-4.294-3.052-7.498-3.28" stroke="#FFF" stroke-width="1.598" stroke-linecap="round" stroke-linejoin="round"/><path d="M60.213 41.569c-.038-5.071-1.554-9.052-4.54-11.972-2.986-2.91-6.71-4.388-11.156-4.417" stroke="#FFF" stroke-width="1.598" stroke-linecap="round" stroke-linejoin="round"/><path d="M47.303 49.256s1.128.095 1.725-.654l1.176-1.479c.569-.74 1.943-1.204 3.289-.455.749.427 2.095 1.251 2.929 1.868.89.654 2.72 2.18 2.72 2.18.872.73 1.071 1.81.484 2.948 0 .009-.01.018-.01.018-.607 1.072-1.422 2.086-2.455 3.024l-.019.02c-.843.7-1.678 1.108-2.493 1.203a1.397 1.397 0 0 1-.36.019c-.36 0-.71-.048-1.062-.161l-.028-.038c-1.26-.35-3.355-1.242-6.853-3.166-2.275-1.251-4.161-2.53-5.754-3.801a30.436 30.436 0 0 1-2.587-2.294l-.086-.085-.085-.085-.085-.086-.085-.085a30.436 30.436 0 0 1-2.294-2.588c-1.27-1.592-2.55-3.488-3.801-5.753-1.924-3.498-2.815-5.593-3.166-6.853l-.038-.029a3.141 3.141 0 0 1-.161-1.061c-.01-.143 0-.266.019-.36.095-.816.502-1.65 1.204-2.494l.018-.018c.939-1.034 1.944-1.849 3.024-2.455.01 0 .02-.01.02-.01 1.137-.588 2.217-.389 2.947.483.01.01 1.526 1.83 2.18 2.72.616.844 1.45 2.181 1.867 2.93.75 1.346.285 2.72-.455 3.289l-1.478 1.175c-.75.607-.654 1.725-.654 1.725s2.199 8.313 10.407 10.408Z" fill="#FFF" fill-rule="nonzero"/></g></svg>