<svg viewBox="0 0 90 90" xmlns="http://www.w3.org/2000/svg"><g fill="none"><path d="M21.658 39.129A205.351 205.351 0 0 0 5.344 52.004c-.357.32-.45.898-.21 1.31C9.635 60.91 14.14 68.52 18.64 76.117c.24.413.802.602 1.249.442a205.91 205.91 0 0 0 19.133-8.113 204.52 204.52 0 0 1-17.364-29.318Zm48.449-25.473a204.462 204.462 0 0 0-19.134 8.113 205.709 205.709 0 0 1 17.363 29.315 202.722 202.722 0 0 0 16.31-12.877c.358-.318.454-.898.214-1.305-4.502-7.602-9.007-15.206-13.509-22.813-.235-.4-.795-.598-1.244-.433Z" fill="#2CE0DF"/><path d="M50.971 21.769A204.309 204.309 0 0 0 38.098 5.456c-.316-.356-.898-.452-1.305-.214-7.602 4.507-15.209 9.007-22.81 13.51-.407.24-.605.801-.439 1.25a204.592 204.592 0 0 0 8.114 19.127 205.51 205.51 0 0 1 29.313-17.36ZM39.018 68.451a204.398 204.398 0 0 0 12.878 16.316 1.08 1.08 0 0 0 1.302.215c7.606-4.5 15.206-9.006 22.809-13.506.406-.238.604-.796.444-1.25a207.026 207.026 0 0 0-8.113-19.133 205.736 205.736 0 0 1-29.32 17.358Z" fill="#A7F501"/><path d="M50.971 21.769A205.632 205.632 0 0 0 21.656 39.13a205.863 205.863 0 0 0 17.362 29.32 205.386 205.386 0 0 0 29.315-17.362A204.827 204.827 0 0 0 50.971 21.77Z" fill="#01CC00"/></g></svg>