<svg viewBox="0 0 90 90" xmlns="http://www.w3.org/2000/svg"><g fill="none" fill-rule="evenodd"><path fill="#FFF" d="M0 0h90v90H0z"/><path d="M66.506 15.76c5.733-5.85-17.789-12.38-31.25-8.68-8.618 2.34-13.463 6.076-11.65 8.907 4.253 6.643 36.354 6.454 42.9-.226Zm8.173 3.586c-3.254-3.963-3.809-4.265-4.105-2.038-1.146 7.964-33.359 14.494-45.082 9.134-4.882-2.227-6.103-4-5.659-8.115.444-4.19.592-4.227-3.106.49-4.18 5.36-3.292 7.965 3.957 11.588 24.557 12.192 66.015 3.7 53.995-11.059Zm-2.736 28.8c9.135-3.285 12.167-7.776 10.133-15.174-1.183-4.265-2.515-6.53-2.515-4.227 0 8.568-30.992 17.89-49.41 14.833-10.91-1.812-19.305-7.36-19.453-12.87l-.037-2.567-.998 2.302c-3.07 7.134-1.59 10.267 7.138 14.72 12.722 6.568 40.903 8.115 55.142 2.982ZM47.386 66.98c24.705 0 37.982-7.851 36.502-21.552l-.259-2.34-1.479 2.34c-4.697 7.36-26.554 14.795-43.53 14.795-15.236 0-25.629-4.378-30.14-12.757L7 44.748l.296 4.001c.777 10.493 17.752 18.23 40.09 18.23Zm32.286-4.001c1.85-3.662 1.628-3.737-1.516-.642-13.351 13.248-50.89 14.418-64.314 2.038-4.253-3.887-3.846-1.887.444 2.53 15.829 16.154 56.473 13.7 65.386-3.926Zm-12.241 14.23c3.735-2.718 3.735-3.473.037-1.397-10.8 5.963-30.438 6.454-42.42 1.019-3.957-1.774-3.514-.717.777 1.85 12.722 7.624 29.919 6.982 41.606-1.473Z" fill="#00AFE2" fill-rule="nonzero"/></g></svg>