<svg viewBox="0 0 90 90" xmlns="http://www.w3.org/2000/svg"><g fill="none" fill-rule="evenodd"><path fill="#20828D" d="M0 0h90v90H0z"/><path d="M52.75 44.611a9.863 9.863 0 0 1 7.523-2.902 11.451 11.451 0 0 1 9.221 4.173C71.831 48.664 73 52.533 73 57.49c0 6.835-2.149 12.192-6.446 16.07a26.21 26.21 0 0 1-16.122 6.288c-1.09.152-2.209.152-3.368.152A41.565 41.565 0 0 1 19.25 69.456L17 67.44l8.848-10.488 5.19 4.007-4.914 5.748a34.994 34.994 0 0 0 21.009 6.91c9.027 0 15.28-3.427 17.71-9.397a8.3 8.3 0 0 0 .206-1.851c0-1.77-.731-2.654-2.194-2.654-.669.06-1.33.185-1.974.374-.812.186-1.64.293-2.471.317a8.43 8.43 0 0 1-5.742-2.418 8.295 8.295 0 0 1-2.678-6.467 9.678 9.678 0 0 1 2.76-6.909Zm-8.806-33.606a38.03 38.03 0 0 1 24.5 8.443l2.375 1.865-7.37 10.53-5.44-3.593 3.92-5.638a31.722 31.722 0 0 0-17.944-5.223 22.175 22.175 0 0 0-9.179 1.824 20.963 20.963 0 0 0-2.664 1.63c-2.963 2.138-4.444 4.694-4.444 7.67 0 1.768.731 2.653 2.194 2.653a10.34 10.34 0 0 0 1.974-.373 12.769 12.769 0 0 1 2.47-.318 8.43 8.43 0 0 1 5.674 2.363 8.296 8.296 0 0 1 2.664 6.508 9.678 9.678 0 0 1-2.76 6.91 9.863 9.863 0 0 1-7.523 2.901 11.451 11.451 0 0 1-9.22-4.145c-2.347-2.778-3.604-6.702-3.617-11.663v-.898c0-12.63 10.035-21.446 24.39-21.446Z" fill="#FFF" fill-rule="nonzero"/></g></svg>