<svg viewBox="0 0 90 90" xmlns="http://www.w3.org/2000/svg"><path d="M65.95 74.487V63.06l6.304 5.713a37.023 37.023 0 0 1-6.305 5.714Zm-26.4 6.304 18.453-17.469v15.433a36.094 36.094 0 0 1-13.069 2.43c-1.773 0-3.612-.131-5.385-.394ZM9.011 48.875l19.373 17.403L47.89 47.955l10.047-9.522v14.054l-27.32 25.809C18.929 73.173 10.392 62.075 9.013 48.875Zm15.367-33.493v11.493l-6.436-5.78a35.496 35.496 0 0 1 6.436-5.713Zm0 36.645L9.406 38.564c.722-3.94 2.036-7.618 3.94-10.967l11.033 9.85v14.58ZM50.516 9.34l-8.143 7.684-10.113 9.522V11.18c3.94-1.51 8.209-2.298 12.674-2.298 1.905 0 3.744.197 5.582.46Zm30.012 42.096c-.656 3.874-1.97 7.486-3.809 10.836L65.884 52.42V38.17l14.644 13.265Zm.394-10.376L61.943 23.854 42.57 42.176l-10.179 9.588V37.448L47.89 22.803l11.558-10.902c11.492 5.057 20.03 16.024 21.474 29.159Zm-4.794-27.188C67.788 5.597 56.755 1 45 1 33.245 1 22.146 5.597 13.872 13.872 5.532 22.212 1 33.245 1 45c0 11.755 4.597 22.854 12.872 31.128C22.212 84.468 33.245 89 45 89c11.755 0 22.854-4.597 31.128-12.872C84.468 67.788 89 56.755 89 45c0-11.69-4.531-22.788-12.872-31.128Z" fill="#00D03F"/></svg>