<svg viewBox="0 0 90 90" xmlns="http://www.w3.org/2000/svg"><defs><linearGradient x1="98.543%" y1="1.416%" x2="1.316%" y2="98.897%" id="a"><stop stop-color="#00D1F3" offset="0%"/><stop stop-color="#00B6FC" offset="100%"/></linearGradient></defs><g fill="none" fill-rule="evenodd"><path fill="url(#a)" d="M0 0h90v90H0z"/><path d="M62.063 18.875v18.25c-2.813-3.563-6.688-5.313-11.75-5.313-5.313 0-10.063 1.938-13.938 5.75-4.375 4.188-6.688 9.563-6.688 15.563 0 6.563 2.5 12.188 7.313 16.438 3.688 3.25 8 4.937 13.063 4.937 5 0 8.75-1.313 12.374-4.938v4.688h11.938V16.312l-12.313 2.563Zm-9.313 44.5c-6.313 0-10.813-4.438-10.813-10.313 0-5.624 4.5-10.374 10.376-10.374 5.75 0 10.187 4.5 10.187 10.5 0 5.812-4.438 10.187-9.75 10.187Z" fill="#FFF" fill-rule="nonzero"/></g></svg>