<svg viewBox="0 0 90 90" xmlns="http://www.w3.org/2000/svg"><defs><linearGradient x1="50%" y1="0%" x2="50%" y2="100%" id="a"><stop stop-color="#218FCC" offset="0%"/><stop stop-color="#145BAD" offset="100%"/></linearGradient><linearGradient x1="50%" y1="0%" x2="50%" y2="100%" id="b"><stop stop-color="#E79E25" offset="0%"/><stop stop-color="#C5882A" offset="100%"/></linearGradient></defs><g fill="none" fill-rule="evenodd"><path fill="url(#a)" d="M0 0h90v90H0z"/><circle fill="#FAFAFA" cx="45" cy="45" r="31"/><path d="M21 0h9a3 3 0 0 1 3 3v43H18V3a3 3 0 0 1 3-3Z" fill="url(#b)" transform="rotate(45 30.006 75.855)"/><path d="M32.728 34.941 53.94 56.154l-8.485 8.486a3 3 0 0 1-4.243 0L22.121 45.548a3 3 0 0 1 0-4.243l6.364-6.364a3 3 0 0 1 4.243 0Z" fill="#E59F26"/></g></svg>