<svg viewBox="0 0 90 90" xmlns="http://www.w3.org/2000/svg"><g fill="none" fill-rule="evenodd"><path fill="#FFF" d="M0 0h90v90H0z"/><g fill-rule="nonzero"><path fill="#E10026" d="M10.15 16.226h18.893L10.151 35.87z"/><path d="m63.065 16.226-7.678 23.86c-1.505-2.409-3.462-4.29-5.87-5.495-2.41-1.204-5.42-1.806-8.657-1.806-1.43 0-2.258.075-3.462.226-1.204.15-3.01.602-4.516 1.204-4.742 1.957-9.183 5.796-12.119 11.065-2.935 5.344-3.914 11.14-3.01 16.182.903 5.043 3.613 9.409 7.903 11.742 4.29 2.409 9.409 2.409 14.15.452 2.56-1.054 5.043-2.634 7.302-4.742v.075l-1.732 5.119h15.732c.602-2.56 1.43-5.495 2.408-8.807.075-.301.15-.602.226-.753l15.731-48.473H63.065v.15Zm-12.947 40.72c-2.484 6.473-8.129 10.312-12.494 8.656-4.366-1.731-5.871-8.28-3.387-14.753 2.483-6.473 8.129-10.311 12.494-8.655 4.441 1.73 5.946 8.354 3.387 14.752Z" fill="#005696"/></g></g></svg>