<svg viewBox="0 0 90 90" xmlns="http://www.w3.org/2000/svg"><g fill="none" fill-rule="evenodd"><path fill="#05A8D9" d="M0 0h90v90H0z"/><path d="M45 75c-16.625 0-30.125-13.25-30-30 .126-16.75 12.75-30 30-30 17.251 0 30 13.5 30 30S61.626 75 45 75Zm8.875-4.625-8.5-22.875-8 23.375c5.876 1.376 9.875 1.75 16.5-.5ZM20.376 34.25C18.626 38 18.252 41.126 18.001 45c.125 10.25 5.874 19.624 15.125 24.125L20.376 34.25Zm48.374-1.875c.251 5.126-.5 7.75-1.374 10.626l-8.75 25.125C69.626 61.5 71.749 51.625 72 45c.124-6.625-2.999-11.875-3.25-12.625Zm-24.624 11.5-4.25-11.625L36.75 32c-1.25-.875-.5-2.25.375-2.25 5.624.375 8.749.375 14.375 0 1.375 0 1.75 2 .124 2.25l-3 .25L58.374 61l4.624-15.75c.25-6.875-1.626-7.625-4.125-12.625-2-3.875.125-7.625 4-7.75-3.126-3-9.5-6.75-17.875-6.875s-17.25 4.125-22.5 12.125l9.251-.25c1.125.501.625 2.125 0 2.25l-3.25.25 9.75 29.25 5.877-17.75Z" fill="#FFF" fill-rule="nonzero"/></g></svg>