<svg viewBox="0 0 90 90" xmlns="http://www.w3.org/2000/svg"><path d="m13.367 52.699 26.35-26.35a18.555 18.555 0 0 0 5.53-13.229c0-5.096-2.06-9.759-5.367-13.12L13.53 26.35A18.555 18.555 0 0 0 8 39.577c0 5.15 2.06 9.76 5.367 13.12ZM77.181 37.3l-26.35 26.35a18.555 18.555 0 0 0-5.53 13.229c0 5.096 2.06 9.759 5.368 13.12l26.35-26.35a18.555 18.555 0 0 0 5.53-13.228c0-5.15-2.061-9.76-5.368-13.12Zm-.163-10.897s0-.055 0 0a18.555 18.555 0 0 0 5.53-13.23A18.71 18.71 0 0 0 77.181.053L13.53 63.651A18.555 18.555 0 0 0 8 76.88c0 5.096 2.06 9.759 5.367 13.12l63.651-63.596Z" fill="#1292EE"/></svg>