<svg viewBox="0 0 90 90" xmlns="http://www.w3.org/2000/svg"><g fill="none" fill-rule="evenodd"><path fill="#FFF" d="M0 0h90v90H0z"/><g fill-rule="nonzero"><path d="M15.636 70h10.819V43.734L11 32.146v33.219A4.635 4.635 0 0 0 15.636 70Z" fill="#4285F4"/><path d="M63.545 70h10.819A4.635 4.635 0 0 0 79 65.365v-33.22l-15.455 11.59V70Z" fill="#34A853"/><path d="M63.545 23.648v20.086L79 32.146v-6.18c0-5.729-6.541-9-11.127-5.563l-4.328 3.245Z" fill="#FBBC04"/><path fill="#EA4335" d="M26.455 43.734V23.648L45 37.553l18.545-13.905v20.086L45 57.639z"/><path d="M11 25.965v6.18l15.455 11.589V23.648l-4.328-3.245C17.541 16.965 11 20.237 11 25.965Z" fill="#C5221F"/></g></g></svg>