<svg viewBox="0 0 90 90" xmlns="http://www.w3.org/2000/svg"><path d="M33.275 10 10 23.475v30.8C10 68.45 21.375 80 35.55 80c4.725 0 9.1-1.225 12.95-3.325l18.9-10.85C74.925 61.8 80 54.1 80 45V12.8l-4.55-2.625L55.5 20.85v33.6c0 1.4-.175 2.8-.35 4.2-.35 1.4-.7 2.625-1.225 3.85l-.525 1.05c-.7 0-5.075-1.575-7.35-3.15a17.67 17.67 0 0 1-2.8-2.275 17.67 17.67 0 0 1-2.275-2.8c-.7-1.05-1.225-2.1-1.75-3.15-.525-1.05-.875-2.275-1.05-3.5C38 47.45 38 46.225 38 45V12.8L33.275 10ZM44.65 73.35c-1.225.525-2.975 1.225-4.375 1.575-1.4.35-2.625.35-4.025.35-1.4 0-2.8-.175-4.2-.525-1.4-.35-2.625-.7-3.85-1.225C26.975 73 25.75 72.3 24.7 71.6c-3.15-1.925-4.725-3.675-5.95-5.6-.7-1.05-1.4-2.275-1.925-3.5-.525-1.225-.875-2.625-1.225-4.025-.35-1.4-.35-2.8-.35-4.2V26.1l17.5-10.675V45c0 11.2 8.225 20.65 18.725 22.925-.35.525-.7 1.05-1.225 1.4-1.925 1.925-3.5 3.15-5.6 4.025Zm29.75-24.5c-.175 1.225-.7 2.45-1.05 3.5-.525 1.05-1.05 2.1-1.75 3.15-.7 1.05-2.8 3.675-5.6 5.25-2.8 1.575-5.425 2.1-7 2.45 1.05-2.8 1.75-5.6 1.75-8.75V23.475l14-8.05V45c0 1.4 0 2.625-.35 3.85Z" fill="#02B3E4"/></svg>