<svg viewBox="0 0 90 90" xmlns="http://www.w3.org/2000/svg"><g fill="none"><g transform="translate(3.72 39.249)"><path d="M0 .704h19.535v3.052A81.577 81.577 0 0 1 0 3.756" fill="#FFD54E"/><ellipse fill="#C6A900" cx="9.767" cy=".704" rx="9.767" ry="1"/></g><g transform="translate(3.72 43.474)"><path d="M0 .704h19.535v3.052A81.577 81.577 0 0 1 0 3.756" fill="#FFD54E"/><ellipse fill="#C6A900" cx="9.767" cy=".704" rx="9.767" ry="1"/></g><g transform="translate(3.72 47.7)"><path d="M0 .704h19.535v3.052A81.577 81.577 0 0 1 0 3.756" fill="#FFD54E"/><ellipse fill="#C6A900" cx="9.767" cy=".704" rx="9.767" ry="1"/></g><g transform="translate(3.72 51.925)"><path d="M0 .704h19.535v3.052A81.577 81.577 0 0 1 0 3.756" fill="#FFD54E"/><ellipse fill="#C6A900" cx="9.767" cy=".704" rx="9.767" ry="1"/></g><g transform="translate(3.72 56.15)"><path d="M19.535.704v3.052a81.82 81.82 0 0 1-9.454.586A44.5 44.5 0 0 1 0 2.332V.704h19.535Z" fill="#FFD54E"/><ellipse fill="#C6A900" cx="9.768" cy=".704" rx="9.767" ry="1"/></g><g transform="translate(26.047 26.808)"><path d="M0 .704h19.535v3.052A81.577 81.577 0 0 1 0 3.756" fill="#FFD54E"/><ellipse fill="#C6A900" cx="9.767" cy=".704" rx="9.767" ry="1"/></g><g transform="translate(26.047 31.033)"><path d="M0 .704h19.535v3.052A81.577 81.577 0 0 1 0 3.756" fill="#FFD54E"/><ellipse fill="#C6A900" cx="9.767" cy=".704" rx="9.767" ry="1"/></g><g transform="translate(26.047 35.258)"><path d="M0 .704h19.535v3.052A81.577 81.577 0 0 1 0 3.756" fill="#FFD54E"/><ellipse fill="#C6A900" cx="9.767" cy=".704" rx="9.767" ry="1"/></g><g transform="translate(26.047 39.484)"><path d="M0 .704h19.535v3.052A81.577 81.577 0 0 1 0 3.756" fill="#FFD54E"/><ellipse fill="#C6A900" cx="9.767" cy=".704" rx="9.767" ry="1"/></g><g transform="translate(26.047 43.709)"><path d="M0 .704h19.535v3.052A81.577 81.577 0 0 1 0 3.756" fill="#FFD54E"/><ellipse fill="#C6A900" cx="9.767" cy=".704" rx="9.767" ry="1"/></g><g transform="translate(26.047 39.484)"><path d="M0 .704h19.535v3.052A81.577 81.577 0 0 1 0 3.756" fill="#FFD54E"/><ellipse fill="#C6A900" cx="9.767" cy=".704" rx="9.767" ry="1"/></g><g transform="translate(26.047 43.709)"><path d="M0 .704h19.535v3.052A81.577 81.577 0 0 1 0 3.756" fill="#FFD54E"/><ellipse fill="#C6A900" cx="9.767" cy=".704" rx="9.767" ry="1"/></g><g transform="translate(26.047 47.934)"><path d="M0 .704h19.535v3.052A81.577 81.577 0 0 1 0 3.756" fill="#FFD54E"/><ellipse fill="#C6A900" cx="9.767" cy=".704" rx="9.767" ry="1"/></g><g transform="translate(26.047 52.16)"><path d="M19.535.704v.918A89.685 89.685 0 0 1 13.2 4.27c-4.4.186-8.8.015-13.2-.514V.704h19.535Z" fill="#FFD54E"/><ellipse fill="#C6A900" cx="9.767" cy=".704" rx="9.767" ry="1"/></g><path d="M45.581 57.09v3.05a81.599 81.599 0 0 1-13.294.511c3.372-.891 6.817-2.08 10.333-3.56l2.961-.002Zm-8.176 0c-3.88 1.337-7.667 2.302-11.36 2.887l.002-2.888Z" fill="#FFD54E"/><path d="M36.15 56.385c1.086.003 2.127.018 3.095.045a77.453 77.453 0 0 1-3.981 1.363c-5.139-.021-9.217-.328-9.217-.704 0-.389 4.373-.704 9.767-.704Zm7.462.28c1.236.118 1.97.265 1.97.424 0 .246-1.746.462-4.392.588.709-.283 1.422-.58 2.138-.888Z" fill="#C6A900"/><g transform="translate(48.14 20)"><path d="M0 .704h19.535v3.052A81.577 81.577 0 0 1 0 3.756" fill="#FFD54E"/><ellipse fill="#C6A900" cx="9.767" cy=".704" rx="9.767" ry="1"/></g><g transform="translate(48.14 24.225)"><path d="M0 .704h19.535v3.052A81.577 81.577 0 0 1 0 3.756" fill="#FFD54E"/><ellipse fill="#C6A900" cx="9.767" cy=".704" rx="9.767" ry="1"/></g><g transform="translate(48.14 28.45)"><path d="M0 .704h19.535v3.052A81.577 81.577 0 0 1 0 3.756" fill="#FFD54E"/><ellipse fill="#C6A900" cx="9.767" cy=".704" rx="9.767" ry="1"/></g><g transform="translate(48.14 32.676)"><path d="M0 .704h19.535v3.052A81.577 81.577 0 0 1 0 3.756" fill="#FFD54E"/><ellipse fill="#C6A900" cx="9.767" cy=".704" rx="9.767" ry="1"/></g><g transform="translate(48.14 36.901)"><path d="M0 .704h19.535v3.052A81.577 81.577 0 0 1 0 3.756" fill="#FFD54E"/><ellipse fill="#C6A900" cx="9.767" cy=".704" rx="9.767" ry="1"/></g><g transform="translate(48.14 36.901)"><path d="M0 .704h19.535v3.052A81.577 81.577 0 0 1 0 3.756" fill="#FFD54E"/><ellipse fill="#C6A900" cx="9.767" cy=".704" rx="9.767" ry="1"/></g><path d="M65.827 41.832a157.686 157.686 0 0 1-5.291 3.595 81.668 81.668 0 0 1-12.396-.544V41.83Zm1.847.672v2.379c-1.296.155-2.593.28-3.89.374a170.116 170.116 0 0 0 3.89-2.753Z" fill="#FFD54E"/><path d="M58.243 41.127c3.447.009 6.441.146 8.086.347-.392.28-.782.557-1.172.83-1.787.142-4.373.231-7.25.231h-.336c-5.239-.013-9.431-.323-9.431-.704 0-.389 4.373-.704 9.767-.704Z" fill="#C6A900"/><path d="M67.674 46.056v3.052a81.73 81.73 0 0 1-10.734.581 145.397 145.397 0 0 0 5.667-3.632h5.067Zm-8.115 0a132.648 132.648 0 0 1-5.847 3.53 81.762 81.762 0 0 1-5.572-.478v-3.052Z" fill="#FFD54E"/><path d="M58.243 45.353c.818.002 1.611.01 2.366.026-.723.471-1.445.931-2.163 1.38l-.203.001h-.672c-5.239-.013-9.431-.323-9.431-.704 0-.389 4.373-.704 9.767-.704Zm5.219.124c2.545.127 4.212.34 4.212.58 0 .293-2.495.545-6.042.65.564-.372 1.13-.753 1.697-1.139Z" fill="#C6A900"/><path d="M67.674 50.282 63.5 53.5c-5.818.7-8.303.64-13.411.062 1.934-1.01 3.89-2.104 5.865-3.281h11.72Zm-15.203-.001a111.66 111.66 0 0 1-4.332 2.274v-2.273Z" fill="#FFD54E"/><path d="M58.243 49.578c5.239.013 9.431.323 9.431.704 0 .389-4.373.704-9.767.704h-.336c-.96-.003-1.884-.015-2.754-.036.764-.444 1.53-.9 2.3-1.37.26-.002.524-.003.79-.003Zm-4.645.073c-.704.398-1.405.786-2.103 1.164-2.056-.131-3.355-.321-3.355-.533 0-.276 2.194-.514 5.39-.63Z" fill="#C6A900"/><path d="M0 58.732c20.93 8.92 46.28.94 75.116-22.3l-3.023-2.347L90 27.512l-3.953 17.136-3.024-2.582C32.791 77.042 16.28 66.244 0 58.732" fill="#03A9F3"/></g></svg>