<svg viewBox="0 0 90 90" xmlns="http://www.w3.org/2000/svg"><defs><linearGradient x1="0%" y1="50%" x2="100%" y2="50%" id="a"><stop stop-color="#EC1C24" offset="0%"/><stop stop-color="#FFF100" offset="20%"/><stop stop-color="#00A551" offset="40%"/><stop stop-color="#00A8EA" offset="60%"/><stop stop-color="#2E3191" offset="80%"/><stop stop-color="#EB008B" offset="100%"/></linearGradient></defs><g fill="none" fill-rule="evenodd"><path fill="#1A1A1A" d="M0 0h90v90H0z"/><g fill-rule="nonzero"><path d="m33.88 74.326-1.55 1.194s13.547-37.2 16.29-44.95C51.364 22.82 54.03 14 54.03 14h3.797L33.88 74.326Z" fill="#FFF"/><path d="M61.889 31.701c-3.1-3.89-8.014-5.875-13.95-5.565a31.217 31.217 0 0 0-17.314 6.867 29 29 0 0 0-8.944 10.447h3.1a26.66 26.66 0 0 1 7.255-8.649 28.907 28.907 0 0 1 15.98-6.386c5.224-.264 9.502 1.395 12.059 4.65 2.557 3.255 3.1 7.859 1.55 12.85a29.109 29.109 0 0 1-10.09 13.95c-10.013 7.889-22.878 8.385-28.66 1.767a10.85 10.85 0 0 1-2.62-5.007L19 55.447a13.438 13.438 0 0 0 2.728 7.564A15.794 15.794 0 0 0 34.5 68.576a30.674 30.674 0 0 0 18.43-6.882A31.155 31.155 0 0 0 63.95 46.55c1.674-5.657.977-10.959-2.062-14.849Z" fill="#FFF"/><path d="M57.268 34.683c-34.399 0-46.062 3.664-46.062 3.664l4.527-5.456 42.671.102-1.136 1.69Z" fill="url(#a)" transform="translate(19 14)"/></g></g></svg>