<svg viewBox="0 0 90 90" xmlns="http://www.w3.org/2000/svg"><g fill="none" fill-rule="evenodd"><path fill="#FFF" d="M0 0h90v90H0z"/><path d="M78.014 26.97c-6.532 0-11.203 5.719-16.018 12.094C59.006 25.526 55.692 12 45.126 12s-13.892 13.526-16.93 27.076c-4.803-6.387-9.474-12.106-16.005-12.106C8.036 26.97 1 29.776 1 40.305v19.101c0 10.327 5.547 12.857 8.873 13.729C15.613 74.615 29.433 76 44.994 76c15.561 0 29.381-1.385 35.12-2.865C83.442 72.263 89 69.733 89 59.406v-19.1c0-10.53-7.036-13.336-11.19-13.336m-32.685-9c6.328 0 8.741 12.416 12.103 27.314-3.686 4.513-7.6 8.154-12.103 8.154s-8.405-3.641-12.103-8.154c3.146-13.931 5.571-27.314 12.103-27.314M7.1 59.466V40.365c0-6.65 3.602-7.366 5.187-7.366 4.61 0 9.605 7.64 14.276 13.777-3.338 13.92-6.868 22.395-15.2 20.652-2.174-.585-4.215-1.957-4.215-7.903M23.5 69.207C27.187 65.22 29.505 59 31.341 52.41c3.855 4.024 8.31 7.056 13.833 7.056s9.966-3.032 13.832-7.056c1.79 6.59 4.143 12.81 7.829 16.797-6.448.585-14.204.943-21.613.943-7.408 0-15.225-.358-21.673-.943m59.7-9.682c0 5.97-2.042 7.318-4.215 7.903-8.345 1.755-11.863-6.733-15.2-20.652 4.718-6.137 9.605-13.777 14.276-13.777 1.56 0 5.187.716 5.187 7.366l-.048 19.16Z" fill="#21375A" fill-rule="nonzero"/></g></svg>