<svg viewBox="0 0 90 90" xmlns="http://www.w3.org/2000/svg" xmlns:xlink="http://www.w3.org/1999/xlink"><defs><path id="a" d="M0 0h90v90H0z"/></defs><g fill="none" fill-rule="evenodd"><mask id="b" fill="#fff"><use xlink:href="#a"/></mask><use fill="#FFF" xlink:href="#a"/><g mask="url(#b)" fill-rule="nonzero"><path d="M19.817 75.194c.043-1.218.19-2.865 1.543-3.351 1.782-.64 3.349 1.656 4.215 2.863.682.956 1.25 2.012 1.751 3.071.488 1.04 1.503 2.413.764 3.54-.7 1.067-2.051.788-3.1.616-1.523-.247-3.11-.656-4.47-1.4-.85-.46-1.865-.95-1.956-2.046-.068-.826.404-1.253.795-1.874.276-.437.44-.9.458-1.419" fill="#17273E"/><path d="M21.284 75.247c-.026.724-.24 1.44-.681 2.144-.674 1.07-1.064.942.62 1.86 1.062.581 2.416.981 4.003 1.24 2.37.386 1.818.122.773-2.09-.507-1.07-1.04-2.036-1.619-2.845-2.294-3.204-3.002-2.986-3.096-.309" fill="#276CA0"/><path d="M21.284 75.247c-.026.724-.24 1.44-.681 2.144-.674 1.07-1.064.942.62 1.86.354.193.721.359 1.099.499-.06-2.27.214-4.528-.701-6.328-.206.31-.306.93-.337 1.825" fill="#2C8DBB"/><path d="M9.84 73.443c.065-.124.12-.258.162-.391.41-1.275-.002-3.335 1.469-3.945.904-.373 1.702.12 2.298.756.552.59 1.059 1.316 1.522 1.977.636.914 1.22 1.863 1.749 2.843.482.888 1.287 1.857.704 2.915-.568 1.03-1.738.927-2.72.822a10.07 10.07 0 0 1-2.252-.503c-1.141-.397-2.555-.731-3.139-1.915-.42-.855-.225-1.756.207-2.559" fill="#17273E"/><path d="M11.131 74.135c-.845 1.572.45 1.818 2.126 2.403a8.833 8.833 0 0 0 1.921.427c1.881.202 1.396-.07.571-1.587a28.086 28.086 0 0 0-1.661-2.702c-3.29-4.716-1.72-.841-2.957 1.459" fill="#276CA0"/><path d="M11.131 74.135c-.715 1.331.107 1.713 1.391 2.152.373-1.98.181-3.872-.464-5.835-.487.119-.139 2.218-.927 3.683" fill="#2C8DBB"/><path d="M.67 72.463a2.88 2.88 0 0 0-.018-.263c-.12-1.189-.83-2.727.275-3.675.77-.66 1.71-.423 2.504.01.786.428 1.578 1.032 2.287 1.577.546.42 1.053.89 1.514 1.402.758.84 1.782 1.831 1.472 3.082-.297 1.207-1.52 1.581-2.602 1.742-.874.13-1.805.114-2.684.034-.876-.078-1.857.002-2.476-.764-.541-.672-.383-1.39-.31-2.158.032-.328.046-.657.038-.987" fill="#17273E"/><path d="M2.137 72.423c.007.39-.007.78-.043 1.168-.135 1.408-.291 1.169 1.457 1.325.832.075 1.648.077 2.334-.025 2.229-.333 1.418-1.108.256-2.4a9.986 9.986 0 0 0-1.318-1.221c-4.406-3.384-2.746-1.003-2.686 1.153" fill="#276CA0"/><path d="M2.137 72.423c.007.39-.007.78-.043 1.168-.135 1.408-.291 1.169 1.457 1.325.143.013.284.024.425.03-.443-2.215-.968-3.774-2.036-5.346-.438.186.162 1.544.197 2.823" fill="#2C8DBB"/><path d="M68.03 62.474c-4.461-2.374-12.85-7.127-12.74-12.77.021-1.057.328-2.052.855-2.966l.141-.243.216-.18a7.076 7.076 0 0 1 2.494-1.339c3.414-1.01 7.024.804 9.77 2.699 4.025 2.776 7.791 6.743 11.012 10.4.725.825 1.863 1.804 2.081 2.905.231 1.176-.513 2.417-1.017 3.437-2.32 4.711-5.894 9.057-9.905 12.802l.131.442c1.088 3.645.713 6.85-1.938 9.739l-.292.316-.414.121c-2.015.597-4.143.214-6.16-.155l-.481-.09-.344-.35c-3.38-3.437-5.017-7.098-2.087-11.488 1.099-1.648 2.124-3.345 3.157-5.036 1.594-2.61 3.226-5.35 5.122-7.751.129-.162.26-.327.399-.493" fill="#17273E"/><path d="M69.108 61.29c-8.872-4.69-14.194-9.311-11.616-13.78 4.73-3.898 12.22 1.473 21.118 11.586 2.06 2.34 2.236 1.81.84 4.64-3.171 6.437-9.139 12.727-16.196 17.747.899-.42 1.8-.84 2.7-1.262 1.151 1.823 1.615 3.502.631 4.877 1.517-1.172 1.838-2.487.766-5.04l2.23-1.958c.892 2.992.752 5.695-1.597 8.256-1.831.54-4.194.031-5.438-.197-2.885-2.934-4.383-5.833-1.905-9.547 4.382-6.57 8.932-16.01 13.048-16.353-1.645-.728-3.5-.301-4.581 1.03" fill="#2B4F91"/><path d="M69.106 61.29c-5.478-2.896-9.602-5.768-11.348-8.593l-.038-5.366c2.571-1.923 5.921-1.227 9.847 1.4.882 3.416 1.713 8.788 1.721 12.35l-.182.21Zm-.762 16.186a66.108 66.108 0 0 1-5.09 4.007c.899-.42 1.8-.84 2.7-1.262 1.151 1.823 1.615 3.502.631 4.877 1.519-1.172 1.838-2.487.766-5.04l1.004-.88c.549 1.957.722 3.92.626 5.882a8.862 8.862 0 0 1-.997 1.296c-1.831.54-4.194.031-5.438-.197-2.885-2.934-4.383-5.833-1.905-9.548 3.224-4.834 6.542-11.224 9.707-14.397-.068 5.272-.866 10.265-2.004 15.262Z" fill="#243D75"/><path d="M25.906 31.306a7.823 7.823 0 0 0-1.245-1.335c-.621-.524-1.305-.874-2.02-1.24-.844-.429-1.732-.895-2.006-1.883-.268-.975.232-1.825.884-2.503.747-.782 1.758-1.504 2.64-2.13 2.307-1.635 4.916-3.07 7.421-4.389l3.198-1.688-1.117 3.432-4.214 12.939-.855 2.625c-.23 2.658-.468 5.318-.701 7.976l.152.694c.777 3.573 1.553 7.15 2.328 10.726l1.22 5.61-3.762-4.345c-1.229-1.416-2.763-2.17-4.599-2.49-.778-.134-1.556-.19-2.336-.289-.891-.114-1.81-.327-2.3-1.168-.547-.938-.163-1.93.362-2.765.624-1 1.495-2 2.263-2.893.884-1.023 1.942-1.852 3.095-2.536l-.052-.045c-.355-.3-.856-.49-1.294-.624-1.45-.448-3.564-.568-4.381-2.024-.918-1.625.44-3.441 1.462-4.64 1.628-1.917 3.778-3.55 5.857-5.015" fill="#17273E"/><path d="M32.556 23.096c5.027 4.789 11.45 7.804 17.259 11.505 3.965 2.526 7.577 5.356 10.415 9.145 3.482 4.652 5.266 10.036 6.06 15.741.27 1.941.403 3.904.481 5.862a74.64 74.64 0 0 1-.31 10.692c-.877 8.505-3.444 17.564-9.456 23.927-7.513 7.958-19.307 11.143-28.682 4.275-3.63-2.662-6.64-6.167-9.561-9.563-1.914-2.23-3.819-4.478-5.89-6.567-2.392-2.417-5.108-4.965-8.342-6.196-3.627-1.382-5.629-1.049-8.884.977-.909.567-2.183 1.548-3.204.532-.432-.43-.54-1.04-.354-1.605.516-1.545 1.29-2.97 2.364-4.196 5.534-6.323 16.54-4.907 23.216-1.357 2.519 1.34 5.263 2.87 8.167 3.062 2.054.134 4.141-.25 5.737-1.627 1.312-1.13 2.028-2.704 2.353-4.374.471-2.425.289-4.69-.49-7.028-1.084-3.247-3.034-6.196-4.291-9.397-4.291-10.92-5.679-23.367 1.214-33.572l.957-1.416 1.24 1.18" fill="#17273E"/><path d="M31.558 24.138c-6.582 9.739-5.212 21.693-1.07 32.24 1.268 3.23 3.223 6.193 4.315 9.47.863 2.575 1.06 5.08.541 7.754-.386 1.995-1.27 3.848-2.829 5.192-1.89 1.631-4.331 2.133-6.774 1.972-3.154-.206-5.991-1.757-8.754-3.228C10.933 74.318.585 72.81-4.46 78.569c-.858.981-1.58 2.2-2.08 3.706-.124.372.482-.02 1.421-.603 3.599-2.24 6.065-2.663 10.166-1.1 3.26 1.242 5.981 3.628 8.855 6.528 2.093 2.114 4.022 4.39 5.958 6.643 2.817 3.277 5.819 6.776 9.318 9.34 8.784 6.433 19.76 3.328 26.778-4.103 5.776-6.116 8.225-14.917 9.067-23.089a73.84 73.84 0 0 0 .306-10.486c-.077-1.89-.207-3.843-.47-5.719-.764-5.466-2.45-10.624-5.788-15.078-2.735-3.651-6.211-6.359-10.033-8.793-5.985-3.813-12.324-6.766-17.48-11.677" fill="#2B4F91"/><path d="M31.558 24.138c-6.582 9.739-5.212 21.693-1.07 32.24 1.268 3.23 3.223 6.193 4.315 9.47.863 2.575 1.06 5.08.541 7.754-.386 1.995-1.27 3.848-2.829 5.192-1.89 1.631-4.331 2.133-6.774 1.972-3.154-.206-5.991-1.757-8.754-3.228C10.933 74.318.585 72.81-4.46 78.569c-.858.981-1.58 2.2-2.08 3.706-.04.123-.001.163.1.142 7.69-10.793 22.13-4.8 35.442 2.664 11.051 3.181 9.8-9.286 8.473-16.333-2.012-10.659-6.793-23.294-7.117-28.023-.3-4.445.61-9.097 3.902-14.256l-.175-.137-.03-.025-.01-.01-.175-.14-.045-.034-.041-.035-.044-.034-.128-.105-.041-.037-.047-.035-.041-.034-.129-.107-.045-.035-.02-.02-.021-.017-.2-.17-.072-.059-.192-.167-.018-.014-.027-.023-.21-.184-.011-.009-.03-.03-.201-.176-.01-.009-.009-.007-.03-.029-.202-.184-.008-.005-.002-.005-.038-.032-.207-.191-.001-.004-.242-.228Zm.242.228-.242-.228.242.228Z" fill="#2C8DBB"/><path d="M31.531 58.73c1.14 2.36 2.45 4.65 3.272 7.118l.032.09c1.599-5.064 2.687-10.13 3.203-15.195L31.53 58.73" fill="#243D75"/><path d="m31.531 58.73.014.03.039.08.162.332.016.028.04.083.028.064.026.045.055.111.054.11.012.025.042.085.03.06.026.05.104.206.007.013.01.024.045.086.028.06.027.049.048.097.008.013.058.111.006.02.046.09.03.056.027.053.045.091.01.018.055.11.01.019.044.09.029.056.029.054.045.092.01.017.052.11.011.019.047.091.026.055.028.055.044.09.01.019.056.112.008.016.045.093.028.051.027.058.043.089.01.021.056.111.007.016.048.095.022.05.029.06.041.086.013.024.052.111.005.012.047.099.024.048.029.062.05.11.054.112.005.012.045.098.024.048.027.064.038.085.013.027.048.11.008.01.043.103.02.045.03.067.037.082.06.141.003.008.044.106.048.112.035.082.013.032.046.11.004.006.041.109.018.042.029.071.031.08.012.033.045.114v.003l.043.112.039.1.033.091.014.037.042.114.04.113.013.04.028.075.027.078.01.04.039.115.032.09c.405-1.284.78-2.577 1.124-3.88a223.771 223.771 0 0 0-1.805-6.549l-2.623 3.22" fill="#2B4F91"/><path d="M-.48 79.646c6.043-.139 10.04 3.072 14.382 7.454 2.093 2.114 4.022 4.39 5.958 6.643 2.817 3.277 5.819 6.776 9.318 9.34 8.784 6.433 19.76 3.328 26.778-4.103 5.776-6.116 8.225-14.917 9.067-23.089a73.84 73.84 0 0 0 .306-10.486c-.077-1.89-.207-3.843-.47-5.719-.764-5.466-2.45-10.624-5.788-15.078-2.735-3.651-6.211-6.359-10.033-8.793a138.534 138.534 0 0 0-4.426-2.68c-2 .646-3.763 1.636-4.972 3.142-3.358 4.171-1.097 10.26 1.018 14.439 2.043 4.034 3.772 8.318 4.932 12.69 1.533 5.768 2.204 12.234.378 18.011a19.55 19.55 0 0 1-4.902 8.074c-1.482 1.472-3.214 2.628-5.21 3.287-6.931 2.279-10.54-1.987-15.184-6.318-6.351-5.924-13.015-8.67-21.152-6.814" fill="#17273E"/><path d="M4.97 80.543c3.296 1.234 6.038 3.634 8.932 6.557 2.093 2.114 4.022 4.39 5.958 6.643 2.817 3.277 5.819 6.776 9.318 9.34 8.784 6.433 19.76 3.328 26.778-4.103 5.776-6.116 8.225-14.917 9.067-23.089a73.84 73.84 0 0 0 .306-10.486c-.077-1.89-.207-3.843-.47-5.719-.764-5.466-2.45-10.624-5.788-15.078-2.735-3.651-6.211-6.359-10.033-8.793-.885-.561-1.778-1.11-2.678-1.647-6.206 1.451-9.638 5.528-4.392 15.889 6.11 12.064 11 29.659.133 40.468-1.632 1.623-3.554 2.907-5.784 3.641-7.725 2.542-11.815-2.131-16.647-6.638-4.581-4.273-9.282-6.824-14.7-6.986" fill="#F9C624"/><path d="M44.34 34.778c-4.856 1.862-7.016 6.108-2.372 15.279 6.11 12.064 11 29.659.133 40.468-1.632 1.623-3.554 2.907-5.784 3.641-7.725 2.542-11.815-2.131-16.647-6.638a39.322 39.322 0 0 0-2.206-1.913c3.454 4.59 8.962 10.116 16.913 9.544 2.646-.19 5.266-.997 7.488-2.811 14.523-11.866 6.563-31.958 1.011-44.053-2.319-5.047-3.452-10.293 1.464-13.517" fill="#FAEC30"/><path d="m13.894 87.095.008.005c2.093 2.114 4.022 4.39 5.958 6.643 2.817 3.277 5.819 6.776 9.318 9.34 8.784 6.433 19.76 3.328 26.778-4.103 5.776-6.116 8.225-14.917 9.067-23.089a73.84 73.84 0 0 0 .306-10.486c-.077-1.89-.207-3.843-.47-5.719-.764-5.466-2.45-10.624-5.788-15.078-1.65-2.206-3.572-4.067-5.679-5.73 2.232 4.283 3.621 8.847 4.695 13.058 1.895 3.692 2.83 7.392 2.374 11.522.925 4.991 1.21 10.353-.045 14.927.063 5.927-2.357 10.653-4.956 14.93-2.05 4.336-6.704 8.015-10.589 9.146-9.424 3.66-20.097-4.288-23.284-9.21-1.62-1.356-3.215-2.726-4.786-3.981a50.45 50.45 0 0 0-2.907-2.175" fill="#EA8B2F"/><path d="M26.256 32.854c-1.955 1.405-3.76 2.85-5.088 4.412-4.312 5.075 2.406 2.885 4.516 5.727-.293-3.33-.175-6.754.573-10.139Zm-.415 11.628c-1.401.72-2.584 1.59-3.51 2.66-4.38 5.08-2.48 4.09 1.153 4.722 1.917.336 3.395 1.066 4.559 2.077-.98-2.938-1.786-6.14-2.202-9.46Zm5.512-22.567.913-2.797c-3.02 1.593-5.492 3.038-7.258 4.29-5.516 3.91-2.201 3.081.597 5.446.5.42.953.893 1.351 1.41a27.435 27.435 0 0 1 4.397-8.349Z" fill="#2B4F91"/><path d="M26.256 32.854c-1.955 1.405-3.76 2.85-5.088 4.412-3.835 4.515 1.058 3.278 3.67 4.952a13.37 13.37 0 0 0-.963-.963c-1.989-1.792-2.67-1.857-1.74-3.253 1.092-1.64 2.599-3.488 4.1-5.045l.022-.103Zm3.569-12.415c-3.368 2.615-6.933 4.977-4.364 7.519a8.932 8.932 0 0 1 1.56 2.112l-.065.194a9.112 9.112 0 0 0-1.35-1.41c-2.8-2.364-6.114-1.535-.598-5.446 1.263-.897 2.89-1.89 4.817-2.969Zm-3.892 24.74c-2.39 1.792-5.202 4.134-2.85 6.62-3.367-.5-4.967.233-.751-4.656.925-1.072 2.108-1.94 3.508-2.661l.093.697Z" fill="#2C8DBB"/><path d="M26.95 76.623c-4.586-3.07-8.841-6.809-11.915-11.105-.669-.932-1.61-2.04-1.573-3.244.036-1.124 1.002-2.271 1.585-3.205 2.584-4.127 5.66-8.647 9.18-12.031 2.409-2.317 5.68-4.684 9.22-4.243a7.14 7.14 0 0 1 2.718.935l.242.143.18.217c.675.825 1.686 3.118 1.878 4.172 1.702 9.366-8.058 12.068-9.311 13.335 2.273 2.078 3.067 4.91 5.074 7.243 1.3 1.51 2.6 3.027 3.959 4.485 3.613 3.874 2.606 7.755-.18 11.707l-.288.403-.465.167c-1.94.685-3.984 1.401-6.077 1.13l-.425-.054-.336-.266c-3.094-2.432-4-5.542-3.522-9.33l.056-.459" fill="#17273E"/><path d="M27.244 60.5c5.97-2.206 16.418-10.972 9.371-17.542-2.831-2.08-7.594 2.235-9.278 3.511-3.413 2.591-7.1 7.271-10.968 13.421-1.661 2.64-1.916 2.147-.069 4.727 4.202 5.872 11.145 11.151 18.962 15.005-1.021.017-2.004-.052-2.942-.44-.842 1.987-.965 3.339.236 4.546-1.697-.92-2.225-2.169-1.588-4.87l-2.53-1.584c-.39 3.105.191 5.758 2.941 7.92 1.903.246 4.16-.633 5.353-1.057 2.374-3.36 3.72-6.822.313-9.754-6.817-5.872-7.022-13.864-15.608-14.12 1.508-.983 4.138-.718 5.807.236" fill="#2B4F91"/><path d="M30.813 43.89c-1.46.923-2.75 2.032-3.476 2.58-3.413 2.59-7.1 7.27-10.968 13.42-1.661 2.64-1.916 2.147-.069 4.727 3.967 5.543 10.378 10.56 17.66 14.344-5.503-4.634-10.788-9.257-14.03-13.52-3.244-4.276-1.992-4.3.91-8.816 2.846-4.428 6.075-8.71 9.973-12.734Zm3.2 35.693a5.858 5.858 0 0 1-1.693-.402c-.535 1.264-.78 2.272-.576 3.149.563-.954 1.131-1.91 2.27-2.747Zm-4.087-1.376-1.487-.933c-.383 3.04.166 5.648 2.772 7.787-1.15-2.238-1.945-4.498-1.285-6.854Z" fill="#2C8DBB"/><path d="M43.19 52.923c3.623-1.976 8.837-2.413 12.88-1.994 2.869.298 5.83 1.064 8.342 2.5l.728.416-.833 1.45-.728-.415c-2.308-1.318-5.052-2.014-7.683-2.288-3.687-.381-8.592-.006-11.902 1.799l-.738.4-.803-1.467.736-.401m3.927 12.26c3.54-1.995 8.612-2.554 12.607-2.255 2.135.16 4.34.577 6.379 1.34v1.8c-2.049-.859-4.328-1.31-6.507-1.473-3.645-.272-8.419.217-11.654 2.043l-.73.41-.824-1.454.729-.41m-.047 13.027c5.124-2.436 13.204-2.012 18.237 1.112.408.255.119.397.528.623l-.081.53-.49.448c-.145.133-.145.284-.31.17-4.467-3.139-12.38-3.65-17.162-1.374l-.757.36-.194-1.315.23-.554m-3.044 9.531c3.81 3.947 11.818 6.27 17.12 4.567l.686-.562-.01 1.121-.604.617c-.272.087-.106.58-.387.649-5.87 1.435-13.954-1.025-18.013-5.232l-.581-.602 1.205-1.16.584.602m-7.718 6.343c1.108 2.451 3.129 4.575 5.354 6.065 2.393 1.6 5.404 2.704 8.333 2.51 1.09-.071 1.819-.3 2.827-.633l-.07 1.34-.56.626c-3.932 1.032-8.172-.254-11.465-2.455-2.486-1.662-4.707-4.026-5.949-6.765l-.343-.763 1.526-.688.347.763m-12.836-2.916a4.504 4.504 0 0 0-1.036 2.31c-.25 1.695.155 2.872.955 4.278l-1.466.26-.49-.524c-1.216-2.383-1.002-5.357.763-7.413l.547-.634 1.272 1.088-.545.635m-4.77-5.42c-.882 1.026-1.191 2.35-1.06 3.658.115 1.11.483 1.92.954 2.877l-1.386.261-.544-.469c-1.216-2.386-1-5.361.764-7.416l.519-.355 1.107.864-.354.58m45.39-46.44 2.978 5.948-8.921 1.58-10.413-3.813-.24-.192c-4.044-3.232-7.333-7.067-9.79-11.635-.62-1.148-1.543-3.128-1.682-4.394l-.818-7.545 4.258 6.29c3.073 4.54 8.079 8.532 12.925 11.05 2.756 1.43 6.503 3.39 9.693 3.053.206-.022.412-.051.616-.088l1.393-.253" fill="#17273E"/><path d="M78.093 38.827c.009 1.283-.268 2.41-.934 3.804-.223.464-.495.945-.824 1.33-.434.504-1.007.864-1.668.738-1.183-.221-1.459-1.63-1.532-2.707-.043-.608-.185-1.256-.468-1.803-1.816.187-3.693.282-5.325.497.956 1.138 1.893 1.665 2.828 2.113 2.588 1.24 4.673 2.605 5.723 5.472 1.247 3.41-.275 7.089-5.312 8.01-4.334.795-4.255 2.49-9.121.636-4.857-1.85-9.783-4.75-14.058-7.687-2.766-1.9-5.46-3.963-7.965-6.2-4.084-3.644-9.876-9.26-10.793-14.87-.41-2.492.238-4.957 2.058-6.756a7.56 7.56 0 0 1 1.738-1.285l.319-.98c.957-2.955 2.107-7.542 3.853-11.052C40.82-.37 47.54.844 51.034 7.434c2.808.65 5.01 1.224 7.986 2.654l.152-.152c.953-.961 2.225-1.786 3.64-1.443 4.895 1.003 5.37 12.876 4.978 16.14l.137.084c1.641.518 3.06 1.26 3.986 2.313l.15.172.057.036c2.447-.93 5.244-1.047 7.184.932 2.666 2.717 2.02 8.505-1.21 10.658Z" fill="#17273E"/><path d="M61.328 36.398c-4.532-.954-4.487-8.269.995-8.118 3.396.092 7.55 3.026 11.422 1.926l-3.328-.443c2.939-1.99 6.126-2.317 7.839-.57 2.19 2.23 1.404 7.782-1.821 8.827-1.923.622-4.913.834-6.916.895 1.125-.809 4.112-2.098 6.28-2.019-1.864-.738-3.6-.447-5.217.188-8.159 3.215-8.86 4.835-18.385-.117-5.132-2.665-10.135-6.792-13.106-11.186.643-.423 1.513-.958 2.438-.22-1.36-3.874-9.175-.108-6.265 5.197.195-1.094.171-2.408 1.554-2.322 4.548 10.206 12.328 15.891 19.878 19.736 5.25 2.675 6.47 4.167 12.376 3.37 1.027-.138 1.881-.333 2.526-.561 3.216-1.14 1.463-3.819-.18-5.901 4.248 2.762 5.246 8.6-1.103 9.764-4.581.838-3.999 2.358-8.33.706-6.633-2.527-15.36-8.065-21.568-13.608C37.68 39.501 31 33.492 30.09 27.925c-.834-5.096 3.719-8.322 8.385-7.045 3.002.82 5.625 3.5 7.324 7.059-1.83-5.868-4.594-10.109-11.645-8.349 1.29-3.976 3.141-12.583 6.722-14.93 4.47-2.931 9.5 3.678 12.352 10.284-.302-1.847-.656-4.052-1.717-5.75 4.31.812 5.754 1.162 8.626 3.703-.07-1.118-.108-1.37-.175-1.712 3.922-3.932 6.967 4.344 6.134 11.39-8.765-2.972-14.787-2.41-18.521 1.106 6.622-2.685 12.225-2.144 17.076.774a16.992 16.992 0 0 0-4.07-.27c3.027.48 3.838.667 6.465 1.516 1.706.551 2.995 1.334 3.762 2.292-2.043 1.25-8.103-3.151-12.158-.687-4.442 2.7-2.276 9.433 2.678 9.092" fill="#2B4F91"/><path d="M38.248 19.256c-1.177-.15-2.531-.055-4.094.334 1.29-3.976 3.141-12.583 6.722-14.93.703-.462 1.419-.685 2.137-.712-2.355 3.635-4.644 9.87-4.736 15.287l-.029.021" fill="#2C8DBB"/><path d="M71.246 29.249c.526-.298 1.077-.55 1.647-.752.119.144.228.29.334.442-.492.388-1.17.444-1.98.31Zm-8.415-4.683c1.432.274 2.385.542 4.215 1.135 1.706.551 2.995 1.334 3.762 2.292-.89.545-2.537.02-4.45-.546-.388-.96-1.502-1.921-3.527-2.881Zm-.786-1.416c.902.366 1.774.802 2.606 1.305a17.9 17.9 0 0 0-1.614-.224c-.403-.375-.694-.727-.992-1.08Z" fill="#243D75"/><path d="M58.044 34.887c-.15-.628-.297-1.253-.444-1.88-3.587.302-6.502-1.236-9.483-2.6l4.38 3.484c1.7.812 3.401 1.623 5.103 2.433l.444-1.438" fill="#16253B"/><path d="M61.328 36.398c-4.532-.954-4.487-8.269.995-8.118 1.848.049 3.916.94 6.042 1.564 1.605.473 2.546.398 3.274.172a9.05 9.05 0 0 1-1.222-.253c2.939-1.99 6.126-2.317 7.839-.57 2.19 2.23 1.404 7.782-1.821 8.827-1.923.622-4.913.834-6.916.895 1.873-1.496 3.053-1.985 4.09-2.456-1.052-.012-2.058.246-3.027.625-8.159 3.215-8.86 4.835-18.385-.117-5.132-2.665-10.135-6.792-13.106-11.186.643-.423 1.513-.958 2.438-.22-1.36-3.874-9.175-.108-6.265 5.197.195-1.094.171-2.408 1.554-2.322 4.548 10.206 12.328 15.891 19.878 19.736 5.25 2.675 6.47 4.167 12.376 3.37 1.027-.138 1.881-.333 2.526-.561 3.216-1.14 1.463-3.819-.18-5.901 4.248 2.762 5.246 8.6-1.103 9.764-4.581.838-3.999 2.358-8.33.706-6.633-2.527-15.36-8.065-21.568-13.608C37.68 39.501 31 33.492 30.09 27.925c-.834-5.096 3.719-8.322 8.385-7.045 3.002.82 5.625 3.5 7.324 7.059-.06-.186-.116-.37-.175-.553 3.119 4.115 7.025 6.45 11.641 7.181.884 1.175 2.294 1.954 4.063 1.831" fill="#F9C624"/><path d="M74.362 48.426c1.19 2.675.268 5.626-4.047 6.418-3.053.558-3.814 1.418-5.26 1.444-.032-3.014 5.878-2.565 7.73-3.974 1.092-.83 1.561-2.286 1.577-3.888m1.67-20.314c.87.126 1.633.48 2.224 1.08 2.19 2.231 1.404 7.783-1.821 8.828l-.192.06c2.517-2.758 2.154-7.54-.21-9.968" fill="#EA8B2F"/><path d="M67.978 38.148c-5.843 2.44-7.381 3.185-15.78-1.181a40.096 40.096 0 0 1-9.143-6.549c9.15 7.312 17.45 9.834 24.923 7.73" fill="#FAEC30"/><path d="M59.825 35.757c-2.93-2.05-2.29-7.609 2.498-7.477.366.009.739.052 1.12.119-3.276.933-4.529 3.35-3.618 7.358m1.326 19.464c-6.513-2.657-14.78-7.965-20.734-13.279C37.68 39.501 31 33.492 30.09 27.925c-.785-4.804 3.215-7.944 7.584-7.22-3.539.847-5.136 3.079-5.302 5.733-.626 9.888 18.493 23.755 28.779 28.783" fill="#FAEC30"/><path d="M73.951 40.091c.197.515.324 1.102.367 1.735.16 2.331 1.055 1.62 1.755.149.48-1.004.722-1.812.767-2.712a4.147 4.147 0 0 1-.794.35c-.64.208-1.35.36-2.095.478" fill="#FFF"/><path d="M75.014 43.32c.325-.088.716-.627 1.06-1.345.48-1.004.72-1.812.766-2.712a4.558 4.558 0 0 1-.737.33c-.013 1.214-.27 2.442-1.089 3.727" fill="#2C8DBB"/><path d="M62.472 31.493c1.264-.404 2.234 1.29.573 2.03-.235.626.141 1.31 1.161 1.55-3.228.665-3.356-2.995-1.733-3.58m14.255-.52c-1.042-.336-1.844 1.063-.47 1.676.194.515-.115 1.079-.96 1.277 2.665.548 2.772-2.471 1.43-2.954" fill="#17273E"/><path d="M43.036 35.815a36.96 36.96 0 0 1 9.075 2.758c.73.376 1.494.76 2.283 1.125 2.62 1.406 4.896 3.016 6.922 4.645a20.54 20.54 0 0 0-2.348-3.034c1.11.232 2.223.328 3.314.213 2.669-.305 4.175.205 6.16 2.681 1.508 1.53 4.988 4.576 2.663 5.4-.698.248-1.498.39-2.229.488-1.847.249-3.692.363-5.49-.223-.875-.285-1.712-.708-2.522-1.136-1.17-.617-2.32-1.26-3.5-1.862-5.687-2.895-10.54-6.41-14.327-11.055" fill="#DF542B"/><path d="M48.56 38.431c3.633.71 7.077 2.512 10.401 5.075 1.126.869.744 1.885-.631.804-3.208-2.524-6.465-4.831-9.77-5.879" fill="#EA8B2F"/><path d="M61.838 40.55c.094-.028.194-.05.29-.078.4-.11.762-.255 1.145-.408.736-.298 1.479-.132 2.23-.082l1.157.076-.145 1.237c-.106.888-.516 1.842-.94 2.606-.615 1.112-2.033 3.247-3.466 2.623-1.042-.448-1.034-1.792-.904-2.793.085-.645.02-1.109-.145-1.73l-.294-1.147 1.072-.304" fill="#17273E"/><path d="M62.17 41.744c.186.717.272 1.309.166 2.125-.494 3.786 2.778-.474 3.03-2.638-.694-.047-1.263-.172-1.712.009-.435.176-.75.303-1.206.431-.092.025-.185.046-.278.073" fill="#FFF"/><path d="M63.458 44.9c.813-.824 1.775-2.535 1.908-3.669-.41-.028-.776-.082-1.1-.086.13 1.237-.054 2.475-.808 3.756" fill="#2C8DBB"/><path d="M38.774 20.982c2.088-2.722 2.856-6.511 3.517-10.388-.354-.452-1.636-.771-1.162-1.357 1.944-.04 3.233.972 4.465 2.272 2.059 2.175 3.742 6.16 4.877 9.192.603 1.612.353 1.196-3.408.697-2.666-.353-5.475-.416-8.289-.416" fill="#17273E"/><path d="M40.858 19.844c2.127.032 4.255.134 6.357.413.656.086 1.307.19 1.961.29-1.025-2.686-2.555-6.276-4.423-8.245-.44-.467-.884-.894-1.372-1.227-.5 2.909-1.118 6.094-2.523 8.77" fill="#FFF"/><path d="M44.602 14.132c1.088 0 1.966 1.21 1.966 2.702s-.878 2.701-1.966 2.701c-1.086 0-1.964-1.21-1.964-2.701 0-1.493.878-2.702 1.964-2.702m18.49-.371c-2.226 1.983-3.574 4.104-4.354 7.128-.2 1.202.748 1.717 1.831 1.401.998.337 1.852.75 2.89.697.869-.012 1.755-.445 1.821-1.336-.224-1.92-.919-4.99-.629-7.012.503-.73-.378-2.157-1.559-.878" fill="#17273E"/><path d="M64.112 21.613c-.258-2.08-.82-4.465-.663-6.577-1.75 1.78-3.04 3.527-3.583 6.09l-.01.093c.114.025.307-.01.39-.034l.35-.105.346.12c.77.259 1.651.661 2.484.634.132-.004.591-.066.686-.22" fill="#FFF"/><path d="M64.933 23.325c.383-.225.77-.449 1.152-.675-3.13-1.397-6.574-1.849-10.127-1.98.673.304 1.35.607 2.027.911 2.314.582 4.631 1.163 6.948 1.744m-3.395-6.543c.855 0 1.549.917 1.549 2.046 0 1.13-.694 2.046-1.55 2.046-.855 0-1.549-.917-1.549-2.046 0-1.13.694-2.046 1.55-2.046M26.465 111.15c.679-1.894.909-3.967.974-5.96.058-1.743-.007-3.483-.054-5.223-.048-1.635-.09-3.313.064-4.943.755-7.98 9.12-9.976 11.465-6.89 2.954 3.298 2.58 7.516 1.012 12.595a35.19 35.19 0 0 0-.713 2.753 46.243 46.243 0 0 0-.734 4.318c-.128 1.046-.24 2.16-.238 3.216.003 1.334.16 2.545.386 3.85.176 1.023.376 2.07.121 3.097-.21.852-.682 1.536-1.32 2.13-1.862 1.746-5.126 3.142-7.603 3.636-1.455.288-2.976.365-4.434.084a3.902 3.902 0 0 1-1.33-.52c-2.073-1.29-2.544-4.107-2.113-6.33.504-2.59 2.15-4.716 4.517-5.813" fill="#17273E"/><path d="M30.24 89.426c1.41-2.324 3.844-3.235 5.566-2.983 6.175.9 4.222 9.058 2.74 13.862-1.163 3.771-1.757 8.534-1.748 10.713.01 4.742 1.62 6.172-.356 8.024-1.716 1.605-6.62 3.912-10.78 3.357-3.428-.867-3.533-8.15 1.93-10.16 1.52-3.678 1.463-8.03 1.347-11.957-.08-2.656-.289-8.234 1.3-10.856" fill="#2B4F91"/><path d="M30.24 89.426c1.254-2.068 2.635-2.11 4.614-2.479-6.496 3.226-3.134 16.437-4.891 24.846 1.4-.026 2.344.104 3.516.534-5.18-.635-7.47 3.687-7.967 10.027-3.279-1.037-3.302-8.134 2.08-10.115 1.52-3.678 1.463-8.03 1.347-11.957-.08-2.656-.287-8.234 1.3-10.856" fill="#2C8DBB"/></g></g></svg>