<svg viewBox="0 0 90 90" xmlns="http://www.w3.org/2000/svg"><defs><linearGradient x1="0%" y1="0%" x2="100%" y2="100%" id="a"><stop stop-color="#FFCF00" offset="0%"/><stop stop-color="#FC922A" offset="100%"/></linearGradient></defs><g fill="none"><path fill="#005FF9" d="M0 0h90v90H0z"/><path d="M55.5 46c0 5.514-4.486 10-10 10s-10-4.486-10-10 4.486-10 10-10 10 4.486 10 10M46 12c-18.473 0-33.5 15.027-33.5 33.5S27.527 79 46 79a33.308 33.308 0 0 0 18.87-5.827l.096-.067-4.513-5.245-.077.048A26.505 26.505 0 0 1 46 72.132c-14.685 0-26.633-11.947-26.633-26.632 0-14.685 11.948-26.633 26.633-26.633 14.685 0 26.632 11.948 26.632 26.633 0 1.902-.212 3.829-.626 5.724-.843 3.457-3.264 4.515-5.08 4.376-1.829-.148-3.968-1.45-3.982-4.637V45.5c0-9.344-7.6-16.944-16.944-16.944s-16.944 7.6-16.944 16.944S36.656 62.444 46 62.444c4.54 0 8.796-1.773 12.005-5.001 1.866 2.905 4.908 4.726 8.37 5.003.297.024.6.036.9.036 2.438 0 4.853-.816 6.8-2.292 2.008-1.527 3.508-3.73 4.336-6.38a35.52 35.52 0 0 0 .376-1.414l.007-.036c.488-2.125.706-4.242.706-6.86C79.5 27.027 64.473 12 46 12" fill="url(#a)"/></g></svg>