<svg viewBox="0 0 90 90" xmlns="http://www.w3.org/2000/svg"><g fill="none" fill-rule="evenodd"><path fill="#091F82" d="M0 0h90v90H0z"/><path d="m45 54 17.5 11L45 76 27.5 65 45 54ZM27.5 39 45 50 27.5 61 10 50l17.5-11Zm35 0L80 50 62.5 61 45 50l17.5-11Zm-35-22L45 28 27.5 39 10 28l17.5-11Zm35 0L80 28 62.5 39 45 28l17.5-11Z" fill="#D9F8FF"/><path fill="#0061FE" d="M0 0h90v90H0z"/><path d="m45 51.729 14.5 9.135L45 70l-14.5-9.136L45 51.73ZM30.5 39.27 45 48.407l-14.5 9.135L16 48.407l14.5-9.136Zm29 0L74 48.407l-14.5 9.135L45 48.407l14.5-9.136ZM30.5 21 45 30.136 30.5 39.27 16 30.136 30.5 21Zm29 0L74 30.136 59.5 39.27 45 30.136 59.5 21Z" fill="#FFF"/></g></svg>