<svg viewBox="0 0 90 90" xmlns="http://www.w3.org/2000/svg"><g fill="none" fill-rule="evenodd"><path fill="#FFF" d="M0 0h90v90H0z"/><path d="M83.467 19.867c-1.134-.561-3.684-1.684-6.517-3.37-3.117-1.684-7.933 1.124-11.05 5.898l-5.383 8.986c-1.984 3.931-1.7 8.143.85 11.794l.283.28c2.55 3.651 5.95 6.74 6.8 7.863.567.562 1.133 1.685 1.417 2.528.85 3.37-.85 6.458-4.25 7.3-3.117.843-6.517-1.123-7.65-4.212-.284-.842-.284-1.684-.284-2.527.284-1.404-.283-3.65-2.266-5.335-1.984-2.247-5.95 1.965-7.084 5.897v.28c-1.133 4.213-1.983 7.583-1.7 7.863 0 .281.284.562.284.562 1.7 3.37.566 7.301-2.834 8.986-3.4 1.685-7.65.562-9.35-2.808-1.7-3.37-.566-7.301 2.834-8.986.283 0 .283-.281.566-.281.284 0 .85-1.966 1.7-3.931.567-1.966 1.134-3.65 1.134-3.65 0-.282 0-.563.283-.563l3.4-11.794-3.4 7.02c-.567-1.403-1.133-1.403-2.833-.28-.85.562-2.55 1.966-3.117 2.527-1.417 1.123-2.55 3.09-3.117 4.212-.283.843-.85 1.404-1.416 1.966-2.55 2.247-6.517 1.685-8.5-.842-1.984-2.528-1.417-5.897 1.133-7.863.85-.562 1.7-1.123 2.55-1.123 1.417-.281 6.8-3.65 9.917-5.617.566-.28 1.133-.842 1.416-1.123l8.217-5.897-7.367 3.932h-1.7c-2.266.28-5.1.561-5.666 1.404-.284.28-.567.842-1.134 1.123-2.266 1.123-5.666.561-7.65-1.685-1.7-2.527-1.133-5.616 1.134-7.301 1.416-.843 2.55-1.123 3.683-1.123 1.983 0 7.083 1.123 11.333.28l1.134-.28c4.25-.843 9.35-4.213 11.333-8.144 0 0 1.983-3.65 4.533-7.582 2.55-4.212 2.267-8.705-.283-10.39l-4.817-2.808c-2.55-1.404-6.516-1.404-9.066 0L7.533 19.306C4.983 20.71 3 24.36 3 27.168v35.944c0 2.808 1.983 5.897 4.533 7.301L41.25 88.947c2.55 1.404 6.517 1.404 9.067 0l33.15-18.814C86.017 68.729 88 65.64 88 62.832V27.168c0-2.808-1.983-5.897-4.533-7.3Z" fill="#5FCF80" fill-rule="nonzero"/></g></svg>