<svg viewBox="0 0 90 90" xmlns="http://www.w3.org/2000/svg"><g fill="none" fill-rule="evenodd"><path fill="#FFF" d="M0 0h90v90H0z"/><path d="M44.99 77a13.038 13.038 0 0 1-9.337-3.894L16.883 54.39A13.16 13.16 0 0 1 13 44.967c0-3.501 1.397-6.85 3.894-9.304l18.716-18.77c5.17-5.181 13.567-5.192 18.759-.022l.022.021 18.715 18.716A13.19 13.19 0 0 1 77 45.021c0 3.501-1.396 6.85-3.894 9.304L54.38 73.117A13.19 13.19 0 0 1 44.99 77Zm0-47.99a6.538 6.538 0 0 0-4.68 1.93l-9.38 9.38a6.63 6.63 0 0 0 0 9.37l9.37 9.368c2.595 2.574 6.783 2.574 9.368 0l9.369-9.369c2.574-2.596 2.574-6.784 0-9.369l-9.369-9.38a6.538 6.538 0 0 0-4.679-1.93Z" fill="#0049F8" fill-rule="nonzero"/></g></svg>