<svg viewBox="0 0 90 90" xmlns="http://www.w3.org/2000/svg"><path d="M40.63 31.2c10.39-6.85 24.525-7.045 35.44 1.342 7.554 5.806 11.75 14.446 11.91 23.465a30.666 30.666 0 0 1-2.032 12.109c-3.785 9.876-11.752 16.379-20.806 18.758-2.162.569-4.339-.847-4.597-3.067l-.194-1.673c-.014-.126.028-.244.026-.369l-.026-.212c-.216-1.826.983-3.464 2.748-3.946a21.498 21.498 0 0 0 13.735-11.432 21.372 21.372 0 0 0 2.122-8.842c-.018-6.618-3.019-13.135-8.501-17.27-7.69-5.8-17.582-5.643-24.88-.862-1.478.968-3.453.627-4.613-.708l-1.101-1.264a3.584 3.584 0 0 1-.862-2.61 3.663 3.663 0 0 1 1.632-3.42ZM3.095 45.44c.59-2.16 2.9-3.34 4.95-2.457l1.539.668c1.4.603 2.151 1.994 2.11 3.467.061.48.052.978-.078 1.475a21.761 21.761 0 0 0-.687 4.422 21.527 21.527 0 0 0 3.693 12.637c5.704 8.459 16.878 11.806 26.244 7.806 8.792-3.75 13.598-12.324 13.195-20.99-.084-1.835 1.103-3.48 2.903-3.833l1.647-.323c2.168-.427 4.193 1.18 4.32 3.388.048.833.057 1.66.04 2.488-.05 11.785-6.866 23.184-18.92 28.203-12.899 5.365-28.141.972-36.289-10.406-4.268-5.962-6.068-12.802-5.719-19.441a30.98 30.98 0 0 1 1.052-7.105ZM44.388 3.154c9.732-.97 18.621 2.671 24.812 8.987.82.835 1.116 1.946.979 3.012.038 1.145-.396 2.293-1.394 3.041l-1.343.998c-1.418 1.06-3.417.96-4.665-.299-4.246-4.28-10.255-6.8-16.856-6.326-10.153.724-18.633 8.755-19.865 18.888-.128 1.053-.15 2.084-.133 3.107A21.637 21.637 0 0 0 37.75 52.907c1.281.651 1.936 2.02 1.844 3.412.046.508.024 1.027-.15 1.534l-.54 1.586c-.716 2.097-3.116 3.049-5.09 2.055-9.859-4.968-16.653-15.125-16.81-26.905a31.75 31.75 0 0 1 .252-5.123c1.813-13.89 13.23-24.927 27.131-26.31Z" fill="#AD1F24"/></svg>