<svg viewBox="0 0 90 90" xmlns="http://www.w3.org/2000/svg"><g fill="none" fill-rule="evenodd"><path fill="#791973" d="M0 0h90v90H0z"/><path d="M76 45.197c0-4.31-.755-8.366-2.263-12.17-1.51-3.803-3.613-7.101-6.31-9.893-2.697-2.792-5.923-5.012-9.676-6.66C53.997 14.823 49.876 14 45.387 14 25.857 14 14 27.743 14 45.197 14 62.284 27.505 75.646 41.973 76l16.005-17.592-.26-.437v16.792H76V45.197Zm-18.348 12.84-12.595.032c-8.631 0-18.173-12.339-8.441-22.006 8.635-8.578 21.573-1.543 21.573 10.394l-.537 11.58Z" fill="#FFF" fill-rule="nonzero"/></g></svg>