<svg viewBox="0 0 90 90" xmlns="http://www.w3.org/2000/svg"><g fill="none" fill-rule="evenodd"><path fill="#23CF5F" d="M0 0h90v90H0z"/><path d="M44.854 11.292C26.187 11.292 11 26.48 11 45.146S26.187 79 44.854 79s33.854-15.186 33.854-33.854S63.52 11.292 44.854 11.292Zm14.33 49.07a2.204 2.204 0 0 1-3.063.613c-3.638-2.426-9.81-4.045-14.959-4.043-5.464.002-9.56 1.344-9.602 1.358a2.202 2.202 0 0 1-2.79-1.395 2.206 2.206 0 0 1 1.396-2.791c.194-.065 4.824-1.582 10.996-1.585 5.15-.003 12.312 1.386 17.41 4.783a2.205 2.205 0 0 1 .611 3.06Zm4.401-9.033a2.525 2.525 0 0 1-3.48.807c-6.597-4.11-13.377-4.98-19.218-4.929-6.594.06-11.868 1.317-11.957 1.344a2.525 2.525 0 1 1-1.377-4.86c.407-.116 5.67-1.411 12.875-1.471 6.57-.055 14.756.897 22.351 5.629a2.526 2.526 0 0 1 .806 3.48Zm4.392-10.564a2.944 2.944 0 0 1-4.028 1.047c-7.69-4.514-17.038-5.472-23.527-5.48h-.092c-7.847 0-13.89 1.38-13.95 1.394a2.944 2.944 0 0 1-3.533-2.2 2.94 2.94 0 0 1 2.195-3.53c.273-.064 6.729-1.55 15.288-1.55h.101c7.217.01 17.672 1.108 26.499 6.29a2.945 2.945 0 0 1 1.047 4.029Z" fill="#FFF" fill-rule="nonzero"/></g></svg>