<svg viewBox="0 0 90 90" xmlns="http://www.w3.org/2000/svg"><g fill="none" fill-rule="evenodd"><path fill="#000" d="M0 0h90v90H0z"/><g fill="#FFF" fill-rule="nonzero"><path d="M37.696 49.994h-3.405v-8.447h-4.795v-2.545h12.841v2.545h-4.642zm20.333-2.56v2.56h-11.98V39h11.98v2.546h-8.574v1.846h8.047v2.224h-8.047v1.817zm8.199 2.56h-4.586l5.295-5.426-5.1-5.567h4.434l3.016 3.398 3.002-3.398h4.474l-5.155 5.566L77 49.993h-4.572l-3.1-3.3zM26.063 39.002v2.27h-8.696v.115c-.08.006-.155.011-.227.02a1.45 1.45 0 0 0-.417.12.743.743 0 0 0-.313.271.867.867 0 0 0-.118.476c0 .354.125.586.375.7.181.082.415.133.699.155v.175h5.2l.025.001h.002c.203.009.387.017.55.026.297.014.543.03.737.048.725.04 1.295.242 1.711.602-.155.165-.206.403-.026.646.066.09.126.17.181.248-.201.661-.082 1.555-.241 2.081a.53.53 0 0 0 .165.588c-.175.461-.297.905-.191 1.411l-.84.845c-.415.13-.91.194-1.482.194h-9.865v-2.378h8.422l.172-.002a6.354 6.354 0 0 0 .362-.025 1.584 1.584 0 0 0 .452-.12c.14-.06.25-.15.333-.273a.819.819 0 0 0 .126-.475c0-.225-.058-.403-.174-.539a.966.966 0 0 0-.392-.273l-.06-.021a2.36 2.36 0 0 0-.508-.105v-.208H16.59a1.335 1.335 0 0 1-.088-.005l-.082-.004a17.39 17.39 0 0 1-.737-.048c-.928-.051-1.618-.334-2.072-.848a.476.476 0 0 0 .045-.073c.134-.257.218-.54.257-.827.056-.411-.237-.83-.165-1.197.067-.344.34-.51.3-.918-.046-.455-.391-.782-.471-1.218a.595.595 0 0 0-.069-.193l1.03-1.035c.358-.138.787-.207 1.285-.207h10.241Z"/><path d="M16.5 39.002v2.57c-.437.024-.603.457-.5.795-.16.342-.004.844.467.873a.194.194 0 0 0 .034.003v2.333h-3.214v-5.11l.22-.22h.001l1.03-1.036-.002.001.206-.207h1.759v-.002Z"/><path d="M15.477 41.337h1.891v1.903h-1.89zm10.483 1.967v5.181l-.478.48-.001-.01-.84.845.016-.006-.197.2h-1.867v-6.69h3.366Z"/><path d="M22.025 45.72H23.3v1.98h-1.415v-.085c.048-.002.095-.004.14-.008V45.72Z"/><path d="M21.885 47.614c.047-.002.094-.004.14-.008v.188H13.29v-.178h8.422l.172-.002Zm-4.517-6.572h8.696v1h-8.696zm7.274 8.758.015-.006-.197.2h-.012l.194-.194Zm1.318-1.326v.011l-.478.48-.001-.01.478-.481Z"/><path d="m23.46 48.986 1.498-1.507 1 1.006-1.498 1.507z"/></g></g></svg>