<svg viewBox="0 0 90 90" xmlns="http://www.w3.org/2000/svg"><g fill="none" fill-rule="evenodd"><path fill="#02225D" d="M0 0h90v90H0z"/><path d="M30.555 38.308h6.59v35.474c0 5.516-4.008 9.218-9.565 9.218H25v-6.231h1.87c2.262 0 3.685-1.042 3.685-3.507V38.308ZM47.989 51.81c.128-4.998 3.037-7.658 6.916-7.658 3.878 0 6.72 2.66 6.911 7.658H47.99ZM30.555 25h6.59v6.622h-6.59V25Zm37.852 32.26v-5.45c0-8.503-6.27-13.891-13.502-13.891-6.336 0-13.506 4.152-13.506 16.942 0 13.5 7.817 16.747 14.539 16.747 4.39 0 8.592-1.561 11.82-5.325l-4.776-4.087c-1.942 2.01-4.654 3.18-7.174 3.18-4.524 0-7.818-2.728-7.818-8.117h20.417Zm5.225-28.95h6.59v9.998H85v5.063h-4.778v19.147c0 1.82.71 2.468 2.32 2.468H85v6.231h-3.423c-4.59 0-7.945-2.926-7.945-8.114V43.37h-3.3v-5.063h3.3V28.31Z" fill="#FFF" fill-rule="nonzero"/></g></svg>