<svg viewBox="0 0 90 90" xmlns="http://www.w3.org/2000/svg"><g fill="#FF282D"><path d="M46.113 70.136v-2.211h-2.271v2.2c-10.173-.594-18.307-8.655-18.834-18.702h2.243v-2.24h-2.23c.605-9.973 8.703-17.952 18.82-18.543v2.201h2.272V30.63c10.208.527 18.393 8.574 18.966 18.628h-2.255v2.239h2.256c-.567 10.059-8.754 18.112-18.967 18.639m6.016-57.617V6.19h2.313V1.442H35.35v4.747h2.313v6.382C19.63 15.973 6 31.595 6 50.363 6 71.619 23.48 88.85 45.043 88.85c21.562 0 39.042-17.231 39.042-38.487 0-18.87-13.778-34.556-31.956-37.844"/><path d="m53.244 40.958-6.96 5.98a3.745 3.745 0 0 0-3.863.86 3.617 3.617 0 0 0 0 5.169 3.745 3.745 0 0 0 5.243 0 3.617 3.617 0 0 0 .875-3.801l6.148-6.785-1.443-1.423Z"/></g></svg>