<svg viewBox="0 0 90 90" xmlns="http://www.w3.org/2000/svg"><defs><linearGradient x1="-.104%" y1="50.073%" x2="100.043%" y2="50.073%" id="a"><stop stop-color="#1F45CF" offset=".319%"/><stop stop-color="#184FCF" offset="21.44%"/><stop stop-color="#105ACF" offset="59.67%"/><stop stop-color="#0D5ECF" offset="100%"/></linearGradient><linearGradient x1="2.194%" y1="48.409%" x2="99.391%" y2="52.877%" id="b"><stop stop-color="#203A93" offset="0%"/><stop stop-color="#1948AA" offset="30.56%"/><stop stop-color="#1058C5" offset="74.31%"/><stop stop-color="#0D5ECF" offset="100%"/></linearGradient></defs><g fill="none"><path d="M18.469 56.875c-3.657-2.531-6.094-6.375-6.563-10.781v-2.25c.563-7.782 7.031-13.875 15-13.875 1.782 0 3.469.281 5.063.843l-16.313 16.22s1.031 6 6.938 6.937l24.468-24.282-2.718-3.093-.375-.375C39.28 21.906 33.094 19.28 26.25 19.28 12.562 19.281 1.312 29.97.375 43.47l.188 3c.375 8.156 4.593 15.187 10.968 19.687l6.938-9.281Z" fill="#163293"/><path d="M71.438 11.344c3.843 0 7.312 1.406 9.937 3.75l7.594-7.031C84.28 3.468 77.906.655 70.875.655 57 .75 45.656 11.625 45 25.313h11.438c.562-7.782 7.03-13.97 15-13.97Z" fill="url(#a)" transform="translate(0 19)"/><path d="M82.125 36.563c-2.719 2.812-6.469 4.593-10.688 4.593-7.687 0-14.062-5.906-14.812-13.5H45.281c-3.468 6.75-6.843 9.844-8.906 11.25-2.344 1.407-5.156 2.157-8.063 2.157-2.53 0-4.968-.563-7.125-1.688l-6.843 9.375c3.937 2.156 8.531 3.469 13.406 3.469 7.219 0 12.563-.563 19.031-6.282 1.313-1.124 2.532-2.624 3.563-4.124 4.687 6.374 12.187 10.5 20.625 10.5 7.406 0 14.062-3.188 18.75-8.157l-7.594-7.593Z" fill="url(#b)" transform="translate(0 19)"/></g></svg>