<svg viewBox="0 0 90 90" xmlns="http://www.w3.org/2000/svg"><g fill="none" fill-rule="evenodd"><path fill="#FFF" d="M0 0h90v90H0z"/><path d="M47.602 22.19c5.88.85 10.891 4.502 13.592 9.916 2.41 4.842 2.41 11.036-.01 15.88-.9 1.8-1.82 3.09-3.27 4.592-2.311 2.381-5.051 3.992-8.292 4.863l-.633.162c-1.204.291-2.09.384-3.597.397h-.64l-.496-.008-.48-.015-.45-.022-.406-.027-.346-.032a5.495 5.495 0 0 1-.272-.035c-1.74-.28-3.93-.98-5.451-1.741-2.75-1.38-5.49-3.892-7.14-6.544C27.9 46.654 27 43.472 27 40.02c0-4.853 1.86-9.325 5.3-12.777a17.957 17.957 0 0 1 15.302-5.053Z" fill="#FFE300" fill-rule="nonzero"/><path d="m43.977 10 .74.007 1.114.028 1.133.045.78.042.452.031.379.033.288.035c8.836 1.225 16.385 5.956 21.24 13.309 2.936 4.45 4.534 9.32 4.856 14.825.231 3.817-.502 6.951-2.614 11.25-2.794 5.682-8.112 12.465-15.216 19.523l-1.053 1.035c-.177.173-.356.345-.535.518l-1.09 1.04-1.114 1.042-1.137 1.044-1.16 1.045a177.648 177.648 0 0 1-4.238 3.661L45.012 80l-1.433-1.186-.605-.503-1.195-1.009a164.144 164.144 0 0 1-4.586-4.054L36.1 72.232l-.54-.507-1.061-1.014a133.18 133.18 0 0 1-5.423-5.533l-.906-.993a102.715 102.715 0 0 1-3.356-3.91l-.77-.959c-3.15-3.978-5.55-7.73-7.027-11.057-1.628-3.686-2.211-6.72-1.96-10.215.432-6.067 2.403-11.33 6.062-16.222 1.186-1.587 3.619-4.078 5.177-5.303 4.443-3.516 9.892-5.766 15.3-6.339l1.509-.16.128-.007.331-.01.414-.003Zm3.625 12.19a17.957 17.957 0 0 0-15.301 5.053C28.86 30.695 27 35.167 27 40.02c0 3.452.9 6.634 2.71 9.556 1.65 2.652 4.39 5.163 7.141 6.544 1.52.76 3.71 1.46 5.45 1.741.078.012.17.024.273.035l.346.032.405.027.45.022.48.015.497.008h.64c1.506-.013 2.393-.106 3.597-.397l.633-.162c3.24-.87 5.981-2.482 8.291-4.863 1.45-1.501 2.37-2.792 3.27-4.593 2.42-4.843 2.42-11.037.01-15.88-2.7-5.413-7.71-9.065-13.59-9.915Zm1.005 10.687c.919.46 1.144.626 2.014 1.496.792.801 1.066 1.153 1.437 1.867.596 1.143.85 2.1.929 3.371.225 3.959-2.464 7.429-6.384 8.26-.831.175-2.425.175-3.246 0-3.891-.851-6.56-4.32-6.345-8.26.078-1.27.333-2.228.929-3.371.371-.714.645-1.066 1.437-1.867.87-.87 1.095-1.036 2.014-1.496.723-.351 1.3-.566 1.955-.694 1.858-.38 3.52-.166 5.26.694Z" fill="#0F222E" fill-rule="nonzero"/></g></svg>