<svg viewBox="0 0 90 90" xmlns="http://www.w3.org/2000/svg"><g fill="none" fill-rule="evenodd"><path d="M29.961 0H74L34 45H0V29.961c.497.026.997.039 1.5.039C17.24 30 30 17.24 30 1.5c0-.503-.013-1.003-.039-1.5Z" fill="#9E2A2B"/><path d="M29.961 0c.026.497.039.997.039 1.5C30 17.24 17.24 30 1.5 30c-.503 0-1.003-.013-1.5-.039V0h29.961Z" fill="#AF2473"/><path fill="#6C2261" d="M0 90V45h34l43.5 45z"/><path fill="#6C2261" d="M0 63h51.4l26.1 27H0z"/><path fill="#5A1C1D" d="m34 45 17.4 18H0V45z"/><path fill="#877C3E" d="M74 0h16v53H71V3.375z"/><path d="M45.388 56.78 34 45 71 3.375v49.039c-9.741 3.094-18.278 4.55-25.612 4.367Z" fill="#DF9439"/><path d="M77.5 90 45.388 56.78C57.158 57.075 72.028 53.148 90 45v45H77.5Z" fill="#8FC2C6"/></g></svg>