<svg viewBox="0 0 90 90" xmlns="http://www.w3.org/2000/svg"><g fill="none" fill-rule="evenodd"><path fill="#333" d="M0 0h90v90H0z"/><path d="M15 56.421V33.58h3.59v3.303c.61-.908 1.627-1.779 3.05-2.61 1.424-.847 2.926-1.27 4.507-1.27 1.658 0 3.011.4 4.059 1.2a5.641 5.641 0 0 1 2.134 3.072c.705-1.14 1.776-2.133 3.216-2.98 1.439-.861 2.964-1.293 4.575-1.293 4.319 0 6.477 2.302 6.477 6.907v16.515h-3.59V40.9c0-3.157-1.432-4.736-4.294-4.736-1.159 0-2.316.346-3.474 1.04-1.14.678-2.033 1.502-2.674 2.472v16.746h-3.592V40.9c0-3.157-1.431-4.736-4.294-4.736-1.125 0-2.26.355-3.402 1.063-1.126.692-2.027 1.525-2.7 2.495v16.7H15m37.404-11.458c0-3.343 1.087-6.167 3.262-8.478 2.19-2.325 4.92-3.487 8.19-3.487 3.425 0 6.14 1.162 8.142 3.488C73.999 38.798 75 41.724 75 45.267v.9H56.252c.157 2.231.978 4.111 2.463 5.636 1.502 1.509 3.45 2.263 5.843 2.263 2.879 0 5.288-.977 7.228-2.933l1.713 2.31C71.028 55.812 67.953 57 64.276 57c-3.488 0-6.343-1.116-8.564-3.349-2.205-2.234-3.308-5.129-3.308-8.686m3.801-1.455h15.23c-.032-1.924-.706-3.665-2.019-5.22-1.314-1.57-3.183-2.357-5.608-2.357-2.3 0-4.122.778-5.468 2.333-1.33 1.54-2.04 3.287-2.135 5.244" fill="#FFF" fill-rule="nonzero" stroke="#FFF" stroke-width="1.263"/></g></svg>