<svg viewBox="0 0 90 90" xmlns="http://www.w3.org/2000/svg"><path d="M51.607 60.052a32.606 32.606 0 0 0 10.117-4.193 5.107 5.107 0 0 0 1.6-7.04 5.102 5.102 0 0 0-7.04-1.608c-7.138 4.491-16.322 4.482-23.459 0a5.102 5.102 0 0 0-7.04 1.608c-1.503 2.382-.782 5.537 1.6 7.04A32.605 32.605 0 0 0 37.5 60.052l-9.73 9.738a5.098 5.098 0 0 0 0 7.216 5.108 5.108 0 0 0 3.604 1.494c1.31 0 2.61-.501 3.612-1.494l9.572-9.571 9.57 9.57a5.098 5.098 0 0 0 7.217 0 5.098 5.098 0 0 0 0-7.215l-9.739-9.738Zm-7.048-38.84a7.22 7.22 0 0 1 7.215 7.217c0 3.972-3.234 7.207-7.215 7.207-3.973 0-7.216-3.235-7.216-7.207 0-3.982 3.243-7.216 7.216-7.216Zm0 24.628c9.606 0 17.42-7.814 17.42-17.411 0-9.616-7.814-17.429-17.42-17.429-9.607 0-17.42 7.813-17.42 17.42 0 9.606 7.813 17.42 17.42 17.42Z" fill="#F48220"/></svg>