<svg viewBox="0 0 90 90" xmlns="http://www.w3.org/2000/svg"><defs><linearGradient x1="0%" y1="50%" x2="100%" y2="50%" id="a"><stop stop-color="#18AFB4" offset="0%"/><stop stop-color="#0255A8" offset="100%"/></linearGradient><linearGradient x1="100%" y1="3.627%" x2="100%" y2="94.753%" id="b"><stop stop-color="#18AFB4" offset="0%"/><stop stop-color="#0B8F85" offset="100%"/></linearGradient><linearGradient x1="95.401%" y1="49.137%" x2="0%" y2="50%" id="c"><stop stop-color="#E94308" offset="0%"/><stop stop-color="#0B8F85" offset="100%"/></linearGradient><linearGradient x1="47.761%" y1="7.311%" x2="50.674%" y2="100%" id="d"><stop stop-color="#BA1218" offset="0%"/><stop stop-color="#E94308" offset="100%"/></linearGradient><linearGradient x1="0%" y1="50%" x2="100%" y2="50%" id="e"><stop stop-color="#BF290A" offset="0%"/><stop stop-color="#BA1218" offset="100%"/></linearGradient><linearGradient x1="50%" y1="0%" x2="59.408%" y2="71.663%" id="f"><stop stop-color="#BF290A" offset="0%"/><stop stop-color="#E73301" offset="100%"/></linearGradient><linearGradient x1="100%" y1="50%" x2="0%" y2="50%" id="g"><stop stop-color="#F69615" offset="0%"/><stop stop-color="#E73301" offset="100%"/></linearGradient></defs><g fill="none"><path d="M19.955 79C16.257 79.054 12 75.546 12 71.063c0-16.895-.014-33.79 0-50.684.007-3.877 3.433-7.262 7.34-7.38 1.948-.063 3.902.007 5.848 0 10.14-.007 20.285.02 30.424 0 3.468-.007 6.943.007 10.411 0 .684 0 1.02-.535 1.354-1.077 1.347-2.221 3.9-3.272 6.643-2.82 2.247.376 4.354 2.471 4.843 4.81.607 2.903-.844 5.82-3.503 7.038-2.735 1.253-5.869.473-7.676-1.956-.432-.578-.9-.995-1.605-.995-15.226.014-30.459 0-45.685 0C18.287 18 17 19.169 17 21.271v49.04C17 72.54 18.427 74 20.625 74h49.16C71.836 74 73 72.61 73 70.549c.007-9.753.014-19.505 0-29.258C73 39.273 71.864 38 69.82 38c-9.623-.007-19.253 0-28.875 0-2.338 0-3.938 1.433-3.945 3.737v8.019c0 1.935 1.39 3.181 3.303 3.244 3.405.111 6.824.049 10.23 0 .341-.007.746-.488 1.011-.808 1.696-2.053 3.831-3.014 6.469-2.401 2.49.577 4.124 2.179 4.73 4.678a6.238 6.238 0 0 1-3.69 7.253c-2.82 1.156-6.05.174-7.683-2.443-.475-.766-.991-1.293-1.843-1.279-3.105.049-6.21.028-9.322 0-3.831-.035-7.356-2.404-7.705-6.072-.39-4.121-.426-8.333 0-12.447.398-3.828 3.944-6.474 7.9-6.481 9.93-.02 19.86-.014 29.79 0 4.59.007 7.775 3.453 7.81 8.229.063 9.752.049 19.505 0 29.257-.02 3.954-1.935 7.093-5.368 8.172a7.309 7.309 0 0 1-2.157.342c-8.429.028-16.865.007-25.302 0-8.408 0-16.817-.126-25.218 0Zm36.69-25.945c-1.598-.007-2.917 1.316-2.896 2.91.021 1.504 1.396 2.847 2.903 2.84 1.55-.007 2.868-1.308 2.882-2.84a2.87 2.87 0 0 0-2.889-2.91Zm16.042-40.66c-1.577.008-2.868 1.275-2.868 2.813a2.891 2.891 0 0 0 2.896 2.896c1.55 0 2.875-1.302 2.882-2.826a2.896 2.896 0 0 0-2.91-2.882Z" fill="#A0A0A0"/><path d="M6 4.47A7.245 7.245 0 0 1 8.34 4c1.948-.063 3.902.007 5.848 0 10.14-.007 20.285.02 30.424 0 3.468-.007 6.943.007 10.411 0 .684 0 1.02-.535 1.354-1.077C57.724.702 60.277-.35 63.02.103c2.247.376 4.354 2.471 4.843 4.81.607 2.903-.844 5.82-3.503 7.038-2.735 1.253-5.869.473-7.676-1.956-.432-.578-.9-.995-1.605-.995-15.226.014-30.459 0-45.685 0C7.287 9 6 10.169 6 12.271V14 4.47Zm55.687-1.074c-1.577.007-2.868 1.274-2.868 2.812a2.891 2.891 0 0 0 2.896 2.896c1.55 0 2.875-1.302 2.882-2.826a2.896 2.896 0 0 0-2.91-2.882Z" fill="url(#a)" transform="translate(11 9)"/><path d="M1 62.064C1 45.169.986 28.274 1 11.38c.006-3.074 2.16-5.838 5-6.91v64.877c-2.693-1.21-5-3.983-5-7.283Z" fill="url(#b)" transform="translate(11 9)"/><path d="M6 69.347V62c.314 1.835 1.662 3 3.625 3h49.16c1.897 0 3.036-1.19 3.196-3h5.005c-.177 3.71-2.071 6.626-5.354 7.658a7.309 7.309 0 0 1-2.157.342c-8.429.028-16.865.007-25.302 0-8.408 0-16.817-.126-25.218 0-.976.014-1.99-.22-2.955-.653Z" fill="url(#c)" transform="translate(11 9)"/><path d="M61.98 62a5.13 5.13 0 0 0 .02-.451c.007-9.753.014-19.505 0-29.258 0-1.958-1.07-3.214-3-3.288V24h.19c4.59.007 7.775 3.453 7.81 8.229.063 9.752.049 19.505 0 29.257 0 .173-.005.344-.014.514h-5.005Z" fill="url(#d)" transform="translate(11 9)"/><path d="M59 29.003a4.765 4.765 0 0 0-.18-.003c-9.623-.007-19.253 0-28.875 0-1.675 0-2.972.735-3.574 2h-4.922a55.2 55.2 0 0 1 .051-.519c.398-3.828 3.944-6.474 7.9-6.481 9.867-.02 19.733-.014 29.6 0v5.003Z" fill="url(#e)" transform="translate(11 9)"/><path d="M26.37 31c-.238.5-.368 1.084-.37 1.737v8.019c0 1.831 1.246 3.046 3 3.224v5.016c-3.75-.116-7.157-2.465-7.5-6.068-.374-3.948-.422-7.98-.051-11.928h4.922Z" fill="url(#f)" transform="translate(11 9)"/><path d="M47.013 40.79c2.49.578 4.124 2.18 4.73 4.679a6.238 6.238 0 0 1-3.69 7.253c-2.82 1.156-6.05.174-7.683-2.443-.475-.766-.991-1.293-1.843-1.279-3.105.049-6.21.028-9.322 0a9.42 9.42 0 0 1-.205-.004V43.98c.1.01.2.017.303.02 3.405.111 6.824.049 10.23 0 .341-.007.746-.488 1.011-.808 1.696-2.053 3.831-3.014 6.469-2.401Zm-1.368 3.265c-1.598-.007-2.917 1.316-2.896 2.91.021 1.504 1.396 2.847 2.903 2.84 1.55-.007 2.868-1.308 2.882-2.84a2.87 2.87 0 0 0-2.889-2.91Z" fill="url(#g)" transform="translate(11 9)"/></g></svg>