<svg viewBox="0 0 90 90" xmlns="http://www.w3.org/2000/svg"><g fill="none" fill-rule="evenodd"><path fill="#000" d="M0 0h90v90H0z"/><path d="M70.381 16.83c-7.275-4.512-16.852-3.446-25.393 1.896-8.515-5.34-18.098-6.408-25.364-1.895C8.13 23.976 6.733 42.38 16.506 57.933c7.203 11.472 18.468 18.19 28.496 18.065 10.028.124 21.294-6.593 28.497-18.065 9.761-15.553 8.376-33.957-3.118-41.102ZM17.28 44.379a29.212 29.212 0 0 1-.98-9.683c.437-5.746 2.79-10.223 6.623-12.608s8.9-2.523 14.297-.395c.82.328 1.624.697 2.406 1.106a43.89 43.89 0 0 0-7.749 9.264c-5.934 9.445-7.744 19.957-5.673 28.333a38.454 38.454 0 0 1-4.414-5.743 37.142 37.142 0 0 1-4.51-10.274Zm55.448 0a37.23 37.23 0 0 1-4.51 10.274 38.474 38.474 0 0 1-4.414 5.755c1.85-7.511.593-16.71-3.946-25.34a1.147 1.147 0 0 0-1.64-.446L44.064 43.42a1.148 1.148 0 0 0-.368 1.585l2.077 3.302a1.154 1.154 0 0 0 1.593.366l9.174-5.699c.296.886.593 1.756.816 2.657a29.227 29.227 0 0 1 .979 9.683c-.437 5.749-2.79 10.226-6.622 12.61a12.992 12.992 0 0 1-6.56 1.89h-.297a12.977 12.977 0 0 1-6.56-1.89c-3.836-2.384-6.189-6.861-6.625-12.61a29.29 29.29 0 0 1 .98-9.683 38.304 38.304 0 0 1 11.813-18.806 29.62 29.62 0 0 1 8.308-5.12c5.382-2.128 10.458-1.99 14.294.395 3.836 2.385 6.186 6.862 6.622 12.608a29.285 29.285 0 0 1-.961 9.671Z" fill="#1BDBDB" fill-rule="nonzero"/></g></svg>