<svg viewBox="0 0 90 90" xmlns="http://www.w3.org/2000/svg"><g fill="#2FBEFF"><path d="M55.552 75.159a14.98 14.98 0 0 1-21.324 0 19.034 19.034 0 0 0-10.842-5.352v4.165a15.353 15.353 0 0 1 7.89 4.138 19.117 19.117 0 0 0 13.6 5.656c5.13 0 9.958-2.014 13.6-5.656a14.952 14.952 0 0 1 7.448-4.027v-4.22c-3.807.634-7.448 2.371-10.4 5.296"/><path d="M55.552 64.62a14.98 14.98 0 0 1-21.324 0c-7.526-7.502-19.702-7.502-27.228 0l2.952 2.952c5.89-5.882 15.433-5.882 21.324 0a19.117 19.117 0 0 0 13.6 5.656c5.13 0 9.958-2.014 13.6-5.656 5.89-5.882 15.433-5.882 21.324 0l2.952-2.951c-7.526-7.503-19.702-7.503-27.228 0"/><path d="M45.014 29.338 29.73 37.614l-.055-16.22h5.38l19.861-.084h5.38l.027 16.193-15.31-8.165Zm5.572-19.035.028 6.731-11.283.028v-6.731h11.255v-.028Zm14.07 29.518-.084-22.814h-9.655L54.89 6l-19.862.055V17.09h-9.656l.056 22.813-8.966 4.856 2.98 10.758a18.759 18.759 0 0 1 4.496.22L21.51 46.91l21.352-11.53.055 27.696h4.304l-.083-27.697L68.572 46.8l-2.317 8.607a18.759 18.759 0 0 1 4.359.276l3.034-11.062-9.02-4.8h.027Z"/></g></svg>