<svg viewBox="0 0 90 90" xmlns="http://www.w3.org/2000/svg"><g fill="none" fill-rule="evenodd"><path fill="#FFF" d="M0 0h90v90H0z"/><path d="M64.888 54.553c1.113.427 1.54 2.09 1.626 2.816.171 1.323-.213 1.835-.64 1.835-.429 0-1.028-.512-1.669-1.536-.642-1.025-.898-2.176-.555-2.774.212-.384.683-.554 1.24-.34h-.002Zm-6.5 4.822c.685 0 1.455.298 2.14.895 1.325 1.11 1.71 2.39 1.025 3.328-.385.47-1.026.768-1.753.768-.727 0-1.496-.256-2.01-.725-1.197-1.024-1.539-2.732-.77-3.67.3-.384.77-.596 1.369-.596Zm-14.966 12.33C27.171 71.704 14 58.562 14 42.35S27.172 13 43.421 13c16.25 0 29.422 13.14 29.422 29.351a29.48 29.48 0 0 1-4.147 15.061c-.086.128-.3.085-.343-.086-1.026-7.21-5.43-11.178-11.845-12.372-.557-.086-.642-.427.085-.512 1.967-.17 4.746-.128 6.2.128.086-.726.13-1.493.13-2.261 0-10.709-8.725-19.413-19.46-19.413-10.732 0-19.457 8.704-19.457 19.413s8.725 19.413 19.459 19.413h.897a26.127 26.127 0 0 1-.385-5.249c.043-1.194.3-1.365.813-.427 2.694 4.65 6.544 8.832 14.07 10.496 6.157 1.366 12.315 2.944 18.944 11.348.598.725-.3 1.493-.984.896-6.756-5.973-12.914-7.936-18.516-7.936-6.287.044-10.563.854-14.883.854h.001Z" fill="#FF8C00" fill-rule="nonzero"/></g></svg>