<svg viewBox="0 0 90 90" xmlns="http://www.w3.org/2000/svg"><defs><linearGradient x1="50%" y1="0%" x2="50%" y2="100%" id="a"><stop stop-color="#00A6FF" offset="0%"/><stop stop-color="#1A50FF" offset="100%"/></linearGradient></defs><g fill="none" fill-rule="evenodd"><path fill="#FFF" d="M0 0h90v90H0z"/><g transform="translate(3 3)" fill-rule="nonzero"><circle fill="url(#a)" cx="42" cy="42" r="42"/><path d="M49.368 26.711c11.588-.103 20.13 10.064 19.304 20.744-.335 4.339-1.935 8.241-4.98 11.4-3.717 3.85-7.562 7.598-11.382 11.372-1.394 1.361-3.097 1.72-4.904 1.002-1.806-.72-2.838-2.131-3.07-4.057-.156-1.232.18-2.336 1.083-3.235l7.743-7.856c1.264-1.309 2.555-2.593 3.69-3.979 2.607-3.158 2.968-6.675 1.213-10.295-1.858-3.8-5.007-5.648-9.29-5.52-2.375.052-4.362.95-6.04 2.568-1.626 1.566-3.252 3.183-4.93 4.698-1.625 1.463-3.741 1.617-5.522.513-1.832-1.13-2.71-3.312-2.116-5.365.129-.463.361-.95.67-1.335 2.375-2.825 4.879-5.52 7.975-7.574 3.2-2.157 6.788-3.158 10.556-3.08ZM38.012 15.518c1.471 1.232 2.117 3.517 1.342 5.263-.283.667-.825 1.258-1.342 1.797-3.226 3.286-6.477 6.572-9.678 9.858-1.29 1.31-2.425 2.722-2.993 4.544-1.884 5.982 2.71 12.991 9.807 12.632 2.348-.129 4.361-.899 6.065-2.516 1.625-1.566 3.226-3.158 4.929-4.699 1.626-1.463 3.613-1.668 5.368-.667 1.806 1.001 2.787 2.978 2.4 5.032-.129.642-.413 1.335-.826 1.823-2.374 2.798-4.903 5.494-7.974 7.573-3.2 2.157-6.814 2.978-10.633 3.005-11.33.076-19.976-10.116-19.15-20.77.336-4.185 1.807-7.985 4.672-11.04 3.613-3.851 7.432-7.522 11.174-11.245.413-.41.878-.745 1.368-1.053 1.858-1.13 3.768-.95 5.471.463Z" fill="#FFF"/></g></g></svg>