<svg viewBox="0 0 90 90" xmlns="http://www.w3.org/2000/svg"><defs><linearGradient x1="76.864%" y1="0%" x2="23.136%" y2="50%" id="a"><stop stop-color="#0051CC" offset="0%"/><stop stop-color="#2684FF" offset="100%"/></linearGradient></defs><g fill="none" fill-rule="evenodd"><path d="M78.238 13.2H11.762c-1.287 0-2.27 1.159-2.069 2.443l9.817 59.394c.177 1.007 1.035 1.763 2.07 1.763h47.143a2.09 2.09 0 0 0 2.07-1.763l9.514-59.394c.202-1.284-.782-2.443-2.07-2.443ZM52.47 55.264H37.605l-3.937-20.931H56.13l-3.66 20.931Z" fill="#2684FF" fill-rule="nonzero"/><path d="M0 21.042h6.292L9.948.112h21.179l-6.512 40.703a2.09 2.09 0 0 1-2.07 1.763H0V21.042Z" transform="translate(46.178 34.222)" fill="url(#a)"/></g></svg>