<svg viewBox="0 0 90 90" xmlns="http://www.w3.org/2000/svg"><g fill="none" fill-rule="evenodd"><path fill="#000B4A" d="M0 0h90v90H0z"/><g transform="translate(24 15)" fill="#FFF" fill-rule="nonzero"><circle cx="20.893" cy="39.083" r="2.475"/><path d="M20.893 59.837C9.436 59.824.15 50.54.139 39.083V28.791c0-.852.69-1.544 1.543-1.545h7.361L9.02 3.42 3.226 6.984v13.567a1.543 1.543 0 0 1-3.087 0V6.808a2.786 2.786 0 0 1 1.32-2.363L7.878.496a2.774 2.774 0 0 1 4.228 2.363l.027 24.387h8.76A11.837 11.837 0 1 1 9.059 39.083l-.01-8.748H3.225v8.748c0 9.757 7.91 17.667 17.667 17.667 9.757 0 17.667-7.91 17.667-17.667 0-9.757-7.91-17.667-17.667-17.667h-2.678a1.543 1.543 0 0 1 0-3.087h2.678c11.462 0 20.754 9.292 20.754 20.754 0 11.462-9.292 20.754-20.754 20.754Zm-8.757-29.502v8.746a8.748 8.748 0 1 0 8.748-8.746h-8.748Z"/></g></g></svg>