<svg viewBox="0 0 90 90" xmlns="http://www.w3.org/2000/svg"><g fill="none" fill-rule="evenodd"><path fill="#FFF" d="M0 0h90v90H0z"/><path d="m58.205 38.171 11.367 15.253a4 4 0 0 1-.282 5.118l-7.413 7.949a4 4 0 0 1-6.132-.338L45.246 52.068 58.205 38.17Z" fill="#0064FF"/><path d="M41.574 23.747a4 4 0 0 1 6.133.338l10.497 14.087-12.957 13.895L33.88 36.814a4 4 0 0 1 .282-5.118l7.412-7.95ZM28.475 37.794l11.367 15.253a4 4 0 0 1-.282 5.118l-7.412 7.949a4 4 0 0 1-6.133-.338L15.516 51.691l12.959-13.897Z" fill="#408AFF"/><path d="M11.844 23.37a4 4 0 0 1 6.133.338l10.497 14.087L15.517 51.69 4.15 36.437a4 4 0 0 1 .282-5.118l7.412-7.949Z" fill="#7FB1FF"/><path d="m63.891 32.073 7.413-7.95a4 4 0 0 1 6.133.339l8.503 11.41a4 4 0 0 1-.282 5.117l-7.413 7.95a4 4 0 0 1-6.132-.338L63.61 37.19a4 4 0 0 1 .281-5.118Z" fill="#0064FF"/></g></svg>