<svg viewBox="0 0 90 90" xmlns="http://www.w3.org/2000/svg"><g fill="none" fill-rule="evenodd"><path fill="#F27224" d="M0 0h90v90H0z"/><path d="M33.622 42.529V13.443c0-1.078.108-1.724 1.947-1.724h24.753c4.325 0 6.703 3.663 8.433 10.557l1.405 5.495h4.216c.755-15.62 1.403-22.407 1.403-22.407S65.186 6.55 58.917 6.55H27.246l-16.974-.54v4.526l5.73 1.077c4 .754 4.97 1.615 5.298 5.28 0 0 .324 10.772.324 28.548 0 17.773-.324 28.44-.324 28.44 0 3.23-1.298 4.415-5.298 5.172l-5.73 1.078v4.522l16.974-.538h28.321c6.378 0 21.187.538 21.187.538.323-3.88 2.487-21.439 2.811-23.376h-4l-4.215 9.588c-3.352 7.54-8.216 8.079-13.622 8.079H41.621c-5.406 0-8-2.155-8-6.787V47.594s11.782 0 15.89.324c3.027.216 4.863 1.078 5.837 5.278l1.298 5.602h4.646l-.323-14.114.648-14.218H56.97l-1.512 6.247c-.975 4.094-1.622 4.85-5.839 5.279-4.755.54-15.999.432-15.999.432v.107h.002v-.002Z" fill="#FFF" fill-rule="nonzero"/></g></svg>