<svg viewBox="0 0 90 90" xmlns="http://www.w3.org/2000/svg"><g fill="none" fill-rule="evenodd"><path fill="#FFF" d="M0 0h90v90H0z"/><path d="M65.639 39.824c-3.394-4.226-8.114-8.311-14.323-12.007l-.02-.02c-6.228-3.615-12.1-5.717-17.394-6.582-3.293-.55-4.879.077-5.593.511-.713.412-2.043 1.494-3.234 4.657-1.904 5.09-3.016 11.3-3.075 18.59v.02c.039 7.289 1.171 13.52 3.075 18.608 1.19 3.185 2.52 4.246 3.234 4.677.714.411 2.3 1.06 5.593.51 5.297-.864 11.147-2.985 17.395-6.601l.02-.02c6.208-3.695 10.928-7.78 14.322-12.007C67.74 47.528 68 45.818 68 44.992c0-.826-.24-2.533-2.361-5.168" fill="#FF6900" fill-rule="nonzero"/></g></svg>