<svg viewBox="0 0 90 90" xmlns="http://www.w3.org/2000/svg"><defs><linearGradient x1="19.745%" y1="98.331%" x2="103.296%" y2="19.299%" id="a"><stop stop-color="#B090F5" offset="0%"/><stop stop-color="#5FBFFF" offset="100%"/></linearGradient><linearGradient x1="-3.281%" y1="80.71%" x2="80.265%" y2="1.68%" id="b"><stop stop-color="#68D7FA" offset="0%"/><stop stop-color="#4EE498" offset="100%"/></linearGradient></defs><g fill="none"><path d="m74.654 20.385-1.717-3.015a1.765 1.765 0 0 0-2.784-.37l-3.949 3.944a1.775 1.775 0 0 0-.22 2.235 30.97 30.97 0 0 1-25.906 47.924 30.688 30.688 0 0 1-14.509-3.6l6.678-6.682A22.115 22.115 0 0 0 59.98 30.506a1.768 1.768 0 0 0-2.846-.484l-3.997 3.97a1.765 1.765 0 0 0-.47 1.654l.343 1.436a13.264 13.264 0 0 1-19.485 14.554l-1.76-1.01a1.761 1.761 0 0 0-2.13.286L13.322 67.22a1.768 1.768 0 0 0 .175 2.654l2.403 1.843a39.438 39.438 0 0 0 24.193 8.2 39.829 39.829 0 0 0 34.561-59.533Z" fill="url(#a)" transform="translate(5 5)"/><path d="M64.278 8.522A39.428 39.428 0 0 0 40.086.319 39.829 39.829 0 0 0 5.514 59.87l1.717 3.012a1.772 1.772 0 0 0 2.788.374l3.942-3.942c.59-.598.682-1.529.22-2.231A30.97 30.97 0 0 1 40.086 9.158a30.658 30.658 0 0 1 14.505 3.611l-6.681 6.678a22.108 22.108 0 0 0-29.944 20.68c0 .367.1 2.043.13 2.331a22.269 22.269 0 0 0 2.085 7.303 1.772 1.772 0 0 0 2.85.484l3.996-4a1.768 1.768 0 0 0 .474-1.651l-.343-1.439a13.26 13.26 0 0 1 19.485-14.55l1.761 1.009a1.772 1.772 0 0 0 2.129-.285l16.309-16.31a1.772 1.772 0 0 0-.172-2.657l-2.393-1.84Z" fill="url(#b)" transform="translate(5 5)"/></g></svg>