<svg viewBox="0 0 90 90" xmlns="http://www.w3.org/2000/svg"><g fill="none"><path fill="#000" d="M0 0h90v90H0z"/><path d="M9.603 50.997c.338.905.806 1.678 1.404 2.32a6.041 6.041 0 0 0 2.126 1.475c.819.341 1.71.511 2.672.511.936 0 1.813-.177 2.633-.53a6.476 6.476 0 0 0 2.145-1.495 6.784 6.784 0 0 0 1.424-2.3c.338-.892.507-1.888.507-2.99V31h4.095v27.528h-4.056v-2.556a9.402 9.402 0 0 1-3.218 2.242c-1.236.524-2.568.786-3.998.786-1.457 0-2.815-.256-4.077-.767a9.538 9.538 0 0 1-3.276-2.182c-.923-.944-1.651-2.078-2.184-3.402-.533-1.324-.8-2.799-.8-4.424V31h4.096v16.989c0 1.101.169 2.104.507 3.008ZM33.669 31v10.028a10.43 10.43 0 0 1 3.16-2.182c1.196-.538 2.496-.807 3.9-.807 1.456 0 2.821.276 4.096.826a10.46 10.46 0 0 1 3.315 2.242 10.556 10.556 0 0 1 2.224 3.342c.546 1.285.819 2.648.819 4.09 0 1.442-.273 2.799-.82 4.07a10.613 10.613 0 0 1-2.223 3.323 10.46 10.46 0 0 1-3.315 2.242c-1.275.55-2.64.826-4.096.826-1.404 0-2.71-.269-3.92-.806a10.359 10.359 0 0 1-3.179-2.183v2.517h-3.9V31h3.939Zm.449 20.253a6.846 6.846 0 0 0 1.462 2.202 7.056 7.056 0 0 0 2.185 1.495c.832.367 1.729.55 2.691.55.936 0 1.82-.183 2.652-.55a6.822 6.822 0 0 0 2.165-1.495 7.298 7.298 0 0 0 1.463-2.202 6.742 6.742 0 0 0 .546-2.714c0-.97-.182-1.88-.546-2.733a7.233 7.233 0 0 0-1.463-2.222 6.707 6.707 0 0 0-4.817-2.006 6.788 6.788 0 0 0-4.837 2.006 7.058 7.058 0 0 0-1.482 2.222 6.883 6.883 0 0 0-.546 2.733c0 .97.176 1.875.527 2.714Zm19.288-6.764a10.708 10.708 0 0 1 2.145-3.323 9.966 9.966 0 0 1 3.237-2.261c1.249-.551 2.6-.826 4.057-.826 1.43 0 2.756.262 3.979.786a9.435 9.435 0 0 1 3.16 2.183c.883.93 1.572 2.032 2.066 3.303.494 1.272.741 2.655.741 4.15v1.297H56.604a6.806 6.806 0 0 0 2.243 4.07 6.674 6.674 0 0 0 1.99 1.2 6.45 6.45 0 0 0 2.36.432c2.365 0 4.277-.983 5.733-2.95l2.847 2.124a10.617 10.617 0 0 1-3.666 3.146c-1.456.76-3.095 1.14-4.915 1.14-1.482 0-2.867-.262-4.154-.786a10.108 10.108 0 0 1-3.354-2.202 10.452 10.452 0 0 1-2.243-3.323c-.546-1.272-.82-2.655-.82-4.149 0-1.416.26-2.753.78-4.011Zm5.48-1.554c-1.105.931-1.84 2.17-2.204 3.717h12.131c-.338-1.547-1.06-2.786-2.165-3.717-1.105-.93-2.399-1.396-3.881-1.396-1.482 0-2.776.466-3.881 1.396Zm21.277.453c-.832.917-1.248 2.163-1.248 3.736v11.404h-3.94V38.472h3.901v2.477a5.567 5.567 0 0 1 1.93-1.926c.794-.472 1.737-.708 2.829-.708H85v3.696h-1.638c-1.3 0-2.367.459-3.199 1.377Z" fill="#FFF"/></g></svg>