<svg viewBox="0 0 90 90" xmlns="http://www.w3.org/2000/svg"><g fill="none" fill-rule="evenodd"><path fill="#0559C9" d="M0 0h90v90H0z"/><path d="M54.342 27.566c0-2.578.844-4.974 2.528-7.19 1.684-2.215 6.061-3.32 13.13-3.32v26.848l-1.208 3.921a26.231 26.231 0 0 1-2.306 5.364 17.756 17.756 0 0 1-3.243 4.112 16.651 16.651 0 0 1-4.203 2.86 21.268 21.268 0 0 1-5.136 1.662c.286-1.564.433-3.15.438-4.74V27.566Zm-24.944-7.46h3.132v3.049h-3.132v-3.05Zm3.132 4.626h3.131v3.05H32.53v-3.05ZM29.398 28.6h3.132v3.052h-3.132V28.6Zm-3.13 4.576H29.4v3.102h-3.13v-3.102ZM20.004 17h3.132v3.105h-3.132V17Zm15.658 40.085c0 2.65.486 4.956 1.458 6.916.971 1.96 2.041 3.594 3.214 4.902 1.173 1.308 2.24 2.277 3.212 2.913l1.458.953c-3.92 0-7.426-.552-10.523-1.66-3.096-1.108-5.714-2.652-7.854-4.629a20.038 20.038 0 0 1-4.918-7A22.163 22.163 0 0 1 20 50.767v-25.27h3.131V42.38h3.137v-3.05H29.4v6.807h3.132V34.699h3.132v22.384l-.003.002Zm11.54 6.37c2.894.11 5.548-.108 7.967-.653a19.778 19.778 0 0 0 6.51-2.695 18.208 18.208 0 0 0 4.971-4.847c1.393-1.977 2.51-4.347 3.351-7.108v2.614c0 2.978-.503 5.747-1.51 8.307a19.612 19.612 0 0 1-4.423 6.753c-1.939 1.942-4.305 3.51-7.087 4.71-2.781 1.199-5.953 1.906-9.505 2.124l-1.868-.98-3.625-2.86c-2.273-1.798-3.829-4.512-4.672-8.143 1.246.763 2.683 1.39 4.315 1.881 1.63.492 3.486.789 5.576.898ZM26.266 23.212h3.08v3.05h-3.08v-3.05Z" fill="#FFF"/></g></svg>