<svg viewBox="0 0 90 90" xmlns="http://www.w3.org/2000/svg"><g fill="none" fill-rule="evenodd"><path fill="#FFF" d="M0 0h90v90H0z"/><path d="m56.49 57.386-11.21 6.228a.85.85 0 0 1-.819.001L30.6 55.987a1.691 1.691 0 0 1-.876-1.48V39.952c0-.624.345-1.197.895-1.491l7.04-3.761c1.407-.754 3.11.267 3.11 1.863v9.234l15.714 8.627c1.166.641 1.17 2.314.007 2.961m16.766-10.553L53.856 36.1a.056.056 0 0 1-.03-.05V13.694a1.692 1.692 0 0 0-2.453-1.51L17.86 29.07A3.385 3.385 0 0 0 16 32.09v30.578c0 .609.326 1.169.855 1.47l27.09 15.419a3.38 3.38 0 0 0 3.292.03l26-14.18A3.38 3.38 0 0 0 75 62.436V49.793a3.382 3.382 0 0 0-1.745-2.96" fill="#4F90FF" fill-rule="nonzero"/></g></svg>