<svg viewBox="0 0 90 90" xmlns="http://www.w3.org/2000/svg"><g fill="none" fill-rule="evenodd"><path fill="#FFF" d="M0 0h90v90H0z"/><g fill-rule="nonzero"><path d="M68.545 47.31v19.24H49.304V47.31h19.24Zm-3.912 13.96v-2.376H53.215v2.377h11.418Zm0-6.303V52.59H53.215v2.377h11.418Z" fill="#32C09E"/><path d="M50.617 37.905a1.565 1.565 0 1 0 0 3.13 1.565 1.565 0 0 0 0-3.13Zm7.34 0a1.565 1.565 0 1 0 0 3.13 1.565 1.565 0 0 0 0-3.13Zm7.208 0a1.565 1.565 0 1 0 0 3.13 1.565 1.565 0 0 0 0-3.13ZM50.617 30.71a1.565 1.565 0 1 0 0 3.13 1.565 1.565 0 0 0 0-3.13Zm7.34 0a1.565 1.565 0 1 0 0 3.13 1.565 1.565 0 0 0 0-3.13Zm7.208 0a1.565 1.565 0 1 0 0 3.13 1.565 1.565 0 0 0 0-3.13Zm-14.548-7.19a1.565 1.565 0 1 0 0 3.13 1.565 1.565 0 0 0 0-3.13Zm7.34 0a1.565 1.565 0 1 0 0 3.13 1.565 1.565 0 0 0 0-3.13Zm7.208 0a1.565 1.565 0 1 0 0 3.13 1.565 1.565 0 0 0 0-3.13Zm-24.528 7.986a9.319 9.319 0 0 0-18.637 0v26.988a9.318 9.318 0 0 0 18.637 0V31.506Z" fill="#1F2E5C"/><path d="M31.318 64.625a6.13 6.13 0 1 1 0-12.261 6.13 6.13 0 0 1 0 12.26Z" fill="#1F2E5C"/><path d="M31.32 22.19a9.32 9.32 0 1 1 0 18.64 9.32 9.32 0 0 1 0-18.64Z" fill="#32C09E"/><path d="M31.32 49.19a9.32 9.32 0 1 1 0 18.64 9.32 9.32 0 0 1 0-18.64Z" fill="#E41978"/><path fill="#FFF" d="M34.318 61.712h-6v-6h6v6z"/></g></g></svg>