<svg viewBox="0 0 90 90" xmlns="http://www.w3.org/2000/svg"><g fill="none" fill-rule="evenodd"><path fill="#FFF" d="M0 0h90v90H0z"/><g fill-rule="nonzero"><path d="M76.998 46.333v-2.667c0-2.276-.953-4.441-2.666-6.401-.93-1.063-2.085-2.066-3.432-2.994a26.902 26.902 0 0 0-2.463-1.495 32.084 32.084 0 0 0-2.023-.996 41.376 41.376 0 0 0-6.046-2.15c.256.927.487 1.883.695 2.864.204.96.385 1.945.543 2.95a37.62 37.62 0 0 1 3.372 1.28c.497.218.983.444 1.455.68.253.126.498.254.74.384.84.452 1.614.926 2.316 1.417 2.55 1.778 4.171 3.781 4.674 5.795-.503 2.013-2.124 4.015-4.674 5.794a32.1 32.1 0 0 1 .727 2.136c.287.955.515 1.89.684 2.798 1.347-.928 2.502-1.93 3.432-2.994 1.713-1.96 2.666-4.125 2.666-6.4M37.979 61.948a61.318 61.318 0 0 1-3.253-2.788 42.9 42.9 0 0 0 .718 2.45c.83.13 1.677.242 2.535.338m5.748-2.291a48.703 48.703 0 0 0 3.706 2.44c.103.061.207.12.31.18a61.635 61.635 0 0 0 6.81-.665 57.12 57.12 0 0 0 2.952-.543c.981-.208 1.936-.44 2.863-.695a41.47 41.47 0 0 0 6.046-2.15 23.338 23.338 0 0 0-.637-2.64 27.65 27.65 0 0 0-.25-.793c-.168-.5-.352-1.005-.55-1.511a37.212 37.212 0 0 1-3.371 1.28c-.795.26-1.613.499-2.45.718-.117.03-.234.062-.35.091a48.52 48.52 0 0 1-4.346.897c-1.485.24-3.01.423-4.57.546-1.6.128-3.235.193-4.89.193a61.39 61.39 0 0 1-4.891-.193 56.33 56.33 0 0 0 3.618 2.845M24.221 34.423a31.406 31.406 0 0 0 .8 2.304 37.734 37.734 0 0 1 3.37-1.28 43.407 43.407 0 0 1 2.801-.809 48.593 48.593 0 0 1 4.346-.895 56.44 56.44 0 0 1 4.571-.548c1.6-.127 3.234-.192 4.89-.192 1.656 0 3.29.065 4.89.192A57.127 57.127 0 0 0 45 29.46a48.512 48.512 0 0 0-2.434-1.548 24.87 24.87 0 0 0-.31-.181 61.75 61.75 0 0 0-6.811.665 56.74 56.74 0 0 0-2.95.543c-.981.209-1.938.44-2.865.695a41.466 41.466 0 0 0-6.045 2.15c.15.844.362 1.725.637 2.64M52.02 28.06a62.175 62.175 0 0 1 3.253 2.788 42.725 42.725 0 0 0-.72-2.45 58.7 58.7 0 0 0-2.533-.338M15.836 44.998c.503-2.013 2.124-4.016 4.673-5.794a31.254 31.254 0 0 1-.726-2.136 26.192 26.192 0 0 1-.684-2.798c-1.348.927-2.503 1.93-3.433 2.994-1.713 1.96-2.666 4.125-2.666 6.4v2.668c0 2.276.953 4.44 2.666 6.401.93 1.063 2.085 2.066 3.433 2.994.76.522 1.583 1.022 2.462 1.494.644.348 1.32.68 2.023.997a41.56 41.56 0 0 0 6.045 2.15 51.002 51.002 0 0 1-.694-2.864 56.96 56.96 0 0 1-.543-2.95 37.37 37.37 0 0 1-3.371-1.28 29.546 29.546 0 0 1-2.195-1.063 23.474 23.474 0 0 1-2.317-1.418c-2.55-1.78-4.17-3.781-4.673-5.795" fill="#2F577E"/><g fill="#F4B563"><path d="M52.02 61.94a61.635 61.635 0 0 1-4.277.329c.749.437 1.496.848 2.243 1.226a58.595 58.595 0 0 0 2.034-1.555m16.549-38.62-1.886-1.886c-1.61-1.61-3.814-2.466-6.412-2.64-1.409-.095-2.935.013-4.544.31a26.54 26.54 0 0 0-2.798.683c-.7.211-1.413.453-2.135.727A41.204 41.204 0 0 0 45 23.27c.835.475 1.675.987 2.516 1.533a56.138 56.138 0 0 1 2.47 1.703 37.22 37.22 0 0 1 3.29-1.479 31.38 31.38 0 0 1 1.51-.549c.268-.089.531-.172.794-.25a23.275 23.275 0 0 1 2.64-.638c3.06-.545 5.623-.274 7.4.794"/><path d="M65.62 24.377c1.07 1.78 1.338 4.341.794 7.402.704.317 1.38.65 2.023.996.88.473 1.701.972 2.463 1.495.296-1.609.405-3.134.31-4.544-.174-2.597-1.032-4.802-2.641-6.412a8.274 8.274 0 0 0-1.021-.864M54.46 56.266a48.52 48.52 0 0 0 4.346-.896c.116-.03.233-.06.35-.092a61.86 61.86 0 0 0 4.343-5.286 57.536 57.536 0 0 0 1.702-2.47 51.104 51.104 0 0 0 1.534-2.516 41.349 41.349 0 0 0 2.754-5.795 23.278 23.278 0 0 0-2.316-1.417c-.242-.13-.487-.258-.74-.384a32.349 32.349 0 0 0-1.455-.68 37.695 37.695 0 0 1-1.48 3.29c-.379.746-.79 1.493-1.226 2.242l-.18.31a48.886 48.886 0 0 1-2.44 3.706 56.998 56.998 0 0 1-2.846 3.618 61.627 61.627 0 0 1-3.322 3.595 61.087 61.087 0 0 1-3.594 3.321 56.551 56.551 0 0 0 4.57-.546M37.979 28.055a61.751 61.751 0 0 1 4.277-.328 43.534 43.534 0 0 0-2.244-1.227 59.985 59.985 0 0 0-2.033 1.555M24.377 65.623c-1.067-1.78-1.338-4.342-.793-7.401a32.277 32.277 0 0 1-2.023-.997A26.562 26.562 0 0 1 19.1 55.73c-.298 1.61-.405 3.134-.31 4.544.174 2.598 1.03 4.802 2.64 6.412l1.887 1.885c1.609 1.61 3.813 2.467 6.411 2.641 1.41.095 2.935-.013 4.544-.31a26.363 26.363 0 0 0 2.798-.684c.702-.21 1.413-.453 2.135-.726A41.45 41.45 0 0 0 45 66.737a51.535 51.535 0 0 1-2.516-1.533 57.357 57.357 0 0 1-2.47-1.703 37.396 37.396 0 0 1-3.29 1.48 32.78 32.78 0 0 1-1.51.547c-.268.09-.531.173-.794.252-.914.275-1.795.486-2.64.637-3.06.544-5.622.274-7.402-.794m-1.552-13.414a29.546 29.546 0 0 0 2.195 1.063 36.98 36.98 0 0 1 1.48-3.289 43.23 43.23 0 0 1 1.225-2.242l.18-.31a48.06 48.06 0 0 1 1.55-2.434 56.695 56.695 0 0 1 3.737-4.89 60.968 60.968 0 0 1 3.322-3.594 60.723 60.723 0 0 1 3.594-3.323 56.389 56.389 0 0 0-6.101.816 48.593 48.593 0 0 0-3.164.719A61.341 61.341 0 0 0 26.5 40.01c-.6.823-1.168 1.647-1.703 2.47a50.699 50.699 0 0 0-1.533 2.516 41.246 41.246 0 0 0-2.755 5.795c.703.49 1.476.965 2.317 1.417"/></g><path d="M28.055 52.017a62.036 62.036 0 0 1-.329-4.277 43.474 43.474 0 0 0-1.226 2.242c.497.68 1.015 1.36 1.555 2.035m-3.678-27.634c1.78-1.068 4.343-1.339 7.402-.794a32 32 0 0 1 .997-2.023 26.47 26.47 0 0 1 1.495-2.462c-1.61-.297-3.134-.405-4.544-.31-2.598.174-4.802 1.03-6.411 2.64l-1.887 1.886c-1.61 1.61-2.466 3.814-2.64 6.412-.095 1.41.012 2.935.31 4.544.168.908.396 1.842.684 2.798.21.701.452 1.413.726 2.135a41.267 41.267 0 0 0 2.755 5.795c.475-.836.987-1.674 1.533-2.516a57.178 57.178 0 0 1 1.703-2.47 37.102 37.102 0 0 1-1.48-3.29 31.406 31.406 0 0 1-.799-2.304 23.161 23.161 0 0 1-.637-2.64c-.545-3.06-.274-5.622.793-7.401M61.943 37.98c.157 1.393.267 2.821.329 4.277a44.43 44.43 0 0 0 1.227-2.243 59.35 59.35 0 0 0-1.556-2.034m-5.683-2.441a48.607 48.607 0 0 0-.896-4.347l-.091-.348a62.175 62.175 0 0 0-5.287-4.344 56.138 56.138 0 0 0-2.471-1.702 50.456 50.456 0 0 0-2.516-1.533 41.27 41.27 0 0 0-5.795-2.755 23.21 23.21 0 0 0-1.416 2.316c-.13.242-.258.488-.385.74a33.76 33.76 0 0 0-.68 1.456 36.98 36.98 0 0 1 3.29 1.478c.746.38 1.493.79 2.243 1.227l.309.181a48.512 48.512 0 0 1 3.707 2.439c1.219.88 2.428 1.83 3.618 2.845a60.975 60.975 0 0 1 3.594 3.323 61.364 61.364 0 0 1 3.322 3.594 56.529 56.529 0 0 0-.547-4.57M33.74 54.46a49.707 49.707 0 0 0 .894 4.346l.092.35a61.318 61.318 0 0 0 5.286 4.342 57.31 57.31 0 0 0 2.471 1.703 51.886 51.886 0 0 0 2.516 1.534 41.383 41.383 0 0 0 5.795 2.754c.49-.702.965-1.476 1.416-2.316a30.26 30.26 0 0 0 1.065-2.195 36.985 36.985 0 0 1-3.29-1.48 42.875 42.875 0 0 1-2.242-1.226l-.31-.18a48.703 48.703 0 0 1-3.706-2.44 56.33 56.33 0 0 1-3.618-2.846 60.58 60.58 0 0 1-3.594-3.322 60.962 60.962 0 0 1-3.323-3.594 56.58 56.58 0 0 0 .548 4.57m32.943 14.11 1.886-1.885c1.609-1.61 2.467-3.815 2.64-6.413.096-1.41-.013-2.934-.31-4.544a26.765 26.765 0 0 0-.683-2.798 31.779 31.779 0 0 0-.727-2.135A41.328 41.328 0 0 0 66.735 45a50.658 50.658 0 0 1-1.534 2.516 56.819 56.819 0 0 1-1.702 2.47 37.796 37.796 0 0 1 1.479 3.29c.197.505.381 1.01.548 1.51.09.268.172.531.251.794.275.914.487 1.795.637 2.64.544 3.06.275 5.622-.794 7.402-1.778 1.067-4.34 1.338-7.4.793-.318.704-.65 1.38-.998 2.023-.473.879-.972 1.7-1.495 2.462 1.61.298 3.135.406 4.544.31 2.598-.174 4.803-1.031 6.412-2.64" fill="#5CAFCD"/><path d="M30.347 43.728a48.06 48.06 0 0 0-2.44 3.706l-.18.31a62.036 62.036 0 0 0 .665 6.811c.158 1.007.34 1.99.543 2.951.208.98.44 1.937.694 2.864a41.68 41.68 0 0 0 2.15 6.046c.845-.15 1.726-.362 2.64-.637.263-.08.526-.162.794-.252a32.78 32.78 0 0 0 1.51-.548 37.462 37.462 0 0 1-1.28-3.372 42.9 42.9 0 0 1-.717-2.45l-.092-.35a48.119 48.119 0 0 1-.894-4.346 56.58 56.58 0 0 1-.548-4.57 61.599 61.599 0 0 1-.193-4.89c0-1.657.065-3.29.193-4.891a56.695 56.695 0 0 0-2.845 3.618m31.596 8.292a61.86 61.86 0 0 1-2.788 3.252 42.015 42.015 0 0 0 2.45-.718c.13-.83.242-1.676.338-2.534M28.055 37.982a61.341 61.341 0 0 1 2.789-3.252c-.839.22-1.657.458-2.452.717-.13.831-.24 1.677-.337 2.535m31.597 8.296a48.886 48.886 0 0 0 2.439-3.707c.061-.103.12-.206.18-.31a62.036 62.036 0 0 0-.665-6.811 55.52 55.52 0 0 0-.543-2.951 49.56 49.56 0 0 0-.695-2.864 41.444 41.444 0 0 0-2.149-6.045c-.845.15-1.726.362-2.64.637a27.34 27.34 0 0 0-.794.251c-.5.167-1.005.351-1.51.549.467 1.07.895 2.195 1.279 3.371.26.795.499 1.613.719 2.451l.09.349a48.607 48.607 0 0 1 .896 4.346c.24 1.484.424 3.01.547 4.57a61.968 61.968 0 0 1 0 9.782 56.998 56.998 0 0 0 2.846-3.618M55.727 19.1c-.927-1.349-1.93-2.504-2.993-3.434C50.774 13.953 48.608 13 46.333 13h-2.667c-2.276 0-4.441.953-6.402 2.666-1.063.93-2.065 2.085-2.993 3.433a26.47 26.47 0 0 0-1.495 2.462 32.07 32.07 0 0 0-.997 2.023 41.657 41.657 0 0 0-2.15 6.045 50.945 50.945 0 0 1 2.864-.694 56.74 56.74 0 0 1 2.95-.543 37.353 37.353 0 0 1 1.28-3.37c.219-.498.445-.985.68-1.458.127-.251.256-.497.385-.738a23.21 23.21 0 0 1 1.416-2.317c1.78-2.55 3.782-4.17 5.795-4.673 2.014.503 4.016 2.124 5.795 4.673a32.165 32.165 0 0 1 2.135-.727M43.666 77h2.667c2.275 0 4.44-.954 6.4-2.667 1.063-.93 2.067-2.085 2.994-3.433a26.681 26.681 0 0 0 1.495-2.461c.347-.645.68-1.32.997-2.024a41.444 41.444 0 0 0 2.15-6.045l-2.864.694c-.96.204-1.945.386-2.951.543a37.46 37.46 0 0 1-1.28 3.372c-.218.497-.443.984-.68 1.456a30.26 30.26 0 0 1-.384.739c-.45.84-.925 1.614-1.416 2.317-1.779 2.55-3.781 4.17-5.795 4.672-2.013-.503-4.015-2.123-5.795-4.672a32.44 32.44 0 0 1-2.135.726l-2.798.683c.928 1.348 1.93 2.504 2.993 3.433C39.224 76.046 41.39 77 43.666 77" fill="#47B178"/></g></g></svg>