<svg viewBox="0 0 90 90" xmlns="http://www.w3.org/2000/svg"><g fill="none" fill-rule="evenodd"><path fill="#FFF" d="M0 0h90v90H0z"/><path d="m20.015 46.433-.055-6.87-3.49 6.87h3.545Zm66.258-12.87-2.018 5.998c-1.127-.582-2.137-1.009-3.027-1.28-.891-.274-1.645-.41-2.264-.41-.689 0-1.217.11-1.58.327-.365.218-.619.491-.766.818-.217.328-.326.746-.326 1.254 0 .363.064.682.191.955.127.272.582.763 1.363 1.472a142.5 142.5 0 0 1 2.209 2.045c.689.654 1.135 1.145 1.336 1.472.199.327.445.873.736 1.637.289.764.436 1.617.436 2.563 0 1.163-.363 2.5-1.09 4.008-.729 1.51-1.973 2.763-3.736 3.763-1.763 1-3.736 1.5-5.916 1.5-1.891 0-3.572-.29-5.045-.873-1.473-.582-2.682-1.309-3.627-2.18l2.072-6.327a21.213 21.213 0 0 0 3.545 1.745c1.164.436 2.4.654 3.709.654.727 0 1.336-.209 1.826-.627.49-.418.736-.918.736-1.5 0-.69-.4-1.309-1.199-1.854-1.311-1.054-2.346-1.972-3.109-2.754-.764-.78-1.271-1.472-1.527-2.072a7.706 7.706 0 0 1-.518-1.718 9.205 9.205 0 0 1-.137-1.526c0-1.382.301-2.736.9-4.063a8.399 8.399 0 0 1 2.699-3.327c1.199-.89 2.326-1.49 3.381-1.8a11.808 11.808 0 0 1 3.33-.463c1.635 0 3.152.263 4.553.79 1.399.527 2.354 1.118 2.863 1.772Zm-60.042 25.14h-6.053l-.055-6.38h-6.762l-3.217 6.38H3L17.07 31.6h8.889l.272 27.102ZM55.57 31.6 41.501 58.702h-9.653l-.49-27.102h6.98l.273 18.923L48.426 31.6h7.144Zm10.252 0-9.107 27.103h-6.652L59.17 31.6h6.652Z" fill="#CC2229"/></g></svg>