<svg viewBox="0 0 90 90" xmlns="http://www.w3.org/2000/svg"><g fill="none"><path fill="#FFF" d="M0 0h90v90H0z"/><g fill="#00A8EC"><path d="M29.838 42.521H60.93v-5.44H29.838v5.44Zm-.22-15.436c-2.279 0-4.19 1.838-4.19 4.117 0 2.278 1.911 4.19 4.19 4.19 2.278 0 4.116-1.912 4.116-4.19a4.11 4.11 0 0 0-4.116-4.117Zm10.29-.147c-2.278 0-4.116 1.838-4.116 4.19a4.11 4.11 0 0 0 4.116 4.116c2.352 0 4.19-1.837 4.19-4.116 0-2.352-1.838-4.19-4.19-4.19Zm10.143 0c-2.278 0-4.116 1.838-4.116 4.19a4.11 4.11 0 0 0 4.116 4.116c2.28 0 4.19-1.837 4.19-4.116 0-2.352-1.91-4.19-4.19-4.19Zm10.584 0c-2.351 0-4.19 1.838-4.19 4.19 0 2.278 1.839 4.116 4.19 4.116a4.11 4.11 0 0 0 4.117-4.116c0-2.352-1.838-4.19-4.117-4.19Zm-16.684.221h2.279V19.22h-2.28v7.939ZM11.683 47.372H3.966v20.434h7.717v-8.233l8.012 8.233h9.409L18.372 56.119l8.747-8.747h-8.086l-7.35 7.57v-7.57Zm18.008 0h7.35V62.66h13.084v5.145H29.69V47.372Zm39.912 11.613 3.895-11.613h12.423v20.434h-7.35V52.444l-5.293 15.362h-7.57l-5.073-15.362v15.362h-7.57V47.372h12.642l3.896 11.613Z"/><path d="M41.305 24.366h7.939v-2.279h-7.94z"/></g></g></svg>