<svg viewBox="0 0 90 90" xmlns="http://www.w3.org/2000/svg"><defs><linearGradient x1="0%" y1="49.938%" x2="99.977%" y2="49.938%" id="a"><stop stop-color="#ED1C24" offset="0%"/><stop stop-color="#EF4423" offset="5.373%"/><stop stop-color="#F26522" offset="13.14%"/><stop stop-color="#F37021" offset="17.32%"/><stop stop-color="#F47521" offset="18.57%"/><stop stop-color="#F8941F" offset="26.78%"/><stop stop-color="#FAA81C" offset="33.16%"/><stop stop-color="#FCAF1A" offset="36.88%"/><stop stop-color="#EFB320" offset="40.89%"/><stop stop-color="#D2BB2B" offset="48.55%"/><stop stop-color="#9CC33C" offset="58.98%"/><stop stop-color="#8DC63F" offset="61.17%"/><stop stop-color="#71BA64" offset="68.12%"/><stop stop-color="#43AF8D" offset="77.52%"/><stop stop-color="#26AB9A" offset="81.98%"/><stop stop-color="#1DA29F" offset="85.55%"/><stop stop-color="#008AA7" offset="92.65%"/><stop stop-color="#006EAB" offset="100%"/></linearGradient></defs><path d="M45.402 18.188v7.687c0 .924-.46 1.386-1.38 1.386-.691 0-1.152-.231-1.152-1.386l-.23-2.772c-.46 1.386-2.532 4.158-6.906 4.158-4.835.462-7.597-2.31-7.597-8.084l-.001-.989h3.223v.989c0 3.695 1.612 5.774 5.065 5.774 3.914 0 5.756-3.465 5.756-6.467l-.001-.296h3.223ZM29.748 7.628c.921 0 1.612.462 1.612 1.617l-.001 6.9h-3.223v-6.9c0-1.155.692-1.617 1.612-1.617Zm14.043 0c.921 0 1.612.462 1.612 1.617l-.001 6.9h-3.223v-6.9c0-1.155.691-1.617 1.612-1.617Zm-26.526 10.56v7.68c0 1.156-.69 1.618-1.61 1.618-.922 0-1.612-.462-1.612-1.617l-.001-7.681h3.223Zm-14.043 0 .001 7.68c0 1.156-.69 1.618-1.612 1.618-.92 0-1.611-.462-1.611-1.617v-7.681h3.222ZM1.612 0c.92 0 1.611.462 1.611 1.617v9.7c.69-1.385 2.762-3.695 6.676-3.695 4.374 0 7.367 2.772 7.367 8.315l-.001.208h-3.223v-.208c0-3.695-1.61-5.774-5.064-5.774-3.704 0-5.552 3.104-5.74 5.982H0V1.617C0 .462.69 0 1.611 0ZM74 16.824c0 .923-.69 1.385-1.381 1.385H58.806c0 4.158 2.993 6.699 7.367 6.699 2.762 0 3.453-.462 5.064-.924.921-.231 1.612 0 1.612.924 0 .693-.23 1.154-.92 1.385-1.612.924-3.684 1.155-6.217 1.155-6.193 0-10.048-3.837-10.341-9.26h-2.55a1.021 1.021 0 1 1 0-2.042l2.608-.001c.569-5.084 4.303-8.791 9.593-8.791C72.158 7.123 74 12.666 74 16.824Zm-15.424-.693h12.661c0-2.541-1.15-6.699-5.985-6.699-3.914.231-6.446 2.772-6.676 6.699Z" transform="translate(8 31)" fill="url(#a)"/></svg>