<svg viewBox="0 0 90 90" xmlns="http://www.w3.org/2000/svg"><g fill="none" fill-rule="evenodd"><path fill="#00ADEF" d="M0 0h90v90H0z"/><path d="M64.55 20.01c-8.04-.262-13.482 4.26-16.335 13.567 1.468-.626 2.899-.944 4.293-.944 2.944 0 4.248 1.653 3.901 4.949-.173 1.998-1.476 4.904-3.9 8.727-2.434 3.822-4.257 5.73-5.47 5.73-1.568 0-2.999-2.934-4.293-8.827-.447-1.734-1.221-6.148-2.352-13.249-1.039-6.583-3.819-9.662-8.33-9.226-1.915.173-4.777 1.907-8.596 5.185A698.162 698.162 0 0 1 15 33.45l2.735 3.505c2.597-1.816 4.12-2.724 4.548-2.724 1.996 0 3.856 3.115 5.587 9.335 1.56 5.703 3.127 11.396 4.686 17.108C34.889 66.894 37.75 70 41.133 70c5.46 0 12.123-5.103 20.016-15.32 7.62-9.779 11.567-17.488 11.822-23.11.347-7.536-2.46-11.387-8.422-11.56Z" fill="#FFF" fill-rule="nonzero"/></g></svg>