<svg viewBox="0 0 90 90" xmlns="http://www.w3.org/2000/svg"><g fill="none"><path d="M89.79 41.766c0-20.532-18.563-31.852-46.618-27.985-42.328 5.766-44.508-.773-38.11 30.797 2.602 12.797 7.383 25.242 16.946 31.29-1.125 1.687-3.024 3.866-5.344 3.866 0 0 6.82 0 11.11-1.195 4.359 1.336 9.492 1.617 15.609.422 25.172-4.922 46.406-16.664 46.406-37.195" fill="#FFF" opacity=".5"/><path d="M80.367 34.031c-.844-18-10.125-31.781-32.906-21.515C24.398 22.992-4.08 29.672.492 47.953 5.062 66.305 37.97 78.82 62.79 73.97c3.516-.703 6.61-1.406 9.211-2.18 2.883 3.164 8.508 8.79 11.602 8.86h.21c-.07-.07-4.359-6.75-5.624-11.18 17.437-7.805 2.882-19.758 2.18-35.438Z" fill="#06038D"/><path d="M89.79 41.766c0-20.532-18.563-31.852-46.618-27.985-42.328 5.766-44.508-.773-38.11 30.797 2.602 12.797 7.383 25.242 16.946 31.29-1.125 1.687-3.024 3.866-5.344 3.866 0 0 6.82 0 11.11-1.195 4.359 1.336 9.492 1.617 15.609.422 25.172-4.922 46.406-16.664 46.406-37.195" fill="#00A3E0" opacity=".5"/><path d="M19.758 61.664V46.617c0-.21.07-.422.21-.492a.642.642 0 0 1 .493-.21h2.531c.211 0 .422.07.492.21.141.14.211.281.211.492v15.047c0 .211-.07.422-.21.492a.638.638 0 0 1-.493.211h-2.531c-.211 0-.422-.07-.492-.21-.14-.071-.211-.282-.211-.493Zm7.805-.703c-1.196-1.125-1.758-2.742-1.758-4.852 0-2.109.562-3.797 1.758-4.851 1.195-1.125 2.882-1.688 5.132-1.688 2.25 0 3.938.563 5.133 1.688 1.195 1.125 1.758 2.742 1.758 4.851 0 2.11-.563 3.797-1.758 4.852-1.195 1.125-2.883 1.687-5.133 1.687s-3.867-.632-5.133-1.687Zm2.953-7.875c-.493.633-.703 1.617-.703 2.953 0 1.406.21 2.39.703 3.023.492.633 1.195.915 2.25.915 1.054 0 1.757-.282 2.25-.914.492-.633.703-1.618.703-3.024s-.211-2.39-.703-2.953c-.493-.633-1.196-.914-2.25-.914-1.055 0-1.758.281-2.25.914Zm10.547 3.023c0-2.18.562-3.797 1.757-4.851 1.196-1.125 2.883-1.688 5.063-1.688 2.039 0 3.656.352 4.781 1.055 1.125.703 1.688 1.688 1.688 3.023 0 .211-.07.422-.211.493a.638.638 0 0 1-.493.21h-1.757c-.493 0-.985-.28-1.336-.843-.492-.703-1.266-1.055-2.461-1.055-1.125 0-1.899.281-2.39.844-.493.562-.704 1.547-.704 2.883 0 1.265.21 2.25.703 2.812.492.563 1.266.844 2.461.844 1.195 0 2.04-.352 2.461-1.055.352-.562.844-.843 1.336-.843h1.758c.21 0 .422.07.492.21.14.141.21.282.21.493 0 1.265-.562 2.32-1.687 3.023-1.125.703-2.742 1.055-4.78 1.055-2.25 0-3.938-.563-5.134-1.688-1.195-1.195-1.758-2.812-1.758-4.922Zm16.101 5.414c-1.055-.703-1.547-1.687-1.547-3.023 0-1.266.492-2.25 1.547-2.953 1.055-.703 2.32-1.055 3.867-1.055h3.797c0-.914-.21-1.547-.562-1.828-.422-.352-.985-.492-1.758-.492-1.055 0-1.828.281-2.25.773-.281.422-.774.563-1.266.563h-1.687c-.211 0-.422-.07-.492-.211a.638.638 0 0 1-.211-.492c0-2.18 2.109-3.305 6.257-3.305 1.828 0 3.235.422 4.36 1.195 1.125.774 1.687 2.11 1.687 3.797v7.102c0 .21-.07.422-.21.492a.638.638 0 0 1-.493.21h-2.18c-.21 0-.421-.07-.492-.21a.638.638 0 0 1-.21-.492v-.352c-1.196.844-2.602 1.266-4.15 1.266-1.687.07-3.023-.281-4.007-.985Zm2.461-2.953c0 .422.14.774.492 1.055.281.281.774.422 1.406.422 1.196 0 2.32-.352 3.446-1.055v-1.758h-3.516c-.562 0-.914.141-1.266.422-.421.14-.562.492-.562.914Zm12.023 3.094V46.617c0-.21.07-.422.211-.492a.642.642 0 0 1 .493-.21h2.53c.212 0 .423.07.493.21.14.14.21.281.21.492v15.047c0 .211-.07.422-.21.492a.638.638 0 0 1-.492.211h-2.531c-.211 0-.422-.07-.493-.21a.638.638 0 0 1-.21-.493ZM24.258 35.79V25.03c0-.21.07-.422.21-.492a.642.642 0 0 1 .493-.21h2.531c.211 0 .422.07.492.21.141.14.211.281.211.492v3.797h3.164c.211 0 .422.07.493.211.07.14.21.281.21.492v1.407c0 .21-.07.421-.21.492a.638.638 0 0 1-.493.21h-3.164v4.22c0 .773.211 1.406.563 1.828.351.421.844.632 1.476.632.211 0 .493-.07.844-.07.352-.07.563-.07.774-.07h.421c.211 0 .422.07.493.21.14.141.21.282.21.493v1.195c0 .14-.07.281-.21.422a.638.638 0 0 1-.493.21c-.773.142-1.828.212-3.023.212-3.305.07-4.992-1.617-4.992-5.133Zm11.46 3.515c-1.195-1.125-1.757-2.742-1.757-4.782 0-2.039.562-3.726 1.758-4.851 1.195-1.125 2.812-1.688 4.922-1.688 2.109 0 3.726.563 4.922 1.688 1.195 1.125 1.757 2.742 1.757 4.851v.704c0 .21-.07.421-.21.492a.638.638 0 0 1-.493.21H37.97c.07.844.351 1.477.843 1.9.493.421 1.196.562 2.11.562 1.055 0 1.828-.282 2.25-.774.281-.422.773-.633 1.266-.633h1.687c.21 0 .422.07.492.211.14.14.211.282.211.563 0 2.18-2.11 3.234-6.258 3.234-2.11 0-3.656-.562-4.851-1.687Zm2.25-6.047h5.344c-.07-1.828-.914-2.742-2.601-2.742-1.758.07-2.672.984-2.742 2.742Zm9.985 7.172c-.07-.07-.07-.14-.07-.211 0-.14.07-.282.21-.492l4.009-5.274-3.727-5.273c-.14-.14-.14-.282-.21-.492-.071-.211.07-.282.14-.422.07-.141.21-.141.422-.141h2.46c.774 0 1.336.352 1.758 1.055l1.899 2.883 1.898-2.883c.422-.703 1.055-1.055 1.758-1.055h2.46c.142 0 .282.07.423.14.07.141.14.212.14.422 0 .211-.07.282-.21.493l-3.727 5.273 4.008 5.274c.14.14.21.28.21.492 0 .07 0 .14-.07.21-.07.212-.21.352-.492.352h-2.46c-.704 0-1.266-.351-1.759-1.054l-2.18-3.024-2.179 3.024c-.492.703-1.055 1.054-1.758 1.054h-2.46c-.282 0-.423-.14-.493-.351Zm15.469-4.64V25.03c0-.21.07-.422.21-.492a.642.642 0 0 1 .493-.21h2.531c.211 0 .422.07.492.21.141.14.211.281.211.492v3.797h3.164c.211 0 .422.07.493.211.14.14.21.281.21.492v1.407c0 .21-.07.421-.21.492a.638.638 0 0 1-.493.21H67.36v4.22c0 .773.211 1.406.563 1.828.351.421.844.632 1.476.632.211 0 .493-.07.844-.07.352-.07.563-.07.774-.07h.421c.211 0 .422.07.493.21.14.141.21.282.21.493v1.195c0 .14-.07.281-.21.422a.638.638 0 0 1-.493.21c-.773.142-1.828.212-3.023.212-3.375.07-4.992-1.617-4.992-5.133Z" fill="#FFF"/></g></svg>