<svg viewBox="0 0 90 90" xmlns="http://www.w3.org/2000/svg"><g fill="none" fill-rule="evenodd"><path fill="#1A1819" d="M0 0h90v90H0z"/><path d="M34.387 28.02a7 7 0 0 1 .734-5.146c7.255-12.61 11.944-18.747 14.066-18.411 2.116.335 4.815 7.599 8.096 21.792a7 7 0 0 1-.936 5.368 263.082 263.082 0 0 1-3.903 5.897 256.72 256.72 0 0 1 6.11-3.878 7 7 0 0 1 5.12-.891c14.235 3.003 21.52 5.566 21.856 7.688.335 2.116-5.74 6.927-18.223 14.433a7 7 0 0 1-5.395.77 263.081 263.081 0 0 1-6.815-1.89 256.72 256.72 0 0 1 5.576 4.612 7 7 0 0 1 2.43 4.594c1.543 14.466 1.357 22.187-.558 23.163-1.908.972-8.36-3.318-19.358-12.872a7 7 0 0 1-2.398-4.893 263.082 263.082 0 0 1-.309-7.065 256.72 256.72 0 0 1-2.663 6.728 7 7 0 0 1-3.619 3.731c-13.281 5.937-20.682 8.146-22.201 6.627-1.515-1.515.572-8.977 6.26-22.388a7 7 0 0 1 3.912-3.793c2.406-.934 4.614-1.76 6.624-2.477a256.72 256.72 0 0 1-7.222-.454 7 7 0 0 1-4.667-2.288C7.154 36.18 2.766 29.824 3.741 27.91c.973-1.909 8.715-2.23 23.227-.965a7 7 0 0 1 4.816 2.548c1.632 2 3.1 3.845 4.403 5.535a256.72 256.72 0 0 1-1.8-7.009Zm8.543 15.95c1.637.26 2.89-2.262 3.408-5.535.518-3.272.106-6.058-1.53-6.317-1.637-.259-2.89 2.262-3.409 5.535-.518 3.273-.105 6.058 1.531 6.317Zm3.325 3.326c.26 1.636 3.044 2.048 6.317 1.53s5.795-1.771 5.535-3.408c-.259-1.636-3.044-2.049-6.317-1.53-3.273.518-5.794 1.771-5.535 3.408Zm-2.135 4.19c-1.476.751-1.008 3.528.497 6.48 1.504 2.953 3.475 4.964 4.951 4.211 1.476-.752 1.008-3.528-.496-6.48-1.505-2.953-3.475-4.964-4.952-4.212Zm-4.644-.736c-1.172-1.172-3.667.131-6.01 2.475-2.344 2.343-3.647 4.838-2.475 6.01 1.171 1.172 3.667-.132 6.01-2.475s3.646-4.839 2.475-6.01Zm-.736-4.645c.752-1.476-1.258-3.447-4.21-4.951-2.953-1.505-5.73-1.973-6.482-.497-.752 1.477 1.259 3.447 4.211 4.952 2.953 1.504 5.73 1.973 6.481.496Z" fill="#FFF"/></g></svg>