<svg viewBox="0 0 90 90" xmlns="http://www.w3.org/2000/svg"><g fill="none" fill-rule="evenodd"><path fill="#FFF" d="M0 0h90v90H0z"/><g fill-rule="nonzero"><path d="M45 1c24.3 0 44 19.7 44 44S69.3 89 45 89 1 69.3 1 45 20.7 1 45 1" fill="#FFF"/><path d="M36.298 7.943a1.946 1.946 0 0 0-1.076 1.74v5.568a58.612 58.612 0 0 1 19.556 0V9.683c0-.737-.417-1.41-1.076-1.74a19.45 19.45 0 0 0-17.404 0m43.874 54.183C73.822 75.143 60.458 84.111 45 84.111c-16.492 0-30.6-10.208-36.35-24.65 2.931-2.598 6.375-4.683 11.905-4.683 7.334 0 11 3.667 14.667 7.333 3.667 3.667 7.333 7.334 14.667 7.334 6.11 0 10.389-1.834 14.666-3.667 4.278-1.833 8.556-3.667 14.667-3.667.323 0 .64.005.95.015" fill="#28AED4"/><path d="M45 35.222c-4.89 7.334 0 29.334 0 29.334s4.889-22 0-29.334M10.103 62.678a26.382 26.382 0 0 1 5.563-.567c6.112 0 10.39 1.833 14.667 3.667.538.23 1.075.46 1.616.687-2.337-7.82-5.925-17.76-10.765-25.387-.348-.548-.224-1.273.309-1.645 9.749-6.807 23.507-9.1 23.507-9.1s13.758 2.293 23.507 9.1c.533.372.657 1.097.309 1.645-4.05 6.38-7.222 14.38-9.52 21.403l.37-.37c3.667-3.667 7.334-7.333 14.667-7.333 3.3 0 5.857.742 8.007 1.894C77.376 72.57 62.535 84.112 45 84.112c-15.239 0-28.442-8.716-34.897-21.434" fill="#046"/><path d="M26.142 22.739c-.42.157-.698.558-.698 1.005v7.78c3.542-1.704 7.07-2.964 10.03-3.868a83.101 83.101 0 0 1 6.161-1.63 58.93 58.93 0 0 1 2.347-.478L45 25.377l.872.146.146.025a67.52 67.52 0 0 1 2.347.477c1.54.344 3.69.875 6.162 1.63 2.958.905 6.488 2.165 10.028 3.869v-7.78c0-.447-.278-.848-.696-1.005a53.71 53.71 0 0 0-37.717 0" fill="#046"/></g></g></svg>