<svg viewBox="0 0 90 90" xmlns="http://www.w3.org/2000/svg"><path d="M69.335 49.216 54.854 34.68a1.29 1.29 0 0 0-.963-.432c-.718 0-1.3.584-1.3 1.304v13.584h.012a2.561 2.561 0 0 0 2.547 2.352h13.317a1.301 1.301 0 0 0 .868-2.27ZM82.24 29.335h-4.06a2.563 2.563 0 0 0-2.559 2.568V48.92a2.563 2.563 0 0 0 2.559 2.568h4.059a2.564 2.564 0 0 0 2.559-2.568V31.903a2.564 2.564 0 0 0-2.56-2.568Zm-12.76 0H56.163a1.301 1.301 0 0 0-.87 2.27l14.483 14.538c.237.264.58.432.963.432.718 0 1.3-.584 1.3-1.304V31.686h-.012a2.562 2.562 0 0 0-2.549-2.351Zm-23.073 0H32.143a2.564 2.564 0 0 0-2.559 2.568V48.92a2.564 2.564 0 0 0 2.56 2.568h14.263c1.413 0 2.56-1.15 2.56-2.568V31.85h-.003a2.563 2.563 0 0 0-2.557-2.514Zm-30.383 0C9.936 29.335 5 34.289 5 40.401c0 6.112 4.936 11.066 11.024 11.066 6.088 0 11.024-4.954 11.024-11.066 0-6.112-4.936-11.066-11.024-11.066Z" fill="#00AEEF"/></svg>