<svg viewBox="0 0 90 90" xmlns="http://www.w3.org/2000/svg"><defs><linearGradient x1="49.996%" y1="1.431%" x2="49.996%" y2="96.981%" id="a"><stop stop-color="#FFE513" offset=".562%"/><stop stop-color="#FDB924" offset="100%"/></linearGradient><linearGradient x1="4.512%" y1="13.949%" x2="95.672%" y2="86.602%" id="b"><stop stop-color="#008CD2" offset=".562%"/><stop stop-color="#00649D" offset="100%"/></linearGradient><linearGradient x1="50.002%" y1="27.779%" x2="50.002%" y2="97.529%" id="c"><stop stop-color="#26A146" offset="0%"/><stop stop-color="#008A52" offset="100%"/></linearGradient><linearGradient x1="43.734%" y1="9.918%" x2="57.544%" y2="91.43%" id="d"><stop stop-color="#D92231" offset="0%"/><stop stop-color="#BA2234" offset="100%"/></linearGradient></defs><g fill="none"><path fill="#E79225" d="M87 37.177v19.89l-2.756 2.687V40.29z"/><path fill="#FFF16D" d="m68.937 37.193-2.855 3.097.148.196 17.899-.065.164-.131L87 37.177l-18.063.016z"/><path fill="url(#a)" d="M63.082 9.29h18.211v19.48H63.082z" transform="translate(3 31)"/><path d="M81.52 47.302a7.203 7.203 0 0 0-1.608-2.425c-.672-.688-1.427-1.212-2.28-1.556a7.075 7.075 0 0 0-2.723-.524c-.985 0-1.904.18-2.74.524-.853.344-1.608.868-2.28 1.556a7.157 7.157 0 0 0-1.592 2.425c-.361.901-.525 1.884-.525 2.966 0 1.048.18 2.031.541 2.949a7.29 7.29 0 0 0 1.592 2.458 6.668 6.668 0 0 0 2.247 1.523 7.266 7.266 0 0 0 2.773.525 6.963 6.963 0 0 0 4.987-2.048 7.434 7.434 0 0 0 1.608-2.442c.361-.9.542-1.9.542-2.949 0-1.098-.18-2.08-.542-2.982Zm-3.757 6.423c-.705.835-1.64 1.261-2.854 1.261-1.214 0-2.166-.426-2.872-1.261-.705-.836-1.05-1.999-1.05-3.474 0-1.507.361-2.67 1.05-3.522.706-.852 1.641-1.262 2.872-1.262 1.214 0 2.149.426 2.854 1.262.69.852 1.05 2.015 1.05 3.522 0 1.475-.344 2.638-1.05 3.474Z" fill="#FFF"/><path fill="#009ADA" d="M64.294 35.555v.098l2.33 17.875-1.362 3.769-.18-.131-2.396-17.138.05-.23 1.492-4.145.066-.098z"/><path fill="#91C9ED" d="m46.362 38.045 17.932-2.49-1.51 4.292-.213.23-16.767 2.457.082-3.063z"/><path fill="url(#b)" d="m17.62 4.424 2.478 17.449-17.67 2.474L.05 7.487l1.034-.802z" transform="translate(45.164 35.424)"/><path d="M59.782 43.19c-.082-.54-.262-.95-.558-1.229a1.315 1.315 0 0 0-.886-.328c-.082 0-.18 0-.279.017-.459.065-.804.278-1.017.622-.164.246-.23.557-.23.918 0 .13.017.278.033.426l.64 4.538-5.086.754-.64-4.539c-.082-.524-.262-.933-.557-1.212a1.243 1.243 0 0 0-.87-.344c-.082 0-.164 0-.246.016-.476.066-.837.279-1.066.623-.165.246-.23.557-.23.917 0 .132.016.279.033.443l1.739 11.813c.082.54.262.95.59 1.229.246.213.542.311.903.311.098 0 .197 0 .295-.016.443-.066.771-.279.984-.623.148-.246.214-.54.214-.885 0-.13-.017-.278-.033-.426l-.706-4.67 5.086-.753.706 4.67c.082.54.262.95.574 1.212.246.213.541.328.886.328.082 0 .18 0 .279-.017.46-.065.804-.278 1.017-.622.148-.246.23-.541.23-.901 0-.131-.017-.279-.033-.426L59.782 43.19Z" fill="#FFF"/><path fill="#66BF6B" d="m29.578 31-6.382 15.139.87 6.652.049-.016 7.17-16.106-.033-.344-1.543-5.112z"/><path fill="#98D0A0" d="m29.578 31 1.657 5.554.033.115 15.783 7.062.049-.033-1.345-5.309z"/><path fill="url(#c)" d="m8.055 5.554 15.865 7.144-7.17 16.236L.887 21.791z" transform="translate(23.18 31)"/><path d="M42.293 45.008c-.345-.917-.82-1.703-1.444-2.359a6.722 6.722 0 0 0-2.264-1.556 6.75 6.75 0 0 0-2.674-.557h-.05c-.918 0-1.82.213-2.706.606-.935.41-1.74.966-2.428 1.704-.69.72-1.247 1.605-1.674 2.621a8.762 8.762 0 0 0-.705 3.015v.344c0 .885.147 1.753.459 2.605a6.601 6.601 0 0 0 1.427 2.327 6.615 6.615 0 0 0 2.314 1.556 6.61 6.61 0 0 0 2.657.557h.017c.902 0 1.805-.196 2.69-.573a7.348 7.348 0 0 0 2.445-1.72 8.508 8.508 0 0 0 1.69-2.606 8.849 8.849 0 0 0 .705-3.014v-.295a7.073 7.073 0 0 0-.459-2.655Zm-3.166 4.72c-.591 1.408-1.395 2.375-2.363 2.9-.525.278-1.066.425-1.608.425-.476 0-.984-.115-1.493-.328-1.115-.475-1.804-1.228-2.1-2.31a4.272 4.272 0 0 1-.147-1.13c0-.787.197-1.655.59-2.589.607-1.442 1.411-2.425 2.38-2.965a3.24 3.24 0 0 1 1.607-.426c.492 0 .984.114 1.51.327 1.099.475 1.788 1.229 2.083 2.31.098.344.148.721.148 1.114 0 .82-.197 1.704-.607 2.671Z" fill="#FFF"/><path fill="#760D16" d="m21.933 33.572 2.592 17.335-1.181 6.095-.164-.213-2.527-16.745v-.328l1.116-5.849z"/><path fill="#EF463E" d="m3 42.534 1.23-6.127 17.703-2.835-1.198 6.243v.41L3.213 42.697z"/><path fill="url(#d)" d="m17.735 6.357 2.609 17.187L2.822 26.28 0 9.077z" transform="translate(3 33.458)"/><path d="M18.848 54.266c-.13-.164-.328-.279-.557-.36-.23-.083-.509-.116-.854-.116-.311 0-.672.033-1.066.099l-4.626.786c.049-.36.23-.82.54-1.393.345-.638.87-1.409 1.543-2.293.23-.312.41-.541.542-.705.082-.115.213-.262.377-.475 1.066-1.393 1.706-2.523 1.969-3.408.147-.508.23-1.016.262-1.524.017-.147.017-.278.017-.41 0-.36-.033-.72-.099-1.08a2.442 2.442 0 0 0-.246-.803c-.115-.213-.246-.377-.41-.476-.18-.114-.46-.163-.804-.163-.279 0-.623.032-1.034.098l-5.348.917c-.64.115-1.132.295-1.427.59-.247.23-.361.525-.361.852 0 .082 0 .18.016.279.082.459.312.786.69.95.229.098.491.148.82.148.213 0 .459-.017.721-.066l4.463-.786c0 .081.016.163.016.229 0 .278-.049.557-.147.82-.132.376-.46.9-1.001 1.572-.148.18-.378.475-.69.852-1.213 1.458-2.066 2.703-2.591 3.736a8.06 8.06 0 0 0-.772 2.113c-.082.41-.13.787-.13 1.163 0 .263.016.525.065.77.065.36.147.656.262.885.115.23.28.41.46.508.18.098.426.131.787.131.443 0 1.05-.065 1.821-.196l4.857-.836c.853-.147 1.46-.36 1.804-.639.28-.23.427-.54.427-.901 0-.098-.017-.197-.033-.295a1.085 1.085 0 0 0-.263-.573Z" fill="#FFF"/></g></svg>