<svg viewBox="0 0 90 90" xmlns="http://www.w3.org/2000/svg"><g fill="none" fill-rule="evenodd"><path fill="#C00" d="M0 0h90v90H0z"/><path d="M45 8C24.563 8 8 24.565 8 45c0 20.436 16.563 37 37 37s37-16.564 37-37C82 24.565 65.437 8 45 8Zm0 12.333c13.625 0 24.667 11.045 24.667 24.667 0 13.622-11.042 24.667-24.667 24.667-13.625 0-24.667-11.045-24.667-24.667 0-13.622 11.042-24.667 24.667-24.667Zm0 12.334c-6.812 0-12.333 5.522-12.333 12.333S38.187 57.333 45 57.333c6.812 0 12.333-5.521 12.333-12.333 0-6.81-5.52-12.333-12.333-12.333Zm30.47 40.627a2.16 2.16 0 0 0-2.176 2.177c0 1.26.994 2.176 2.176 2.176a2.16 2.16 0 0 0 2.177-2.176 2.17 2.17 0 0 0-2.177-2.177Zm0 .363c.973 0 1.742.782 1.742 1.814 0 1.047-.77 1.813-1.742 1.813-.986 0-1.74-.766-1.74-1.813 0-1.032.754-1.814 1.74-1.814Zm-.834.562v2.503h.381v-1.088h.435l.653 1.088h.418l-.708-1.106c.356-.05.653-.24.653-.69 0-.497-.29-.707-.87-.707h-.962Zm.381.327h.508c.261 0 .544.052.544.362 0 .385-.28.4-.598.4h-.454v-.762Z" fill="#FFF" fill-rule="nonzero"/></g></svg>