<svg viewBox="0 0 90 90" xmlns="http://www.w3.org/2000/svg"><g fill="none" fill-rule="evenodd"><path fill="#000" d="M0 0h90v90H0z"/><path d="m72.143 41.483 2.713-2.72c.098-.1.329-.331-.138-.813-.2-.207-.383-.313-.542-.314-.14 0-.233.074-.306.147l-2.719 2.727-2.714-2.74c-.22-.22-.476-.168-.807.163-.337.34-.392.601-.174.821l2.715 2.74-2.659 2.667-.019.019c-.064.063-.162.158-.163.313-.002.16.104.347.315.558.177.179.345.269.5.269.174 0 .286-.112.348-.175l2.67-2.678 2.728 2.739c.035.034.13.113.285.113h.006c.172-.002.354-.102.54-.298.306-.323.357-.591.152-.799l-2.73-2.739Zm-9.799-3.908c-2.01.153-3.584 1.926-3.584 4.037v6.674c0 .387.293.466.733.466s.733-.08.733-.466v-6.69c0-1.315.953-2.444 2.17-2.57a2.42 2.42 0 0 1 1.894.62 2.47 2.47 0 0 1 .807 1.83c0 .2-.098.851-.543 1.456-.337.457-.976 1.001-2.108 1.001h-.022c-.29 0-.538.014-.586.705-.032.464-.03.672.37.728.714.1 1.442-.04 2.163-.417 1.231-.642 2.056-1.86 2.153-3.178a3.898 3.898 0 0 0-4.18-4.197ZM20.73 41.998a5.235 5.235 0 0 0-3.989 1.06v-3.975h6.715c.233 0 .4-.042.4-.733 0-.674-.27-.701-.45-.701h-7.434c-.432 0-.66.35-.66.738v6.524c0 .342.216.458.618.538.352.07.557.03.71-.142l.017-.025c.708-1.024 2.25-2.017 3.714-1.837 1.749.215 3.157 1.614 3.35 3.328a3.762 3.762 0 0 1-.936 2.959 3.775 3.775 0 0 1-2.815 1.266c-1.588 0-2.976-1.024-3.554-2.51-.085-.22-.23-.383-.855-.155-.575.21-.609.452-.53.672a5.272 5.272 0 0 0 4.939 3.475 5.25 5.25 0 0 0 3.914-1.76 5.228 5.228 0 0 0 1.3-4.11 5.24 5.24 0 0 0-4.454-4.612ZM49.76 50.9c-3.244 0-5.883-2.647-5.883-5.9 0-3.255 2.64-5.902 5.882-5.902 3.243 0 5.882 2.647 5.882 5.901s-2.639 5.9-5.882 5.9Zm0-13.401c-4.123 0-7.477 3.365-7.477 7.5 0 4.136 3.354 7.5 7.476 7.5 4.123 0 7.476-3.364 7.476-7.5 0-4.135-3.353-7.5-7.476-7.5ZM33.58 50.9c-3.244 0-5.882-2.646-5.882-5.9 0-3.254 2.638-5.9 5.882-5.9 3.243 0 5.881 2.646 5.881 5.9 0 3.254-2.638 5.9-5.881 5.9ZM26.103 45c0 4.136 3.354 7.5 7.477 7.5 4.122 0 7.476-3.364 7.476-7.5 0-4.135-3.354-7.5-7.476-7.5-4.123 0-7.477 3.365-7.477 7.5Z" fill="#FFF" fill-rule="nonzero"/></g></svg>