<svg viewBox="0 0 90 90" xmlns="http://www.w3.org/2000/svg"><defs><linearGradient x1="59.332%" y1="38.684%" x2="100%" y2="58.999%" id="a"><stop stop-color="#FF4800" offset="0%"/><stop stop-color="#F4162C" offset="35.104%"/><stop stop-color="#E5174D" offset="59.785%"/><stop stop-color="#9110B5" offset="100%"/></linearGradient></defs><g fill="none" fill-rule="evenodd"><path fill="#10141F" d="M0 0h90v90H0z"/><path d="M14.88 25.996a.635.635 0 0 1-.288.848c-5.018 2.468-11.086.4-13.553-4.62A10.132 10.132 0 0 1 0 17.727V.003h4.454c.35 0 .634.285.634.635v6.367c0 .35.285.634.635.634h6.364c.35 0 .635.285.635.635v3.82c0 .35-.284.634-.635.634H5.725a.635.635 0 0 0-.635.635v4.365a5.035 5.035 0 0 0 7.057 4.654.634.634 0 0 1 .804.265l1.91 3.313.02.036Zm43.463-8.268c-.073 5.61-4.677 10.099-10.285 10.026-5.506-.07-9.952-4.518-10.023-10.026V0h4.425c.35 0 .635.284.635.635v7.257a.65.65 0 0 0 .912.58c5.114-2.309 11.13-.033 13.437 5.083.592 1.312.898 2.735.899 4.175v-.002Zm-5.077 0a5.077 5.077 0 1 0-5.076 5.078 5.077 5.077 0 0 0 5.076-5.078ZM34.825 7.638h-4.286v10.088c0 2.806-2.394 5.079-5.197 5.079s-5.153-2.275-5.153-5.079V8.273a.635.635 0 0 0-.634-.635h-4.286v10.088c0 5.578 4.52 10.1 10.095 10.1 5.576 0 10.095-4.522 10.095-10.1V8.273a.635.635 0 0 0-.634-.635ZM63.455 0a2.546 2.546 0 1 0 0 5.091 2.546 2.546 0 0 0 0-5.091Zm1.91 7.638H60.91v19.727c0 .35.284.635.634.635h3.821a.635.635 0 0 0 .635-.635V8.273a.635.635 0 0 0-.635-.635Z" transform="translate(12 30)" fill="url(#a)" fill-rule="nonzero"/></g></svg>