<svg viewBox="0 0 90 90" xmlns="http://www.w3.org/2000/svg"><g fill="none"><path d="M13.75 56.87c0 9.215 11.196 16.682 25 16.682s25-7.467 25-16.681c0-9.214-11.196-16.681-25-16.681s-25 7.467-25 16.68" fill="#FFF"/><path d="M38.607 73.259c-12.26 1.312-22.843-4.676-23.64-13.353-.796-8.69 8.5-16.783 20.749-18.095 12.258-1.312 22.842 4.675 23.628 13.353.807 8.689-8.489 16.793-20.737 18.095m24.507-28.835c-1.042-.341-1.757-.562-1.216-2.04 1.185-3.208 1.308-5.976.02-7.96-2.4-3.706-8.979-3.507-16.518-.1 0 0-2.37 1.114-1.757-.904 1.154-4.025.98-7.388-.817-9.34-4.087-4.421-14.966.166-24.293 10.233C11.556 41.844 7.5 49.838 7.5 56.752 7.5 69.962 23.201 78 38.556 78c20.135 0 33.527-12.625 33.527-22.648.01-6.065-4.72-9.505-8.969-10.928" fill="#E6162D"/><path d="M77.228 17.28c-5.076-5.653-12.563-7.805-19.474-6.328a2.968 2.968 0 0 0-2.271 3.522 2.951 2.951 0 0 0 3.508 2.28c4.917-1.048 10.239.483 13.843 4.497a14.637 14.637 0 0 1 3.04 14.282 2.969 2.969 0 0 0 1.909 3.737 2.955 2.955 0 0 0 3.722-1.906v-.01c2.175-6.735.8-14.432-4.277-20.075" fill="#F93"/><path d="M69.424 25.076a10.212 10.212 0 0 0-9.832-3.22c-1.427.303-2.334 1.74-2.035 3.187.31 1.447 1.714 2.368 3.13 2.053a5.017 5.017 0 0 1 4.811 1.571 5.178 5.178 0 0 1 1.05 5.016c-.442 1.403.31 2.918 1.704 3.378a2.639 2.639 0 0 0 3.33-1.728c1.094-3.445.408-7.373-2.158-10.257" fill="#F93"/><path d="M40.597 58.613c-.457.799-1.469 1.175-2.252.843-.783-.322-1.023-1.22-.577-1.995.457-.776 1.425-1.153 2.198-.843.783.288 1.066 1.186.63 1.995m-4.166 5.432c-1.262 2.05-3.97 2.948-6.005 2.006-2.001-.931-2.6-3.314-1.338-5.32 1.251-1.996 3.862-2.882 5.886-2.018 2.045.898 2.697 3.259 1.457 5.332m4.743-14.52c-6.211-1.652-13.228 1.507-15.926 7.082-2.752 5.686-.087 12.004 6.18 14.066 6.504 2.14 14.163-1.142 16.828-7.271 2.633-6.008-.653-12.182-7.082-13.878" fill="#000"/></g></svg>