<svg viewBox="0 0 90 90" xmlns="http://www.w3.org/2000/svg"><g fill="none" fill-rule="evenodd"><path fill="#181C1F" d="M0 0h90v90H0z"/><path d="M24.832 49.23a89.362 89.362 0 0 0-2.752 7.048 63.006 63.006 0 0 0-2.122 7.106c-.63 2.521-1.433 4.985-2.522 7.45a41.137 41.137 0 0 1-1.893 3.495c1.778.172 3.498.23 5.218.23 2.982-.058 5.963-.23 8.888-.803 2.924-.573 5.79-1.433 8.543-2.75 2.695-1.319 5.333-2.98 7.511-5.273-.63 1.49-1.605 2.808-2.637 4.069-1.032 1.26-2.294 2.35-3.612 3.324-2.695 1.89-5.734 3.38-8.888 4.298-1.548.458-3.21.86-4.816 1.088-1.663.287-3.269.401-4.931.459-3.269.114-6.537-.115-9.748-.573L7 77.825l2.638-3.095a33.013 33.013 0 0 0 4.07-5.788c1.147-2.063 2.122-4.355 3.04-6.647.974-2.35 2.121-4.756 3.44-6.934a63.035 63.035 0 0 1 2.179-3.209 23.773 23.773 0 0 1 2.465-2.922ZM83 10l-.115 2.464c-.057 1.089-1.261 26.532-14.564 38.28-1.261 1.089-2.465 2.12-3.612 3.037-.516 1.948-1.95 7.335-2.465 9.8-.287 1.432-1.09 2.692-2.294 3.495-.917.631-2.176 1.43-3.426 2.201l-.468.288c-.467.286-.926.564-1.36.826l-.424.255c-1.314.787-2.31 1.367-2.407 1.415l-6.078 3.553 2.81-6.418c1.261-2.808 2.122-6.762 1.433-7.908 0-.057-.057-.115-.344-.172a13.089 13.089 0 0 1-5.39-1.318c-1.433 1.72-3.554 2.75-5.79 2.636h-7.913v-7.908a6.879 6.879 0 0 1 2.637-5.788c-.86-1.776-1.319-3.553-1.319-5.386-.044-.268-.089-.327-.133-.367l-.038-.035c-1.147-.687-5.104.172-7.913 1.433l-6.48 2.808 3.555-6.074c.046-.092.57-.99 1.294-2.2l.249-.415c.255-.425.53-.878.813-1.34l.286-.467c.816-1.326 1.675-2.684 2.347-3.658.86-1.204 2.064-2.006 3.497-2.293 2.466-.458 7.856-1.948 9.805-2.464a127.6 127.6 0 0 1 3.04-3.61c4.93-5.673 12.958-9.856 23.68-12.378 7.913-1.89 14.278-2.177 14.564-2.177L83 10ZM58.803 58.022a23.726 23.726 0 0 1-4.358 2.178c.46 1.49.402 3.209.115 4.87a60.009 60.009 0 0 0 2.752-1.776 1.09 1.09 0 0 0 .402-.63c.23-1.204.688-2.923 1.09-4.642Zm-9.518-14.269-2.408.573a3.759 3.759 0 0 0-1.663.803l-9.117 7.22a2.253 2.253 0 0 0-.917 2.006v.802l7.454-4.814-4.76 7.45h.746c.745.057 1.548-.287 2.007-.917l7.282-9.054c.401-.458.63-1.032.803-1.662l.573-2.407Zm28.783-28.881c-6.536.63-23.966 3.209-32.395 12.779-6.996 7.908-9.117 12.32-9.174 15.415v.114c0 .974.172 1.777.458 2.579l5.39-4.24c.975-.803 2.179-1.376 3.44-1.662l9.633-2.293-2.293 9.628a9.704 9.704 0 0 1-1.72 3.438l-4.244 5.386a7.384 7.384 0 0 0 2.58.459h.115c3.154-.115 7.512-2.178 15.424-9.169 9.575-8.425 12.156-25.844 12.786-32.434ZM35.065 34.126c-1.777.401-3.555.86-4.702 1.089-.286.057-.516.172-.63.4a60.131 60.131 0 0 0-1.778 2.752c1.663-.287 3.383-.344 4.874.114a20.994 20.994 0 0 1 2.236-4.355ZM63.621 21.29c2.179 0 4.185.802 5.734 2.35a8.055 8.055 0 0 1 0 11.403c-1.606 1.548-3.67 2.35-5.734 2.35-2.122 0-4.186-.802-5.734-2.35a8.056 8.056 0 0 1 0-11.403c1.548-1.49 3.555-2.35 5.734-2.35Zm-.058 4.527c-.917 0-1.777.344-2.465 1.032-1.319 1.375-1.319 3.61 0 4.928a3.463 3.463 0 0 0 4.93 0 3.457 3.457 0 0 0 0-4.928c-.63-.688-1.547-1.032-2.465-1.032Z" fill="#00EF57" fill-rule="nonzero"/></g></svg>