<svg viewBox="0 0 90 90" xmlns="http://www.w3.org/2000/svg"><g fill="none"><g fill="#FFF"><path d="M71.615 10.33S59.387 17.4 44.84 10c-14.633 7.382-26.864.312-26.864.312C-12.601 62.607 44.75 79.707 44.75 79.707c.089.016 57.443-17.083 26.864-69.378Z"/><path d="m15.391.549-3.595 6.15C2.31 22.921-.241 37.63 3.464 50.588c3.012 10.534 9.857 19.065 19.225 25.818 4.351 3.137 8.974 5.688 13.598 7.717a70.3 70.3 0 0 0 4.511 1.805l.716.251.595.2.469.15.516.154.4.071c1.207.216 3.135-.12 5.495-.893l.654-.222.675-.242c.342-.127.69-.261 1.046-.403l.72-.293.734-.312.749-.33.762-.35.774-.367.391-.19.79-.392.397-.203.801-.417c.135-.07.27-.142.404-.214l.81-.44.816-.455.82-.469.82-.483.822-.496c.274-.168.548-.337.821-.509l.82-.521.816-.533.812-.544a79 79 0 0 0 .806-.554l.8-.565.396-.286.787-.579.39-.293.77-.591c2.04-1.59 3.95-3.264 5.62-4.98 15.405-15.817 17.986-37.257 2.983-62.913L74.2.566l-6.183 3.573-.361.174c-.531.246-1.17.503-1.906.748-5.38 1.794-11.41 1.738-17.663-1.442l-3.233-1.644-3.237 1.633C35.31 6.789 29.247 6.842 23.85 5.045a18.341 18.341 0 0 1-1.913-.75l-.377-.181L15.39.549ZM46.1 71.869l-.25.172-.1.075c-.116.095-.211.203-.197.306l-.656-.242.951-.284.213-.055.048-.007c.016 0 .02.005.014.013l-.023.022Zm-1.27-54.013.447.178c7.872 3.074 15.605 3.183 22.672 1.308l.343-.095.27.56c8.193 17.09 5.808 29.755-4.006 39.833-3.978 4.084-8.979 7.48-14.43 10.165l-.641.31a60.56 60.56 0 0 1-4.246 1.842l-.466.177-.401-.154c-.73-.285-1.51-.606-2.328-.966-3.756-1.649-7.512-3.721-10.981-6.222-6.961-5.018-11.806-11.057-13.832-18.14l-.113-.408c-2.02-7.501-.955-16.258 3.967-26.55l.223-.462.35.095c7.07 1.874 14.816 1.77 22.713-1.29l.459-.181Z"/></g><path d="M71.742 10.337s-12.286 6.835-26.902-.318L44.75 10c-14.612 7.156-26.901.318-26.901.318C12.299 19.455 9.644 27.475 9 34.492h71.59c-.645-7.014-3.302-15.026-8.848-24.155Z" fill="#3C72B9"/><path d="M80.575 38.255H9.015c-.838 30.653 35.737 41.428 35.737 41.428l.088.02S81.43 68.92 80.578 38.255h-.003Z" fill="#57BD5C"/><path d="M27.098 30.11c-.448.222-1.455.475-2.768.475-3.723 0-5.641-2.31-5.641-5.346 0-3.638 2.621-5.662 5.881-5.662 1.265 0 2.224.253 2.657.474l-.496 1.914a5.333 5.333 0 0 0-2.048-.396c-1.934 0-3.436 1.155-3.436 3.527 0 2.135 1.277 3.48 3.452 3.48.735 0 1.55-.16 2.03-.347l.37 1.88Zm2.791-10.358h2.446v8.636h4.283v2.023h-6.73zm10.846 5.368c0 2.092.988 3.567 2.614 3.567 1.64 0 2.58-1.554 2.58-3.629 0-1.919-.922-3.567-2.596-3.567-1.641 0-2.598 1.553-2.598 3.627v.002Zm7.786-.15c0 3.496-2.143 5.615-5.293 5.615-3.197 0-5.067-2.388-5.067-5.425 0-3.195 2.062-5.583 5.244-5.583 3.31 0 5.116 2.45 5.116 5.393Zm5.229-5.218v6.136c0 1.835.7 2.769 1.948 2.769 1.28 0 1.984-.887 1.984-2.769v-6.136h2.43v5.977c0 3.29-1.68 4.857-4.494 4.857-2.717 0-4.316-1.487-4.316-4.887v-5.947h2.447Zm12.104 8.857c.209.048.544.048.848.048 2.207.016 3.645-1.19 3.645-3.742.016-2.22-1.295-3.392-3.389-3.392-.544 0-.895.048-1.104.095v6.99Zm-2.445-8.715c.894-.143 2.062-.221 3.293-.221 2.046 0 3.373.364 4.412 1.139 1.12.822 1.823 2.135 1.823 4.017 0 2.04-.75 3.447-1.79 4.318-1.136.932-2.862 1.374-4.971 1.374-1.265 0-2.16-.08-2.767-.157v-10.47ZM35.781 62.2c1.973 0 3.24-1.765 3.24-4.142 0-2.163-1.192-4.036-3.612-4.036-1.527 0-2.792.9-3.35 2.09-.148.287-.223.721-.223 1.369.111 2.486 1.34 4.72 3.909 4.72h.036Zm6.329-15.887c-.632 0-1.301 0-2.195.071-5.028.398-7.261 2.883-7.893 5.62h.111c1.19-1.19 2.867-1.873 5.139-1.873 4.057 0 7.482 2.774 7.482 7.638 0 4.648-3.686 8.466-8.936 8.466-6.44 0-9.604-4.647-9.604-10.23 0-4.396 1.675-8.071 4.28-10.415 2.42-2.125 5.548-3.277 9.346-3.457a16.66 16.66 0 0 1 2.27-.036v4.216ZM56.447 62.2c1.973 0 3.24-1.765 3.24-4.142 0-2.163-1.192-4.036-3.612-4.036-1.527 0-2.792.9-3.35 2.09-.148.287-.223.721-.223 1.369.111 2.486 1.34 4.72 3.909 4.72h.036Zm6.329-15.887c-.632 0-1.301 0-2.196.071-5.027.398-7.26 2.883-7.892 5.62h.111c1.19-1.19 2.867-1.873 5.139-1.873 4.057 0 7.48 2.774 7.48 7.638 0 4.648-3.684 8.466-8.933 8.466-6.441 0-9.605-4.647-9.605-10.23 0-4.396 1.675-8.071 4.28-10.415 2.42-2.125 5.548-3.277 9.346-3.457a16.66 16.66 0 0 1 2.27-.036v4.216Z" fill="#FFF"/></g></svg>