<svg viewBox="0 0 90 90" xmlns="http://www.w3.org/2000/svg"><g fill="none" fill-rule="evenodd"><path fill="#FFE200" fill-rule="nonzero" d="M0 0h90v90H0z"/><path d="M75.231 54.319c1.007 0 2.582 1.137 2.582 3.937 0 2.757-1.138 5.906-1.4 6.606-4.157 9.932-14 15.488-25.725 15.138a26.6 26.6 0 0 1-24.326-15.575c-2.45 0-4.987-1.094-6.956-2.844a10.325 10.325 0 0 1-3.5-6.562 11.375 11.375 0 0 1 .613-5.25L14.244 47.8c-10.5-8.881 22.312-45.5 32.812-36.313l3.544 3.5 1.969-.83c9.187-3.807 16.625-1.97 16.625 4.112.043 3.194-1.969 6.912-5.207 10.281 1.182 1.05 2.1 2.756 2.625 4.725.438 1.444.57 2.888.613 3.85l.131 4.375 1.313.35c2.45.7 4.2 1.619 5.031 2.538.875.875 1.313 1.75 1.444 2.8.175.83.131 2.274-.963 3.937 0 0 .306.612.569 1.487l.481 1.707Zm.175 4.9c.263-1.663-.131-2.319-.612-2.625-.525-.35-1.181-.219-1.181-.219s-.263-1.969-1.094-3.806c-2.407 1.925-5.513 3.281-7.875 3.937a31.938 31.938 0 0 1-10.632 1.181c-2.275-.174-3.806-.874-4.374 1.007 5.25 1.925 10.806 1.093 10.806 1.093.087 0 .218.088.218.175a.24.24 0 0 1-.13.22s-4.244 2.012-11.026-.132c.175 1.619 1.75 2.319 2.45 2.625.963.35 1.969.525 1.969.525 8.4 1.444 16.231-3.369 17.981-4.594.131-.087.219 0 .131.175-.053.09-.111.178-.175.263-2.187 2.8-7.962 6.037-15.53 6.037-3.282 0-6.563-1.181-7.788-2.975-1.881-2.8-.088-6.825 3.062-6.431l1.313.175c3.937.438 9.625-.131 14.262-2.319 4.244-1.968 5.863-4.156 5.644-5.95a2.537 2.537 0 0 0-.744-1.444 9.187 9.187 0 0 0-4.025-1.925l-1.662-.437c-.875-.306-1.313-.569-1.4-2.188l-.219-4.375c-.088-1.793-.306-4.287-1.838-5.337a2.625 2.625 0 0 0-1.312-.438c-.481 0-.7.088-.831.088-.875.131-1.4.613-2.056 1.181-1.925 1.619-3.544 1.881-5.382 1.75-1.05 0-2.187-.175-3.5-.262h-.787c-3.063-.175-6.3 2.45-6.869 6.212-.744 5.206 3.019 7.875 4.112 9.45.132.219.307.438.307.744s-.219.525-.438.744a13.388 13.388 0 0 0-2.319 14.044c2.713 6.43 11.244 9.45 19.513 6.693a20.387 20.387 0 0 0 8.006-4.944c2.188-2.318 3.5-4.812 4.025-7.918ZM61.581 43.075c-.394-.481-.7-1.313-.875-2.231-.394-1.663-.35-2.888.613-3.063.962-.131 1.444.875 1.75 2.538.262 1.137.218 2.187 0 2.756H61.58Zm-8.312 1.313a5.644 5.644 0 0 0-2.669-.57c-1.531.088-2.888.788-3.238.745-.175 0-.262-.088-.262-.22-.087-.262.35-.743.831-1.093 1.4-1.006 3.238-1.225 4.769-.569.744.306 1.444.875 1.75 1.444.175.263.219.481.131.612-.175.175-.612 0-1.312-.35Zm-1.4.787c1.269-.131 2.187.438 2.362.788.131.175.088.262.044.306-.087.131-.306.131-.744.087a5.687 5.687 0 0 0-2.931.306s-.438.175-.656.175a.219.219 0 0 1-.219-.218c0-.219.175-.438.438-.7a3.237 3.237 0 0 1 1.75-.744h-.044Zm6.912 2.975c-.612-.306-.919-.919-.7-1.4.219-.438.875-.569 1.488-.263.612.307.962.92.743 1.357-.218.437-.874.569-1.53.306Zm3.938-3.5c.525 0 .875.613.875 1.313 0 .656-.438 1.18-.875 1.18-.525 0-.919-.568-.875-1.224 0-.7.393-1.269.875-1.269Zm-25.9-14.962c-.088.13.043.262.175.175a26.425 26.425 0 0 1 20.868-4.157c.132 0 .22-.218.088-.306a14.875 14.875 0 0 0-6.344-1.662c-.087 0-.175-.088-.087-.175.306-.438.787-.875 1.181-1.226.087-.043 0-.218-.088-.218-2.712.175-5.818 1.487-7.612 2.712-.087.088-.175 0-.175-.131.131-.656.569-1.531.831-1.969 0-.087-.087-.219-.175-.131-2.843 1.444-6.081 4.069-8.662 7.087ZM23.3 44.038A46.594 46.594 0 0 1 38 23.344C42.9 19.23 48.194 16.3 48.194 16.3s-2.888-3.325-3.763-3.588c-5.293-1.443-16.756 6.52-24.062 16.976-2.975 4.243-7.219 11.812-5.163 15.618.219.482 1.663 1.75 2.407 2.363a9.023 9.023 0 0 1 5.687-3.631Zm3.938 17.718c3.85-.656 4.856-4.812 4.243-8.968-.744-4.638-3.85-6.257-5.95-6.388-.612 0-1.137 0-1.618.131-3.763.788-5.907 3.982-5.47 8.181.35 3.807 4.2 7 7.744 7.132.35 0 .744 0 1.094-.088h-.043Zm1.487-4.812c.175 0 .394-.044.525.087 0 .044.087.175 0 .394-.131.306-.656.744-1.488.744-.787-.088-1.75-.656-1.837-2.188-.044-.7.219-1.619.394-2.1a1.969 1.969 0 0 0-2.275-2.625 1.969 1.969 0 0 0-1.225.875c-.233.381-.41.794-.525 1.225-.175.438-.438.613-.657.569-.087 0-.175-.087-.262-.262-.219-.613-.044-2.275 1.05-3.5a3.325 3.325 0 0 1 2.844-1.007c1.137.132 2.056.788 2.625 1.882.744 1.443.044 2.93-.35 3.85l-.088.262c-.262.613-.262 1.094-.043 1.444.174.306.437.437.875.437l.437-.044v-.043Z" fill="#000"/></g></svg>