<svg viewBox="0 0 90 90" xmlns="http://www.w3.org/2000/svg"><defs><linearGradient x1="74.843%" y1="36.496%" x2="6.549%" y2="90.482%" id="a"><stop stop-color="#A03AB1" offset="0%"/><stop stop-color="#7170CB" offset="100%"/></linearGradient></defs><path d="m78 68-48.5 7.5-9-7.5H78ZM43.919 17c8.643 0 15.674 7.152 15.674 15.936 0 5.693-3.08 10.967-7.873 13.697l5.644 7.983.451.639L64 64H53.175l-.474-.666-.22-.309-3.887-5.467-.453-.636c-2.725-3.83-5.58-7.84-5.777-8.107h-4.536V64H29V17Zm.201 8H38v14h6.12c3.798 0 6.88-3.126 6.88-6.964C51 28.155 47.918 25 44.12 25Z" fill="url(#a)"/></svg>