<svg viewBox="0 0 90 90" xmlns="http://www.w3.org/2000/svg"><g fill="none" fill-rule="evenodd"><path d="M27.32 5.001h35.36l.903.008.858.016.814.023.392.015.752.035.362.02.695.048.334.026.642.058.61.066c.197.023.39.048.578.074l.55.08.263.044.51.092.485.1c.08.017.157.035.234.053l.453.11c.148.038.292.078.434.118l.416.126.4.133c.132.045.261.092.388.14l.376.147.367.154.359.161.353.169.35.175.347.183a16.154 16.154 0 0 1 6.72 6.72l.183.348.175.35.169.352.161.36.154.366.148.376.07.192.137.394.065.202.126.416c.04.142.08.286.118.434l.11.453.053.234.1.485.092.51c.015.087.03.175.043.264l.081.55.038.285.07.593.032.309.058.642.05.677c.009.116.016.233.023.352l.04.733.016.381.028.794.02.836.011.88.004.927-.001 34.89-.008.903-.016.858-.023.814-.015.392-.035.752-.02.362-.048.695-.026.334-.058.642-.066.61c-.023.197-.048.39-.074.578l-.08.55-.044.263-.092.51-.1.485c-.017.08-.035.157-.053.234l-.11.453c-.038.148-.078.292-.118.434l-.126.416-.133.4a12.55 12.55 0 0 1-.14.388l-.147.376-.154.367-.161.359-.169.353-.175.35-.183.347a16.154 16.154 0 0 1-6.72 6.72l-.348.183-.35.175-.352.169-.36.161-.366.154-.376.148-.192.07-.394.137a15.74 15.74 0 0 1-.202.065l-.416.126c-.142.04-.286.08-.434.118l-.453.11-.234.053-.485.1-.51.092c-.087.015-.175.03-.264.043l-.55.081-.285.038-.593.07-.309.032-.642.058-.677.05c-.116.009-.233.016-.352.023l-.733.04-.381.016-.794.028-.836.02-.88.011-.927.004-34.89-.001-.903-.008-.858-.016-.814-.023-.392-.015-.752-.035a53.153 53.153 0 0 1-.362-.02l-.695-.048a43.147 43.147 0 0 1-.334-.026l-.642-.058-.61-.066a27.48 27.48 0 0 1-.578-.074l-.55-.08-.263-.044-.51-.092-.485-.1a19.264 19.264 0 0 1-.234-.053l-.453-.11a17.008 17.008 0 0 1-.434-.118l-.416-.126-.4-.133a12.55 12.55 0 0 1-.388-.14l-.376-.147-.367-.154-.359-.161-.353-.169-.35-.175-.347-.183a16.154 16.154 0 0 1-6.72-6.72l-.183-.348-.175-.35-.169-.352-.161-.36-.154-.366-.148-.376a15.413 15.413 0 0 1-.07-.192l-.137-.394a15.74 15.74 0 0 1-.065-.202l-.126-.416c-.04-.142-.08-.286-.118-.434l-.11-.453a19.266 19.266 0 0 1-.053-.234l-.1-.485-.092-.51a10.39 10.39 0 0 1-.043-.264l-.081-.55a29.234 29.234 0 0 1-.038-.285l-.07-.593a35.31 35.31 0 0 1-.032-.309l-.058-.642-.05-.677a49.541 49.541 0 0 1-.023-.352l-.04-.733a61.286 61.286 0 0 1-.016-.381l-.028-.794-.02-.836-.011-.88c-.001-.15-.003-.303-.003-.458V27.321l.008-.904.016-.858.023-.814.015-.392.035-.752.02-.362.048-.695.026-.334.058-.642.066-.61c.023-.197.048-.39.074-.578l.08-.55.044-.263.092-.51.1-.485c.017-.08.035-.157.053-.234l.11-.453c.038-.148.078-.292.118-.434l.126-.416.133-.4c.045-.132.092-.261.14-.388l.147-.376.154-.367.161-.359.169-.353.175-.35.183-.347a16.154 16.154 0 0 1 6.72-6.72l.348-.183.35-.175.352-.169.36-.161.366-.154.376-.148.192-.07.394-.137.202-.065.416-.126c.142-.04.286-.08.434-.118l.453-.11.234-.053.485-.1.51-.092c.087-.015.175-.03.264-.043l.55-.081.285-.038.593-.07.309-.032.642-.058.677-.05c.116-.009.233-.016.352-.023l.733-.04.381-.016.794-.028.836-.02.88-.011c.15-.001.303-.003.458-.003Z" fill="#FFF"/><path fill="#313E48" fill-rule="nonzero" d="M30 67h30v-9H41v-9h16v-9H41v-8h19v-9H30z"/><path d="m87.329 10.232.19.362.184.364.176.367.17.372.163.379.157.387c.076.196.15.396.221.6l.14.417.131.43.125.448c.04.152.08.307.118.465l.11.485.053.25.1.518.047.268.09.555.041.287.079.595.036.31.068.64.06.672.052.705.045.742.038.778.03.818.023.858.015.9.008.945v39.702l-.008.944-.015.901-.023.858-.03.818-.038.778-.045.742-.052.705-.06.673-.068.64-.074.61c-.027.198-.054.392-.082.581l-.09.555c-.015.09-.03.18-.047.268l-.1.518-.053.25-.11.485-.058.235-.122.456c-.02.074-.042.148-.063.221l-.132.431-.139.416c-.047.137-.096.271-.146.403l-.153.393-.079.192-.163.38-.17.371-.176.367-.184.364-.19.362a18.373 18.373 0 0 1-3.212 4.35l-8.338-8.34a10.964 10.964 0 0 0 3.217-7.49L79 68V22c0-3.037-1.231-5.787-3.221-7.778l8.34-8.338a18.373 18.373 0 0 1 3.21 4.348Z" fill="#2ECB70"/><path d="m75.779 75.778 8.338 8.34a18.373 18.373 0 0 1-4.349 3.21l-.362.191-.364.184-.367.176-.372.17-.379.163-.387.157c-.196.076-.396.15-.6.221l-.417.14-.43.131-.448.125c-.152.04-.307.08-.465.118l-.485.11-.25.053-.518.1-.268.047-.555.09-.287.041-.595.079-.31.036-.64.068-.672.06-.705.052-.742.045-.778.038-.818.03-.858.023-.9.015-.945.008H25.149l-.944-.008-.901-.015-.858-.023-.818-.03-.778-.038-.742-.045-.705-.052-.673-.06-.64-.068-.61-.074a31.221 31.221 0 0 1-.581-.082l-.555-.09c-.09-.015-.18-.03-.268-.047l-.518-.1a22.743 22.743 0 0 1-.25-.053l-.485-.11-.235-.058-.456-.122a18.64 18.64 0 0 1-.221-.063l-.431-.132-.416-.139a17.35 17.35 0 0 1-.403-.146l-.393-.153a17.748 17.748 0 0 1-.192-.079l-.38-.163-.371-.17-.367-.176-.364-.184-.362-.19a18.373 18.373 0 0 1-4.348-3.21l8.338-8.34a10.964 10.964 0 0 0 7.49 3.217L22 79h46c3.038 0 5.788-1.231 7.779-3.222Z" fill="#2EAAE2"/><path d="M79.768 2.671a18.373 18.373 0 0 1 4.35 3.213l-8.34 8.338a10.964 10.964 0 0 0-7.49-3.218L68 11H22c-5.979 0-10.843 4.77-10.996 10.712L11 22v46c0 3.038 1.231 5.788 3.222 7.779l-8.338 8.34a18.373 18.373 0 0 1-3.213-4.35l-.194-.37-.186-.37-.18-.375-.173-.38-.166-.387-.158-.395-.152-.407a17.39 17.39 0 0 1-.073-.208l-.14-.426-.133-.442a19.34 19.34 0 0 1-.186-.696l-.115-.488-.108-.51a24.866 24.866 0 0 1-.1-.535l-.092-.56-.085-.586-.04-.305-.074-.631a39.73 39.73 0 0 1-.034-.328l-.062-.68c-.01-.116-.02-.234-.028-.353l-.05-.733a58.396 58.396 0 0 1-.023-.38l-.04-.791a71.45 71.45 0 0 1-.016-.41l-.028-.852-.02-.894-.011-.94c-.001-.16-.003-.322-.003-.486V25.149l.008-.944.015-.901.023-.858.03-.818.038-.778.045-.742.052-.705.06-.673.068-.64.074-.61c.027-.198.054-.392.082-.581l.09-.555c.015-.09.03-.18.047-.268l.1-.518.053-.25.11-.485.058-.235.122-.456c.02-.074.042-.148.063-.221l.132-.431.139-.416c.047-.137.096-.271.146-.403l.153-.393.079-.192.163-.38.17-.371.176-.367.184-.364.19-.362a18.173 18.173 0 0 1 7.56-7.56l.37-.195.37-.186.375-.18.38-.173.387-.166.395-.158.407-.152.208-.073.426-.14.442-.133c.225-.065.457-.127.696-.186l.488-.115.51-.108c.174-.034.352-.068.535-.1l.56-.092.586-.085.305-.04.631-.074.328-.034.68-.062c.116-.01.234-.02.353-.028l.733-.05c.126-.009.252-.016.38-.023l.791-.04.41-.016.852-.028.894-.02.94-.011c.16-.001.322-.003.486-.003h39.702l.944.008.901.015.858.023.818.03.778.038.742.045.705.052.673.06.64.068.61.074c.198.027.392.054.581.082l.555.09c.09.015.18.03.268.047l.518.1.25.053.485.11.235.058.456.122c.074.02.148.042.221.063l.431.132.416.139c.137.047.271.096.403.146l.393.153.192.079.38.163.371.17.367.176.364.184.362.19Z" fill="#FFC600"/></g></svg>