<svg viewBox="0 0 90 90" xmlns="http://www.w3.org/2000/svg"><g fill="none" fill-rule="evenodd"><path fill="#FFF" d="M0 0h90v90H0z"/><g fill-rule="nonzero"><path d="M56.348 1.443c-4.423-1.269-8.147 1.584-9.383 6.075-1.232 4.49.49 8.912 4.914 10.182 4.42 1.276 32.453 11.215 33.455 43.72a45.445 45.445 0 0 0 1.47-4.445C93.389 33.037 79.75 8.177 56.349 1.443Z" fill="#4BAB48"/><path d="M76.914 64.413c-3.135-3.384-7.73-4.145-11.068-.91-3.341 3.23-26.065 22.735-53.86 6.936a45.783 45.783 0 0 0 2.975 3.57c16.71 18.06 44.57 18.85 62.23 1.76 3.342-3.235 2.853-7.968-.277-11.356Z" fill="#ED1C24"/><path d="M19.133 52.549c-.999-4.586-5.712-34.545 21.804-50.842-1.502.18-3.01.435-4.52.784-23.731 5.404-38.685 29.46-33.4 53.73 1.002 4.587 5.223 6.594 9.672 5.58 4.45-1.014 7.44-4.662 6.444-9.252Z" fill="#FEDE0D"/><path d="M38.742 27.25c3.719-2.61 8.684-2.108 12.447.11-.073.311-.226.932-.306 1.243.853.31 2.07.31 2.56 1.264 2.034 2.995 2.471 6.745 2.588 10.294 2.45 2.958 4.062 6.545 4.105 10.457-1.356-.496-2.661-1.834-4.127-1.576-.868 1.095-1.495 2.353-2.224 3.535 1.976.333 3.682 1.768 3.223 3.979-4.09 1.87-9.392 2.359-12.994-.799-3.522 2.596-8.138 2.566-11.952.636-.204-1.878.73-3.188 2.465-3.802a23.923 23.923 0 0 1-2.764-4.17c-1.246.613-2.486 1.242-3.74 1.856.445-3.942 2.195-7.64 5.053-10.36.146-4.49 1.05-9.385 4.681-12.372 4.004.613 8.094-.274 12.12.48.029-.17.08-.503.109-.673-1.83-.702-3.719-1.464-5.702-1.464-1.903.193-3.69.94-5.542 1.362Z" fill="#2789B7"/><path d="M29 48.229c.525-3.158 2.348-5.864 4.893-7.713-.03 3.306-1.451 6.818-4.893 7.713Zm26.017-7.025c2.1 1.723 4.15 4.163 3.559 7.114-2.188-1.738-3.515-4.267-3.559-7.114Z" fill="#FFFFFE"/></g></g></svg>