<svg viewBox="0 0 90 90" xmlns="http://www.w3.org/2000/svg"><g fill="none" fill-rule="evenodd"><path d="M89.12 39.949a10.102 10.102 0 0 0-1.927-2.75 4.357 4.357 0 0 0-.51-.425 4.61 4.61 0 0 0-.424-.293h-.03l-.039-.022a5.148 5.148 0 0 0-.488-.234h-.043a3.586 3.586 0 0 0-1.316-.25h-.187a3.582 3.582 0 0 0-1.418.391c-.52.277-.998.627-1.418 1.04h-.026l-.025.027a.329.329 0 0 1-.056.05l-.08.077c-.289.271-.578.565-.913.909l-.238.248c-.3.301-.6.605-.896.912.093-1.606.192-3.25.272-4.882 0-.208.021-.425.038-.63.06-.713.074-1.43.043-2.145v-.175c-.043-.815-.11-2.044-.923-3.097-.597-.783-1.787-1.7-4.054-1.7-.513.003-1.025.042-1.533.115-.834.118-1.656.308-2.459.565-2.522.83-3.978 2.124-4.344 3.884-.267 1.304.213 2.44.527 3.19l.068.163c.284.659.612 1.297.98 1.912l.307.549a347.331 347.331 0 0 0 2.374 4.249l-1.216-.425-.31-.11a30.83 30.83 0 0 0-1.218-.426l-.101-.03-.073-.02h-.068a6.028 6.028 0 0 0-1.733-.31h-.093a3.445 3.445 0 0 0-1.355.271c-.474.2-.9.5-1.249.88a6.438 6.438 0 0 0-.33.425l-.025.034-.026.038c-.215.327-.39.678-.522 1.045v.026a10.032 10.032 0 0 0-.532 3.301c-1.082-4.249-4.632-7.39-8.82-7.39a8.594 8.594 0 0 0-4.322 1.183 4.274 4.274 0 0 0-5.325-.158v-2.235a4.349 4.349 0 0 0-4.29-4.25 4.307 4.307 0 0 0-4.29 4.318v4.645a4.875 4.875 0 0 0-.343-.405 10.165 10.165 0 0 0-4.506-2.74 9.725 9.725 0 0 0-5.287.004h-.046a9.217 9.217 0 0 0-3.762 2.005 4.183 4.183 0 0 0-3.797-2.387c-.403 0-.803.058-1.189.173-2.123.642-2.973 2.708-3.49 3.94-.048.114-.09.221-.136.323-.128.306-.25.578-.348.795-.1.21-.19.425-.273.642-.06.165-.11.28-.169.424-.354-.72-.712-1.438-1.074-2.154l-.214-.45c-.535-1.15-1.337-2.873-3.332-3.477a4.195 4.195 0 0 0-5.096 2.393c-.965 2.282.233 4.295.874 5.375a57.62 57.62 0 0 1 1.602 2.835c.236.424.326.604.848 1.618l.077.14.663 1.276c.157.293.33.628.534 1.02.217.425.464.883.735 1.393-.046.064-.093.132-.149.196l-.038.046-.06-.029a5.557 5.557 0 0 0-1.336-.476 4.437 4.437 0 0 0-.999-.115 4.186 4.186 0 0 0-3.627 2.094 4.137 4.137 0 0 0 .056 4.204C1.875 63.226 4.47 64 6.488 64a7.411 7.411 0 0 0 1.592-.166c4.532-.985 6.493-5.354 7.925-8.545l.288-.642c.295-.677.602-1.349.921-2.015l.285-.625c.29.93.714 1.813 1.26 2.619.338.502.715.976 1.13 1.415.422.432.882.825 1.372 1.177a9.586 9.586 0 0 0 1.576.888 8.423 8.423 0 0 0 1.758.595c.371.092.75.161 1.13.208.349.037.697.053 1.049.047h.309a10.94 10.94 0 0 0 3.691-.638 9.366 9.366 0 0 0 1.576-.688 5.641 5.641 0 0 0 2.122-2.184 4.307 4.307 0 0 0 4.246 3.769c.92 0 1.813-.299 2.55-.85v1.343A4.29 4.29 0 0 0 45.556 64a4.29 4.29 0 0 0 4.29-4.292v-1.172a8.527 8.527 0 0 0 2.815.475c5.036 0 9.134-4.488 9.143-10.004.103.335.246.656.424.958.27.425.623.791 1.041 1.074.6.4 1.3.623 2.021.642h.331a7.106 7.106 0 0 0 1.66-.238h.09l2.348-.531c-.37.51-.73 1.007-1.078 1.5l-.196.276c-.284.39-.527.735-.743 1.066l-.06.094-.042.064-.02.03v.03a6.13 6.13 0 0 0-.783 1.593 3.58 3.58 0 0 0-.135 1.483c.065.51.24 1 .509 1.436v.021c.098.154.208.302.318.425l.026.026.022.03c.118.14.25.272.382.399.155.154.323.296.5.426.84.574 1.759 1.024 2.727 1.338a9.845 9.845 0 0 0 2.548.488h.247c.142.002.284-.005.424-.021.177-.015.353-.038.526-.072h.076a5.58 5.58 0 0 0 .527-.153h.026c.476-.177.91-.453 1.274-.808.35-.356.622-.78.802-1.244a6.122 6.122 0 0 0 .366-1.735v-.076a.396.396 0 0 0 0-.077v-.098c.037-.424.055-.815.076-1.274v-.654l.145.263.165.31c.23.425.424.782.628 1.122l.052.085.046.076v.026l.023.034c.325.504.722.957 1.179 1.347.366.343.799.606 1.274.769h.026c.368.124.754.187 1.142.187.12 0 .24-.008.36-.021h.04c.182-.02.363-.051.543-.094h.076a4.29 4.29 0 0 0 .514-.169 4.5 4.5 0 0 0 .582-.268c.76-.425 1.46-.95 2.08-1.56a10.734 10.734 0 0 0 1.869-2.396 4.65 4.65 0 0 0 .442-1.118v-.072c.042-.177.073-.355.093-.535v-.057a3.651 3.651 0 0 0-.17-1.495 3.558 3.558 0 0 0-.782-1.275 6.214 6.214 0 0 0-1.396-1.088h-.03l-.034-.02-.068-.038-.085-.057c-.34-.2-.717-.424-1.117-.62l-.33-.178a42.643 42.643 0 0 0-1.602-.85l2.327-.54h.09a6.42 6.42 0 0 0 1.889-.676 3.823 3.823 0 0 0 1.534-1.461 3.53 3.53 0 0 0 .424-1.407c.187-1.534-.458-2.89-.844-3.7h-.003Z" fill-opacity=".96" fill="#FFF" fill-rule="nonzero"/><path d="m71.578 48.275 1.4-.324c.03-.007.08-.018.138-.037a1.547 1.547 0 0 0 1.106-1.843l-.005-.024a1.546 1.546 0 0 0-.239-.522 1.952 1.952 0 0 0-.571-.49 5.293 5.293 0 0 0-.813-.377l-1.536-.562a147.85 147.85 0 0 0-2.595-.938c-.564-.2-1.042-.377-1.458-.507a4.52 4.52 0 0 1-.235-.072c-.502-.153-.855-.217-1.153-.22-.2-.007-.398.03-.582.107a1.493 1.493 0 0 0-.507.36 3.08 3.08 0 0 0-.198.25c-.12.184-.219.381-.295.588a7.984 7.984 0 0 0-.42 2.62c.005.803.027 1.836.469 2.536.107.18.25.336.42.457.315.217.632.246.964.27.495.035.973-.086 1.452-.197l4.654-1.076.004.001Zm15.632-7.442a7.964 7.964 0 0 0-1.522-2.17 2.341 2.341 0 0 0-.259-.223 3.018 3.018 0 0 0-.263-.177 3 3 0 0 0-.288-.139 1.39 1.39 0 0 0-1.182.06c-.267.133-.556.347-.94.704-.054.053-.12.112-.18.169-.317.298-.67.666-1.09 1.094a159.25 159.25 0 0 0-1.924 1.982l-1.136 1.18a5.303 5.303 0 0 0-.565.695c-.144.21-.246.445-.3.693-.031.19-.026.385.013.574l.006.025a1.545 1.545 0 0 0 1.798 1.171 1.44 1.44 0 0 0 .14-.027l6.057-1.4c.479-.111.963-.212 1.391-.462.289-.166.562-.332.75-.665.1-.183.16-.386.178-.594.093-.827-.338-1.765-.684-2.49ZM76.366 43.38c.44-.552.44-1.374.478-2.047.132-2.247.27-4.494.382-6.741.042-.852.133-1.692.082-2.55-.041-.707-.046-1.52-.493-2.101-.787-1.025-2.469-.94-3.616-.78a10.97 10.97 0 0 0-1.052.197c-.349.084-.695.175-1.033.284-1.1.36-2.648 1.023-2.909 2.292-.149.717.203 1.45.473 2.106.33.793.778 1.508 1.188 2.254 1.084 1.972 2.187 3.933 3.286 5.895.33.585.687 1.326 1.323 1.63.042.018.085.034.129.049.285.108.596.128.892.06l.053-.012c.275-.075.523-.225.717-.431.036-.034.069-.068.101-.105Zm-.525 6.015a1.4 1.4 0 0 0-1.56-.526 1.429 1.429 0 0 0-.194.08 1.88 1.88 0 0 0-.275.172 3.64 3.64 0 0 0-.659.675c-.048.062-.093.144-.152.198l-.974 1.34c-.552.752-1.097 1.506-1.636 2.27-.354.495-.658.913-.9 1.28-.045.07-.092.147-.135.21-.289.446-.452.773-.537 1.063a1.39 1.39 0 0 0-.058.6c.027.21.098.41.207.592.059.09.122.178.19.262.145.168.31.32.489.45.673.47 1.409.806 2.183 1.066a7.706 7.706 0 0 0 1.992.38c.116.006.232.004.346-.006.107-.01.213-.025.318-.045.105-.024.209-.055.31-.09.198-.074.379-.19.53-.338.142-.143.253-.315.321-.506.113-.281.187-.637.237-1.166.003-.076.014-.166.022-.248.038-.44.056-.957.083-1.563.049-.934.086-1.863.115-2.794l.063-1.658c.015-.38.002-.804-.103-1.183a1.773 1.773 0 0 0-.223-.515Zm10.998 2.593c-.202-.224-.49-.446-.945-.72-.065-.037-.143-.086-.214-.129-.378-.228-.834-.467-1.366-.756-.818-.45-1.636-.888-2.464-1.323l-1.46-.774c-.075-.023-.151-.077-.223-.112a3.638 3.638 0 0 0-.887-.316 1.635 1.635 0 0 0-.531-.021 1.4 1.4 0 0 0-1.17 1.158c-.022.186-.015.374.02.556.072.39.245.774.425 1.11l.779 1.464c.434.824.873 1.644 1.323 2.462.29.532.533.988.759 1.367.043.07.091.147.128.214.276.453.496.74.72.946.302.29.718.43 1.135.382a2.86 2.86 0 0 0 .318-.056c.216-.057.424-.14.62-.244a7.729 7.729 0 0 0 1.624-1.216c.583-.575 1.099-1.2 1.5-1.917.056-.102.103-.206.143-.315a3.2 3.2 0 0 0 .098-.306c.024-.106.042-.211.054-.318a1.51 1.51 0 0 0-.07-.623 1.384 1.384 0 0 0-.316-.514v.001Z" fill="#FF1A1A" fill-rule="nonzero"/><path d="M36.573 37.765c0-1.205.98-2.19 2.165-2.19 1.167 0 2.114.985 2.165 2.208v17.088c0 1.205-.981 2.19-2.165 2.19a2.165 2.165 0 0 1-2.165-2.19V37.765ZM34.56 48.32c-.017.34-.101.968-.54 1.426-.474.492-1.116.61-1.489.61-1.547.01-3.095.014-4.642.017-1.548.005-3.095.01-4.642.017.135.425.405 1.07 1.014 1.664.37.357.727.56.88.645.185.118.828.458 1.622.458.847 0 1.59-.272 2.319-.645l.06-.032c.506-.262 1.027-.532 1.58-.63.54-.085 1.116.017 1.538.39a1.66 1.66 0 0 1 .524 1.748c-.22.747-.845 1.392-1.504 1.782a7.437 7.437 0 0 1-1.184.56 8.925 8.925 0 0 1-3.264.51c-.27 0-.558 0-.846-.034a7.677 7.677 0 0 1-.896-.17 6.353 6.353 0 0 1-1.354-.458 7.41 7.41 0 0 1-1.234-.696 8.074 8.074 0 0 1-1.082-.934 8.389 8.389 0 0 1-.897-1.12c-.913-1.391-1.336-3.105-1.251-4.769.067-1.628.608-3.258 1.59-4.58a3.62 3.62 0 0 1 .344-.441c.05-.059.1-.115.146-.171 1.211-1.482 2.83-1.95 3.497-2.145l.037-.01a7.58 7.58 0 0 1 4.144 0c.322.085 2.131.645 3.535 2.155.067.067.254.288.49.611a8.085 8.085 0 0 1 1.3 2.723l.003.01c.1.372.202.881.202 1.508v.001Zm-9.927-2.8a3.823 3.823 0 0 0-1.319 2.138h7.374a3.939 3.939 0 0 0-1.336-2.138 3.854 3.854 0 0 0-2.368-.848 3.791 3.791 0 0 0-2.352.848h.001Zm28.04-4.497c-1.927 0-3.686.866-4.938 2.275v-.052a2.158 2.158 0 0 0-4.312.12v16.307a2.164 2.164 0 1 0 4.329 0v-5.091c1.251 1.392 2.994 2.275 4.938 2.275 3.874 0 7.02-3.514 7.02-7.892-.018-4.378-3.163-7.942-7.037-7.942Zm-.946 12.286c-2.2 0-3.992-1.918-3.992-4.31 0-2.41 1.776-4.327 3.992-4.327 2.198 0 3.99 1.918 3.99 4.328-.016 2.391-1.792 4.31-3.99 4.31Zm-35.702-3.207-.71 1.562a72.365 72.365 0 0 0-.948 2.07l-.294.653c-1.352 3.01-2.956 6.581-6.454 7.34-1.691.373-4.245-.136-5.192-1.732-.947-1.611.457-3.461 2.266-3.037.286.063.566.203.85.345.471.236.95.474 1.467.368.491-.085.795-.442 1.184-.9.54-.627.778-1.29.88-1.68l-.025-.059a.828.828 0 0 0-.026-.06 242.64 242.64 0 0 1-1.146-2.17c-.18-.346-.362-.692-.546-1.037l-.737-1.4c-.54-1.025-.63-1.194-.869-1.637a62.26 62.26 0 0 0-1.657-2.936c-.626-1.053-1.269-2.223-.744-3.463a2.068 2.068 0 0 1 2.536-1.187c1.089.33 1.571 1.367 2.021 2.336.083.176.163.35.246.515.727 1.442 1.437 2.885 2.147 4.327.063.143.158.338.275.577.103.212.224.458.35.73l.189.392c.073.153.137.283.184.388.33-.822.664-1.64.997-2.46.335-.82.669-1.638.999-2.461.009-.045.087-.22.207-.485.1-.225.228-.512.368-.838l.143-.346c.439-1.07.967-2.357 2.14-2.708a2.086 2.086 0 0 1 2.284.797c.253.356.354.763.371 1.171.013.901-.42 1.867-.795 2.696-.09.203-.177.396-.253.579l-.045.099c-.103.233-.385.864-.869 1.903-.174.372-.342.746-.512 1.123l-.282.625Z" fill="#000"/></g></svg>