<svg viewBox="0 0 90 90" xmlns="http://www.w3.org/2000/svg"><g fill="none" fill-rule="evenodd"><path fill="#FFF" d="M0 0h90v90H0z"/><g fill="#F16A24" fill-rule="nonzero"><path d="M21.744 15.612c-1.798 3.101-3.69 6.357-4.186 7.287-.527.9-1.116 1.83-1.333 2.047-.217.217-.372.496-.372.65 0 .156-.527 1.148-1.148 2.202a52.658 52.658 0 0 0-1.674 2.822c-.248.496-2.015 3.566-3.907 6.822-4.496 7.752-4.155 7.039-3.69 7.938.217.403 2.977 5.147 6.078 10.512 3.131 5.364 6.914 11.938 8.465 14.573 1.52 2.636 3.256 5.675 3.876 6.729l1.116 1.953H65l2.853-4.899c4.558-7.845 12.806-22.14 13.581-23.473.372-.682 1.334-2.325 2.14-3.659.775-1.364 1.395-2.542 1.333-2.635a4372.92 4372.92 0 0 0-10.015-17.365L65 10H24.97l-3.225 5.612Zm16.28 8.652c1.395.868 1.488 1.519 1.488 8.589v5.674l1.24-1.116c.682-.62 2.015-1.488 2.977-1.954 1.52-.713 2.108-.806 4.837-.775 3.318 0 5.21.558 7.597 2.233 2.45 1.736 4.682 5.674 5.302 9.333 1.334 8.155-1.674 15.256-7.69 18.109-1.984.93-2.325.992-5.52.992-3.007 0-3.596-.093-5.115-.806-.93-.434-2.233-1.303-2.853-1.892l-1.178-1.085v3.318h-7.04v-17.21c0-9.457-.092-17.302-.216-17.426-.124-.124-.962-.31-1.83-.403l-1.612-.155v-2.884c-.031-2.015.093-2.946.341-3.1.217-.125 2.17-.187 4.31-.156 3.38.062 4.062.155 4.961.714Z"/><path d="M45.465 41.008c-4.062.93-6.17 4.124-6.108 9.271.03 5.116 2.666 8.682 6.573 8.961 2.512.186 4.093-.34 5.706-1.953 3.349-3.287 3.473-10.79.248-14.202-1.613-1.705-4.31-2.573-6.419-2.077Z"/></g></g></svg>