<svg viewBox="0 0 90 90" xmlns="http://www.w3.org/2000/svg"><defs><radialGradient cx="89.417%" cy="20.517%" fx="89.417%" fy="20.517%" r="113.677%" gradientTransform="matrix(.99804 0 0 1 .002 0)" id="a"><stop stop-color="#FFF36E" offset="0%"/><stop stop-color="#FC4055" offset="50%"/><stop stop-color="#E31587" offset="100%"/></radialGradient><radialGradient cx="8.305%" cy="25.22%" fx="8.305%" fy="25.22%" r="67.277%" gradientTransform="scale(.99804 1)" id="b"><stop stop-color="#C60084" offset=".1%"/><stop stop-color="#FC4055" stop-opacity="0" offset="100%"/></radialGradient><radialGradient cx="99.115%" cy="14.048%" fx="99.115%" fy="14.048%" r="133.486%" gradientTransform="matrix(.99804 0 0 1 .002 0)" id="c"><stop stop-color="#FFDE67" stop-opacity=".6" offset="0%"/><stop stop-color="#FFD966" stop-opacity=".581" offset="9.3%"/><stop stop-color="#FFCA65" stop-opacity=".525" offset="20.3%"/><stop stop-color="#FEB262" stop-opacity=".432" offset="32.1%"/><stop stop-color="#FE8F5E" stop-opacity=".302" offset="44.6%"/><stop stop-color="#FD6459" stop-opacity=".137" offset="57.3%"/><stop stop-color="#FC4055" stop-opacity="0" offset="66.4%"/></radialGradient><radialGradient cx="52.866%" cy="55.604%" fx="52.866%" fy="55.604%" r="172.207%" gradientTransform="matrix(.99804 0 0 1 .001 0)" id="d"><stop stop-color="#810220" offset="15.3%"/><stop stop-color="#920B27" stop-opacity=".861" offset="16.7%"/><stop stop-color="#CB2740" stop-opacity=".398" offset="21.6%"/><stop stop-color="#EF394F" stop-opacity=".11" offset="25.3%"/><stop stop-color="#FC4055" stop-opacity="0" offset="27.2%"/></radialGradient><radialGradient cx="39.86%" cy="53.438%" fx="39.86%" fy="53.438%" r="172.207%" gradientTransform="scale(.99804 1)" id="e"><stop stop-color="#810220" offset="11.3%"/><stop stop-color="#920B27" stop-opacity=".861" offset="13.3%"/><stop stop-color="#CB2740" stop-opacity=".398" offset="20.4%"/><stop stop-color="#EF394F" stop-opacity=".11" offset="25.7%"/><stop stop-color="#FC4055" stop-opacity="0" offset="28.4%"/></radialGradient><radialGradient cx="89.526%" cy="16.127%" fx="89.526%" fy="16.127%" r="119.059%" gradientTransform="scale(1 .9976)" id="g"><stop stop-color="#FF9640" offset="0%"/><stop stop-color="#FC4055" offset="80%"/></radialGradient><radialGradient cx="89.526%" cy="16.127%" fx="89.526%" fy="16.127%" r="119.059%" gradientTransform="scale(1 .9976)" id="h"><stop stop-color="#FFDE67" offset="8.4%"/><stop stop-color="#FFDC66" stop-opacity=".968" offset="14.7%"/><stop stop-color="#FFD562" stop-opacity=".879" offset="24.6%"/><stop stop-color="#FFCB5D" stop-opacity=".734" offset="36.9%"/><stop stop-color="#FFBC55" stop-opacity=".533" offset="51.1%"/><stop stop-color="#FFAA4B" stop-opacity=".28" offset="66.7%"/><stop stop-color="#FF9640" stop-opacity="0" offset="82.2%"/></radialGradient><radialGradient cx="62.256%" cy="53.147%" fx="62.256%" fy="53.147%" r="58.497%" gradientTransform="scale(1 .9976) rotate(75.728 .622 .532)" id="i"><stop stop-color="#FC4055" offset="36.3%"/><stop stop-color="#FD604D" stop-opacity=".633" offset="44.3%"/><stop stop-color="#FE8644" stop-opacity=".181" offset="54.5%"/><stop stop-color="#FF9640" stop-opacity="0" offset="59%"/></radialGradient><radialGradient cx="52.197%" cy="57.948%" fx="52.197%" fy="57.948%" r="58.384%" gradientTransform="matrix(1 0 0 .9976 0 .001)" id="j"><stop stop-color="#FC4055" stop-opacity=".8" offset="21.6%"/><stop stop-color="#FD5251" stop-opacity=".633" offset="26.7%"/><stop stop-color="#FE8345" stop-opacity=".181" offset="41%"/><stop stop-color="#FF9640" stop-opacity="0" offset="47.4%"/></radialGradient><radialGradient cx="122.316%" cy="1.841%" fx="122.316%" fy="1.841%" r="260.079%" gradientTransform="scale(1 .98017)" id="k"><stop stop-color="#FFF36E" offset="5.4%"/><stop stop-color="#FF9640" offset="45.7%"/><stop stop-color="#FF9640" offset="63.9%"/></radialGradient><linearGradient x1="40.873%" y1="37.029%" x2="81.712%" y2="83.851%" id="f"><stop stop-color="#FFBD4F" offset="0%"/><stop stop-color="#FF9640" stop-opacity="0" offset="50.8%"/></linearGradient><linearGradient x1="73.821%" y1="8.658%" x2="22.709%" y2="87.421%" id="l"><stop stop-color="#FFF36E" stop-opacity=".8" offset="0%"/><stop stop-color="#FFF36E" stop-opacity=".699" offset="9.4%"/><stop stop-color="#FFF36E" stop-opacity="0" offset="75.2%"/></linearGradient><linearGradient x1="40.051%" y1="6.802%" x2="79.781%" y2="112.325%" id="m"><stop stop-color="#B833E1" offset="0%"/><stop stop-color="#9059FF" offset="37.1%"/><stop stop-color="#5B6DF8" offset="61.4%"/><stop stop-color="#0090ED" offset="100%"/></linearGradient><linearGradient x1="16.496%" y1="8.47%" x2="90.339%" y2="76.21%" id="n"><stop stop-color="#722291" stop-opacity="0" offset="80.5%"/><stop stop-color="#592ACB" stop-opacity=".5" offset="100%"/></linearGradient></defs><g fill="none"><path d="M80.049 17.444A43.856 43.856 0 0 0 46.32.01C36-.197 28.871 2.904 24.838 5.398 30.234 2.268 38.044.492 44.882.58c17.59.222 36.48 12.201 39.286 33.792 3.222 24.785-14.041 45.47-38.326 45.534-26.716.067-42.966-23.588-38.719-44.836.08-1.042.233-2.077.46-3.097a42.017 42.017 0 0 1 4.658-15.575C9.164 17.99 5.247 23.026 3.313 27.69A45.95 45.95 0 0 0 .427 50.111c.066.576.126 1.15.202 1.721a44.513 44.513 0 1 0 79.42-34.388Z" fill="url(#a)" transform="translate(.5 .5)"/><path d="M80.049 17.444A43.856 43.856 0 0 0 46.32.01C36-.197 28.871 2.904 24.838 5.398 30.234 2.268 38.044.492 44.882.58c17.59.222 36.48 12.201 39.286 33.792 3.222 24.785-14.041 45.47-38.326 45.534-26.716.067-42.966-23.588-38.719-44.836.08-1.042.233-2.077.46-3.097a42.017 42.017 0 0 1 4.658-15.575C9.164 17.99 5.247 23.026 3.313 27.69A45.95 45.95 0 0 0 .427 50.111c.066.576.126 1.15.202 1.721a44.513 44.513 0 1 0 79.42-34.388Z" fill="url(#b)" opacity=".67" transform="translate(.5 .5)"/><path d="M80.049 17.444A43.856 43.856 0 0 0 46.32.01C36-.197 28.871 2.904 24.838 5.398 30.234 2.268 38.044.492 44.882.58c17.59.222 36.48 12.201 39.286 33.792 3.222 24.785-14.041 45.47-38.326 45.534-26.716.067-42.966-23.588-38.719-44.836.08-1.042.233-2.077.46-3.097a42.017 42.017 0 0 1 4.658-15.575C9.164 17.99 5.247 23.026 3.313 27.69A45.95 45.95 0 0 0 .427 50.111c.066.576.126 1.15.202 1.721a44.513 44.513 0 1 0 79.42-34.388Z" fill="url(#c)" transform="translate(.5 .5)"/><path d="M80.049 17.444A43.856 43.856 0 0 0 46.32.01C36-.197 28.871 2.904 24.838 5.398 30.234 2.268 38.044.492 44.882.58c17.59.222 36.48 12.201 39.286 33.792 3.222 24.785-14.041 45.47-38.326 45.534-26.716.067-42.966-23.588-38.719-44.836.08-1.042.233-2.077.46-3.097a42.017 42.017 0 0 1 4.658-15.575C9.164 17.99 5.247 23.026 3.313 27.69A45.95 45.95 0 0 0 .427 50.111c.066.576.126 1.15.202 1.721a44.513 44.513 0 1 0 79.42-34.388Z" fill="url(#d)" transform="translate(.5 .5)"/><path d="M80.049 17.444A43.856 43.856 0 0 0 46.32.01C36-.197 28.871 2.904 24.838 5.398 30.234 2.268 38.044.492 44.882.58c17.59.222 36.48 12.201 39.286 33.792 3.222 24.785-14.041 45.47-38.326 45.534-26.716.067-42.966-23.588-38.719-44.836.08-1.042.233-2.077.46-3.097a42.017 42.017 0 0 1 4.658-15.575C9.164 17.99 5.247 23.026 3.313 27.69A45.95 45.95 0 0 0 .427 50.111c.066.576.126 1.15.202 1.721a44.513 44.513 0 1 0 79.42-34.388Z" fill="url(#e)" transform="translate(.5 .5)"/><path d="M84.168 34.372c.348 2.67.46 5.364.333 8.052a127.83 127.83 0 0 1 4.43-.588 44.456 44.456 0 0 0-8.882-24.392A43.856 43.856 0 0 0 46.32.01C36-.197 28.871 2.904 24.838 5.398 30.234 2.268 38.044.492 44.882.58c17.59.224 36.48 12.198 39.286 33.792Z" fill="url(#f)" transform="translate(.5 .5)"/><path d="M85.25 33.14C82.749 10.576 62.626.433 44.882.58c-6.839.056-14.648 1.688-20.044 4.818a21.889 21.889 0 0 0-3.956 3c.144-.12.571-.471 1.28-.958l.07-.048.062-.042a29.617 29.617 0 0 1 8.547-3.969A48.333 48.333 0 0 1 45.49 1.667C64.492 2.8 79.523 18.19 80.21 37.214c.41 14.676-11.6 26.376-25.446 27.053-10.068.493-19.555-4.38-24.188-14.126a24.089 24.089 0 0 1-2.183-7.037c-2.195-14.833 7.766-27.483 16.9-30.615-4.927-4.305-17.275-4.012-26.465 2.749-6.618 4.869-10.911 12.276-12.334 21.11a36.606 36.606 0 0 0 2.6 20 39.222 39.222 0 0 0 33.433 23.826c1.103.085 2.208.126 3.315.126C75.244 80.3 88 57.981 85.25 33.14Z" fill="url(#g)" transform="translate(.5 .5)"/><path d="M85.25 33.14C82.749 10.576 62.626.433 44.882.58c-6.839.056-14.648 1.688-20.044 4.818a21.889 21.889 0 0 0-3.956 3c.144-.12.571-.471 1.28-.958l.07-.048.062-.042a29.617 29.617 0 0 1 8.547-3.969A48.333 48.333 0 0 1 45.49 1.667C64.492 2.8 79.523 18.19 80.21 37.214c.41 14.676-11.6 26.376-25.446 27.053-10.068.493-19.555-4.38-24.188-14.126a24.089 24.089 0 0 1-2.183-7.037c-2.195-14.833 7.766-27.483 16.9-30.615-4.927-4.305-17.275-4.012-26.465 2.749-6.618 4.869-10.911 12.276-12.334 21.11a36.606 36.606 0 0 0 2.6 20 39.222 39.222 0 0 0 33.433 23.826c1.103.085 2.208.126 3.315.126C75.244 80.3 88 57.981 85.25 33.14Z" fill="url(#h)" transform="translate(.5 .5)"/><path d="M85.25 33.14C82.749 10.576 62.626.433 44.882.58c-6.839.056-14.648 1.688-20.044 4.818a21.889 21.889 0 0 0-3.956 3c.144-.12.571-.471 1.28-.958l.07-.048.062-.042a29.617 29.617 0 0 1 8.547-3.969A48.333 48.333 0 0 1 45.49 1.667C64.492 2.8 79.523 18.19 80.21 37.214c.41 14.676-11.6 26.376-25.446 27.053-10.068.493-19.555-4.38-24.188-14.126a24.089 24.089 0 0 1-2.183-7.037c-2.195-14.833 7.766-27.483 16.9-30.615-4.927-4.305-17.275-4.012-26.465 2.749-6.618 4.869-10.911 12.276-12.334 21.11a36.606 36.606 0 0 0 2.6 20 39.222 39.222 0 0 0 33.433 23.826c1.103.085 2.208.126 3.315.126C75.244 80.3 88 57.981 85.25 33.14Z" fill="url(#i)" opacity=".53" transform="translate(.5 .5)" style="mix-blend-mode:multiply"/><path d="M85.25 33.14C82.749 10.576 62.626.433 44.882.58c-6.839.056-14.648 1.688-20.044 4.818a21.889 21.889 0 0 0-3.956 3c.144-.12.571-.471 1.28-.958l.07-.048.062-.042a29.617 29.617 0 0 1 8.547-3.969A48.333 48.333 0 0 1 45.49 1.667C64.492 2.8 79.523 18.19 80.21 37.214c.41 14.676-11.6 26.376-25.446 27.053-10.068.493-19.555-4.38-24.188-14.126a24.089 24.089 0 0 1-2.183-7.037c-2.195-14.833 7.766-27.483 16.9-30.615-4.927-4.305-17.275-4.012-26.465 2.749-6.618 4.869-10.911 12.276-12.334 21.11a36.606 36.606 0 0 0 2.6 20 39.222 39.222 0 0 0 33.433 23.826c1.103.085 2.208.126 3.315.126C75.244 80.3 88 57.981 85.25 33.14Z" fill="url(#j)" opacity=".53" transform="translate(.5 .5)" style="mix-blend-mode:multiply"/><path d="M54.764 64.267c19-1.156 27.134-16.89 27.644-28.05.795-17.44-9.55-36.24-36.92-34.55-4.94-.18-9.88.399-14.647 1.717a32.061 32.061 0 0 0-8.547 3.97l-.062.042-.07.047c-.425.297-.84.608-1.248.936a37.202 37.202 0 0 1 23.308-4.373c15.714 2.062 30.08 14.285 30.08 30.414 0 12.41-9.59 21.889-20.82 21.208-16.683-1-20.889-18.111-12.21-25.505-2.34-.503-6.738.484-9.8 5.061-2.748 4.112-2.592 10.456-.896 14.957a24.576 24.576 0 0 0 24.188 14.126Z" fill="url(#k)" transform="translate(.5 .5)"/><path d="M80.049 17.444a44.398 44.398 0 0 0-3.869-4.424 34.824 34.824 0 0 0-3.53-3.251c.72.626 1.405 1.29 2.054 1.989a24.962 24.962 0 0 1 5.425 9.049c2.321 7.032 2.17 15.833-2.262 22.745a26.154 26.154 0 0 1-23.173 12.106c-.4 0-.805 0-1.212-.03-16.683-1-20.889-18.111-12.209-25.505-2.34-.503-6.739.484-9.8 5.061-2.749 4.112-2.593 10.456-.897 14.957a24.088 24.088 0 0 1-2.182-7.037c-2.196-14.833 7.765-27.483 16.9-30.615-4.928-4.305-17.276-4.012-26.466 2.749A30.939 30.939 0 0 0 7.62 31.46a42.778 42.778 0 0 1 4.621-15.059c-3.077 1.592-6.994 6.628-8.928 11.292A45.95 45.95 0 0 0 .427 50.111c.066.576.126 1.15.202 1.721a44.513 44.513 0 1 0 79.42-34.388Z" fill="url(#l)" transform="translate(.5 .5)"/><path d="M80.129 20.807a24.953 24.953 0 0 0-5.425-9.05A33.582 33.582 0 0 0 64.6 4.544a45.02 45.02 0 0 0-9.933-3.52A44.26 44.26 0 0 0 36.26.91c-6.314 1.333-11.867 4.066-15.379 7.481a35.667 35.667 0 0 1 8.924-3.555 37.294 37.294 0 0 1 34.636 9 30.011 30.011 0 0 1 4.81 5.889c5.44 8.843 4.925 19.96.684 26.517-3.15 4.871-9.897 9.445-16.192 9.391a26.254 26.254 0 0 0 24.123-12.078c4.432-6.916 4.583-15.717 2.262-22.75Z" fill="url(#m)" transform="translate(.5 .5)"/><path d="M80.129 20.807a24.953 24.953 0 0 0-5.425-9.05A33.582 33.582 0 0 0 64.6 4.544a45.02 45.02 0 0 0-9.933-3.52A44.26 44.26 0 0 0 36.26.91c-6.314 1.333-11.867 4.066-15.379 7.481a35.667 35.667 0 0 1 8.924-3.555 37.294 37.294 0 0 1 34.636 9 30.011 30.011 0 0 1 4.81 5.889c5.44 8.843 4.925 19.96.684 26.517-3.15 4.871-9.897 9.445-16.192 9.391a26.254 26.254 0 0 0 24.123-12.078c4.432-6.916 4.583-15.717 2.262-22.75Z" fill="url(#n)" transform="translate(.5 .5)"/></g></svg>