<svg viewBox="0 0 90 90" xmlns="http://www.w3.org/2000/svg"><defs><linearGradient x1="0%" y1="0%" x2="100%" y2="100%" id="a"><stop stop-color="#2EA4FF" offset="0%"/><stop stop-color="#0087FF" offset="100%"/></linearGradient></defs><g fill="none" fill-rule="evenodd"><path fill="url(#a)" d="M0 0h90v90H0z"/><g fill-rule="nonzero"><path fill="#FFF" d="M45.021 28H77v4.89H63.108V62h-5.27V32.89H45V28z"/><path d="M29.97 62C20.59 62 13 54.384 13 44.995c0-4.507 1.793-8.826 4.983-12.019 6.63-6.635 17.387-6.635 24.017 0l-3.69 3.693a11.758 11.758 0 0 0-16.658 0 11.781 11.781 0 0 0 0 16.672 11.758 11.758 0 0 0 16.658 0L42 57.034A16.88 16.88 0 0 1 29.97 62Z" fill="#0D253E"/></g></g></svg>