<svg viewBox="0 0 90 90" xmlns="http://www.w3.org/2000/svg"><path d="M69.37 17c-5.772 0-10.584 3.774-12.06 9.423-2.66-8.488-9.469-9.416-12.309-9.416s-9.646.928-12.311 9.414c-1.476-5.643-6.288-9.414-12.06-9.414C13.548 17.007 8 21.985 8 28.34c0 2.811.706 5.055 1.56 7.489l9.616 26.742c3.22 8.87 9.78 10.194 13.402 10.194 5.684 0 10.113-2.863 12.422-7.936 2.312 5.096 6.741 7.973 12.422 7.973 3.619 0 10.172-1.327 13.408-10.228L80.5 35.74l.075-.221c.11-.344.222-.667.327-.973C81.417 33.049 82 31.35 82 29.27 82 22.16 76.689 17 69.37 17Zm4.56 16.452-9.67 26.833c-1.18 3.246-3.144 5.663-6.838 5.663-3.461 0-5.504-1.896-6.525-5.146l-5.819-17.859h-.158l-5.815 17.859c-1.023 3.25-3.067 5.109-6.527 5.109-3.695 0-5.66-2.397-6.838-5.643l-9.59-26.671c-.787-2.243-1.18-3.63-1.18-5.256 0-2.475 2.36-4.48 5.66-4.48 2.752 0 4.717 1.784 5.346 4.413L32.5 49.547h.156l6.604-20.805c.866-3.014 2.437-4.88 5.74-4.88 3.301 0 4.873 1.863 5.737 4.877l6.604 20.808h.156l6.528-21.273c.628-2.629 2.592-4.42 5.345-4.42 3.3 0 5.659 2.013 5.659 5.416 0 1.236-.553 2.478-1.1 4.181Z" fill="#30A3EF"/></svg>