<svg viewBox="0 0 90 90" xmlns="http://www.w3.org/2000/svg"><g fill="none" fill-rule="evenodd"><path fill="#418AC9" d="M0 0h90v90H0z"/><g fill-rule="nonzero"><path d="M45.192 1C20.817 1 1 20.768 1 45.082c0 24.382 19.817 44.081 44.192 44.081s44.192-19.768 44.192-44.081C89.384 20.768 69.636 1 45.192 1Z" fill="#418AC9"/><path d="M78.889 38.676c2.21 2.548 3.66 5.923 3.66 9.643 0 7.99-6.491 14.464-14.501 14.464-.415 0-.76.069-1.174 0H25.168c-4.627 0-8.77-1.928-11.808-5.028l-.138.138L45.446 90H90V49.919L78.889 38.676Z" fill="#3276B2"/><path d="M68.048 62.783c-.415 0-.76.069-1.174 0H25.168c-9.046 0-16.365-7.3-16.365-16.324 0-7.094 4.557-13.087 10.84-15.36-.552 3.789 0 6.957 0 7.095 0 .138.208.55.415.55.345-.068.345-.55.345-.55-.207-3.788 1.105-7.163 2.348-9.574 3.936-7.094 11.462-11.847 20.162-11.847 10.772 0 19.818 7.37 22.373 17.357.897-.138 1.795-.275 2.762-.275 8.01 0 14.5 6.474 14.5 14.464s-6.49 14.464-14.5 14.464Z" fill="#FFF"/><path d="M59.071 29.309H31.244c-1.312 0-2.417 1.102-2.417 2.41v3.444c0 .414.07.758.276 1.102.829.345 1.589.827 2.348 1.309h27.62c1.312 0 2.417-1.102 2.417-2.41v-3.445c0-1.308-1.105-2.41-2.417-2.41Zm-1.174 5.441h-.345a1.056 1.056 0 0 1-.69.276h-1.45c-.277 0-.484-.138-.691-.276h-2.624v-5.166h5.731v5.166h.07Zm1.174 4.34H33.246c2.21 2.134 3.66 5.027 4.005 8.265h21.82c1.312 0 2.417-1.102 2.417-2.411V41.5a2.399 2.399 0 0 0-2.417-2.41Zm-1.174 5.647h-.345c-.138.138-.414.276-.621.276h-1.45c-.277 0-.484-.07-.622-.276h-2.762v-5.166h5.731v5.166h.07Zm1.174 4.064h-20.3c.068.413.068.758.068 1.17 2.555.759 4.489 3.1 4.489 5.924 0 .414-.07.758-.138 1.171h15.88c1.312 0 2.417-1.102 2.417-2.41v-3.444c0-1.309-1.105-2.411-2.417-2.411Zm-1.174 5.855h-.414c-.138.137-.345.206-.621.206h-1.45a1.12 1.12 0 0 1-.622-.206h-2.693V49.49h5.731v5.166h.07Z" fill="#CCC"/><path d="M57.552 37.574a2.399 2.399 0 0 1 2.417 2.41v3.445c0 1.308-1.105 2.41-2.417 2.41H36.975a13.61 13.61 0 0 0-5.524-8.265h26.101Zm-1.243 4.96v-1.447a.943.943 0 0 0-.967-.965h-1.45a.943.943 0 0 0-.966.965v1.446c0 .551.414.964.966.964h1.45a.943.943 0 0 0 .967-.964Zm1.243 4.82c1.381 0 2.417 1.034 2.348 2.411v3.444c0 1.309-1.105 2.41-2.417 2.41H43.259c-.276-3.099-2.831-5.578-6.008-5.785.07-.344.07-.62.07-.964 0-.551 0-1.033-.07-1.515h20.301Zm-1.243 5.098v-1.447a.943.943 0 0 0-.967-.964h-1.45a.943.943 0 0 0-.966.964v1.447c0 .55.414.964.966.964h1.45a.943.943 0 0 0 .967-.964Zm1.243-24.659a2.399 2.399 0 0 1 2.417 2.411v3.444c0 1.309-1.105 2.41-2.417 2.41H29.725c-1.312 0-2.417-1.101-2.417-2.41v-3.444c0-1.309 1.105-2.41 2.417-2.41h27.827Zm-1.243 4.753v-1.447a.943.943 0 0 0-.967-.964h-1.45a.943.943 0 0 0-.966.964v1.447c0 .55.414.964.966.964h1.45a.943.943 0 0 0 .967-.964Z" fill="#4089C8"/></g></g></svg>