<svg viewBox="0 0 90 90" xmlns="http://www.w3.org/2000/svg"><g fill="none" fill-rule="evenodd"><path fill="#C9FFC6" d="M0 0h90v90H0z"/><path d="m66.181 28-4.9 17.346a61.432 61.432 0 0 0-1.533 6.906v.032h-.149c-.132-1.297-.478-2.593-.693-3.696L53.512 28H42.476l-5.361 20.572c-.214 1.102-.56 2.4-.693 3.696h-.148v-.032a61.437 61.437 0 0 0-1.534-6.906L29.857 28h-7.82l2.294 8.154H16v5.836h9.964l1.633 5.804H16v5.852h13.23L31.853 63h9.336l6.318-24.528c.198-.907.38-1.896.43-2.593h.148c.05.68.23 1.686.429 2.593L54.832 63h9.336L74 28h-7.819Z" fill="#053F33" fill-rule="nonzero"/></g></svg>