<svg viewBox="0 0 90 90" xmlns="http://www.w3.org/2000/svg"><defs><linearGradient x1="40.965%" y1="4.937%" x2="53.877%" y2="81.832%" id="a"><stop stop-color="#77CFFE" offset="0%"/><stop stop-color="#289CE1" offset="100%"/></linearGradient><linearGradient x1="37.731%" y1="10.504%" x2="61.756%" y2="58.447%" id="b"><stop stop-color="#289CE1" offset="0%"/><stop stop-color="#006AB0" offset="100%"/></linearGradient><linearGradient x1="-.017%" y1="50.004%" x2="99.964%" y2="50.004%" id="c"><stop stop-color="#006AB0" stop-opacity=".5" offset="0%"/><stop stop-color="#006AB0" stop-opacity="0" offset="100%"/></linearGradient></defs><g fill="none"><path d="M51.596 37.318V50.41h12.525c6.91 0 12.51 5.485 12.51 12.252s-5.615 12.256-12.525 12.256c-6.907 0-12.514-5.544-12.514-12.315l.004-37.46c0-5.61-1.924-11.272-5.387-15.613-1.311-1.522-.875-1.49-2.434-.205a1.713 1.713 0 0 0-.11.099l-7.209 7.065c-1.21 1.184-1.087.76-.243 2.084a12.044 12.044 0 0 1 1.99 6.57v37.519C38.203 76.668 49.813 88 64.11 88 78.402 88 90 76.668 90 62.663c0-14.002-11.598-25.345-25.89-25.345H51.592h.004Z" fill="url(#a)" transform="translate(0 1)"/><path d="M25.757 13.133c2.756 0 5.167.707 7.232 2.123l9.416-9.283C37.72 1.99 32.173 0 25.757 0 11.555 0 0 11.403 0 25.412c0 14.013 11.555 25.412 25.757 25.412h9.11V37.695h-9.11c-6.863 0-12.447-5.508-12.447-12.283 0-6.775 5.58-12.28 12.447-12.28Z" fill="url(#b)" transform="translate(0 1)"/><path fill="url(#c)" d="M51.573 37.412h13.18v13.101h-13.18z" transform="translate(0 1)"/></g></svg>