<svg viewBox="0 0 90 90" xmlns="http://www.w3.org/2000/svg"><g fill="none" fill-rule="evenodd"><path d="M47.78 26.62h-6.224a.767.767 0 0 1-.762-.767V1.741c0-.42.343-.767.762-.767h6.225c.418 0 .762.346.762.767v24.112a.768.768 0 0 1-.762.767Zm13.094 33.709 3.107-5.43a.77.77 0 0 1 1.045-.286L85.748 66.66a.782.782 0 0 1 .284 1.053l-3.106 5.43a.77.77 0 0 1-1.045.286L61.158 61.382a.776.776 0 0 1-.284-1.053Zm-35.517-5.431 3.105 5.43a.771.771 0 0 1-.284 1.053L7.456 73.43a.76.76 0 0 1-1.045-.286l-3.105-5.43a.77.77 0 0 1 .283-1.053l20.723-12.048a.76.76 0 0 1 1.045.285Z" fill="#32BDB5"/><path d="m83.897 31.945-6.435-11.22a1.383 1.383 0 0 0-1.896-.512L44.66 38.188 13.756 20.213c-.657-.391-1.508-.15-1.895.512l-6.435 11.22c-.39.662-.15 1.52.507 1.91l30.905 17.976V87.78a1.39 1.39 0 0 0 1.388 1.399H51.08c.76 0 1.388-.617 1.388-1.399V51.83l30.905-17.974a1.415 1.415 0 0 0 .523-1.91Z" fill="#4B4F54"/></g></svg>