<svg viewBox="0 0 90 90" xmlns="http://www.w3.org/2000/svg"><defs><linearGradient x1="-38.892%" y1="-29.758%" x2="92.946%" y2="126.17%" id="a"><stop stop-color="#0A0A15" offset="0%"/><stop stop-color="#0A0A15" stop-opacity="0" offset="100%"/></linearGradient></defs><g fill="none" fill-rule="evenodd"><path fill="#FFF" d="M0 0h90v90H0z"/><g fill-rule="nonzero"><path d="M24.3 25.623V2.705c0-2.532-3.173-3.671-4.784-1.717L.622 23.905c-1.452 1.761-.2 4.418 2.083 4.418H21.6a2.7 2.7 0 0 0 2.7-2.7Z" fill-opacity=".6" fill="url(#a)" transform="translate(23 18)"/><path d="M64.694 42.18H45.799a2.7 2.7 0 0 0-2.7 2.7v22.917c0 2.533 3.173 3.672 4.784 1.718l18.894-22.917c1.452-1.761.2-4.417-2.083-4.417Z" fill="#0A0A15"/></g></g></svg>