<svg viewBox="0 0 90 90" xmlns="http://www.w3.org/2000/svg"><defs><linearGradient x1="50%" y1="0%" x2="50%" y2="100%" id="a"><stop stop-color="#72BAFD" offset="0%"/><stop stop-color="#2B82CD" offset="100%"/></linearGradient></defs><g fill="none" fill-rule="evenodd"><path fill="url(#a)" d="M0 0h90v90H0z"/><path d="M76.497 62.766a2.898 2.898 0 0 0-.207-.93 8.704 8.704 0 0 0-1.019-1.722c-2.05-2.685-3.41-4.057-4.434-5.14-1.025-1.08-5.243-4.984-5.518-5.757-.276-.773-.365-1.115.418-2.159.784-1.043 2.498-3.676 3.839-5.569.84-1.188 1.604-2.43 2.358-3.67.89-1.464 1.726-2.962 2.439-4.517.318-.694.608-1.328.41-2.106-.132-.522-.431-.98-.988-1.109-.305-.07-.637-.077-.948-.077h-4.198c-.548 0-1.097-.008-1.646-.007-.562 0-1.13-.004-1.69.044-.798.067-1.287.67-1.689 1.278-.49.744-.938 1.519-1.414 2.272a75.475 75.475 0 0 0-.958 1.557c-.489.816-.993 1.623-1.496 2.43-.21.336-.42.67-.626 1.007-.59.966-5.715 7.574-6.74 7.844-1.024.27-1.38.194-1.38-1.855V30.901s-.078-.897-.945-.897H36.88s-1.951.008-1.261 1.728c.69 1.72 2.73 2.241 2.73 5.11v11.245s-.345 2.521-2.572.435c-1.755-1.645-3.201-3.589-4.479-5.604-1.328-2.096-2.398-4.273-3.352-6.554-.272-.653-.542-1.306-.822-1.956-.293-.677-.582-1.356-.862-2.04-.326-.792-.674-1.828-1.552-2.193-.441-.184-.93-.175-1.4-.175-1.744 0-3.488.005-5.232.002h-1.536c-1.208.003-2.71-.032-2.998 1.448-.165.852.164 1.762.438 2.56.125.363.279.712.418 1.069.71 1.814 1.583 3.564 2.485 5.292 2.144 4.105 4.35 8.095 7.31 11.703 2.99 3.647 6.522 7.181 10.681 9.54a20.462 20.462 0 0 0 3.64 1.63c4.887 1.623 10.248 1.469 11.903.387 1.656-1.082-.315-8.192 1.183-9.042 1.498-.85 4.178 1.004 6.149 2.705a64.143 64.143 0 0 1 4.572 4.327c.691.726 1.178 1.593 2.079 2.11 1.49.857 3.476.762 5.139.767.926.002 1.853.005 2.78-.006.627-.008 1.253.012 1.88-.018 1.028-.048 2.373-.446 2.296-1.708Z" fill="#FFF" fill-rule="nonzero"/></g></svg>