<svg viewBox="0 0 90 90" xmlns="http://www.w3.org/2000/svg"><g fill="none" fill-rule="evenodd"><path fill="#2A3F90" d="M0 0h90v90H0z"/><path d="M50.29 34.71c2.076 0 3.905.397 5.437 1.143a10.868 10.868 0 0 1 3.807 3.032c.989 1.293 1.73 2.784 2.224 4.474.495 1.69.742 3.53.742 5.519 0 3.032-.544 5.866-1.68 8.6-1.138 2.685-2.62 5.07-4.549 7.06a21.28 21.28 0 0 1-6.822 4.722C46.83 70.403 44.011 71 40.946 71c-.395 0-1.087 0-2.076-.05-.989 0-2.126-.1-3.362-.298a43.739 43.739 0 0 1-4.004-.795 20.118 20.118 0 0 1-4.004-1.442L38.82 20.59 48.956 19 44.95 35.952c.89-.398 1.68-.696 2.57-.895.84-.248 1.78-.348 2.769-.348Zm-8.503 28.137c1.532 0 2.966-.348 4.3-1.143a11.842 11.842 0 0 0 3.51-2.983 14.626 14.626 0 0 0 2.324-4.226c.544-1.59.84-3.231.84-4.921 0-2.088-.346-3.729-1.038-4.922-.692-1.193-2.126-1.74-4.004-1.74-.593 0-1.236.05-2.225.298-.988.2-1.829.696-2.62 1.392l-4.251 18.046c1.285.199 2.67.199 3.164.199Z" fill="#FFF" fill-rule="nonzero"/></g></svg>