<svg viewBox="0 0 90 90" xmlns="http://www.w3.org/2000/svg"><path d="M45 0c24.853 0 45 20.147 45 45S69.853 90 45 90 0 69.853 0 45 20.147 0 45 0Zm0 3.333C21.988 3.333 3.333 21.988 3.333 45S21.988 86.667 45 86.667 86.667 68.012 86.667 45 68.012 3.333 45 3.333ZM56.667 67.5a1.667 1.667 0 0 1 .194 3.322l-.194.011H36.205l1.909 3.34a1.667 1.667 0 0 1-.457 2.168l-.163.106a1.667 1.667 0 0 1-2.168-.457l-.106-.163-3.334-5.833c-.603-1.056.091-2.356 1.26-2.484l.187-.01h23.334ZM34.569 28.046l.118.149L55 56.487v-27.32c0-.855.643-1.56 1.472-1.656l.195-.011c.854 0 1.559.643 1.655 1.472l.011.195v32.5c0 1.554-1.913 2.232-2.902 1.12l-.118-.148L35 34.347v27.32c0 .854-.643 1.559-1.472 1.655l-.195.011a1.666 1.666 0 0 1-1.655-1.472l-.011-.194v-32.5c0-1.555 1.913-2.233 2.902-1.12Zm20.105-13.203.106.163 3.334 5.834c.603 1.055-.091 2.356-1.26 2.483l-.187.01H33.333a1.667 1.667 0 0 1-.194-3.322l.194-.011h20.46l-1.907-3.34a1.667 1.667 0 0 1 .457-2.168l.163-.106a1.667 1.667 0 0 1 2.168.457Z" fill="gray"/></svg>