<svg viewBox="0 0 90 90" xmlns="http://www.w3.org/2000/svg"><defs><linearGradient x1="100%" y1="0%" x2="0%" y2="100%" id="a"><stop stop-color="#8BEA8F" offset="0%"/><stop stop-color="#06AAA2" offset="100%"/></linearGradient></defs><g fill="none"><path fill="url(#a)" d="M0 0h90v90H0z"/><path d="M57.823 35.865c-2.244-.967-4.71-1.414-7.402-1.34h-8.3l-3.214.373c-.748.223-1.122.372-1.122.372V18H25v53h12.785V49.561c.075-.894.374-1.786 1.047-2.382.673-.595 1.42-.967 2.467-.967h7.477c.897 0 1.72.375 2.393.967.672.596.97 1.488 1.046 2.382V71H65V47.924c0-3.201-.673-5.806-1.944-7.816-1.345-1.935-3.065-3.35-5.233-4.243Z" fill="#FFF"/></g></svg>