<svg viewBox="0 0 90 90" xmlns="http://www.w3.org/2000/svg"><defs><linearGradient x1=".018%" y1="49.967%" x2="100.002%" y2="49.967%" id="a"><stop stop-color="#872166" offset="0%"/><stop stop-color="#792161" offset="100%"/></linearGradient></defs><g fill="none" fill-rule="evenodd"><path fill="#FFF" d="M0 0h90v90H0z"/><path d="M34.48 32.345c-2.881-.192-9.508-.625-9.508-6.584 0-7.21 9.556-7.21 13.11-7.21 6.29 0 14.455 1.875 20.265 3.605 0 0 3.266 1.154 6.003 2.307l.24.048V4.806l-.336-.096C57.387 2.307 49.415 0 34.576 0 9.028 0 0 14.899 0 27.635 0 34.99 3.17 52.291 32.415 54.31c2.497.144 9.077.529 9.077 6.729 0 5.094-5.379 8.122-14.455 8.122-9.941 0-19.545-2.547-25.404-4.95v20.33C10.373 86.847 20.266 88 31.839 88 56.811 88 68 73.918 68 59.932c0-15.86-12.486-26.145-33.52-27.587Z" transform="translate(11 1)" fill="url(#a)" fill-rule="nonzero"/></g></svg>