<svg viewBox="0 0 90 90" xmlns="http://www.w3.org/2000/svg"><g fill="none"><path fill="#FEBA13" d="M0 0h90v90H0z"/><path d="M45.394 4.3c-4.461 0-8.497.85-12.533 2.66-3.93 1.595-7.328 3.83-10.302 6.914a32.742 32.742 0 0 0-6.904 10.213C13.849 28.237 13 32.28 13 36.747c0 4.362.85 8.617 2.655 12.766a32.74 32.74 0 0 0 6.904 10.213c2.974 3.085 6.372 5.319 10.302 6.914 4.036 1.596 8.072 2.553 12.533 2.66 4.46-.107 8.71-1.064 12.745-2.66 3.717-1.595 7.223-3.83 10.303-6.914a32.743 32.743 0 0 0 6.903-10.213C77.045 45.364 78 41.109 78 36.747c0-4.468-.956-8.51-2.655-12.66-1.593-3.83-3.93-7.234-6.903-10.213-3.08-3.084-6.586-5.319-10.303-6.915-4.036-1.808-8.284-2.66-12.745-2.66Z" fill="#FFF"/><path d="M45.394 4.3c-4.461 0-8.497.85-12.533 2.66-3.93 1.595-7.328 3.83-10.302 6.914a32.742 32.742 0 0 0-6.904 10.213C13.849 28.237 13 32.28 13 36.747c0 4.362.85 8.617 2.655 12.766a32.74 32.74 0 0 0 6.904 10.213c2.974 3.085 6.372 5.319 10.302 6.914 4.036 1.596 8.072 2.553 12.533 2.66 4.46-.107 8.71-1.064 12.745-2.66 3.717-1.595 7.223-3.83 10.303-6.914a32.743 32.743 0 0 0 6.903-10.213C77.045 45.364 78 41.109 78 36.747c0-4.468-.956-8.51-2.655-12.66-1.593-3.83-3.93-7.234-6.903-10.213-3.08-3.084-6.586-5.319-10.303-6.915-4.036-1.808-8.284-2.66-12.745-2.66Zm.057 1.2c4.239 0 8.266.962 12.186 2.672 3.71 1.603 6.888 3.74 9.75 6.626 2.967 2.993 5.087 6.199 6.676 9.939 1.59 3.954 2.437 8.015 2.437 12.183 0 3.313-.53 6.52-1.377 9.618l-3.39-1.282-1.167-1.817-1.802-1.603-1.59-.107v-.214h2.438c1.271 0 2.12-.32 3.073-1.282 1.06-.855 1.59-2.458 1.378-4.382 0-2.03-.53-4.275-1.378-7.16-.953-3.206-2.332-6.199-3.922-9.085-2.119-3.42-4.45-5.877-6.887-7.694-2.967-2.244-6.358-3.313-9.855-3.313-4.133 0-7.312 1.39-9.75 4.062-1.377 1.603-2.437 3.954-3.39 6.733l-1.06.534-.635.962h-1.484v.641h1.272c0 .534.318 1.068.847 1.603l.212.214c-.317 2.672-.529 5.343-.317 8.336 0 2.35.105 4.168.317 5.237.318 1.389.848 2.458 1.59 2.992 1.06.855 2.649 1.39 4.98 1.39l9.114.213.53.535c-.106.748-.636 1.39-1.377 1.924l-.318.748c-4.451 1.816-6.783 3.205-7.1 4.061l-2.438 4.275-2.331-10.26-1.06.107-1.377-1.176-4.663.534-5.404.642-2.65 1.069-.53.427v-.534c-.211-.962-.423-1.603-.953-2.138l-1.907-1.282-1.59-.32-1.59.533-.847-.748 3.709 17.1a33.5 33.5 0 0 1-4.769-7.802c-1.801-3.954-2.65-8.016-2.543-12.29-.106-4.168.742-8.23 2.543-12.184 1.59-3.74 3.71-7.053 6.464-9.939 3.074-2.885 6.253-5.023 9.962-6.626C37.29 6.462 41.424 5.5 45.45 5.5Zm2.939 4.464c1.93 5.13 5.147 8.336 9.437 9.832l.43.855.106.214h-3.217v.641h3.647v.427a3.092 3.092 0 0 1-.43 2.244l-.643.962c-.214.535-.429.855-.214 1.176l.75.748c.107.214.322.534.322 1.069.858-.214 1.287-.748 1.072-1.39V25.46l.322-.534 1.072-2.138-.536-.855h.966c.857.642 1.18 2.244.643 4.596 0 1.282-.107 1.923-.536 2.137-.536.214-1.073 0-1.609-.32l.215 13.144h6.649l.858 1.283-7.722 4.916-6.97-9.084 3.11-2.672 3.753-4.275c-4.505 3.42-7.4 5.344-8.258 5.558l-1.073.534-.857.214-3.432-.427c-1.287-.107-2.145-.855-2.467-1.71l-.214-1.496-.322-1.176-.965-1.603-.858-2.03c-.75-1.604-1.287-3.314-1.394-5.665h.107c.965 0 1.609-.214 2.145-.748l.43-.107.535-1.603c.107-.962.536-1.282 1.394-1.282.858 0 1.394.32 1.609 1.068v.321c-.214.534.214 1.069.858 1.603.536.534 1.287.748 2.145.748.75 0 1.5-.214 2.038-.748.536-.534.857-1.069.857-1.603h1.288v-.641h-1.288l-.857-.962c-.537-.534-1.287-.641-2.038-.641-.858 0-1.609.107-2.145.641l-.536.428-.107-.214c-.536-.535-1.073-.748-1.824-.748-.75 0-1.286.213-1.608.748l-.322.214-.429-.428a5.059 5.059 0 0 0-1.608-.641c1.071-3.1 3.646-6.092 7.72-9.298Zm6.756 32.596 4.29 5.664-4.076 3.42c-.535-1.282-1.072-2.885-1.394-4.488-.535-1.604-.535-2.458-.214-2.672l1.287-1.603.107-.108v-.213Zm-5.898-22.657c.536-.106 1.073 0 1.609.428l.536.855h-3.325v.748h.644c0 .107.215.107.536.107.215 0 .43 0 .536-.107h1.609l-.536.855a4.312 4.312 0 0 1-1.609.32c-.643 0-1.18-.106-1.716-.32-.429-.32-.536-.748-.536-1.282v-.535l.536-.534v-.107c.537-.428 1.073-.534 1.716-.428Zm19.84 22.657 1.501 1.282.859 1.176.214.534c.108.535-.966 1.497-2.895 3.1l-6.436 4.275-1.823-4.489 8.58-5.665v-.213Zm-7.292-13.145.535.32.322.535-.322.748-.535.107-.537-.107-.322-.748.322-.534.537-.321Zm-41.29 11.221 1.61.535c.75.32 1.286.64 1.608.855.536.534.75 1.603.536 2.992v.749l-4.826-4.596 1.072-.535Zm19.626-20.733c.536-.106 1.072 0 1.608.428l.751.855h-3.539v.748h.644c0 .107.214.107.536.107l.43-.107h1.93l-.751.855a4.315 4.315 0 0 1-1.609.32l-1.608-.32c-.537-.32-.644-.748-.644-1.282 0-.535.107-.855.644-1.176ZM24.26 45.767l.536-.535c1.287-.855 2.36-1.603 3.432-1.817l5.47-.641 4.289-.428.965.749-14.692 2.672Z" fill="#000"/><path d="M45.848 31.044c-.665.44-1.44.55-1.995.44l-1.33-.22c-.553-.22-.665-.55-.553-.881l.443.33.886.22h1.108l1.44-.44.998-.11-.997.661Zm.443-1.212-.221.11-.554.22h-2.77l-.333-.33-.776-.22.776-.882.554.331.554-.33c1.662.55 2.549.88 2.77 1.101Zm14.184-5.179-.554-.33c-.222-.22-.222-.552 0-1.323 0 .331.222.882.554 1.653Zm-19.392 2.204c-.332-.22-.776-.772-1.33-1.322l4.433 1.101-3.103.22ZM8 68.807v12.361h2.025V68.807H8ZM11.8 85h2.29l5.793-10.978h-2.29l-1.992 4.06-2.224-4.06H11.02l3.42 6.074L11.8 85Zm9.08-3.832h2.024v-3.647c0-.413.016-.925.315-1.387.299-.445.714-.626 1.245-.626.2 0 .63.033.946.363.366.38.382 1.006.382 1.403v3.894h2.024V76.68c0-.693-.066-1.403-.564-2.013-.564-.694-1.494-.875-2.124-.875-1.162 0-1.843.627-2.225 1.155v-.924H20.88v7.146Zm14.372-6.222c-.681-1.056-1.76-1.155-2.307-1.155-2.125 0-3.568 1.683-3.568 3.796 0 2.096 1.46 3.815 3.668 3.815.514 0 1.476-.116 2.207-1.158v.924h2.025V68.807h-2.025v6.139Zm-1.793 4.67c-1.161 0-1.99-.89-1.99-2.03 0-1.138.829-2.013 1.99-2.013 1.162 0 1.992.875 1.992 2.014 0 1.138-.83 2.03-1.992 2.03Zm11.253-4.67c-.68-1.056-1.76-1.155-2.307-1.155-2.125 0-3.568 1.683-3.568 3.796 0 2.096 1.46 3.815 3.667 3.815.515 0 1.478-.116 2.208-1.158v.924h2.025v-7.146h-2.025v.924Zm-1.793 4.67c-1.162 0-1.991-.89-1.991-2.03 0-1.138.83-2.013 1.991-2.013 1.162 0 1.992.875 1.992 2.014 0 1.138-.83 2.03-1.992 2.03Zm5.577.48c0 .726.565 1.29 1.295 1.29s1.294-.564 1.294-1.29a1.27 1.27 0 0 0-1.294-1.287c-.73 0-1.295.56-1.295 1.287Zm11.461-6.512a4.1 4.1 0 0 0-2.398-.74c-2.381 0-4.13 1.72-4.13 4.07 0 2.312 1.73 4.016 4.13 4.016a4.122 4.122 0 0 0 2.455-.798v-1.59c-.707.85-1.693 1.202-2.493 1.202-1.376 0-2.715-.98-2.715-2.848 0-1.868 1.302-2.867 2.734-2.867.688 0 1.711.259 2.417 1.147v-1.592Zm5.711 7.346c2.344 0 4.092-1.704 4.092-4.034 0-2.331-1.729-4.052-4.092-4.052-2.362 0-4.091 1.72-4.091 4.052 0 2.33 1.748 4.034 4.091 4.034Zm0-6.902c1.414 0 2.716.98 2.716 2.868 0 1.868-1.321 2.848-2.716 2.848-1.376 0-2.715-.962-2.715-2.848 0-1.869 1.302-2.868 2.715-2.868Zm6.139 6.677h1.34v-4.18c0-.924.167-2.497 1.683-2.497 1.404 0 1.404 1.591 1.404 2.127v4.55h1.34v-4.272c0-.925.167-2.405 1.71-2.405 1.266 0 1.377 1.148 1.377 2.016v4.661H82v-4.864c0-.629-.018-1.295-.428-1.96-.222-.351-.78-1.036-2.082-1.036-.521 0-1.582.074-2.325 1.24-.149-.26-.726-1.24-2.115-1.24-.812 0-1.479.37-1.903.999v-.814h-1.34v7.675Z" fill="#000"/></g></svg>