<svg viewBox="0 0 90 90" xmlns="http://www.w3.org/2000/svg"><defs><linearGradient x1="69.949%" y1="35.617%" x2="33.826%" y2="63.696%" id="a"><stop stop-color="#E6EBEF" offset="0%"/><stop stop-color="#BBCEE5" offset="7.64%"/><stop stop-color="#85A9D8" offset="18.54%"/><stop stop-color="#5D8FCF" offset="27.96%"/><stop stop-color="#457EC9" offset="35.43%"/><stop stop-color="#3C78C7" offset="40%"/><stop stop-color="#2E5C99" offset="90%"/></linearGradient></defs><g fill="none" fill-rule="evenodd"><path fill="#FFF" d="M0 0h90v90H0z"/><g fill-rule="nonzero"><path d="M79.885 8.037c-2.42 2.375-7.661 4.414-10.24 5.368-3.524 1.307-5.087 1.77-7.058 2.404-2.232.714-6.695 2.049-6.695 2.049 9.246 2.726 15.763 3.549 15.763 3.549s3.035-.927 7.845-3.467c2.604-1.308 3.885-2.188 4.802-3.029.338-.302 1.21-1.2 1.428-2.347.014-.084.056-.304.056-.52 0 0 0-.152-.014-.284a1.257 1.257 0 0 0-.033-.254s-.052-.273-.12-.464c-.07-.19-.368-.78-.85-1.164-.323-.258-.88-.902-2.896-1.602-.686-.236-1.796-.453-1.796-.453l-.192.214Z" fill="url(#a)" transform="translate(2 34)"/><path d="M87.785 45.984s-.014-.254-.077-.47a1.799 1.799 0 0 0-.266-.568 4.9 4.9 0 0 0-.685-.795 6.078 6.078 0 0 0-.81-.624c-1.262-.817-2.89-1.276-4.331-1.471-2.233-.293-4.794-.241-5.037-.25a598.14 598.14 0 0 0-7.514.056c-6.076.124-13.514.14-15.462.14-20.115.091-28.87-.337-38.615-2.266-8.29-1.627-12.889-3.172-12.889-3.172 7.312-.25 49.975-1.998 57.758-2.202 5.096-.142 8.714-.172 11.608-.007 1.485.082 2.866.207 4.601.498 1.556.263 2.969.71 3.791 1.011 1.734.634 3.195 1.55 3.917 2.49 0 0 .213.215.503.6.325.445.702.994.83 1.2 1.055 1.578 1.555 2.57 1.73 2.915.188.363.354.74.516 1.11.159.366.223.588.274.743.111.388.138.742.144.821l.014.24Z" fill="#CE210F"/></g></g></svg>