<svg viewBox="0 0 90 90" xmlns="http://www.w3.org/2000/svg"><g fill="none" fill-rule="evenodd"><path fill="#FFF" d="M0 0h90v90H0z"/><g fill="#FF6C36" fill-rule="nonzero"><path d="M76.559 61.609c-.743-.508-1.721-.47-2.464.039-.743.508-1.056 1.486-.782 2.346.274.86 1.056 1.486 1.955 1.526.9.039 1.72-.47 2.073-1.29.39-.94.078-2.074-.782-2.621-.939-.665.977.665 0 0Z"/><path d="M49.263 81.514c.469 0 .977 0 1.446-.04a33.883 33.883 0 0 0 2.894-.234c.782-.078-1.603.196 0 0 .978-.117 1.76.782 1.565 1.76-.118.43-.43.782-.822.978-.273.117-.547.117-.82.156-.314.04-.666.078-.979.078a42.69 42.69 0 0 1-7.743-.117c-2.346-.274-4.614-.704-6.882-1.408a37.115 37.115 0 0 1-6.335-2.58c-2.073-1.057-3.99-2.308-5.827-3.716a35.517 35.517 0 0 1-5.749-5.357 39.845 39.845 0 0 1-4.536-6.336 37.877 37.877 0 0 1-3.246-7.273c-.86-2.581-1.408-5.24-1.72-7.939a38.801 38.801 0 0 1-.04-8.251c.274-2.699.822-5.397 1.682-7.978a39.163 39.163 0 0 1 3.207-7.313c1.29-2.307 2.854-4.458 4.575-6.452a41.167 41.167 0 0 1 5.71-5.358 39.914 39.914 0 0 1 6.726-4.145c2.424-1.173 4.966-2.073 7.586-2.738 2.66-.664 5.397-1.016 8.134-1.134a41.269 41.269 0 0 1 8.213.587c2.62.47 5.2 1.212 7.704 2.19a38.536 38.536 0 0 1 7 3.676 39.191 39.191 0 0 1 6.1 5.005c.782.783 1.486 1.565 1.995 2.581.43.86.664 1.838.743 2.777.117 1.955-.548 3.95-1.878 5.397-1.525 1.72-3.832 2.659-6.1 2.502a7.619 7.619 0 0 1-3.168-.938 5.934 5.934 0 0 1-1.368-1.017c-.47-.43-.9-.938-1.37-1.369a24.187 24.187 0 0 0-6.49-4.34c-2.464-1.095-5.085-1.8-7.744-2.034-2.737-.235-5.514-.039-8.173.626a25.442 25.442 0 0 0-7.313 3.206 24.47 24.47 0 0 0-9.581 12.201 23.865 23.865 0 0 0-1.368 7.94c0 2.737.43 5.435 1.33 8.016.86 2.503 2.15 4.81 3.753 6.883a23.998 23.998 0 0 0 5.749 5.318 23.637 23.637 0 0 0 7.313 3.246c2.659.704 5.436.9 8.173.665 2.66-.235 5.28-.9 7.743-1.995.274-.117.508-.274.782-.313.235-.039.47-.039.704.04.47.156.821.508.939.977.117.43.039.939-.274 1.29-.157.196-.391.313-.626.43-.313.118-.586.275-.9.392a25.824 25.824 0 0 1-7.82 1.955 27.245 27.245 0 0 1-8.174-.43c.352.391.665.821.978 1.251.313.43.626.9.9 1.33.038.078.156.235.156.235h.117c.157 0 .274.039.43.039.274.039.548.039.821.078 1.135.078 2.269.078 3.403.04 2.229-.118 4.458-.431 6.609-1.057a30.797 30.797 0 0 0 6.022-2.424c1.877-1.017 3.637-2.19 5.24-3.598l1.173-1.056c.352-.313.626-.704 1.056-.9a2.081 2.081 0 0 1 2.268.235c.665.509.939 1.369.743 2.19-.117.43-.312.782-.625 1.056-.391.352-.743.743-1.134 1.095-1.565 1.408-3.246 2.698-5.045 3.793a31.666 31.666 0 0 1-5.788 2.816 32.574 32.574 0 0 1-6.374 1.681c-2.23.352-4.497.509-6.765.43.195.509.352 1.017.508 1.526.078.234.117.47.196.704 0 .078.078.273.078.273l.313.196Z"/><path d="M71.084 74.318a35.688 35.688 0 0 1-7.078 4.146 41.503 41.503 0 0 1-3.872 1.447c-.665.195-1.33.39-1.994.547-.274.078-.587.117-.86.274-.235.117-.392.313-.51.547a1.361 1.361 0 0 0 .157 1.525c.391.509.978.587 1.565.47a35.16 35.16 0 0 0 3.95-1.173 38.126 38.126 0 0 0 7.43-3.56 26.141 26.141 0 0 0 1.72-1.133c.274-.196.587-.391.86-.587.235-.195.509-.352.704-.625.313-.43.313-1.056.04-1.526a1.454 1.454 0 0 0-1.33-.704c-.313.079-.587.196-.782.352-4.028 2.973.625-.469 0 0Zm4.693-4.223c-.352.391-.743.782-1.135 1.173-.312.313-.664.587-.82 1.017-.235.821.312 1.681 1.133 1.799.509.078.939-.118 1.29-.43.392-.352.783-.743 1.135-1.134.313-.313.665-.626.782-1.095.078-.352.04-.783-.156-1.095-.47-.783-1.604-.9-2.23-.235-.508.547.548-.587 0 0ZM66.9 61.883c-.9.938-1.839 1.799-2.855 2.58-.274.196-.587.43-.86.626-.235.157-.43.391-.548.665a1.394 1.394 0 0 0 .39 1.604c.548.469 1.252.43 1.839 0 .547-.392 1.095-.783 1.603-1.174.47-.39.939-.82 1.408-1.251.274-.235.508-.508.782-.782.235-.235.47-.47.626-.782.235-.626 0-1.369-.587-1.721-.586-.313-1.33-.235-1.799.235-1.368 1.447.548-.548 0 0ZM49.419 35.994a9.112 9.112 0 0 0-5.358 1.721 9.22 9.22 0 0 0-3.324 4.38 9.187 9.187 0 0 0-.195 5.71 9.077 9.077 0 0 0 3.011 4.575 8.988 8.988 0 0 0 5.162 2.073 9.128 9.128 0 0 0 5.514-1.33 9.264 9.264 0 0 0 3.637-4.106 9.39 9.39 0 0 0 .626-5.67c-.352-1.839-1.33-3.56-2.66-4.85a9.652 9.652 0 0 0-4.966-2.463c-.508 0-.978-.04-1.447-.04Z"/></g></g></svg>