<svg viewBox="0 0 90 90" xmlns="http://www.w3.org/2000/svg"><g fill="none" fill-rule="evenodd"><path fill="#FFF" d="M0 0h90v90H0z"/><path d="M58.218 20.033c-3.66-3.013-8.778-4.381-14.799-3.958-2.75.194-9.18 1.64-12.322 2.358-3.354.766-4.262 2.61-4.691 4.844L25 30.597s6.422-2.214 10.379-3.185l-3.052 4.109c-.687.925-1.206 2.496-1.206 3.654V75l5.415-2.14c3.089-1.13 4.487-3.908 4.487-6.633v-9.35c2.1.831 4.732 1.188 7.494.994 5.062-.357 9.482-2.791 12.446-6.855 3.025-4.146 4.393-9.65 3.958-15.92-.466-6.717-2.721-11.785-6.703-15.063ZM47.54 48.464c-2.709.192-4.951-.445-6.517-1.842V26.115c1.878-.397 3.256-.643 3.843-.685 6.004-.423 9.708 3.157 10.17 9.82.304 4.367-.873 12.747-7.496 13.214Z" fill="#272CCE"/></g></svg>