<svg viewBox="0 0 90 90" xmlns="http://www.w3.org/2000/svg"><path d="M43.97 55.815c.18-11.164 8.1-22.896 12.118-22.896 1.188 0 1.44.768 1.44 1.583 0 3.821-5.699 14.03-13.557 21.313M83.815 16c-3.742-.02-7.353 2.234-9.692 5.617 11.048 7.19-2.489 42.987-22.453 42.987-2.393 0-4.423-.693-5.781-2.11 10.807-9.688 18.615-22.863 18.615-30.632 0-3.973-1.95-6.493-6.52-6.493-13.26 0-27.241 21.65-24.648 37.27-8.361 2.956-12.516-.741-12.516-8.167 0-15.504 16.28-31.585 15.335-36.424C19.286 23.238 6.085 11.181 0 30.804c8.2-4.44 15.768 2.657 25.122-2.532C17.088 37.493 8.98 50.55 9.09 61.577 9.162 68.794 13.08 74 21.564 74c4.819 0 9.82-1.68 14.632-4.418C38.259 72.147 41.582 74 46.66 74 67.368 74 90 45.045 90 24.384c0-5.482-2.185-8.362-6.185-8.384" fill="#E62324" fill-rule="evenodd"/></svg>