<svg viewBox="0 0 90 90" xmlns="http://www.w3.org/2000/svg"><defs><linearGradient x1="-2.3%" y1="50%" x2="101.8%" y2="50%" id="a"><stop stop-color="#42AB34" offset="0%"/><stop stop-color="#47AC34" offset="5.7%"/><stop stop-color="#61B22F" offset="58.8%"/><stop stop-color="#69B42E" offset="100%"/></linearGradient><linearGradient x1="0%" y1="50%" x2="100%" y2="50%" id="b"><stop stop-color="#42AB34" offset="0%"/><stop stop-color="#47AC34" offset="5.7%"/><stop stop-color="#61B22F" offset="58.8%"/><stop stop-color="#69B42E" offset="100%"/></linearGradient><linearGradient x1="0%" y1="50%" x2="100%" y2="50%" id="c"><stop stop-color="#42AB34" offset="0%"/><stop stop-color="#47AC34" offset="5.7%"/><stop stop-color="#61B22F" offset="58.8%"/><stop stop-color="#69B42E" offset="100%"/></linearGradient><linearGradient x1="-200.1%" y1="50%" x2="116.6%" y2="50%" id="d"><stop stop-color="#42AB34" offset="0%"/><stop stop-color="#47AC34" offset="5.7%"/><stop stop-color="#61B22F" offset="58.8%"/><stop stop-color="#69B42E" offset="100%"/></linearGradient><linearGradient x1="0%" y1="50%" x2="100%" y2="50%" id="e"><stop stop-color="#42AB34" offset="0%"/><stop stop-color="#47AC34" offset="5.7%"/><stop stop-color="#61B22F" offset="58.8%"/><stop stop-color="#69B42E" offset="100%"/></linearGradient></defs><g fill="none"><path d="M11.11 8.579c2.702.055 5.376.55 7.917 1.468a44.984 44.984 0 0 1 7.32 3.314 63.205 63.205 0 0 1 6.71 4.33 73.619 73.619 0 0 1 3.14 2.455c.517.421 1.022.857 1.521 1.303.252.218.501.446.753.67l.372.356.41.38-7.438.017.663-.777.613-.687c.41-.454.819-.89 1.246-1.328.841-.857 1.7-1.688 2.573-2.491a72.003 72.003 0 0 1 2.686-2.33c.46-.372.922-.744 1.383-1.109l.695-.55.712-.525a72.255 72.255 0 0 1 5.883-3.942c2.023-1.223 4.111-2.313 6.238-3.326a63.76 63.76 0 0 1 13.337-4.584 54.736 54.736 0 0 1 6.954-1.06A40.295 40.295 0 0 1 81.86.148c-.988.68-1.99 1.254-2.97 1.87-.485.307-.98.613-1.473.89-.243.145-.484.29-.728.446l-.728.445c-1.935 1.166-3.819 2.347-5.697 3.496a333.59 333.59 0 0 0-10.916 7.081 255.59 255.59 0 0 0-10.405 7.434c-.841.646-1.692 1.278-2.525 1.94-.832.664-1.658 1.312-2.485 1.966a95.132 95.132 0 0 0-2.428 2.007c-.396.34-.793.671-1.182 1.004l-1.068.94-4.5 3.957-2.943-3.94a4.236 4.236 0 0 0-.252-.306l-.282-.34-.575-.687-1.174-1.383a318.864 318.864 0 0 0-2.403-2.759 219.895 219.895 0 0 0-4.952-5.437c-1.692-1.788-3.408-3.553-5.22-5.259A59.142 59.142 0 0 0 11.11 8.58Z" fill="url(#a)" transform="translate(4)"/><path d="M35.873 51.271a21.79 21.79 0 0 1-19.51-12.13L3.392 44.727C11.385 61.77 31.195 69.738 48.764 62.97L43.188 50a21.71 21.71 0 0 1-7.315 1.272Z" fill="url(#b)" transform="translate(4 23.541)"/><path d="M14.114 29.495a21.784 21.784 0 0 1 10.503-18.613L15.488 0C2.041 9.29-3.427 26.496 2.193 41.844l12.995-5.584a21.719 21.719 0 0 1-1.074-6.765Z" fill="url(#c)" transform="translate(4 23.541)"/><path d="m57.51.914-12.179 9a21.97 21.97 0 0 1 9.671 9.225l12.989-5.584A36.123 36.123 0 0 0 57.51.915Z" fill="url(#d)" transform="translate(4 23.541)"/><path d="M71.744 29.504a35.636 35.636 0 0 0-2.485-13.11L56.295 21.97c3.772 10.235-.614 21.682-10.26 26.775l5.584 12.977a35.914 35.914 0 0 0 20.125-32.218Z" fill="url(#e)" transform="translate(4 23.541)"/></g></svg>