<svg viewBox="0 0 90 90" xmlns="http://www.w3.org/2000/svg"><g fill="none"><path d="M69.05 73.338H53.077c-16.84 0-23.1-5.476-23.1-20.21 0-22.874 10.804-35.47 30.416-35.47h21.19l3.33-14.63h-29.59c-17.075 0-27.471 2.893-34.791 9.665C10.903 21.633 5 38.466 5 57.134c0 23.012 8.342 30.837 32.99 30.837h27.793l3.268-14.633Z" fill="#0098DD"/><path d="m67.446 32.841 11.015.005 2.347-10.685-19.592-.002c-17.204 0-26.575 10.913-26.575 31.032 0 11.571 4.944 15.581 19.321 15.581H70.32l2.53-11.24h-9.518c-1.118 0-3.054-.11-4.017-.17l-.117-.03c-.726-.054-1.147-.127-1.874-.281-.359-.077-.624-.12-.946-.208-.473-.134-.756-.214-1.023-.304-2.716-.884-3.968-2.879-4.013-6.946.094-10.814 5.857-16.752 16.104-16.752Z" fill="#FFE600"/></g></svg>