<svg viewBox="0 0 90 90" xmlns="http://www.w3.org/2000/svg"><g fill="none" fill-rule="evenodd"><path fill="#002E44" d="M0 0h90v90H0z"/><path d="M45.148 23.007c-10.289-.022-19.548 6.14-23.36 15.545-3.813 9.405-1.406 20.148 6.071 27.103a5.015 5.015 0 0 0 6.445.33c6.348-4.65 15.045-4.65 21.393 0a5.029 5.029 0 0 0 6.481-.373c7.418-6.927 9.822-17.59 6.08-26.956C64.513 29.291 55.371 23.097 45.147 23M45 60.024a12.273 12.273 0 0 1-8.932-3.503 11.877 11.877 0 0 1-3.561-8.79c0-6.791 5.593-12.296 12.493-12.296S57.494 40.94 57.494 47.73a11.877 11.877 0 0 1-3.56 8.79A12.273 12.273 0 0 1 45 60.024" fill="#62D84E"/></g></svg>