<svg viewBox="0 0 90 90" xmlns="http://www.w3.org/2000/svg"><path d="M77.044 67.586c-3.658 1.325-6.13 1.914-9.99 2.296-4.71.463-9.077-.335-12.263-4.198-2.555-3.098-3.237-6.69-1.673-10.42 1.713-4.089 3.69-8.067 5.548-12.096.97-2.099 1.946-4.194 2.887-6.305.173-.389.24-.84.26-1.27.035-.785.197-1.646-.713-2.122-.93-.483-2.028-.397-2.713.468a21.735 21.735 0 0 0-2.249 3.483c-2.11 4.04-4.15 8.12-6.21 12.189-1.544 3.05-3.06 6.116-4.616 9.158-1.477 2.886-4.249 3.986-7.258 2.862-1.012-.381-1.646-1.124-1.82-2.26-.24-1.608.288-3.05.86-4.49 1.248-3.152 2.512-6.296 3.76-9.449.67-1.69 1.34-3.38 1.965-5.086.442-1.19.571-2.457.06-3.628-.398-.904-1.178-1.557-2.273-1.458-1.197.106-2.138.73-2.591 1.84-1.587 3.91-3.111 7.849-4.67 11.772-1.867 4.693-3.707 9.402-5.652 14.064-.72 1.722-1.808 3.294-3.635 4.029a8.481 8.481 0 0 1-2.97.621c-3.11.04-5.792-.994-7.627-3.632-1.461-2.087-1.816-4.418-1.11-6.887.653-2.283 1.303-4.567 1.988-6.84.65-2.153 1.335-4.3 2.008-6.445.626-2.001 1.213-4.018 1.895-5.999 1.339-3.903 2.418-7.92 4.536-11.501 1.45-2.449 3.8-3.774 6.494-4.595 2.816-.857 5.218.22 7.62 1.415.914.452 1.812.935 2.75 1.329 1.307.546 2.496.2 3.552-.657.862-.7 1.732-1.403 2.528-2.177 1.989-1.938 6.281-2.296 8.38-.044.485.52 1.056.955 1.587 1.427 1.099.967 1.552 1.07 2.824.35 3.024-1.702 6.155-1.466 9.23-.377 1.785.632 2.856 2.15 3.537 3.942 1.005 2.642.583 5.189-.421 7.673-1.851 4.567-3.867 9.064-5.671 13.647-1.071 2.72-1.973 5.515-2.745 8.334-.315 1.147-.315 2.511-.023 3.663.44 1.745 2.043 2.32 3.666 2.524 2.47.31 4.891-.146 7.254-.798 2.02-.555 6.654 4.579 3.704 5.648Z" fill="#ED1C40"/></svg>