<svg viewBox="0 0 90 90" xmlns="http://www.w3.org/2000/svg"><g fill="none"><path fill="#FFF" d="M0 0h89.886v89.886H0z"/><path d="M78.358 14.983h-66.83c-5.628 0-10.206 4.579-10.206 10.206v39.507c0 5.628 4.578 10.207 10.205 10.207h66.831c5.628 0 10.207-4.578 10.207-10.207V25.19c0-5.627-4.579-10.206-10.207-10.206Z" fill="#CC2229"/><path d="M83.955 64.696a5.603 5.603 0 0 1-5.597 5.598h-66.83a5.604 5.604 0 0 1-5.598-5.598V25.19a5.604 5.604 0 0 1 5.597-5.597h66.831a5.603 5.603 0 0 1 5.597 5.597v39.507Z" fill="#FFF"/><path d="M29.64 24.862c8.884 0 13.82 6.91 13.82 18.758 0 11.857-3.954 21.405-13.82 21.405H12.52V24.862h17.12Zm37.535 0c8.556 0 15.14 13.503 1.973 19.422 13.484 1.646 11.192 20.74-2.974 20.74H48.07V24.862h19.104Zm-4.61 23.04H57.29V58.77h5.273c7.23 0 7.23-10.866 0-10.866Zm-35.898-17.12h-4.938v27.986h4.938c4.61 0 7.583-3.619 7.583-14.157 0-10.529-2.973-13.83-7.583-13.83Zm34.897 0h-4.273v10.201h4.273c6.92 0 6.92-10.202 0-10.202Z" fill="#CC2229"/></g></svg>