<svg viewBox="0 0 90 90" xmlns="http://www.w3.org/2000/svg"><g fill="none"><path d="M32.63 0c-4.92.004-8.901 3.996-8.897 8.916a8.909 8.909 0 0 0 8.9 8.915h8.902V8.92C41.538 4 37.553.007 32.63 0c.004 0 .004 0 0 0m0 23.78H8.901A8.909 8.909 0 0 0 0 32.696c-.007 4.92 3.978 8.912 8.897 8.919H32.63a8.909 8.909 0 0 0 8.901-8.916c.004-4.923-3.981-8.915-8.9-8.92Z" fill="#36C5F0"/><path d="M90.031 32.696a8.909 8.909 0 0 0-8.9-8.916 8.909 8.909 0 0 0-8.902 8.916v8.919h8.901c4.92-.004 8.905-3.996 8.901-8.92Zm-23.732 0V8.916A8.91 8.91 0 0 0 57.4 0a8.909 8.909 0 0 0-8.9 8.916v23.78c-.007 4.92 3.978 8.912 8.897 8.919 4.92-.004 8.905-3.996 8.902-8.92Z" fill="#2EB67D"/><path d="M57.401 90a8.909 8.909 0 0 0 8.901-8.916 8.909 8.909 0 0 0-8.9-8.915H48.5v8.915C48.496 86 52.482 89.993 57.4 90Zm23.733-23.784c4.92-.003 8.904-3.996 8.901-8.915.007-4.92-3.978-8.912-8.898-8.92H57.405a8.909 8.909 0 0 0-8.901 8.916c-.004 4.923 3.978 8.916 8.897 8.92h23.733Z" fill="#ECB22E"/><path d="M.002 57.3a8.909 8.909 0 0 0 8.9 8.916 8.909 8.909 0 0 0 8.902-8.915v-8.916H8.903a8.909 8.909 0 0 0-8.901 8.916Zm23.732 23.78c-.007 4.92 3.978 8.913 8.898 8.92a8.91 8.91 0 0 0 8.901-8.916V57.308c.007-4.92-3.978-8.912-8.897-8.92-4.924 0-8.905 3.993-8.902 8.913v23.78Z" fill="#E01E5A"/></g></svg>