<svg viewBox="0 0 90 90" xmlns="http://www.w3.org/2000/svg"><g fill="none" fill-rule="evenodd"><path fill="#0062C4" d="M0 0h90v90H0z"/><path d="M42.792 10.04c-.01.02-.41.06-.88.1-.47.04-1.011.09-1.201.12-1.08.15-2.43.38-3.001.51-.36.08-.72.16-.8.18-1.5.33-3.592 1.01-5.252 1.7-9.644 4.002-17.076 12.175-20.147 22.159-.37 1.23-.89 3.451-1.05 4.551-.02.16-.08.5-.12.75-.211 1.311-.291 2.732-.291 4.953.01 1.94.07 3.27.2 4.061.02.13.06.46.1.74.09.76.16 1.16.25 1.6.05.22.11.531.14.701.2 1.06.62 2.621 1.11 4.051 1.631 4.752 4.072 8.844 7.503 12.585.68.75 2.561 2.54 3.241 3.081.13.1.28.24.35.29.51.48 4.062 2.951 4.222 2.951.02 0 .23.12.46.26.74.47 3.121 1.62 4.392 2.121 2.72 1.08 5.522 1.84 8.043 2.17.22.02.56.07.75.1 1.96.281 6.552.271 8.503-.01 5.932-.86 10.644-2.64 15.305-5.771 6.343-4.262 11.204-10.684 13.625-18.027.71-2.14 1.32-4.851 1.53-6.802.04-.33.09-.71.11-.85.091-.47.111-5.252.03-6.052-.15-1.651-.21-2.201-.24-2.251-.02-.03-.06-.3-.1-.6-.07-.55-.58-2.982-.75-3.552-1.92-6.482-4.751-11.294-9.253-15.725-1.68-1.661-1.93-1.881-3.601-3.132-2.981-2.23-6.562-4.121-9.864-5.201-1.74-.57-4.061-1.14-5.542-1.36-.27-.04-.57-.09-.65-.1a8.85 8.85 0 0 0-.76-.09c-.33-.04-.74-.09-.9-.111-.33-.05-5.402-.14-5.462-.1Zm4.221 6.312c.96.05 1.18.08 2.451.26 1.01.14 2.811.56 3.931.9 6.723 2.071 12.395 6.473 16.146 12.525.92 1.48 2.581 5.022 2.581 5.502 0 .07.04.17.09.22.13.15.78 2.551 1 3.712.37 1.9.53 3.54.53 5.592 0 2.2-.14 3.54-.66 6.222-.13.63-.62 2.3-1.01 3.37-.57 1.602-.73 1.962-.88 1.972-.06 0-1.91.02-4.092.03l-3.981.02v-24.52l-.73.761a669.73 669.73 0 0 1-4.122 4.332c-.79.81-3.881 4.051-4.441 4.651-.24.25-1.21 1.27-2.161 2.261-.95.99-1.92 2-2.15 2.251-.231.25-1.151 1.21-2.042 2.14-.88.921-1.8 1.881-2.03 2.132l-.43.44-.27-.29c-.85-.88-4.952-5.152-5.993-6.223-.66-.69-1.41-1.46-1.65-1.71-.24-.26-1.29-1.36-2.341-2.441-1.04-1.09-2.1-2.19-2.351-2.451-.25-.26-1.3-1.36-2.35-2.44-1.041-1.091-2.162-2.262-2.502-2.622-.33-.35-.63-.64-.66-.64-.03 0-.06 5.442-.06 12.084 0 6.653-.02 12.135-.06 12.195-.08.13-7.933.12-8.053-.02-.09-.09-.81-1.841-.87-2.091-.01-.06-.05-.18-.08-.26-.62-1.62-1.21-4.512-1.42-6.973-.08-.92-.09-3.561 0-4.531.31-3.762 1.46-7.723 3.18-11.004 3.041-5.782 7.873-10.304 13.925-13.025 1.26-.57 3.572-1.36 4.482-1.54.1-.02.26-.05.35-.08.09-.03.28-.07.42-.1.14-.03.59-.12 1-.2.42-.08.981-.18 1.251-.21.28-.04.61-.08.75-.11.14-.02.84-.07 1.55-.1.721-.04 1.311-.07 1.321-.08.03-.03 1.23.02 2.431.09Zm9.954 38.334v7.483l1.3.02c.72.01 3.211.02 5.532.02l4.242.01-.33.42c-.19.24-.36.45-.39.48-.03.03-.3.34-.6.7-1.091 1.29-3.482 3.501-4.852 4.482-2.651 1.89-5.733 3.401-8.714 4.271-1.98.58-3.58.88-5.942 1.11-.62.06-3.731.06-4.401 0-4.412-.41-8.033-1.51-11.855-3.61-3.05-1.671-6.512-4.652-8.603-7.383l-.35-.46h3.482c1.91 0 4.381-.01 5.491-.01h2.031l.02-7.363.03-7.363.45.45c.25.25 2.121 2.151 4.162 4.232 2.04 2.09 4.531 4.622 5.532 5.642l1.81 1.85.72-.75c.39-.41 1.581-1.65 2.632-2.75 1.06-1.1 2.16-2.261 2.46-2.571 1.991-2.091 3.732-3.912 4.242-4.442l1.24-1.28c.34-.36.64-.66.65-.66 0 0 .01 3.36.01 7.472Z" fill="#FFF" fill-rule="nonzero"/></g></svg>