<svg viewBox="0 0 90 90" xmlns="http://www.w3.org/2000/svg"><g fill="none"><path fill="#FFF" d="M80.91 49.087 70.04 42.89l-1.878-.804-44.46.307V64.82h57.199z"/><path d="M61.118 62.751c.53-1.81.328-3.476-.559-4.71-.81-1.13-2.177-1.791-3.825-1.868l-31.182-.402a.602.602 0 0 1-.482-.25c-.106-.152-.125-.353-.077-.555a.86.86 0 0 1 .733-.555l31.46-.402c3.72-.173 7.777-3.17 9.193-6.847l1.802-4.654a.93.93 0 0 0 .048-.603C66.215 32.8 58.035 26 48.254 26c-9.019 0-16.67 5.793-19.406 13.818a9.364 9.364 0 0 0-6.456-1.791c-4.337.431-7.805 3.878-8.23 8.178a9.26 9.26 0 0 0 .232 3.198c-7.063.201-12.72 5.937-12.72 13.013 0 .632.049 1.255.126 1.887a.618.618 0 0 0 .607.526h57.555a.78.78 0 0 0 .732-.555l.424-1.523Z" fill="#F38020"/><path d="M71.053 42.844c-.28 0-.578 0-.858.028-.202 0-.376.154-.453.355l-1.214 4.203c-.53 1.81-.328 3.476.559 4.712.81 1.13 2.178 1.79 3.825 1.867l6.64.402a.6.6 0 0 1 .481.249.698.698 0 0 1 .077.555.86.86 0 0 1-.732.556l-6.919.402c-3.748.172-7.776 3.17-9.192 6.847l-.51 1.283c-.107.249.076.507.356.507h23.742a.62.62 0 0 0 .608-.45 17.13 17.13 0 0 0 .635-4.577c0-9.336-7.65-16.94-17.045-16.94" fill="#FAAE40"/></g></svg>