<svg viewBox="0 0 90 90" xmlns="http://www.w3.org/2000/svg"><g fill="none"><path fill="#FFF000" d="M0 0h89.886v89.886H0z"/><path d="M45 20c-10.515 0-19 8.5-19 19.033V66.01a4.973 4.973 0 0 0 1.453 3.534A4.956 4.956 0 0 0 30.981 71a4.956 4.956 0 0 0 3.527-1.455 4.973 4.973 0 0 0 1.453-3.534V55.663c2.767 1.478 5.719 2.403 9.039 2.403 10.515 0 19-8.5 19-19.033C63.816 28.5 55.33 20 45 20Zm0 28.087c-4.98 0-9.039-4.065-9.039-9.054s4.059-9.055 9.04-9.055c4.98 0 9.038 4.066 9.038 9.055 0 4.99-4.059 9.054-9.039 9.054Z" fill="#000"/></g></svg>