<svg viewBox="0 0 90 90" xmlns="http://www.w3.org/2000/svg"><path d="M19.776 44.052a4.777 4.777 0 0 1 3.377 1.4L44.534 66.83a4.744 4.744 0 0 1 0 6.754A4.668 4.668 0 0 1 41.157 75a4.771 4.771 0 0 1-3.377-1.416L16.399 52.205a4.778 4.778 0 0 1 1.55-7.79c.579-.24 1.2-.363 1.827-.363Zm3.394-27.655 50.41 50.4a4.786 4.786 0 0 1-3.374 8.16 4.717 4.717 0 0 1-3.374-1.413l-50.434-50.4a4.787 4.787 0 0 1 6.772-6.747ZM48.83 15c1.267 0 2.482.503 3.377 1.399l21.381 21.38a4.743 4.743 0 0 1 0 6.753 4.67 4.67 0 0 1-3.377 1.416 4.77 4.77 0 0 1-3.377-1.416l-21.381-21.38A4.776 4.776 0 0 1 48.829 15Z" fill="#16CB3E"/></svg>