<svg viewBox="0 0 90 90" xmlns="http://www.w3.org/2000/svg"><defs><linearGradient x1="-.04%" y1="7.069%" x2="-.04%" y2="99.765%" id="a"><stop stop-color="#EB2023" offset="0%"/><stop stop-color="#E92026" offset="9.627%"/><stop stop-color="#E31E27" offset="20.386%"/><stop stop-color="#E01E26" offset="29.864%"/><stop stop-color="#D81F27" offset="40.43%"/><stop stop-color="#CF2027" offset="50%"/><stop stop-color="#C62127" offset="60%"/><stop stop-color="#B92025" offset="70%"/><stop stop-color="#AE1F23" offset="80%"/><stop stop-color="#A01D22" offset="90%"/><stop stop-color="#901C1C" offset="100%"/></linearGradient><linearGradient x1="11.451%" y1="88.182%" x2="98.991%" y2="39.5%" id="b"><stop stop-color="#6C221F" offset="0%"/><stop stop-color="#7F2620" offset="24.913%"/><stop stop-color="#982B24" offset="49.826%"/><stop stop-color="#B53125" offset="74.913%"/><stop stop-color="#CB3327" offset="100%"/></linearGradient><linearGradient x1="22.534%" y1="67.462%" x2="98.683%" y2="37.42%" id="c"><stop stop-color="#E7EBEE" offset="0%"/><stop stop-color="#DFE4E8" offset="24.913%"/><stop stop-color="#CAD1D7" offset="49.826%"/><stop stop-color="#A8B5BD" offset="74.913%"/><stop stop-color="#93A6AD" offset="100%"/></linearGradient><linearGradient x1="44.072%" y1=".03%" x2="44.072%" y2="99.944%" id="d"><stop stop-color="#05AEE9" offset="0%"/><stop stop-color="#00A9E0" offset="9.627%"/><stop stop-color="#07A3DC" offset="20.386%"/><stop stop-color="#089DD5" offset="29.864%"/><stop stop-color="#0A92CC" offset="40.43%"/><stop stop-color="#0F87C3" offset="50%"/><stop stop-color="#127CB8" offset="60%"/><stop stop-color="#0E70AD" offset="70%"/><stop stop-color="#0F63A3" offset="80%"/><stop stop-color="#135393" offset="90%"/><stop stop-color="#184485" offset="100%"/></linearGradient></defs><g fill="none"><path d="m29.534 47.922 7.648 12.592C39.552 64.287 43.458 66 48.325 66H68L44.966 38.344 41.698 36.5l-8.624 2.788-4.37 6.266.83 2.368Z" fill="url(#a)" transform="translate(11 12)"/><path d="m44.966 38.344-4.809-5.775-12.709 6.773 1.348 6.836.738 1.744c-.289-4.633 7.74-10.012 15.432-9.578Z" fill="url(#b)" transform="translate(11 12)"/><path d="m29.534 47.922-6.876-11.264c-.828-1.278-1.055-2.396-1.055-3.699 0-1.433.616-2.218 2.984-3.463 2.758-1.308 8.311-1.877 14.036-1.877 9.302 0 11.532 2.958 12.482 6.15 0 0-1.314-.518-4.403-.518-9.8 0-17.633 4.713-17.633 11.85 0 1.497.465 2.821.465 2.821Z" fill="url(#c)" transform="translate(11 12)"/><path d="M0 0h9.25c3.9 0 5.5 1.581 7.078 3.132C18.134 4.76 23.61 12.104 35.19 26.44H22.658c-5.125 0-6.746-.865-8.728-3.86L0 0Z" fill="url(#d)" transform="translate(11 12)"/></g></svg>