<svg viewBox="0 0 90 90" xmlns="http://www.w3.org/2000/svg"><defs><linearGradient x1="50.1%" y1="1.23%" x2="50.1%" y2="101.218%" id="a"><stop stop-color="#94D9FE" offset="0%"/><stop stop-color="#36A0FC" offset="100%"/></linearGradient><linearGradient x1="50.035%" y1="14.961%" x2="50.035%" y2="101.395%" id="b"><stop stop-color="#5DC6FF" offset="0%"/><stop stop-color="#0288FD" offset="100%"/></linearGradient></defs><g fill="none"><path d="M42.942 50.396C36.86 63.099 31.402 76.759 26.66 90H0c4.384-14.672 9.304-29.853 15.477-43.81 4.384-9.124 8.946-18.518 16.014-25.943 3.4-3.668 7.962-6.084 12.883-7.247.358 10.646.715 22.354.626 33 .09.09-1 2.5-2.058 4.396Z" fill="url(#a)"/><path d="M90 .245c-3.5-.245-6.262.27-9.215 1.35C72.197 5.558 65.398 12.58 60.03 20.232 53.32 29.773 46.252 42.467 45 45.438c-1.252 2.97-4.205 9.362-4.205 9.362C35.427 66.324 31.5 76.5 26.66 90H90V.245Z" fill="url(#b)"/></g></svg>