<svg viewBox="0 0 90 90" xmlns="http://www.w3.org/2000/svg"><path d="M37.963 22.47c2.706-2.83 6.474-4.584 10.641-4.584 5.54 0 10.372 3.099 12.946 7.7a17.84 17.84 0 0 1 7.317-1.56c9.991 0 18.091 8.198 18.091 18.31 0 10.114-8.1 18.312-18.09 18.312a17.84 17.84 0 0 1-3.564-.356c-2.267 4.057-6.586 6.797-11.543 6.797-2.075 0-4.038-.48-5.786-1.336-2.297 5.423-7.65 9.225-13.889 9.225-6.497 0-12.034-4.125-14.16-9.91-.928.198-1.89.301-2.878.301-7.735 0-14.006-6.357-14.006-14.2 0-5.256 2.818-9.845 7.004-12.3a16.303 16.303 0 0 1-1.341-6.495c0-9.02 7.297-16.332 16.299-16.332 5.284 0 9.981 2.521 12.959 6.428" fill="#00A1E0"/></svg>