<svg viewBox="0 0 90 90" xmlns="http://www.w3.org/2000/svg"><g fill="none" fill-rule="evenodd"><path fill="#000" d="M0 0h90v90H0z"/><path fill="#FFF" d="m32.763 72 .856-1.954 1.264-1.956 2.73-3.042 2.323-2.563 1.077-1.57.819-1.62.445-1.863v-1.567l-.558-1.569-.947-1.291-2.137.83-1.468.148-1.524-.073-1.913-.426-1.896-.68-.966.441-.948.239-2.899.979-.724.569-.446 1.55-.39.665-.688.256-.705.093h-1.375l-1.747-.258-4.293-1.843-.78-.902-.483-1.329-.224-1.66L15 49.647l.166-.588 1.024-.997v-1.051l14.047-10.586v-1.087l.39-1.033 6.855-4.187-.222-.774.13-.533.928-1.956v-.332l-1.244-.59-1.3-.13-.873.075-1.655.46-.54-.204.282-.756.333-.57.874-1.216.613-.813.78-.59 1.375-.902 2.118-1.016 1.691-.48 1.599.94.65-1.327 1.97-.276L46.904 19l1.915.129 1.559.24 2.49 1.014-.185 1.898 1.505-1.4 1.859.774L58.5 22.78l1.653 1.014 2.34 1.753 2.492 2.728-.151 1.512 1.879-.09 1.207.883 2.267 2.214 1.208 1.512 1.02 1.735 1.265 2.82-1.672 1.77 2.005.517.54 1.992.241 2.101.206 2.951-.15 4.113-.409 3.891-1.745 1.05 1.43 1.089-.39 4.556-.873 2.821-1.952 2.672L67.083 72z"/></g></svg>