<svg viewBox="0 0 90 90" xmlns="http://www.w3.org/2000/svg" xmlns:xlink="http://www.w3.org/1999/xlink"><defs><path id="a" d="M0 0h90v90H0z"/></defs><g fill="none" fill-rule="evenodd"><path fill="#6BAA44" d="M0 0h90v90H0z"/><mask id="b" fill="#fff"><use xlink:href="#a"/></mask><use fill="#6BAA44" xlink:href="#a"/><g mask="url(#b)" fill="#FFF" fill-rule="nonzero"><path d="M105.059 32.032C86.724 4.587 47.212 9.515 29.96 29.772 21.328 39.9 18.063 54 19.228 66.908c.908 10.03 4.675 19.362 9.657 25.532 13.445 16.655 37.089 18.664 52.47 7.85 21.716-15.262 20.172-40.004 8.496-53.767-20.868-24.6-57.031-.37-43.697 27.614 3.267 6.855 10.832 10.348 17.624 10.26 9.712-.13 17.047-11.79 12.728-18.678-4.524-7.223-12.243-.033-9.06 5.436 2.552 4.39-3.024 6.617-5.464 6.09-6.34-1.366-9.369-10.398-7.175-17.743 1.888-6.3 8.411-10.827 14.687-10.424 8.726.553 18.496 7.5 17.32 22.9-1.898 24.847-33.86 29.637-46.529 11.684-19.963-28.283 3.736-66.76 39.436-55.139 18.486 6.02 32.03 28.27 23.546 51.641-3.184 8.786-5.136 12.096-5.504 15.11-1.44 11.734 33.885-23.446 7.296-63.244"/></g></g></svg>