<svg viewBox="0 0 90 90" xmlns="http://www.w3.org/2000/svg"><g fill="none" fill-rule="evenodd"><path d="M85 45.036C85 22.926 67.072 5 45.036 5 22.926 5 5 22.927 5 45.036 5 67.072 22.927 85 45.036 85 67.072 85 85 67.072 85 45.036Z" fill="#FFF"/><path d="M51.898 61.874c8.574-1.013 17.693-4.13 17.693-18.94 0-4.209-1.482-7.64-3.896-10.29.39-1.012 1.635-4.832-.47-10.131 0 0-3.118-1.014-10.443 3.896-3.118-.856-6.547-1.403-9.742-1.403-3.275 0-6.705.547-9.745 1.403-7.405-4.91-10.522-3.896-10.522-3.896-2.104 5.3-.857 9.12-.468 10.131-2.416 2.65-3.897 6.081-3.897 10.29 0 14.81 9.119 17.927 17.693 18.94-1.09.937-2.104 2.728-2.493 5.222-2.184.935-7.874 2.729-11.303-3.195 0 0-2.027-3.663-5.845-3.896 0 0-3.82-.078-.312 2.336 0 0 2.571 1.17 4.287 5.612 0 0 2.338 7.406 13.093 5.067v6.624c0 1.016-.778 2.184-2.726 1.872C17.524 76.45 6.534 61.951 6.534 44.96c0-21.279 17.225-38.503 38.506-38.503 21.2 0 38.503 17.224 38.426 38.503 0 16.991-10.991 31.411-26.268 36.556-1.95.39-2.728-.778-2.728-1.872V68.968c0-3.588-1.17-5.924-2.572-7.094ZM0 0h90v90H0V0Z" fill="#000"/></g></svg>