<svg viewBox="0 0 90 90" xmlns="http://www.w3.org/2000/svg"><g fill="none" fill-rule="evenodd"><path fill="#FFF" d="M0 0h90v90H0z"/><g fill-rule="nonzero"><path fill="#FFF" d="M0 0h89.886v89.886H0z"/><path d="M19.078 37.44c0-11.146 6.145-22.006 18.434-22.006 12.433 0 18.72 10.575 18.72 22.007 0 11.29-5.572 22.007-18.72 22.007-12.86 0-18.434-11.003-18.434-22.007Zm-11.433 0c0 19.007 10.861 32.297 29.867 32.297 19.15 0 30.153-13.29 30.153-32.296 0-18.435-11.146-32.153-30.153-32.153-18.863 0-29.867 13.718-29.867 32.153ZM64.95 84.6v-4.431c2.286-2.144 11.146-9.575 11.146-14.29 0-2.43-2.144-3.573-4.144-3.573-2.286 0-4.43 1-6.146 2.144l-.428-4.43c2.43-1.144 5.144-1.858 7.86-1.858 4.859 0 8.002 2.572 8.002 7.717 0 5.43-5.573 10.574-9.718 14.576H82.24V84.6H64.95Z" fill="#294993"/></g></g></svg>