<svg viewBox="0 0 90 90" xmlns="http://www.w3.org/2000/svg"><g fill="none"><path d="M31.546 2.463C20.86 6.213 11.755 14.413 6.683 24.79a45.316 45.316 0 0 0-3.821 11.32c-1.934 9.773-.59 20.199 3.798 29.1 2.854 5.806 6.958 10.983 11.912 15.022 4.694 3.822 10.143 6.677 15.946 8.25 7.312 2.007 15.096 1.959 22.456.241 6.652-1.572 12.95-4.838 17.975-9.579 5.307-5.007 9.105-11.587 11.11-18.674 2.193-7.717 2.477-15.966 1.108-23.9h-41.28v17.562h23.92c-.92 5.612-4.176 10.74-8.776 13.909-2.901 2.008-6.227 3.29-9.671 3.919-3.444.604-7.03.677-10.473-.025-3.515-.725-6.841-2.225-9.766-4.33-4.67-3.362-8.232-8.272-10.049-13.812-1.863-5.636-1.887-11.901 0-17.513 1.321-3.967 3.491-7.62 6.37-10.62 3.537-3.725 8.137-6.385 13.114-7.474 4.246-.92 8.728-.75 12.88.532 3.538 1.089 6.793 3.097 9.459 5.709l8.067-8.273c1.415-1.475 2.901-2.903 4.27-4.427-4.081-3.87-8.893-6.99-14.13-8.974-9.435-3.58-20.05-3.653-29.556-.29Z" fill="#FFF"/><path d="M31.546 2.463c9.482-3.363 20.12-3.29 29.556.266 5.237 1.983 10.025 5.08 14.13 8.974-1.369 1.524-2.855 2.951-4.27 4.427l-8.067 8.273c-2.666-2.613-5.92-4.596-9.46-5.709a25.283 25.283 0 0 0-12.879-.532c-4.953 1.088-9.553 3.75-13.115 7.475-2.878 2.975-5.048 6.652-6.369 10.619-4.788-3.822-9.577-7.62-14.389-11.442C11.755 14.413 20.86 6.212 31.546 2.463Z" fill="#EA4335"/><path d="M2.886 36.086a45.648 45.648 0 0 1 3.82-11.32c4.79 3.822 9.578 7.62 14.39 11.441-1.887 5.637-1.887 11.902 0 17.514A5941.703 5941.703 0 0 1 6.73 65.162C2.296 56.285.951 45.86 2.886 36.086Z" fill="#FBBC05"/><path d="M45.887 36.546h41.28c1.369 7.91 1.062 16.159-1.108 23.9-2.005 7.087-5.803 13.667-11.11 18.674L61.008 68.017c4.6-3.17 7.855-8.297 8.775-13.91h-23.92c.024-5.853.024-11.707.024-17.561Z" fill="#4285F4"/><path d="M6.683 65.187c4.789-3.798 9.577-7.62 14.366-11.442 1.84 5.54 5.378 10.45 10.048 13.812 2.925 2.105 6.275 3.604 9.766 4.33 3.444.726 7.006.629 10.473.024 3.444-.629 6.77-1.91 9.672-3.918l13.94 11.103c-5.024 4.765-11.322 8.006-17.974 9.579-7.36 1.717-15.144 1.766-22.456-.242-5.803-1.573-11.252-4.403-15.946-8.249-4.93-4.015-9.034-9.192-11.889-14.997Z" fill="#34A853"/></g></svg>