<svg viewBox="0 0 90 90" xmlns="http://www.w3.org/2000/svg"><defs><linearGradient x1="50%" y1="0%" x2="50%" y2="100%" id="a"><stop stop-color="#505050" offset="0%"/><stop stop-color="#323232" offset="100%"/></linearGradient><linearGradient x1="50%" y1="-92.755%" x2="50%" y2="258.175%" id="b"><stop stop-color="#505050" offset="0%"/><stop stop-color="#323232" offset="100%"/></linearGradient></defs><g fill="none" fill-rule="evenodd"><path fill="url(#a)" d="M0 0h90v90H0z"/><path d="m32.169 60.098-14.42 3.605 3.082-12.327C17.78 47.356 16 42.524 16 37.326 16 23.34 28.886 12 44.782 12s28.782 11.339 28.782 25.326c0 13.988-12.886 25.327-28.782 25.327-4.524 0-8.804-.919-12.613-2.555Z" fill="#FFF" fill-rule="nonzero"/><path d="M28.778 11.81c4.516 0 8.169 3.654 8.169 8.153v3.261h.32c.726 0 1.313.587 1.313 1.312v11.507c0 .725-.587 1.312-1.312 1.312H20.296a1.312 1.312 0 0 1-1.312-1.312V24.536c0-.725.587-1.312 1.312-1.312h.32v-3.261c0-4.499 3.654-8.153 8.162-8.153Zm.002 3.261a4.896 4.896 0 0 0-4.897 4.892v3.261h9.798v-3.26c0-2.7-2.192-4.893-4.901-4.893Z" fill="url(#b)" transform="translate(16 12)"/><path d="M49.677 74.025a4.897 4.897 0 1 1-9.794 0 4.898 4.898 0 1 1 9.794 0Zm-17.668 0a4.897 4.897 0 1 1-9.793 0 4.898 4.898 0 1 1 9.793 0Zm35.335 0a4.897 4.897 0 1 1-9.794 0 4.898 4.898 0 1 1 9.794 0Z" fill="#3FE669" fill-rule="nonzero"/></g></svg>