<svg viewBox="0 0 90 90" xmlns="http://www.w3.org/2000/svg"><g fill="none" fill-rule="evenodd"><path fill="#B92B27" d="M0 0h90v90H0z"/><path d="M74.009 65.75s-.322 4.734-4.61 4.734c-3.312 0-5.574-2.535-7.692-5.827 6.016-5.269 9.836-13.138 9.836-21.93C71.543 26.86 59.11 14 43.776 14 28.441 14 16.01 26.861 16.01 42.726c0 15.865 12.432 28.727 27.767 28.727 2.783 0 5.47-.426 8.004-1.214 3.207 5.113 7.279 9.71 13.652 9.71 12.972 0 13.508-14.199 13.508-14.199H74.01Zm-30.233.969c-8.94 0-16.188-10.742-16.188-23.993 0-13.25 7.247-23.992 16.188-23.992 8.94 0 16.188 10.742 16.188 23.992 0 5.27-1.147 10.14-3.09 14.099-2.194-3.145-4.829-5.823-8.595-6.675-6.682-1.512-12.436 1.506-14.259 3.013l1.715 3.55s1.734-1 6.034-.001c2.71.63 4.815 4.402 7.227 8.731-1.637.827-3.393 1.276-5.22 1.276Z" fill="#FFF" fill-rule="nonzero"/></g></svg>