<svg viewBox="0 0 90 90" xmlns="http://www.w3.org/2000/svg"><defs><linearGradient x1="50%" y1="0%" x2="50%" y2="100%" id="a"><stop stop-color="#FE349C" offset="0%"/><stop stop-color="#E20074" offset="100%"/></linearGradient></defs><g fill="none" fill-rule="evenodd"><path fill="url(#a)" d="M0 0h90v90H0z"/><g fill="#FFF" fill-rule="nonzero"><path d="M23 54.667V43.972h10.62v10.695H23Zm33.38 0V43.972H67v10.695H56.38Z"/><path d="M41.207 20.658c-4.46.138-8.436 1.666-10.955 4.553-2.382 2.75-3.869 7.028-4.415 12.711L23 37.418 23.546 18H66.47L67 37.418l-2.837.504c-.546-5.744-2.033-9.96-4.415-12.71-2.519-2.888-6.494-4.416-10.955-4.554v40.578c0 3.53.865 5.836 1.897 6.89.85.917 2.139 1.467 4.172 1.65.637.046 1.593.092 3.035.092V73H32.103v-3.117c1.442 0 2.398-.045 3.035-.091 2.033-.184 3.308-.734 4.172-1.65 1.032-1.054 1.897-3.346 1.897-6.89V20.657Z"/></g></g></svg>