<svg viewBox="0 0 90 90" xmlns="http://www.w3.org/2000/svg"><g fill="none" fill-rule="evenodd"><path fill="#162C40" d="M0 0h90v90H0z"/><g fill-rule="nonzero"><path d="M71.543 17.45c-.197-.087-20.609-2.902-40.784 10.247-12.524 8.181-14.185 20.149-13.612 28.13 29.345-3.29 53.73-37.423 54.396-38.378ZM19.138 64.693c2.521 4.498 21.587 14.697 38.465.631C74.481 51.26 73.065 25.67 71.543 17.45c-.532 1.192-18.957 42.095-52.405 47.24" fill="#98E35D"/><path d="M71.543 17.45c-.197-.081-20.609-2.902-40.784 10.247-12.524 8.181-14.185 20.149-13.612 28.126 29.345-3.285 53.73-37.419 54.396-38.373Z" fill="#16B157"/></g></g></svg>