<svg viewBox="0 0 90 90" xmlns="http://www.w3.org/2000/svg"><g transform="translate(7 6)" fill="none"><path d="M25.934 0c7.077 0 8.761 9.397 22.723 9.397 8.81 0 9.304-3.64 13.365-3.64 1.66 0 2.604 3.175 2.604 5.292 0 8.366-2.15 17.719-.753 17.719 1.83 0 9.259-4.794 11.185-4.794 1.83 0 1.781 1.42 1.781 2.213 0 .794.562 14.656-18.214 25.578-.819.48-4.799 17.799-18.825 17.799-9.372 0-16.497-5.066-19.226-17.19C20.028 49.872 0 41.982 0 24.598c0-3.817.963-5.901 2.44-5.901 3.69 0 11.586 6.19 14.989 6.19 2.944 0 2.471-6.415 2.471-8.34C19.9 14.625 19.74 0 25.934 0Z" fill="#78C800"/><path d="M58.503 12.338c-1.276 0-1.584.658-2.037.247-.206-.206.885-.679.885-.885 0-.102-.165-.082-.39-.082-1.338 0-3.972 1.954-4.343 1.954-.165 0-.432.041-.432-.206 0-.555 1.873-1.028.576-1.028-1.297 0-3.21 1.666-5.206 1.666-4.116 0-7.429-3.228-7.429-2.427 0 .288.474.74.782 1.316 0 0 .185.864-.165.535-3.776-3.773-7.551-4.688-7.551-4.688s-.289 0-.289.123c0 .432.823 1.008.823 1.172 0 .165-.103.268-.267.268-.803 0-1.38-1.543-4.61-1.543-4.877 0-6.22 7.67-6.22 13.963 0 8.924 5.747 11.76 10.5 11.76 3.77 0 7.807-2.221 9.496-5.482l5.017.382s2.459 4.657 6.883 4.657c4.152 0 7.763-2.625 7.763-11.73 0-9.56-2.51-9.972-3.786-9.972Z" fill="#8EE000"/><ellipse fill="#FFF" cx="32.617" cy="23.096" rx="6.419" ry="7.799"/><path d="M59.941 24.569c-.203 3.789-2.767 6.78-5.726 6.68-2.96-.1-5.194-3.251-4.99-7.04.202-3.79 2.766-6.781 5.726-6.682 2.959.1 5.193 3.252 4.99 7.042Z" fill="#FFF"/><ellipse fill="#3F3F3F" cx="32.485" cy="23.096" rx="3.526" ry="4.285"/><ellipse fill="#FFF" cx="30.2" cy="20.378" rx="1.652" ry="1.783"/><path d="M57.523 24.568c-.161 2.227-1.651 3.968-3.327 3.888-1.677-.08-2.905-1.951-2.744-4.179.161-2.227 1.65-3.968 3.327-3.888 1.677.08 2.905 1.951 2.744 4.179Z" fill="#3F3F3F"/><path d="M40.822 32.087s-1.031 8.623 1.793 8.563c2.823-.06 2.703-4.191 2.685-4.24-.017-.05-4.478-4.323-4.478-4.323Z" fill="#71B200"/><path d="M54.022 21.974c.03.908-.604 1.664-1.415 1.69-.81.024-1.49-.692-1.52-1.6-.028-.909.605-1.665 1.416-1.69.81-.025 1.49.692 1.52 1.6Z" fill="#FFF"/><path d="M73.635 37.377c-3.71 5.407-11.473 9.674-12.747 9.674-1.444 0-.45-1.54-1.477-1.54-.93 0-1.123 16.196-17.717 16.196-18.648 0-18.231-19.275-20.029-19.275-1.315 0-.45 2.823-1.86 2.823-4.718 0-17.28-9.527-19.368-16.296 2.929 14.367 19.64 21.134 20.138 23.416 2.728 12.124 9.853 17.19 19.226 17.19 14.026 0 18.006-17.318 18.824-17.8 7.75-4.508 12.317-9.74 15.01-14.388Z" fill="#71B200"/><path d="M40.822 31.205s-.606 6.306 2.466 6.306c3.071 0 4.599-2.518 4.599-4.78 0-2.26-7.065-1.526-7.065-1.526Z" fill="#F49000"/><path d="M45.44 27.473c2.235 0 3.919 2.593 3.919 5.157 0 2.565-2.098 5.184-2.788 5.184s-5.767-4.715-5.767-6.728 1.932-3.613 4.636-3.613Z" fill="#FFC200"/><ellipse fill="#FFF3B8" transform="rotate(-86.836 45.365 28.974)" cx="45.365" cy="28.974" rx="1" ry="1.483"/><path d="M37.03 71.907c2.4-.126 4.122.385 4.235 2.537.112 2.154-2.811 2.717-4.365 2.798-1.555.08-3.314-.619-3.396-2.173-.081-1.552 1.358-3.048 3.526-3.162Zm14.744-4.402c2.29-.12 2.339 2.364 2.348 2.555.01.19.245 2.582-3.763 2.793-2.536.133-2.46-1.005-2.489-1.564-.029-.559 1-3.632 3.904-3.784Z" fill="#D98500"/></g></svg>