<svg viewBox="0 0 90 90" xmlns="http://www.w3.org/2000/svg"><g fill="none" fill-rule="evenodd"><path d="M18.61 34.863c-2.407 3.57-4.2 8.257-4.066 12.483.088.144.468.524.56.668 1.62-2.66 3.692-6.232 5.82-8.916a79.26 79.26 0 0 1-2.313-4.235m62.097 17.948c-1.759 2.331-3.942 4.555-6.483 6.607 3.531 8.623 3.836 15.592.07 18.632-4.667 3.765-14.416.557-25.105-7.355a82.532 82.532 0 0 1-2.649-2.041.095.095 0 0 1-.028.003l-.26-.235c-4.558-3.683-9.22-8.163-13.672-13.272-3.759-4.317-7.035-8.698-9.756-12.946-1.967 3.1-3.515 6.199-4.611 9.18 2.666 3.61 5.792 7.179 9.338 10.594a87.92 87.92 0 0 0 6.023 5.291 82.035 82.035 0 0 0 6.322 4.593c15.433 10.11 31.29 12.709 39.022 5.269 5.412-5.211 5.709-14.26 1.79-24.32" fill="#F3B6CE"/><path d="M37.85 22.48a98.927 98.927 0 0 0-8.295 7.145 95.757 95.757 0 0 0-8.63 9.473 79.673 79.673 0 0 0-5.63 8.041c-.077.124-.152.251-.227.375a18.743 18.743 0 0 0 2.08 7.267 35.28 35.28 0 0 1 1.066-3.396c1.096-2.982 2.644-6.08 4.61-9.18 2.212-3.482 4.952-6.966 8.176-10.285 4.098-4.22 8.525-7.71 12.933-10.35a39.395 39.395 0 0 0-6.083.91m41.069-9.937c-6.814-6.554-21.767-3.337-36.814 6.864a83.91 83.91 0 0 1 2.364 1.845c10.422-6.082 20.665-7.401 26.174-2.446 6.1 5.486 4.617 17.07-2.746 28.667a89.968 89.968 0 0 1 1.9 3.104c2.156-2.72 4.24-4.96 5.873-7.656 7.585-12.493 9.188-24.662 3.249-30.378" fill="#F2488F"/><path d="M44.469 21.252a83.91 83.91 0 0 0-2.364-1.845l-.4-.298c-.138.028-.277.052-.415.08-9.768 1.967-18.382 5.997-24.78 11.103-2.54 2.03-4.735 4.23-6.51 6.538-3.923 5.096-5.818 10.718-4.972 16.202.494 3.202 1.881 6.085 3.99 8.576 2.224 2.638 5.256 4.836 8.885 6.519 6.003 2.78 13.644 4.149 21.994 3.735a82.035 82.035 0 0 1-6.322-4.593c-7.452-2.193-13.416-6.692-16.426-12.488a18.743 18.743 0 0 1-2.081-7.267c-.014-.157-.022-.317-.03-.477-.006-.11-.012-.218-.015-.328-.133-4.226 1.18-8.276 3.588-11.846C22.569 28.996 29.494 24.42 37.85 22.48a39.395 39.395 0 0 1 6.083-.91l.275-.02c.197-.01.391-.022.588-.033-.108-.088-.219-.176-.327-.265m41.033 15.592C83.638 24.761 69.068 17.24 51.096 17.992a83.795 83.795 0 0 1 7.113 5.277c9.87 3.258 16.9 10.64 17.461 19.652.006.083.011.166.014.249.21 4.253-1.049 8.339-3.42 11.944-4.875 7.416-14.465 12.814-25.723 13.54.888.712 1.77 1.393 2.65 2.041l.05-.008c9.873-1.986 18.567-6.083 24.984-11.27 2.54-2.051 4.724-4.275 6.483-6.606 3.8-5.032 5.626-10.565 4.794-15.967" fill="#F27AAC"/><path d="M75.684 43.17a7.442 7.442 0 0 0-.014-.249c-3.237-5.164-7.44-10.353-12.5-15.222a88.536 88.536 0 0 0-4.96-4.43 83.795 83.795 0 0 0-7.114-5.277C35.58 7.735 19.58 5.062 11.806 12.543c-5.41 5.206-5.713 14.24-1.807 24.287 1.776-2.309 3.97-4.507 6.511-6.538-3.545-8.64-3.853-15.622-.083-18.664 4.694-3.788 14.523-.525 25.279 7.481a90.16 90.16 0 0 1 3.09 2.408c4.455 3.633 9 8.022 13.344 13.01 6.073 6.97 10.883 14.107 14.123 20.587 2.372-3.605 3.632-7.69 3.421-11.944" fill="#F3B6CE"/><path d="M67.897 47.473c-2.211 3.481-4.95 6.963-8.173 10.284-4.267 4.392-8.886 7.99-13.471 10.665-.159.094-.314.185-.472.273-10.095 5.757-19.958 7.015-25.44 2.403a10.31 10.31 0 0 1-.263-.226 10.578 10.578 0 0 1-2.175-2.745c-3.629-1.683-6.66-3.879-8.886-6.513-.832 3.514-.99 6.742-.416 9.495.5 2.359 1.554 4.441 3.204 6.028 7.305 7.031 23.975 2.819 40.08-9.192a97.398 97.398 0 0 0 9.282-7.893 95.47 95.47 0 0 0 8.63-9.475 89.968 89.968 0 0 0-1.9-3.104" fill="#F2488F"/></g></svg>