<svg viewBox="0 0 90 90" xmlns="http://www.w3.org/2000/svg"><g fill="none" fill-rule="evenodd"><path fill="#6EDA44" d="M0 0h90v90H0z"/><path d="M65.776 50.252c-3.496 0-6.77-1.51-9.747-3.969l.725-3.47.032-.129c.645-3.695 2.692-9.898 8.99-9.898 4.723 0 8.565 3.92 8.565 8.741-.016 4.804-3.858 8.725-8.565 8.725Zm0-26.32c-8.046 0-14.28 5.335-16.815 14.109-3.874-5.93-6.802-13.048-8.518-19.041h-8.66v22.993c0 4.531-3.621 8.226-8.061 8.226-4.44 0-8.061-3.695-8.061-8.226V19H7v22.993c-.031 9.416 7.479 17.144 16.705 17.144 9.227 0 16.737-7.728 16.737-17.144v-3.856c1.685 3.583 3.747 7.198 6.25 10.412L41.387 74h8.865l3.842-18.462c3.369 2.202 7.242 3.584 11.682 3.584C75.27 59.122 83 51.184 83 41.495c0-9.673-7.73-17.562-17.225-17.562Z" fill="#FFF" fill-rule="nonzero"/></g></svg>