<svg viewBox="0 0 90 90" xmlns="http://www.w3.org/2000/svg"><path d="M61.962 24.788c11.076 0 19.903 9 19.903 19.904s-9 19.904-19.903 19.904c-4.154 0-8.135-1.211-11.424-3.634-.865-.693-4.326-3.289-9.173-6.058-7.096-3.98-13.327-6.23-18.519-6.577 1.385-1.212 2.77-2.596 4.154-3.808 14.02-12.807 26.48-19.73 34.962-19.73m0-7.789C36.346 17 .692 60.788.692 60.788S-.346 62 .173 62.52c.173.173.173.173.346.173.52 0 1.385-.519 1.385-.519s9.346-6.058 19.558-6.058c10.211 0 24.403 11.077 24.403 11.077 4.5 3.289 10.039 5.193 16.097 5.193 15.23 0 27.692-12.462 27.692-27.693C89.654 29.462 77.192 17 61.962 17Z" fill="#307FE2"/></svg>