<svg viewBox="0 0 90 90" xmlns="http://www.w3.org/2000/svg"><g fill="none" fill-rule="evenodd"><path fill="#000" d="M0 0h90v90H0z"/><path d="M71.628 57.817C66.61 69.334 56.282 75.362 45.252 75.222c-21.159-1.06-27.313-25.764-13.173-34.683l.622.63c-.242.32-1.062.992-2.385 3.608-1.54 3.178-2.01 6.346-1.827 8.327 1.1 17.269 24.996 20.78 33.227 3.71 10.477-23.416-17.293-47.197-41.95-29.022l-.569-.575c6.486-10.288 19.158-14.893 31.26-11.816 18.509 4.678 28.444 24.195 21.171 42.416Zm-19.782-.37c-1.713 2.492-4.566 4.125-7.797 4.125-5.24 0-9.487-4.294-9.487-9.592 0-5.063 3.88-9.21 8.799-9.566 3.063-.125 5.917 1.549 7.276 4.262 1.465 2.926.93 6.534-1.353 8.967l2.562 1.803Zm-33.1-6.336c-.457 3.81-.172 5-.173 5.452l-.837.308c-.317-.626-1.12-2.834-1.475-5.8-.905-11.326 6.728-21.532 18.347-23.432 10.657-1.584 20.847 5.108 23.233 14.474l-.839.309c-.25-.279-.694-1.037-2.305-2.688-12.852-13.053-33.052-7.066-35.95 11.377Zm60.954-6.28C78.94 7.4 29.766-6.55 10.835 28.525c.836.612 1.994 1.44 2.83 2.052a35.982 35.982 0 0 0-2.946 9.343 35.732 35.732 0 0 0-.56 6.318c0 19.423 15.573 35.169 34.785 35.169 19.212 0 34.786-15.746 34.786-35.169 0-.472-.012-.941-.03-1.409Z" fill="#FFF" fill-rule="nonzero"/></g></svg>