<svg viewBox="0 0 90 90" xmlns="http://www.w3.org/2000/svg"><g fill="none" fill-rule="evenodd"><path fill="#000" d="M0 0h90v90H0z"/><g fill-rule="nonzero"><path d="M23.922 37.703c0 .927-.574 1.615-1.722 2.067-.892.352-1.979.53-3.263.53h-5.263c-1.38 0-2.54-.16-3.48-.478-1.295-.435-1.944-1.13-1.944-2.085v-5.11c0-.917.66-1.595 1.983-2.035 1.044-.329 2.196-.495 3.459-.495h2.09c.563 0 .844.252.844.755 0 .506-.281.76-.845.76h-.638a.304.304 0 0 1-.103-.008c-.16-.005-.304-.008-.428-.01a10.601 10.601 0 0 0-.303-.007c-2.493 0-3.741.346-3.741 1.037v5.105c0 .692 1.045 1.039 3.134 1.039h5.239c.499 0 1.034-.074 1.597-.226.71-.191 1.066-.446 1.066-.772v-1.086h-3.257c-.43 0-.781-.367-.781-.817 0-.45.352-.818.781-.818h3.917c.198-.02.481-.018.846-.018.542 0 .812.217.812.655v2.017m13.677.052v-3.092c0-.636-.899-.962-2.717-.962h-3.595c-.663 0-1.262.069-1.798.206-.748.207-1.112.499-1.112.893v2.955c0 .378.385.67 1.134.842.514.12 1.113.172 1.797.172h3.574c.577 0 1.133-.07 1.647-.19.706-.188 1.07-.463 1.07-.824m2.225 0c0 .928-.557 1.597-1.69 2.01-.792.327-1.862.499-3.189.499h-3.658c-1.22 0-2.311-.172-3.295-.499-1.22-.43-1.819-1.1-1.819-2.01V34.8c0-.893.6-1.58 1.798-2.043.898-.362 1.989-.533 3.295-.533h3.68c3.252 0 4.878.842 4.878 2.56v2.97Zm26.67-4.707c0 .447-.342.67-.984.67-.086 0-.214 0-.385-.017h-.407c-1.69 0-2.525.326-2.525 1.014v4.878c0 .327-.17.533-.47.619-.13.035-.45.052-.963.052-.514 0-.77-.224-.77-.67v-4.88c0-1.065.663-1.77 2.011-2.147.813-.24 2.032-.344 3.66-.344.556 0 .833.275.833.825m12.949 4.707v-3.092c0-.636-.899-.962-2.717-.962H73.13a7.25 7.25 0 0 0-1.797.206c-.749.207-1.112.499-1.112.893v2.955c0 .378.385.67 1.133.842.514.12 1.113.172 1.796.172h3.574c.578 0 1.134-.07 1.647-.19.707-.188 1.07-.463 1.07-.824m2.226 0c0 .928-.557 1.597-1.69 2.01-.792.327-1.862.499-3.188.499H73.13c-1.22 0-2.31-.172-3.295-.499-1.22-.43-1.819-1.1-1.819-2.01V34.8c0-.893.6-1.58 1.797-2.043.9-.362 1.99-.533 3.295-.533h3.68c3.252 0 4.879.842 4.879 2.56v2.97ZM55.68 33.798v-1.392c0-.584-1.009-.893-3.024-.893h-8.212v3.539h8.212c2.015 0 3.024-.43 3.024-1.254m2.315.068c0 1.014-.642 1.752-1.908 2.217-.986.326-2.166.48-3.559.48h-8.084v2.991c0 .326-.15.532-.493.618-.086.035-.429.052-1.008.052-.536 0-.815-.223-.815-.67v-8.9c0-.43.279-.654.815-.654h9.692c1.308 0 2.423.155 3.344.43 1.352.412 2.016 1.03 2.016 1.838v1.598Z" fill="#FFF"/><path fill="#00ADEF" d="M8 44h16v12H8zm19.2.078h16v12h-16z"/><path fill="#005BAA" d="M46.4 44h16v12h-16z"/><path fill="#FFF" d="M65.6 44h16v12h-16z"/></g></g></svg>