<svg viewBox="0 0 90 90" xmlns="http://www.w3.org/2000/svg"><g fill="none"><path d="M33.397 45.043 14.724 63.702l23.465 23.465a9.669 9.669 0 0 0 13.669 0l23.447-23.465-18.702-18.659L45.04 33.401 33.397 45.043Z" fill="#00AEE6"/><path d="M14.724 26.298 2.83 38.168a9.669 9.669 0 0 0 0 13.668l11.894 11.866 18.673-18.659L45.04 33.401 26.294 14.728l-11.57 11.57Z" fill="#123962"/><path d="M63.695 52.103 75.3 63.702l11.866-11.866a9.669 9.669 0 0 0 0-13.669l-4.763-4.763-18.71 18.699ZM56.592 45 44.996 33.4l18.699-18.698-18.699 18.699z" fill="#B1D4E5"/><path fill="#2754BA" d="M44.996 33.4 56.592 45l7.103 7.103L82.397 33.4l-7.092-7.103-11.61-11.596z"/><path d="M63.695 14.728 51.829 2.833a9.669 9.669 0 0 0-13.669 0L26.294 14.728 45.04 33.4l18.655-18.673Z" fill="#799EB2"/></g></svg>