<svg viewBox="0 0 90 90" xmlns="http://www.w3.org/2000/svg"><defs><linearGradient x1="54.668%" y1="25.629%" x2="1.799%" y2="74.942%" id="a"><stop stop-color="#C10103" offset="0%"/><stop stop-color="#FE0000" offset="100%"/></linearGradient><linearGradient x1="-31.811%" y1="33.045%" x2="-31.811%" y2="76.88%" id="b"><stop stop-color="#FFF" offset="0%"/><stop stop-color="#FFF" offset="65%"/><stop stop-color="#A2A5A3" offset="95%"/><stop stop-color="#A2A5A3" offset="100%"/></linearGradient><linearGradient x1="-10.79%" y1="60.404%" x2="66.105%" y2="60.404%" id="c"><stop stop-color="#FFF" offset="0%"/><stop stop-color="#A2A5A3" offset="73.161%"/><stop stop-color="#A2A5A3" offset="100%"/></linearGradient><linearGradient x1="24.656%" y1="47.232%" x2="111.223%" y2="47.232%" id="d"><stop stop-color="#FFF" offset="0%"/><stop stop-color="#FFF" offset="25%"/><stop stop-color="#A2A5A3" offset="100%"/></linearGradient></defs><g fill="none"><path d="M.093 58.155H.09l.746-1.94 3.308-8.62L22.227.456h59.57L34.064 48.08c-6.36 6.32-14.991 10.074-23.984 10.074H.093Z" fill="url(#a)" transform="matrix(1 0 0 -1 4 74.45)"/><path d="M8.143 26.854c6.522 11.065 23.638 12.232 25.499 29.438a1.58 1.58 0 0 0 1.331 1.385A59.098 59.098 0 0 1 62.79 69.888l.006.006a.282.282 0 0 0 .186.064.31.31 0 0 0 .207-.08.295.295 0 0 0 .01-.417 59.198 59.198 0 0 0-20.77-14.028l-2.412-.964a3.275 3.275 0 0 1-2.066-3.128c.133-5.138 12.372-4.095 13.612-6.564l.213-.426a22.916 22.916 0 0 0-8.81-4.648c-.029.123-.109.723.56 1.808.731 1.182-.796 3.057-3.021 1.032l-.186-.168c-16.536-15.051-28.932-7.246-35.483-24.14l3.308 8.618Z" fill="#FFF"/><path d="M38.378 31.01v-4.1c1.784.51 3.814.828 5.525 1.184v2.284s-2.71-.132-4.374 2.56c.494-.802-.053-1.925-1.15-1.928" fill="url(#b)" transform="matrix(1 0 0 -1 4 74.45)"/><path d="M33.02 16.417c9.14-1.746 18-5.667 25.767-11.855C46.36 15.112 38.783 16.72 35.295 16.72c-1.373 0-2.116-.25-2.276-.303" fill="url(#c)" transform="matrix(1 0 0 -1 4 74.45)"/><path d="m.836 56.215 3.308-8.62c6.519-11.064 23.635-12.231 25.499-29.431-1.885 21.953-11.591 18.673-22.019 28.662-2.69 1.902-4.965 4.688-6.788 9.389Z" fill="url(#d)" transform="matrix(1 0 0 -1 4 74.45)"/></g></svg>