<svg viewBox="0 0 90 90" xmlns="http://www.w3.org/2000/svg"><defs><radialGradient cx="26.563%" cy="107.702%" fx="26.563%" fy="107.702%" r="99.107%" id="a"><stop stop-color="#FD5" offset="0%"/><stop stop-color="#FD5" offset="10%"/><stop stop-color="#FF543E" offset="50%"/><stop stop-color="#C837AB" offset="100%"/></radialGradient><radialGradient cx="-16.751%" cy="7.204%" fx="-16.751%" fy="7.204%" r="44.301%" id="b"><stop stop-color="#3771C8" offset="0%"/><stop stop-color="#3771C8" offset="12.8%"/><stop stop-color="#60F" stop-opacity="0" offset="100%"/></radialGradient></defs><g fill="none"><path fill="url(#a)" d="M0 0v90h90V0z"/><path fill="url(#b)" d="M0 0v90h90V0z"/><path d="M45.003 12c-8.962 0-10.087.04-13.607.2-3.513.16-5.911.716-8.01 1.533-2.17.842-4.011 1.97-5.845 3.805-1.836 1.834-2.964 3.675-3.81 5.845-.817 2.099-1.374 4.498-1.532 8.01C12.04 34.912 12 36.037 12 45s.04 10.084.2 13.604c.16 3.513.717 5.91 1.533 8.009.843 2.17 1.97 4.011 3.806 5.846 1.833 1.835 3.674 2.966 5.843 3.808 2.1.817 4.499 1.373 8.011 1.534 3.52.16 4.644.199 13.606.199 8.963 0 10.084-.04 13.604-.2 3.514-.16 5.914-.716 8.014-1.532 2.17-.843 4.008-1.974 5.842-3.81 1.835-1.834 2.963-3.675 3.808-5.844.812-2.1 1.369-4.498 1.534-8.01.158-3.52.199-4.642.199-13.604s-.041-10.087-.2-13.607c-.164-3.513-.721-5.911-1.533-8.01-.845-2.17-1.973-4.01-3.808-5.845-1.836-1.836-3.672-2.963-5.844-3.806-2.104-.816-4.503-1.372-8.016-1.533-3.52-.16-4.641-.199-13.606-.199h.01Zm-2.96 5.947c.878-.002 1.859 0 2.96 0 8.811 0 9.856.032 13.335.19 3.218.147 4.964.684 6.127 1.136 1.54.598 2.638 1.313 3.792 2.468 1.155 1.155 1.87 2.255 2.47 3.795.452 1.162.99 2.908 1.136 6.126.158 3.479.193 4.524.193 13.33 0 8.807-.035 9.852-.193 13.331-.147 3.218-.684 4.964-1.136 6.126-.598 1.54-1.315 2.636-2.47 3.79-1.155 1.156-2.251 1.87-3.792 2.469-1.162.453-2.91.99-6.127 1.137-3.479.158-4.524.192-13.335.192-8.812 0-9.856-.034-13.335-.192-3.217-.149-4.964-.686-6.128-1.138-1.54-.598-2.64-1.313-3.795-2.468-1.155-1.155-1.87-2.252-2.47-3.793-.45-1.162-.99-2.908-1.136-6.126-.158-3.478-.19-4.523-.19-13.336 0-8.812.032-9.852.19-13.33.148-3.218.685-4.964 1.137-6.127.598-1.54 1.314-2.64 2.47-3.795 1.154-1.155 2.254-1.87 3.794-2.47 1.164-.454 2.91-.99 6.128-1.138 3.044-.137 4.224-.178 10.375-.185v.008Zm20.575 5.48a3.96 3.96 0 1 0 0 7.92 3.96 3.96 0 0 0 0-7.922v.001Zm-17.615 4.626c-9.359 0-16.947 7.588-16.947 16.947 0 9.359 7.588 16.943 16.947 16.943 9.36 0 16.944-7.584 16.944-16.943 0-9.359-7.586-16.947-16.945-16.947h.001Zm0 5.947c6.075 0 11 4.925 11 11s-4.925 11-11 11-11-4.925-11-11 4.925-11 11-11Z" fill="#FFF"/></g></svg>