<svg viewBox="0 0 90 90" xmlns="http://www.w3.org/2000/svg"><g fill="none" fill-rule="evenodd"><path fill="#FFF" d="M0 0h90v90H0z"/><g fill-rule="nonzero"><path d="M33.638 18.214c-9.241 1.342-16.897 6.862-20.893 15.113-2.852 5.887-3.492 12.322-1.845 18.727.793 3.081 2.226 6.131 4.102 8.8 1.312 1.876 4.56 5.124 6.436 6.436 9.257 6.512 21.595 6.649 30.882.35.809-.548 1.495-.99 1.54-.99.031 0 .062 1.265.062 2.82v2.822h10.37V57.895c0-15.784-.015-16.21-.9-19.658-1.967-7.579-7.274-14.015-14.427-17.492-3.736-1.815-6.893-2.577-11.133-2.669-1.845-.045-3.218 0-4.194.138Zm6.94 10.538c8.296 1.723 14.106 9.653 13.222 18.026-.534 5.185-3.203 9.562-7.519 12.398-1.555 1.022-3.126 1.709-5.155 2.242-1.28.351-1.769.397-3.98.397-2.211 0-2.7-.046-3.98-.397-3.142-.823-5.689-2.272-7.854-4.438-5.643-5.642-6.512-14.457-2.09-21.122 2.562-3.858 6.726-6.512 11.392-7.274 1.54-.26 4.316-.168 5.963.168Z" fill="#000"/><path d="M72.268 18.229c-1.327.29-2.364.9-3.325 1.937-1.037 1.128-1.464 2.196-1.57 3.95-.077 1.51.167 2.485.915 3.675 2.12 3.37 6.939 3.92 9.79 1.083 3.66-3.645 1.617-9.883-3.507-10.721-1.083-.184-1.113-.184-2.303.076Z" fill="#3164E9"/></g></g></svg>