<svg viewBox="0 0 90 90" xmlns="http://www.w3.org/2000/svg"><g fill="none"><path d="M44.861 16c6.224-.023 12.133 2.071 16.933 5.677a28.67 28.67 0 0 1 10.28 14.774l.387 1.309.388 1.308c.102.34.264.65.476.926.21.276.474.51.774.69l1.16.693 1.163.696a17.544 17.544 0 0 1 6.461 6.721c1.478 2.73 2.226 5.862 2.104 9.14-.178 4.76-2.29 8.979-5.526 12.013a18.09 18.09 0 0 1-12.297 4.897l-22.104.081L22.955 75a18.085 18.085 0 0 1-12.33-4.815c-3.259-3.01-5.394-7.215-5.606-11.972a17.747 17.747 0 0 1 2.041-9.157 17.539 17.539 0 0 1 6.42-6.764l1.156-.702 1.154-.701a2.84 2.84 0 0 0 1.236-1.628l.38-1.312.38-1.308a28.653 28.653 0 0 1 10.18-14.846C32.74 18.155 38.634 16.021 44.86 16" fill="#FFF"/><path d="M44.843 10a33.942 33.942 0 0 1 20.429 6.715 34.912 34.912 0 0 1 12.373 17.21 2.5 2.5 0 0 0 .408.777c.178.23.396.43.645.593a24.793 24.793 0 0 1 8.434 9.227 24.832 24.832 0 0 1 2.844 12.71C89.7 63.902 86.75 69.83 82.22 74.1c-4.53 4.266-10.639 6.875-17.23 6.899H25.18a25.35 25.35 0 0 1-17.276-6.712C3.346 70.088.354 64.211.031 57.547c-.226-4.61.797-8.957 2.757-12.728a24.82 24.82 0 0 1 8.375-9.292 2.58 2.58 0 0 0 1.043-1.376 34.91 34.91 0 0 1 12.252-17.293A33.96 33.96 0 0 1 44.843 10Zm.03 8.858c-5.642.018-10.984 1.948-15.312 5.242a25.915 25.915 0 0 0-9.225 13.427l-.344 1.184-.344 1.186a2.546 2.546 0 0 1-1.12 1.472l-1.047.635-1.048.635a15.877 15.877 0 0 0-5.818 6.118 16.026 16.026 0 0 0-1.85 8.282c.193 4.303 2.128 8.106 5.08 10.83a16.408 16.408 0 0 0 11.176 4.354l20.033-.068 20.033-.073a16.413 16.413 0 0 0 11.144-4.43c2.932-2.744 4.847-6.56 5.009-10.865.11-2.965-.568-5.798-1.907-8.267a15.882 15.882 0 0 0-5.856-6.079l-1.054-.63-1.05-.626a2.589 2.589 0 0 1-1.133-1.462h-.001l-.352-1.184-.35-1.183a25.932 25.932 0 0 0-9.317-13.363c-4.35-3.262-9.706-5.156-15.346-5.135Zm-8.686 37.337c.514-.003.979.21 1.318.549.34.34.55.814.552 1.334l.006 1.904.007 1.902a1.9 1.9 0 0 1-.542 1.34 1.85 1.85 0 0 1-1.318.556l-1.879.005-1.88.006a1.843 1.843 0 0 1-1.321-.55 1.886 1.886 0 0 1-.553-1.331l-.005-1.904-.008-1.902c0-.52.208-.993.545-1.337a1.85 1.85 0 0 1 1.316-.56l1.878-.007 1.884-.005Zm10.635 0c.514-.003.979.21 1.318.549.34.34.55.814.552 1.334l.008 1.904.005 1.902a1.9 1.9 0 0 1-.542 1.34 1.85 1.85 0 0 1-1.318.556l-1.879.005-1.88.006a1.843 1.843 0 0 1-1.321-.55 1.886 1.886 0 0 1-.553-1.331l-.005-1.904-.008-1.902c0-.52.208-.993.545-1.337a1.85 1.85 0 0 1 1.316-.56l1.88-.007 1.882-.005Zm10.634 0c.514-.003.98.21 1.319.549.339.34.55.814.552 1.334l.008 1.904.005 1.902a1.9 1.9 0 0 1-.542 1.34 1.85 1.85 0 0 1-1.318.556l-1.879.005-1.88.006a1.843 1.843 0 0 1-1.322-.55 1.886 1.886 0 0 1-.552-1.331l-.005-1.904-.008-1.902c0-.52.206-.996.542-1.34a1.845 1.845 0 0 1 1.321-.556l1.878-.008 1.881-.005ZM36.182 45.434c.513 0 .979.213 1.318.552.339.34.55.811.552 1.331l.008 1.904.005 1.902c0 .52-.205.994-.545 1.337a1.848 1.848 0 0 1-1.315.56l-1.879.005-1.88.007c-.515 0-.98-.21-1.319-.551a1.898 1.898 0 0 1-.555-1.33l-.005-1.906-.008-1.902c0-.52.208-.993.545-1.337a1.85 1.85 0 0 1 1.316-.559l1.88-.008 1.882-.005Zm10.635 0c.514 0 .979.213 1.318.552.339.34.55.811.552 1.331l.008 1.904.005 1.902c0 .52-.205.994-.542 1.337a1.852 1.852 0 0 1-1.318.56l-1.879.005-1.88.007a1.885 1.885 0 0 1-1.87-1.88l-.01-1.907-.007-1.902c0-.52.208-.993.545-1.337a1.852 1.852 0 0 1 1.318-.559l1.879-.008 1.88-.005Zm10.635 0c.514 0 .979.213 1.318.552.339.34.55.811.552 1.331l.008 1.904.005 1.902c0 .52-.205.994-.542 1.337a1.852 1.852 0 0 1-1.318.56l-1.879.005-1.88.007a1.878 1.878 0 0 1-1.87-1.88l-.01-1.907-.007-1.902c0-.52.206-.993.545-1.337a1.852 1.852 0 0 1 1.318-.559l1.879-.008 1.88-.005ZM36.177 34.671c.514 0 .979.213 1.318.551.34.341.55.812.552 1.332l.008 1.904.005 1.902c0 .52-.205.993-.542 1.337a1.852 1.852 0 0 1-1.318.56l-1.879.004-1.88.008a1.885 1.885 0 0 1-1.87-1.88l-.009-1.905-.008-1.904c0-.52.208-.994.545-1.337a1.852 1.852 0 0 1 1.318-.56l1.879-.004 1.88-.008Zm10.635 0c.514 0 .979.213 1.318.551.34.341.55.812.552 1.332l.008 1.904.005 1.902a1.89 1.89 0 0 1-.542 1.337 1.852 1.852 0 0 1-1.318.56l-1.879.004-1.88.008a1.885 1.885 0 0 1-1.87-1.88l-.009-1.905-.005-1.904a1.89 1.89 0 0 1 .542-1.337 1.856 1.856 0 0 1 1.318-.56l1.879-.004 1.88-.008Zm10.634 0a1.89 1.89 0 0 1 1.92 1.844v.04l-.018 1.903-.015 1.904c0 .52-.209.994-.545 1.337a1.852 1.852 0 0 1-1.318.56l-1.879.005-1.88.005a1.878 1.878 0 0 1-1.87-1.88l-.01-1.905-.004-1.901a1.895 1.895 0 0 1 .542-1.34 1.852 1.852 0 0 1 1.318-.56l1.878-.004 1.881-.008Z" fill="#43A046"/></g></svg>