<svg viewBox="0 0 90 90" xmlns="http://www.w3.org/2000/svg"><g fill="none"><path d="M44.978 90s38.477-13.091 38.477-61.17V11.521a3.541 3.541 0 0 0-3.325-3.536C73.15 7.635 56.594 6.23 44.978 0 33.385 6.23 16.804 7.635 9.826 7.963c-1.85.14-3.326 1.662-3.326 3.56v17.306C6.5 76.91 44.978 90 44.978 90Z" fill="#00AEEF"/><path d="M60.528 35.152c-.468-5.246-4.965-7.049-10.68-7.588l.024-7.33-4.426.024.024 7.096c-1.171 0-2.413 0-3.607.023v-7.19l-4.473.024.023 7.283c-.96.024-8.946.024-8.946.024v4.66h5.668l-.024 23.419-4.965.023-.047 5.34s7.026-.023 8.057-.023l.023 7.377 4.403.023.047-7.33c1.218.023 2.389.047 3.536.07l-.023 7.26h4.473l-.024-7.33c7.447-.375 12.693-2.225 13.396-9.204.562-5.644-2.061-8.173-6.3-9.203 2.576-1.312 4.193-3.607 3.84-7.448Zm-6.3 15.691c-.047 5.504-9.367 4.824-12.388 4.801l-.024-9.766c3.021.024 12.46-.773 12.412 4.965Zm-1.967-13.77c-.047 5.011-7.822 4.379-10.304 4.356l-.024-8.853c2.483 0 10.352-.726 10.328 4.497Z" fill="#FFF"/></g></svg>