<svg viewBox="0 0 90 90" xmlns="http://www.w3.org/2000/svg"><g fill="none"><path fill="#CC2131" d="M0 0h89.886v89.886H0z"/><path d="M12.733 55.689c-6.84-.002-11.411-4.849-11.411-10.726 0-5.878 4.582-10.781 11.401-10.766h64.44c6.82-.015 11.402 4.888 11.402 10.766 0 5.877-4.572 10.724-11.413 10.726h-64.42Z" fill="#FFF"/><path d="M12.754 36.842c-5.415.009-8.74 3.63-8.74 8.106 0 4.477 3.304 8.125 8.74 8.105h64.377c5.436.02 8.742-3.628 8.742-8.105s-3.326-8.096-8.742-8.106H12.754Z" fill="#CC2131"/><path d="M9.977 39.866h3.15l4.363 7.055-.002-7.055h3.127v10.119h-3.123l-4.384-7.055v7.055H9.976l.001-10.119Zm27.643 1.042h3.045v1.361h1.648v1h-1.648l.002 6.716H37.62l.001-6.716h-1.653v-.999h1.654l-.002-1.362Zm-15.263 2.348H25.4v6.729h-3.043v-6.729Zm-.007-3.392h3.05v2.069h-3.05v-2.069Zm54.545 6.702-.001 1.425c0 1.072-.633 1.516-1.245 1.516-.608 0-1.246-.444-1.246-1.516l.002-1.45.003-1.403c0-1.068.635-1.508 1.241-1.508.607 0 1.245.44 1.245 1.508l.001 1.433v-.005Zm-1.222-3.77c-2.455 0-4.444 1.692-4.444 3.78 0 2.086 1.99 3.777 4.444 3.777 2.458 0 4.448-1.691 4.448-3.777 0-2.088-1.99-3.78-4.448-3.78Zm-8.439-2.93h3.003v10.117H67.23l-.002-.387c-1.163.73-2.48.728-3.503.252-.275-.128-2.082-.996-2.082-3.335 0-1.778 1.677-3.716 3.869-3.524.722.064 1.234.327 1.722.6v-3.723Zm.022 6.72v-1.202c0-1.04-.718-1.305-1.191-1.305-.486 0-1.195.264-1.195 1.305l.002 1.2-.002 1.195c0 1.04.71 1.312 1.195 1.312.473 0 1.191-.272 1.191-1.312v-1.193Zm-34.734-3.64c1.137-.032 3.446.713 3.429 3.377-.003.472 0 3.66 0 3.66h-3.024v-4.418c0-.587-.56-1.24-1.389-1.24-.83 0-1.445.653-1.445 1.24l.003 4.418h-3.02l-.003-6.728 3.023-.002s-.003.542 0 .707a3.67 3.67 0 0 1 2.426-1.015Zm24.727 0c1.135-.032 3.444.713 3.43 3.377-.005.472-.003 3.66-.003 3.66h-3.023v-4.418c0-.587-.56-1.24-1.389-1.24-.83 0-1.447.653-1.447 1.24l.005 4.418h-3.02l.002-6.728 3.018-.002s-.005.542 0 .707a3.67 3.67 0 0 1 2.427-1.015ZM45.147 45.6c-.005-.588.007-.982.2-1.32.24-.415.677-.612 1.072-.614h-.002c.398.002.833.2 1.07.613.193.339.205.733.2 1.321h-2.54Zm2.527 2.03s.003.03.003.408c0 1.231-.81 1.505-1.258 1.505-.45 0-1.274-.274-1.274-1.505 0-.37.005-1.39.005-1.39s5.73.003 5.73 0c0-2.086-2.014-3.815-4.489-3.815-2.473 0-4.48 1.692-4.48 3.777 0 2.087 2.007 3.78 4.48 3.78 2.053 0 3.786-1.173 4.317-2.763l-3.034.003Zm32.658-5.357h-.35V39.97h.879c.542 0 .813.2.813.655 0 .411-.259.59-.598.634l.654 1.015h-.39l-.608-1h-.4v1Zm.417-1.296c.296 0 .558-.02.558-.374 0-.285-.259-.339-.5-.339h-.475v.713h.417Z" fill="#FFF"/><path d="M78.724 41.116c0-1.147.931-1.992 2.03-1.992 1.09 0 2.017.846 2.017 1.992 0 1.157-.928 2.002-2.017 2.002-1.099 0-2.03-.844-2.03-2.002Zm2.03 1.67c.904 0 1.616-.708 1.616-1.67 0-.945-.712-1.66-1.616-1.66-.914 0-1.627.715-1.627 1.66 0 .962.713 1.67 1.627 1.67Z" fill="#FFF"/></g></svg>