<svg viewBox="0 0 90 90" xmlns="http://www.w3.org/2000/svg"><defs><linearGradient x1="28.448%" y1="3.79%" x2="79.624%" y2="110.975%" id="a"><stop stop-color="#47D3FF" offset="0%"/><stop stop-color="#2195EA" offset="100%"/></linearGradient></defs><g fill="none" fill-rule="evenodd"><path d="M66.715 90c8.702 0 13.808-9.63 8.827-16.648L56.764 46.888a5.223 5.223 0 0 1 .015-6.08l17.285-24.12C79.09 9.675 73.99 0 65.265 0h-42.5C16.82 0 12 4.74 12 10.588v68.824C12 85.5 16.154 90 22.73 90h43.985Z" fill="#312A7D" fill-rule="nonzero"/><path d="M0 79.412c0 5.738 3.69 10.066 9.622 10.544 17.491-24.431 34.95-48.86 52.442-73.267C67.09 9.674 61.99 0 53.265 0h-42.5C4.82 0 0 4.74 0 10.588v68.824Z" fill="url(#a)" transform="translate(12)"/></g></svg>