<svg viewBox="0 0 90 90" xmlns="http://www.w3.org/2000/svg"><g fill="none" fill-rule="evenodd"><path fill="#006BB9" opacity=".9" d="M0 0h90v90H0z"/><path d="M38.857 71.822c.301.268 4.603 1.313 4.723 1.163.06-.06.542-1.91 1.083-4.088.812-3.342 1.053-3.939 1.474-3.79.301.09 1.805.27 3.37.418 7.67.687 11.762-1.581 13.717-7.639 1.354-4.267.662-7.4-2.166-9.877-.782-.686-1.564-1.253-1.685-1.253-.661 0-.18-.508.813-.866 3.49-1.253 5.685-6.296 4.482-10.354-.722-2.537-3.25-4.924-6.829-6.536-1.474-.626-2.647-1.342-2.647-1.581 0-.209.421-2 .902-3.999.512-1.97.903-3.61.843-3.67-.18-.12-4.152-1.045-4.543-1.045-.3 0-.722 1.164-1.414 3.82l-.962 3.85-1.835-.418c-1.023-.239-1.895-.478-1.955-.508-.03-.06.33-1.79.872-3.879.511-2.089.872-3.85.782-3.939-.09-.09-1.143-.418-2.376-.746-1.204-.298-2.226-.567-2.287-.567-.12 0-.3.537-1.233 4.267-.481 1.94-.933 3.611-1.023 3.67-.06.09-2.286-.387-4.903-1.044-2.617-.656-4.843-1.134-4.934-1.074-.3.18-1.323 4.894-1.143 5.103.12.09 1.083.358 2.136.597 2.136.507 3.52 1.522 3.52 2.626-.014.512-1.228 5.47-2.563 10.682l-.207.803c-1.483 5.764-3.047 11.576-3.247 11.82-.481.567-1.504.567-3.61 0-.902-.239-1.684-.358-1.774-.298-.422.447-2.407 5.371-2.226 5.52.15.12 2.346.716 4.903 1.343 2.557.627 4.693 1.164 4.723 1.164.03.03-.391 1.85-.963 4.058-.571 2.208-.993 4.029-.962 4.059.18.179 4.873 1.253 4.963 1.163.06-.06.542-1.82 1.083-3.939.541-2.089 1.083-3.82 1.263-3.82.813.03 3.43.836 3.43 1.105 0 .149-.421 1.91-.933 3.88-.481 1.998-.782 3.7-.662 3.819Zm13.898-30.08c-1.684.866-5.174.717-9.325-.388l-1.113-.268 1.233-4.804 1.204-4.805 1.113.18c3.79.596 7.82 2.595 8.783 4.356 1.114 2.03.271 4.655-1.895 5.73ZM50.5 57.976c-1.083.417-1.895.477-4.271.328-2.317-.15-7.4-1.104-7.762-1.492-.045-.045.705-3.212 1.515-6.416l.135-.534c.226-.889.454-1.767.667-2.57.33-1.282.33-1.282 4.723-.03 5.956 1.672 8.663 4.149 8.062 7.372-.271 1.462-1.444 2.715-3.069 3.342Z" fill="#FFF" fill-rule="nonzero"/></g></svg>