<svg viewBox="0 0 90 90" xmlns="http://www.w3.org/2000/svg"><g fill="none" fill-rule="evenodd"><path fill="#FFF" d="M0 0h90v90H0z"/><path d="M31.784 70.587c-4.017.013-8.048.026-12.066.013-1.085 0-1.783-.987-1.602-2.133.672-4.414 1.305-8.827 1.977-13.227.607-3.96 1.266-7.92 1.873-11.893.44-2.867.827-5.734 1.266-8.6.646-4.227 1.318-8.454 1.977-12.68.374-2.427.723-4.854 1.085-7.28.232-1.587 1.447-2.667 3.023-2.667 6.795 0 13.603-.053 20.398.027 3.708.04 7.39.52 10.762 2.293 3.5 1.813 5.632 4.76 6.33 8.76.323 1.867.206 3.733-.142 5.6-1.447-.76-2.972-1.253-4.548-1.573-1.963-.4-3.979-.507-5.981-.534a821.528 821.528 0 0 0-15.167 0c-1.072.014-2.028.467-2.454 1.6-.194.52-.259 1.107-.336 1.68a935.873 935.873 0 0 0-1.02 6.587c-.259 1.693-.543 3.387-.789 5.08-.31 2.147-.581 4.307-.981 6.44-.13.707-.414 1.427-.207 2.187-.155.48-.297.96-.375 1.466a1460.98 1460.98 0 0 1-1.11 7.4c-.453 2.987-.88 5.987-1.37 8.974-.155.826-.104 1.706-.543 2.48Z" fill="#012D8A" fill-rule="nonzero"/><path d="M31.784 70.587c.44-.76.388-1.654.517-2.48.49-2.987.917-5.974 1.37-8.974.374-2.466.749-4.933 1.11-7.4.078-.506.22-.986.375-1.466.698-1.12 1.666-1.614 2.984-1.6 3.294 0 6.589.173 9.87-.254 2.933-.373 5.736-1.146 8.346-2.586 4.017-2.227 6.756-5.627 8.474-9.934.814-2.053 1.46-4.173 1.731-6.386.026-.054.039-.107.065-.147l.077-.4c3.075 1.68 4.716 4.373 5.155 7.893.362 2.894-.065 5.707-.762 8.507-.556 2.227-1.408 4.32-2.623 6.24-1.976 3.147-4.728 5.333-8.151 6.587-1.783.653-3.618 1.026-5.49 1.253-1.564.187-3.127.187-4.69.2-1.576 0-2.584.893-2.804 2.493-.478 3.374-.956 6.747-1.524 10.12-.194 1.147-.349 2.307-.543 3.44-.245 1.387-1.201 2.214-2.558 2.214h-9.882c-1.253 0-1.86-.747-1.654-2 .245-1.547.49-3.08.736-4.627.04-.253.104-.507-.129-.693Z" fill="#019AE0" fill-rule="nonzero"/><path d="m66.716 28.933-.077.4c-.026.054-.039.107-.065.147-.271 2.213-.917 4.333-1.73 6.387-1.72 4.306-4.458 7.706-8.476 9.933-2.61 1.44-5.425 2.213-8.345 2.587-3.281.413-6.576.253-9.87.253-1.318 0-2.286.48-2.984 1.6-.207-.747.077-1.48.207-2.187.387-2.133.671-4.293.981-6.44.246-1.693.53-3.386.788-5.08.336-2.2.672-4.386 1.021-6.586.09-.56.142-1.147.336-1.68.426-1.134 1.382-1.6 2.454-1.6 5.052-.04 10.116-.054 15.167 0 2.002.026 4.005.133 5.981.533 1.576.32 3.114.813 4.548 1.573.026.08.051.12.064.16Z" fill="#001F6B" fill-rule="nonzero"/><path d="M29.074 12.5h25.974c11.246.97 15.68 7.23 14.606 15.661l-.085.6a23.14 23.14 0 0 1-.224 1.217c-2.273 10.744-6.937 15.085-13.543 17.21l-.597.185-.302.088-.612.168c-.206.054-.413.106-.622.157l-.633.149c-1.438.324-2.918.488-4.381.564l-.674.03-.671.018-.334.005-.663.005-.981-.004-1.278-.02-1.832-.037-.867-.009-.558.001-.272.004-.53.013-.51.023c-2.418.138-4.094.68-4.392 2.436L32.192 71h-12.36a2 2 0 0 1-1.978-2.304l8.255-53.652a3 3 0 0 1 2.965-2.544Z" fill="#003085"/><path d="M41.302 27H61.96c9.418.743 12.663 6.717 12.012 13.754l-.058.543c-.033.273-.07.547-.115.822l-.095.552c-.034.185-.07.37-.11.555-1.882 8.95-5.868 12.912-11.282 14.863l-.575.198-.586.184c-.098.03-.197.059-.296.087l-.6.164a17.05 17.05 0 0 1-.305.078l-.616.146a24.68 24.68 0 0 1-3.438.524l-.621.045-.6.032-.576.02-.824.018-1.494.02-.453.012-.43.02c-.07.003-.138.008-.206.013l-.395.036c-1.537.17-2.52.686-2.93 2.348L45.38 75.44A3 3 0 0 1 42.412 78h-9.086a2 2 0 0 1-1.978-2.3l6.988-46.15A3 3 0 0 1 41.302 27Z" fill="#019CDE"/><path d="M69.56 28.814c-.06.384-.132.772-.215 1.164-2.579 12.187-8.234 16.136-16.309 17.957-7.882 1.777-17.155-1.268-17.922 2.897l3.222-21.281A3 3 0 0 1 41.302 27H62.96c2.685.212 4.867.848 6.602 1.814Z" fill="#021F69"/></g></svg>