<svg viewBox="0 0 90 90" xmlns="http://www.w3.org/2000/svg"><defs><linearGradient x1="12.917%" y1="51.497%" x2="99.684%" y2="43.411%" id="a"><stop stop-color="#2B7A77" offset="0%"/><stop stop-color="#4EBAA9" offset="51.049%"/><stop stop-color="#5CC2B1" offset="100%"/></linearGradient><linearGradient x1="61.489%" y1="10.382%" x2="34.679%" y2="100.103%" id="b"><stop stop-color="#236736" offset="0%"/><stop stop-color="#6BA443" offset="49.28%"/><stop stop-color="#86C146" offset="100%"/></linearGradient><linearGradient x1="36.541%" y1=".31%" x2="69.401%" y2="99.66%" id="c"><stop stop-color="#29A5E3" offset="0%"/><stop stop-color="#356EB9" offset="51.549%"/><stop stop-color="#394DA5" offset="100%"/></linearGradient></defs><g fill="none" fill-rule="evenodd"><path d="M17.007 26.423c-2.403 0-3.652-.902-4.851-2.998L1.206 3.226C.45 1.78.437 1.296.437.253l17.211.755 3.94 3.92H56.11L27.446 22.597c-1.397.822-6.71 3.826-10.44 3.826Z" fill="url(#a)" fill-rule="nonzero" transform="translate(.324 59.862)"/><path d="M21.604 84.182H6.717c-4.496 0-6.279-2.34-6.279-4.675 0-1.477.478-2.282 1.139-3.924l21.695-51.535.233-.452.3-.464.625-.605.916-.488 1.328-.29 2.284.058 15.076 5.576-5.098 15.996-17.332 40.803Z" fill="url(#b)" fill-rule="nonzero" transform="translate(.324 -19.392)"/><path d="M65.317 84.285 31.072 3.619C30.482 2.246 29.537.474 27.09.474c-2.187 0-3.229 1.053-3.817 2.186.304-.817 1.225-2.403 3.893-2.403H50.8c2.178 0 3.222 1.276 3.699 2.444l34.63 81.584H65.316Z" fill="url(#c)" transform="translate(.324 1.996)"/></g></svg>