<svg viewBox="0 0 90 90" xmlns="http://www.w3.org/2000/svg"><defs><linearGradient x1="-33.94%" y1="50.041%" x2="153.691%" y2="50.041%" id="a"><stop stop-color="#FBAA19" offset="0%"/><stop stop-color="#EF3E23" offset="100%"/></linearGradient><linearGradient x1="32.891%" y1="96.667%" x2="67.113%" y2="3.111%" id="b"><stop stop-color="#F78D1E" offset="0%"/><stop stop-color="#F37121" offset="100%"/></linearGradient><linearGradient x1="14.403%" y1="75.177%" x2="63.227%" y2="12.448%" id="c"><stop stop-color="#FEBE2D" offset="0%"/><stop stop-color="#F04E23" offset="100%"/></linearGradient><linearGradient x1="69.88%" y1="3.214%" x2="33.101%" y2="81.581%" id="d"><stop stop-color="#EA4425" offset="0%"/><stop stop-color="#FDBB27" offset="100%"/></linearGradient><linearGradient x1="-40.127%" y1="49.989%" x2="144.708%" y2="49.989%" id="e"><stop stop-color="#F47920" offset="0%"/><stop stop-color="#E93825" offset="100%"/></linearGradient><linearGradient x1="-143.227%" y1="49.917%" x2="243.364%" y2="49.917%" id="f"><stop stop-color="#FDCA0B" offset="0%"/><stop stop-color="#F5841F" offset="100%"/></linearGradient><linearGradient x1="39.677%" y1="-25.013%" x2="63.887%" y2="131.608%" id="g"><stop stop-color="#E73C25" offset="0%"/><stop stop-color="#FAA21B" offset="100%"/></linearGradient><linearGradient x1="-562.994%" y1="49.998%" x2="562.905%" y2="49.998%" id="h"><stop stop-color="#FDBA12" offset="0%"/><stop stop-color="#F7921E" offset="100%"/></linearGradient><linearGradient x1="1.983%" y1="41.501%" x2="106.167%" y2="60.044%" id="i"><stop stop-color="#FEBE2D" offset="0%"/><stop stop-color="#F04E23" offset="100%"/></linearGradient></defs><g fill="none" fill-rule="evenodd"><path d="m44.056 14.37 20.706 11.245L45.63 0a14.266 14.266 0 0 0-1.573 14.37Z" fill="url(#a)" transform="translate(5)"/><path d="M34.7 56.077a4.72 4.72 0 1 1-.001 9.44 4.72 4.72 0 0 1 0-9.44Z" fill="url(#b)" transform="translate(5)"/><path d="m20.287 3.755 57.986 31.469a2.811 2.811 0 0 1 0 5.056 45.084 45.084 0 0 1-14.203 5.538L52.007 70.573s-3.818 8.686-14.329 5.35c4.406-4.406 9.735-8.392 9.735-15.168 0-7.033-5.702-12.734-12.735-12.734-7.033 0-12.734 5.701-12.734 12.734 0 8.853 8.727 12.588 13.573 18.735a7.972 7.972 0 0 1-.692 10.048c-6.02-5.958-17.664-16.007-22.447-22.594a19.09 19.09 0 0 1-4.091-11.643 21.923 21.923 0 0 1 15.482-19.846 25.28 25.28 0 0 1 8.14-.986 26.392 26.392 0 0 1 10.91 3.293c5.139 3.021 7.636 2.224 11.181-.755 2.098-1.72 4.385-7.322.84-8.622a25.469 25.469 0 0 0-3.546-.882c-6.588-1.28-18.105-2.496-22.343-4.909-6.734-3.713-11.266-11.37-8.664-18.839Z" fill="url(#c)" transform="translate(5)"/><path d="M47.308 60.818C49.993 46.7 35.664 33.231 24.67 35.245l.735-.168c-.588.126-1.154.273-1.7.44A21.923 21.923 0 0 0 8.224 55.364a19.09 19.09 0 0 0 4.196 11.643c4.783 6.587 16.426 16.636 22.447 22.594a7.972 7.972 0 0 0 .692-10.049c-4.95-6.125-13.678-9.88-13.678-18.713 0-7.033 5.701-12.734 12.734-12.734S47.35 53.806 47.35 60.839l-.042-.02Z" fill="url(#d)" transform="translate(5)"/><path d="m20.287 3.755 44.056 24 1.258.693c1.05.818 2.098 2.454.735 5.475-2.098 4.51-10.49 8.874-20.161 5.455 3.02.88 5.077-.126 7.72-2.35 2.098-1.72 4.385-7.322.84-8.622a25.469 25.469 0 0 0-3.546-.882c-6.588-1.28-18.105-2.496-22.343-4.909-6.63-3.734-11.16-11.391-8.56-18.86Z" fill="url(#e)" transform="translate(5)"/><path d="M20.287 3.755C24.839 20.538 52.552 21.923 66.44 28.93L20.287 3.755Z" fill="url(#f)" transform="translate(5)"/><path d="M35.455 79.552c-4.847-6.125-13.574-9.88-13.574-18.713a12.734 12.734 0 0 1 11.161-12.587c-10.124.034-18.322 8.233-18.357 18.356-.002 1.24.125 2.478.378 3.693 4.007 4.531 9.797 9.88 14.685 14.412a273.562 273.562 0 0 1 5.12 4.888 8.77 8.77 0 0 0 2.097-4.972 7.678 7.678 0 0 0-1.51-5.077Z" fill="url(#g)" transform="translate(5)"/><path d="M47.245 62.329c.066-.501.101-1.006.105-1.51 2.643-14.12-11.686-27.588-22.679-25.574a26.203 26.203 0 0 1 7.175-.714c14.413.588 18.44 15.986 15.399 27.798Z" fill="url(#h)" transform="translate(5)"/><path d="M4.741 31.133a4.762 4.762 0 0 1 4.742 4.762v4.741H4.74A4.741 4.741 0 0 1 0 35.896a4.762 4.762 0 0 1 4.741-4.763Z" fill="url(#i)" transform="translate(5)"/></g></svg>