<svg viewBox="0 0 90 90" xmlns="http://www.w3.org/2000/svg"><g fill="none" fill-rule="evenodd"><path fill="#FFF" d="M0 0h90v90H0z"/><g fill-rule="nonzero"><path d="m5 47.02 2.786-.261c.172.935.514 1.624 1.026 2.066.512.441 1.207.66 2.086.655.924 0 1.622-.198 2.095-.586.473-.388.7-.85.7-1.369a1.324 1.324 0 0 0-.29-.867c-.198-.232-.54-.442-1.03-.608-.34-.129-1.105-.334-2.297-.638-1.543-.378-2.617-.85-3.237-1.408a3.761 3.761 0 0 1-1.311-2.884 3.617 3.617 0 0 1 .618-2.04 3.873 3.873 0 0 1 1.78-1.455c.773-.323 1.703-.492 2.804-.492 1.783 0 3.127.394 4.032 1.182.903.8 1.374 1.848 1.42 3.165l-2.885.097c-.128-.723-.384-1.249-.792-1.573-.408-.324-1.012-.483-1.81-.483-.833 0-1.487.17-1.955.521a1.033 1.033 0 0 0-.458.877c0 .34.157.66.427.868.359.312 1.241.629 2.637.954 1.396.326 2.43.677 3.096 1.033a4 4 0 0 1 1.573 1.461c.375.604.57 1.376.57 2.283 0 .817-.238 1.617-.683 2.302a4.12 4.12 0 0 1-1.924 1.598c-.83.34-1.863.523-3.1.523-1.801 0-3.183-.421-4.152-1.263-.97-.842-1.538-2.06-1.726-3.659Z" fill="#B4B4B5"/><path d="M16.22 41.312h2.894l2.47 7.356 2.408-7.356h2.82l-3.617 9.962-.664 1.817a7.317 7.317 0 0 1-.683 1.383c-.197.305-.45.57-.747.781a3.498 3.498 0 0 1-1.036.46 5.3 5.3 0 0 1-1.396.175 7.16 7.16 0 0 1-1.546-.175l-.226-2.151c.38.085.768.13 1.158.134.629 0 1.098-.185 1.4-.557.327-.428.564-.917.697-1.439l-3.932-10.39Zm20.074 10.363h-2.723V46.4c0-1.111-.056-1.827-.176-2.158a1.516 1.516 0 0 0-.579-.764 1.662 1.662 0 0 0-.956-.272 2.228 2.228 0 0 0-1.286.393 1.943 1.943 0 0 0-.781 1.022c-.145.434-.211 1.218-.211 2.378v4.677H26.87V41.312h2.517v1.518c.905-1.148 2.042-1.715 3.415-1.715a4.294 4.294 0 0 1 1.664.32c.445.176.837.464 1.137.836.256.34.44.731.537 1.146.118.606.17 1.224.153 1.842v6.416Zm.016-5.291a5.619 5.619 0 0 1 .674-2.647 4.647 4.647 0 0 1 1.905-1.95 5.642 5.642 0 0 1 2.749-.669c1.57 0 2.853.509 3.85 1.525.996 1.017 1.497 2.302 1.504 3.855 0 1.567-.508 2.86-1.517 3.895-1.01 1.034-2.286 1.55-3.82 1.55a6.041 6.041 0 0 1-2.715-.648 4.4 4.4 0 0 1-1.963-1.89c-.443-.826-.665-1.833-.667-3.02Zm2.788.145c0 1.034.241 1.824.735 2.36a2.39 2.39 0 0 0 3.616 0c.482-.536.724-1.336.724-2.373 0-1.038-.242-1.807-.724-2.348a2.401 2.401 0 0 0-3.616 0c-.492.535-.735 1.326-.735 2.354v.007Z" fill="#B4B4B5"/><path d="M50.341 36v13.377c0 .638.048 1.06.136 1.263a.97.97 0 0 0 .424.473c.192.107.55.162 1.065.162v.4h-4.944v-.4c.463 0 .779-.048.957-.144a.984.984 0 0 0 .392-.475c.097-.218.144-.644.144-1.273v-9.134c0-1.149-.023-1.852-.072-2.117a.901.901 0 0 0-.244-.54.616.616 0 0 0-.421-.145 2.088 2.088 0 0 0-.706.179l-.188-.392L49.846 36h.495Zm6.532 5.279c1.533 0 2.76.579 3.689 1.736a5.324 5.324 0 0 1 1.18 3.41 6.365 6.365 0 0 1-.65 2.74 4.637 4.637 0 0 1-4.34 2.796c-1.527 0-2.738-.605-3.633-1.814a5.62 5.62 0 0 1-1.137-3.437c.008-.958.243-1.9.687-2.75a4.788 4.788 0 0 1 1.823-2.029 4.719 4.719 0 0 1 2.38-.652Zm-.339.742a2.234 2.234 0 0 0-1.173.344c-.394.235-.713.632-.956 1.205-.243.573-.363 1.32-.363 2.228 0 1.467.296 2.718.876 3.789.58 1.07 1.354 1.591 2.308 1.591a2.154 2.154 0 0 0 1.762-.88c.464-.586.696-1.593.696-3.023 0-1.79-.387-3.182-1.158-4.215-.52-.695-1.185-1.039-1.99-1.039h-.002Z" fill="#251715"/><path d="M63.954 47.975a3.439 3.439 0 0 1-.783-5.61c.752-.718 1.716-1.078 2.894-1.08a4.359 4.359 0 0 1 2.49.697h2.123c.185-.009.37.001.554.029a.29.29 0 0 1 .107.094.71.71 0 0 1 .067.351.97.97 0 0 1-.057.401.19.19 0 0 1-.117.085c-.184.032-.37.043-.557.032H69.36c.417.531.622 1.21.622 2.034a3.19 3.19 0 0 1-1.079 2.412c-.723.668-1.68 1.013-2.885 1.013a5.08 5.08 0 0 1-1.53-.238 2.916 2.916 0 0 0-.61.727 1.214 1.214 0 0 0-.171.532c.006.145.073.28.185.373.117.114.357.201.709.248.51.057 1.023.087 1.536.09 1.507.047 2.487.103 2.928.18.614.064 1.19.33 1.636.755.401.395.622.939.61 1.502 0 .817-.391 1.591-1.167 2.314-1.135 1.061-2.622 1.592-4.46 1.592-1.41 0-2.604-.311-3.576-.95-.55-.367-.82-.743-.82-1.142.002-.181.041-.36.114-.525a6.16 6.16 0 0 1 .754-1.123c.05-.07.42-.463 1.1-1.183a3.48 3.48 0 0 1-.802-.624.914.914 0 0 1-.237-.613c.02-.323.125-.636.306-.904.209-.35.686-.844 1.431-1.469Zm-.091 3.7a5.063 5.063 0 0 0-.76 1.041 1.79 1.79 0 0 0-.254.868c0 .36.208.663.632.924.733.449 1.794.682 3.183.682 1.316 0 2.284-.233 2.915-.696.63-.463.94-.95.94-1.474a.83.83 0 0 0-.563-.804c-.383-.162-1.137-.257-2.272-.28-1.66-.046-2.937-.143-3.821-.261Zm2.01-9.838a1.722 1.722 0 0 0-1.356.657c-.363.434-.544 1.075-.544 1.967 0 1.151.247 2.044.742 2.68.337.46.876.73 1.447.723a1.72 1.72 0 0 0 1.365-.628c.358-.415.534-1.063.534-1.947 0-1.157-.247-2.067-.75-2.721a1.76 1.76 0 0 0-1.437-.732v.001Zm5.848-.263h4.72v.404h-.228a1.157 1.157 0 0 0-.746.214.689.689 0 0 0-.245.532c0 .29.117.686.363 1.19l2.46 5.106 2.253-5.578c.122-.287.186-.595.188-.906a.493.493 0 0 0-.078-.29.579.579 0 0 0-.276-.19 1.969 1.969 0 0 0-.658-.078v-.404h3.263v.404a1.56 1.56 0 0 0-.63.176 1.834 1.834 0 0 0-.485.489 5.931 5.931 0 0 0-.378.846l-4.09 10.06c-.398.981-.92 1.715-1.566 2.215-.647.5-1.267.744-1.866.744a1.528 1.528 0 0 1-1.075-.373 1.115 1.115 0 0 1-.42-.858.955.955 0 0 1 .304-.735c.232-.201.534-.302.84-.28a3.09 3.09 0 0 1 .999.235c.18.073.366.128.557.165.221 0 .459-.12.723-.346.265-.226.523-.664.787-1.31l.713-1.758-3.63-7.59a6.495 6.495 0 0 0-.527-.85 2.84 2.84 0 0 0-.453-.524 2.763 2.763 0 0 0-.817-.306l-.002-.404Zm11.788-3.469a1.72 1.72 0 0 1 1.71 1.713 1.713 1.713 0 1 1-1.71-1.713Zm-.002.2-.139.006a1.513 1.513 0 1 0 1.65 1.508 1.52 1.52 0 0 0-1.365-1.506l-.146-.008Zm.098.574c.14-.006.28.016.411.065.093.034.17.098.222.182a.597.597 0 0 1 .082.305.479.479 0 0 1-.145.362.664.664 0 0 1-.423.193.668.668 0 0 1 .159.098c.085.08.16.17.221.268l.352.552h-.332l-.264-.42-.193-.276a.9.9 0 0 0-.134-.144.459.459 0 0 0-.12-.047.603.603 0 0 0-.145-.013h-.304v.9h-.273V38.88h.886Zm.096.23h-.723l.007.671h.568a.647.647 0 0 0 .29-.042.258.258 0 0 0 .144-.121.318.318 0 0 0 .055-.186.29.29 0 0 0-.104-.231.477.477 0 0 0-.237-.09Z" fill="#251715"/></g></g></svg>