<svg viewBox="0 0 90 90" xmlns="http://www.w3.org/2000/svg"><g fill="none"><path d="M90 45.002C90 69.855 69.851 90 45 90 20.146 90 0 69.855 0 45.002 0 20.148 20.146 0 45 0c24.851 0 45 20.148 45 45.002" fill="#FFF"/><path d="M7.464 69.822c-1.783-4.397-1.532-10.039.735-16.229l.06-.154.178-.481.174-.435.077-.2a47.32 47.32 0 0 1 3.176-6.358c.168-.358.341-.709.515-1.063l-5.39.013 1.307-2.89c4.454-1.213 11.875-3.694 18.957-10.563l.21-.014h3.73L26.37 41.782l7.745-.024-1.421 3.077-7.731.027s-3.629 7.25-4.86 12.437c-.952 5.788-.016 10.109 5.17 11.728 3.204.993 7.2.765 11.507-.455 10.022-3.12 20.736-10.013 28.574-19.132 12.904-14.992 13.155-30.332.572-34.248-8.076-2.508-19.462.281-29.999 6.562C49.066 13.28 63.512 9.3 73.48 12.404c1.87.581 3.488 1.384 4.865 2.374C70.11 5.698 58.218 0 44.996 0 20.151 0 0 20.148 0 44.999a44.815 44.815 0 0 0 7.464 24.823ZM44.997 90C69.853 90 90 69.855 90 45.001a44.853 44.853 0 0 0-6.848-23.874c3.01 8.177-.756 20.38-11.15 32.459C56.4 71.73 31.753 82.703 16.959 78.098c-1.836-.572-3.43-1.358-4.792-2.33C20.376 84.528 32.046 90 44.997 90Z" fill="#D71920"/></g></svg>