<svg viewBox="0 0 90 90" xmlns="http://www.w3.org/2000/svg"><g fill="none"><path d="M71.064 67.094s-8.903-1.68-11.497-3.422c-3.033-2.038-9.612-5.162-5.394-8.568 2.766-2.23 7.19-.696 9.225.138 0 0 5.074 1.363 7.02 5.505 1.636 3.485.77 5.908.646 6.347M53.535 32.938s.634 1.12 1.436 2.565l-3.24 9.013s-1.893-6.266-8.455-8.034c-6.562-1.767-7.928-1.473-7.928-1.473s2.621-7.82 10.216-6.79c7.177.973 7.971 4.719 7.971 4.719" fill="#0BB263"/><path d="M75.372 51.073c-6.387-5.525-16.264-8.913-23.642-6.557-1.361-6.837-9.496-9.818-16.107-9.521 1.743-4.28 4.724-6.443 8.133-6.443 3.405 0 6.175.37 9.582 3.97-.414-3.267-5.018-7.56-10.73-7.56-6.54 0-12.397 4.433-14.874 10.76-4.153.8-19.451 8.42-24.385 13.785 5.918-3.556 17.848-10.592 25.763-10.592 6.194 0 10.804 5.332 12.25 9.947 3.88 12.395 14.581 17.164 27.17 17.457a42.099 42.099 0 0 1-6.103-1.712c-5.872-2.181-10.875-6.271-7.841-8.826 1.96-1.65 7.914-1.26 11.945 1.37 3.742 2.446 4.788 6.352 3.925 9.362-4.67 16.291 2.535 22.77 15.012 21.185 1.812-17.595-2.884-30.385-10.098-36.625" fill="#0E7D3F"/><path d="M44.733 32.576a1.853 1.853 0 0 1-1.841 1.864 1.853 1.853 0 0 1-1.845-1.864c0-1.032.823-1.866 1.845-1.866 1.017 0 1.84.834 1.84 1.866" fill="#231F20"/><path d="M70.993 47.964c-6.008-3.56-13.41-5.32-19.263-3.447L82.112 9.13c7.753 12.238-1.679 34.522-11.119 38.833" fill="#0BB263"/><path d="M51.73 44.516 67.02 2C78.674 10.312 77.08 37.825 71 47.96c-6.007-3.559-13.418-5.315-19.27-3.443" fill="#0E7D3F"/><path d="M29.105 38.915c-7.95.01-20.162 7.19-26.105 10.82 4.953-5.471 20.547-13.253 24.722-14.074l1.383 3.254Z" fill="#231F20"/></g></svg>