<svg viewBox="0 0 90 90" xmlns="http://www.w3.org/2000/svg"><g fill="none"><path d="M33.632 41.684c-.158-2.842-.474-5.684-1.106-8.526-3.473-1.263-7.263-2.526-11.684-3.632 9.632 15.474 9 33.316-2.053 53.369 3.158-3.948 7.264-9.948 10.422-17.527 3.157-7.894 4.736-15.79 4.42-23.684Z" fill="#FFCC12"/><path d="M44.842 33.632c.474-4.895.316-9.632-.316-14.369-9.473-4.263-19.263-6.79-19.263-6.79C42.632 39 33.632 63 24.947 76.738c3.474-4.263 7.264-9.474 10.58-15.316 5.21-9.474 8.368-18.79 9.315-27.79Z" fill="#23B3E8"/><path d="M39.474.474S61.894 9 73.894 20.526c0 0-2.052 41.842-58.736 68.527 0 0 49.263-42.632 24.316-88.58Z" fill="#C52B87"/><path d="M15.158 89.053c27-12.632 41.684-28.895 49.579-42.316-9.158.158-16.58 1.263-22.263 2.684-8.369 23.368-27.316 39.632-27.316 39.632Z" fill="#B2267B"/><path d="M32.842 52.737c-2.684 1.263-4.579 2.368-5.368 3C27 64.263 24 73.42 18.789 83.053c3.158-3.948 7.264-9.948 10.422-17.527 1.736-4.263 3-8.526 3.631-12.79Z" fill="#F9BA19"/><path d="M40.895 49.895c-2.527.631-4.58 1.42-6.474 2.21-1.579 9.79-5.526 18.316-9.474 24.632 3.474-4.263 7.264-9.474 10.58-15.316 2.052-3.947 3.947-7.737 5.368-11.526Z" fill="#4BA7DD"/></g></svg>