<svg viewBox="0 0 90 90" xmlns="http://www.w3.org/2000/svg"><defs><linearGradient x1="81.21%" y1="23.742%" x2="18.936%" y2="75.996%" id="a"><stop stop-color="#50FEBE" offset="0%"/><stop stop-color="#0ADCDC" offset="100%"/></linearGradient></defs><g fill="none" fill-rule="evenodd"><path fill="#FFF" d="M0 0h90v90H0z"/><path d="M32.971 1.254c0-.537.18-1.075.358-1.254L62 28.67c-.18.18-.358.359-.717.359H50.89c-1.613-.18-3.584-1.075-4.659-2.15l-11.11-11.11c-1.254-1.255-2.15-3.584-2.15-5.197V1.254ZM51.428 33.15c-1.613 0-4.122.896-5.197 2.15l-11.11 11.11c-1.254 1.255-2.15 3.584-2.15 5.197v9.318c0 .537.18.717.358 1.075L62 33.33c-.18-.18-.717-.18-1.075-.18h-9.497Zm-41.035-4.12c1.613 0 4.121-.896 5.197-2.15l11.289-11.11c1.254-1.255 2.15-3.584 2.15-5.197V1.254c0-.537-.18-1.075-.358-1.254L0 28.67c.18.18.717.359 1.254.359h9.14ZM28.85 51.607c0-1.613-.896-4.121-2.15-5.197L15.59 35.3c-1.255-1.254-3.584-2.15-5.197-2.15H1.075c-.537 0-.896 0-1.075.18L28.67 62c.18-.18.18-.538.18-1.075v-9.318Zm14.514-21.861-11.11-11.11c-.716-.717-1.792-.717-2.508 0l-11.11 11.11c-.717.716-.717 1.792 0 2.508l11.11 11.11c.716.717 1.792.717 2.508 0l11.11-11.11c.717-.537.717-1.792 0-2.508Z" transform="translate(14 14)" fill="url(#a)" fill-rule="nonzero"/></g></svg>