<svg viewBox="0 0 90 90" xmlns="http://www.w3.org/2000/svg"><g fill="none" fill-rule="evenodd"><path fill="#FFF" d="M0 0h90v90H0z"/><path d="M62.706 6.935c-7.296 3.637-12.259 10.32-12.51 18.02C61.042 26.809 69.334 35.966 69.334 47c0 12.47-10.425 22.485-23.188 22.485-14.117 0-23.738-12.345-23.489-26.18 0-20.224 16.88-36.593 37.737-36.593.656 0 1.306.022 1.953.055A42.009 42.009 0 0 0 44.912 3C21.745 3 3 21.745 3 44.911 3 68.255 21.745 87 44.912 87 68.078 87 87 68.254 87 44.91c0-16.813-9.97-31.296-24.294-37.975Z" fill="#E60012"/></g></svg>