<svg viewBox="0 0 90 90" xmlns="http://www.w3.org/2000/svg"><g fill="none" fill-rule="evenodd"><path fill="#FFF" d="M0 0h90v90H0z"/><g fill="#D30035" fill-rule="nonzero"><path d="M38.147 13.595s9.125 7.978 7.885 15.05c-.552 3.147-4.73 8.347-2.48 13.28 2.437 5.326 3.699 15.584-7.261 12.928C25.48 52.24 26.323 39 34.355 32.013c8.144-7.085 5.394-14.88 3.792-18.418"/><path d="M46.48 37.52c-.605 5.387 5.352 10.752.624 18.043-3.28 5.05 1.75 12.146 8.208 10.853 7.083-1.416 8.835-5.893 8.645-11.093-.248-6.603-2.874-8.438-8.72-13.395-6.32-5.365-1.434-15.49-1.434-15.49s-6.646 5.157-7.323 11.082"/><path d="M27.24 53.28c2 2.459 5.867 5.355 13.27 5.52 2.24.043.49 4.221 4.97 7.981 3.875 3.262 9.093 3.334 11.885 2.28 1.627-.602 3.155-1.186 1.979.326-5.261 6.738-14.397 6.312-20.917 3.874-7.75-2.896-9.699-8.594-10.968-12.146-1.366-3.854-.667-8.387-.219-7.835"/></g></g></svg>