<svg viewBox="0 0 90 90" xmlns="http://www.w3.org/2000/svg"><g fill="none" fill-rule="evenodd"><path d="M45.002 0C20.147 0 0 20.149 0 45.001 0 69.851 20.147 90 45.002 90 69.853 90 90 69.851 90 45.001 90 20.15 69.85 0 45.002 0Z" fill="#165C7D" fill-rule="nonzero"/><path d="m26.708 17.908.628.002c.504.002.851.004.945.01.505.024.884.216 1.136.57.27.405.416.879.42 1.364.011.285.023 12.91.036 25.32l.002 1.458c.012 11.403.024 22.207.037 22.588.025.806-.09 1.418-.345 1.822-.2.35-.786.797-1.523.832-.118.005-.401.008-.795.009h-.667c-.736-.002-1.659-.007-2.585-.015l-.616-.005c-1.734-.017-3.334-.041-3.556-.064a2.135 2.135 0 0 1-1.174-.457c-.252-.255-.404-.632-.454-1.136a16.196 16.196 0 0 1-.075-1.593v-1.579l-.002-2.862v-3.437l-.002-2.276V55.36l-.002-1.966v-2.718l-.001-1.39v-.7l-.001-1.41v-.708l-.002-1.42v-2.13l-.001-1.414-.003-3.482v-1.36c-.006-8.536-.014-15.532-.024-15.897-.027-.958.088-1.647.342-2.047.198-.305.737-.799 1.399-.799h.333l.277-.002 3.335-.007 1.13-.001h1.808ZM67.192 33.05a10.933 10.933 0 0 1 4.776 4.245c1.171 1.897 2.047 5.373 2.047 8.723v1.896l-.002 1.1v1.634l-.001.72v.374l-.001.768v.395l-.002.806v1.247l-.002.85c-.006 6.42-.016 13.712-.029 14.21-.03.884-.38 1.491-1.099 1.698-.323.094-1.683.13-3.194.135h-.61c-1.946-.003-3.945-.051-4.198-.092a1.568 1.568 0 0 1-1.098-.65 2.242 2.242 0 0 1-.343-1.173c-.016-.318-.028-8.281-.035-13.555v-.995l-.002-.616v-1.098l-.002-.884V51.78c0-1.873-.075-3.605-.225-5.196-.153-1.593-.89-6.556-6.969-6.556-5.4 0-7.365 4.369-7.665 6.591a55.798 55.798 0 0 0-.457 7.508v15.475c0 .449-.075.831-.225 1.136-.22.506-.674.872-1.216.98-.375.095-2.02.129-3.68.132h-.62c-1.54-.003-2.954-.029-3.208-.051-.556-.053-.958-.225-1.21-.532-.357-.454-.517-1.111-.495-1.975.01-.401.022-8.013.034-16.016l.003-2.047.001-.512.002-1.02c.012-7.799.024-15 .035-15.21.009-.414.157-.813.42-1.133.304-.407.968-.602 2.157-.602l4.31-.037c1.21 0 2.708.035 2.896 1.158.047.287.324 2.614 1.313 2.634.3.005.504-.137.746-.382.015-.01.05-.044.104-.097l.398-.398c.55-.544 1.454-1.399 2.235-1.852 3.955-2.461 10.941-2.671 15.11-.729Z" fill="#FFF"/></g></svg>