<svg viewBox="0 0 90 90" xmlns="http://www.w3.org/2000/svg"><defs><linearGradient x1="100%" y1="50%" x2="0%" y2="50%" id="a"><stop stop-color="#C5D900" offset="0%"/><stop stop-color="#FFBC38" offset="49.557%"/><stop stop-color="#FF3600" offset="100%"/></linearGradient><linearGradient x1="100%" y1="50%" x2="0%" y2="50%" id="b"><stop stop-color="#BFD900" offset="0%"/><stop stop-color="#FFBA37" offset="49.926%"/><stop stop-color="#FF3600" offset="100%"/></linearGradient><linearGradient x1="100%" y1="50%" x2="0%" y2="50%" id="c"><stop stop-color="#BAD900" offset="0%"/><stop stop-color="#FFBC38" offset="49.995%"/><stop stop-color="#FF3600" offset="100%"/></linearGradient><linearGradient x1="100%" y1="50%" x2="0%" y2="50%" id="d"><stop stop-color="#B8D900" offset="0%"/><stop stop-color="#FFBB37" offset="50.031%"/><stop stop-color="#FF3600" offset="100%"/></linearGradient><linearGradient x1="100%" y1="50%" x2="0%" y2="50%" id="e"><stop stop-color="#B4D900" offset="0%"/><stop stop-color="#FFBC38" offset="49.972%"/><stop stop-color="#FF3500" offset="100%"/></linearGradient><linearGradient x1="100%" y1="50%" x2="0%" y2="50%" id="f"><stop stop-color="#AFDA00" offset="0%"/><stop stop-color="#FFBC38" offset="49.923%"/><stop stop-color="#FF3500" offset="100%"/></linearGradient><linearGradient x1="100%" y1="50%" x2="0%" y2="50%" id="g"><stop stop-color="#ADDA00" offset="0%"/><stop stop-color="#FFBA37" offset="49.899%"/><stop stop-color="#FF3500" offset="100%"/></linearGradient><linearGradient x1="100%" y1="50%" x2="0%" y2="50%" id="h"><stop stop-color="#A8DA00" offset="0%"/><stop stop-color="#FFBB37" offset="49.898%"/><stop stop-color="#FF3500" offset="100%"/></linearGradient><linearGradient x1="100%" y1="50%" x2="0%" y2="50%" id="i"><stop stop-color="#A4DB00" offset="0%"/><stop stop-color="#FFBC38" offset="49.908%"/><stop stop-color="#FF3500" offset="100%"/></linearGradient><linearGradient x1="100%" y1="50%" x2="0%" y2="50%" id="j"><stop stop-color="#9FDB00" offset="0%"/><stop stop-color="#FFBB37" offset="49.94%"/><stop stop-color="#FF3500" offset="100%"/></linearGradient><linearGradient x1="100%" y1="50%" x2="0%" y2="50%" id="k"><stop stop-color="#9BDB00" offset="0%"/><stop stop-color="#FEBB37" offset="49.951%"/><stop stop-color="#FF3500" offset="100%"/></linearGradient><linearGradient x1="100%" y1="50%" x2="0%" y2="50%" id="l"><stop stop-color="#97DB00" offset="0%"/><stop stop-color="#FFBC38" offset="49.951%"/><stop stop-color="#FF3500" offset="100%"/></linearGradient><linearGradient x1="100%" y1="50%" x2="0%" y2="50%" id="m"><stop stop-color="#92DB00" offset="0%"/><stop stop-color="#FFBC38" offset="49.951%"/><stop stop-color="#F30" offset="100%"/></linearGradient><linearGradient x1="100%" y1="50%" x2="0%" y2="50%" id="n"><stop stop-color="#8DDB00" offset="0%"/><stop stop-color="#FFBC38" offset="49.951%"/><stop stop-color="#F30" offset="100%"/></linearGradient><linearGradient x1="100%" y1="50%" x2="0%" y2="50%" id="o"><stop stop-color="#88DC00" offset="0%"/><stop stop-color="#FFBC38" offset="49.951%"/><stop stop-color="#F30" offset="100%"/></linearGradient><linearGradient x1="100%" y1="50%" x2="0%" y2="50%" id="p"><stop stop-color="#83DC00" offset="0%"/><stop stop-color="#FFBC38" offset="49.951%"/><stop stop-color="#F30" offset="100%"/></linearGradient><linearGradient x1="100%" y1="50%" x2="0%" y2="50%" id="q"><stop stop-color="#7DDC00" offset="0%"/><stop stop-color="#FFBC38" offset="49.951%"/><stop stop-color="#F30" offset="100%"/></linearGradient><linearGradient x1="100%" y1="50%" x2="0%" y2="50%" id="r"><stop stop-color="#78DC00" offset="0%"/><stop stop-color="#FFBC38" offset="49.951%"/><stop stop-color="#F30" offset="100%"/></linearGradient><linearGradient x1="100%" y1="50%" x2="0%" y2="50%" id="s"><stop stop-color="#71DC00" offset="0%"/><stop stop-color="#FFBC38" offset="49.951%"/><stop stop-color="#FF3100" offset="100%"/></linearGradient><linearGradient x1="100%" y1="50%" x2="0%" y2="50%" id="t"><stop stop-color="#6BDD00" offset="0%"/><stop stop-color="#FFBC38" offset="49.951%"/><stop stop-color="#FF3100" offset="100%"/></linearGradient><linearGradient x1="100%" y1="50%" x2="0%" y2="50%" id="u"><stop stop-color="#63DD00" offset="0%"/><stop stop-color="#FFBC38" offset="49.951%"/><stop stop-color="#FF3100" offset="100%"/></linearGradient><linearGradient x1="100%" y1="50%" x2="0%" y2="50%" id="v"><stop stop-color="#5DDD00" offset="0%"/><stop stop-color="#FFBC38" offset="49.951%"/><stop stop-color="#FF3100" offset="100%"/></linearGradient><linearGradient x1="100%" y1="50%" x2="0%" y2="50%" id="w"><stop stop-color="#55DE00" offset="0%"/><stop stop-color="#FFBC37" offset="49.951%"/><stop stop-color="#FF3100" offset="100%"/></linearGradient><linearGradient x1="100%" y1="50%" x2="0%" y2="50%" id="x"><stop stop-color="#4DDE00" offset="0%"/><stop stop-color="#FFBC35" offset="49.951%"/><stop stop-color="#FF3000" offset="100%"/></linearGradient><linearGradient x1="100%" y1="50%" x2="0%" y2="50%" id="y"><stop stop-color="#41DE00" offset="0%"/><stop stop-color="#FFBC36" offset="49.951%"/><stop stop-color="#FF3000" offset="100%"/></linearGradient><linearGradient x1="100%" y1="50%" x2="0%" y2="50%" id="z"><stop stop-color="#37DE0F" offset="0%"/><stop stop-color="#FFBC36" offset="49.951%"/><stop stop-color="#FF3000" offset="100%"/></linearGradient><linearGradient x1="100%" y1="50%" x2="0%" y2="50%" id="A"><stop stop-color="#26DE19" offset="0%"/><stop stop-color="#FFBC35" offset="49.951%"/><stop stop-color="#FF3000" offset="100%"/></linearGradient><linearGradient x1="100%" y1="50%" x2="0%" y2="50%" id="B"><stop stop-color="#10DE1F" offset="0%"/><stop stop-color="#FFBC36" offset="49.951%"/><stop stop-color="#FF3000" offset="100%"/></linearGradient><linearGradient x1="100%" y1="50%" x2="0%" y2="50%" id="C"><stop stop-color="#00DE27" offset="0%"/><stop stop-color="#FFBC37" offset="49.951%"/><stop stop-color="#FF3000" offset="100%"/></linearGradient><linearGradient x1="100%" y1="50%" x2="0%" y2="50%" id="D"><stop stop-color="#00DE30" offset="0%"/><stop stop-color="#FFBC36" offset="49.951%"/><stop stop-color="#FF2E00" offset="100%"/></linearGradient></defs><g fill="none" fill-rule="evenodd"><path fill="url(#a)" d="M0 0h90v1H0z"/><path fill="url(#b)" d="M0 1h90v1H0z"/><path fill="url(#c)" d="M0 2h90v1H0z"/><path fill="url(#d)" d="M0 3h90v1H0z"/><path fill="url(#e)" d="M0 4h90v1H0z"/><path fill="url(#f)" d="M0 5h90v1H0z"/><path fill="url(#g)" d="M0 6h90v1H0z"/><path fill="url(#h)" d="M0 7h90v1H0z"/><path fill="url(#i)" d="M0 8h90v1H0z"/><path fill="url(#j)" d="M0 9h90v1H0z"/><path fill="url(#k)" d="M0 0h90v1H0z" transform="translate(0 10)"/><path fill="url(#l)" d="M0 1h90v1H0z" transform="translate(0 10)"/><path fill="url(#m)" d="M0 2h90v1H0z" transform="translate(0 10)"/><path fill="url(#n)" d="M0 3h90v1H0z" transform="translate(0 10)"/><path fill="url(#o)" d="M0 4h90v1H0z" transform="translate(0 10)"/><path fill="url(#p)" d="M0 5h90v1H0z" transform="translate(0 10)"/><path fill="url(#q)" d="M0 6h90v1H0z" transform="translate(0 10)"/><path fill="url(#r)" d="M0 7h90v1H0z" transform="translate(0 10)"/><path fill="url(#s)" d="M0 8h90v1H0z" transform="translate(0 10)"/><path fill="url(#t)" d="M0 9h90v1H0z" transform="translate(0 10)"/><path fill="url(#u)" d="M0 0h90v1H0z" transform="translate(0 20)"/><path fill="url(#v)" d="M0 1h90v1H0z" transform="translate(0 20)"/><path fill="url(#w)" d="M0 2h90v1H0z" transform="translate(0 20)"/><path fill="url(#x)" d="M0 3h90v1H0z" transform="translate(0 20)"/><path fill="url(#y)" d="M0 4h90v1H0z" transform="translate(0 20)"/><path fill="url(#z)" d="M0 5h90v1H0z" transform="translate(0 20)"/><path fill="url(#A)" d="M0 6h90v1H0z" transform="translate(0 20)"/><path fill="url(#B)" d="M0 7h90v1H0z" transform="translate(0 20)"/><path fill="url(#C)" d="M0 8h90v1H0z" transform="translate(0 20)"/><path fill="url(#D)" d="M0 9h90v1H0z" transform="translate(0 20)"/></g></svg>