<svg viewBox="0 0 90 90" xmlns="http://www.w3.org/2000/svg"><g fill="none"><path fill="#FFCB01" d="M0 0h90v90H0z"/><g fill="#D80613"><path d="m16.719 37.685-2.786 3.756h15.185c.768 0 .758.287.383.794-.381.513-1.019 1.4-1.408 1.923-.197.264-.553.745.627.745h6.21l1.84-2.482c1.141-1.537.1-4.734-3.981-4.734l-16.07-.002Z"/><path d="m12.805 49.923 5.597-7.547h6.945c.768 0 .759.289.383.794l-1.417 1.915c-.197.264-.553.745.627.745h9.302c-.772 1.053-3.284 4.093-7.788 4.093h-13.65Zm32.051-4.095-3.035 4.095h-8.006l3.035-4.095h8.006Zm12.263-.927H37.54l5.355-7.216h8.002l-3.068 4.138H51.4l3.071-4.138h8.002L57.12 44.9Zm-.687.927-3.035 4.095h-8.003l3.036-4.095h8.002Zm-55.05 1.615h11.792l-.643.868H1.383v-.868Zm0-1.615h12.991l-.645.868H1.383v-.868Zm0 3.23h10.596l-.642.865H1.383v-.865Zm87.21-.747h-11.75l.646-.868h11.105v.868Zm0 1.612H75.65l.64-.865h12.303v.865Zm-9.907-4.095h9.908v.87H78.04l.644-.87Zm-5.128-8.143L68.203 44.9h-8.481l5.358-7.216h8.477Zm-14.52 8.143s-.585.794-.87 1.174c-1.004 1.35-.117 2.919 3.163 2.919h12.853l3.035-4.093H59.036Z"/></g></g></svg>