<svg viewBox="0 0 90 90" xmlns="http://www.w3.org/2000/svg"><g fill="none"><path d="M71.188 20.71c-.055-.4-.404-.622-.694-.646-.288-.024-6.393-.478-6.393-.478s-4.24-4.218-4.706-4.684c-.466-.467-1.375-.325-1.728-.22-.052.014-.926.285-2.373.733-1.416-4.083-3.916-7.836-8.314-7.836a6.57 6.57 0 0 0-.371.012c-1.25-1.658-2.8-2.378-4.138-2.378-10.245 0-15.139 12.832-16.673 19.352a4986.865 4986.865 0 0 0-7.17 2.229c-2.222.698-2.292.768-2.584 2.866-.22 1.588-6.034 46.637-6.034 46.637l45.303 8.505 24.546-5.32S71.243 21.11 71.19 20.71ZM52.79 16.19l-3.833 1.189c.001-.27.003-.537.003-.828 0-2.538-.352-4.582-.916-6.202 2.266.285 3.775 2.868 4.746 5.841Zm-7.557-5.338c.63 1.582 1.04 3.852 1.04 6.915 0 .157-.002.3-.003.445l-7.917 2.456c1.524-5.894 4.382-8.742 6.88-9.816Zm-3.044-2.886c.442 0 .888.15 1.314.444-3.283 1.548-6.802 5.447-8.288 13.232l-6.258 1.942c1.74-5.938 5.874-15.618 13.232-15.618Z" fill="#95BF46"/><path d="M70.494 20.064c-.288-.024-6.393-.478-6.393-.478s-4.24-4.218-4.706-4.684c-.174-.174-.409-.263-.654-.301l-3.426 70.2 24.544-5.32S71.242 21.11 71.19 20.71c-.056-.4-.405-.622-.695-.646" fill="#5E8E3E"/><path d="m46.98 33.653-3.026 9.021s-2.652-1.418-5.903-1.418c-4.765 0-5.005 2.997-5.005 3.752 0 4.12 10.719 5.698 10.719 15.349 0 7.592-4.807 12.481-11.287 12.481-7.777 0-11.754-4.849-11.754-4.849l2.083-6.893s4.088 3.516 7.537 3.516c2.254 0 3.17-1.778 3.17-3.077 0-5.374-8.793-5.614-8.793-14.445 0-7.432 5.324-14.625 16.072-14.625 4.141 0 6.187 1.188 6.187 1.188" fill="#FFF"/></g></svg>