<svg viewBox="0 0 90 90" xmlns="http://www.w3.org/2000/svg"><path d="M39.77 14.109a92.88 92.88 0 0 0-3.407.393c-2.066.366-5.063 1.22-6.609 1.872-.287.122-.547.217-.588.217-.178 0-3.257 1.6-4.352 2.265-4.885 2.997-9.127 7.582-11.59 12.52-.89 1.776-1.012 2.047-1.56 3.594a31.88 31.88 0 0 0-1.56 6.714c-.191 1.75-.11 6.13.165 7.867.3 1.885 1.053 4.76 1.587 6.036.055.149.246.61.41 1.017 1.054 2.577 2.901 5.602 4.858 7.948.698.841 2.778 2.93 3.763 3.77 2.217 1.913 5.692 4.03 8.498 5.169 2.777 1.14 5.309 1.79 8.606 2.238 1.71.23 3.285.244 21.935.257L80 76l-.027-18.813-.041-18.826H59.379c-11.316 0-20.58.027-20.58.067-.014.041-.028 3.012-.041 6.62-.014 5.723.013 6.537.191 6.55.11.014 6.144.028 13.41.041l13.205.014.04 5.534.028 5.534-12.48-.054c-6.868-.027-12.739-.095-13.04-.15-1.778-.325-4.406-1.125-4.816-1.464-.096-.082-.178-.109-.178-.068 0 .122-2.203-1.126-3.147-1.777-1.423-1.004-3.394-3.052-4.393-4.57-2.08-3.161-2.873-5.67-2.942-9.36-.04-2.157.11-3.364.657-5.154.164-.53.301-.977.315-1.017.219-.72 1.272-2.754 2.011-3.866.93-1.41 3.284-3.744 4.762-4.72 2.45-1.6 5.159-2.632 7.868-3.011 1.232-.177 3.722-.19 21.867-.204H80V14l-19.869.04c-10.933.014-20.1.055-20.36.069Z" fill="#F25F00"/></svg>