<svg viewBox="0 0 90 90" xmlns="http://www.w3.org/2000/svg"><g fill="none" fill-rule="evenodd"><path fill="#FFE000" d="M0 0h90v90H0z"/><path d="M46.481 15c21.581 0 31.528 27.29 32.654 44.673a3.017 3.017 0 0 1-.324 1.712l-.052.157C73.692 70.14 62.245 75 46.481 75h-.093c-10.885 0-22.052-4.86-29.37-13.084-.939-.748-1.126-2.056-.751-3.178 2.064-5.42 7.506-17.944 14.45-18.13 3.566 0 6.193 2.803 8.257 5.046a12.763 12.763 0 0 0 2.252 2.243c1.69-1.682 4.88-6.916 7.32-12.336.75-1.682 2.627-2.243 4.316-1.496 1.689.748 2.252 2.617 1.5 4.3C47.007 54.3 43.075 54.62 41.508 54.625h-.093c-3.003 0-5.067-2.243-7.131-4.486-.939-.934-2.815-2.99-3.566-2.99-1.689.186-5.255 5.98-7.694 12.15 6.193 6.167 14.638 9.532 23.27 9.345 7.507 0 20.831-1.309 26.273-9.346-1.47-15.753-9.97-36.89-25.322-37.731a2.094 2.094 0 0 0-.048-.003l.048.003a17.271 17.271 0 0 0-.474-.02l-.477-.006c-13.512 0-23.458 9.159-30.026 27.664-.563 1.682-2.44 2.616-4.129 1.869-1.689-.561-2.627-2.43-1.876-3.925C17.768 25.84 29.966 15 46.48 15Z" fill="#1D2D35" fill-rule="nonzero"/></g></svg>