<svg viewBox="0 0 90 90" xmlns="http://www.w3.org/2000/svg"><g fill="none" fill-rule="evenodd"><path fill="#FFF" d="M0 0h90v90H0z"/><g fill-rule="nonzero"><path d="M23 16.34V10c.49 0 19.052.03 27.874.03 4.717.062 8.852 1.655 12.038 5.361 3.86 4.472 4.165 13.998-3.247 18.01-.03.031-.429.276-.613.399 1.41.919 2.88 1.623 4.043 2.695 7.505 6.678 4.993 18.563-4.717 22.085-2.174.797-4.564 1.256-6.86 1.287H23.06v-6.34c4.84-1.165 7.23-3.615 7.321-7.505.153-5.024-1.532-7.076-7.382-8.945v-5.574c4.778-1.072 7.32-3.645 7.382-7.444.092-3.89-2.297-6.401-7.382-7.718Zm14.58 36.237c4.442 0 8.76-.062 13.508-.062 4.013-.214 6.647-3.492 6.617-7.596-.031-3.829-2.788-6.953-6.709-7.168-4.319-.245-13.232-.153-13.385-.153-.03 4.962-.03 10.047-.03 14.979Zm0-21.534c4.105 0 8.087.153 12.038-.061 3.737-.184 6.31-3.002 6.555-6.616.214-3.461-2.144-6.647-5.881-7.015-4.166-.367-8.424-.092-12.712-.092v13.784Z" fill="#282828"/><path d="M67 70v8H23v-8h44Z" fill="#14A049"/></g></g></svg>