<svg viewBox="0 0 90 90" xmlns="http://www.w3.org/2000/svg"><g fill="none" fill-rule="evenodd"><path fill="#000" d="M0 0h90v90H0z"/><path d="M31.239 30.39v30.175h-2.761V35.921L18.597 55.2h-1.94L6.76 35.966v24.6H4V30.39h2.88l10.762 20.836L28.403 30.39h2.836ZM60.478 61l-5-5.367c-1.806 2.849-4.269 4.932-8.314 4.932-5.209 0-9.045-3.627-9.045-8.08 0-3.717 2.284-6.01 6.672-8.514-2.492-2.503-3.88-4.587-3.88-7.045 0-3.583 3.014-6.446 6.671-6.446 3.88 0 6.761 2.848 6.761 6.446 0 3.462-2.716 5.786-5.418 7.57l6.194 6.79 3.657-5.966 2.194 1.38-4.045 6.61 5.553 5.921-2 1.769ZM46.522 45.86c-3.91 2.158-5.641 3.897-5.641 6.566 0 3.073 2.76 5.62 6.283 5.62 3.18 0 4.821-1.468 6.582-4.316l-7.224-7.87Zm-2.88-8.95c0 1.68 1.12 3.119 3.567 5.757 2.88-1.694 4.478-3.463 4.478-5.756 0-2.249-1.508-4.018-4.09-4.018-2.403 0-3.955 1.904-3.955 4.018Zm42.134-.074-2.492.914c-.985-3.163-3.791-5.202-7.583-5.202-4.134 0-6.835 2.069-6.835 5.577C68.866 45.65 86 41.662 86 52.26c0 5.051-4.045 8.604-10.075 8.604-5.597 0-8.955-2.683-11.268-6.955l2.328-1.425c1.552 3.283 4.388 5.832 8.702 5.832 4.985 0 7.582-2.294 7.582-6.101 0-7.57-17.135-3.853-17.135-14.136 0-6.101 5.463-8.08 9.508-8.08 4.537 0 8.671 2.069 10.134 6.836Z" fill="#FFF" fill-rule="nonzero"/></g></svg>