<svg viewBox="0 0 90 90" xmlns="http://www.w3.org/2000/svg"><defs><linearGradient x1="50%" y1="0%" x2="50%" y2="100%" id="a"><stop stop-color="#EED823" offset="0%"/><stop stop-color="#B69021" offset="100%"/></linearGradient></defs><g fill="none"><path fill="url(#a)" d="M0 0h90v90H0z"/><path d="M14 33h6.455v24.642H14V33Zm28.977 0v24.642h-5.63l-.025-16.638-2.245 16.638h-4.028l-2.348-16.28-.026 16.28h-5.629V33h8.35c.222 1.497.476 3.247.774 5.25l.918 6.257L34.573 33h8.404Zm9.026 4.201v16.24c.92 0 1.487-.185 1.698-.558.21-.371.318-1.38.318-3.025v-9.593c0-1.118-.037-1.835-.108-2.148-.072-.317-.232-.548-.485-.695-.25-.148-.724-.22-1.423-.22ZM45.551 33h4.82c3.11 0 5.217.142 6.313.426 1.098.285 1.933.752 2.503 1.399.57.652.928 1.373 1.071 2.172.145.797.217 2.36.217 4.692v8.632c0 2.212-.107 3.69-.315 4.435-.209.746-.573 1.33-1.096 1.752-.52.42-1.162.715-1.927.885-.766.166-1.918.25-3.46.25h-8.126V33Zm25.253 10.202c0-1.04-.068-1.719-.203-2.04-.135-.318-.396-.478-.79-.478-.385 0-.634.14-.748.416-.114.278-.17.98-.17 2.102v8.68c0 1.082.064 1.773.194 2.077.128.305.386.454.768.454.393 0 .649-.155.768-.47.12-.314.18-1.067.18-2.261v-8.48ZM68.893 33v5.866c.513-.594 1.084-1.038 1.713-1.33a4.87 4.87 0 0 1 2.057-.437c.849 0 1.586.132 2.213.394.626.266 1.103.635 1.43 1.11.328.477.527.945.594 1.4.065.455.1 1.427.1 2.917v9.09c0 1.48-.1 2.582-.302 3.307-.198.726-.671 1.355-1.409 1.886-.74.531-1.617.797-2.632.797-.73 0-1.41-.159-2.043-.476-.633-.318-1.212-.793-1.733-1.425l-.401 1.543h-5.783V33h6.196Z" fill="#000"/></g></svg>