<svg viewBox="0 0 90 90" xmlns="http://www.w3.org/2000/svg"><g fill="none"><path fill="#C7232F" d="M0 0h90v90H0z"/><g fill="#FFF"><path d="M60.82 20.665c2.821-1.412 4.27-1.195 4.305.216.036 1.846-.254 4.306-.435 6.079-1.085 9.625-2.822 17.476-2.966 27.39 4.668-12.085 8.539-20.407 13.569-30.719 1.592-3.292 2.64-2.677 3.943-3.292 5.102-2.28 5.283-.87 4.596 1.953-2.46 10.24-8.757 42.623-9.733 47.581-.29 1.448-1.882.868-2.244.29-1.881-2.497-3.908-2.534-3.691-4.234 1.158-8.25 5.283-29.127 6.333-34.048-5.464 11.144-11.109 25.147-14.003 33.034-.615 1.665-1.737 1.557-2.424.326-1.014-1.773-2.895-2.641-3.184-4.667-1.014-6.477 1.121-18.852 1.41-26.703-2.93 8.539-7.923 25.183-10.094 32.672-.904 3.112-3.908 2.57-3.112-.398 3.329-12.628 10.457-34.88 13.532-42.877.724-1.916 2.64-1.807 4.197-2.603ZM42.8 19.109c-.977-.217-3.8 1.302-5.536 1.556-.542.145-1.049.687-1.23 1.121a474.265 474.265 0 0 0-7.309 17.766 332.02 332.02 0 0 0-9.48 1.881 2706.695 2706.695 0 0 1 7.635-19.177c1.23-3.111-2.026-3.4-3.293-.289-1.628 4.016-4.704 11.578-8.105 20.371-2.497.615-5.21 1.303-7.96 2.135-2.026.542-2.1 1.085-1.23 2.316.506.65 1.447.579 1.917 1.085 1.194 1.23 1.918 2.714 4.052 2.93a369.97 369.97 0 0 0-5.5 15.198c-1.085 3.147 1.99 3.799 3.148.47a823.22 823.22 0 0 1 5.935-16.174c1.7-.362 5.79-1.23 9.588-2.099-3.003 8.322-4.957 14.582-5.753 17.658-.144.578.145.868.253 1.157.977 1.448 1.99 1.52 3.293 3.366.326.506 1.52.76 1.954-.471a578.778 578.778 0 0 1 8.286-23.446c1.122-.29 3.148-.76 4.378-2.57 2.171-3.256 2.787-2.604 3.365-3.581.651-1.266.18-2.388-2.134-2.135 0 0-.87.073-2.534.253 2.605-6.621 4.922-12.23 6.514-16.535.542-1.484.615-2.57-.254-2.786Z"/><path d="M40.255 60.227c.377-.478.718-.97 1.026-1.426 1.37-2.028.036-3.22-1.375-2.026-.202.185-.41.387-.619.597-.231-.724-.46-1.449-.689-2.174.647-.792 1.277-1.606 1.814-2.44 2.268-3.517-2.17-5.536-4.089-3.256-1.012 1.195-.759 2.388-.47 3.438.084.315.215.765.376 1.312a48.948 48.948 0 0 0-2.04 2.269c-2.207 2.533-1.594 5.795.724 6.513 1.397.433 2.715-.198 3.857-1.205l.159.41c.615 1.52 2.533 1.049 1.773-.797-.122-.31-.275-.727-.447-1.215Zm-3.141-3.188c.188.59.39 1.211.59 1.805-.251.21-.507.423-.765.572-.897.52-1.556-.036-.399-1.592.19-.268.384-.529.574-.785Zm.724-4.431c-.066-.168-.105-.333-.14-.464-.649-2.425 2.13-1.778.725-.181-.2.226-.381.45-.585.645Z"/></g></g></svg>