<svg viewBox="0 0 90 90" xmlns="http://www.w3.org/2000/svg"><g transform="translate(4 19)" fill="#02D767"><rect transform="rotate(-44.88 25.936 26.56)" x="20.696" y="21.32" width="10.479" height="10.479" rx="5.209"/><path d="m26.18.615-5.571 5.547-14.82 14.832-5.512 5.451 5.439 5.475 20.283 20.5s4.823-6.331.084-11.07L11.24 26.53l14.856-14.857 7.5 7.537c6.404 6.427 10.962-.145 10.962-.145L26.18.615ZM81.168 26.59l.072-.073L55.603.784s-4.715 6.15-.253 10.624l15.146 15.218-14.82 14.76-6.958-6.982c-4.969-4.993-11.553-.47-11.553-.47l18.306 18.341 5.559-5.535 20.162-20.114-.024-.036Z"/><rect transform="rotate(-44.88 55.588 26.613)" x="50.348" y="21.373" width="10.479" height="10.479" rx="5.209"/></g></svg>