<svg viewBox="0 0 90 90" xmlns="http://www.w3.org/2000/svg"><g fill="none"><path d="M31.358 8.102A4.498 4.498 0 0 0 27.548 6H4.5a4.499 4.499 0 0 0-3.807 6.9L12.04 30.903l30.664-4.8-11.346-18Z" fill="#BFF5FF"/><path d="M36.085 15.6a4.5 4.5 0 0 0-3.809-2.101H9.228a4.5 4.5 0 0 0-3.807 6.9l6.619 10.5L42.702 26.1l-6.617-10.5Z" fill="#00BCFF"/><path d="M12.04 30.901a4.5 4.5 0 0 1 3.807-6.9h23.05c1.604 0 3.01.838 3.805 2.101l20.629 32.72c.44.692.691 1.516.691 2.398 0 .884-.251 1.705-.691 2.398L51.804 81.9A4.494 4.494 0 0 1 48 84a4.498 4.498 0 0 1-3.81-2.1L12.04 30.901ZM70.167 40.7a4.498 4.498 0 0 0 3.809 2.099 4.488 4.488 0 0 0 3.804-2.1l11.527-18.282c.44-.696.693-1.519.693-2.4 0-.883-.253-1.706-.693-2.4l-6.002-9.515A4.492 4.492 0 0 0 79.496 6H56.452a4.502 4.502 0 0 0-3.81 6.9l17.525 27.8Z" fill="#007CFF"/></g></svg>