<svg viewBox="0 0 90 90" xmlns="http://www.w3.org/2000/svg"><g fill="none" fill-rule="evenodd"><path fill="#231F20" d="M0 0h90v90H0z"/><g fill-rule="nonzero"><path fill="#57BAE5" d="m35.942 26.384-3.22 12.586-21.546 2.87z"/><path fill="#005472" d="m47.156 54.286-6.972-2.954 1.596 25.802z"/><path fill="#34AFE4" d="m32.722 38.97-5.67 11.914-15.876-9.044z"/><path fill="#0076A7" d="m40.184 51.332-13.132-.448 14.728 26.25z"/><path fill="#009DE2" d="m32.722 38.97 7.462 12.362-13.132-.448z"/><path fill="#7ACDF2" d="M35.942 26.384 53.82 28.68 32.722 38.97zm37.45-5.712L62.136 34.056l.798-12.39zm0 0L79.636 13l-1.372 8.274z"/><path fill="#00ABE7" d="m67.33 27.63 10.934-6.356-4.872-.602z"/><path fill="#0076A7" d="m47.156 54.286.532-15.358-7.504 12.404z"/><path fill="#008DBE" d="m47.688 38.928-7.504 12.404-7.462-12.362z"/><path fill="#57BAE5" d="m53.82 28.68-6.132 10.248-14.966.042z"/><path fill="#00698D" d="m47.688 38.928-.532 15.358 13.72 14.378-13.188-29.736"/><path fill="#09A1CB" d="m68.058 60.628-7.252-18.424.07 26.46zm-5.922-26.572-1.33 8.148-13.118-3.276z"/><path fill="#8BDAFF" d="m68.786 45.13-7.98-2.926 1.33-8.148z"/><path fill="#7ACDF2" d="m71.642 60.11-8.694-14.252h4.956z"/><path fill="#57BAE5" d="m55.458 25.656 6.678 8.4.798-12.39z"/><path fill="#008DBE" d="m60.806 42.204-13.118-3.276 13.188 29.736z"/><path fill="#0076A7" d="m68.058 60.628 2.898 1.652-10.038 6.384z"/><path fill="#57BAE5" d="M71.642 59.956 60.806 42.204l7.252 18.424z"/><path fill="#7ACDF2" d="m55.458 25.656-7.77 13.272 14.448-4.872z"/></g></g></svg>