<svg viewBox="0 0 90 90" xmlns="http://www.w3.org/2000/svg"><defs><linearGradient x1="50%" y1="0%" x2="50%" y2="100%" id="a"><stop stop-color="#F70" offset="0%"/><stop stop-color="#FF2300" offset="100%"/></linearGradient></defs><g fill="none" fill-rule="evenodd"><path fill="url(#a)" d="M0 0h90v90H0z"/><path d="M6 59.092c0 .982.36 1.725 1.08 2.228.719.503 1.488.681 2.307.534.769-.147 1.308-.417 1.619-.81.31-.393.465-1.044.465-1.952V48.41a2.62 2.62 0 0 0-.8-1.934c-.534-.527-1.185-.791-1.954-.791-.744 0-1.383.264-1.917.791A2.617 2.617 0 0 0 6 48.41v10.68Zm8.56 4.567c0 .712.254 1.246.763 1.602.508.356 1.16.534 1.954.534.818 0 1.482-.178 1.99-.534.51-.356.764-.89.764-1.602V38.762c0-.737-.267-1.37-.8-1.897-.534-.528-1.185-.792-1.954-.792-.745 0-1.384.264-1.917.792-.534.528-.8 1.16-.8 1.897v24.897Zm8.522 1.178c0 .712.26 1.246.782 1.602.52.356 1.19.535 2.01.535.794 0 1.445-.179 1.953-.535.51-.356.763-.89.763-1.602V42.113c0-.761-.266-1.412-.8-1.952-.533-.54-1.172-.81-1.916-.81-.77 0-1.427.27-1.973.81a2.647 2.647 0 0 0-.819 1.952v22.724Zm8.56.11c0 1.351.918 2.027 2.754 2.027 1.836 0 2.754-.676 2.754-2.026v-36.83c0-2.063-.633-3.23-1.898-3.5-.819-.196-1.625.038-2.42.7-.793.663-1.19 1.596-1.19 2.8v36.83Zm8.709 1.069V25.945c0-1.277.384-2.038 1.154-2.284a21.464 21.464 0 0 1 4.95-.59c3.795 0 7.33.885 10.606 2.653 3.275 1.767 5.924 4.18 7.946 7.237 2.022 3.057 3.194 6.427 3.517 10.11a12.32 12.32 0 0 1 4.838-.958c3.473 0 6.444 1.216 8.913 3.646 2.469 2.431 3.703 5.353 3.703 8.766 0 3.437-1.234 6.372-3.703 8.802-2.469 2.431-5.427 3.647-8.876 3.647l-32.378-.037a.87.87 0 0 1-.503-.405c-.112-.197-.167-.369-.167-.516Z" fill="#FFF" fill-rule="nonzero"/></g></svg>