<svg viewBox="0 0 90 90" xmlns="http://www.w3.org/2000/svg"><g fill="none"><path d="M45 90c24.853 0 45-20.147 45-45S69.853 0 45 0 0 20.147 0 45s20.147 45 45 45Z" fill="#009DA7"/><path d="M44.532 13.262C41.6 16.18 21.49 36.703 21.49 52.689c0 11.38 9.152 15.155 23.042 24.524 13.892-9.37 23.043-13.143 23.043-24.524 0-15.987-20.11-36.51-23.043-39.425Zm-.504 55.956a863.19 863.19 0 0 0-2.196-1.423c-11.094-7.164-13.91-9.583-13.91-15.107 0-8.828 8.638-21.02 16.106-29.517v46.047Z" fill="#FFF"/></g></svg>