<svg viewBox="0 0 90 90" xmlns="http://www.w3.org/2000/svg"><g fill="none" fill-rule="evenodd"><path fill="#FFF" d="M0 0h90v90H0z"/><g fill="#000" fill-rule="nonzero"><path d="M28.755 45.167c0-8.982 7.283-16.264 16.265-16.264 2.994 0 5.745.809 8.092 2.184l3.237-5.826c-3.318-1.942-7.202-2.994-11.329-2.994a22.878 22.878 0 0 0-16.184 6.717 22.878 22.878 0 0 0-6.716 16.183c0 6.312 2.508 12.057 6.716 16.184l.324.324 4.531-4.855.081.08c-3.156-2.993-5.017-7.12-5.017-11.733Zm32.449-16.022L56.672 34a16.286 16.286 0 0 1 4.45 11.167c0 8.982-7.282 16.265-16.183 16.265-2.751 0-5.26-.647-7.525-1.861l-3.237 5.826a23.038 23.038 0 0 0 10.762 2.67 22.877 22.877 0 0 0 16.184-6.716 22.878 22.878 0 0 0 6.716-16.184 22.57 22.57 0 0 0-6.635-16.022Z"/><path d="M32.478 45.167c0-6.878 5.583-12.461 12.461-12.461s12.462 5.583 12.462 12.461S51.817 57.63 44.939 57.63s-12.461-5.584-12.461-12.462Zm.566 0c0 6.555 5.34 11.895 11.895 11.895s11.895-5.34 11.895-11.895c0-6.554-5.34-11.895-11.895-11.895-6.554 0-11.895 5.34-11.895 11.895Z"/><path d="M46.881 45.167c0 1.052-.89 1.942-1.942 1.942s-1.942-.89-1.942-1.942.89-1.942 1.942-1.942c1.133 0 1.942.89 1.942 1.942ZM24.305 66.935l4.612-5.017c-4.37-4.208-7.12-10.115-7.12-16.75A23.173 23.173 0 0 1 45.02 21.943c4.208 0 8.092 1.132 11.49 3.074l3.237-5.988c-4.37-2.427-9.386-3.884-14.727-3.884-8.254 0-15.78 3.399-21.2 8.82-5.422 5.422-8.821 12.948-8.821 21.201 0 8.254 3.318 15.78 8.82 21.201.081.162.243.405.486.567ZM66.14 23.967s0-.081 0 0l-4.693 4.936c4.126 4.207 6.716 9.953 6.716 16.264 0 12.786-10.358 23.224-23.224 23.224-3.965 0-7.687-.97-10.924-2.751l-3.318 5.907c4.289 2.347 9.144 3.641 14.323 3.641 8.254 0 15.78-3.398 21.2-8.82 5.422-5.421 8.821-12.947 8.821-21.2a30.392 30.392 0 0 0-8.901-21.201Z"/><path d="m71.238 18.869-.243-.243-4.612 5.017c5.502 5.502 8.982 13.109 8.982 21.524 0 16.75-13.595 30.345-30.345 30.345-5.26 0-10.196-1.295-14.485-3.641l-3.317 5.907c5.26 2.913 11.328 4.531 17.802 4.531 10.277 0 19.582-4.127 26.299-10.924 6.716-6.716 10.843-16.022 10.843-26.299-.081-10.195-4.208-19.501-10.924-26.217ZM19.369 72.194l4.612-5.017a30.226 30.226 0 0 1-9.468-22.01c0-16.75 13.595-30.344 30.345-30.344 5.422 0 10.52 1.456 14.89 3.884l3.236-5.988a37.215 37.215 0 0 0-18.207-4.774c-10.277 0-19.582 4.126-26.298 10.924A37.606 37.606 0 0 0 7.797 45.167c0 10.277 4.208 19.583 10.924 26.299.162.243.405.486.648.728Z"/><path d="m75.446 13.852-4.208 4.531c6.959 6.797 11.248 16.265 11.248 26.784 0 20.716-16.832 37.547-37.547 37.547-6.554 0-12.623-1.7-17.964-4.613l-3.156 5.584c6.231 3.398 13.433 5.421 21.04 5.421 24.194 0 43.857-19.663 43.857-43.858a43.68 43.68 0 0 0-13.27-31.396ZM45.586 1.39h-.728C20.825 1.39 1.243 20.81 1 44.844v.404C1 57.791 6.34 69.12 14.837 77.13l4.37-4.693C11.924 65.56 7.393 55.93 7.393 45.167c0-20.715 16.83-37.546 37.546-37.546 6.635 0 12.947 1.78 18.369 4.774l2.994-5.421A42.83 42.83 0 0 0 45.586 1.39Z"/></g></g></svg>