<svg viewBox="0 0 90 90" xmlns="http://www.w3.org/2000/svg"><g fill="none"><path d="M82.5 82.75h-75c-4.25 0-7.5-3.25-7.5-7.5V0h90v75.25c0 4-3.25 7.5-7.5 7.5Z" fill="#FF8F00"/><path d="M0 90V28c0-7 7-14 14-14h62c7 0 14 7 14 14v62H0Z" fill="#DD2C00"/><circle fill="#B71C1C" cx="22.5" cy="28.5" r="5"/><circle fill="#B71C1C" cx="67.5" cy="28.5" r="5"/><path d="M45 53.5c-13.75 0-25-11.25-25-25 0-1.5 1-2.5 2.5-2.5s2.5 1 2.5 2.5c0 11 9 20 20 20s20-9 20-20c0-1.5 1-2.5 2.5-2.5s2.5 1 2.5 2.5c0 13.75-11.25 25-25 25Z" fill="#FFF"/></g></svg>