<svg viewBox="0 0 90 90" xmlns="http://www.w3.org/2000/svg"><g fill="none" fill-rule="evenodd"><path fill="#3243C8" d="M0 0h90v90H0z"/><path d="M28.456 42.34a.22.22 0 0 1 .156.064l7.362 7.319a.214.214 0 0 1 .046.233.219.219 0 0 1-.198.135H33.94a.225.225 0 0 0-.225.217v16.454a3.935 3.935 0 0 0 1.16 2.777l1.1 1.092c.06.062.078.154.045.234a.219.219 0 0 1-.198.135H27.14c-2.196 0-3.976-1.768-3.976-3.949V50.308a.218.218 0 0 0-.22-.217H21.09a.219.219 0 0 1-.203-.132.216.216 0 0 1 .044-.236l7.37-7.319a.22.22 0 0 1 .155-.065Zm16.282 4.238a.22.22 0 0 1 .156.064l7.37 7.293a.216.216 0 0 1 .043.237.219.219 0 0 1-.203.131h-1.882a.224.224 0 0 0-.219.224v12.235a3.936 3.936 0 0 0 1.154 2.777l1.106 1.092a.216.216 0 0 1 .044.237.219.219 0 0 1-.203.132h-8.661c-2.196 0-3.976-1.768-3.976-3.949v-12.51a.224.224 0 0 0-.219-.225h-1.875a.219.219 0 0 1-.198-.134.216.216 0 0 1 .045-.234l7.363-7.306a.22.22 0 0 1 .155-.064Zm16.286 4.193c.057 0 .112.023.152.064l7.37 7.312a.216.216 0 0 1 .052.239.219.219 0 0 1-.205.136h-1.889a.218.218 0 0 0-.218.217v8.023a3.935 3.935 0 0 0 1.16 2.777l1.1 1.092c.06.062.078.154.045.234a.219.219 0 0 1-.198.135h-8.688c-2.196 0-3.976-1.768-3.976-3.949V58.74a.218.218 0 0 0-.219-.217h-1.855a.219.219 0 0 1-.205-.136.216.216 0 0 1 .052-.24l7.37-7.311a.213.213 0 0 1 .152-.064ZM44.589 19c11.575.083 21.785 7.548 25.302 18.5C78.487 38.615 84.937 45.858 85 54.468c0 7.193-4.586 13.156-11.968 15.558l-.331.105v-5.304c4.592-1.922 7.29-5.72 7.29-10.36-.025-6.62-5.363-12.013-12.029-12.148h-1.988l-.477-1.883c-2.342-9.6-10.962-16.383-20.908-16.453-8.282-.04-15.836 4.69-19.37 12.13l-.61 1.243-1.391.145c-6.286.668-11.446 5.233-12.838 11.357-1.392 6.123 1.294 12.448 6.681 15.732v5.594h-.033l-.497-.224C8.671 66.371 4.066 58.13 5.16 49.606c1.094-8.523 7.633-15.354 16.149-16.87 4.6-8.506 13.558-13.79 23.28-13.736Z" fill="#FFF" fill-rule="nonzero"/></g></svg>