<svg viewBox="0 0 90 90" xmlns="http://www.w3.org/2000/svg"><g fill="none" fill-rule="evenodd"><path fill="#FFF" d="M0 0h90v90H0z"/><g fill-rule="nonzero"><path d="m78.45 42.927-5.278-5.278-7.705 5.2.9.901a2.055 2.055 0 0 1 0 2.893L46.664 66.346a2.055 2.055 0 0 1-2.893 0L24.068 46.643a2.04 2.04 0 0 1 0-2.893L43.77 24.047a2.04 2.04 0 0 1 2.893 0L63.468 40.85l7.509-5.397-23.511-23.511a3.195 3.195 0 0 0-4.539 0L11.964 42.906a3.195 3.195 0 0 0 0 4.539l30.963 30.963a3.209 3.209 0 0 0 4.539 0l30.963-30.963a3.209 3.209 0 0 0 .021-4.518Z" fill="#55585B"/><path fill="#52AA68" d="m24.026 46.643 21.097 9.936 41.483-27.986-41.202 41.786z"/></g></g></svg>