<svg viewBox="0 0 90 90" xmlns="http://www.w3.org/2000/svg"><path d="M15.494 73.979C23.44 82.35 33.57 86.755 45.5 86.755c13.76 0 26.702-6.796 34.429-17.996 4.668-6.796 6.934-14.49 6.934-23.542 0-1.685-.109-3.506-.218-5.328H40.613v16.066h23.07C59.698 62.97 53.009 66.83 45.5 66.83c-11.14 0-21.132-9.84-21.132-22.645 0-11.553 9.31-21.149 21.132-21.149 6.362 0 11.576 2.61 16.6 7.802h22.497C78.127 13.629 63.001 3.109 45.746 3.109c-11.467 0-21.46 4.077-29.433 11.88C8.368 22.79 4.054 32.983 4.054 44.075c-.027 11.907 3.823 21.856 11.44 29.903Z" fill="#53A318"/></svg>