<svg viewBox="0 0 90 90" xmlns="http://www.w3.org/2000/svg" xmlns:xlink="http://www.w3.org/1999/xlink"><defs><path id="a" d="M0 0h90v90H0z"/></defs><g fill="none" fill-rule="evenodd"><path fill="#FFF" d="M0 0h90v90H0z"/><mask id="b" fill="#fff"><use xlink:href="#a"/></mask><use fill="#E94C89" xlink:href="#a"/><path d="M46.987-31C5.583-31-28 2.583-28 43.987-28 85.417 5.583 119 46.987 119 88.417 119 122 85.417 122 43.987 122 2.583 88.417-31 46.987-31Zm0 13.026C61.202-17.974 74.28-13.086 84.77-5c-7.53 9.697-17.94 17.386-31.178 22.987-6.341-11.626-13.607-22.96-21.798-33.98 4.862-1.24 9.961-1.98 15.193-1.98Zm-27.955 6.738C27.355-.324 34.727 10.906 41.147 22.4c-15.192 4.49-33.317 6.764-54.271 6.922C-10.484 18.52-8.057 7.76-.6.007c4.783-4.972 13.417-8.074 19.632-11.243Zm-34.006 55.223c0-.529.08-1.057.106-1.586 24.044-.052 44.786-2.8 62.172-8.27a229.164 229.164 0 0 1 4.175 8.957C30.367 49.668 12.955 63.222-.6 83.568c-8.957-10.728-14.374-24.52-14.374-39.581Zm61.96 61.96c-14.32 0-27.505-4.94-38.021-13.132C21.278 73.501 36.999 60.95 56.446 55.137a244.083 244.083 0 0 1 12.788 46.61c-6.922 2.694-14.4 4.2-22.247 4.2ZM81.39 95.484A260.211 260.211 0 0 0 69.393 52.39c11.705-1.664 24.626-1.242 38.735 1.216C105.968 67.297 100.558 80.822 91 90c-2.597 2.494-6.608 3.474-9.611 5.484ZM64.373 40.05a248.142 248.142 0 0 0-4.783-10.516C74.017 23.298 85.616 14.79 94.256 4.036A61.59 61.59 0 0 1 108.762 40.5c-16.09-2.642-30.887-2.774-44.39-.45Z" fill="#C32361" fill-rule="nonzero" mask="url(#b)"/></g></svg>