<svg viewBox="0 0 90 90" xmlns="http://www.w3.org/2000/svg"><g fill="none"><path fill="#D71920" d="M0 0h90v90H0z"/><g fill="#FFF"><path d="M49.965 19.202c-.232.242-1.049 1.477-1.049 3.008 0 .367.007 9.143 0 9.458-.012.668-.42 1.619-.757 1.954-.237.237-1.692 1.56-1.821 1.7l.825.013c.269-.257 3.072-2.742 3.366-3.077.381-.433 1.29-1.532 1.29-3.257l.005-9.088c0-1.363.636-2.12.963-2.485.336-.375 1.44-1.296 1.636-1.505l-.866-.025c-.209.21-3.303 3.002-3.592 3.304Zm-6.94 34.39 3.432 2.998h2.3c2.336 0 4.473-1 5.883-2.41 1.41-1.41 1.93-3.305 1.93-5.077v-4.916c0-1.652-1.039-2.614-1.326-2.902-.158-.156-1.158-1.1-1.158-1.1v3.772s1.102 1.138 1.32 1.369c1.018 1.082 1.007 3.052-2.217 6.195-.565.55-2.176 2.07-4.393 2.07h-5.772Z"/><path d="M52.573 33.416c-.382.404-.75 1.394-.75 2.267v1.861h1.889c.733 0 1.702-.668 1.912-1.021.012-.026 0-1.846 0-1.846s.484.693 1.008 1.06c.197-.249 1.915-2.333 3.354-2.344 2.403-.02 1.86 3.012.878 3.982-.318.312-1.737 1.614-2.176 2.031-1.135 1.08-3.077.563-3.077-2.229 0 0-2.085 1.98-2.398 2.242-.314.262-1.39 1.401-1.39 1.401v4.905c0 2.352-.773 3.141-1.415 3.849-.25.274-2.898 2.69-3.252 2.953l-.865.02s1.55-1.41 1.86-1.732c.354-.367.766-1.113.766-2.353 0-.314-.04-7.707-.04-7.707H36.83c-4.191 0-5.087-4.651-5.113-5.896-.007-.366 0-4.08 0-4.657 0-.765-.49-2.054-1.27-2.452h1.182c.136.057.879.357.879 3.208 0 0-.05 3.318-.05 3.495 0 1.446 1.149 3.105 2.81 3.105l13.638-.014c.012-.367.378-1.758 1.033-2.493.373-.415 3.297-3.09 3.632-3.348l.866-.01c-.132.12-1.547 1.39-1.863 1.723Zm4.478 2.793s.79 1.048 1.165 1.349c1.47 1.178 2.167-.087 1.18-1.441-.39-.533-1.9-.38-2.345.092Z"/><path d="M42.428 44.995c0 .658-2.103 2.406-2.226 2.53-.152-.71-.683-1.493-2.25-3.062l2.3-2.302c1.543 1.544 2.176 1.873 2.176 2.834ZM46.42 18.61c.462.462 1.455 1.715.859 2.312-.527.527-1.344 1.363-1.344 1.363-.04-.302-.805-1.027-.805-1.027s.006 2.223 0 2.498c-.026 1.004-.404 1.29-.404 1.29s1.854 1.84 1.854 4.204c0 1.146.005 2.2.005 2.428 0 .485-.122.86-.46 1.231a98.082 98.082 0 0 1-2.147 2.148c-.498.448-1.022.523-1.415.523h-6.392c-1.007 0-2.043-.785-2.043-1.571 0-.197.013-2.371.013-2.371.328.38.661.824 1.467.812.629-.01 1.29-.504 1.467-.68.183-.186 4.836-5.05 4.836-5.05s-2.18-2.02-3.615-2.98c-.7-.469-1.63.124-1.77.74-.441 1.936 0 4.838 0 4.838l-1.766-1.76c-.71-.713-.685-2.323.162-3.17.135-.135 1.424-1.593 3.063-1.593h2.552c1.713 0 3.585 1.706 3.585 1.706s.276-.302.276-.593c0-.878-.033-3.245-.033-3.245-1.289-1.288-1.464-2.617-.847-3.235 1.153-1.152 1.572-1.558 1.572-1.558s-.014 1.398 1.33 2.74ZM38.4 31.455c-.63.66-.74.825-1.33 1.178h7.2c1.951 0 1.563-1.211 1.214-1.822-.718-1.252-2.983-3.58-2.983-3.58s-3.97 4.084-4.101 4.224Z"/><path d="M30.19 38.008h-1.182s1.27.698 1.27 2.497v5.746c0 3.74 3.084 7.196 6.832 7.196h3.13c1.88 0 2.538-.455 3.674-1.463.417-.37.958-.978 1.156-1.198.656-.733 1.352-1.326 1.352-3.252v-1.88c0-1.626-.94-2.302-1.396-2.757a108.566 108.566 0 0 0-1.092-1.057v3.852s.789.84 1.136 1.114c1.626 1.283.332 3.511-1.175 3.511-.301 0-6.455.002-6.874.013-2.531.063-5.953-2.195-5.953-5.991v-3.122c0-3.209-.878-3.209-.878-3.209Z"/><path d="M37.724 45.005c0 .656-2.104 2.406-2.226 2.53-.15-.71-.683-1.493-2.252-3.062l2.302-2.302c1.544 1.544 2.176 1.871 2.176 2.834ZM13.657 70.56l-3.681-.005c-1.162 0-1.073-.964-1.175-1.788v-5.283s.806-.02 1.72-.02c1.02 0 2.29-.15 3.526.55 0 0-.89-2.144-3.533-2.144H8.8v-1.693s0-1.475-.36-1.91l2.433.008c2.105.002 3.733-.03 5.425 1.097 0 0-.324-2.786-4.39-2.786H3.964s1.379 1.18 1.34 3.583l.039 9.627c0 2.416.967 2.483.967 2.483h7.829c1.774 0 2.392-1.269 2.392-1.956l.026-.923c0-.001-.563 1.16-2.9 1.16Zm20.84-.814v-6.733c0-2.613-2.135-3.308-3.724-3.308-2.105 0-2.735 1.759-3.004 2.363-.47-1.64-2.11-2.382-3.456-2.382-2.542 0-3.187 2.421-3.187 2.421s-.06-2.338-2.102-2.338l-2 .005s1.158.477 1.158 2.497l-.003 7.476c0 2.469.996 2.512.996 2.512h3.297c-.086-.043-1.266-.933-1.266-2.533v-6.632c.04-.295.539-1.296 1.96-1.296.807 0 1.692.84 1.672 1.784l-.003 6.162c0 2.505.982 2.512.982 2.512h3.31s-1.265-.891-1.265-2.533l-.01-6.634c.124-.37.56-1.27 1.809-1.27.995 0 1.828.84 1.809 1.784 0 0-.007 5.625-.004 6.147.015 2.52.983 2.498.983 2.498 1.723 0 3.31.007 3.31.007s-1.262-.872-1.262-2.51Zm5.784-.003c0 1.66 1.27 2.513 1.27 2.513s-1.574-.007-3.297-.007c0 0-1.011.015-1.011-2.487v-.011l.003-7.498c0-1.977-1.146-2.485-1.146-2.485h2c.706 0 2.175 0 2.175 2.796l-.005 7.167.01.012Zm10.158-9.033s-.318-.898-1.687-.898c-2.071 0-2.576 2.46-2.576 2.46-.168-1.944-.69-2.52-2.151-2.52l-2 .006s1.159.475 1.159 2.495l-.004 7.486c0 2.47.995 2.511.995 2.511h3.297c-.085-.04-1.265-.93-1.265-2.53l.004-6.13a1.78 1.78 0 0 1 .808-1.265c1.087-.704 2.57-.537 3.42.5V60.71Zm15.386.453c1.117 0 1.95.487 1.95.487l.01-1.883h-2.773l.002-2.857s-.729 1.26-2.22 2.485c-.936.769-2.903 1.719-2.903 1.719l2.094.038-.004 8.688c0 2.409 1.007 2.409 1.007 2.409 1.81 0 3.294.007 3.294.007s-1.274-.853-1.274-2.438l.003-8.66c.87.003.271.005.814.005Zm10.026 3.772c-1.85 1.935-3.302 1.631-4.465 3.049 0 .002.187 1.922 1.656 2.6.502.232 2.538.967 3.858-1.31l-.01 2.015s-.846.984-3.534.984c-3.24 0-5.458-2.547-5.458-6.002 0-3.396 1.809-6.55 5.224-6.568 3.347-.017 5.16 2.688 2.729 5.232Zm-2.025-.793c.548-1.011.978-3.58-.892-3.44-2.168.163-1.756 5.927-1.756 5.927.725-.788 1.813-.948 2.648-2.487Zm-35.078-5.384c.85 0 1.54-.674 1.54-1.506 0-.831-.69-1.506-1.54-1.506-.85 0-1.538.675-1.538 1.506 0 .832.689 1.506 1.538 1.506Zm15.127 12.081c-.753 0-1.29-.782-1.29-1.584 0-3.117 2.552-3.548 3.234-4.38l.006 5.256c-.302.268-.608.708-1.95.708Zm1.944-7.167c-.767 1.344-6.734 1.63-5.82 6.244.362 1.83 1.582 2.364 3.116 2.364 1.49 0 2.385-.778 2.76-1.501.223 1.39.925 1.47.925 1.47 1.724 0 3.298.007 3.298.007s-1.285-.854-1.285-2.5v-7.017c0-1.678-1.86-2.984-3.838-2.984-1.901 0-3.096.915-3.096.915v2.178s.678-1.725 2.398-1.725c1.679 0 1.802.836 1.793 1.253 0 0 .17.565-.25 1.296Zm27.332 5.193c.018.883-.772 2.042-2.451 2.042-1.72 0-2.407-1.76-2.407-1.76v2.23s1.24.884 3.142.884c2.256 0 4.536-1.715 4.485-4.101-.016-.84-.316-1.555-.774-2.172-.763-1.023-2.153-1.739-3.229-2.4-.613-.379-.94-1.054-.947-1.292-.018-.418.184-1.262 1.865-1.262 1.638 0 2.336 1.725 2.336 1.725l-.007-2.089s-1.254-.995-3.155-.995c-1.978 0-3.773 1.306-3.74 2.984.031 1.473.652 2.428 1.857 3.327.476.355 1.045.7 1.702 1.065.96.532 1.31 1.184 1.323 1.814Z"/></g></g></svg>