<svg viewBox="0 0 90 90" xmlns="http://www.w3.org/2000/svg"><g fill="none" fill-rule="evenodd"><path fill="#B90000" d="M0 0h90v90H0z"/><path d="M32.914 27.597a17.6 17.6 0 0 0-6.411 1.204c-9.12 3.552-13.608 13.779-10.01 22.781 2.71 6.737 9.203 11.105 16.565 11.105a17.81 17.81 0 0 0 6.515-1.225 17.694 17.694 0 0 0 6.514-4.389l-2.482-5.41a15.845 15.845 0 0 1-6.059 4.675c-1.282.572-2.75.837-4.467.837-5.046 0-9.513-2.98-11.353-7.614-2.461-6.165.6-13.166 6.865-15.616a11.74 11.74 0 0 1 4.364-.816c5.005 0 9.678 3.082 11.643 7.675l.455 1.041c3.826 8.92 6.06 14.065 7.486 15.882 2.523 3.225 5.75 4.797 9.864 4.797 7.26 0 11.664-4.859 12.12-9.452.495-5.083-1.345-8.349-5.667-9.961-1.282-.49-2.379-.817-3.454-1.164-.372-.122-.724-.224-1.055-.327-1.86-.55-3.495-1.02-5.004-2.47-.62-.592-.869-1.571-.662-2.633.083-.429.62-2.633 2.854-3.205a5.744 5.744 0 0 1 1.53-.204c2.606 0 4.26 1.633 4.446 1.94l.083.142c.186.306.393.613.6 1.082l4.446-2.919a2.448 2.448 0 0 0-.455-.735l-.062-.081c-.827-1.164-3.908-4.94-9.12-4.94-.951 0-1.944.122-2.936.387-3.537.919-6.204 3.797-6.928 7.492-.641 3.266.455 6.39 2.854 8.125 2.605 1.878 7.32 3.47 9.347 4.143.414.143.724.245.91.307 2.13.796 2.895 2.082 2.668 4.47-.166 1.715-2.089 4.45-6.556 4.45-2.399 0-3.97-.775-5.439-2.653-1.054-1.348-4.218-8.737-6.762-14.657l-.455-1.041c-2.854-6.696-9.45-11.023-16.792-11.023Z" fill="#FFF" fill-rule="nonzero"/></g></svg>