<svg viewBox="0 0 90 90" xmlns="http://www.w3.org/2000/svg"><defs><linearGradient x1="50%" y1="0%" x2="50%" y2="100%" id="a"><stop stop-color="#571F75" offset="0%"/><stop stop-color="#491854" offset="100%"/></linearGradient></defs><g fill="none" fill-rule="evenodd"><path fill="url(#a)" d="M0 0h90v90H0z"/><path d="M76.201 40.277h-.051l-5.7-5.73a1.092 1.092 0 0 1-.233-.365 1.186 1.186 0 0 1-.077-.416V20.534a5.083 5.083 0 0 0-1.477-3.595 5.027 5.027 0 0 0-3.575-1.484h-3.575a5.112 5.112 0 0 0-3.575 1.484 5.012 5.012 0 0 0-1.476 3.595v.078l-8.42-8.205a5.047 5.047 0 0 0-7.071.078L12.475 41.137a5.326 5.326 0 0 0-1.088 1.64 5.118 5.118 0 0 0 1.088 5.549l2.72 2.709a5.016 5.016 0 0 0 7.098.026l21.89-21.697a1.122 1.122 0 0 1 1.554 0l21.45 21.567a1.138 1.138 0 0 1 0 1.562l-2.643 2.657a1.122 1.122 0 0 1-1.554 0L47.913 40.46a5.045 5.045 0 0 0-3.549-1.433 4.991 4.991 0 0 0-3.523 1.485L26.386 55.124a5.17 5.17 0 0 0-1.476 3.595 5.057 5.057 0 0 0 1.476 3.594l2.668 2.683a5.016 5.016 0 0 0 7.098.026l7.798-7.736a1.122 1.122 0 0 1 1.554 0l7.746 7.658a1.12 1.12 0 0 1 .31.781 1.133 1.133 0 0 1-.336.782l-7.668 7.736c-.026 0-.052-.026-.104-.026a2.988 2.988 0 0 0-1.606.495 2.893 2.893 0 0 0-1.062 1.302 2.83 2.83 0 0 0-.155 1.667c.11.56.38 1.076.777 1.485.399.408.915.681 1.476.781a2.984 2.984 0 0 0 1.658-.156c.528-.22.978-.591 1.295-1.068a2.96 2.96 0 0 0 .493-1.615v-.052l7.72-7.762a4.759 4.759 0 0 0 1.087-1.667 5.105 5.105 0 0 0 0-3.907 5.106 5.106 0 0 0-1.114-1.641l-7.745-7.658a5.047 5.047 0 0 0-7.098 0l-7.823 7.762a1.122 1.122 0 0 1-1.555 0L29.132 59.5a1.138 1.138 0 0 1 0-1.563l14.455-14.612c.205-.21.484-.332.777-.339.29-.003.57.11.777.313l15.077 14.716a5.166 5.166 0 0 0 3.549 1.433 4.991 4.991 0 0 0 3.523-1.485l2.642-2.656a5.17 5.17 0 0 0 1.477-3.595 5.057 5.057 0 0 0-1.477-3.594L48.457 26.525a5.016 5.016 0 0 0-7.098-.027L19.47 48.196a1.122 1.122 0 0 1-1.554 0l-2.694-2.735a1.138 1.138 0 0 1 0-1.563l28.496-28.652a1.09 1.09 0 0 1 1.554-.026l15.102 14.69v-9.376a1.23 1.23 0 0 1 .311-.782c.208-.203.487-.316.777-.312h3.55c.287.009.562.12.777.312.203.21.323.489.336.782v13.232a5.17 5.17 0 0 0 1.477 3.594l5.673 5.704c0 .026-.026.079-.026.105a3.04 3.04 0 0 0 .492 1.615c.325.47.773.84 1.296 1.067a2.859 2.859 0 0 0 3.134-.65c.407-.402.678-.921.777-1.485a3.032 3.032 0 0 0-.155-1.667 2.893 2.893 0 0 0-1.062-1.303 2.537 2.537 0 0 0-1.529-.469Z" fill="#FFF" fill-rule="nonzero"/></g></svg>