<svg viewBox="0 0 90 90" xmlns="http://www.w3.org/2000/svg"><path d="M44.87 0c25.014 0 45.385 20.314 45.128 44.743C89.998 69.686 69.626 90 44.612 90 22.435 90 4.126 74.057 0 53.229l7.22-1.543c3.353 17.485 18.825 30.857 37.392 30.857 20.888 0 37.907-16.972 37.907-37.8 0-20.829-17.02-37.8-37.907-37.8-13.152 0-24.498 6.686-31.46 16.714v.257c-2.063 3.6-2.837 6.686-2.063 8.229.773 1.286 2.32 2.057 4.9 2.057h8.251l3.868-12.086h7.736L31.976 34.2h8.768l-2.321 7.457h-9.026L26.561 50.4c-.516 1.8-.258 3.343.516 4.371.773 1.286 2.32 1.543 3.352 1.543 1.805 0 3.61-.257 5.157-1.028 0 1.285.516 2.314.774 3.343.516 1.285 1.032 2.314 1.805 3.342a22.06 22.06 0 0 1-7.994 1.543c-3.868 0-6.962-1.543-9.025-4.371-2.063-2.829-2.58-7.2-1.29-11.057l2.063-6.429h-5.673c-3.094 0-9.026-.514-11.604-5.143C2.32 32.657 2.837 28.03 5.673 22.63 13.41 9 28.108 0 44.87 0Zm8.51 34.457-5.674 17.229c-.773 1.8-.257 2.828.258 3.6.516 1.028 1.805 1.285 2.837 1.285 3.61 0 7.736-3.085 9.025-6.942l4.9-14.915h7.736L66.79 51.943c-.258.771-.258 1.543-.258 2.057l.054.232c.3 1.118 1.01 1.6 1.493 2.082 1.548 1.029 3.868 1.286 5.674 1.286 1.289 0 2.32 0 3.094-.514-.258.257-.258.771-.516 1.028l-.773 1.543-.774 1.543-.774 1.543c-.257.257-.257.514-.515.771-.258 0-1.29.257-2.063.257-1.805 0-3.353 0-5.931-.771-1.805-.771-3.095-1.8-4.126-3.343-3.095 2.572-6.963 4.114-10.573 4.114-3.868 0-6.705-1.542-8.768-4.114-2.063-2.828-2.578-6.686-1.29-10.286l4.9-14.914h7.737Z" fill="#00A6CA"/></svg>