<svg viewBox="0 0 90 90" xmlns="http://www.w3.org/2000/svg"><defs><linearGradient x1="50%" y1="100%" x2="50%" y2="0%" id="a"><stop stop-color="#259A16" offset="0%"/><stop stop-color="#5ECC56" offset="23.4%"/><stop stop-color="#46A83F" offset="27.9%"/><stop stop-color="#46A83F" offset="47.8%"/><stop stop-color="#53BB4C" offset="87.3%"/><stop stop-color="#78EC6F" offset="100%"/></linearGradient><linearGradient x1="50%" y1="100%" x2="50%" y2="0%" id="b"><stop stop-color="#282A33" offset="0%"/><stop stop-color="#4F5254" offset="100%"/></linearGradient></defs><g fill="none" fill-rule="evenodd"><path d="M10.353 0h67.294C83.365 0 88 4.635 88 10.353v41.412c0 5.717-4.635 10.353-10.353 10.353H10.353C4.635 62.118 0 57.482 0 51.765V10.353C0 4.635 4.635 0 10.353 0Zm0 67.294h67.294C83.365 67.294 88 71.93 88 77.647S83.365 88 77.647 88H10.353C4.635 88 0 83.365 0 77.647s4.635-10.353 10.353-10.353Z" fill="url(#a)" transform="translate(1 1)"/><path d="M15.235 8.765h59.53a6.47 6.47 0 0 1 6.47 6.47v33.647a6.47 6.47 0 0 1-6.47 6.47h-59.53a6.47 6.47 0 0 1-6.47-6.47V15.235a6.47 6.47 0 0 1 6.47-6.47Z" fill="#EEE" fill-rule="nonzero"/><path d="M74.765 7.47h-59.53a7.765 7.765 0 0 0-7.764 7.765v33.647a7.765 7.765 0 0 0 7.764 7.765h59.53a7.765 7.765 0 0 0 7.764-7.765V15.235a7.765 7.765 0 0 0-7.764-7.764Zm-59.53 2.589h59.53a5.176 5.176 0 0 1 5.176 5.176v33.647a5.176 5.176 0 0 1-5.176 5.177h-59.53a5.176 5.176 0 0 1-5.176-5.177V15.235a5.176 5.176 0 0 1 5.176-5.176Z" fill="#000" fill-rule="nonzero" opacity=".1"/><path d="M28.47 20.706c5.718 0 10.354 4.635 10.354 10.353S34.188 41.412 28.47 41.412c-5.718 0-10.353-4.635-10.353-10.353s4.635-10.353 10.353-10.353Zm31.06 0c5.717 0 10.352 4.635 10.352 10.353S65.247 41.412 59.53 41.412c-5.717 0-10.353-4.635-10.353-10.353s4.636-10.353 10.353-10.353Z" fill="url(#b)" transform="translate(1 1)"/></g></svg>