<svg viewBox="0 0 90 90" xmlns="http://www.w3.org/2000/svg"><g fill="none" fill-rule="evenodd"><path fill="#002E32" d="M0 0h90v90H0z"/><g fill="#00B386" fill-rule="nonzero"><path d="m19.077 54.137 4.655 7.753a.711.711 0 0 1-.6 1.082H13.82c-.548 0-.886-.607-.6-1.082l4.656-7.753a.699.699 0 0 1 1.202 0Zm8.597-13.329 4.655 7.753a.711.711 0 0 1-.6 1.082h-9.31c-.548 0-.886-.607-.599-1.082l4.655-7.753a.696.696 0 0 1 1.199 0Z" opacity=".4"/><path d="m71.772 54.17 4.637 7.748c.286.475-.05 1.082-.597 1.082h-9.275c-.546 0-.882-.607-.596-1.082l4.637-7.748a.692.692 0 0 1 1.194 0Zm-17.795 0 4.638 7.748c.285.475-.051 1.082-.597 1.082h-9.275c-.546 0-.883-.607-.597-1.082l4.637-7.748a.692.692 0 0 1 1.194 0Zm-17.383 0 4.637 7.748c.285.475-.051 1.082-.597 1.082h-9.276c-.545 0-.882-.607-.596-1.082l4.636-7.748a.695.695 0 0 1 1.196 0Zm26.419-13.277 4.636 7.748c.285.474-.05 1.081-.597 1.081h-9.275c-.546 0-.883-.607-.597-1.081l4.636-7.748a.695.695 0 0 1 1.197 0Zm-17.796 0 4.637 7.748c.286.474-.05 1.081-.597 1.081h-9.275c-.546 0-.882-.607-.597-1.081l4.638-7.748a.692.692 0 0 1 1.194 0Zm8.76-13.552 4.638 7.749c.285.474-.051 1.081-.597 1.081h-9.275c-.546 0-.883-.607-.597-1.081l4.637-7.749a.692.692 0 0 1 1.194 0Z"/></g></g></svg>