<svg viewBox="0 0 90 90" xmlns="http://www.w3.org/2000/svg"><g fill="none"><path d="M55.077 27.9c0-12.773-6.224-23.757-10.96-27.334-.019-.011-.362-.204-.332.307l-.007.016c-.393 24.66-12.997 31.344-19.927 40.348-15.991 20.778-1.12 43.559 14.025 47.77 8.473 2.355-1.957-4.17-3.3-17.95C32.95 54.401 55.077 41.687 55.077 27.9" fill="#D7E2F2"/><path d="M62.344 36.295c-.097-.066-.235-.11-.33.047-.26 3.104-3.433 9.745-7.454 15.842-13.639 20.683-5.867 30.654-1.497 36.009 2.538 3.108 0 0 6.343-3.177.497-.25 12.375-6.908 13.662-22.079 1.245-14.691-7.583-23.951-10.724-26.642" fill="#357CE1"/></g></svg>