<svg viewBox="0 0 90 90" xmlns="http://www.w3.org/2000/svg"><defs><linearGradient x1="100%" y1="0%" x2="0%" y2="100%" id="a"><stop stop-color="#F8CA5F" offset="0%"/><stop stop-color="#F47205" offset="100%"/></linearGradient></defs><g fill="none" fill-rule="evenodd"><path fill="url(#a)" d="M0 0h90v90H0z"/><path d="M62.315 61.11C57.71 66.112 51.158 69 44.37 69h-.04c-6.904 0-13.497-2.925-18.1-8.006-4.682-5.158-6.828-11.78-6.087-18.67 1.21-11.008 10.182-19.9 21.34-21.17A23.535 23.535 0 0 1 44.33 21a24.303 24.303 0 0 1 14.824 5.004c.273.192.429.5.429.847 0 .346-.117.654-.39.885l-2.575 2.271a1.572 1.572 0 0 1-1.014.385c-.312 0-.624-.077-.858-.27A18.38 18.38 0 0 0 44.33 26.89a18.481 18.481 0 0 0-13.693 6.082c-3.511 3.888-5.15 8.93-4.526 14.127.936 8.276 7.724 14.973 16.15 15.897.703.077 1.405.116 2.108.116 4.915 0 9.518-1.925 13.03-5.39a1.573 1.573 0 0 1 1.092-.461c.273 0 .585.077.819.23l2.848 1.848c.273.193.468.462.507.809 0 .385-.117.731-.351.962Zm1.794-30.333c3.238 0 5.891 2.618 5.891 5.812 0 3.195-2.653 5.813-5.89 5.813-3.239 0-5.891-2.618-5.891-5.813 0-3.194 2.652-5.812 5.89-5.812Zm0 3.888c-1.077 0-1.95.861-1.95 1.924s.873 1.925 1.95 1.925c1.078 0 1.95-.862 1.95-1.925 0-1.063-.872-1.924-1.95-1.924Z" fill="#FFF" fill-rule="nonzero"/></g></svg>