<svg viewBox="0 0 90 90" xmlns="http://www.w3.org/2000/svg"><path d="M31.188 21.133C49.445 5.311 70.574.132 79.718 9.276c9.94 9.94 2.449 33.546-16.731 52.726S20.2 88.673 10.26 78.734a13.676 13.676 0 0 1-1.886-2.36l.125.126C2 60.5 18.348 44.356 26 39c20-14 29.309-12.494 34-9.5 5.155 3.29 2.062 10.848 4 8 7.113-10.452 10.604-19.067 6-24-6.156-6.596-22.706-3.797-37.849 8.456-1.087.88-1.073.025-1.102-.701Zm5.807 19.322C27.337 48.275 24.5 56 27.5 59.5c3 3.5 10.843 1.82 20.5-6s13.5-15.5 10.5-19-11.848-1.865-21.505 5.955Z" fill="#001F62" fill-rule="evenodd"/></svg>