<svg viewBox="0 0 90 90" xmlns="http://www.w3.org/2000/svg"><g fill="none" fill-rule="evenodd"><path d="M44.773 1C20.598 1 1 20.598 1 44.773c0 24.175 19.598 43.773 43.773 43.773 24.175 0 43.773-19.598 43.773-43.773C88.546 20.598 68.948 1 44.773 1Z" fill="#FFF"/><path d="M45 1C20.7 1 1 20.7 1 45s19.7 44 44 44 44-19.7 44-44S69.3 1 45 1Zm0 .872C68.82 1.872 88.128 21.18 88.128 45S68.819 88.13 45 88.13C21.18 88.13 1.872 68.82 1.872 45 1.872 21.18 21.18 1.872 45 1.872Zm0 3.05C22.865 4.921 4.92 22.864 4.92 45S22.865 85.08 45 85.08c22.135 0 40.079-17.945 40.079-40.08C85.079 22.865 67.135 4.921 45 4.921ZM24.324 25.196c4.961 0 9.486 1.867 12.913 4.935v-4.504h6.455v37.874l-6.455-3.013v-1.491a19.296 19.296 0 0 1-12.913 4.936c-10.697 0-19.368-8.672-19.368-19.368 0-10.697 8.671-19.369 19.368-19.369Zm41.32 0c10.697 0 19.369 8.672 19.369 19.369 0 10.696-8.672 19.368-19.369 19.368-4.962 0-9.485-1.87-12.912-4.938v1.493l-6.456 3.013V25.628h6.456v4.506a19.292 19.292 0 0 1 12.912-4.937Zm-41.32 6.456c-7.131 0-12.911 5.781-12.911 12.913 0 7.13 5.78 12.91 12.911 12.91 7.131 0 12.913-5.78 12.913-12.91 0-7.132-5.782-12.913-12.913-12.913Zm41.32 0c-7.13 0-12.912 5.781-12.912 12.913 0 7.13 5.781 12.91 12.912 12.91 7.131 0 12.912-5.78 12.912-12.91 0-7.132-5.78-12.913-12.912-12.913Z" fill="#06067B" fill-rule="nonzero"/></g></svg>