<svg viewBox="0 0 90 90" xmlns="http://www.w3.org/2000/svg" xmlns:xlink="http://www.w3.org/1999/xlink"><defs><path id="a" d="M0 0h90v90H0z"/></defs><g fill="none" fill-rule="evenodd"><mask id="b" fill="#fff"><use xlink:href="#a"/></mask><use fill="#FDAA00" xlink:href="#a"/><g mask="url(#b)"><path d="M55.572 61.97a11.681 11.681 0 0 1-6.186-1.813l-5.408 5.36-5.391-5.407a11.376 11.376 0 0 1-6.11 1.782c-6.284.001-11.428-4.98-11.609-11.242-.18-6.26 4.669-11.53 10.942-11.886 6.272-.355 11.69 4.326 12.23 10.565.595-6.208 6.027-10.822 12.27-10.424 6.242.4 11.038 5.67 10.83 11.902-.206 6.234-5.342 11.175-11.597 11.162h.03Z" fill="#FFF"/><path d="M53.342 43.024a3.851 3.851 0 0 1 2.264 4.06 3.859 3.859 0 0 1-3.3 3.28 3.867 3.867 0 0 1-4.067-2.269 7.581 7.581 0 0 0-.352 2.285 7.702 7.702 0 0 0 3.742 7.003 7.752 7.752 0 0 0 7.96 0 7.702 7.702 0 0 0 3.742-7.003 7.168 7.168 0 0 0-.337-2.27 7.618 7.618 0 0 0-3.754-4.567 7.664 7.664 0 0 0-5.901-.52h.003Zm-17.048 7.325a3.876 3.876 0 0 1-3.716-3.085 3.863 3.863 0 0 1 2.188-4.3 7.667 7.667 0 0 0-2.276-.335c-4.268.001-7.728 3.45-7.729 7.705.001 4.255 3.461 7.704 7.73 7.705a7.649 7.649 0 0 0 5.47-2.192 7.602 7.602 0 0 0 2.275-5.422 8.097 8.097 0 0 0-.337-2.284 3.868 3.868 0 0 1-3.605 2.208Zm21.249-17.711a27.025 27.025 0 0 0-27.085 0A26.929 26.929 0 0 0 17 29.074v26.97a53.806 53.806 0 0 0 15.791 38.128A54.147 54.147 0 0 0 71 110V29.074a26.91 26.91 0 0 0-13.459 3.564h.002Zm-1.97 29.331a11.681 11.681 0 0 1-6.187-1.812l-5.408 5.36-5.391-5.407a11.376 11.376 0 0 1-6.11 1.782c-6.284.001-11.428-4.98-11.609-11.242-.18-6.26 4.669-11.53 10.942-11.886 6.272-.355 11.69 4.326 12.23 10.565.595-6.208 6.027-10.822 12.27-10.424 6.242.4 11.038 5.67 10.83 11.902-.206 6.234-5.342 11.175-11.597 11.162h.03Z" fill="#000" fill-rule="nonzero"/></g></g></svg>