<svg viewBox="0 0 90 90" xmlns="http://www.w3.org/2000/svg"><g fill="none" fill-rule="evenodd"><path d="M0 0h90v90H0z"/><path d="M45 7c20.987 0 38 17.013 38 38S65.987 83 45 83c-4.053 0-7.958-.635-11.621-1.81 1.552-2.15 4.12-6.092 5.206-10.034.186-.68.672-2.574 1.168-4.518l.141-.555c.613-2.404 1.196-4.713 1.196-4.713 1.236 2.356 4.85 4.438 8.697 4.438C61.232 65.808 69 55.367 69 41.396 69 30.84 60.06 21 46.458 21 29.54 21 21 33.132 21 43.246c0 6.129 2.325 11.571 7.292 13.6.814.339 1.553.011 1.786-.887.169-.624.55-2.198.73-2.854.242-.898.147-1.215-.519-1.986-1.426-1.691-2.346-3.89-2.346-6.986 0-9.004 6.732-17.056 17.533-17.056 9.564 0 14.816 5.844 14.816 13.643 0 10.272-4.544 18.938-11.287 18.938-3.73 0-6.51-3.086-5.622-6.859 1.078-4.513 3.15-9.384 3.15-12.64 0-2.916-1.565-5.347-4.81-5.347-3.804 0-6.868 3.942-6.868 9.216 0 3.36 1.141 5.643 1.141 5.643s-3.9 16.507-4.586 19.403c-.941 3.974-.68 8.566-.395 11.268C16.948 74.772 7 61.048 7 45 7 24.013 24.013 7 45 7Z" fill="#BC081B"/></g></svg>