<svg viewBox="0 0 90 90" xmlns="http://www.w3.org/2000/svg"><defs><linearGradient x1="40.376%" y1="2.247%" x2="61.685%" y2="96.762%" id="a"><stop stop-color="#01AEFF" offset="0%"/><stop stop-color="#0157FF" offset="100%"/></linearGradient></defs><g fill="none" fill-rule="evenodd"><path fill="#FFF" d="M0 0h90v90H0z"/><path d="M56.329 33 64 22.444C58.851 7.134 43.418-2.18 27.536.44 11.656 3.06 0 16.841 0 33c0 16.16 11.655 29.941 27.536 32.56C43.418 68.18 58.851 58.867 64 43.557L56.329 33Zm-6.573 9.742c-3.361 5.477-10.016 9.428-16.901 9.428-9.054-.006-16.859-6.397-18.687-15.3-1.827-8.904 2.825-17.872 11.138-21.472 8.314-3.6 18.003-.843 23.198 6.603L56.016 33l-6.26 9.742Z" transform="translate(12 12)" fill="url(#a)" fill-rule="nonzero"/></g></svg>