<svg viewBox="0 0 90 90" xmlns="http://www.w3.org/2000/svg"><g fill="none" fill-rule="evenodd"><path d="M45 6.5c21.263 0 38.5 17.237 38.5 38.5S66.263 83.5 45 83.5 6.5 66.263 6.5 45 23.737 6.5 45 6.5Z" fill="#76FAFE"/><path d="M45 1C20.724 1 1 20.724 1 45s19.724 44 44 44c24.275 0 44-19.724 44-44 .1-24.276-19.624-44-44-44Zm-.506 70.299c-14.667 0-26.602-11.936-26.602-26.602 0-14.667 11.935-26.603 26.602-26.603 7.283 0 14.16 3.035 19.117 8.396l-7.89 7.89c-2.832-3.237-6.878-5.058-11.227-5.058-8.294.101-15.071 6.777-15.172 15.172-.102 8.497 6.675 15.375 15.172 15.476 4.248 0 8.395-1.82 11.126-5.057l7.89 7.89c-4.754 5.461-11.733 8.496-19.016 8.496Zm25.388-14.566L57.744 44.595l12.138-12.138L82.02 44.595 69.882 56.733Z" fill="#000" fill-rule="nonzero"/></g></svg>