<svg viewBox="0 0 90 90" xmlns="http://www.w3.org/2000/svg"><g fill="none" fill-rule="evenodd"><path fill="#FFF" d="M0 0h90v90H0z"/><g fill-rule="nonzero"><path d="m75.836 41.172-9.44-5.22-7.966 4.863-.099 4.97-3.872-2.55-5.266 3.209-.228-5.432-5.432-3.629 5.183-2.68c-.041 0 0 .519-.767-17.8L35.69 11 19 16.183l3.727 17.95 5.603 4.339-4.26 2.021 2.783 13.529 3.913 3.675-2.799 1.705 2.172 10.46 8.78 9.3c.042-.053.923-.732 11.295-8.978l-.3-7.107 4.447 3.774c.062-.063.954-.72 9.102-7.2l.316-5.256 3.359 2.333c.067-.063.819-.633 7.391-5.873l1.307-9.683Z" fill="#231F20"/><path fill="#000" d="m68.003 46.765 7.833-5.593-9.44-5.22-7.966 4.863z"/><path fill="#004B16" d="m67.138 56.717.865-9.952-9.573-5.95-.197 9.718zM54.36 66.84V56.53l-9.671-7.334.762 10.128z"/><path fill="#000" d="m54.36 56.53 9.714-6.96-9.615-6.335-9.77 5.961z"/><path fill="#004B16" d="m38.92 79.15-1.545-10.532-9.408-9.226 2.172 10.46z"/><path fill="#000" d="m37.375 68.618 12.393-8.843-9.604-7.821-12.197 7.438z"/><path fill="#004B16" d="m36.572 63.145-2.043-13.933-10.48-8.714 2.804 13.514z"/><path fill="#000" d="m34.53 49.212 14.435-8.2-10.781-7.226-14.135 6.712z"/><path fill="#004B16" d="m33.55 42.556-2.8-19.08L19 16.19l3.727 17.944z"/><path fill="#000" d="m30.75 23.476 17.178-6.583L35.69 11 19 16.189z"/><path d="M74.53 50.844c-7.268 5.77-7.428 5.873-7.392 5.873.902-10.418.824-9.952.865-9.952 8.294-5.935 7.776-5.593 7.833-5.593l-1.307 9.672ZM63.463 59.64c-8.993 7.154-9.138 7.2-9.102 7.2-.088-10.791-.036-10.31 0-10.31 10.367-7.412 9.677-6.96 9.713-6.96l-.611 10.07ZM50.214 70.173c-11.227 8.926-11.33 8.978-11.294 8.978-1.592-10.854-1.555-10.533-1.555-10.533 13.202-9.413 12.367-8.843 12.403-8.843l.446 10.398Zm-2.286-53.28c.788 18.334.726 17.8.767 17.8-14.855 7.718-15.182 7.863-15.145 7.863-2.862-19.505-2.836-19.08-2.8-19.08l17.178-6.583Zm1.037 24.119c.596 13.896.518 13.414.575 13.414-12.86 8.64-13.005 8.719-12.958 8.719-2.073-14.296-2.073-13.933-2.042-13.933l14.425-8.2Z" fill="#1CB35C"/></g></g></svg>