<svg viewBox="0 0 90 90" xmlns="http://www.w3.org/2000/svg"><defs><linearGradient x1="80.795%" y1="15.812%" x2="43.674%" y2="97.451%" id="a"><stop stop-color="#0052CC" offset="0%"/><stop stop-color="#2684FF" offset="92%"/></linearGradient></defs><g fill="none"><path d="M22.553 35.22a2.128 2.128 0 0 0-3.623.4L.549 72.384a2.205 2.205 0 0 0 1.958 3.176H28.12a2.113 2.113 0 0 0 1.974-1.218c5.505-11.41 2.159-28.759-7.54-39.121Z" fill="url(#a)" transform="translate(7 7)"/><path d="M43.046 8.773a48.512 48.512 0 0 0-2.822 47.88L52.56 81.326a2.206 2.206 0 0 0 1.974 1.218h25.613a2.205 2.205 0 0 0 1.974-3.177L46.793 8.757a2.082 2.082 0 0 0-3.747.016Z" fill="#2681FF"/></g></svg>