<svg viewBox="0 0 90 90" xmlns="http://www.w3.org/2000/svg"><g fill="none" fill-rule="evenodd"><path fill="#3DD763" d="M0 0h90v90H0z"/><path d="M42.564 11.03c-10.01 1.215-17.81 7.694-20.64 17.174-.48 1.596-.535 1.882-.851 4.146-.124.928-.083 5.702.068 6.889.357 2.973 1.278 6.424 2.568 9.67.536 1.364 2.321 5.02 2.637 5.402.096.11.412.6.7 1.091.797 1.31 2.17 3.178 3.379 4.57 3.186 3.682 6.811 6.26 10.45 7.433 1.676.546 2.197.614 4.23.6 2.678-.013 4.944-.681 7.69-2.277 1.978-1.16 3.214-2.155 5.287-4.229 3.42-3.45 5.74-7.024 8.226-12.712.522-1.2 1.456-4.201 1.868-6.07.384-1.65.357-1.473.755-4.774.082-.655.096-4.12.014-4.91-.357-3.82-1.566-7.489-3.447-10.572-.371-.6-.714-1.16-.783-1.227-3.2-4.133-5.466-6.043-9.585-8.048-1.662-.818-4.518-1.691-6.249-1.923-.37-.041-.741-.123-.81-.164-.137-.082-4.875-.136-5.507-.068Zm4.202 3.78c2.308.177 4.656.804 6.99 1.909 1.017.477 2.912 1.596 2.843 1.664-.027.027-.536.082-1.14.136-3.062.219-6.385 1.583-9.503 3.901l-1.043.778-.357-.314c-.564-.518-1.786-1.35-3.035-2.087-2.211-1.296-4.862-2.155-7.045-2.291-.59-.028-1.099-.082-1.126-.11-.083-.068 2.43-1.513 3.31-1.895 2.389-1.037 4.298-1.528 6.66-1.692.645-.054 1.18-.095 1.194-.123.042-.013.522 0 2.252.123Zm-11.082 7.65c2.019.464 4.134 1.514 6.015 2.96l.508.396-1.098 1.323c-2.953 3.519-5.384 7.993-6.935 12.712-.44 1.337-1.181 4.243-1.346 5.32-.041.26-.11.655-.151.887-.206 1.296-.275 2.632-.261 5.183.014 2.291.082 3.164.302 4.365.165.818.275 1.5.26 1.514-.068.068-1.304-1.541-2.141-2.783a35.997 35.997 0 0 1-4.381-8.852c-.59-1.719-1.318-4.624-1.456-5.838-.055-.382-.123-.9-.165-1.16-.164-1.132-.15-5.033.042-6.274.782-5.333 3.295-8.866 6.948-9.766.88-.219 2.884-.205 3.86.013Zm22.535-.013c.412.095 2.02.818 2.39 1.09.11.083.645.587 1.167 1.106 2.197 2.182 3.365 5.674 3.447 10.298.096 5.933-1.662 12.072-5.054 17.719-1.043 1.732-3.09 4.583-3.213 4.46-.014-.014.055-.464.151-.982 1.881-9.125-1.565-21.006-8.46-29.231l-.92-1.091 1.058-.764c1.8-1.296 3.708-2.196 5.493-2.605.77-.178 3.104-.178 3.941 0Zm-12.331 7.01c1.345 1.406 3.556 4.98 4.847 7.816 1.181 2.62 2.307 6.22 2.678 8.58.055.341.124.723.151.873.179.941.261 2.523.247 4.651-.027 3.533-.576 5.975-1.881 8.444-.728 1.364-2.28 2.987-3.46 3.587-3.434 1.773-7.43.764-9.737-2.455-.55-.778-.893-1.405-1.524-2.865-.289-.668-.852-3.178-.99-4.392-.178-1.555-.095-5.06.152-6.683.206-1.433.247-1.665.44-2.592.178-.941.933-3.451 1.428-4.76 1.414-3.806 3.584-7.598 5.836-10.217l.906-1.05.371.436c.206.246.44.532.536.628Zm-8.693 44.208c-1.264.573-1.785 1.978-1.154 3.165.399.723.797.941 2.678 1.418 1.373.355 1.8.423 3.983.682.714.082 4.23.096 4.641.014.165-.04.618-.095.989-.136.384-.041.838-.11 1.03-.15.192-.028.687-.137 1.099-.219 1.702-.327 2.622-.682 3.09-1.16 1.057-1.077.727-2.904-.619-3.532-.659-.3-1.084-.286-2.54.055-1.8.423-1.813.423-2.733.532-1.057.122-4.298.122-5.3 0-.92-.11-1.937-.314-3.05-.587-1.249-.327-1.524-.34-2.114-.082Z" fill="#FFF" fill-rule="nonzero"/></g></svg>