<svg viewBox="0 0 90 90" xmlns="http://www.w3.org/2000/svg"><defs><linearGradient x1="65.137%" y1="93.116%" x2="15.728%" y2="-8.065%" id="a"><stop stop-color="#FFE500" offset="0%"/><stop stop-color="#FEDD00" offset="3%"/><stop stop-color="#FCCA00" offset="11%"/><stop stop-color="#FBBF00" offset="19%"/><stop stop-color="#FBBB00" offset="28%"/><stop stop-color="#EF8034" offset="67%"/><stop stop-color="#EA6033" offset="89%"/><stop stop-color="#E63430" offset="100%"/></linearGradient><linearGradient x1="84.005%" y1="-11.305%" x2="35.164%" y2="90.293%" id="b"><stop stop-color="#FFE500" offset="0%"/><stop stop-color="#FEDD00" offset="3%"/><stop stop-color="#FCCA00" offset="11%"/><stop stop-color="#FBBF00" offset="19%"/><stop stop-color="#FBBB00" offset="28%"/><stop stop-color="#EF8034" offset="67%"/><stop stop-color="#EA6033" offset="89%"/><stop stop-color="#E63430" offset="100%"/></linearGradient></defs><g fill="none"><path d="M51.569 81.942a6.008 6.008 0 1 1-1.614-11.908c12.96-3.55 21.947-15.328 21.947-28.766 0-13.438-8.987-25.217-21.947-28.767A5.988 5.988 0 1 1 53.16 1.06c18.146 5 30.718 21.506 30.718 40.329S71.306 76.717 53.16 81.718a5.972 5.972 0 0 1-1.591.224Z" fill="url(#a)" transform="translate(3 4)"/><path d="M32.38 81.942a5.933 5.933 0 0 1-1.614-.224C12.619 76.717.047 60.212.047 41.388.047 22.567 12.62 6.06 30.766 1.06a6 6 0 1 1 3.23 11.558c-12.96 3.55-21.946 15.329-21.946 28.767 0 13.438 8.986 25.216 21.947 28.766a5.988 5.988 0 0 1-1.591 11.783l-.026.008Z" fill="url(#b)" transform="translate(3 4)"/></g></svg>