<svg viewBox="0 0 90 90" xmlns="http://www.w3.org/2000/svg" xmlns:xlink="http://www.w3.org/1999/xlink"><defs><path id="a" d="M0 0h90v90H0z"/></defs><g fill="none" fill-rule="evenodd"><path fill="#B9002D" fill-rule="nonzero" d="M0 0h90v90H0z"/><mask id="b" fill="#fff"><use xlink:href="#a"/></mask><use fill="#B9002D" fill-rule="nonzero" xlink:href="#a"/><path d="M-33 44.998C-33 28.427-19.227 15.004-2.234 15c16.993.004 30.758 13.427 30.762 29.998C28.524 61.565 14.76 74.996-2.234 75-19.227 74.996-33 61.565-33 44.998Zm15.968-14.43c-3.786 3.717-6.12 8.783-6.128 14.43.008 5.651 2.342 10.713 6.128 14.422 3.804 3.7 9.003 5.98 14.798 5.98s10.986-2.28 14.786-5.98c3.799-3.709 6.132-8.77 6.132-14.422 0-5.647-2.333-10.713-6.132-14.43-3.8-3.689-8.99-5.964-14.786-5.968-5.795.004-10.994 2.28-14.798 5.968ZM83.728 48.82c7.103-2.08 12.285-8.482 12.285-16.088 0-9.275-7.711-16.794-17.23-16.794H49.112v57.594h9.84V49.54h13.714l14.848 23.993H99L83.726 48.821h.002Zm-4.946-23.29c4.079.003 7.382 3.23 7.391 7.201-.009 3.974-3.312 7.196-7.39 7.204h-19.83V25.53h19.83ZM34.89 15c4 0 7.242 3.165 7.242 7.065-.001 3.904-3.242 7.069-7.242 7.069-4.007 0-7.248-3.165-7.248-7.069 0-3.9 3.24-7.065 7.248-7.065Z" fill="#FFF" fill-rule="nonzero" mask="url(#b)"/></g></svg>