<svg viewBox="0 0 90 90" xmlns="http://www.w3.org/2000/svg"><g fill="none"><path d="M40.184 12.938 7.05 26.648c-1.842.762-1.823 3.38.031 4.115l33.272 13.194a12.345 12.345 0 0 0 9.102 0l33.272-13.195c1.853-.734 1.873-3.351.03-4.114l-33.133-13.71a12.346 12.346 0 0 0-9.44 0" fill="#FCB400"/><path d="M47.856 51.161v32.961a2.22 2.22 0 0 0 3.038 2.064l37.074-14.39a2.22 2.22 0 0 0 1.402-2.064v-32.96a2.22 2.22 0 0 0-3.038-2.064l-37.075 14.39a2.22 2.22 0 0 0-1.401 2.064" fill="#18BFFF"/><path d="m39.198 52.862-11.003 5.313-1.117.54L3.852 69.844C2.38 70.554.5 69.48.5 67.846V36.909c0-.591.303-1.102.71-1.487A2.55 2.55 0 0 1 1.773 35a2.366 2.366 0 0 1 2.02-.155L39.012 48.8c1.79.71 1.931 3.22.185 4.063" fill="#F82B60"/><path d="m39.198 52.862-11.003 5.313L1.21 35.422A2.55 2.55 0 0 1 1.773 35a2.366 2.366 0 0 1 2.02-.155L39.012 48.8c1.79.71 1.931 3.22.185 4.063" fill-opacity=".25" fill="#000"/></g></svg>