<svg viewBox="0 0 90 90" xmlns="http://www.w3.org/2000/svg"><defs><linearGradient x1="50%" y1="0%" x2="50%" y2="100%" id="a"><stop stop-color="#00BAF4" offset="0%"/><stop stop-color="#0076D8" offset="100%"/></linearGradient></defs><g fill="none"><path d="M25.49.007c4.52 0 8.762 1.181 12.441 3.245a41.809 41.809 0 0 1 6.158-.456c22.905 0 41.474 18.569 41.474 41.474a41.77 41.77 0 0 1-.499 6.443 25.352 25.352 0 0 1 3.847 13.458c0 14.072-11.408 25.48-25.48 25.48a25.353 25.353 0 0 1-14.069-4.239c-1.726.22-3.486.332-5.273.332-22.906 0-41.474-18.568-41.474-41.474 0-2.232.178-4.422.518-6.558A25.362 25.362 0 0 1 .01 25.486C.01 11.414 11.418.006 25.49.006" fill="url(#a)" transform="translate(.5)"/><path d="m43.013 38.698 9.9 2.22C61.972 42.97 66.5 47.913 66.5 55.742c0 4.871-1.777 8.738-5.33 11.603C57.425 70.449 52.095 72 45.18 72c-6.867 0-12.341-1.48-16.422-4.44-3.505-2.482-5.258-5.347-5.258-8.594 0-1.433.467-2.602 1.402-3.51.935-.906 2.122-1.36 3.562-1.36 1.678 0 3.188.812 4.531 2.435 2.158 2.626 3.477 4.107 3.957 4.44 2.062 1.624 4.795 2.435 8.2 2.435 2.925 0 5.275-.716 7.05-2.149 1.631-1.289 2.446-2.84 2.446-4.655 0-2.721-1.687-4.511-5.06-5.371L36.22 47.865c-8.48-2.149-12.719-6.85-12.719-14.11 0-5.299 2.192-9.356 6.576-12.174C33.834 19.194 38.556 18 44.241 18c4.915 0 9.442 1.146 13.587 3.438 4.383 2.435 6.576 5.3 6.576 8.594 0 1.432-.53 2.567-1.59 3.402s-2.337 1.253-3.83 1.253c-1.445 0-2.795-.668-4.047-2.005-1.928-2.052-3.18-3.27-3.758-3.653-1.976-1.336-4.553-2.005-7.733-2.005-2.699 0-4.795.562-6.287 1.683-1.494 1.122-2.24 2.59-2.24 4.405 0 2.53 2.698 4.393 8.094 5.586Z" fill="#FFF"/></g></svg>