<svg viewBox="0 0 90 90" xmlns="http://www.w3.org/2000/svg"><g fill="none"><path fill="#E24329" d="m44.976 85.915 16.132-49.65H28.845l16.131 49.65z"/><path fill="#FC6D26" d="m44.976 85.915-16.133-49.65H6.233l38.743 49.65z"/><path d="M6.234 36.264 1.331 51.353a3.34 3.34 0 0 0 1.214 3.734l42.43 30.828-38.741-49.65Z" fill="#FCA326"/><path d="M6.234 36.264h22.61L19.127 6.36c-.5-1.538-2.677-1.538-3.176 0L6.234 36.264Z" fill="#E24329"/><path fill="#FC6D26" d="m44.976 85.915 16.132-49.65h22.61l-38.742 49.65z"/><path d="m83.718 36.264 4.902 15.089a3.34 3.34 0 0 1-1.213 3.734L44.976 85.915l38.742-49.65Z" fill="#FCA326"/><path d="M83.718 36.264h-22.61L70.825 6.36c.5-1.538 2.677-1.538 3.177 0l9.716 29.904Z" fill="#E24329"/></g></svg>