<svg viewBox="0 0 90 90" xmlns="http://www.w3.org/2000/svg"><g fill="none"><path d="M87.99 43.96v1.217c-.048.187-.01.374-.022.561v.587c.004 1.717-.165 3.421-.44 5.117a43.135 43.135 0 0 1-3.72 11.898 44.292 44.292 0 0 1-3.052 5.356 44.037 44.037 0 0 1-5.27 6.456 37.6 37.6 0 0 1-2.23 2.095A45.58 45.58 0 0 1 69.5 80.2a44.754 44.754 0 0 1-3.808 2.391 43.202 43.202 0 0 1-14.037 4.908c-1.17.196-2.348.357-3.53.422-.6.035-1.2.056-1.8.052h-.278c-.087.004-.165-.004-.226-.074-.161-.282-.252-.6-.37-.904a43.338 43.338 0 0 0-7.82-12.75 42.995 42.995 0 0 0-2.457-2.579 44.74 44.74 0 0 0-5.534-4.508 43.635 43.635 0 0 0-5.686-3.308 42.97 42.97 0 0 0-4.656-1.922 42.622 42.622 0 0 0-5.995-1.604 40.9 40.9 0 0 0-3.843-.556 60.748 60.748 0 0 0-2.509-.174c-1.034-.052-2.069-.022-3.104-.026-.06 0-.117 0-.17-.03-.095-.074-.13-.188-.169-.296a43.438 43.438 0 0 1-2.334-10.46c-.087-.874-.1-1.747-.122-2.621-.026-.9-.022-1.796-.013-2.696.009-.826.009-1.652.07-2.473.074-1.03.2-2.06.356-3.082.296-1.896.7-3.77 1.24-5.613a42.752 42.752 0 0 1 2.003-5.46 44.058 44.058 0 0 1 3.739-6.734 43.053 43.053 0 0 1 3.208-4.16 42.225 42.225 0 0 1 2.252-2.413 44.34 44.34 0 0 1 4.3-3.721 43.406 43.406 0 0 1 6.23-3.948 43.055 43.055 0 0 1 15.39-4.652c1.05-.112 2.103-.143 3.16-.169a83.482 83.482 0 0 1 2.76-.013c.782.009 1.565.004 2.343.07 1.4.113 2.79.295 4.173.543 2.196.387 4.339.952 6.447 1.67 1.022.347 2.03.734 3.017 1.164.087.04.179.066.244.14.091.178-.048.252-.157.326-.478.326-.947.67-1.4 1.03a32.085 32.085 0 0 0-1.943 1.67c-2.165 1.995-3.986 4.277-5.586 6.738a98.417 98.417 0 0 0-3.895 6.551 111.771 111.771 0 0 0-2.348 4.534c-.334.691-.674 1.378-.982 2.083-.065.143-.113.3-.248.404-.07.035-.143.026-.213 0-.865-.335-1.748-.278-2.63-.1-.952.187-1.852.53-2.73.93a21.564 21.564 0 0 0-3.039 1.722c-.639.426-1.17.974-1.66 1.552-2.022 2.37-3.635 5.012-5.135 7.734-.613 1.108-1.191 2.238-1.643 3.425-.096.252-.174.505-.17.778.005.31.144.535.4.705.287.187.613.274.944.3.852.06 1.69 0 2.504-.296.339-.122.591-.365.83-.617.8-.848 1.5-1.783 2.178-2.73a79.407 79.407 0 0 0 2.435-3.57c.182-.286.434-.452.756-.543.778-.222 1.578-.282 2.374-.396.343-.047.686-.117 1.03-.143.096-.009.187-.03.265.052a.232.232 0 0 1 .017.187c-.073.252-.108.517-.204.765-.082.122-.195.1-.308.057-.622-.24-1.244-.052-1.648.578-.465.722-.943 1.439-1.404 2.165-.387.613-.222 1.36.378 1.774.291.2.6.378.891.578.087.06.183.117.209.239.008.109-.052.196-.105.278a51.233 51.233 0 0 0-3.043 5.439c-1.117 2.29-2.134 4.63-2.995 7.034-.656 1.83-1.235 3.677-1.591 5.59a11.85 11.85 0 0 0-.191 2.743 2.7 2.7 0 0 0 .339 1.226c.256.448.643.665 1.156.683.635.022 1.209-.191 1.774-.452.939-.43 1.787-1.013 2.613-1.626.96-.713 1.86-1.496 2.747-2.3a54.258 54.258 0 0 0 2.587-2.513 72.648 72.648 0 0 0 3.851-4.33c1.2-1.469 2.361-2.973 3.404-4.556.057-.082.109-.17.209-.213.117-.034.209.03.304.083.157.087.305.2.465.278a1.26 1.26 0 0 0 1.592-.374c.226-.295.408-.613.613-.921.29-.448.59-.896.873-1.348.374-.604.335-1.126-.139-1.67-.065-.078-.139-.147-.126-.264.23-.274.474-.535.84-.63.077.043.104.117.125.195.283 1.056.661 2.087.865 3.16.083.44.022.84-.239 1.24-1.27 1.964-2.512 3.947-3.538 6.055a6.297 6.297 0 0 0-.453 1.174c-.121.478.01.935.13 1.391.183.665.418 1.313.87 1.856.261.313.574.544 1.013.457.296-.057.518-.252.73-.452.635-.609 1.196-1.283 1.744-1.965a55.436 55.436 0 0 0 4.456-6.39c.687-1.162 1.33-2.344 1.787-3.618.217-.604.308-1.234.395-1.865.1-.748.152-1.495.183-2.247.048-1.209-.03-2.4-.34-3.57-.2-.76-.517-1.46-1.086-2.021a.282.282 0 0 1-.091-.143c-.013-.14.074-.23.156-.322a109.867 109.867 0 0 0 5.343-6.543c1.639-2.165 3.217-4.378 4.625-6.7a34.438 34.438 0 0 0 3.017-6.294 30.03 30.03 0 0 0 1.092-3.843c.026-.122.021-.274.2-.296.121.03.195.122.274.205a45.229 45.229 0 0 1 2.356 2.725c1.43 1.8 2.717 3.7 3.843 5.704a44.877 44.877 0 0 1 2.908 6.256 43.198 43.198 0 0 1 1.978 7.212 39.33 39.33 0 0 1 .504 3.652c.074.813.083 1.63.1 2.447v.843c.018.134-.021.274.026.404Z" fill="#25363F"/><path d="M41.917 87.95a.307.307 0 0 1-.187-.043 1.196 1.196 0 0 0-.465 0c-.066-.013-.126-.03-.192-.044a.671.671 0 0 0-.334 0c-.048-.013-.096-.03-.144-.043a.726.726 0 0 0-.335 0c-.047-.013-.095-.03-.147-.044a.536.536 0 0 0-.287 0c-.04 0-.074-.013-.096-.047a.568.568 0 0 0-.296.004c-.047-.013-.095-.03-.143-.043a.24.24 0 0 0-.204 0 1.974 1.974 0 0 1-.1-.044.388.388 0 0 0-.244 0c-.035-.013-.07-.03-.104-.043a.25.25 0 0 0-.209.004c-.03-.017-.06-.03-.091-.048a.288.288 0 0 0-.209 0 .694.694 0 0 1-.1-.043.257.257 0 0 0-.204 0c-.665-.135-1.335-.235-2-.37a44.548 44.548 0 0 1-3.03-.73 41.679 41.679 0 0 1-5.577-1.978 43.592 43.592 0 0 1-5.278-2.73 44.031 44.031 0 0 1-8.79-7.056 42.3 42.3 0 0 1-2.952-3.408 44.93 44.93 0 0 1-2.93-4.248 43.245 43.245 0 0 1-2.256-4.256c-.453-.97-.87-1.956-1.24-2.96-.03-.087-.078-.17-.074-.27 1.318-.07 2.635-.039 3.952.035a41.61 41.61 0 0 1 5.77.726c7.411 1.46 14.006 4.621 19.762 9.503 5.778 4.9 9.99 10.916 12.66 18.007l.025.082c.04.122-.043.113-.117.113h-.43c-.165.013-.335-.026-.5.022h-.74a7.63 7.63 0 0 0-1.26 0h-.174c-.048-.052-.117-.039-.178-.048a1.808 1.808 0 0 0-.552 0Z" fill="#E5E5E5"/><path d="M42.821 88.044c.165-.161.343-.08.513-.072.248.016.504-.097.748.072H42.82Z" fill="#C5C8CA"/><path d="M45.303 87.963c.135-.004.27-.004.405-.008.07 0 .147.013.16-.092.04.07.096.1.174.1.018.01.022.018.013.026-.004.01-.013.01-.017.01h-.739c-.03-.014-.026-.027.004-.036Z" fill="#9DA4A8"/><path d="M87.96 45.747c0-.192-.08-.383.08-.57v.565c-.017.022-.044.022-.08.005Z" fill="#5A676D"/><path d="M45.303 87.977c0 .028-.004.056-.004.074h-.478c.156-.167.321-.074.482-.074Z" fill="#B7BBBD"/><path d="M88.042 43.96c-.165-.126-.073-.26-.083-.396.028-.021.056-.017.083.005v.391Z" fill="#4A5960"/><path d="M88.043 43.569c-.03 0-.06-.005-.09-.005v-.347c.03-.022.06-.022.09.004v.348Z" fill="#6E797F"/><path d="M87.953 45.747c.03 0 .06-.005.09-.005v.348c-.02.022-.05.026-.08.005 0-.118-.01-.23-.01-.348Z" fill="#9CA3A7"/><path d="M46.038 88.046c0-.03 0-.05.004-.08h.305c0 .03-.005.06 0 .09-.105-.01-.209-.01-.309-.01Z" fill="#CBCFD1"/><path d="M88.043 43.221c-.03 0-.06-.004-.09-.004v-.261c.03-.022.06-.022.08.004.01.087.01.174.01.261Z" fill="#9EA6A9"/><path d="M87.96 46.095c.03 0 .06 0 .08-.005v.261l-.04.004h-.04v-.26Z" fill="#CACED1"/><path d="m88.04 42.96-.04-.004h-.04v-.261a.16.16 0 0 1 .08.004v.261Z" fill="#CACED0"/><path d="M61.932 4.67c.117.034.195-.044.274-.1.813-.549 1.669-1.014 2.534-1.47.087.056.148.13.204.217a16.622 16.622 0 0 0 1.752 2.26 16.14 16.14 0 0 0 4.956 3.64 15.765 15.765 0 0 0 4.443 1.364c.113.018.235.018.322.11-.052.812-.109 1.62-.23 2.425-.066.413-.135.826-.21 1.235-.008.06-.012.113.014.165-.113.087-.087.221-.109.335-.695 3.251-1.926 6.294-3.56 9.177-1.426 2.508-3.1 4.851-4.817 7.16a114.246 114.246 0 0 1-5.76 7.094c-.052.061-.1.127-.148.187-.009.1-.07.17-.13.244-.44.517-.9 1.021-1.361 1.521-1.117 1.209-2.235 2.404-3.408 3.543-.479.466-.961.918-1.457 1.37-.07.065-.143.126-.248.117l-.817.635c-.122.087-.204-.017-.287-.07-.608-.39-1.217-.782-1.821-1.182-.265-.183-.552-.34-.813-.54-.318-.203-.64-.403-.957-.616-.078-.053-.16-.096-.204-.183-.035-.144.057-.252.117-.36.487-.857.961-1.722 1.387-2.61.557-1.164 1.078-2.342 1.409-3.594.113-.427.208-.857.204-1.305 0-.043 0-.087-.004-.13-.052-.6-.396-.817-.957-.596-.608.244-1.113.648-1.595 1.074-1.565 1.396-2.86 3.026-4.108 4.704-.087.117-.152.27-.326.295-.144-.008-.248-.108-.361-.182a28.36 28.36 0 0 1-.848-.552c-.613-.383-1.217-.783-1.821-1.178-.457-.296-.913-.587-1.365-.892-.092-.06-.214-.108-.205-.256l.235-1c-.07-.156.009-.3.056-.439.21-.66.448-1.313.687-1.965a91.01 91.01 0 0 1 2.478-5.995c.07-.148.113-.317.27-.409.587-1.225 1.16-2.456 1.774-3.669 1.912-3.782 3.982-7.481 6.377-10.98 2.274-3.3 5.004-6.174 8.334-8.452.048-.03.152-.04.1-.148Z" fill="#E5E5E5"/><path d="M54.998 45.264c.691-.648 1.387-1.29 2.056-1.96a99.72 99.72 0 0 0 4.356-4.639c.057-.065.122-.122.183-.187.656.54.99 1.274 1.217 2.065.335 1.183.404 2.391.374 3.613a21.977 21.977 0 0 1-.33 3.238c-.192 1.083-.661 2.065-1.174 3.026-1.73 3.256-3.856 6.243-6.234 9.056-.33.39-.679.773-1.079 1.1-.552.452-1.065.43-1.556-.088-.491-.517-.739-1.169-.943-1.838a5.992 5.992 0 0 1-.205-.952c-.043-.3-.004-.592.096-.879.36-1.03.896-1.978 1.43-2.921a68.793 68.793 0 0 1 2.54-4.152c.234-.356.273-.704.2-1.09-.157-.875-.457-1.705-.696-2.557-.074-.278-.157-.557-.235-.835Zm-9.642-17.328c-.453 1.035-.913 2.06-1.352 3.104-.779 1.856-1.518 3.725-2.113 5.647-.005.022-.022.04-.03.057-1.192.2-2.405.265-3.579.56a1.23 1.23 0 0 0-.769.548c-1.222 1.874-2.474 3.73-3.887 5.469-.239.291-.49.57-.747.848a2.332 2.332 0 0 1-1.27.747c-.834.179-1.669.27-2.517.087a1.765 1.765 0 0 1-.465-.174c-.448-.239-.63-.63-.526-1.125.109-.505.317-.979.535-1.444 1.63-3.43 3.578-6.669 5.903-9.677 1.174-1.517 2.67-2.59 4.352-3.447 1.226-.622 2.478-1.165 3.839-1.409.895-.16 1.778-.182 2.626.209Z" fill="#CB584C"/><path d="M50.607 50.12c-2.165 3.274-4.673 6.269-7.39 9.095-1.813 1.886-3.713 3.682-5.852 5.208-.913.652-1.86 1.252-2.943 1.595-.313.1-.63.161-.96.161-.67-.004-1.127-.317-1.392-.926-.235-.535-.278-1.104-.274-1.682.005-1.209.235-2.391.522-3.556.713-2.896 1.774-5.67 2.97-8.395 1.295-2.952 2.751-5.821 4.494-8.538.052-.048.113-.03.161 0 .326.196.652.387.952.626a.186.186 0 0 1 .048.07c.043.134-.04.234-.104.339a39.563 39.563 0 0 0-2.34 4.143c-.86 1.778-1.595 3.6-2.055 5.53-.248 1.034-.379 2.077-.318 3.142.035.609.178 1.187.552 1.691.426.574 1.026.761 1.704.705.979-.087 1.835-.509 2.652-1.018.97-.604 1.848-1.321 2.687-2.095 2.108-1.952 3.873-4.182 5.46-6.564.083-.122.144-.279.317-.309.092-.004.166.04.24.087.234.152.47.309.708.46.083.053.178.105.161.231Z" fill="#FED364"/><path d="M40.904 43.795c-.374-.235-.744-.47-1.117-.709-.326-.265-.696-.47-1.044-.7-.747-.49-.913-1.273-.426-2.026.448-.69.913-1.373 1.344-2.078.456-.739 1.278-.882 1.856-.565.03.018.07.013.104.022.213.2.474.33.713.491.848.557 1.7 1.105 2.548 1.657.052.034.104.078.152.117.104.143-.005.248-.078.348-.326.47-.653.939-.97 1.413a63.522 63.522 0 0 0-1.617 2.569c-.057.091-.1.196-.191.256-.1.044-.183 0-.261-.052-.291-.182-.574-.382-.865-.565-.07-.043-.096-.117-.148-.178Zm9.703 6.325c-.343-.278-.726-.491-1.091-.73a.807.807 0 0 1-.365-.157c-.222-.16-.457-.291-.683-.443-.082-.057-.174-.104-.195-.217 0-.11.065-.192.121-.274a63.688 63.688 0 0 0 2.609-4c.07-.113.117-.26.295-.248.887.574 1.774 1.144 2.66 1.718.075.047.149.082.223.126.082.082.165.16.243.247a1.34 1.34 0 0 1 .13 1.648c-.482.756-.965 1.513-1.465 2.256-.46.687-1.243.835-1.939.392-.178-.11-.343-.244-.543-.318Z" fill="#CB584C"/><path d="M59.336 73.083c-.36.021-.717.074-1.069.165-.878.239-1.295.86-1.448 1.713a6.426 6.426 0 0 0-.09.86l-.018.03-.018-.03a5.366 5.366 0 0 0-.174-1.2c-.204-.756-.695-1.212-1.443-1.4a4.569 4.569 0 0 0-1.113-.143c-.017-.074.04-.052.074-.056.074-.009.152.013.226-.013.257-.005.504-.052.748-.109.939-.213 1.434-.83 1.587-1.756.043-.27.074-.54.113-.865.039.365.06.678.13.978.235 1.021.77 1.526 1.804 1.695.144.022.287.035.43.057.079.056.205-.057.261.074ZM18.041 50.616a5.16 5.16 0 0 0 .966-.135c.93-.222 1.43-.77 1.595-1.765.048-.291.07-.587.1-.883l.013-.034.013.034c.013.357.052.705.126 1.057.196.943.791 1.46 1.717 1.63.261.048.526.074.792.122-.71.095-1.44.135-1.983.691-.535.548-.582 1.27-.678 1.978-.017-.117-.03-.239-.048-.356-.017-.13-.03-.261-.052-.387-.117-.635-.352-1.196-.948-1.53-.36-.2-.756-.287-1.16-.335-.153-.018-.3-.035-.453-.048-.03-.013-.026-.026 0-.04Zm-4.173-12.181c-.37.026-.735.07-1.091.165-.9.239-1.326.874-1.47 1.743-.039.235-.06.47-.113.709-.03-.226-.052-.452-.095-.678-.222-1.209-.84-1.774-2.056-1.892a7.378 7.378 0 0 1-.53-.07c.712-.09 1.442-.13 1.995-.669.547-.539.604-1.256.708-1.969.013.1.03.196.044.296.013.1.021.2.039.3.217 1.282.821 1.843 2.121 1.978.152.017.305.03.452.047.026.014.022.027-.004.04ZM33.6 26.093c-.043-.279-.056-.557-.121-.835-.226-1.009-.774-1.53-1.8-1.687-.244-.039-.487-.06-.73-.091-.03-.013-.03-.022 0-.035.434-.03.86-.082 1.273-.226.805-.283 1.148-.909 1.287-1.695.022-.126.035-.257.057-.387.039-.087-.01-.183.03-.265-.004-.014 0-.027.004-.04.013-.03.026-.026.035.005.022.295.057.587.118.878.195.952.795 1.474 1.734 1.634.257.044.513.074.774.127-.222.03-.44.056-.66.086-1.175.179-1.788.818-1.914 2.005l-.052.517c-.004.035-.017.04-.035.009ZM45.203 6.79c.04.235.066.474.113.705.205.943.822 1.439 1.748 1.595.27.044.54.074.839.113-.322.044-.617.066-.904.122-1.048.213-1.578.783-1.74 1.856-.02.144-.038.287-.056.43-.026.027.013.105-.07.083a6.797 6.797 0 0 0-.13-.834c-.217-.926-.834-1.4-1.739-1.552-.29-.048-.586-.074-.93-.118.396-.03.74-.065 1.078-.134.918-.192 1.452-.757 1.626-1.67.044-.226.065-.456.1-.687.078-.013.04.07.065.092ZM20.006 21.35a4.977 4.977 0 0 0-.165-1.07c-.204-.765-.704-1.221-1.465-1.404a5.35 5.35 0 0 0-.982-.139c-.03-.009-.035-.022-.005-.04.083-.047.179.005.266-.034.213-.035.43-.056.639-.1.926-.196 1.447-.778 1.617-1.695a4.74 4.74 0 0 0 .095-.857c.005-.013.01-.022.013-.035.01.01.013.018.022.027.057.095-.004.208.04.308.017.283.069.557.138.83.244.9.887 1.322 1.761 1.466.135.021.27.034.409.052.078.056.2-.052.256.074-.37.026-.73.074-1.087.174-.895.256-1.29.908-1.426 1.773-.034.222-.056.444-.086.665-.018.04-.03.035-.04.005Zm61.193 33.613c.03.283.07.56.135.835.213.865.787 1.334 1.634 1.504.248.048.5.091.752.1.01.113-.1.022-.126.07-.352.03-.7.09-1.039.204-.743.252-1.108.813-1.26 1.547-.048.226-.066.457-.1.687-.048.026-.057-.013-.074-.039a5.03 5.03 0 0 0-.165-.913c-.253-.9-.918-1.287-1.774-1.426-.178-.03-.361-.034-.54-.052-.03-.017-.073-.026-.043-.074a4.817 4.817 0 0 0 1.026-.17c.8-.221 1.226-.777 1.391-1.56.048-.217.07-.443.1-.665.026-.035.035-.074.083-.048ZM79.16 30.975c.004.378.061.747.157 1.113.221.826.782 1.269 1.595 1.434.226.048.457.07.687.1.03.022.03.048 0 .07-.36.034-.713.087-1.056.204-.761.257-1.135.826-1.283 1.574-.048.235-.065.47-.1.704-.109.004-.026-.096-.07-.126a5.11 5.11 0 0 0-.169-.891c-.213-.709-.691-1.135-1.395-1.322a4.92 4.92 0 0 0-.835-.139c-.026-.026-.026-.048 0-.074a4.63 4.63 0 0 0 .974-.187c.63-.204 1.047-.617 1.243-1.252.1-.326.165-.656.174-1 .052-.056-.04-.17.078-.208Z" fill="#FED364"/><path d="M79.174 30.975c-.03.07-.06.143-.086.213-.055-.248.071-.483.086-.726v.513Z" fill="#5B5D48"/><path d="M81.986 33.619c.156-.006.313-.022.504.096h-.504a.08.08 0 0 1 0-.096Z" fill="#3D4844"/><path d="M54.263 73.01c-.1.031-.2.056-.3.087h-.422c.244-.016.474-.142.722-.086Z" fill="#616249"/><path d="M45.13 6.452v-.466c.01.2.136.392.089.596-.11-.004-.042-.096-.09-.13Z" fill="#525747"/><path d="M45.224 11.786c.042.204-.064.395-.09.595v-.426c.058-.048-.053-.156.09-.17Z" fill="#5B5E49"/><path d="M81.22 60.302v.33c-.151-.117-.083-.23-.094-.335a.082.082 0 0 1 .094.005Z" fill="#444C45"/><path d="M79.088 36.048c.03.043.064.087.094.126v.348c-.094-.196-.112-.335-.094-.474Z" fill="#C7AB5B"/><path d="M78.608 57.398a.86.86 0 0 0 .043.09c-.134.032-.26-.026-.39-.048-.01-.005-.023-.016-.031-.021.008-.005.022-.01.03-.021h.348Z" fill="#837A4F"/><path d="M81.13 54.746c-.01-.087-.029-.179.054-.287.049.113.039.2.03.287-.03.021-.06.021-.084 0Z" fill="#716D4C"/><path d="M22.645 18.758c-.087-.033-.174-.06-.256-.094.174-.027.343.039.517.055.009.006.022.011.03.022-.008.006-.021.011-.03.017h-.26Z" fill="#B39D57"/><path d="M59.336 73.097c-.087-.03-.173-.056-.256-.087.178-.03.348.036.522.051l.03.02c-.009.006-.022.01-.03.02-.092-.004-.179-.004-.266-.004Z" fill="#A59355"/><path d="M83.594 57.496c.044-.03.087-.065.126-.094h.305c.035.012.035.023.004.047-.065.07-.152-.006-.222.053-.07 0-.139-.006-.213-.006Z" fill="#9D8D54"/><path d="M45.13 6.452c.035.043.064.086.1.13v.209l-.095-.083c0-.087-.006-.17-.006-.256Z" fill="#CAAE5B"/><path d="M81.13 54.746h.098v.217c-.035.013-.064.026-.098.04-.006-.083 0-.17 0-.257Z" fill="#B8A058"/><path d="M23.576 50.688c.095-.1.2-.07.304 0h-.304Z" fill="#606149"/><path d="m81.125 59.867.1.039v.217c-.065.03-.076-.013-.1-.039v-.217Z" fill="#B39D57"/><path d="M45.234 11.786a2.55 2.55 0 0 0-.1.17v-.257l.094-.083c0 .057 0 .113.006.17Z" fill="#C9AD5B"/><path d="M36.796 23.463c-.1.08-.205.1-.309 0h.309Z" fill="#5F6049"/><path d="M81.595 33.722v-.1h.217c.03.031.03.069 0 .1h-.217Z" fill="#B29C57"/><path d="M11.205 35.292c.07.086.09.178.03.29-.13-.108-.02-.2-.03-.29Z" fill="#6A684B"/><path d="M48.312 9.206c-.079.08-.17.08-.261 0h.26Z" fill="#64644A"/><path d="M20.092 16.007c-.02.004-.05.004-.08.004v-.321h.08v.317Z" fill="#8E8251"/><path d="M11.233 41.321c.04.096.07.187-.03.305-.03-.127-.06-.218.03-.305Z" fill="#5A5C48"/><path d="M8.025 38.445c.092-.048.183-.086.296 0-.118.087-.209.039-.296 0Z" fill="#606149"/><path d="M56.712 70.105v-.252h.05v.27a.28.28 0 0 1-.05-.018Z" fill="#555948"/><path d="M84.033 57.493c0-.03-.004-.06-.004-.08.113-.02.226-.05.335.08h-.33Z" fill="#4B5246"/><path d="m81.125 60.084.095.04c0 .06.005.117.005.178h-.1v-.218Z" fill="#736E4D"/><path d="M33.697 26.345v.356c-.12-.16-.09-.256-.07-.356.02-.018.04-.018.07 0Z" fill="#5C5E49"/><path d="M76.387 33.707c-.053-.005-.135.035-.135-.044 0-.08.087-.04.135-.045.021.03.021.06 0 .09Z" fill="#61624A"/><path d="M76.387 33.722v-.1h.173c.022.035.022.07 0 .1h-.173Z" fill="#948652"/><path d="M81.812 33.712v-.089c.056 0 .117-.005.174-.005v.1c-.057 0-.118-.006-.174-.006Z" fill="#726E4C"/><path d="M14.077 38.416c.1-.027.2-.044.308.027-.113.07-.213.053-.308.026v-.053Zm3.756 12.269c-.1.027-.2.045-.309-.026.113-.071.213-.054.309-.027v.053Z" fill="#62634A"/><path d="M20.764 53.807c-.106-.07-.044-.148-.08-.257.177.109.062.183.08.257Z" fill="#5C5E49"/><path d="M59.597 73.129v-.074c.1-.01.196-.037.305.037-.11.074-.21.046-.305.037Z" fill="#61624A"/><path d="M78.256 57.406c0 .027-.004.045 0 .071-.096 0-.196.045-.304-.035.108-.081.208-.045.304-.036Z" fill="#4C5346"/><path d="M41.921 9.251c.122-.08.2-.09.304-.03-.104.1-.178.05-.304.03Z" fill="#5D5F49"/><path d="M56.699 75.821c.03.005.05.005.08 0v.292h-.08v-.292Z" fill="#7E774E"/><path d="M17.137 18.779c-.1.018-.195.046-.308-.028.113-.073.208-.055.308-.027v.055Z" fill="#5E6049"/><path d="M22.906 18.78v-.07h.291c-.095.11-.195.09-.29.07Z" fill="#69674B"/><path d="M33.624 20.58c-.018-.1-.046-.2.028-.308.073.113.055.213.027.308h-.055Z" fill="#5A5D48"/><path d="M20.086 21.606v.357c-.12-.157-.09-.257-.07-.357h.07Z" fill="#545847"/><path d="M30.744 23.517c-.1.019-.2.046-.308-.027.113-.074.208-.055.308-.028v.055Z" fill="#63634A"/><path d="M20.112 16.316c-.093-.096-.093-.2-.07-.31.123.097.085.205.07.31Z" fill="#8E8251"/><path d="M20.768 47.838h-.06v-.309c.09.14.09.222.06.309Z" fill="#81794F"/><path d="M17.137 18.785v-.06c.083-.01.17-.01.252-.02.005.03.005.06.005.09-.087-.01-.174-.01-.257-.01Z" fill="#B09A57"/><path d="M17.655 18.674c-.083.105-.174.096-.266.07.083-.105.174-.087.266-.07Z" fill="#B09A57"/><path d="M76.56 33.722v-.1h.13v.1c-.043-.006-.086 0-.13 0Z" fill="#C2A85A"/><path d="M33.7 26.345h-.08c-.01-.083-.01-.17-.02-.252.03-.005.06-.005.09-.005 0 .087.01.174.01.257Z" fill="#B59E57"/><path d="M20.072 21.606h-.06v-.256c.03 0 .06 0 .08.004 0 .087-.01.17-.02.252Z" fill="#B29C57"/><path d="M33.643 20.872c.028.09.047.182-.066.265-.02-.092-.029-.183.066-.265Zm-.013-.292h.06v.257h-.04l-.04-.005c.01-.082.01-.17.02-.252Z" fill="#BFA659"/><path d="M14.077 38.421v.06h-.213v-.08c.074.01.143.02.213.02Z" fill="#C9AD5B"/><path d="M83.812 57.523c.07-.094.143-.094.221-.084-.065.13-.143.093-.221.084Z" fill="#4B5246"/><path d="M30.744 23.515v-.06h.213v.08c-.074-.01-.143-.01-.213-.02Z" fill="#CBAE5B"/><path d="M17.833 50.691v-.06c.07 0 .139 0 .208-.01v.08c-.07 0-.139-.01-.208-.01Z" fill="#C9AD5B"/><path d="M76.421 10.694c-.543-.021-1.073-.147-1.6-.278-4.264-1.065-7.599-3.438-9.994-7.125-.04-.06-.096-.113-.087-.191 1.256-.609 2.548-1.14 3.9-1.5 1.29-.348 2.595-.583 3.938-.543.34.008.678.056 1.013.121.418.087.744.3.996.644.491.673.804 1.439 1.056 2.225.6 1.887.813 3.83.796 5.8-.009.282-.013.565-.018.847Z" fill="#CB584C"/><path d="M41.917 88.001a.431.431 0 0 1 .552 0h-.552Z" fill="#C5C8CA"/><path d="M41.265 87.958c.156-.133.308-.133.465 0h-.465Z" fill="#BBBFC2"/><path d="M40.265 87.874c.113-.133.222-.133.335 0h-.335Z" fill="#CACDCE"/><path d="M40.739 87.916c.113-.138.221-.129.334 0h-.334Z" fill="#BFC3C5"/><path d="M39.439 87.787c.095-.141.195-.123.295-.01-.1.01-.2.01-.295.01Z" fill="#BCC0C2"/><path d="M39.83 87.83c.096-.133.191-.133.287 0h-.287Zm-1.087-.128c.083-.138.161-.128.244 0h-.244Z" fill="#BDC1C4"/><path d="M37.83 87.571c.07-.13.135-.13.205 0h-.205Z" fill="#B8BCBF"/><path d="M38.435 87.662c.07-.136.139-.126.208-.01-.074 0-.143 0-.208.01Z" fill="#C4C7C9"/><path d="M39.087 87.745c.07-.13.139-.13.204 0h-.204Z" fill="#C7CACC"/><path d="M38.135 87.614c.07-.13.139-.12.208 0h-.208Z" fill="#C1C5C7"/><path d="M16.476 63.436c.552.022 1.065.204 1.557.435.839.395 1.552.956 2.043 1.756.5.809.687 1.67.278 2.578-.348.774-.987 1.2-1.774 1.443-.19.061-.395.092-.59.135-.4-.022-.783-.1-1.153-.256-1.043-.43-1.895-1.087-2.46-2.074-.387-.674-.552-1.4-.322-2.17.304-1.017 1.048-1.556 2.034-1.817.127-.034.261.018.387-.03Zm9.169 10.481c1.66.087 3.056.687 4 2.109.708 1.06.59 2.373-.305 3.212-.43.405-.96.64-1.521.8-.844.04-1.609-.213-2.33-.617-.814-.457-1.479-1.065-1.848-1.948-.735-1.739.46-3.26 1.882-3.525.04-.005.083-.009.122-.03Zm2.517-6.347c.735.465 1.308 1.07 1.578 1.917.165.526.183 1.04-.048 1.565-.304.696-1.139 1-1.813.887-.182-.03-.374-.048-.539-.148-.16-.143-.347-.247-.504-.4a3.211 3.211 0 0 1-.96-2.03c-.118-1.2 1.008-2.139 2.16-1.804.043.009.082.018.126.013Z" fill="#CBCBCB"/><path d="M16.476 63.436c-.295.104-.608.165-.904.287a2.428 2.428 0 0 0-1.408 3.008c.343 1.1 1.108 1.84 2.069 2.4a4.432 4.432 0 0 0 1.582.57c.061.008.118.047.179.073-.983.126-1.918-.052-2.804-.478-1.109-.535-1.987-1.313-2.374-2.517-.478-1.495.33-2.813 1.9-3.252a4.218 4.218 0 0 1 1.76-.091Zm9.169 10.481c-.291.174-.626.248-.922.43-1.256.774-1.534 2.17-.887 3.34.713 1.282 1.874 1.947 3.278 2.23.23.047.474.039.7.121-1.626.34-3.09-.017-4.382-1.043-.748-.596-1.235-1.365-1.295-2.343a2.17 2.17 0 0 1 .552-1.583c.604-.7 1.4-1.021 2.304-1.117.095-.048.208.013.308-.04.113.005.23.005.344.005Zm2.517-6.347c-.17.065-.34-.008-.504-.013-1.096-.026-1.813.878-1.67 1.943.122.9.578 1.583 1.274 2.135.083.065.091.074.083.148-1.218-.483-2.004-1.335-2.17-2.66-.16-1.266.744-2.074 2.013-1.896.344.056.665.178.974.343Z" fill="#B2B2B2"/><path d="M25.301 73.924c-.095.133-.204.07-.308.08.1-.142.208-.08.308-.08Z" fill="#CBCBCB"/><path d="M69.848 18.507c-.026 3.764-3.073 6.79-6.82 6.773-3.757-.022-6.791-3.083-6.77-6.821a6.793 6.793 0 0 1 6.852-6.76c3.734.026 6.769 3.09 6.738 6.808Z" fill="#263740"/><path d="M46.212 40.752c.117-.035.152-.148.217-.235 1.148-1.556 2.357-3.07 3.756-4.408.513-.491 1.052-.957 1.674-1.304a1.9 1.9 0 0 1 .648-.244c.404-.065.652.104.748.504.082.361.043.722-.027 1.079-.23 1.226-.7 2.369-1.212 3.5a40.598 40.598 0 0 1-1.774 3.43c-.044.073-.104.138-.109.23.022.113-.039.195-.091.282a59.361 59.361 0 0 1-2.57 3.965c-.082.117-.16.239-.238.36-.374.462-.713.948-1.079 1.418-.956 1.23-1.982 2.4-3.12 3.465-.497.465-1.031.89-1.649 1.19-.143.07-.29.123-.452.153-.452.083-.765-.117-.87-.57-.077-.33-.047-.665 0-.99.114-.757.357-1.474.631-2.187.644-1.691 1.474-3.287 2.37-4.856.052-.087.104-.174.165-.257.287-.543.621-1.06.943-1.578a51.338 51.338 0 0 1 1.856-2.773c.053-.066.096-.144.183-.174Z" fill="#CB584C"/><path d="M46.212 40.752c-.057.217-.222.37-.344.543-.825 1.165-1.582 2.374-2.33 3.591a7.04 7.04 0 0 0-.243.435c-.074.035-.14.013-.204-.026-.27-.179-.548-.34-.809-.526-.065-.044-.13-.092-.117-.187.108-.3.304-.557.465-.83.521-.861 1.06-1.71 1.63-2.535.222-.322.448-.64.67-.96.052-.075.117-.149.108-.253.409.222.787.491 1.174.748Zm1 7.116c-.03-.152.1-.23.17-.326a63.137 63.137 0 0 0 2.682-4.151c.017-.03.043-.057.065-.083.4.23.787.487 1.165.752-.126.065-.17.196-.235.304a65.195 65.195 0 0 1-2.113 3.296c-.213.308-.434.608-.652.913-.074.047-.139.013-.2-.027-.252-.165-.508-.321-.76-.486-.061-.048-.127-.1-.122-.192Z" fill="#BE5347"/><path d="M47.212 47.868c.36.235.726.47 1.087.7l1.217.822c-.091.017-.122.095-.165.16a39.262 39.262 0 0 1-2.652 3.622 31.065 31.065 0 0 1-1.417 1.613c-.313.33-.622.665-.952.982-1.048 1.009-2.144 1.96-3.4 2.709-.67.4-1.365.726-2.135.887-.678.139-1.33.09-1.89-.366-.453-.37-.679-.878-.783-1.439-.191-1.06-.104-2.117.104-3.164.352-1.783.978-3.478 1.717-5.135a39.142 39.142 0 0 1 2.878-5.269c.04-.06.087-.117.079-.195.343.222.686.439 1.034.66.074.048.152.083.226.122.361.274.748.5 1.126.74-.974 1.673-1.87 3.382-2.552 5.199-.308.826-.595 1.665-.634 2.56-.01.222.004.448.1.657.126.274.356.395.656.339.604-.118 1.083-.474 1.543-.848 1.052-.86 1.965-1.856 2.835-2.9.63-.756 1.234-1.53 1.808-2.33.048-.06.087-.121.17-.126Z" fill="#F1B155"/><path d="M62.919 14.416c2.125-.065 4.02 1.5 4.195 3.765.174 2.295-1.54 4.234-3.835 4.382-2.16.139-4.143-1.583-4.282-3.722-.156-2.39 1.505-4.269 3.922-4.425Z" fill="#C1E1F1"/></g></svg>