<svg viewBox="0 0 90 90" xmlns="http://www.w3.org/2000/svg"><g fill="none" fill-rule="evenodd"><path fill="#FFF" d="M0 0h90v90H0z"/><g fill-rule="nonzero"><path d="m77.733 57.135-3.313-3.693-3.284 3.693h-6.91l6.753-7.541-6.754-7.543h7.126l3.347 3.664 3.22-3.664h6.877l-6.72 7.511 6.814 7.573h-7.156Zm-26.778 0V33.372h13.27v5.297h-7.649v3.382h7.65v5.096h-7.65v4.678h7.65v5.31h-13.27Z" fill="#FF5A00"/><path d="M45.355 33.372v9.725h-.062c-1.24-1.415-2.788-1.909-4.584-1.909-3.68 0-6.453 2.489-7.427 5.776-1.11-3.623-3.972-5.843-8.216-5.843-3.448 0-6.169 1.537-7.59 4.042V42.05H10.35v-3.38h7.776v-5.297H4v23.762h6.35v-9.988h6.331a9.434 9.434 0 0 0-.29 2.35c0 4.954 3.81 8.436 8.673 8.436 4.089 0 6.786-1.91 8.21-5.386h-5.442c-.736 1.046-1.295 1.355-2.767 1.355-1.706 0-3.178-1.48-3.178-3.232h11.082c.481 3.936 3.567 7.33 7.802 7.33 1.827 0 3.5-.893 4.522-2.401h.061v1.54h5.6V33.372h-5.599ZM22.063 47.218c.354-1.51 1.532-2.496 3.002-2.496 1.619 0 2.737.956 3.03 2.496h-6.032Zm19.894 6.3c-2.063 0-3.346-1.91-3.346-3.905 0-2.134 1.116-4.183 3.346-4.183 2.314 0 3.236 2.05 3.236 4.183 0 2.02-.976 3.906-3.236 3.906Z" fill="#29007C"/></g></g></svg>