<svg viewBox="0 0 90 90" xmlns="http://www.w3.org/2000/svg"><g fill="none"><path d="M46.886 14.532c-4.375 0-8.623.854-12.636 2.533l-6.842-6.895a.575.575 0 0 0-.712-.083A51.203 51.203 0 0 0 10.22 26.69a.585.585 0 0 0 .082.717l6.56 6.607a33.148 33.148 0 0 0-2.96 13.752C13.901 66.092 28.698 81 46.886 81c18.186 0 32.982-14.908 32.982-33.233 0-18.326-14.796-33.235-32.982-33.235Z" fill="#13A1D9"/><path d="m59.953 44.607 2.297 9.796 2.205 10.335-10.243-2.22-9.716-2.302L18.25 33.77c3.293-6.83 8.857-12.249 15.736-15.325l25.967 26.162Z" fill="#113140"/><path d="m61 53.623-1.737-7.687c-5.982 2.768-10.72 7.543-13.465 13.57l7.63 1.75c1.619-3.263 4.335-6 7.573-7.633Z" fill="#FFF"/></g></svg>