<svg viewBox="0 0 90 90" xmlns="http://www.w3.org/2000/svg"><g fill="none"><path d="M14.62 21.573v25.581a1.08 1.08 0 0 0 1.075 1.076h25.582c.213 0 .42-.062.597-.182a1.06 1.06 0 0 0 .395-.483 1.065 1.065 0 0 0-.232-1.171l-25.583-25.58a1.098 1.098 0 0 0-.55-.29 1.06 1.06 0 0 0-.619.063 1.076 1.076 0 0 0-.665.986Z" fill="#AB1A2D"/><path d="M24.643 22.907 44.69 42.946a1.08 1.08 0 0 0 1.655-.162c.118-.178.183-.385.183-.599V2.105a1.067 1.067 0 0 0-.665-.993 1.066 1.066 0 0 0-.622-.062c-.207.041-.4.145-.551.294l-20.047 20.03a1.07 1.07 0 0 0-.238 1.181c.056.133.137.25.238.352Z" fill="#EA0A2A"/><path d="M51.63 19.024v23.161a1.078 1.078 0 0 0 1.287 1.057c.207-.041.4-.145.548-.296L76.63 19.785a1.075 1.075 0 0 0 .232-1.173 1.07 1.07 0 0 0-.993-.665H52.705a1.08 1.08 0 0 0-1.075 1.077Z" fill="#D6202A"/><path d="M56.874 48.23H85.91c.214 0 .42-.062.597-.182a1.06 1.06 0 0 0 .396-.483 1.063 1.063 0 0 0-.232-1.171L72.153 31.876a1.077 1.077 0 0 0-1.175-.234c-.13.054-.249.132-.348.234L56.112 46.394a1.071 1.071 0 0 0-.232 1.173c.083.197.22.364.395.483.179.118.386.18.601.18h-.002Z" fill="#A32135"/><path d="m56.112 54.364 16.426 16.428c.151.151.342.253.551.296.21.042.427.021.622-.062a1.069 1.069 0 0 0 .667-.996V53.616a1.096 1.096 0 0 0-.315-.763 1.1 1.1 0 0 0-.762-.315H56.874a1.083 1.083 0 0 0-.984.661 1.06 1.06 0 0 0-.062.616c.037.207.137.397.284.549Z" fill="#F12535"/><path d="M67.722 72.075 53.465 57.818a1.08 1.08 0 0 0-1.174-.234c-.195.083-.363.22-.481.396a1.06 1.06 0 0 0-.183.596v28.516c0 .214.063.42.18.6a1.1 1.1 0 0 0 .484.393 1.078 1.078 0 0 0 1.173-.232L67.72 73.596a1.074 1.074 0 0 0 .002-1.521Z" fill="#911A1C"/><path d="M46.52 80.668V58.583c0-.214-.063-.421-.183-.597a1.06 1.06 0 0 0-.483-.396 1.065 1.065 0 0 0-1.17.232l-22.09 22.086a1.063 1.063 0 0 0-.234 1.173 1.069 1.069 0 0 0 .996.667H45.44c.143 0 .282-.03.414-.083.13-.054.249-.133.348-.234a1.06 1.06 0 0 0 .315-.763h.002Z" fill="#C20F2F"/><path d="M41.277 52.538H3.894a1.07 1.07 0 0 0-.59.184 1.103 1.103 0 0 0-.394.477 1.088 1.088 0 0 0 .222 1.165l18.69 18.691c.102.102.22.18.353.234a1.067 1.067 0 0 0 1.173-.234l18.69-18.691a1.088 1.088 0 0 0 .221-1.163 1.083 1.083 0 0 0-.982-.663Z" fill="#D82336"/></g></svg>