<svg viewBox="0 0 90 90" xmlns="http://www.w3.org/2000/svg"><g fill="none" fill-rule="evenodd"><path fill="#020A3B" d="M0 0h90v90H0z"/><path d="M36.65 20.148c-1.166 0-2.165.997-2.165 2.157v7.29a2 2 0 0 0 2 2h6.208a2 2 0 0 1 2 2v8.283c0 1.826 1.502 3.318 3.334 3.318h6.625c1.834 0 3.334 1.494 3.334 3.317v4.018a3 3 0 0 0 3 3h6.333c1.165 0 2.166-.995 2.166-2.155V22.305c0-1.16-1.001-2.157-2.166-2.157H36.65Zm-2.833 31.334.015-13.484c0-1.405-1.142-2.554-2.537-2.554h-9.137c-.889 0-1.65.766-1.65 1.66v30.759c0 .894.761 1.66 1.65 1.66h32.216c.889 0 1.65-.766 1.65-1.66l-.013-9.15a2 2 0 0 0-2-1.998H36.464c-1.523 0-2.664-1.15-2.664-2.68l.017-2.553Z" fill="#004DFF" fill-rule="nonzero"/></g></svg>