<svg viewBox="0 0 90 90" xmlns="http://www.w3.org/2000/svg"><g fill="none" fill-rule="evenodd"><path fill="#FFF" d="M0 0h90v90H0z"/><path d="M44.571 58.312c1.464 1.617 2.82 2.96 3.769 3.92 1.491 1.509 5.314 4.552 6.86 4.99.216.055.27.302.189.494-2.332 2.66-3.606 4.03-5.666 6.142-2.847 2.906-7.754 2.824-10.52-.055-2.657-2.742-4.283-4.387-6.67-7.348-1.382-1.92-1.084-5.676 2.088-6.69 3.416-1.097 6.643-1.453 9.95-1.453ZM23.994 43.78c14.043-5.51 31.097-5.017 45.249 1.837.163.083.244.22.163.357l-.092.185-.255.51c-.978 1.943-3.359 6.543-5.943 10.464-1.383 2.056-3.769 2.495-5.477 1.782-6.073-2.468-15.155-3.592-23.804-.905-3.145.987-3.958 4.003-3.497 5.62a105.88 105.88 0 0 1-8.649-13.352c-1.491-2.741 0-5.593 2.305-6.498Zm6.262-10.254c2.657 2.358 5.314 3.948 7.998 5.072-5.314.467-10.546 1.645-15.453 3.565-1.329.52-2.495 2.029-2.684 3.153-2.63-1.947-2.847-7.951 2.06-9.651 2.44-.85 5.693-1.618 8.08-2.139Zm-13.61-15.409c19.033-5.895 40.586-5.565 61.11 1.673l.244.301c-.19 1.042-.976 5.32-2.9 11.57a4.509 4.509 0 0 1-5.776 2.934c-14.016-4.798-29.768-6.169-47.798-.63-3.253 1.014-4.88 3.756-4.636 5.922 0 .137-.054.165-.081.082-1.925-4.633-3.525-9.733-4.61-14.202-.704-2.934.38-6.388 4.447-7.65Z" fill="#0008D6" fill-rule="nonzero"/></g></svg>