<svg viewBox="0 0 90 90" xmlns="http://www.w3.org/2000/svg"><g fill="none"><circle fill="#FF4500" cx="45" cy="45" r="45"/><path d="M74.999 44.9c-.134-3.604-3.18-6.418-6.82-6.296a6.622 6.622 0 0 0-4.31 1.813 32.169 32.169 0 0 0-17.344-5.507l2.922-13.961 9.64 2.013a4.498 4.498 0 0 0 4.961 3.972c2.475-.267 4.266-2.47 3.998-4.929a4.497 4.497 0 0 0-4.96-3.971 4.46 4.46 0 0 0-3.405 2.191l-11.04-2.191c-.75-.167-1.5.3-1.669 1.057 0 .007-1.108 5.191-3.325 15.552a32.413 32.413 0 0 0-17.568 5.507c-2.643-2.47-6.808-2.347-9.294.29a6.497 6.497 0 0 0 .291 9.233c.515.479 1.109.89 1.77 1.18a14.446 14.446 0 0 0 0 1.969C18.845 62.845 30.601 71 45.102 71c14.5 0 26.257-8.144 26.257-18.178a14.39 14.39 0 0 0 0-1.97 6.528 6.528 0 0 0 3.639-5.951Zm-45.046 4.484c0-2.47 2.026-4.483 4.512-4.483 2.486 0 4.513 2.013 4.513 4.483 0 2.47-2.027 4.483-4.513 4.483-2.497-.022-4.512-2.013-4.512-4.483Zm5.62 10.602a14.782 14.782 0 0 0 9.373 2.815 14.897 14.897 0 0 0 9.417-2.726 1.273 1.273 0 0 1 1.78.022c.481.49.47 1.291-.022 1.77v-.179a17.373 17.373 0 0 1-11.13 3.45 17.373 17.373 0 0 1-11.13-3.45 1.21 1.21 0 0 1 .168-1.702 1.222 1.222 0 0 1 1.545 0Zm19.741-14.93c2.486 0 4.513 2.014 4.513 4.484.1 2.47-1.837 4.55-4.322 4.65h-.224l.033-.167c-2.485 0-4.512-2.013-4.512-4.483 0-2.47 2.027-4.484 4.512-4.484Z" fill="#FFF"/></g></svg>