<svg viewBox="0 0 90 90" xmlns="http://www.w3.org/2000/svg"><g fill="none"><path fill="#034752" d="M0 0h90v90H0z"/><path d="m41.094 37.094 9-13.04c1.702-2.456 3.899-3.685 6.592-3.685 2.198 0 4.098.78 5.705 2.339 1.606 1.559 2.41 3.425 2.41 5.598 0 1.607-.425 3.025-1.276 4.253l-8.115 11.8 9.922 12.579c.992 1.252 1.488 2.717 1.488 4.394 0 2.221-.778 4.128-2.338 5.722-1.56 1.595-3.45 2.392-5.67 2.392-2.433 0-4.287-.79-5.563-2.374L41.094 51.906v8.363c0 2.386-.413 4.24-1.24 5.563-1.512 2.41-3.709 3.614-6.59 3.614-2.623 0-4.655-.886-6.095-2.658-1.347-1.63-2.02-3.792-2.02-6.483V29.299c0-2.552.685-4.654 2.055-6.308 1.441-1.747 3.425-2.622 5.953-2.622 2.41 0 4.417.875 6.024 2.623.897.968 1.465 1.948 1.7 2.94.142.615.213 1.76.213 3.438v7.724" fill="#FFF"/></g></svg>