<svg viewBox="0 0 90 90" xmlns="http://www.w3.org/2000/svg"><g fill="none" fill-rule="evenodd"><path fill="#FFFC00" d="M0 0h90v90H0z"/><path d="M.097 67.11v.004c.053 1.997.07 4.005.407 5.99.357 2.098.867 4.145 1.84 6.05a19.357 19.357 0 0 0 5.404 6.536c1.637 1.277 3.426 2.29 5.407 2.93 2.887.932 5.866 1.289 8.89 1.306 1.885.012 3.77.06 5.656.052 13.7-.058 27.4.099 41.1-.085 1.819-.025 3.607-.246 5.392-.573 3.42-.626 6.442-2.085 9.028-4.392 3.013-2.688 5.047-5.977 5.964-9.948.601-2.595.751-5.228.777-7.87v-.527c0-.204-.078-44.894-.085-45.484-.02-1.623-.14-3.233-.444-4.83-.37-1.946-.892-3.841-1.824-5.601a19.448 19.448 0 0 0-3.74-4.993c-2.335-2.239-5.029-3.822-8.165-4.66C72.871.26 69.981.093 67.07.096c-.005-.001-.016-.03-.016-.045H22.99l-.002.045c-1.653.03-3.307.017-4.95.221-1.802.224-3.585.561-5.29 1.19-2.684.994-5.017 2.54-7.009 4.605-2.257 2.34-3.848 5.045-4.693 8.195-.753 2.81-.917 5.677-.92 8.564" fill="#FFFC00" fill-rule="nonzero"/><path d="M44.937 75.917a3.992 3.992 0 0 1-.33.013c-3.92 0-6.542-1.854-8.856-3.49-1.658-1.172-3.222-2.278-5.054-2.583-.9-.149-1.795-.224-2.66-.224-1.558 0-2.79.241-3.69.417-.552.108-1.03.2-1.398.2-.386 0-.856-.085-1.051-.753-.155-.526-.266-1.037-.374-1.528-.268-1.228-.463-1.978-.923-2.049-4.917-.759-7.823-1.876-8.402-3.23a1.256 1.256 0 0 1-.102-.427.79.79 0 0 1 .66-.823c3.906-.643 7.378-2.708 10.322-6.138 2.28-2.655 3.4-5.192 3.52-5.472a.498.498 0 0 1 .018-.038c.568-1.151.68-2.146.337-2.956-.634-1.495-2.733-2.16-4.121-2.601a14.83 14.83 0 0 1-.932-.316c-1.231-.486-3.255-1.513-2.986-2.931.197-1.034 1.564-1.754 2.67-1.754.306 0 .578.054.807.161 1.249.585 2.373.882 3.339.882 1.201 0 1.782-.458 1.922-.588-.035-.64-.077-1.318-.118-1.96-.283-4.495-.634-10.079.794-13.28 4.275-9.586 13.34-10.33 16.017-10.33l1.166-.012.159-.001c2.683 0 11.768.746 16.045 10.337 1.428 3.204 1.076 8.792.793 13.284l-.013.215c-.039.61-.075 1.187-.105 1.747.132.121.663.54 1.744.583.921-.035 1.98-.33 3.145-.876.36-.17.76-.204 1.03-.204.41 0 .826.08 1.174.224l.018.007c.99.351 1.637 1.053 1.651 1.79.013.687-.498 1.714-3.01 2.706-.257.102-.585.206-.932.316-1.39.441-3.486 1.107-4.12 2.6-.344.81-.231 1.805.336 2.956.007.012.012.025.018.038.175.41 4.405 10.055 13.843 11.61a.79.79 0 0 1 .66.823 1.26 1.26 0 0 1-.105.431c-.574 1.346-3.48 2.462-8.4 3.222-.46.071-.655.818-.921 2.04-.11.504-.222.998-.375 1.518-.144.489-.462.728-.973.728h-.077c-.333 0-.805-.06-1.4-.177-1.04-.203-2.206-.39-3.689-.39-.864 0-1.76.075-2.66.224-1.83.305-3.394 1.409-5.05 2.58-2.318 1.638-4.94 3.492-8.86 3.492-.188 0-.366-.007-.501-.013Z" fill="#FFF" fill-rule="nonzero"/><path d="M60.994 24.764c1.35 3.027 1.004 8.509.727 12.912-.044.7-.087 1.376-.122 2.023l-.014.278.185.207c.075.084.777.817 2.338.877l.025.002.026-.001c1.032-.04 2.194-.36 3.456-.951.186-.087.433-.13.695-.13.298 0 .615.057.877.167l.04.015c.661.232 1.13.67 1.136 1.065.004.224-.163 1.03-2.51 1.956-.228.091-.53.187-.88.298-1.527.484-3.833 1.216-4.61 3.045-.437 1.03-.317 2.246.356 3.614.277.646 4.635 10.462 14.44 12.077a.435.435 0 0 1-.04.158c-.166.391-1.222 1.743-7.796 2.758-1.029.157-1.28 1.31-1.573 2.65-.105.48-.213.965-.36 1.465-.045.152-.054.16-.216.16h-.077c-.291 0-.734-.06-1.247-.16-.934-.183-2.21-.406-3.841-.406-.91 0-1.849.08-2.79.236-2.011.335-3.647 1.492-5.38 2.717-2.326 1.644-4.731 3.345-8.4 3.345-.16 0-.317-.006-.474-.013l-.041-.002-.042.003c-.09.008-.18.012-.273.012-3.669 0-6.074-1.7-8.4-3.345-1.733-1.225-3.37-2.382-5.381-2.717a17.042 17.042 0 0 0-2.79-.236c-1.63 0-2.908.25-3.84.432-.513.1-.957.186-1.247.186-.238 0-.243-.014-.293-.186-.148-.5-.256-.996-.36-1.476-.294-1.341-.546-2.5-1.574-2.659-6.573-1.015-7.63-2.37-7.796-2.76a.479.479 0 0 1-.04-.16c9.805-1.615 14.162-11.43 14.44-12.08.674-1.366.793-2.581.355-3.613-.777-1.828-3.083-2.56-4.608-3.045a14.73 14.73 0 0 1-.883-.298c-1.98-.782-2.59-1.57-2.5-2.049.106-.55 1.06-1.11 1.894-1.11.188 0 .352.03.473.086 1.354.635 2.59.956 3.674.956 1.704 0 2.463-.792 2.544-.883l.185-.207-.015-.276a171.45 171.45 0 0 0-.122-2.021c-.276-4.405-.622-9.883.727-12.91 4.084-9.156 12.74-9.862 15.296-9.862l1.173-.012h.15c2.525 0 11.224.678 15.323 9.868ZM45.667 13.316h-.165l-1.159.012c-1.497 0-4.492.212-7.71 1.632a17.175 17.175 0 0 0-4.917 3.26c-1.697 1.612-3.08 3.599-4.109 5.907-1.507 3.379-1.149 9.07-.862 13.645.032.497.065 1.008.094 1.506-.221.102-.58.21-1.108.21-.85 0-1.86-.273-3.003-.808a2.686 2.686 0 0 0-1.144-.236c-.68 0-1.397.2-2.02.566-.782.46-1.288 1.11-1.425 1.83-.09.476-.086 1.418.96 2.372.575.526 1.42 1.01 2.51 1.442.287.113.627.22.987.334 1.248.397 3.138.997 3.63 2.157.25.588.143 1.362-.318 2.297-.012.025-.024.05-.035.077-.115.269-1.19 2.702-3.393 5.269-1.253 1.46-2.632 2.68-4.098 3.627-1.789 1.156-3.725 1.912-5.753 2.246a1.58 1.58 0 0 0-1.321 1.647c.013.232.068.464.162.688.325.758 1.071 1.398 2.285 1.962 1.484.69 3.703 1.269 6.594 1.722.147.278.298.977.403 1.455.11.508.225 1.03.388 1.585.177.602.634 1.32 1.809 1.32.445 0 .957-.1 1.55-.215.868-.17 2.056-.403 3.538-.403.822 0 1.673.073 2.53.215 1.653.275 3.077 1.281 4.725 2.447 2.413 1.705 5.143 3.635 9.315 3.635.114 0 .228-.004.34-.011.139.006.31.011.49.011 4.173 0 6.903-1.93 9.313-3.635l.004-.003c1.648-1.164 3.071-2.169 4.723-2.444a15.51 15.51 0 0 1 2.53-.215c1.416 0 2.537.18 3.538.376.653.129 1.161.19 1.55.19l.039.001h.04c.858 0 1.49-.471 1.73-1.297.161-.543.275-1.053.388-1.57.098-.448.255-1.167.401-1.447 2.894-.455 5.112-1.033 6.595-1.722 1.212-.562 1.957-1.201 2.281-1.951.098-.225.154-.458.167-.696a1.58 1.58 0 0 0-1.321-1.647C68.4 59.174 64.339 49.911 64.171 49.517a1.128 1.128 0 0 0-.036-.076c-.46-.936-.567-1.709-.317-2.298.492-1.159 2.38-1.759 3.63-2.155.361-.114.702-.223.986-.335 1.23-.486 2.11-1.013 2.69-1.611.693-.714.827-1.397.819-1.845-.021-1.082-.849-2.044-2.165-2.515a3.872 3.872 0 0 0-1.468-.28c-.351 0-.872.047-1.364.277-1.055.494-2 .764-2.81.802a2.542 2.542 0 0 1-.93-.204c.024-.423.052-.856.08-1.309l.011-.193c.29-4.577.648-10.273-.86-13.655-1.033-2.316-2.42-4.308-4.124-5.923a17.22 17.22 0 0 0-4.936-3.26 19.632 19.632 0 0 0-7.707-1.621h-.003Z" fill="#020202" fill-rule="nonzero"/><path d="M.097.077h89.866v89.865H.097z"/></g></svg>