<svg viewBox="0 0 90 90" xmlns="http://www.w3.org/2000/svg"><g fill="none" fill-rule="evenodd"><path fill="#00B901" d="M0 0h90v90H0z"/><g fill-rule="nonzero"><path d="M77.625 41.042c0-14.665-14.706-26.598-32.766-26.598S12.094 26.377 12.094 41.042c0 13.138 11.652 24.148 27.401 26.237 3.838.823 3.396 2.23 2.532 7.393-.141.823-.663 3.234 2.832 1.768 3.496-1.467 18.864-11.11 25.755-19.025 4.74-5.223 7.011-10.506 7.011-16.373Z" fill="#FEFEFE"/><path d="M54 33.971h-2.29a.635.635 0 0 0-.643.643v8.478l-6.55-8.84c-.1-.18-.32-.28-.521-.28h-2.27a.635.635 0 0 0-.643.642v14.284c0 .361.281.643.643.643h2.29a.635.635 0 0 0 .642-.643V40.42l6.55 8.839c.1.14.301.261.522.261h2.29a.635.635 0 0 0 .643-.643V34.594a.635.635 0 0 0-.663-.623Zm-15.81-.021H35.9a.635.635 0 0 0-.643.644v14.283c0 .362.281.643.643.643h2.29a.635.635 0 0 0 .643-.643V34.594a.647.647 0 0 0-.643-.643Zm-5.525 11.975h-6.247V34.594a.635.635 0 0 0-.643-.643h-2.29a.635.635 0 0 0-.643.643v14.283c0 .181.06.322.18.442.12.1.261.181.442.181h9.181a.635.635 0 0 0 .643-.643v-2.29c0-.342-.281-.642-.623-.642Zm34.051-8.398a.634.634 0 0 0 .643-.643v-2.29c-.02-.342-.3-.643-.643-.643h-9.18a.647.647 0 0 0-.643.643v14.283c0 .342.28.643.643.643h9.18a.634.634 0 0 0 .643-.643v-2.29a.634.634 0 0 0-.643-.643H60.47v-2.41h6.247a.634.634 0 0 0 .643-.643v-2.31a.635.635 0 0 0-.643-.644H60.47v-2.41h6.247Z" fill="#00B901"/></g></g></svg>