<svg viewBox="0 0 90 90" xmlns="http://www.w3.org/2000/svg"><g fill="none" fill-rule="evenodd"><path fill="#FF8300" d="M0 0h90v90H0z"/><g fill-rule="nonzero"><path d="M73.533 6.4 16.067 2C8.333 2 2 8.333 2 16.067v57.466C2 81.333 8.333 87.6 16.067 87.6l57.466-4.4C81.4 82.8 87.6 76.867 87.6 69.133v-48.6c0-7.8-6-13.666-14.067-14.133Z" fill="#FFF"/><path d="M74.867 4.667 14.733 0C6.6 0 0 6.6 0 14.733v60.134C0 83 6.6 89.6 14.733 89.6l60.134-4.667c8.266-.4 14.733-6.6 14.733-14.733V19.4c0-8.2-6.267-14.267-14.733-14.733ZM69.4 25.733c-.4 1.067-.933 2.134-1.867 2.734-.933.6-2.466.666-4 .666-7.6 0-15.266-.266-22.933-.266-.733 3.533-1.533 7.066-2.267 10.6h14c3.6 0 7.267-.334 7.867 2.6.2.933 0 2.133-.267 3.066C59.4 47 58.667 48.467 56.8 49.067c-.933.266-2 .266-3.2.266-5.733 0-11.667.067-17.4.134-.867 3.866-1.6 7.733-2.467 11.6 7.8 0 15.267-.2 23.067-.267 3.133-.067 5.4.933 5 4.267-.133 1.333-.467 2.466-1.067 3.6-.533 1.066-1.266 1.866-2.4 2.266-1.2.4-2.666.334-4.266.4-1.534.067-3.067.067-4.6.067-1.534.067-3.067.133-4.6.133-6.267 0-12.067.4-18.334.334-3 0-5.066-1.267-5.6-3.8-.266-1.334-.066-2.867.2-4.2 2.667-12.934 5.4-25.8 8.134-38.667.266-1.333.533-2.533 1.133-3.533.867-1.534 2.133-2.6 3.933-3.067 1.867-.467 4.4-.267 6.667-.267 1.533 0 3.067.067 4.533.067 4.6.133 9.067.133 13.667.267 1.533.066 3.067.066 4.533.066 3.067 0 5.8.334 6.2 3.067.267 1.467-.133 2.867-.533 3.933Z" fill="#FF8300"/></g></g></svg>