<svg viewBox="0 0 90 90" xmlns="http://www.w3.org/2000/svg"><g fill="none" fill-rule="evenodd"><path fill="#3E2284" d="M0 0h90v90H0z"/><path d="M45 76c17.12 0 31-13.88 31-31 0-17.12-13.88-31-31-31-17.12 0-31 13.88-31 31 0 17.12 13.88 31 31 31Zm11.188-14.777a19.594 19.594 0 0 1-11.213 3.504c-10.881 0-19.702-8.832-19.702-19.727s8.82-19.727 19.702-19.727c10.881 0 19.702 8.832 19.702 19.727 0 2.432-.44 4.762-1.243 6.913-3.118-1.132-6.594-1.47-9.776-.706a10.74 10.74 0 0 0 2.012-6.278c0-5.953-4.82-10.78-10.765-10.78-5.946 0-10.766 4.827-10.766 10.78 0 5.954 4.82 10.78 10.766 10.78 1.37 0 2.68-.256 3.886-.724 3.017 1.75 5.618 4.263 7.397 6.238Zm10.258-2.675a25.496 25.496 0 0 1-5.151 5.89C59.099 61.54 54.66 57.163 49.76 54.37c4.527-3.394 11.541-1.223 16.686 4.178Z" fill="#FFF"/></g></svg>