<svg viewBox="0 0 90 90" xmlns="http://www.w3.org/2000/svg"><path d="M42.491 15.085c6.777-.452 13.684.905 19.745 3.942 8.992 4.395 16.16 12.28 19.483 21.586A37.677 37.677 0 0 1 84 53.473v16.222c0 .647 0 1.357-.13 2.004-.391 1.615-1.564 3.102-3.128 3.813-1.108.517-2.346.581-3.454.387-2.476-.452-4.43-2.779-4.43-5.299V55.477c.064-1.422.064-2.973-.718-4.2-1.238-2.327-4.366-3.426-6.777-2.456-2.085.71-3.584 2.843-3.649 5.04v15.317c0 .97.065 1.939-.26 2.844-.522 1.81-2.02 3.231-3.845 3.748-2.411.646-5.148-.388-6.32-2.585-.848-1.292-.783-2.908-.718-4.395V53.538c-.065-2.585-2.215-4.911-4.756-5.234-1.695-.259-3.454.323-4.692 1.486-1.108 1.034-1.694 2.52-1.694 4.007v14.8c0 1.227.13 2.52-.326 3.683-.717 2.133-2.867 3.684-5.148 3.62-2.346.129-4.627-1.487-5.343-3.62-.391-1.098-.326-2.197-.326-3.36V53.603c0-2.52-2.02-4.847-4.497-5.3-2.28-.452-4.756.647-5.93 2.715a5.881 5.881 0 0 0-.716 2.779v16.61c0 1.615-.717 3.23-1.955 4.265-1.89 1.615-4.952 1.744-6.907.258C6.847 73.96 6 72.28 6 70.535V53.732c0-6.333 1.63-12.667 4.692-18.29 2.476-4.588 5.93-8.66 10.035-11.89 6.06-5.042 13.814-8.015 21.764-8.467Z" fill="#5741D9"/></svg>