<svg viewBox="0 0 90 90" xmlns="http://www.w3.org/2000/svg"><g fill="none" fill-rule="evenodd"><path fill="#FFF" d="M0 0h90v90H0z"/><g fill-rule="nonzero"><path d="m76.453 32.494-.195-.176a17.962 17.962 0 0 0-10.738-4.88 20.618 20.618 0 0 0-20.11-16.304A20.346 20.346 0 0 0 29.108 19.1a20.832 20.832 0 0 0-3.808 8.376 17.845 17.845 0 0 0-10.738 4.96l-.214.194a17.747 17.747 0 0 0-5.31 12.281v.703a17.806 17.806 0 0 0 5.056 11.948l.273.293A17.845 17.845 0 0 0 25.32 63.01a20.559 20.559 0 0 0 40.18 0 17.923 17.923 0 0 0 10.992-5.174l.234-.254a17.689 17.689 0 0 0 5.018-12.046v-.684a17.864 17.864 0 0 0-5.291-12.358Z" fill="#FFF"/><path d="M85.513 44.774a19.665 19.665 0 0 0-5.858-13.666l-.215-.196a19.739 19.739 0 0 0-11.851-5.388A22.726 22.726 0 0 0 45.41 7.542a22.413 22.413 0 0 0-17.981 8.786 22.94 22.94 0 0 0-4.198 9.196A19.739 19.739 0 0 0 11.4 30.99l-.235.215a19.524 19.524 0 0 0-5.857 13.55v.78a19.524 19.524 0 0 0 5.584 13.18l.293.312a19.7 19.7 0 0 0 12.085 5.681 22.667 22.667 0 0 0 44.319 0 19.719 19.719 0 0 0 12.124-5.7l.254-.274a19.524 19.524 0 0 0 5.525-13.276v-.41c.017-.09.023-.182.02-.274ZM75.75 54.81a13.667 13.667 0 0 1-8.942 3.904 21.242 21.242 0 0 0-.898-4.822l.215-.312a8.395 8.395 0 0 0 6.208-2.675 9.469 9.469 0 0 0 3.105-6.424 7.48 7.48 0 0 0-2.07-5.681 11.87 11.87 0 0 0-6.58-2.694 8.337 8.337 0 0 0-6.618 2.596h-.195c-.176.176-.43.371-.586.547l2.148 1.66-9.587 3.221.684-10.094 2.499 1.953c3.201-5.3 1.633-12.182-3.548-15.57-5.18-3.39-12.115-2.069-15.687 2.988-3.572 5.056-2.5 12.033 2.425 15.783a30.106 30.106 0 0 0 5.857 2.988c4.237 1.698 8.63 2.362 12.144 5.505 6.637 5.943 7.415 16.06 1.763 22.946-5.652 6.887-15.726 8.098-22.849 2.748a16.185 16.185 0 0 1-5.857-15.17 10.22 10.22 0 0 1-3.67.605v.39-.488a15.619 15.619 0 0 1-10.153-3.904h-.117a13.434 13.434 0 0 1-4.12-9.762 13.668 13.668 0 0 1 3.905-9.548v.118a13.452 13.452 0 0 1 8.708-3.905 22.12 22.12 0 0 0 .84 4.647 8.337 8.337 0 0 0-5.643 2.694 8.239 8.239 0 0 0-2.714 5.681 8.825 8.825 0 0 0 2.206 6.17 8.942 8.942 0 0 0 6.033 2.694c2.365.08 4.66-.8 6.365-2.44h.117c.179-.153.348-.316.508-.489l-2.266-1.58 9.528-3.104-.625 10.055-2.616-1.953c-3.355 5.251-1.925 12.218 3.226 15.724 5.152 3.506 12.157 2.28 15.811-2.767 3.655-5.048 2.633-12.086-2.305-15.885-.53-.388-1.084-.74-1.66-1.055-4.998-2.596-10.933-3.377-15.619-6.774-7.031-5.753-8.195-16.062-2.624-23.238 5.571-7.176 15.847-8.603 23.163-3.217a16.927 16.927 0 0 1 6.697 15.15 15.248 15.248 0 0 1 4.393-.644 13.667 13.667 0 0 1 9.312 3.905h-.195a13.667 13.667 0 0 1 3.905 9.547 13.315 13.315 0 0 1-4.042 9.762l.02.215Z" fill="#00ADEF"/></g></g></svg>