<svg viewBox="0 0 90 90" xmlns="http://www.w3.org/2000/svg"><g fill="none"><path d="M45 45c0-7.732 6.268-14 14-14s14 6.268 14 14-6.268 14-14 14-14-6.268-14-14Z" fill="#1ABCFE"/><path d="M17 73c0-7.732 6.268-14 14-14h14v14c0 7.732-6.268 14-14 14s-14-6.268-14-14Z" fill="#0ACF83"/><path d="M45 3v28h14c7.732 0 14-6.268 14-14S66.732 3 59 3H45Z" fill="#FF7262"/><path d="M17 17c0 7.732 6.268 14 14 14h14V3H31c-7.732 0-14 6.268-14 14Z" fill="#F24E1E"/><path d="M17 45c0 7.732 6.268 14 14 14h14V31H31c-7.732 0-14 6.268-14 14Z" fill="#A259FF"/></g></svg>