<svg viewBox="0 0 90 90" xmlns="http://www.w3.org/2000/svg"><g fill="none" fill-rule="evenodd"><path fill="#F80000" d="M0 0h90v90H0z"/><path d="M55.19 43.658v-.144c5.158-1.552 8.686-5.288 8.686-10.942 0-9.108-7.775-12.567-15.319-12.567h-18.28V20H23v.745l2.566 2.18c3.08 2.508 3.481 2.996 3.481 5.263V70h18.024C56.528 70 66 66.608 66 55.732c0-6.42-4.53-11.37-10.81-12.074ZM37.955 27.632h7.343c4.967 0 6.505.684 8.011 2.112 1.142 1.085 1.667 2.576 1.672 4.312 0 1.614-.556 3.059-1.734 4.18-1.47 1.408-3.486 2.101-7.174 2.101h-8.118V27.632Zm8.192 34.74h-8.192V47.965H46.5c7.204 0 10.598 1.835 10.598 7.062 0 6.569-6.365 7.345-10.952 7.345Z" fill="#FFF" fill-rule="nonzero"/></g></svg>