<svg viewBox="0 0 90 90" xmlns="http://www.w3.org/2000/svg"><g fill="none" fill-rule="evenodd"><path fill="#003168" d="M0 0h90v90H0z"/><path d="M5.807 62.373c-.407.162-.637-.04-.502-.457l1.152-3.7a4.275 4.275 0 0 0 .15-1.547L4.14 33.339a.763.763 0 0 1 .177-.577.775.775 0 0 1 .541-.271l80.4-5.355a.68.68 0 0 1 .542.199.67.67 0 0 1 .19.54l-3.266 35.32a.836.836 0 0 1-.88.74l-68.312-4.36a4.055 4.055 0 0 0-1.545.255l-6.18 2.543Zm36.852-19.509c-.908 0-1.626.283-2.155.821v-3.794h-1.708v7.911c0 1.157.353 2.112 1.044 2.826.691.713 1.64 1.076 2.833 1.076 1.193 0 2.155-.363 2.846-1.076.691-.714 1.044-1.669 1.044-2.826v-.955c-.014-2.637-1.315-3.983-3.904-3.983Zm0 1.655c.719 0 1.26.175 1.627.538.366.364.555.97.555 1.803v.956c0 .7-.19 1.237-.582 1.654-.393.418-.908.606-1.6.606-.691 0-1.22-.202-1.586-.606-.365-.403-.569-.955-.569-1.654v-.97c0-.833.19-1.439.542-1.802.353-.363.908-.525 1.613-.525Zm12.402.242h-5.408v-4.897h-1.762V51.61h1.762v-5.14h5.408v5.14h1.775V39.864h-1.775v4.897Zm15.167-1.897c-.909 0-1.627.283-2.156.821v-3.794h-1.707v7.911c0 1.157.352 2.112 1.043 2.826.692.713 1.64 1.076 2.833 1.076 1.193 0 2.155-.363 2.846-1.076.692-.714 1.044-1.669 1.044-2.826v-.955c-.014-2.637-1.328-3.983-3.903-3.983Zm0 1.655c.718 0 1.26.175 1.626.538.366.364.556.97.556 1.803v.956c0 .686-.19 1.25-.583 1.654-.393.404-.922.606-1.6.606-.677 0-1.22-.202-1.585-.606-.366-.403-.57-.955-.57-1.654v-.97c0-.833.19-1.439.543-1.802.352-.363.908-.525 1.613-.525ZM35.76 47.721c0 .875-.135 1.507-.393 1.844-.257.336-.677.497-1.314.497h-.055c-.623 0-1.07-.174-1.314-.497-.258-.35-.393-.97-.393-1.844v-4.628H30.61v4.628c0 1.413.258 2.45.786 3.055.502.592 1.315.901 2.426.928h.393c1.112-.027 1.925-.336 2.426-.928.515-.62.787-1.642.787-3.055v-4.628H35.76v4.628Zm27.569 0c0 .875-.136 1.494-.393 1.844-.244.323-.678.497-1.302.497h-.08c-.624 0-1.072-.174-1.316-.497-.257-.35-.393-.97-.393-1.844v-4.628h-1.68v4.628c0 1.413.257 2.45.786 3.055.501.592 1.315.901 2.426.928h.407c1.111-.027 1.924-.336 2.426-.928.501-.592.786-1.642.786-3.055v-4.628h-1.68v4.628h.013Zm-41.15-2.475-4.106-1.36a1.689 1.689 0 0 1-.65-.376.65.65 0 0 1-.231-.457v-.27c0-.955.8-1.44 2.44-1.466h.149c1.64 0 2.48.43 2.575 1.305l.013.135h1.762v-.148c-.081-1.992-1.545-3.014-4.35-3.014h-.177c-2.751.027-4.133 1.103-4.133 3.189v.269a2.347 2.347 0 0 0 .542 1.52c.352.417.88.74 1.545.955l4.066 1.36c.691.228 1.03.605 1.03 1.17v.242c0 .498-.244.874-.745 1.17-.502.296-1.247.458-2.17.458-.92 0-1.64-.148-2.14-.458-.502-.309-.719-.672-.719-1.17v-.175h-1.748v.175a2.913 2.913 0 0 0 1.233 2.449c.813.592 1.938.901 3.375.901s2.602-.296 3.402-.901a2.88 2.88 0 0 0 1.233-2.45v-.241a2.721 2.721 0 0 0-.596-1.763 3.43 3.43 0 0 0-1.6-1.05Zm5.829 4.238c-.38-.404-.57-.955-.57-1.655v-3.014h1.83v-1.722h-1.83v-3.202h-1.707v7.938c0 1.157.352 2.112 1.043 2.825a3.61 3.61 0 0 0 2.332 1.05l.162.013v-1.641l-.122-.014a1.968 1.968 0 0 1-1.138-.578Zm45.69-6.862h.216v.619h.109v-.619h.216v-.08h-.542v.08Zm.989.417-.19-.498h-.163v.7h.095v-.579l.23.579h.068l.217-.579v.579h.109v-.7h-.177l-.19.498Z" fill="#FFF" fill-rule="nonzero"/></g></svg>