<svg viewBox="0 0 90 90" xmlns="http://www.w3.org/2000/svg"><defs><linearGradient x1="89.58%" y1="12.221%" x2="5.351%" y2="88.194%" id="a"><stop stop-color="#22C1DC" offset="0%"/><stop stop-color="#0566B0" offset="100%"/></linearGradient></defs><g fill="none" fill-rule="evenodd"><path fill="#000" d="M0 0h90v90H0z"/><path d="M44.035 63.017c.852-.575 1.198-1.438 2.05-1.438.852 0 4.403-.672 5.255 0 .852.671.937.095 1.363.095.426 0 1.677.224 1.677.224 1.09-.115.868-1.856.08-2.366-1.136-.895-2.666-1.47-3.802-2.366l-.34-2.59.937-1.343v-4.315l-.511-1.152-.17-3.26-.427-.576v-1.247c.284-.416.86-.831 1.144-1.247.085-.8-.296-1.363-.21-2.163-.2-1.023-.224-2.281-.423-3.304v-3.74c.824-.248 1.024-.615 1.083-.987.076-.479-.157-1.042-.401-2.18-.114-5.978-.169-12.192-.282-18.171.453-.715.996-1.084 1.008-1.614.008-.412-.432-.755-.982-1.22V6.81s.938-1.919 1.704-1.919c.767 0 1.278-.575 1.278-1.15.7-1.399-.766-1.535-.766-1.535-1.623-.034-3.462.05-5.045.016-1.396-.03-2.542-.178-3.901-.208l-1.79.096c-1.466.448-1.157 1.248-.596 1.695.681.432 1.263.926 2.045.943.954.02 1.713.334 2.045 1.294l.255 11.51c.029 2.83.115 5.66.143 8.49.029 2.829 0 5.658.027 8.488l.171 9.975s-.17 1.247-.426 1.535c-.256.288-.17 2.782-.17 2.782.943.826.743.71.085 1.822l-.17 7.385-.682 1.343s-2.453 1.446-2.453 2.693c0 0 .345 1.528 1.197.952ZM.525 72.75c.27-.217.99-.21 1.313-.361.474-.225.957-.519 1.243-.873.487-.607.191-2.012.773-3.156.559-4.828.726-11.225.167-13.376-.335-3.316.01-14.331.01-15.727.37-.671.51-.726.513-1.901 0-.46.308-1.174-.02-1.743-.474-.545-.33-2.676-.368-3.878-.055-1.788.076-1.773.57-3.394.187-.61.25-1.335 0-1.92-.403-.944-.986.148-.947-1.75.095-4.603.266-9.235.146-13.837.026-.41.705-.485.838-.873.169-.492.225-1.102 0-1.57-.128-.265-.84.08-1.05-.121C2.434 7.041.828 6.27.087 4.63-.2 3.994.263 2.587.872 2.283c1.008-.504 2.884.017 3.988-.174.593-.103.968-.458 1.57-.485 4.688-.207 9.512-.679 14.184-.213.748.074.994 1.401 1.676 1.73.934.452 2.3.355 3.016 1.126 1.148 1.235 1.972 2.252 2.118 3.964.178 2.1.537 4.48.52 6.093-.015 1.351-.419 2.57-1.018 3.733-.82 1.593-1.797 3.08-2.854 4.653-.61.906-1.695 1.748-1.95 2.782-.264 1.07 2.482.284 3.044 1.22.54.9-.46 1.955-.159 2.968.27.905 1.826.993 2.011 1.92.477 2.393-.575 4.923-.167 7.329.13.77 1.345.798 1.464 1.57.143 1.67.092 3.438.105 5.211.013 1.889.086 3.785.062 5.58-.046.677-.927 1.072-1.005 1.745-.21 1.79.402 3.813.008 5.57-.414 1.85-1.892 3.156-2.47 4.958-.499 1.56-.357 3.839-1.163 4.817-1.334.422-2.993 1.365-4.043 2.152-1.535 1.148-2.516 2.465-2.988 2.506-.6.537-1.868.178-2.611.457-.686.257-.75.835-1.473.74-.57-.073-.393-.55-.838-.928-.26-.222-.758-.236-1.006 0-1.504 1.217-.382.899-2.09.74-1.735-.161-5.113.377-7.226-.058-1.264-.261-1.5-.876-1.052-1.239Zm11.947-8.034-.336-7.503 1.006-1.397v-7.558c0-1.145-.159-2.29-.159-3.435-1.176-.979-.614-.965.335-2.094 0-1.105.265-1.997.265-3.102l-.335-2.792.503-1.396c0-1.4.158-2.532.158-3.932 0-1.314.038-1.754.277-1.672.24.082.68.688 1.483 1.465l1.833 1.772c1.129 1.091 2.228 1.19 1.77 2.978-.427 1.672.801 2.136.42 3.795-.292 1.268-.675 2.043-.59 2.828.05.472.27.947.778 1.535.47.543.626.51.346 1.178-.436 1.036-.807 1.64-.85 2.262-.057.799.376 1.166.756 2.578.31 1.155.281 1.92-.006 3.079l-1.021 4.121c-.039 1.04-.133 2.08-.206 3.12-.111 1.584-.321 1.625-1.417 2.757-.995 1.03-2.276 1.91-3.236 2.83-1.061.407-1.887.444-2.948.852l1.174-2.27Zm2.884-41.822c.264-.11.411-.413.796-1.163.497-.97 1.232-2.182 1.843-2.274 1.028-.153 1.564-.307 1.564-.307s.538-.102.354-1.436c-.184-1.333-.564-2.615-.23-2.974.335-.36.405-1.385.05-1.795-.356-.41-.694-.82-.12-1.385.575-.564.97-1.508-.401-1.354-1.372.153-1.355-.444-1.514-.854-.159-.41-1.655-.317-2.437-.362-.782.154-1.44.103-1.417.923.023.82-.108 4.775-.097 5.186.011.41.115 7.795.115 7.795.85.025 1.23.11 1.494 0Zm41.106 36.701c.085.488.117 1.25.606 1.313 1.417.185 3.36-.382 4.765-.12.555.102.586 1.054 1.095 1.3.418-.008 1.061.007 1.591 0 .408-.214.299-.967.696-1.2.49-.289 1.159-.398 1.691-.201.287.106-.104.864.2.9 2.479-.094 4.693.18 7.039 0 .468-.077-.009-.751.375-1.031.436-.32 1.518.237 1.591-.3.381-2.779-.213-5.881.046-8.673.083-.894.936-1.424 1.127-2.301.063-.292.411-.297.439-.585.096-1.002.079-2.217-.173-3.204-.334-.345-1.356-.47-1.691-.313-.378.28-.034 1.272-.288 1.669-.125.196-.572-.197-.696 0-.122.193.035.51.091.762.034.15.031.277-.091.338-.653.328-1.613-.45-2.189 0-.564.442.07 1.297-.408 1.833-.775.868-2.435 1.377-3.206 2.248-.918 1.036-.836 2.092-1.89 2.987-.825.699-2.228.772-3.228 1.18-1.159.475-1.712 1.348-2.916 1.688-.364.104-.808-.536-.697-.9.902-2.941 2.075-5.898 3.049-8.817.625-1.872.918-3.053 1.593-4.908.698-1.92 1.61-4.292 2.751-5.984.225-.333.974-.116 1.095-.5.298-.954-.26-2.036 0-3.001.192-.715.94-1.4 1.559-1.801.418-.27 1.086.106 1.27-.358.431-1.084.029-2.232.3-3.368.183-.764.705-1.233 1.038-1.945.44-.946.408-1.766.895-2.689.396-.75 1.23-1.801 1.47-2.616.329-1.12.059-1.669.166-2.831.029-.313.485-.486.497-.8.155-3.765.353-7.544.133-11.306-.018-.306-.702-.293-.696-.6.024-1.15.162-2.165.1-3.201-.013-.203.057-.369-.144-.377-3.115-.131-6.19-.06-9.306-.024-2.553.03-5.113-.176-7.66 0-.385.027-.73.094-.994.377-.254.272-.38.852-.365 1.224.067 1.672-.033 3.492 0 5.503.006.372.736.15.862.5.35.977.378 2.066.298 3.101-.025.333-.427.78-.419 1.114a57.75 57.75 0 0 0 .519 3.088c.12.431.489.767.597 1.201.128.519-.342 1.566.188 1.6.176.012.79.115 1.105 0 .405-.147-.149-.893 0-1.3.105-.288.648-.297.696-.6.263-1.647-.194-3.578.066-5.226.08-.502.365-1.033.796-1.3.366-.229 1.028.341 1.293 0 .367-.475.006-1.022.232-1.578a5.8 5.8 0 0 1 1.493-2.1c.587-.526 1.174-1.154 1.955-1.236 1.747-.182 3.836-.019 6.201-.121.222-.01.282.333.299.556.083 1.097.282 2.588 0 3.301-.41 1.036-1.337 2.192-2.277 3.268-.644.736-1.295 1.387-1.791 2.124-.595.884.294 2.09-.01 3.112-.313 1.046-1.165 2.158-1.825 3.025-.542.711-1.338 1.076-1.845 1.812-.634.919-1.003 1.823-1.404 2.867-.333.868-.547 1.783-.696 2.701-.118.725.227 1.545-.1 2.201-.239.481-.778.393-1.126.8-.482.567-.765 1.293-.995 2.002-.272.84-.294 1.336-.719 2.109-.477.867-1.433 1.704-1.867 2.593-.473.97-.527 2.148-.763 3.201-.23 1.02-.42 1.979-.63 3.002-.256 1.252-.523 2.524-.497 3.802.008.388.417.656.597 1 .152.29.501.589.398.9-.141.426-.932.457-.995.9-.065.46.051.883.386 1.202.291.276.885.156 1.094.5.225.37.185.908 0 1.3-.153.327-.692.247-.762.6-.286 1.44.065 2.465-.188 3.91-.061.35-.857.351-.796.701ZM29.37 73.971c-.413.01-1.085.335-1.481.218-.433-.127-1.115-.99-.844-1.354 1.057-1.418 3.14-1.595 4.105-3.076.568-.87.036-2.044.28-3.056.075-.311.616-.282.777-.559.13-.224.168-.583 0-.78-.385-.452-.629.495-.78-.858a17.973 17.973 0 0 1-.053-3.647c.07-.77.626-.607.731-1.014.196-.756-.211-1.316-.01-2.07.09-.34.715-.254.888-.56.165-.29.185-.724 0-1.003-.378-.57-1.405-.562-1.52-1.237-.21-1.243-.097-2.577-.076-3.81.023-1.313-.066-2.63.043-3.968.02-.248.579-.238.665-.471.169-.453.062-.971 0-1.45-.05-.385.068-1.172.04-1.56-.046-.594-.3-.814-.025-1.342.191-.368.816-.147.873-.558.304-2.174-.344-4.402-.11-6.585.039-.37.617-.31.715-.67.156-.578.205-1.243-.05-1.785-.12-.256-.687-.257-.71-.539-.249-3.189.185-6.204-.067-9.393-.023-.299-.753.12-.766-1.176-.015-1.358-.14-2.625-.121-3.623.014-.766 1.657-.787 1.64-1.553-.027-1.167.156-2.485-.111-3.683-.086-.385-.586-.321-.753-.679-.157-.336-.009-.67.135-1.014.173-.412.642-.673.753-1.106.203-.792.183-1.658 0-2.455-.06-.261-.508-.516-.632-.753-.23-.438-.127-.825-.434-1.213-.213-.267-.841-.103-1.1-.325-.666-.572-1.05-1.208-1.61-1.73-.524-.489-1.232-.858-1.637-1.578-.26-.463.043-1.264.463-1.587.323-.248.829-.192 1.187 0 .291.156.286.779.613.825 1.43.2 2.85-.433 4.26-.122.614.136.647.917 1.22 1.179.383.175 1.074-.163 1.423.074.512.348.946 1.088 1.35 1.501.519.532.966.769 1.231 1.521.335.95.188 1.926.173 2.914-.013.872.129 1.756.049 2.642-.027.298-.596.157-.675.446-.14.507-.04 1.074.222 1.528.19.332.705.163.83.524.289.845.325 1.88.11 2.747-.08.323-.699.115-.719.446-.249 4.197-.311 8.43.111 12.61.072.712 1.19.965 1.264 1.675.42 3.958.038 7.964-.125 11.941-.023.566-.302 1.277-.53 1.699-.257.471-.098.943-.088 1.463.012.67-.067 1.4.034 2.083.058.39.847.762.82 1.156-.074 1.085.079 1.597.145 2.667.032.515-.9.837-1.196 1.258-.213.303-.343.89-.17 1.218.164.309.458.152.55.49.132.477.143.88-.096 1.315-.154.279-.723.242-.776.557-.152.883.347 1.792.221 2.68-.037.265-.626.18-.665.445-.198 1.324.223 2.697 0 4.018-.085.498-.852.723-.888 1.227-.02.282.644.086.777.335.21.395-.316 1.214.11 1.34 1.42.417 3.177.31 4.608-.068.81-.215 1.153-1.357 1.987-1.437 1.006-.095 1.747.572 2.74.751 1.31.238 2.744.28 4.029-.067.758-.206 1.199-1.016 1.978-1.12 3.372-.456 6.5-.176 9.903-.194 3.217-.017 7.333-.18 9.721.082 1.363.046-.115 4.892.377 7.452.107.557.58.87.864 1.385.454.822.63 1.24-.548 1.236-2.216-.011-4.458.16-6.863.058-.472-.02-.45-.935-.887-1.116-.48-.198-1.05.234-1.554.112-.755-.184-1.607-.912-2.378-1.004-2.056-.249-4.129.27-6.18-.015-.465-.065-.53-.97-.998-1.005-4.795-.353-9.39.153-14.19-.11-1.028-.056-1.121-.417-1.774-.608-.923-.268-2.575-.375-3.444.035-1.621.763-1.616 2.206-3.305 2.803-1.263.446-2.737.001-4.076.03Z" transform="translate(5 8)" fill="url(#a)"/></g></svg>