<svg viewBox="0 0 90 90" xmlns="http://www.w3.org/2000/svg"><g fill="none" fill-rule="evenodd"><path fill="#574460" d="M0 0h90v90H0z"/><path d="M64.996 28.806c-.561-.418-.842-.975-.982-1.672C63.172 17.522 55.032 10 45.068 10c-9.964 0-18.104 7.522-18.946 17.274 0 .696-.42 1.253-.982 1.671C20.228 32.288 17 38 17 44.408c0 8.776 6.035 16.16 14.174 18.249 1.404.418 2.807.557 3.369.278.982-.557 2.245-5.293 1.683-6.268-.28-.557-1.683-1.115-3.087-1.393-4.771-1.254-8.28-5.573-8.28-10.727 0-2.925 1.123-5.433 2.947-7.522.842-.836 1.824-1.672 2.807-2.229 2.105-1.114 3.228-3.343 3.228-5.712 0-1.253.14-2.368.561-3.482 1.403-4.458 5.754-7.662 10.666-7.662 4.912 0 9.262 3.204 10.666 7.662.42 1.114.561 2.229.561 3.482 0 2.369 1.263 4.458 3.228 5.712 1.123.557 1.965 1.393 2.807 2.229a10.971 10.971 0 0 1 2.947 7.522c0 6.13-5.052 11.144-11.227 11.144-7.158 0-12.912 5.851-12.912 12.956v7.383c0 1.393.14 2.925.562 3.343.842.836 5.754.836 6.596 0 .42-.418.561-1.81.561-3.343v-7.523a4.975 4.975 0 0 1 1.474-3.552 5.05 5.05 0 0 1 3.578-1.463c10.526 0 19.087-8.497 19.087-18.945.14-6.547-3.088-12.259-8-15.741Z" fill="#72EF36" fill-rule="nonzero"/></g></svg>