<svg viewBox="0 0 90 90" xmlns="http://www.w3.org/2000/svg"><g fill="none" fill-rule="evenodd"><path fill="#FFF" d="M0 0h90v90H0z"/><path d="m51.562 54.996 14.008-4.51c3.414 1.45 7.568 1.402 11.349-.486 6.59-3.292 9.54-10.9 6.595-16.994a10.936 10.936 0 0 0-1.224-1.967l-1.31-15.572c-.19-2.252-2.133-3.925-4.34-3.737-2.214.185-3.852 2.163-3.661 4.415l.716 10.329L67.17 9.305c-.784-2.119-3.103-3.188-5.178-2.392-2.076.792-3.12 3.152-2.336 5.268l5.772 15.54-12.703-16.71c-1.361-1.786-3.885-2.118-5.633-.736-1.754 1.378-2.073 3.948-.712 5.739l12.523 16.472L44.509 22.21a3.965 3.965 0 0 0-5.592.999c-1.27 1.85-.826 4.4.993 5.699l18.17 12.97c.22.157.452.287.69.395.116.56.274 1.112.477 1.66l-10.126 3.26c-2.113.68-3.28 2.978-2.604 5.135.673 2.152 2.932 3.347 5.045 2.667ZM34.22 80.261c3.956-1.477 6.854-4.499 8.179-8.012l12.877-7.19c1.944-1.084 2.651-3.569 1.581-5.553-1.067-1.98-3.51-2.707-5.456-1.625l-9.306 5.197a11.43 11.43 0 0 0-.854-1.498c.087-.249.155-.51.193-.782l3.304-22.31c.33-2.234-1.182-4.321-3.376-4.663-2.194-.343-4.238 1.19-4.569 3.424L34.18 54.925 31.087 34.35c-.335-2.236-2.386-3.774-4.577-3.439-2.194.336-3.699 2.42-3.363 4.654l3.133 20.872-7.087-14.967c-.963-2.037-3.366-2.897-5.36-1.921-2 .979-2.835 3.424-1.872 5.458l7.727 16.65-6.862-7.658a3.97 3.97 0 0 0-5.672-.354c-1.656 1.496-1.81 4.082-.333 5.776l10.184 11.706c.11.76.29 1.513.56 2.254 2.309 6.376 9.768 9.455 16.655 6.881Z" fill="#ED1C24" fill-rule="nonzero"/></g></svg>