<svg viewBox="0 0 90 90" xmlns="http://www.w3.org/2000/svg"><g fill="none" fill-rule="evenodd"><path fill="#00C2B3" d="M0 0h90v90H0z"/><path d="m57.166 9-3.267 30.851-5.57-26.01-17.567 3.67 5.517 26.01L11 48.841l4.499 20.744L60.004 79 70.18 56.394 75 10.862 57.166 9ZM43.08 53.787c-.91.851-2.088.745-3.427.32-1.286-.426-1.821-1.916-1.393-3.83.375-1.383 2.035-1.596 2.946-1.596.321 0 .643.053.964.213.589.266 1.607.85 1.82 1.702.322 1.276 0 2.34-.91 3.191Zm12.907 1.383c-.696 1.17-2.41 1.33-4.177.479-1.178-.585-1.178-1.968-1.018-2.872.054-.48.268-.958.59-1.33.428-.532 1.124-1.224 1.874-1.224 1.339-.053 2.41.532 3.053 1.596.642 1.064.321 2.234-.322 3.351Z" fill="#FFF" fill-rule="nonzero"/></g></svg>