<svg viewBox="0 0 90 90" xmlns="http://www.w3.org/2000/svg"><g fill="none"><path d="M63.259 37C58.95 18.23 50.028 13.308 47.874 9.923c-1.23-1.538-1.846-3.385-2.77-4.923 0 1.538-.307 2.77-1.538 4C40.49 11.462 28.49 21.308 27.26 42.538c-.923 20 14.769 32 16.923 33.231 1.538.923 3.692 0 4.615-.615C56.182 69.924 66.643 56.384 63.26 37" fill="#10AA50"/><path d="M45.72 65c-.615 4.923-.923 7.692-1.846 10.462 0 0 .616 4.615 1.23 9.538h1.54l1.846-10.154c-2.154-1.23-2.77-5.538-2.77-9.846Z" fill="#B8C4C2"/><path d="M48.797 75.154c-2.154-1.23-2.769-5.846-2.769-9.846.615-7.077.615-14.154.615-21.539-.307-3.692 0-34.154-.923-38.769.616 1.538 1.231 3.077 2.154 4.308C50.028 13 58.951 17.923 63.26 36.692c3.384 19.385-6.77 33.231-14.462 38.462Z" fill="#12924F"/></g></svg>