<svg viewBox="0 0 90 90" xmlns="http://www.w3.org/2000/svg"><g fill="none" fill-rule="evenodd"><path fill="#FFF" d="M0 0h90v90H0z"/><path d="M19 23v44a1 1 0 0 0 1 1h28a1 1 0 0 0 1-1V23a1 1 0 0 0-1-1H20a1 1 0 0 0-1 1Zm-4-6h38a1 1 0 0 1 1 1v54a1 1 0 0 1-1 1H15a1 1 0 0 1-1-1V18a1 1 0 0 1 1-1Z" fill="#1E4356" fill-rule="nonzero"/><g transform="translate(24 37)" fill="#1E4356"><rect x="35" y="31" width="18" height="5" rx=".5"/><path d="M.955 19.018C.45 17.491.2 15.562.2 12.97c0-2.594.25-4.527.755-6.05C2.363 2.546 6.095.157 10.98.157c3.628 0 6.501 1.475 8.418 3.814.148.202.198.506-.05.71l-3.174 2.796c-.253.205-.504.154-.707-.1-1.211-1.372-2.47-2.136-4.486-2.136-2.166 0-3.828 1.068-4.535 3.203-.4 1.223-.503 2.645-.503 4.525 0 1.881.102 3.354.503 4.575.706 2.083 2.369 3.15 4.535 3.15 2.015 0 3.275-.762 4.486-2.131.203-.258.454-.258.707-.054l3.173 2.797c.25.202.2.457.051.712-1.916 2.289-4.789 3.762-8.418 3.762-4.886-.002-8.618-2.393-10.026-6.763Z" fill-rule="nonzero"/></g></g></svg>