<svg viewBox="0 0 90 90" xmlns="http://www.w3.org/2000/svg"><g fill="none" fill-rule="evenodd"><path fill="#1B2030" d="M0 0h90v90H0z"/><g fill-rule="nonzero"><path d="M10.154 31.75c0-2.516 1.782-4.575 4.647-4.575 3.015 0 4.632 2.16 4.632 4.697 0 2.79-2.043 4.482-4.61 4.482-2.796 0-4.67-1.907-4.67-4.604Zm.024 8.425c0-.428.24-.738.72-.738h7.827c.414 0 .687.328.687.731v12.001c0 2.046 1.165 4.426 4.761 4.426 3.502 0 5.314-2.179 5.314-6.628v-.935l3.718 7.076.48 2.399s-3.648 3.526-10.26 3.526c-3.281 0-13.247-.538-13.247-11.442V40.175Z" fill="#00BECA"/><path d="M29.487 49.3V32.123c0-1.382.891-2.579 4.607-2.579 3.967 0 4.485 1.508 4.507 2.684v7.21h7.196c.52 0 .72.304.72.785v4.253c0 .402-.164.72-.636.72h-4.76c-.803 0-1.627-.204-2.105-.345l-.195-.06a6.262 6.262 0 0 1-.22-.076v2.879l-.001.12h.002v1.679c0 4.038 1.959 7.146 7.028 7.146 4.623 0 7.877-2.62 7.877-6.683 0-2.065-1-3.704-1-3.704l5.244 2.618.46 6.38s-3.493 6.848-13.336 6.848c-7.686 0-11.19-3.49-11.19-3.49l-.046-.036c-.453-.368-4.152-3.54-4.152-9.17Z" fill="#FFF"/><path d="M52.002 45.365c-.373-.697-.657-1.12-.657-1.948.005-1.217.637-2.097 2.782-3.44.464-.305 2.134-.97 3.487-.97.888 0 1.666.448 2.231 1.362l.024.041s2.28 3.325 8.09 14.02c3.69-6.708 6.043-14.724 6.043-14.724.165-.548.602-.681 1.236-.514l3.982 1.23c.484.173.746.364.474 1.263-3.313 9.64-8.5 17.593-8.5 17.593-.999 1.48-2.016 2.736-5.386 2.736-2.72 0-3.667-.926-4.614-2.34L58.21 55.15l-6.208-9.784Z" fill="#8E9598"/></g></g></svg>