<svg viewBox="0 0 90 90" xmlns="http://www.w3.org/2000/svg"><g fill="none" fill-rule="evenodd"><path fill="#FFF" d="M0 0h90v90H0z"/><path d="M30.92 12c.22 0 .44.22.44.44v32.78c0 7.48 6.16 13.64 13.64 13.64 1.32 0 3.08-.22 4.4-.22.66 0 1.32.44 1.32 1.32v17.16c0 .22-.22.44-.44.44-1.76.22-3.52.44-5.28.44-18.26 0-33-14.74-33-33V12.22l.057-.057.106-.106.057-.057ZM45 12c18.26 0 33 14.74 33 33 0 13.2-7.92 24.64-19.36 29.7 0 0-.22 0-.22-.22v-29.7l-.004-.31c-.167-7.34-6.26-13.33-13.636-13.33 0 0-3.74.22-4.4.22-.66.22-1.32-.44-1.32-1.32V12.88c0-.22.22-.44.44-.44 1.76-.22 3.74-.44 5.5-.44Z" fill="#252C36" fill-rule="nonzero"/></g></svg>