<svg viewBox="0 0 90 90" xmlns="http://www.w3.org/2000/svg"><g fill="none" fill-rule="evenodd"><path fill="#FFF" d="M0 0h90v90H0z"/><path d="M16.287 35.255h-6.29l-1.218 3.47H5l6.722-16.527h2.942L21.386 38.7h-3.881l-1.218-3.445Zm-5.301-2.771h4.312l-2.181-6.116-2.131 6.116Zm17.45-6.466c.711 0 1.32.1 1.853.275.532.174.989.424 1.37.699V21h3.449v11.16c0 1.023-.152 1.947-.457 2.796a6.402 6.402 0 0 1-1.319 2.147 6.062 6.062 0 0 1-2.105 1.398c-.837.324-1.75.499-2.79.499a6.887 6.887 0 0 1-2.638-.5 5.959 5.959 0 0 1-2.08-1.397 6.452 6.452 0 0 1-1.37-2.072 6.6 6.6 0 0 1-.482-2.547c0-.924.178-1.772.508-2.546a6.37 6.37 0 0 1 3.5-3.42 6.492 6.492 0 0 1 2.562-.5Zm.052 10.036c.507 0 .963-.1 1.37-.275a3.48 3.48 0 0 0 1.065-.724c.304-.324.532-.699.684-1.123.153-.45.254-.924.254-1.448 0-1.048-.304-1.922-.938-2.546-.61-.65-1.446-.974-2.46-.974-1.015 0-1.852.324-2.461.974-.609.649-.939 1.498-.939 2.546 0 .524.077 1.024.254 1.448a3.09 3.09 0 0 0 1.75 1.847c.457.2.913.275 1.42.275Zm15.168-10.036c.71 0 1.319.1 1.851.275.533.174.99.4 1.37.699V21h3.45v11.16c0 1.023-.153 1.947-.457 2.796a6.402 6.402 0 0 1-1.319 2.147 6.062 6.062 0 0 1-2.105 1.398c-.837.324-1.75.499-2.79.499a6.887 6.887 0 0 1-2.638-.5 5.959 5.959 0 0 1-2.08-1.397 6.452 6.452 0 0 1-1.37-2.072 6.6 6.6 0 0 1-.482-2.547c0-.924.178-1.772.508-2.546a6.37 6.37 0 0 1 3.5-3.42c.76-.325 1.649-.5 2.562-.5Zm.05 10.036c.508 0 .964-.1 1.37-.275a3.48 3.48 0 0 0 1.065-.724c.305-.324.533-.699.685-1.123.152-.45.254-.924.254-1.448 0-1.048-.304-1.922-.939-2.546-.608-.65-1.445-.974-2.46-.974s-1.852.324-2.46.974c-.61.649-.939 1.498-.939 2.546 0 .524.076 1.024.254 1.448a3.09 3.09 0 0 0 1.75 1.847c.457.2.913.275 1.42.275ZM52.888 21h3.45v3.395h-3.45V21Zm0 5.318h3.45v12.407h-3.45V26.318Zm12.049 7.09a4.34 4.34 0 0 1-.635.05h-1.775V38.7h-3.45V21h3.45v9.587h.913c1.09 0 1.979-.375 2.638-1.124.685-.749 1.065-1.797 1.167-3.17h3.297a7.678 7.678 0 0 1-.735 3.32 6.833 6.833 0 0 1-1.979 2.472l3.88 6.615h-3.753l-3.018-5.292ZM78.329 39c-.938 0-1.8-.175-2.612-.5a6.413 6.413 0 0 1-2.131-1.397 6.59 6.59 0 0 1-1.42-2.072 6.435 6.435 0 0 1-.508-2.547c0-.924.178-1.772.508-2.546a6.096 6.096 0 0 1 1.42-2.048 7.222 7.222 0 0 1 2.13-1.373 6.946 6.946 0 0 1 2.613-.499c.939 0 1.801.175 2.613.5a6.757 6.757 0 0 1 2.13 1.372c.609.575 1.066 1.249 1.42 2.048.33.774.508 1.622.508 2.546a6.45 6.45 0 0 1-.507 2.547 6.457 6.457 0 0 1-1.42 2.072c-.61.599-1.32 1.048-2.131 1.398a6.958 6.958 0 0 1-2.613.499Zm0-2.946c.507 0 .964-.1 1.37-.275a3.48 3.48 0 0 0 1.065-.724c.304-.324.533-.699.685-1.123.152-.45.254-.924.254-1.448 0-1.048-.305-1.922-.939-2.546-.609-.65-1.446-.974-2.46-.974-1.015 0-1.852.324-2.46.974-.61.649-.94 1.498-.94 2.546 0 .524.077 1.024.255 1.448a3.081 3.081 0 0 0 1.75 1.847c.482.2.938.275 1.42.275ZM16.967 49.95c0 .725-.15 1.375-.477 1.925-.326.575-.777 1-1.405 1.275.753.25 1.33.675 1.807 1.3.451.625.677 1.4.677 2.325 0 .725-.125 1.375-.401 1.975a5.044 5.044 0 0 1-1.13 1.575c-.476.45-1.053.775-1.73 1.025-.678.25-1.405.35-2.183.35H5V45.2h6.699c.802 0 1.53.1 2.182.325.652.225 1.204.55 1.656.95a4.52 4.52 0 0 1 1.054 1.5c.25.6.376 1.25.376 1.975Zm-8.63 2.025h3.086c.727 0 1.279-.175 1.63-.525.377-.35.552-.85.552-1.475 0-.575-.2-1.05-.577-1.375-.376-.35-.928-.525-1.605-.525H8.337v3.9Zm0 2.8v4.05h3.512c.728 0 1.305-.175 1.731-.55.427-.35.652-.85.652-1.475 0-.675-.2-1.175-.627-1.525-.401-.325-1.003-.5-1.756-.5H8.337Zm20.773 6.95V60.45c-.377.475-.878.85-1.506 1.125-.627.275-1.38.425-2.283.425-.878 0-1.68-.15-2.408-.475-.753-.325-1.38-.75-1.907-1.325a6.776 6.776 0 0 1-1.28-2.05c-.3-.8-.45-1.675-.45-2.65 0-.925.175-1.775.5-2.55a6.424 6.424 0 0 1 1.38-2.05c.578-.575 1.28-1.025 2.083-1.375.803-.325 1.68-.5 2.61-.5.952 0 1.83.15 2.633.475a6.233 6.233 0 0 1 2.083 1.35 6.207 6.207 0 0 1 1.354 2.075c.327.8.477 1.675.477 2.625v6.175H29.11Zm-3.262-9.775c-1.003 0-1.831.325-2.433.975-.602.65-.929 1.5-.929 2.55 0 .525.076 1.025.251 1.45a3.056 3.056 0 0 0 1.731 1.85c.402.175.853.275 1.355.275s.953-.1 1.355-.275a3.44 3.44 0 0 0 1.054-.725c.3-.325.526-.7.677-1.125.15-.45.25-.925.25-1.45 0-1.05-.3-1.925-.927-2.55-.552-.65-1.355-.975-2.384-.975Zm15.103.1c-.828 0-1.455.25-1.932.75-.476.5-.702 1.2-.702 2.05v6.85h-3.412v-6.85c0-.9.15-1.7.426-2.425a4.842 4.842 0 0 1 1.205-1.825c.526-.5 1.154-.9 1.906-1.175.753-.275 1.58-.4 2.51-.4.927 0 1.755.125 2.508.4.753.275 1.38.65 1.907 1.175.526.5.928 1.125 1.204 1.825.276.725.426 1.525.426 2.425v6.875h-3.412v-6.85c0-.875-.225-1.55-.702-2.05-.477-.525-1.129-.775-1.932-.775Zm14.3 4.375c-.175.025-.376.05-.602.05h-1.731v5.25h-3.412V44h3.412v9.6h.903c1.08 0 1.957-.375 2.61-1.125.677-.75 1.053-1.8 1.154-3.175h3.261c0 1.2-.226 2.3-.703 3.3-.476 1-1.103 1.825-1.931 2.475L62 61.725h-3.763l-2.986-5.3Z" fill="#FF3553" fill-rule="nonzero"/></g></svg>