<svg viewBox="0 0 90 90" xmlns="http://www.w3.org/2000/svg"><g fill="none"><path fill="#0051BA" d="M0 0h89.886v89.886H0z"/><path d="M10.027 39.02h8.236s-.22.332-.22.748v10.198c0 .554.247 1.025.247 1.025H10s.247-.471.247-.942V39.85c0-.388-.22-.831-.22-.831Zm12.336.027h7.83s-.22.355-.22.683v3.659l2.776-3.413s.165-.246.165-.492v-.382h7.968l-3.38 4.533s-.165.19-.165.327.138.328.138.328l4.341 6.635h-9.59s.166-.245.166-.491c0-.245-.166-.546-.166-.546l-2.28-3.577v3.878c0 .327.247.764.247.764h-7.83s.22-.3.22-.628V39.729c0-.327-.22-.682-.22-.682Zm21.786.083h14.007v3.62s-.302-.269-.686-.269h-5.74v.992h4.998v3.19s-.33-.268-.686-.268h-4.367v1.1h5.877c.33 0 .522-.51.522-.51v3.968H44.15s.247-.349.247-.59V40.015c0-.43-.247-.885-.247-.885ZM64.354 39h11.2s-.22.499-.22.776.192.776.192.776L80 50.972h-8.4s.192-.305.082-.554c-.231-.553-.46-1.108-.686-1.663h-3.458s-.687 1.469-.687 1.746c0 .277.22.499.22.499h-6.918l4.338-10.892s.165-.222.165-.498c0-.277-.302-.61-.302-.61Zm4.748 5.321-.823 2.134h1.811l-.988-2.134Z" fill="#F8D517"/></g></svg>