<svg viewBox="0 0 90 90" xmlns="http://www.w3.org/2000/svg"><defs><linearGradient x1="2.412%" y1="1.195%" x2="100%" y2="99.131%" id="a"><stop stop-color="#FFAD01" offset="0%"/><stop stop-color="#FFAD01" offset="100%"/></linearGradient></defs><g fill="none"><path fill="url(#a)" d="M0 0h90v90H0z"/><g fill="#FFF"><path d="M44.955 11.402c18.439 0 33.54 15.125 33.54 33.565 0 18.415-15.101 33.541-33.54 33.541-18.44 0-33.541-15.102-33.541-33.541 0-18.44 15.102-33.565 33.54-33.565Zm-.024 1.941c-8.876 0-17.516 3.859-23.481 10.463-5.184 5.752-8.095 13.373-8.095 21.138 0 8.876 3.834 17.516 10.438 23.457 5.776 5.208 13.398 8.12 21.138 8.12 8.877 0 17.516-3.835 23.458-10.44 5.208-5.775 8.12-13.397 8.12-21.137 0-8.9-3.836-17.54-10.44-23.482-5.776-5.184-13.373-8.119-21.138-8.119Z"/><path d="m15.887 36.304.734-1.302 3.787 1.917.829-1.444 14.604 8.237-.378.687-8.498-4.143c3.267 2.912 7.29 6.013 11.883 6.013 5.302 0 9.563-4.19 11.882-8.616 1.208-.095 2.415-.19 3.646-.19 6.178 0 12.592 1.207 18.535 2.935l2.035.592.544.142-1.775 1.538c-5.278-1.514-10.722-2.698-16.214-3.03l-.616.876c4.475.308 8.948 1.09 13.28 2.225l1.538.403 1.113.284-1.775 1.514c-5.09-1.372-10.368-2.343-15.67-2.366l-.544.686c5.231.19 10.32 1.136 15.409 2.344l-1.657 1.396c-5.018-1.042-10.06-1.68-15.196-1.752l-.52.71h1.017c4.19 0 8.427.616 12.522 1.468l1.373.308-1.729 1.444c-3.076-.592-6.201-.971-9.35-.971-4.118 0-8.355.758-12.095 2.533 4.45 4.924 10.58 9.018 17.445 9.018h.07l-2.224 2.51c-8.332-2.533-16.001-6.746-23.102-11.741-3.906-2.746-7.528-5.918-11.457-8.64-2.722-1.87-5.492-3.574-8.427-5.065l-1.019-.52Z"/></g></g></svg>