<svg viewBox="0 0 90 90" xmlns="http://www.w3.org/2000/svg"><g fill="none" fill-rule="evenodd"><path fill="#F7F7F7" d="M0 0h90v90H0z"/><path d="M45.5 9C65.658 9 82 25.342 82 45.5S65.658 82 45.5 82 9 65.658 9 45.5 25.342 9 45.5 9Z" fill="#C73A24" fill-rule="nonzero"/><path d="M45.5 18C30.312 18 18 30.312 18 45.5S30.312 73 45.5 73 73 60.688 73 45.5 60.688 18 45.5 18Z" fill="#C03823" fill-rule="nonzero"/><path d="M35.7 66.207 21 33l9.966-1.947 4.502 12.503c1.396 3.902 2.912 8.424 4.167 11.872l.103-.02c-.246-4.02-.337-8.338-.386-12.718l-.27-13.223 9.914-1.937 4.757 12.989c1.387 3.85 2.538 7.32 3.76 11.149l.103-.02c-.236-3.97-.42-8.216-.593-12.411L56.6 26.045l9.4-1.838-1.79 36.43-10.12 1.978-4.95-13.164c-1.103-2.943-2.195-6.102-3.458-10.138l-.102.02c.234 4.237.401 7.576.385 10.791l.01 14.076L35.7 66.207Z" fill="#FFF"/></g></svg>