<svg viewBox="0 0 90 90" xmlns="http://www.w3.org/2000/svg"><g fill="none" fill-rule="evenodd"><path fill="#FFF" d="M0 0h90v90H0z"/><g fill-rule="nonzero"><path d="M85.867 36.035a25.145 25.145 0 0 1 1.977-.018c-1.977 4.111-3.884 8.257-5.809 12.385h-1.612c-.884-2.073-1.925-4.094-2.844-6.167a35.748 35.748 0 0 1 1.925 0c.555 1.279 1.214 2.505 1.717 3.783 1.543-3.333 3.138-6.65 4.646-9.983Z" fill="red"/><path d="M36.227 37.796c1.265.018 2.548.018 3.814 0a110.177 110.177 0 0 0 0 3.386c-1.266-.017-2.549 0-3.832-.017.035-1.123 0-2.246.018-3.369Zm-19.194 4.837c2.6-1.468 6.38-.968 8.132 1.572 1.075 1.502 1.387 3.402 1.37 5.199-2.983.017-5.965 0-8.948.017.14.915.538 1.883 1.388 2.366 1.213.708 3.12.501 3.727-.898a65.2 65.2 0 0 1 3.676 0c-.381 1.4-1.404 2.591-2.687 3.247-1.387.76-3.052.899-4.595.64-1.63-.26-3.138-1.175-4.057-2.54-1.006-1.45-1.266-3.299-1.04-5.009.225-1.882 1.352-3.662 3.034-4.594Zm2.028 2.159c-.85.397-1.265 1.313-1.456 2.193h5.097c-.104-.673-.346-1.381-.867-1.848-.728-.708-1.89-.725-2.774-.345Zm37.955-2.816c2.046-.362 4.317.07 5.895 1.486 2.687 2.383 2.809 6.995.312 9.552-1.977 2.055-5.288 2.435-7.82 1.278-1.959-.881-3.294-2.867-3.52-4.975-.086-1.226-.034-2.487.469-3.627.763-1.952 2.618-3.368 4.664-3.714Zm.433 2.816c-1.075.38-1.578 1.537-1.734 2.59-.121 1.313-.104 2.799.746 3.887.919 1.192 2.947 1.157 3.866-.017.763-.95.885-2.246.798-3.42-.052-1.037-.416-2.142-1.283-2.781-.694-.466-1.613-.536-2.393-.26Zm13.178-2.107c1.265-.985 3.069-1.089 4.525-.501 1.04.449 1.82 1.364 2.185 2.418.416 1.088.294 2.263.294 3.403 0 2.176-.017 4.352.018 6.511-1.266.018-2.532 0-3.815.018v-7.462c0-.64-.242-1.33-.78-1.727-.815-.553-1.994-.45-2.687.241-.555.553-.798 1.348-.78 2.108v6.84c-1.25-.018-2.515 0-3.763-.018 0-4.11.017-8.221 0-12.332 1.23.017 2.445-.018 3.676.017-.018.57-.018 1.14-.035 1.71.381-.415.693-.881 1.162-1.226ZM2 42.218h3.953c.798 2.643 1.647 5.286 2.393 7.946.919-2.609 1.612-5.303 2.48-7.946 1.265-.017 2.548 0 3.814-.017-1.457 4.11-2.878 8.222-4.317 12.333-1.318 0-2.636-.018-3.954.017C4.861 50.457 3.526 46.295 2 42.218Zm25.401-.017h3.641c-.017.69 0 1.382-.034 2.073.312-.346.537-.778.867-1.106.815-.898 2.15-1.26 3.329-.95a101.366 101.366 0 0 0 0 3.247c-.937-.103-1.977-.069-2.775.501-.85.588-1.23 1.676-1.213 2.678-.018 1.969 0 3.92 0 5.89-1.266 0-2.55-.018-3.815.017.018-4.128.018-8.24 0-12.35Zm8.826.017c1.283-.017 2.548 0 3.831-.017-.017 4.11 0 8.222 0 12.333-1.265-.018-2.548 0-3.831 0V42.218Zm4.854-.017c3.45.017 6.901 0 10.334.017-.034.95 0 1.883-.017 2.833-.121.242-.33.414-.486.622-1.768 1.952-3.502 3.955-5.305 5.89 2.028.034 4.057 0 6.086.017v2.97c-3.537-.016-7.074-.016-10.612 0v-2.866c1.856-2.073 3.694-4.129 5.566-6.184.052-.104.278-.207.156-.345-1.907.051-3.814 0-5.722.034v-2.988Z" fill="#000"/></g></g></svg>