<svg viewBox="0 0 90 90" xmlns="http://www.w3.org/2000/svg"><g fill="none"><path fill="#003382" d="M0 0h90v90H0z"/><path d="M48.252 43.383c.791.474 1.582.896 2.303 1.388 2.53 1.793 3.972 4.29 4.5 7.295.562 3.147.193 6.223-1.354 9.07-1.424 2.62-3.603 4.43-6.31 5.643-2.32 1.037-4.764 1.6-7.278 1.617-5.853.07-11.707.053-17.56.07-.106 0-.229-.017-.387-.034V25.91c0-2.601 2.25-4.869 4.852-4.869 4.078-.018 8.173-.053 12.252.018 3.427.052 6.697.826 9.527 2.9 2.848 2.092 4.342 4.94 4.588 8.455.21 2.9-.387 5.607-2.127 7.98-.58.792-1.336 1.46-2.04 2.18-.298.281-.632.528-.966.809ZM31.377 60.328c.105.018.176.035.228.035 2.883 0 5.749.07 8.631-.035 2.075-.088 3.815-1.02 4.782-2.953 1.107-2.232 1.142-4.553 0-6.785-1.09-2.127-3.041-2.953-5.327-3.024-1.88-.052-3.761-.017-5.642 0-1.319.018-2.303.862-2.549 2.145a7.27 7.27 0 0 0-.105 1.23v8.93c-.018.14-.018.299-.018.457Zm.018-20.144h6.767c.317 0 .633.017.95-.018 1.67-.14 3.04-.791 3.972-2.232.844-1.319 1.055-2.778.95-4.307-.212-2.637-1.952-4.518-4.589-4.711-1.74-.14-3.498-.105-5.256-.07-1.16.035-2.162.492-2.548 1.705-.176.527-.229 1.107-.229 1.67a529.18 529.18 0 0 0 0 7.47c-.035.176-.017.317-.017.493Z" fill="#FFFFFE"/><path d="M59.959 63.264c0-3.112 2.531-5.625 5.66-5.643 3.217 0 5.766 2.531 5.766 5.713 0 3.006-2.602 5.625-5.608 5.643-3.27 0-5.818-2.514-5.818-5.713Z" fill="#2394C6"/></g></svg>