<svg viewBox="0 0 90 90" xmlns="http://www.w3.org/2000/svg"><g fill="none" fill-rule="evenodd"><path fill="#4DDDFF" d="M0 0h90v90H0z"/><ellipse fill="#000" opacity=".02" cx="31.5" cy="72" rx="6.5" ry="2"/><path d="M71.454 47.859C69.536 53.69 64.48 58.506 59.093 60.97a6.634 6.634 0 0 0-10.123 2.11c-1.12.046-9.463.018-11.288-.107a6.639 6.639 0 0 0-5.857-3.51 6.606 6.606 0 0 0-4.393 1.67c-4.538-1.467-8.824-3.973-12.027-8.224 9.472 0 7.603-10.585 8.829-16.862 1.866-9.567 11.33-16 20.514-17.24a25.251 25.251 0 0 1 3.376-.227c15.093 0 28.527 13.475 23.33 29.279" fill="#FFF"/><path d="M43.817 35.266a3.217 3.217 0 1 1-6.434 0 3.217 3.217 0 0 1 6.434 0m15.027 0a3.217 3.217 0 1 1-6.434 0 3.217 3.217 0 0 1 6.434 0M47.998 52.514c-5.45 0-10.36-3.574-11.26-8.251a1.675 1.675 0 0 1 3.29-.633c.528 2.75 3.821 5.645 8.21 5.53 4.572-.12 7.591-2.853 8.212-5.491a1.674 1.674 0 1 1 3.261.767c-.507 2.153-1.894 4.149-3.906 5.619-2.096 1.532-4.683 2.38-7.479 2.454-.11.004-.219.005-.328.005" fill="#4A646D" fill-rule="nonzero"/><path d="M75.612 37.012c-.619-3.655-2.07-7.082-4.316-10.184-2.536-3.503-6.005-6.429-10.032-8.46a29.33 29.33 0 0 0-13.139-3.138c-1.276 0-2.563.087-3.825.257-5.283.714-10.478 2.912-14.628 6.189-4.675 3.692-7.693 8.44-8.725 13.73-.308 1.572-.439 3.312-.566 4.994-.198 2.633-.404 5.355-1.241 7.135-.572 1.216-1.426 2.025-3.734 2.025a3.35 3.35 0 0 0-2.676 5.366c3.478 4.613 8.016 7.407 12.794 9.09a6.624 6.624 0 0 0-.34 2.088 6.642 6.642 0 0 0 6.642 6.642 6.636 6.636 0 0 0 6.628-6.372c1.557.084 8.973.105 9.8.081a6.636 6.636 0 0 0 6.625 6.291 6.642 6.642 0 0 0 6.642-6.642 6.62 6.62 0 0 0-.443-2.37 28.414 28.414 0 0 0 7.208-5.035c2.991-2.87 5.187-6.257 6.35-9.794 1.309-3.98 1.638-7.982.976-11.893M31.826 68.296a2.192 2.192 0 1 1 0-4.383 2.192 2.192 0 0 1 0 4.383m23.053 0a2.192 2.192 0 1 1-.001-4.383 2.192 2.192 0 0 1 0 4.383M71.455 47.86c-1.919 5.83-6.975 10.646-12.362 13.11a6.634 6.634 0 0 0-10.123 2.11c-1.12.046-9.463.018-11.288-.107a6.639 6.639 0 0 0-5.857-3.51 6.606 6.606 0 0 0-4.393 1.67c-4.538-1.467-8.824-3.973-12.027-8.224 9.472 0 7.603-10.585 8.829-16.862 1.866-9.567 11.33-16 20.514-17.24a25.251 25.251 0 0 1 3.376-.227c15.093 0 28.527 13.475 23.33 29.279" fill="#4A646D" fill-rule="nonzero"/><path d="M31.8 68.6a2.4 2.4 0 1 1 0-4.8 2.4 2.4 0 0 1 0 4.8m23 0a2.4 2.4 0 1 1 0-4.8 2.4 2.4 0 0 1 0 4.8" fill="#677F85" fill-rule="nonzero"/></g></svg>