<svg viewBox="0 0 90 90" xmlns="http://www.w3.org/2000/svg"><g fill="none" fill-rule="evenodd"><path fill="#FFF" d="M0 0h90v90H0z"/><path d="M61.606 7.007A823.07 823.07 0 0 1 61.344 7H43.841c-11.458.62-16.274 7.3-17.567 10.856-5.02 15.102-8.145 34.661-10.4 48.78l-.131.82-.733 6.711a11.6 11.6 0 0 0 .34 3.321c1.407 4.094 5.65 7.543 14.999 4.107A657.32 657.32 0 0 0 60.4 67.548c6.142-3.564 15.14-11.756 15.6-22.104-.083-7.675-.34-15.722-.859-23.553l-.003.006v-.054c-.043-.643-.087-1.388-.134-2.162a191.198 191.198 0 0 0-.288-4.302 15.013 15.013 0 0 0-.588-2.29c-1.499-3.354-4.434-4.972-7.53-5.745-1.413-.246-3.148-.29-4.992-.337Zm-.668 15.618a1.57 1.57 0 0 0-1.566-1.571c-9.949 0-18.014 8.092-18.014 18.074v6.05c0 5.365-4.335 9.715-9.682 9.715-.892 0-1.614.725-1.614 1.62v4.944a1.57 1.57 0 0 0 1.566 1.572c9.949 0 18.014-8.092 18.014-18.074v-6.05c0-5.366 4.335-9.715 9.683-9.715.89 0 1.613-.725 1.613-1.62v-4.945Z" fill="#178A9E"/></g></svg>