<svg viewBox="0 0 90 90" xmlns="http://www.w3.org/2000/svg"><g fill="none" fill-rule="evenodd"><path fill="#000" d="M0 0h90v90H0z"/><path d="M77.54 27.836a9.631 9.631 0 0 0-4.74-2.35c-3.952-.6-7.95-.837-11.945-.705h-9.13v41.293h15.38c2.19.05 4.381-.09 6.548-.418a9.126 9.126 0 0 0 3.654-1.488 5.534 5.534 0 0 0 2.066-2.925 29.54 29.54 0 0 0 .594-7.44V39.336a48.733 48.733 0 0 0-.4-7.832 7.175 7.175 0 0 0-2.027-3.669ZM67.777 53.02c0 2.754-.207 4.438-.607 5.065-.4.627-1.485.927-3.254.927V31.844a6.699 6.699 0 0 1 2.725.365c.47.223.812.651.93 1.162a18.33 18.33 0 0 1 .206 3.603V53.02ZM48.555 38.37a3.223 3.223 0 0 0-1.368-1.122 4.72 4.72 0 0 0-1.912-.366 4.58 4.58 0 0 0-1.962.392 3.187 3.187 0 0 0-1.292 1.135 3.47 3.47 0 0 0-.594 1.62l-.09 3.041v2.428l.09 3.068c.076.586.289 1.145.62 1.632.344.492.819.877 1.369 1.11a4.72 4.72 0 0 0 1.911.378 4.58 4.58 0 0 0 1.963-.391 3.13 3.13 0 0 0 1.291-1.136 3.51 3.51 0 0 0 .594-1.632l.09-3.029v-2.402l-.09-3.08a3.416 3.416 0 0 0-.62-1.646Zm-2.737 8.995a7.35 7.35 0 0 1-.103 1.58.427.427 0 0 1-.452.34.426.426 0 0 1-.44-.288 8.008 8.008 0 0 1-.142-1.488v-6.658a3.56 3.56 0 0 1 .142-1.306.476.476 0 0 1 .414-.222.4.4 0 0 1 .426.274c.093.429.128.868.103 1.306l.052 6.462ZM33.092 25.84a19.191 19.191 0 0 0-8.846-1.828A19.181 19.181 0 0 0 17.22 25.2a11.41 11.41 0 0 0-4.778 3.238 8.772 8.772 0 0 0-2.066 4.295 46.754 46.754 0 0 0-.349 6.67v12.024c-.14 3.089.24 6.179 1.124 9.138a8.727 8.727 0 0 0 4.61 4.713 20.02 20.02 0 0 0 8.833 1.71 17.317 17.317 0 0 0 8.665-2.01 9.666 9.666 0 0 0 4.532-4.739 27.963 27.963 0 0 0 1.033-9.073V49.56H26.648v5.222a13.01 13.01 0 0 1-.426 4.308 1.738 1.738 0 0 1-1.782.927 1.79 1.79 0 0 1-1.821-.914 11.872 11.872 0 0 1-.4-3.916v-19.19a12.69 12.69 0 0 1 .4-4.074c.271-.626.904-.94 1.911-.94.675-.099 1.347.2 1.73.77a11.53 11.53 0 0 1 .388 3.917v7.167h12.19V38.92a24.149 24.149 0 0 0-1.046-8.512 9.189 9.189 0 0 0-4.662-4.57h-.038Z" fill="#FFF" fill-rule="nonzero"/></g></svg>