<svg viewBox="0 0 90 90" xmlns="http://www.w3.org/2000/svg"><defs><linearGradient x1="50%" y1="0%" x2="50%" y2="100%" id="a"><stop stop-color="#2CEA8E" offset="0%"/><stop stop-color="#25BD73" offset="100%"/></linearGradient></defs><g fill="none" fill-rule="evenodd"><path fill="url(#a)" d="M0 0h90v90H0z"/><path d="M52.448 20.282c7.94-2.5 12.9 4.474 12.9 8.766v2.758c0 5.88-2.728 8.923-3.263 9.464l-.057.056-.033.032S67 43.903 67 49.345v3.465c0 9-5.487 13.24-10.444 14.81L33.07 75l-5.289-3.865 26.07-8.192c4.799-1.502 7.859-6.4 7.859-9.853v-3.393c0-2.755-2.641-5.232-5.81-4.246l-17 5.341v8.558l-5.289 1.662V26.2ZM27 22.186l5.29 3.865V62.81l19.11-6.004a5.253 5.253 0 0 0 3.7-5.028v-4.692l1.195-.376c2.237-.705 4.094 1.077 4.094 2.992v3.389c0 3.1-2.787 7.293-6.936 8.597L27 69.998V22.186Zm33.058 7.256c0-2.602-2.86-5.119-6.02-4.133l-15.137 4.757v15.2l15.148-4.76c3.634-1.137 6.01-4.26 6.01-8.589Zm-5.422-2.933c2.268-.58 4.104 1.294 4.104 2.935v2.473c0 3.602-1.902 6.343-5.087 7.331l-13.43 4.22v-5.527l10.218-3.21c1.77-.557 3.006-2.253 3.006-4.124v-3.73l.993-.312Zm-8.819-11.053c4.126-1.311 7.472.543 8.57 1.335l2.38 1.733c-.993-.116-2.637-.151-4.711.5l-18.984 5.965-5.29-3.866Z" fill="#161616"/></g></svg>