<svg viewBox="0 0 90 90" xmlns="http://www.w3.org/2000/svg"><g fill="none" fill-rule="evenodd"><path fill="#FF5A60" d="M0 0h90v90H0z"/><path d="M79.01 61.014c-.376-.913-.753-1.902-1.13-2.739-.604-1.37-1.207-2.662-1.735-3.88l-.076-.076a797.004 797.004 0 0 0-16.666-34.386l-.226-.457a155.796 155.796 0 0 1-1.81-3.575c-.754-1.37-1.509-2.815-2.715-4.184C52.238 8.674 48.769 7 45.074 7c-3.77 0-7.164 1.674-9.653 4.565-1.131 1.369-1.96 2.814-2.715 4.184a155.89 155.89 0 0 1-1.81 3.575l-.226.457c-5.807 11.411-11.463 22.975-16.667 34.386l-.075.152c-.528 1.218-1.131 2.51-1.735 3.88-.377.837-.754 1.75-1.13 2.739-.981 2.815-1.283 5.477-.906 8.216.83 5.706 4.6 10.499 9.804 12.629C21.921 82.62 23.958 83 26.07 83c.603 0 1.357-.076 1.96-.152 2.49-.304 5.053-1.141 7.542-2.587 3.092-1.75 6.033-4.26 9.351-7.912 3.318 3.652 6.335 6.163 9.352 7.912 2.488 1.446 5.052 2.283 7.541 2.587.603.076 1.358.152 1.96.152 2.113 0 4.224-.38 6.11-1.217 5.279-2.13 8.974-7 9.803-12.629.604-2.663.302-5.325-.678-8.14ZM45 64.97c-4.073-5.173-6.712-10.042-7.617-14.15-.377-1.75-.453-3.271-.226-4.64.15-1.218.603-2.283 1.206-3.196 1.433-2.054 3.846-3.347 6.637-3.347 2.79 0 5.279 1.217 6.636 3.347.603.913 1.056 1.978 1.207 3.195.226 1.37.15 2.967-.226 4.64-.905 4.033-3.545 8.902-7.617 14.151Zm30.09 3.576a11.29 11.29 0 0 1-6.863 8.9c-1.81.761-3.77.99-5.731.761-1.886-.228-3.77-.837-5.732-1.978-2.715-1.521-5.43-3.88-8.597-7.38 4.977-6.161 7.994-11.79 9.125-16.812.528-2.358.604-4.488.377-6.466-.301-1.902-.98-3.652-2.036-5.174-2.338-3.423-6.26-5.401-10.633-5.401-4.374 0-8.296 2.054-10.634 5.401-1.056 1.522-1.734 3.272-2.036 5.174-.302 1.978-.226 4.184.377 6.466 1.131 5.021 4.223 10.727 9.125 16.889-3.092 3.5-5.882 5.858-8.597 7.38-1.96 1.14-3.846 1.75-5.732 1.977a11.967 11.967 0 0 1-5.731-.76 11.29 11.29 0 0 1-6.863-8.901c-.226-1.902-.075-3.804.679-5.934.226-.761.603-1.522.98-2.435.528-1.217 1.132-2.51 1.735-3.804l.075-.152C23.581 44.962 29.162 33.398 34.97 22.14l.226-.456c.603-1.141 1.206-2.359 1.81-3.5.603-1.217 1.282-2.358 2.111-3.347 1.584-1.826 3.696-2.815 6.033-2.815 2.338 0 4.45.989 6.034 2.815.83.989 1.508 2.13 2.111 3.347.604 1.141 1.207 2.359 1.81 3.5l.226.456a1012.943 1012.943 0 0 1 16.516 34.234v.076c.604 1.218 1.131 2.587 1.735 3.804.377.913.754 1.674.98 2.435.604 1.978.83 3.88.528 5.858Z" fill="#FFF" fill-rule="nonzero"/></g></svg>