<svg viewBox="0 0 90 90" xmlns="http://www.w3.org/2000/svg"><g fill="none" fill-rule="evenodd"><path fill="#07F" d="M0 0h90v90H0z"/><path d="M41.675 32.564C48.929 21.924 78 26.73 78 45.38c0 7.598-5.416 13.218-12.048 16.196-4.084 1.834-9.437 1.45-11.869 1.245-8.703-.717-16.391-8.432-26.255-8.898.036-.682 2.05-2.74 5.395-3.204-2.828-5.941-15.745-5.246-21.22-1.602-.099-2.91 1.96-4.997 4.676-6.23 1.9-.861 3.57-.572 6.294-2.313 2.417-1.27.612-3.442-5.575-1.246.505-3.101 4.452-4.983 12.588-4.983 9.85 0 14.86 3.872 18.343 1.78 1.568-1.179-.784-4.288-6.654-3.56Zm28.053 12.103c-2.176-8.32-11.87-5.86-16.005-3.026-4.111 2.866-6.203 3.635-10.43 4.094 1.578.173 10.858 7.297 17.084 7.297 4.95-.058 10.644-2.601 9.351-8.365Z" fill="#FFF" fill-rule="nonzero"/></g></svg>