<svg viewBox="0 0 90 90" xmlns="http://www.w3.org/2000/svg"><g fill="none" fill-rule="evenodd"><path fill="#FFF" d="M0 0h90v90H0z"/><g fill-rule="nonzero"><path d="M33.96 16.673c-2 4.735-3.6 8.673-3.56 8.753.08.08 2.32-.796 5-1.91 2.72-1.114 5.04-1.91 5.24-1.71.28.278 7.32 16.948 10 23.671l.76 1.91H38.72l-2.12-5.092c-1.16-2.785-2.2-5.133-2.24-5.212-.08-.08-2.48.835-5.36 1.989l-5.2 2.148-1.16 2.785C16.6 58.487 7 81.642 7 81.801c0 .12 3.92.16 8.68.12l8.68-.12 3.88-9.15 3.88-9.151L45 63.38l12.84-.079 1.12 2.467c.6 1.392 2.44 5.61 4 9.35L65.88 82h8.56c5.16 0 8.56-.16 8.56-.398 0-.199-6.76-16.63-15.04-36.483C59.68 25.267 52.8 8.756 52.72 8.477 52.56 8.12 50.64 8 45.04 8H37.6l-3.64 8.673Z" fill="#000"/><path d="m32.84 28.847-4.72 2.07-1 2.307c-.52 1.273-.88 2.387-.8 2.466.08.08 2.28-.716 4.92-1.83 2.6-1.074 4.84-1.989 5-1.989.12 0 1.2 2.268 2.36 5.013 1.4 3.342 2.24 4.854 2.44 4.456.16-.279.64-1.432 1.08-2.507l.76-1.989-2.08-4.973c-1.16-2.745-2.36-5.013-2.64-5.053-.32-.04-2.68.876-5.32 2.03Z" fill="#ED0015"/></g></g></svg>